<?xml version="1.0" encoding="utf-8"?>
<!-- Generator: Adobe Illustrator 21.0.2, SVG Export Plug-In . SVG Version: 6.00 Build 0)  -->
<svg xmlns="http://www.w3.org/2000/svg" xmlns:xlink="http://www.w3.org/1999/xlink" version="1.1" id="Layer_1" x="0px" y="0px" viewBox="0 0 100 100" enable-background="new 0 0 100 100" xml:space="preserve" width="512" height="512">
<g>
	<circle fill="#EFC84A" cx="50" cy="50" r="48"/>
	<path opacity="0.1" d="M97.8806152,53.2198257L77.5,32.8392105L67.1599731,22.4991226l-6.7399902,6.7399902l-0.539978-0.539917   c-0.0100098-0.0200195-0.0200195-0.0300293-0.0300293-0.0400391L58.75,27.569191   c-0.3200073-0.3200684-0.8300171-0.3200684-1.1500244,0l-0.6199951,0.6199951   c-2.1499634,2.1400146-5.0299683,3.2999268-8.0599976,3.4699707c-4.3399658,0.25-8.5999756,2.0300293-11.9199829,5.3499756   c-3.3099976,3.3100586-5.0900269,7.5700684-5.3400269,11.9100342c-0.1699829,3.0300293-1.3299561,5.9100342-3.4699707,8.0599365   l-0.6199951,0.6201172c-0.3200073,0.3199463-0.3200073,0.8299561,0,1.1499023L29.25,60.4290543l-6.75,6.7402344   l30.7119141,30.7119141C77.1569824,96.2974625,96.2929688,77.1636734,97.8806152,53.2198257z"/>
	<g>
		<path fill="#DC8744" d="M68.3376007,51.0826187c0.1752243-3.0275764,1.3292694-5.9150085,3.4736557-8.0593948l0.6196747-0.6196747    c0.3189011-0.3189049,0.3189011-0.8359642-0.0000916-1.1549568l-1.0943146-1.0943108    c-0.3189926-0.3189926-0.8360519-0.3189926-1.154953-0.0000916l-3.0922089,3.0922089    c-0.896698-2.2723808-2.2563324-4.4043465-4.0938759-6.2418861c-1.8374481-1.8374519-3.9694138-3.1970901-6.2417068-4.0936966    l3.0922089-3.0922089c0.3189011-0.3189011,0.3189011-0.8359623-0.0000916-1.1549549l-1.0944901-1.094492    c-0.3189926-0.3189926-0.8360519-0.3189926-1.1549568-0.0000916l-0.6196747,0.6196747    c-2.1443863,2.1443863-5.0315475,3.2983437-8.0590324,3.4736595c-4.3362694,0.2509155-8.599659,2.028717-11.9130516,5.3421097    c-3.3133888,3.3133888-5.0911922,7.5767784-5.3421078,11.9130516c-0.1753159,3.0274849-1.3292732,5.9146461-3.4736595,8.0590324    l-0.6196747,0.6196747c-0.3190823,0.3190842-0.3190823,0.8361435-0.0000896,1.1551361l1.094492,1.0944901    c0.3189926,0.3189926,0.8360538,0.3189926,1.1551361-0.0000877l3.0922108-3.0922089    c0.8964233,2.2724724,2.2562447,4.4042587,4.0936928,6.2417068c1.8375397,1.8375397,3.969326,3.1973572,6.24189,4.0938721    l-3.0922089,3.0922089c-0.3190842,0.3190842-0.3190842,0.8361435-0.0000916,1.1551361l1.0943108,1.0943146    c0.3189926,0.3189926,0.8360519,0.3189926,1.1551361-0.0000916l0.6196747-0.6196747    c2.1443863-2.1443863,5.0318184-3.2984314,8.0595779-3.4738388c4.3360901-0.2507324,8.5991173-2.0285339,11.9125061-5.3419266    S68.0866852,55.4188881,68.3376007,51.0826187z"/>
		
			<ellipse transform="matrix(0.7071068 -0.7071068 0.7071068 0.7071068 -20.7106895 50.0000687)" fill="#EBF0F3" cx="50.0000763" cy="50.0000458" rx="16.5277119" ry="16.5277119"/>
		<g>
			
				<ellipse transform="matrix(0.7071068 -0.7071068 0.7071068 0.7071068 -10.4072075 54.26791)" fill="#E56353" cx="60.3035583" cy="39.6965675" rx="1.0513998" ry="1.0513998"/>
			
				<ellipse transform="matrix(0.7071068 -0.7071068 0.7071068 0.7071068 -31.0141716 45.7322273)" fill="#E56353" cx="39.6965942" cy="60.3035278" rx="1.0513998" ry="1.0513998"/>
		</g>
		<g>
			
				<ellipse transform="matrix(0.7071068 -0.7071068 0.7071068 0.7071068 -24.9785309 60.3035507)" fill="#E56353" cx="60.3035583" cy="60.3035278" rx="1.0513998" ry="1.0513998"/>
			
				<ellipse transform="matrix(0.7071068 -0.7071068 0.7071068 0.7071068 -16.4428482 39.6965866)" fill="#E56353" cx="39.6965942" cy="39.6965675" rx="1.0513998" ry="1.0513998"/>
		</g>
		<g>
			<polygon fill="#2F4859" points="47.6107101,51.6915512 56.4656372,45.0407829 49.4299355,51.764946    "/>
			<polygon fill="#3A556A" points="47.6107101,51.6915512 56.4656372,45.0407829 48.0504227,49.9215126    "/>
		</g>
		<g>
			<polygon fill="#64798A" points="48.1295776,48.1585999 60.3008804,60.3299026 48.3153992,49.970356    "/>
			<polygon fill="#3A556A" points="48.1295776,48.1585999 60.3008804,60.3299026 49.9413376,48.3444214    "/>
		</g>
		
			<ellipse transform="matrix(0.7071068 -0.7071068 0.7071068 0.7071068 -20.725214 49.9940529)" fill="#FCD462" cx="49.9855499" cy="50.0145721" rx="0.905512" ry="0.905512"/>
		<g>
			
				<rect x="56.1676788" y="34.043911" transform="matrix(-0.7071068 -0.7071068 0.7071068 -0.7071068 82.5340347 107.234642)" fill="#CE773C" width="14.6167154" height="4.9601035"/>
			
				<rect x="60.4438705" y="25.7706985" transform="matrix(-0.7071068 -0.7071068 0.7071068 -0.7071068 92.857666 102.9584503)" fill="#2F4859" width="14.6167154" height="12.9541502"/>
			<g>
				<g>
					
						<rect x="61.3564644" y="28.637886" transform="matrix(-0.7071068 -0.7071068 0.7071068 -0.7071068 84.2471619 94.2744217)" fill="#64798A" width="0.5839807" height="2.1023304"/>
					
						<rect x="64.035965" y="25.9583874" transform="matrix(-0.7071068 -0.7071068 0.7071068 -0.7071068 90.7160492 91.5949249)" fill="#64798A" width="0.5839807" height="2.1023304"/>
					
						<rect x="66.7154617" y="23.2788868" transform="matrix(-0.7071068 -0.7071068 0.7071068 -0.7071068 97.1849365 88.9154205)" fill="#64798A" width="0.5839807" height="2.1023304"/>
				</g>
				<g>
					
						<rect x="70.018959" y="37.3003807" transform="matrix(-0.7071068 -0.7071068 0.7071068 -0.7071068 92.9096603 115.1875305)" fill="#64798A" width="0.5839807" height="2.1023304"/>
					
						<rect x="72.6984558" y="34.6208801" transform="matrix(-0.7071068 -0.7071068 0.7071068 -0.7071068 99.37854 112.5080338)" fill="#64798A" width="0.5839807" height="2.1023304"/>
					
						<rect x="75.3779602" y="31.9413795" transform="matrix(-0.7071068 -0.7071068 0.7071068 -0.7071068 105.8474274 109.8285294)" fill="#64798A" width="0.5839807" height="2.1023304"/>
				</g>
			</g>
			
				<rect x="29.2156048" y="60.9959869" transform="matrix(0.7071068 0.7071068 -0.7071068 0.7071068 55.5819588 -7.2346401)" fill="#CE773C" width="14.6167154" height="4.9601035"/>
			
				<rect x="24.939415" y="61.2751503" transform="matrix(0.7071068 0.7071068 -0.7071068 0.7071068 57.3532143 -2.958451)" fill="#2F4859" width="14.6167154" height="12.9541502"/>
			<g>
				<g>
					
						<rect x="38.0595551" y="69.2597809" transform="matrix(0.7071068 0.7071068 -0.7071068 0.7071068 60.9502563 -6.5250387)" fill="#64798A" width="0.5839807" height="2.1023304"/>
					
						<rect x="35.3800545" y="71.9392853" transform="matrix(0.7071068 0.7071068 -0.7071068 0.7071068 62.0601425 -3.8455384)" fill="#64798A" width="0.5839807" height="2.1023304"/>
					
						<rect x="32.7005539" y="74.618782" transform="matrix(0.7071068 0.7071068 -0.7071068 0.7071068 63.1700249 -1.166038)" fill="#64798A" width="0.5839807" height="2.1023304"/>
				</g>
				<g>
					
						<rect x="29.3970623" y="60.59729" transform="matrix(0.7071068 0.7071068 -0.7071068 0.7071068 52.2877617 -2.9369164)" fill="#64798A" width="0.5839807" height="2.1023304"/>
					
						<rect x="26.7175617" y="63.2767906" transform="matrix(0.7071068 0.7071068 -0.7071068 0.7071068 53.3976479 -0.2574159)" fill="#64798A" width="0.5839807" height="2.1023304"/>
					
						<rect x="24.0380611" y="65.9562912" transform="matrix(0.7071068 0.7071068 -0.7071068 0.7071068 54.507534 2.4220843)" fill="#64798A" width="0.5839807" height="2.1023304"/>
				</g>
			</g>
		</g>
	</g>
</g>
</svg>
