<?xml version="1.0" encoding="utf-8"?>
<!-- Generator: Adobe Illustrator 21.0.2, SVG Export Plug-In . SVG Version: 6.00 Build 0)  -->
<svg xmlns="http://www.w3.org/2000/svg" xmlns:xlink="http://www.w3.org/1999/xlink" version="1.1" id="Layer_1" x="0px" y="0px" viewBox="0 0 100 100" enable-background="new 0 0 100 100" xml:space="preserve" width="512" height="512">
<g>
	<circle fill="#EFC84A" cx="50" cy="50" r="48"/>
	<path opacity="0.1" d="M43.7199707,27.8499756l-0.6499634-0.0899658l-1.1900024-1.1900024v-0.0100098l-2.0599976-2.0499878   l-2.460022,2.4599609h-0.0199585l-2.0400391-2.039978v-0.0100098l-2.0599976-2.0499878l-3.0999756,3.0999756l-2.4299927-0.3399658   l-2.3099976,2.3099976l9.5799561,9.5799561c-2.3599854,3.0100098-4.3999634,5.9900513-5.6799927,8.4100342l-5.8499756-0.8099976   L22.5,46.0700073l4.9000244,4.8999634l-1.9200439,1.9299927l11.2200317,11.2200317   c1.1099854,2.8099976,2.8099976,5.3300171,4.9500122,7.3999634l0.0199585,0.0200195l23.8726807,23.8726807   c14.4984131-4.9614258,25.8687744-16.6577759,30.3638916-31.3660889L55.5100098,23.6499634   C53.539978,21.6799927,50.2399902,21.75,43.7199707,27.8499756z"/>
	<g>
		<g>
			<ellipse fill="#27A2DB" cx="56.3653259" cy="56.394825" rx="20.6487141" ry="20.6198902"/>
			<path fill="#FFFFFF" d="M56.3661995,35.28965c-11.6538239,0-21.1355515,9.4676208-21.1355515,21.105175     S44.7123756,77.5,56.3661995,77.5S77.5,68.0323792,77.5,56.394825S68.0200195,35.28965,56.3661995,35.28965z      M57.2608986,48.5512772c3.0257301-0.0771103,6.0680618-0.5358315,9.2729073-1.392746     c0.8186874,2.4979973,1.3027344,5.3344231,1.3857346,8.3428421H57.2608986V48.5512772z M57.2608986,46.7475777v-9.5954437     c3.584919,0.4605789,6.7176819,3.6425171,8.6479683,8.3214684C62.9235497,46.256134,60.0852356,46.6723213,57.2608986,46.7475777     z M55.4714966,37.1521339v9.5957718c-2.8256454-0.0741653-5.6648331-0.4901352-8.6503716-1.2725601     C48.7514153,40.795414,51.8850517,37.6127129,55.4714966,37.1521339z M55.4714966,48.5514946v6.9498787H44.8111076     c0.083004-3.0078735,0.5666122-5.8439713,1.3852997-8.3416443C49.4021263,48.0165367,52.4446754,48.474823,55.4714966,48.5514946     z M43.0232353,55.5013733h-5.9577522c0.1743088-3.7781906,1.4265823-7.2745628,3.4761391-10.1849327     c1.3566856,0.5124893,2.6788559,0.9702339,3.9671745,1.3614426     C43.6298218,49.3391533,43.1079865,52.3305588,43.0232353,55.5013733z M43.0232353,57.2882767     c0.0847511,3.1714706,0.6065865,6.1634178,1.4859962,8.8250122c-1.2878799,0.3913269-2.6098328,0.8492813-3.9660835,1.3618851     c-2.0504265-2.9108047-3.3033562-6.4078331-3.4776649-10.1868973H43.0232353z M44.8111076,57.2882767h10.6603889v6.9504242     c-3.0266037,0.076889-6.0693703,0.5353928-9.2746544,1.3925247     C45.3781586,63.1332283,44.8941116,60.2968025,44.8111076,57.2882767z M55.4714966,66.040657v9.5968552     c-3.5862274-0.4604645-6.7194252-3.642952-8.6499367-8.3224487     C49.8066635,66.5319901,52.6458511,66.1154709,55.4714966,66.040657z M57.2608986,75.6375122v-9.5969696     c2.8249893,0.0746002,5.6639595,0.4906845,8.6490593,1.2731094     C63.9798889,71.9939117,60.8464699,75.1768265,57.2608986,75.6375122z M57.2608986,64.2387009v-6.9504242h10.6586418     c-0.0830002,3.0079842-0.5666122,5.8439713-1.3852997,8.3417511     C63.328743,64.7736588,60.2864113,64.3154831,57.2608986,64.2387009z M69.7074127,57.2882767h5.957756     c-0.1743088,3.7779732-1.42659,7.2741241-3.4757004,10.184494c-1.3569107-0.5122681-2.6788635-0.969902-3.9671783-1.3610077     C69.101265,63.4504967,69.622879,60.4590912,69.7074127,57.2882767z M69.7074127,55.5013733     c-0.0845337-3.17136-0.606369-6.1632004-1.4855576-8.8247986c1.2878799-0.3913193,2.6098328-0.8491707,3.9660797-1.36166     c2.0499954,2.9106979,3.3029251,6.4076118,3.4772339,10.1864586H69.7074127z M71.0343933,43.8352432     c-1.1707993,0.4313469-2.3166962,0.8205986-3.4348526,1.1565132c-1.0985031-2.6868973-2.5724869-4.9459381-4.3040009-6.6119995     C66.3114395,39.5408516,68.9636536,41.4266777,71.0343933,43.8352432z M49.4366379,38.3795395     c-1.7326088,1.6664963-3.2070274,3.9263-4.3057442,6.6142883c-1.1183777-0.3359146-2.2647133-0.7253838-3.4359474-1.1569481     C43.7665634,41.4274406,46.4196472,39.5408516,49.4366379,38.3795395z M41.6966934,68.9545135     c1.1705818-0.4316711,2.3164787-0.8213577,3.4346352-1.1574936c1.0987167,2.6873322,2.5731392,4.9468155,4.3053093,6.6130905     C46.4202995,73.2491226,43.7678719,71.3631897,41.6966934,68.9545135z M63.2955399,74.4098892     c1.7321701-1.6666031,3.2063751-3.9266281,4.3050919-6.6146164c1.1183777,0.3359222,2.2644882,0.7256012,3.4355087,1.1570587     C68.9649582,71.3617706,66.3123169,73.2484741,63.2955399,74.4098892z"/>
		</g>
		<g>
			<g>
				<g>
					
						<rect x="50.1033821" y="37.4511871" transform="matrix(0.7071068 0.7071068 -0.7071068 0.7071068 43.6488647 -24.6307373)" fill="#2F4859" width="2.905961" height="5.8445735"/>
					
						<rect x="51.7426224" y="44.0312424" transform="matrix(0.7071068 0.7071068 -0.7071068 0.7071068 48.7817917 -23.8626022)" fill="#2F4859" width="2.905961" height="5.8445735"/>
					<polygon fill="#3A556A" points="41.9668236,39.4680748 51.2150307,53.7588501 53.526207,51.4476738 50.6629028,30.7719936             "/>
				</g>
				<g>
					
						<rect x="37.3289375" y="24.6767406" transform="matrix(-0.7071068 -0.7071068 0.7071068 -0.7071068 46.689415 74.5374451)" fill="#2F4859" width="2.905961" height="5.8445735"/>
					
						<rect x="30.7488785" y="23.0374985" transform="matrix(-0.7071068 -0.7071068 0.7071068 -0.7071068 36.6156731 67.0862808)" fill="#2F4859" width="2.905961" height="5.8445735"/>
					<polygon fill="#3A556A" points="39.6873169,37.1885681 25.3965397,27.9403591 27.707716,25.6291828 48.3833961,28.492485             "/>
				</g>
			</g>
			<g>
				<polygon fill="#3A556A" points="29.2969017,50.7935104 33.0903893,56.6553879 34.0384026,55.7073746 32.8639145,47.2264977           "/>
				<polygon fill="#3A556A" points="28.3618793,49.8584862 22.5000019,46.0650024 23.4480133,45.1169891 31.9288921,46.2914772           "/>
			</g>
			<path fill="#64798A" d="M55.5087204,23.646841c-2.1102715-2.1102715-5.7594414-1.8826981-13.2968788,5.6547394     S26.1029797,48.8320389,28.2132511,50.9423103s14.1031208-6.4613266,21.6405582-13.998764     S57.6189919,25.7571125,55.5087204,23.646841z"/>
			<g>
				<path fill="#EBF0F3" d="M52.6889458,30.519186c-1.0054817-2.13731-1.9141579-3.0466366-4.052742-4.0527439      c0.2706871-0.575388,0.406292-0.863081,0.6770248-1.4386845c2.5411453,1.1958542,3.6199074,2.275526,4.8144035,4.8144035      C53.5513382,30.1122036,53.2644196,30.2485828,52.6889458,30.519186z"/>
			</g>
			
				<rect x="28.6125164" y="45.3242226" transform="matrix(0.7071068 0.7071068 -0.7071068 0.7071068 43.8903046 -5.9820523)" fill="#3A556A" width="1.1072261" height="9.3300772"/>
		</g>
	</g>
</g>
</svg>
