<?xml version="1.0" encoding="utf-8"?>
<!-- Generator: Adobe Illustrator 21.0.2, SVG Export Plug-In . SVG Version: 6.00 Build 0)  -->
<svg xmlns="http://www.w3.org/2000/svg" xmlns:xlink="http://www.w3.org/1999/xlink" version="1.1" id="Layer_1" x="0px" y="0px" viewBox="0 0 100 100" enable-background="new 0 0 100 100" xml:space="preserve" width="512" height="512">
<g>
	<circle fill="#EFC84A" cx="50" cy="50" r="48"/>
	<path opacity="0.1" d="M49.7999878,22.4991226c-8.3200073,0-15.0899658,6.8400879-15.0899658,15.25   c0,0.7399902,0.0700073,1.460083,0.1699829,2.1700439h-5.2600098v37.5799561l20.4978027,20.4978027   c22.0317383-0.0532227,40.5640259-14.9519043,46.1494141-35.2205811L60.6500244,27.1591568   C57.9000244,24.2891617,54.0499878,22.4991226,49.7999878,22.4991226z"/>
	<g>
		<g>
			<path fill="#27A2DB" d="M64.1904907,35.7362938c1.2714691,9.6476402-6.7412071,17.7865524-16.2759666,16.572113     c-6.4727936-0.8244362-11.6477623-6.0693283-12.5003357-12.538475     c-1.2714691-9.6476421,6.7412071-17.7865543,16.2759666-16.5721169     C58.1629486,24.0222511,63.3379135,29.2671452,64.1904907,35.7362938z"/>
			<path fill="#FFFFFF" d="M49.8023376,22.4999981c-8.3222504,0-15.0928688,6.8426285-15.0928688,15.2531147     s6.7706184,15.2531128,15.0928688,15.2531128s15.0928726-6.8426285,15.0928726-15.2531128     S58.1245918,22.4999981,49.8023376,22.4999981z M58.2216721,37.175705     c-0.0418434-2.1307106-0.3137016-4.1366959-0.7741432-5.9415226c1.415638-0.2202625,2.8286247-0.5126324,4.2389603-0.8546944     c1.2151947,1.9929142,1.9519577,4.3126965,2.0515518,6.796217H58.2216721z M63.7380409,38.3305206     c-0.1023827,2.5517464-0.8791771,4.9293289-2.1544914,6.9583626c-1.3917847-0.335434-2.787056-0.6087036-4.1845589-0.8248062     c0.4904289-1.8538475,0.7793045-3.9273605,0.8226814-6.1335564H63.7380409z M61.0080338,29.3664513     c-1.2907982,0.3010044-2.5841064,0.5496731-3.8792267,0.7470989c-0.7859993-2.5054741-1.9546089-4.5416985-3.3698273-5.8776951     C56.6924973,25.1144428,59.2262459,26.9412231,61.0080338,29.3664513z M55.9749832,30.2801418     c-1.8650589,0.2393646-3.7330475,0.3644028-5.6013145,0.3866405v-6.9644947     C52.7337608,24.0587273,54.7809868,26.5991974,55.9749832,30.2801418z M49.2310066,23.7022877v6.9646015     c-1.8684044-0.0219917-3.7365341-0.1468201-5.601593-0.3858681C44.82341,26.5995846,46.870636,24.0587616,49.2310066,23.7022877z      M49.2310066,31.8224812v5.3532238h-6.705616c0.0433769-2.0707283,0.3188629-4.0264587,0.7769318-5.7750378     C45.2761803,31.6612473,47.2532425,31.7997494,49.2310066,31.8224812z M49.2310066,38.3305206v5.5526581     c-1.9603271,0.0225182-3.9203758,0.1617622-5.8767967,0.4179726c-0.489315-1.7976341-0.7837677-3.8224754-0.8288193-5.9706306     H49.2310066z M49.2310066,45.0379257v6.7660103c-2.3183861-0.350132-4.334507-2.8078537-5.5370102-6.3837738     C45.5374336,45.1861877,47.3839417,45.0596352,49.2310066,45.0379257z M50.3736687,51.803936v-6.7659073     c1.8467865,0.0220642,3.6932945,0.1489334,5.5365944,0.3831902     C54.7077599,48.9965782,52.6917763,51.4538422,50.3736687,51.803936z M50.3736687,43.8832855v-5.5527649h6.7056198     c-0.0450554,2.148613-0.3396454,4.1738396-0.8291016,5.9717598     C54.2939072,44.0457497,52.3339958,43.9061546,50.3736687,43.8832855z M50.3736687,37.175705v-5.3533287     c1.9772072-0.0230846,3.9544106-0.161869,5.9284058-0.4227657c0.45821,1.7488232,0.7338333,3.7049427,0.7772141,5.7760944     H50.3736687z M45.8456993,24.2358551c-1.4155006,1.3361721-2.5842476,3.3727856-3.3702469,5.8787174     c-1.2952614-0.1972847-2.5888481-0.4457436-3.8797836-0.7466049     C40.3774529,26.9419975,42.9114838,25.1146183,45.8456993,24.2358551z M41.3830032,38.3305206     c0.0433807,2.2056694,0.3321152,4.2786865,0.8222656,6.1322174c-1.3976402,0.2159271-2.7931938,0.48909-4.185257,0.8244896     c-1.2746162-2.0286827-2.0509911-4.4056625-2.1533737-6.956707H41.3830032z M35.8666382,37.175705     c0.0995941-2.4828491,0.8359337-4.8020706,2.0504341-6.7945957c1.4107552,0.3418846,2.8240204,0.6341133,4.2397957,0.8542023     c-0.4603004,1.8045406-0.7320175,3.8101063-0.7738647,5.9403934H35.8666382z M38.7287369,46.313694     c1.2661095-0.2930756,2.534729-0.54319,3.805439-0.7353287c0.7850227,2.4215622,1.9315948,4.3895226,3.3125,5.6922874     C42.9837379,50.413456,40.5029907,48.6521187,38.7287369,46.313694z M53.7578621,51.2706871     c1.3807678-1.3025513,2.527195-3.270092,3.3122215-5.691124c1.2704315,0.1923141,2.5387726,0.4425354,3.8045998,0.7356796     C59.1005707,48.6528587,56.6202431,50.4136658,53.7578621,51.2706871z"/>
		</g>
		<g>
			
				<rect x="57.9869576" y="39.9224358" transform="matrix(-1 -6.192703e-11 6.192703e-11 -1 128.3693695 117.4207458)" fill="#D15241" width="12.3954544" height="37.5758781"/>
			<rect x="64.1846619" y="39.9224319" fill="#E56353" width="6.1978045" height="37.5758591"/>
			<rect x="29.6175594" y="39.9241371" fill="#E56353" width="28.3694897" height="37.5758591"/>
			<polygon fill="#CE412D" points="64.1846619,71.7358704 70.3824692,77.498291 57.9869576,77.498291    "/>
			<g>
				<path fill="#CE412D" d="M43.8020973,62.8882866c-4.8814011,0-8.8527527-4.0139084-8.8527527-8.9475441v-8.7681618h1.9267197      v8.7681618c0,3.8598824,3.1070862,7.0003319,6.926033,7.0003319c3.8195724,0,6.9266586-3.1404495,6.9266586-7.0003319      v-8.7681618h1.9267235v8.7681618C52.6554794,58.8743782,48.684124,62.8882866,43.8020973,62.8882866z"/>
			</g>
			<g>
				<path fill="#D15241" d="M37.2736168,45.6404839c0.3788567,1.1851082-0.6858406,2.2631912-1.8581963,1.8841438      c-0.4204216-0.1359291-0.7654343-0.4855042-0.8999786-0.9063759c-0.3788528-1.1851082,0.6858444-2.2631874,1.8581963-1.8841438      C36.7940636,44.8700409,37.1390762,45.2196159,37.2736168,45.6404839z"/>
				<path fill="#D15241" d="M53.0893784,45.6404839c0.3788528,1.1851082-0.6858406,2.2631912-1.8581963,1.8841438      c-0.4204254-0.1359291-0.7654381-0.4855042-0.8999786-0.9063759c-0.3788567-1.1851082,0.6858406-2.2631874,1.8581963-1.8841438      C52.6098213,44.8700409,52.954834,45.2196159,53.0893784,45.6404839z"/>
			</g>
			<path fill="#FFFFFF" d="M51.6921196,45.1725807c-0.5320129,0-0.9633636,0.4358978-0.9633636,0.9736061v6.4964142     c0,4.0822449-3.4754028,7.3598099-7.5935173,6.9685974c-3.5889244-0.3409729-6.2591743-3.5297966-6.2591743-7.1728172v-6.2921944     c0-0.5377083-0.4313507-0.9736061-0.9633598-0.9736061c-0.5320129,0-0.9633598,0.4358978-0.9633598,0.9736061v6.2376823     c0,4.8122101,3.6519547,8.9586334,8.4077644,9.1951828c5.0833549,0.2528305,9.2983704-3.8537407,9.2983704-8.936451v-6.4964142     C52.6554794,45.6084785,52.2241287,45.1725807,51.6921196,45.1725807z"/>
		</g>
	</g>
</g>
</svg>
