<?xml version="1.0" encoding="utf-8"?>
<!-- Generator: Adobe Illustrator 21.0.2, SVG Export Plug-In . SVG Version: 6.00 Build 0)  -->
<svg xmlns="http://www.w3.org/2000/svg" xmlns:xlink="http://www.w3.org/1999/xlink" version="1.1" id="Layer_1" x="0px" y="0px" viewBox="0 0 100 100" enable-background="new 0 0 100 100" xml:space="preserve" width="512" height="512">
<g>
	<circle fill="#EFC84A" cx="50" cy="50" r="48"/>
	<path opacity="0.1" d="M95.5770264,65.0570068L60.6799927,30.1599731C56.7000122,25.4799805,50.7800293,22.5,44.1699829,22.5   C32.2199707,22.5,22.5,32.2199707,22.5,44.1699829C22.5,50,24.8200073,55.2999878,28.5800171,59.2000122l0.0199585,0.0199585   c0.1700439,0.1700439,0.3400269,0.3400269,0.5100098,0.5l35.8798218,35.8798218   C79.4155884,90.8600464,90.8165283,79.4733276,95.5770264,65.0570068z"/>
	<g>
		<g>
			<circle fill="#FFFFFF" cx="44.1680107" cy="44.16745" r="20.6678505"/>
			<path fill="#E56353" d="M44.1679688,22.5c-11.9482422,0-21.6679668,9.7197266-21.6679668,21.6669922     c0,11.9482422,9.7197247,21.6679688,21.6679668,21.6679688s21.6679688-9.7197266,21.6679688-21.6679688     C65.8359375,32.2197266,56.1162109,22.5,44.1679688,22.5z M45.1679688,36.9762573     c2.6516113-0.083252,5.3249512-0.4977417,8.1337891-1.2434082c0.5795898,2.2855835,0.9326172,4.7983398,1.005127,7.4341431     h-9.138916V36.9762573z M45.1679688,34.9494019V24.6015015c3.1530762,0.6279297,5.9257813,4.190918,7.5749512,9.2009277     C50.1303711,34.4863281,47.638916,34.8681641,45.1679688,34.9494019z M43.1679688,24.6015015v10.3479004     c-2.4707031-0.0812988-4.9621582-0.4631958-7.5749512-1.1470337     C37.2421875,28.7923584,40.0148926,25.2294312,43.1679688,24.6015015z M43.1679688,36.9762573v6.1907349h-9.138916     c0.0725098-2.6358032,0.4255371-5.1484985,1.005127-7.434082C37.8432617,36.4785767,40.5166016,36.8930054,43.1679688,36.9762573     z M32.0292969,43.1669922h-7.4785137c0.1850586-3.6525879,1.3493652-7.0496826,3.2670898-9.913208     c1.8261719,0.7514038,3.5712891,1.3889771,5.2558575,1.9139404     C32.4614258,37.6124878,32.0996094,40.3085938,32.0292969,43.1669922z M32.0292969,45.1669922     c0.0703125,2.8588257,0.4321289,5.5552368,1.0444336,8.0002441c-1.6843243,0.5249634-3.4294415,1.1624146-5.2556133,1.9138184     c-1.9179688-2.8637695-3.0825195-6.2612915-3.267334-9.9140625H32.0292969z M34.0290527,45.1669922h9.138916v6.1920776     c-2.6516113,0.0831909-5.324707,0.4975586-8.1335449,1.243042     C34.4545898,50.3162842,34.1015625,47.8032227,34.0290527,45.1669922z M43.1679688,53.3858032v10.3476563     c-3.1530762-0.6278687-5.9257813-4.1907959-7.5749512-9.2008667     C38.2058105,53.8487549,40.6970215,53.4671021,43.1679688,53.3858032z M45.1679688,63.7334595V53.3858032     c2.4707031,0.0812988,4.9621582,0.4630127,7.5749512,1.1468506C51.09375,59.5426636,48.3210449,63.1055908,45.1679688,63.7334595     z M45.1679688,51.3590698v-6.1920776h9.138916c-0.0725098,2.6362305-0.4255371,5.149292-1.0053711,7.4351807     C50.4926758,51.8565674,47.8193359,51.4423218,45.1679688,51.3590698z M56.3066406,45.1669922h7.4785156     c-0.1848145,3.652832-1.3493652,7.050354-3.2675781,9.9141846c-1.8259277-0.7514648-3.5710449-1.388855-5.2553711-1.9138184     C55.8745117,50.7223511,56.2363281,48.0258789,56.3066406,45.1669922z M56.3066406,43.1669922     c-0.0703125-2.8584595-0.4321289-5.5546265-1.0444336-7.9993896c1.6845703-0.5250244,3.4296875-1.1625977,5.2558594-1.9141235     c1.9177246,2.8635864,3.0820313,6.2608032,3.2670898,9.9135132H56.3066406z M59.2788086,31.5978394     c-1.579834,0.6370239-3.0986328,1.1850586-4.567627,1.6413574c-1.0253906-3.1821289-2.4904785-5.8225098-4.260498-7.6920166     C53.9277344,26.7238159,56.9763184,28.8348389,59.2788086,31.5978394z M37.8852539,25.5471802     c-1.7700195,1.8695068-3.2353516,4.5099487-4.260498,7.6920776c-1.4689941-0.4562988-2.9880352-1.0042114-4.5678692-1.6411743     C31.3593769,28.8349609,34.4082031,26.723877,37.8852539,25.5471802z M29.0571308,56.7367554     c1.5800781-0.6368408,3.098875-1.1848755,4.567625-1.6410522c1.0253906,3.1820679,2.4904785,5.8223877,4.260498,7.6918945     C34.4082031,61.6108398,31.359621,59.4997559,29.0571308,56.7367554z M50.4506836,62.7875977     c1.7700195-1.8695068,3.2351074-4.5097656,4.260498-7.6917725c1.46875,0.4561768,2.9875488,1.0042114,4.5673828,1.6411133     C56.9760742,59.4998779,53.9277344,61.6109009,50.4506836,62.7875977z"/>
		</g>
		<g>
			
				<ellipse transform="matrix(0.7071068 -0.7071068 0.7071068 0.7071068 -20.4035454 49.2585869)" fill="#64798A" cx="49.2585983" cy="49.2585487" rx="13.9100533" ry="13.9100533"/>
			
				<ellipse transform="matrix(0.7071068 -0.7071068 0.7071068 0.7071068 -20.4035454 49.2585869)" fill="#2D93BA" cx="49.2585983" cy="49.2585487" rx="11.0577106" ry="11.0577106"/>
			
				<ellipse transform="matrix(0.7071068 -0.7071068 0.7071068 0.7071068 -20.5465984 49.6039467)" fill="#27A2DB" cx="49.6039619" cy="49.6039124" rx="10.5692959" ry="10.5692959"/>
			
				<rect x="57.8789902" y="56.8484383" transform="matrix(0.7071068 -0.7071068 0.7071068 0.7071068 -24.8481979 59.9889259)" fill="#64798A" width="4.2199039" height="6.2809052"/>
			<path fill="#3A556A" d="M58.7951202,64.210289l13.2182465,13.2182388c0.752121,0.752121,6.1672897-4.6630402,5.4151688-5.4151611     L64.210289,58.7951202C63.283287,57.8681183,57.8681221,63.283287,58.7951202,64.210289z"/>
			
				<rect x="60.1007004" y="62.9525833" transform="matrix(0.7071068 -0.7071068 0.7071068 0.7071068 -26.4805908 63.9298019)" fill="#FCD462" width="7.6582031" height="1.9544363"/>
		</g>
	</g>
</g>
</svg>
