<?xml version="1.0" encoding="utf-8"?>
<!-- Generator: Adobe Illustrator 21.0.2, SVG Export Plug-In . SVG Version: 6.00 Build 0)  -->
<svg xmlns="http://www.w3.org/2000/svg" xmlns:xlink="http://www.w3.org/1999/xlink" version="1.1" id="Layer_1" x="0px" y="0px" viewBox="0 0 100 100" enable-background="new 0 0 100 100" xml:space="preserve" width="512" height="512">
<g>
	<circle fill="#EFC84A" cx="50" cy="50" r="48"/>
	<path opacity="0.1" d="M67.1099854,30.7199707C62.4899902,26.8200684,56.5200195,24.4599609,50,24.4599609   c-2.039978,0-4.0100098,0.2399902-5.9199829,0.6700439C42.2999878,23.5,39.9400024,22.5,37.3400269,22.5   c-5.5300293,0-10.0100098,4.4799805-10.0100098,10.0100098c0,0.9299316,0.289978,2.1499023,0.7600098,3.5300293   c-0.9100342,1.3299561-1.7000122,2.75-2.3600464,4.2399902c-1.4400024,3.2700195-2.25,6.8898926-2.25,10.6999512   c0,7.1099854,2.8000488,13.5800781,7.3600464,18.3300781l0.6399536,0.6398926l27.2443848,27.2443848   c18.9547119-3.4824219,34.0061646-18.090332,38.1364746-36.8101807L69.6900024,33.2199707   C68.8900146,32.3299561,68.0300293,31.4899902,67.1099854,30.7199707z"/>
	<g>
		<g>
			<circle fill="#EBF0F3" cx="50" cy="50.9794426" r="26.5205574"/>
			<path fill="#27A2DB" d="M69.0365829,36.3617973c-0.8087006,0.5970917-1.4774628,1.117424-2.5439529,1.0159264     c-1.7331619-0.1648521-2.4605408-1.6961594-3.8507118-2.4469795c-0.8850441-0.4780579-1.9497414-0.4297066-2.9539261-0.3688698     c-0.829998,1.3898468-1.0984383,3.1047401-0.7324562,4.681736c-0.7096672-0.1948853-1.2917328,0.6197624-1.4210281,1.3441849     c-0.1292915,0.7244949-0.0864906,1.5479279-0.5819664,2.0918999c-0.3799133,0.4167175-0.9821854,0.5505867-1.4175415,0.9088287     c-0.3140221,0.2584114-0.529808,0.6330528-0.5958977,1.0341911c-0.1163559,0.705513,0.3970337,1.5388489,1.1111794,1.5058289     c0.5512085-0.0255051,0.9644699-0.523468,1.1838379-1.0296898c0.2195702-0.5062218,0.3262672-1.0680809,0.6416855-1.5208321     c0.6899605-0.9901962,2.1729927-1.1116524,3.281189-0.63377c1.1080933,0.4779053,1.9482498,1.4013901,2.8158722,2.2401772     c0.8676262,0.8387833,1.8700142,1.6497993,3.0678902,1.7962875c-1.1149597,1.0659409-2.7735748,1.5300865-4.2796974,1.1976242     c-1.0887871-0.2403488-2.0813255-0.862999-3.1904144-0.9794006c-1.0988388-0.1154327-2.2166862,0.295536-3.0723686,0.994976     c-1.1733856,0.9594421-1.8743935,2.4527283-1.9303322,3.9675903c-0.0383186,1.0357819,0.3399048,2.2322884,1.3109436,2.5944366     c1.2480354,0.4652405,2.6532364-0.7121544,3.9165001-0.291256c0.7403259,0.2465897,1.213501,0.9975624,1.3815117,1.7594337     c0.1681099,0.7618217,0.0907745,1.5527077,0.0754471,2.3326683c-0.0290642,1.5038109,0.1775665,3.0119781,0.6100349,4.4525337     c0.3157158,1.051239,1.1011276,2.2694931,2.1755829,2.0460129c0.5524979-0.11483,0.9492416-0.5946808,1.2409668-1.0775108     c1.5549927-2.5751534,1.3533401-5.836235,2.4022141-8.6557159c1.0074692-2.7083778,3.1490097-4.8910255,5.6270676-6.3772469     c0.7334595-0.4400063,1.5159836-0.8387833,2.0832214-1.4790001c0.3102417-0.349884,0.5377731-0.7541351,0.7052841-1.1873245     c-0.7000122-3.911499-2.2559052-7.5237579-4.4697037-10.6391258     C70.7977066,35.5106201,69.9214249,35.708416,69.0365829,36.3617973z"/>
			<path fill="#27A2DB" d="M52.1279068,28.6655216c-2.6389046-0.0733299-5.2764168-0.0945053-7.9160194-0.0253315     c-0.7493782,0.0196342-2.1902084-0.2259636-2.0590248,0.9379444c0.1001282,0.8874569,2.050766,1.3722305,2.7317657,1.6943913     c0.2118073,0.1003036,0.4360542,0.2112083,0.5563889,0.4123631c0.1368561,0.2284279,0.107296,0.5149822,0.0832062,0.7802601     c-0.0818138,0.9111938-0.039711,1.8334885,0.1248169,2.7335358c1.0369263-0.1119003,1.8047218-0.967556,2.6232758-1.614193     c0.8426437-0.6657715,1.8196526-1.1458931,2.6609001-1.8133831c0.8416481-0.6674881,1.5689316-1.600605,1.6119308-2.6736908     c0.0048752-0.1204338-0.0044785-0.254528-0.0909729-0.3385601C52.3711624,28.6780376,52.243763,28.6693535,52.1279068,28.6655216     z"/>
			<path fill="#27A2DB" d="M26.2070637,43.8599243c-0.0599194,0.9529228-0.2642097,1.9007721-0.2054348,2.8537712     c0.107893,1.7389297,1.0702724,3.2928085,2.0046825,4.763298c0.7703323,1.2125549,1.7667999,2.5614929,3.2025566,2.6113358     c-0.6132202-0.9703674-0.8687687-2.1614723-0.7070789-3.2979355c0.0244846-0.1721153,0.062109-0.3512497,0.1739826-0.4842987     c0.1824436-0.2165565,0.4969654-0.2458191,0.7659035-0.3348503c0.6506443-0.2155151,1.0798283-0.8188057,1.479948-1.3755913     c1.9287415-2.6851616,4.2337112-5.0997925,6.8260345-7.1515579c1.239975-0.9813652,2.5754051-1.9119415,3.4277992-3.2439842     c-0.792675-1.0033379-2.2350998-1.2514458-3.5016518-1.0746269c-1.2663498,0.1767921-2.4609413,0.6951828-3.7164421,0.9373474     c-0.4828339,0.0931625-1.0695763,0.1078415-1.3695679-0.2820282c-0.329052-0.4275894-0.0953522-1.0444183,0.1737862-1.5119209     c0.4818344-0.8364983,1.0523567-1.6218071,1.6993179-2.3384666c0.7027969-0.7788658,1.7711792-1.5275497,2.7225113-1.0853271     c0.5421524,0.2520409,1.0409088,0.8730011,1.5953064,0.6489754c0.4324684-0.1747284,0.5091057-0.8049431,0.2580872-1.1979942     c-0.2513199-0.3930302-0.7080765-0.5967236-1.1462173-0.7564983c-0.7654037-0.2790394-1.5801773-0.492363-2.3887787-0.3939991     c-0.8087006,0.0983887-1.6126251,0.5638771-1.9231644,1.3169899c-0.1285973,0.3123055-0.2002602,0.6983452-0.5016441,0.8510246     c-0.2204666,0.1117783-0.4858208,0.0511131-0.7233047-0.0186844c-1.0137367-0.2983513-1.98806-0.7279587-2.8954983-1.2695389     c-2.3982353,2.3463554-4.3506641,5.1434898-5.7247086,8.2551498     C26.1154442,41.4299393,26.2830067,42.6509056,26.2070637,43.8599243z"/>
			<path fill="#27A2DB" d="M44.9438515,59.6484604c-2.432476-1.3805161-4.9595032-3.3433456-7.5426712-4.3829613     c-1.2266388-0.4936295-1.5674362,0.012043-1.9176903,1.1870499c-0.2043419,0.6851807-0.3141251,1.1819992-0.7315636,1.7749138     c-0.3347282,0.4753151-0.8698158,0.7967796-0.9351082,1.4286385c-0.0526543,0.5076904,0.2472382,0.9774818,0.5340919,1.3996239     c0.6682587,0.9831085,1.3412971,1.9719887,2.1715965,2.8227921c0.306263,0.313797,0.6356163,0.6110077,0.8781776,0.9762878     c0.2548027,0.383873,0.403801,0.829628,0.4947739,1.2813339c0.4869156,2.4139328-0.5572815,5.2093277,0.8577728,7.2247086     c0.7532616-2.3119583,1.5797768-4.7390137,3.4010239-6.3498917c1.0557404-0.9338379,2.3855934-1.5311356,3.3817139-2.5284271     c0.9960213-0.9972382,1.5768929-2.6705284,0.7422142-3.8063927C45.9431572,60.22015,45.4358406,59.9277229,44.9438515,59.6484604     z"/>
		</g>
		<g>
			<path fill="#E56353" d="M47.3453331,32.509304c0,5.5279884-10.009304,21.0022621-10.009304,21.0022621     S27.3267212,38.0372925,27.3267212,32.509304S31.8080406,22.5,37.3360291,22.5S47.3453331,26.9813194,47.3453331,32.509304z"/>
			<circle fill="#D15241" cx="37.3360291" cy="32.509304" r="5.1267176"/>
		</g>
		<g>
			<path fill="#E56353" d="M58.5838051,61.1622276c0,2.2193489-4.0184898,8.431881-4.0184898,8.431881     s-4.018486-6.212532-4.018486-8.431881s1.7991371-4.018486,4.018486-4.018486     C56.784668,57.1437416,58.5838051,58.9428787,58.5838051,61.1622276z"/>
			<circle fill="#D15241" cx="54.5653152" cy="61.1622276" r="2.0582495"/>
		</g>
		<g>
			<path fill="#E56353" d="M64.6605377,34.1728897c0,2.2193489-4.018486,8.4318848-4.018486,8.4318848     s-4.018486-6.2125359-4.018486-8.4318848s1.7991371-4.018486,4.018486-4.018486     C62.8614044,30.1544037,64.6605377,31.9535408,64.6605377,34.1728897z"/>
			<circle fill="#D15241" cx="60.6420517" cy="34.1728897" r="2.0582495"/>
		</g>
	</g>
</g>
</svg>
