<?xml version="1.0" encoding="utf-8"?>
<!-- Generator: Adobe Illustrator 21.0.2, SVG Export Plug-In . SVG Version: 6.00 Build 0)  -->
<svg xmlns="http://www.w3.org/2000/svg" xmlns:xlink="http://www.w3.org/1999/xlink" version="1.1" id="Layer_1" x="0px" y="0px" viewBox="0 0 100 100" enable-background="new 0 0 100 100" xml:space="preserve" width="512" height="512">
<g>
	<circle fill="#E05B49" cx="50" cy="50" r="48"/>
	<path opacity="0.1" d="M96.5615845,61.6807632L73.5800171,38.6991959c-3.3400269-4.25-8.5300293-6.9700928-14.3500366-6.9700928   c-3.3699951,0-6.5199585,0.9300537-9.2299805,2.5200195c-2.710022-1.5899658-5.8599854-2.5200195-9.2299805-2.5200195   c-4.9700317,0-9.4700317,1.9899902-12.7700195,5.210083c-0.0200195,0.0200195-0.0300293,0.0299072-0.039978,0.039917   c-0.2900391,0.2800293-0.5500488,0.5800781-0.8200073,0.880127c-0.1199951,0.1398926-0.25,0.2600098-0.3599854,0.3999023   c-0.2600098,0.3100586-0.5,0.630127-0.7300415,0.9599609c-0.1099854,0.1401367-0.2199707,0.2800293-0.3300171,0.4300537   c-0.2299805,0.3299561-0.4299927,0.6800537-0.6399536,1.0200195c-0.0900269,0.1600342-0.1900024,0.3099365-0.2800293,0.460083   c-0.1900024,0.3498535-0.3699951,0.7199707-0.539978,1.0799561c-0.0700073,0.1400146-0.1400146,0.2799072-0.210022,0.4200439   c0,0,0,0.0100098,0.0100098,0.0100098c-1,2.25-1.5599976,4.7399902-1.5599976,7.3598633   c0,4.9799805,1.9799805,9.4799805,5.2000122,12.7700195l0.1499634,0.1500244L61.5344238,96.595314   C78.7268677,92.3531265,92.2672119,78.8525162,96.5615845,61.6807632z"/>
	<g>
		<g>
			<circle fill="#FCD462" cx="59.2280655" cy="50" r="18.2719364"/>
			<g>
				<path fill="#F6C358" d="M59.2278786,65.4393005c-8.5132561,0-15.4389267-6.9256744-15.4389267-15.4389305      s6.9256706-15.4398308,15.4389267-15.4398308S74.6677094,41.487114,74.6677094,50.00037      S67.7411346,65.4393005,59.2278786,65.4393005z M59.2278786,36.4131737      c-7.4919548,0-13.5862923,6.0952415-13.5862923,13.5871964s6.0943375,13.5862923,13.5862923,13.5862923      S72.8150711,57.4923248,72.8150711,50.00037S66.7198334,36.4131737,59.2278786,36.4131737z"/>
			</g>
			<g>
				<path fill="#F6C358" d="M58.7032394,59.9056435v-1.7444649c-2.1839867-0.2236519-4.1443214-1.0910225-5.8790627-2.6060028      l1.7444649-2.078968c1.3380089,1.1629753,2.7149086,1.8572617,4.1345978,2.078968v-4.6363487      c-1.8008652-0.4297981-3.1194229-0.993782-3.955677-1.6958466c-0.8362541-0.700119-1.2543831-1.7405777-1.2543831-3.1194229      c0-1.3769035,0.4803619-2.5048752,1.4449692-3.380024c0.9646111-0.8770943,2.2189941-1.3555107,3.7650909-1.4352455v-1.1940956      h1.528595v1.2193756c1.752243,0.1264114,3.4091949,0.7254028,4.9708481,1.7911415l-1.553875,2.199543      c-1.052124-0.7487373-2.1898193-1.2115974-3.4169731-1.3866272v4.4924355h0.0719566      c1.8319817,0.4297981,3.1777649,1.0132294,4.0373573,1.7444687c0.8615341,0.733181,1.2913361,1.7969742,1.2913361,3.1913795      s-0.4939728,2.5282097-1.481926,3.405304c-0.9879456,0.8751488-2.2928886,1.3535652-3.9187241,1.4333v1.7211304H58.7032394z       M57.0171165,44.4796677c-0.406456,0.3578377-0.6087151,0.8051376-0.6087151,1.3380051      c0,0.5348167,0.1594734,0.9548874,0.4784164,1.2660522c0.3169975,0.3111649,0.9237671,0.6106606,1.8164215,0.8965416v-4.1345978      C57.9856148,43.9098473,57.4235764,44.12183,57.0171165,44.4796677z M62.0482559,54.9581299      c0.4453545-0.3656197,0.6690025-0.828476,0.6690025-1.3866272c0-0.5562057-0.1750298-0.9996147-0.5250893-1.3263397      c-0.352005-0.3247757-1.0054474-0.6320534-1.9603348-0.9198799v4.3018494      C60.9961319,55.5473976,61.6009598,55.3256912,62.0482559,54.9581299z"/>
			</g>
		</g>
		<g>
			<circle fill="#EBF0F3" cx="40.7719383" cy="50" r="18.2719364"/>
			<path fill="#27A2DB" d="M53.8876152,39.9288406c-0.5571709,0.4113846-1.0179291,0.7698784-1.7527084,0.6999474     c-1.1940994-0.1135788-1.6952477-1.1686058-2.653038-1.6859016c-0.6097679-0.3293686-1.3433151-0.2960548-2.0351715-0.2541389     c-0.571846,0.9575653-0.756794,2.13908-0.5046425,3.2255859c-0.4889412-0.1342697-0.8899689,0.4269981-0.9790497,0.9261055     c-0.089077,0.4991608-0.0595894,1.0664825-0.400959,1.4412613c-0.2617493,0.2871056-0.6766968,0.3793411-0.9766464,0.6261597     c-0.2163544,0.1780396-0.3650246,0.4361534-0.4105606,0.7125282c-0.080162,0.4860802,0.2735481,1.0602264,0.7655754,1.0374756     c0.3797684-0.0175743,0.6644936-0.3606529,0.8156319-0.7094269c0.1512756-0.348774,0.2247887-0.7358818,0.4421043-1.0478134     c0.4753609-0.6822166,1.4971313-0.7658958,2.2606468-0.4366493c0.7634468,0.3292618,1.342289,0.965519,1.9400597,1.5434189     s1.2883911,1.1366692,2.1136894,1.2375946c-0.768177,0.7344055-1.9109116,1.0541878-2.9485931,0.8251305     c-0.7501411-0.1655922-1.4339752-0.5945816-2.1981049-0.6747818c-0.7570724-0.0795288-1.5272369,0.2036171-2.1167793,0.6855125     c-0.8084297,0.6610298-1.2914047,1.6898613-1.3299446,2.7335587c-0.0264015,0.7136269,0.2341843,1.5379868,0.9032021,1.7874985     c0.8598633,0.3205338,1.8280067-0.4906578,2.6983643-0.2006683c0.5100594,0.1698952,0.8360672,0.687294,0.9518204,1.2122002     c0.1158257,0.5248756,0.062542,1.0697746,0.0519829,1.6071434c-0.0200272,1.036087,0.1223373,2.0751724,0.4202957,3.0676765     c0.2175217,0.7242737,0.7586479,1.5636139,1.4989166,1.4096489c0.380661-0.0791206,0.6539993-0.4097214,0.8549919-0.7423782     c1.0713501-1.7742119,0.9324188-4.0210075,1.6550636-5.9635506c0.6941147-1.8659973,2.1695786-3.3697815,3.8768959-4.3937454     c0.5053291-0.303154,1.0444641-0.5778999,1.435276-1.0189934c0.2137489-0.2410583,0.3705101-0.519577,0.4859238-0.8180351     c-0.4822884-2.6949158-1.5542564-5.1836624-3.0795059-7.3300629     C55.1009865,39.3424034,54.4972496,39.4786797,53.8876152,39.9288406z"/>
			<path fill="#27A2DB" d="M42.2380028,34.6263199c-1.8181305-0.0505219-3.6353035-0.0651093-5.4539146-0.0174522     c-0.516304,0.0135269-1.5089989-0.1556816-1.4186134,0.6462173c0.068985,0.6114349,1.4129219,0.9454308,1.8821106,1.1673889     c0.1459274,0.0691071,0.3004303,0.1455193,0.3833351,0.2841072c0.0942917,0.1573792,0.073925,0.3548088,0.0573311,0.5375786     c-0.0563698,0.6277885-0.0273628,1.2632217,0.0859909,1.8833313c0.7144165-0.077095,1.2434044-0.6666183,1.8073654-1.1121368     c0.5805588-0.4586983,1.2536926-0.7894859,1.8332901-1.2493706c0.5798721-0.4598808,1.0809479-1.1027718,1.1105728-1.8420982     c0.0033607-0.0829773-0.0030861-0.1753616-0.0626755-0.2332573     C42.4056015,34.6349449,42.3178253,34.6289597,42.2380028,34.6263199z"/>
			<path fill="#27A2DB" d="M24.3792553,45.0948486c-0.0412807,0.6565361-0.1820316,1.3095779-0.1415386,1.9661674     c0.0743351,1.1980743,0.7373886,2.2686539,1.3811722,3.2817841c0.5307369,0.8354149,1.2172775,1.7647972,2.2064743,1.7991371     c-0.422493-0.6685562-0.5985584-1.4891968-0.4871578-2.2721863c0.0168686-0.1185837,0.0427895-0.2420006,0.1198692-0.3336716     c0.1256981-0.1492004,0.3423958-0.1693611,0.5276852-0.2307014c0.4482765-0.1484833,0.7439709-0.5641327,1.0196438-0.9477425     c1.3288479-1.8500023,2.9169121-3.5136185,4.7029514-4.927227c0.8543091-0.6761322,1.7743797-1.317276,2.36166-2.2350197     c-0.5461349-0.6912689-1.5399246-0.8622093-2.4125443-0.740387c-0.8724785,0.1218071-1.6955185,0.4789619-2.5605259,0.6458054     c-0.3326569,0.0641861-0.736908,0.0743027-0.943594-0.1943054c-0.2267094-0.2946014-0.0656948-0.7195778,0.1197319-1.0416756     c0.3319721-0.5763206,0.7250462-1.1173782,1.170784-1.6111374c0.4842091-0.5366173,1.220295-1.0524406,1.8757362-0.7477608     c0.3735275,0.1736488,0.7171593,0.6014709,1.0991211,0.4471283c0.2979584-0.1203842,0.3507614-0.5545845,0.1778145-0.8253899     c-0.1731491-0.2707863-0.4878426-0.4111252-0.789711-0.5212059c-0.5273399-0.1922493-1.0886993-0.339222-1.6458015-0.2714539     c-0.5571728,0.0677872-1.1110554,0.3884964-1.3250103,0.9073715c-0.0885983,0.2151718-0.1379719,0.4811401-0.3456173,0.5863342     c-0.1518936,0.0770073-0.3347149,0.0352135-0.4983368-0.0128746c-0.6984367-0.205555-1.3697186-0.5015411-1.9949188-0.8746758     c-1.652317,1.6165695-2.997488,3.5437202-3.9441681,5.6875687     C24.3161335,43.4206543,24.4315796,44.2618637,24.3792553,45.0948486z"/>
			<path fill="#27A2DB" d="M37.2883873,55.9727135c-1.6759071-0.9511375-3.4169617-2.3034706-5.1966896-3.0197372     c-0.8451214-0.3400993-1.0799236,0.008297-1.3212395,0.8178444c-0.1407833,0.4720688-0.216423,0.8143616-0.5040264,1.2228661     c-0.2306175,0.3274803-0.5992775,0.5489578-0.6442642,0.9842911c-0.0362759,0.3497849,0.1703415,0.6734581,0.3679752,0.9643021     c0.460413,0.6773338,0.924118,1.3586464,1.496172,1.944828c0.2110062,0.216198,0.4379215,0.4209633,0.6050396,0.6726341     c0.1755524,0.2644768,0.2782097,0.5715904,0.3408852,0.8828049c0.3354683,1.6631355-0.3839531,3.5890846,0.5909805,4.9776268     c0.5189781-1.5928802,1.0884247-3.265049,2.3432121-4.3749046c0.7273788-0.6433907,1.6436081-1.0549088,2.3299103-1.7420158     c0.6862297-0.6870689,1.0864334-1.83992,0.511364-2.6225014C37.9768829,56.3665924,37.6273537,56.1651192,37.2883873,55.9727135z     "/>
		</g>
	</g>
</g>
</svg>
