<?xml version="1.0" encoding="utf-8"?>
<!-- Generator: Adobe Illustrator 21.0.2, SVG Export Plug-In . SVG Version: 6.00 Build 0)  -->
<svg xmlns="http://www.w3.org/2000/svg" xmlns:xlink="http://www.w3.org/1999/xlink" version="1.1" id="Layer_1" x="0px" y="0px" viewBox="0 0 100 100" enable-background="new 0 0 100 100" xml:space="preserve" width="512" height="512">
<g>
	<circle fill="#E05B49" cx="50" cy="50" r="48"/>
	<path opacity="0.1" d="M97.5070801,56.8370361l-34.137085-34.1370239c0-0.2700195-6.5700073-0.2700195-6.5700073,0v0.3599854   h-0.2299805v4.3699951l0.2299805,0.2299805v3.710022c0,2.8599854-1.1400146,5.5999756-3.1400146,7.6300049   c-1.6099854,1.6300049-2.5999756,3.8599854-2.5999756,6.3200073v3.7399902l-7.6199951-7.6199951   c-0.1099854-0.1000366-0.2600098-0.1600342-0.4199829-0.1600342H31.7600098c-0.3099976,0-0.5700073,0.2200317-0.6199951,0.5300293   c-0.1600342,1.1099854-0.2399902,2.289978-0.2399902,3.5100098c0,5.8800049,1.9799805,10.8299561,4.6799927,12.3800049   c0.5599976,0.3199463,0.8800049,0.9400024,0.8800049,1.5799561v10.1500244c0,0.5100098-0.3600464,0.9500122-0.8600464,1.039978   c-1.3899536,0.25-2.3399658,0.7700195-2.3399658,1.3800049c0,0.1400146,0.0700073,0.2800293,0.1799927,0.4199829h-0.0200195   l0.1000366,0.1000366c0.0299683,0.0299683,0.0599976,0.0700073,0.0999756,0.0999756l24.7883301,24.7808228   C78.6962891,93.6640015,94.5811768,77.34552,97.5070801,56.8370361z"/>
	<g>
		<g>
			<path fill="#EBF0F3" d="M66.5106812,39.0044022c-2.008316-2.0370026-3.1391144-4.7787209-3.1391144-7.6392555v-8.6634693     c0-0.2689037-6.5758438-0.2689037-6.5758438,0v8.663496c0,2.860508-1.1307983,5.6022263-3.1391144,7.6392288     c-1.6026268,1.6256027-2.5923386,3.8556709-2.5923386,6.3197212v29.5291862c0,3.528923,18.0387497,3.528923,18.0387497,0     V45.3241234C69.1030197,42.8600731,68.1133575,40.6300049,66.5106812,39.0044022z"/>
			<path fill="#64798A" d="M62.4802818,34.4261284h-4.7933769c-0.5308189,2.0473824-1.5918808,3.9310913-3.1173134,5.4781914     c-1.4341545,1.4541817-2.2236252,3.3790436-2.2236252,5.4199066v29.4562683     c0.3918152,0.5065613,3.0368843,1.4374924,7.7378349,1.4374924c4.700531,0,7.3456039-0.9309311,7.7374191-1.4374924V45.3242264     c0-2.040863-0.7894745-3.9657249-2.2232132-5.4199066C64.0722656,38.3572197,63.0111008,36.4735107,62.4802818,34.4261284z"/>
			<path fill="#FCD462" d="M63.3764687,31.5624619c-0.0012512-0.0658245-0.0049019-0.131361-0.0049019-0.1973152v-8.6634693     c0-0.2689037-6.5758438-0.2689037-6.5758438,0v8.663496c0,0.0659542-0.0036507,0.131464-0.0049057,0.1972885     C58.6860542,31.4487038,61.4812355,31.4487038,63.3764687,31.5624619z"/>
			<rect x="56.5662842" y="23.0610657" fill="#F6C358" width="7.0384612" height="4.3669286"/>
			<path fill="#FCD462" d="M65.173233,53.8790245c-0.4292679-0.0306702-0.8027725-0.2773285-1.0289383-0.6434555     c-0.8404274-1.3606377-2.3438492-2.268013-4.0606499-2.268013s-3.2202225,0.9073753-4.0606537,2.268013     c-0.2261581,0.366127-0.5996666,0.6127853-1.0289307,0.6434555c-1.3099136,0.0935974-2.6198235,0.2225342-3.9297905,0.3892326     v12.1554642c5.8391609,0.6436615,11.8616028,0.6083527,18.0387497,0V54.2682571     C67.7930527,54.1015587,66.483139,53.9726219,65.173233,53.8790245z"/>
			<ellipse fill="#44C4A1" cx="60.0836449" cy="58.2121773" rx="3.2176437" ry="4.46034"/>
			<g>
				<rect x="56.2752304" y="64.9715881" fill="#E56353" width="7.6168275" height="0.8545668"/>
			</g>
		</g>
		<g>
			<path fill="#EBF0F3" d="M39.1847801,70.4709702c-0.5030708-0.0900269-0.8685455-0.5311584-0.8685455-1.0422134V59.28302     c0-0.6440544,0.3234367-1.2589264,0.8819504-1.5796204c2.706562-1.5540924,4.6858788-6.5081711,4.6858788-12.3818321     c0-1.2186089-0.0864792-2.396637-0.2459793-3.5137711c-0.043396-0.3037186-0.3080482-0.5264626-0.6148453-0.5264626H31.7578106     c-0.3068485,0-0.5715542,0.2227974-0.6149502,0.5265694c-0.1595001,1.1170807-0.2458763,2.2950554-0.2458763,3.5136642     c0,5.873661,1.9792099,10.8277397,4.6857758,12.3818321c0.5585136,0.320694,0.8819504,0.9355659,0.8819504,1.5796204v10.1457367     c0,0.511055-0.3654785,0.9521866-0.8685455,1.0422134c-1.3820496,0.2473297-2.3360825,0.7709808-2.3360825,1.3780518     c0,0.8456268,1.8492317,1.5311203,4.1304436,1.5311203c2.281105,0,4.1303368-0.6854935,4.1303368-1.5311203     C41.5208626,71.241951,40.5668793,70.7182999,39.1847801,70.4709702z"/>
			<path fill="#64798A" d="M36.8941307,47.0322647c-1.2796059-0.5558777-3.2219429-0.4841881-4.6714821-0.3163414     c0.2909927,5.1452904,2.1527939,8.8161621,3.9983749,9.8758163c0.0616531,0.0353928,0.1218414,0.0726318,0.1803665,0.1121445     c0.5947113,0.4014091,1.3838692,0.4014626,1.9785843,0c0.0584183-0.0394058,0.1184006-0.0768318,0.1798439-0.1121445     c1.7347412-0.9958115,3.4845085-4.2971649,3.9308815-8.9611893     C39.7849197,48.2308693,36.8941307,47.0322647,36.8941307,47.0322647z"/>
			<circle fill="#3A556A" cx="35.868412" cy="53.6704178" r="0.5418387"/>
			<circle fill="#3A556A" cx="39.8462982" cy="50.9347916" r="0.3964673"/>
			<circle fill="#3A556A" cx="34.4807739" cy="47.6837578" r="0.4757608"/>
			<circle fill="#64798A" cx="39.7009277" cy="45.2388763" r="0.5418387"/>
			<circle fill="#64798A" cx="34.7186546" cy="42.9922295" r="0.2378804"/>
		</g>
	</g>
</g>
</svg>
