<?xml version="1.0" encoding="utf-8"?>
<!-- Generator: Adobe Illustrator 21.0.2, SVG Export Plug-In . SVG Version: 6.00 Build 0)  -->
<svg xmlns="http://www.w3.org/2000/svg" xmlns:xlink="http://www.w3.org/1999/xlink" version="1.1" id="Layer_1" x="0px" y="0px" viewBox="0 0 100 100" enable-background="new 0 0 100 100" xml:space="preserve" width="512" height="512">
<g>
	<circle fill="#334D5C" cx="50" cy="50" r="48"/>
	<path opacity="0.1" d="M77.1799927,23.069191C76.9199829,22.7190933,76.5,22.4991226,76.0200195,22.4991226H23.9799805   c-0.8200073,0-1.4799805,0.6600342-1.4799805,1.4799805v52.0400391c0,0.5500488,0.289978,1.0200195,0.7299805,1.2700195   L43.4893188,97.548439C45.6196899,97.8375015,47.7903442,97.9999771,50,97.9999771c26.5097046,0,48-21.4903564,48-48   c0-2.2285156-0.1644897-4.4176025-0.4584351-6.5653076L77.25,23.149147L77.1799927,23.069191z"/>
	<g>
		<path fill="#EBF0F3" d="M76.0236816,22.4999981H23.9763184c-0.8154297,0-1.4763184,0.6609497-1.4763184,1.4762573v52.0474243    C22.5,76.8390503,23.1608887,77.5,23.9763184,77.5h52.0473633C76.8391113,77.5,77.5,76.8390503,77.5,76.0236816V23.9762554    C77.5,23.1609478,76.8391113,22.4999981,76.0236816,22.4999981z"/>
		<g>
			<path fill="#D5D6DB" d="M76.0236816,22.4999981H23.9763184c-0.8154297,0-1.4763184,0.6609497-1.4763184,1.4762573v5.6644897h55     v-5.6644897C77.5,23.1609478,76.8391113,22.4999981,76.0236816,22.4999981z"/>
			<rect x="24.3788662" y="24.6367283" fill="#EBF0F3" width="36.3148613" height="2.86729"/>
			<circle fill="#27A2DB" cx="63.8268242" cy="26.0703716" r="1.4621104"/>
			<circle fill="#44C4A1" cx="68.1970901" cy="26.0703716" r="1.4621104"/>
			<circle fill="#E56353" cx="72.5673523" cy="26.0703716" r="1.4621104"/>
		</g>
		<rect x="25.3461685" y="32.3539734" fill="#27A2DB" width="25.9163265" height="25.9163265"/>
		<g>
			<rect x="54.9645996" y="33.4230957" fill="#64798A" width="13.2324219" height="2"/>
		</g>
		<g>
			<rect x="54.9645996" y="54.5481682" fill="#E56353" width="8.8622227" height="3.7221336"/>
		</g>
		<g>
			<rect x="54.9645996" y="38.8674316" fill="#D5D6DB" width="19.0644531" height="2"/>
		</g>
		<g>
			<rect x="54.9645996" y="44.3122559" fill="#D5D6DB" width="19.0644531" height="2"/>
		</g>
		<g>
			<rect x="54.9645996" y="49.7565918" fill="#D5D6DB" width="15.1367188" height="2"/>
		</g>
		<g>
			<rect x="27.1978703" y="63.110527" fill="#D5D6DB" width="7.9614835" height="10.4534683"/>
			<rect x="36.657074" y="63.110527" fill="#D5D6DB" width="7.9614835" height="10.4534683"/>
			<rect x="46.1162758" y="63.110527" fill="#D5D6DB" width="7.9614835" height="10.4534683"/>
			<rect x="55.381443" y="63.110527" fill="#D5D6DB" width="7.9614835" height="10.4534683"/>
			<rect x="64.8406448" y="63.110527" fill="#D5D6DB" width="7.9614835" height="10.4534683"/>
		</g>
		<g>
			<polygon fill="#D5D6DB" points="25.3162708,68.3372574 26.3294544,69.350441 26.3294544,67.3240738    "/>
			<polygon fill="#D5D6DB" points="74.6837311,68.3372574 73.6705475,67.3240738 73.6705475,69.350441    "/>
		</g>
	</g>
</g>
</svg>
