<?xml version="1.0" encoding="utf-8"?>
<!-- Generator: Adobe Illustrator 21.0.2, SVG Export Plug-In . SVG Version: 6.00 Build 0)  -->
<svg xmlns="http://www.w3.org/2000/svg" xmlns:xlink="http://www.w3.org/1999/xlink" version="1.1" id="Layer_1" x="0px" y="0px" viewBox="0 0 100 100" enable-background="new 0 0 100 100" xml:space="preserve" width="512" height="512">
<g>
	<circle fill="#EFC84A" cx="50" cy="50" r="48"/>
	<path opacity="0.1" d="M37.5100098,22.5l-0.9500122,12.8699951c-4.0800171,3.4200439-6.6900024,8.5599365-6.6900024,14.3099365   c0,5.7199707,2.5900269,10.8300781,6.6400146,14.2700195l1,13.5500488l19.9301147,19.9237061   c19.7200317-3.0690918,35.4629517-18.1419678,39.5300903-37.5135498L59.5599976,22.5H37.5100098z"/>
	<g>
		<polygon fill="#3A556A" points="60.555378,36.0530624 36.5125122,36.0530624 37.5092392,22.5 59.558651,22.5   "/>
		<polygon fill="#3A556A" points="36.5125122,63.9469376 60.555378,63.9469376 59.558651,77.5 37.5092392,77.5   "/>
		<path fill="#3A556A" d="M69.2994919,46.2287788H66.690918v6.895443h2.6085739    c0.4578552,0,0.8289032-0.3711243,0.8289032-0.8289032V47.057682    C70.1283951,46.5999031,69.7573471,46.2287788,69.2994919,46.2287788z"/>
		<g>
			<circle fill="#64798A" cx="48.5339432" cy="49.6764984" r="18.6623344"/>
			<circle fill="#EBF0F3" cx="48.5339432" cy="49.6764984" r="15.5349531"/>
			<ellipse fill="#FFFFFF" cx="48.5339432" cy="50.1798363" rx="15.5349531" ry="15.0316153"/>
			<g>
				<g>
					<rect x="34.2635078" y="49.3058395" fill="#E56353" width="2.7799551" height="0.7413214"/>
					<rect x="60.0244255" y="49.3058395" fill="#E56353" width="2.7799551" height="0.7413214"/>
				</g>
				
					<ellipse transform="matrix(0.8660256 -0.4999997 0.4999997 0.8660256 -23.3662357 35.9526443)" fill="#E56353" cx="55.4054718" cy="61.5783386" rx="0.5273783" ry="0.5273783"/>
				
					<ellipse transform="matrix(0.8660256 -0.4999997 0.4999997 0.8660256 -13.3056202 25.8920364)" fill="#E56353" cx="41.6624184" cy="37.7746582" rx="0.5273783" ry="0.5273783"/>
				
					<ellipse transform="matrix(0.8660256 -0.4999997 0.4999997 0.8660256 -23.3662319 25.8920307)" fill="#E56353" cx="36.632103" cy="56.548027" rx="0.5273783" ry="0.5273783"/>
				
					<ellipse transform="matrix(0.8660256 -0.4999997 0.4999997 0.8660256 -13.305625 35.9526482)" fill="#E56353" cx="60.4357834" cy="42.8049736" rx="0.5273783" ry="0.5273783"/>
				
					<ellipse transform="matrix(0.5000003 -0.8660253 0.8660253 0.5000003 -5.0110893 66.8698654)" fill="#E56353" cx="55.4054794" cy="37.7746658" rx="0.5273783" ry="0.5273783"/>
				
					<ellipse transform="matrix(0.5000003 -0.8660253 0.8660253 0.5000003 -32.4972 66.8698502)" fill="#E56353" cx="41.6624107" cy="61.5783348" rx="0.5273783" ry="0.5273783"/>
				
					<ellipse transform="matrix(0.5000003 -0.8660253 0.8660253 0.5000003 -18.7541504 80.612915)" fill="#E56353" cx="60.4357796" cy="56.5480347" rx="0.5273783" ry="0.5273783"/>
				
					<ellipse transform="matrix(0.5000003 -0.8660253 0.8660253 0.5000003 -18.754137 53.1268005)" fill="#E56353" cx="36.6321106" cy="42.804966" rx="0.5273783" ry="0.5273783"/>
				<g>
					
						<rect x="47.1439667" y="62.1862984" transform="matrix(6.123234e-17 -1 1 6.123234e-17 -14.023015 111.0909042)" fill="#E56353" width="2.7799551" height="0.7413214"/>
					
						<rect x="47.1439667" y="36.4253807" transform="matrix(6.123234e-17 -1 1 6.123234e-17 11.7379036 85.3299866)" fill="#E56353" width="2.7799551" height="0.7413214"/>
				</g>
			</g>
			<polygon fill="#3A556A" points="46.0183144,50.3200035 45.4567108,49.6759872 46.0194855,49.0329971 55.8085632,49.3694992      56.1358643,49.6857071 55.8079872,50.0013199    "/>
			<polygon fill="#64798A" points="47.9610214,52.2725296 46.8896332,52.4748726 46.5452614,51.440361 53.2353783,40.8834686      53.7947121,40.7273712 53.9304085,41.2920036    "/>
			<circle fill="#FCD462" cx="48.5339432" cy="49.6764984" r="0.791598"/>
		</g>
		<g>
			<g>
				<rect x="38.8329124" y="26.7845192" fill="#64798A" width="19.4020653" height="1.2395763"/>
				<rect x="38.8329124" y="23.6586323" fill="#64798A" width="19.4020653" height="1.2395763"/>
			</g>
			<g>
				<rect x="38.8329124" y="74.4547958" fill="#64798A" width="19.4020653" height="1.2395763"/>
				<rect x="38.8329124" y="71.3289032" fill="#64798A" width="19.4020653" height="1.2395763"/>
			</g>
		</g>
	</g>
</g>
</svg>
