<?xml version="1.0" encoding="utf-8"?>
<!-- Generator: Adobe Illustrator 21.0.2, SVG Export Plug-In . SVG Version: 6.00 Build 0)  -->
<svg xmlns="http://www.w3.org/2000/svg" xmlns:xlink="http://www.w3.org/1999/xlink" version="1.1" id="Layer_1" x="0px" y="0px" viewBox="0 0 100 100" enable-background="new 0 0 100 100" xml:space="preserve" width="512" height="512">
<g>
	<circle fill="#EFC84A" cx="50" cy="50" r="48"/>
	<path opacity="0.1" d="M97.5319214,56.6410904l-22.921936-22.9219971H25.2700195v2.8500977h-1.4500122   c-0.7299805,0-1.3200073,0.5899658-1.3200073,1.3200684v27.0699463c0,0.0098877,0.0100098,0.0198975,0.0100098,0.0299072   c0,0.1501465,0.0299683,0.2900391,0.0800171,0.4200439c0.0199585,0.0500488,0.039978,0.0899658,0.0699463,0.1400146   c0.0500488,0.0999756,0.1100464,0.1999512,0.1900024,0.2800293l0.1000366,0.0999756l31.8324585,31.8325195   C76.848938,95.5784683,94.5116577,78.4507828,97.5319214,56.6410904z"/>
	<g>
		<path fill="#64798A" d="M76.1762695,36.5647354H23.8237324c-0.7310791,0-1.3237305,0.5926514-1.3237305,1.3237915v27.0700073    c0,0.7310791,0.5926514,1.3237915,1.3237305,1.3237915h52.3525391c0.730957,0,1.3237305-0.5927124,1.3237305-1.3237915V37.8885269    C77.5,37.1573868,76.9072266,36.5647354,76.1762695,36.5647354z"/>
		<g>
			<rect x="25.2656937" y="33.7176743" fill="#44C4A1" width="49.3431969" height="25.1607971"/>
			<path fill="#3EA69B" d="M71.359169,57.6286392h-42.84375v-0.75c0-0.6894531-0.5605469-1.25-1.25-1.25h-0.75V36.9675064h0.75     c0.6894531,0,1.25-0.5605469,1.25-1.25v-0.75h42.84375v0.75c0,0.6894531,0.5605469,1.25,1.25,1.25h0.75v18.6611328h-0.75     c-0.6894531,0-1.25,0.5605469-1.25,1.25V57.6286392z M29.9119015,56.1286392h40.0507813     c0.2597656-0.9145508,0.9824219-1.6367188,1.8964844-1.8959961V38.3635025     c-0.9140625-0.2592773-1.6367188-0.9814453-1.8964844-1.8959961H29.9119015     c-0.2597656,0.9145508-0.9824219,1.6367188-1.8964844,1.8959961v15.8691406     C28.9294796,54.4919205,29.6521358,55.2140884,29.9119015,56.1286392z"/>
			<ellipse fill="#3EA69B" cx="49.9372902" cy="46.2980728" rx="5.4598937" ry="7.3170009"/>
			<g>
				<circle fill="#3EA69B" cx="68.1740799" cy="46.2980728" r="1.6713961"/>
				<circle fill="#3EA69B" cx="31.7005024" cy="46.2980728" r="1.6713961"/>
			</g>
		</g>
		<path fill="#64798A" d="M22.5000019,42.7004967V64.924057c0,0.7501221,0.5926514,1.3582687,1.3237305,1.3582687h52.3525391    c0.730957,0,1.3237305-0.6081467,1.3237305-1.3582687V42.7004967H22.5000019z"/>
		<g>
			<circle fill="#FCD462" cx="57.1026955" cy="43.9599991" r="4.0264564"/>
			<g>
				<path fill="#F6C358" d="M57.1027107,47.5002289c-1.9522018,0-3.5401878-1.5879822-3.5401878-3.540184      s1.587986-3.540184,3.5401878-3.540184s3.540184,1.5879822,3.540184,3.540184S59.0549126,47.5002289,57.1027107,47.5002289z       M57.1027107,40.9936409c-1.6356125,0-2.966404,1.3307915-2.966404,2.966404s1.3307915,2.966404,2.966404,2.966404      s2.966404-1.3307915,2.966404-2.966404S58.7383232,40.9936409,57.1027107,40.9936409z"/>
			</g>
			<g>
				<path fill="#F6C358" d="M56.9765625,46.3393822v-0.4190483c-0.5246277-0.0534897-0.9955292-0.2620773-1.4122391-0.6255302      l0.4190445-0.4994011c0.3214111,0.2793655,0.6521645,0.4456749,0.9931946,0.4994011v-1.1137199      c-0.4325943-0.1032448-0.7493324-0.2391891-0.9502144-0.4076004c-0.200882-0.1684151-0.3013191-0.4181137-0.3013191-0.7490997      s0.115387-0.6017075,0.3471031-0.812397c0.2317123-0.2104568,0.5330315-0.3251457,0.9044304-0.3442993v-0.287075H57.34375      v0.2926788c0.4209175,0.0308342,0.8189392,0.1742516,1.1940727,0.4307251l-0.3732643,0.5281296      c-0.2527351-0.1798592-0.5260277-0.2908096-0.8208084-0.3330879v1.0791512h0.0172882      c0.4400673,0.1034775,0.7633438,0.2431564,0.9698334,0.4190445c0.2069511,0.1761208,0.3101959,0.4316597,0.3101959,0.7663841      c0,0.3349571-0.11866,0.6077805-0.3559799,0.8180046c-0.2373199,0.2106895-0.5507851,0.3253784-0.9413376,0.344532v0.413208      H56.9765625z M56.5715294,42.6340675c-0.0976372,0.0859604-0.1462212,0.1931725-0.1462212,0.3214111      c0,0.1282349,0.0383072,0.2296104,0.1149216,0.3041229c0.076149,0.0747452,0.2219009,0.1464577,0.4363327,0.2153625v-0.9931908      C56.8041763,42.4971886,56.6691666,42.5478783,56.5715294,42.6340675z M57.7800827,45.1511497      c0.1069794-0.0878258,0.1607056-0.1987801,0.1607056-0.3328552c0-0.1338425-0.0420456-0.2401199-0.1261368-0.3186035      c-0.0845566-0.0784836-0.2415237-0.1520653-0.4709015-0.2209702v1.0331345      C57.5273476,45.2929344,57.6726341,45.239212,57.7800827,45.1511497z"/>
			</g>
		</g>
		<path fill="#FCD462" d="M46.3309326,44.897953H26.1690693c-0.5048828,0-0.9140625,0.4093018-0.9140625,0.9141846V58.380558    h21.9899883V45.8121376C47.2449951,45.3072548,46.8358154,44.897953,46.3309326,44.897953z"/>
		<rect x="24.5000019" y="48.4164581" fill="#3A556A" width="23.5" height="13.3572855"/>
		<g>
			<path fill="#3A556A" d="M74.9057617,43.9599991H52.5942383C52.2661133,43.9599991,52,44.2260513,52,44.5541763v19.1337891     c0,0.328125,0.2661133,0.5941772,0.5942383,0.5941772h22.3115234c0.328125,0,0.5942383-0.2660522,0.5942383-0.5941772V44.5541763     C75.5,44.2260513,75.2338867,43.9599991,74.9057617,43.9599991z"/>
			<path fill="#2F4859" d="M61.1291504,43.2990379v6.3899536c0,1.4473877,1.173584,2.6207275,2.6208496,2.6207275     s2.6208496-1.1733398,2.6208496-2.6207275v-6.3899536H61.1291504z"/>
			<circle fill="#EBF0F3" cx="63.75" cy="49.53088" r="1.5901716"/>
		</g>
		<path fill="#27A2DB" d="M46.3309326,47.4063492H26.1690693c-0.5048828,0-0.9140625,0.4093018-0.9140625,0.9141846v12.5684204    h21.9899883V48.3205338C47.2449951,47.8156509,46.8358154,47.4063492,46.3309326,47.4063492z"/>
		<rect x="24.5000019" y="50.9248543" fill="#2F4859" width="23.5" height="13.3572855"/>
	</g>
</g>
</svg>
