<?xml version="1.0" encoding="utf-8"?>
<!-- Generator: Adobe Illustrator 21.0.2, SVG Export Plug-In . SVG Version: 6.00 Build 0)  -->
<svg xmlns="http://www.w3.org/2000/svg" xmlns:xlink="http://www.w3.org/1999/xlink" version="1.1" id="Layer_1" x="0px" y="0px" viewBox="0 0 100 100" enable-background="new 0 0 100 100" xml:space="preserve" width="512" height="512">
<g>
	<circle fill="#EA8953" cx="50" cy="50" r="48"/>
	<path opacity="0.1" d="M97.8769531,53.2669678L72,27.3900146L63.4400024,22.5c0,0-3.210022,11.3099976-11.6699829,15.2099609   L36.5599976,22.5L28,27.3900146l2.0999756,6.2999878c1.6500244,4.9400024-0.2099609,10.3699951-4.539978,13.25V77.5   L45.87146,97.8114624C47.2334595,97.9276123,48.6079712,98,50,98C75.4104614,98,96.1958008,78.2511597,97.8769531,53.2669678z"/>
	<g>
		<path fill="#3A556A" d="M74.4444427,46.9444427c-4.3296967-2.8864403-6.1919708-8.3136292-4.5463333-13.2501869L72,27.3888893    L63.4444466,22.5c0,0-3.6666679,12.8848076-13.4444466,15.8888893V77.5h24.4444427V46.9444427z"/>
		<path fill="#64798A" d="M36.5555573,22.5l-8.5555553,4.8888893l2.1015892,6.3053665    c1.6456432,4.9365578-0.2163353,10.3637466-4.5460339,13.2501869V77.5H50V38.3888893    C40.2222252,35.3848076,36.5555573,22.5,36.5555573,22.5z"/>
		<g>
			<rect x="58.5558548" y="61.6110382" fill="#2F4859" width="12.2222223" height="2.4444444"/>
		</g>
		<g>
			<rect x="29.2225227" y="61.6110382" fill="#2F4859" width="12.2222223" height="2.4444444"/>
		</g>
		<g>
			<rect x="53.6669655" y="43.2777023" fill="#2F4859" width="2.4444444" height="2.4444444"/>
		</g>
		<g>
			<rect x="53.6669655" y="51.8332596" fill="#2F4859" width="2.4444444" height="2.4444444"/>
		</g>
		<g>
			<rect x="53.6669655" y="60.388813" fill="#2F4859" width="2.4444444" height="2.4444444"/>
		</g>
		<g>
			<rect x="53.6669655" y="68.9443665" fill="#2F4859" width="2.4444444" height="2.4444444"/>
		</g>
	</g>
</g>
</svg>
