<?xml version="1.0" encoding="utf-8"?>
<!-- Generator: Adobe Illustrator 21.0.2, SVG Export Plug-In . SVG Version: 6.00 Build 0)  -->
<svg xmlns="http://www.w3.org/2000/svg" xmlns:xlink="http://www.w3.org/1999/xlink" version="1.1" id="Layer_1" x="0px" y="0px" viewBox="0 0 100 100" enable-background="new 0 0 100 100" xml:space="preserve" width="512" height="512">
<g>
	<circle fill="#45B39C" cx="50" cy="50" r="48"/>
	<path opacity="0.1" d="M22.5,50c1.5900269,2.0599976,3.2999878,3.8900146,5.0700073,5.5199585L66.958252,94.9082642   c12.8779907-4.8657837,23.111084-15.1063843,27.9656982-27.9898071L73.4099731,45.4099731   C58.1699829,30.5100098,36.3900146,32.039978,22.5,50z"/>
	<g>
		<path fill="#FFFFFF" d="M22.500082,49.9999657L22.5,50.0000191l0.000082,0.0000534    c15.1878109,19.6430779,39.8121033,19.6430779,54.9999161,0v-0.0000534v-0.0000534    C62.3121872,30.3568363,37.6878929,30.3568363,22.500082,49.9999657z"/>
		<circle fill="#27A2DB" cx="50" cy="50" r="13.6743689"/>
		<circle fill="#64798A" cx="50" cy="50" r="7.6319113"/>
		<circle fill="#FFFFFF" cx="54.8953629" cy="45.1046371" r="2.7365491"/>
		<circle fill="#FFFFFF" cx="44.9460983" cy="54.4541092" r="1.7091846"/>
	</g>
</g>
</svg>
