<?xml version="1.0" encoding="utf-8"?>
<!-- Generator: Adobe Illustrator 21.0.2, SVG Export Plug-In . SVG Version: 6.00 Build 0)  -->
<svg xmlns="http://www.w3.org/2000/svg" xmlns:xlink="http://www.w3.org/1999/xlink" version="1.1" id="Layer_1" x="0px" y="0px" viewBox="0 0 100 100" enable-background="new 0 0 100 100" xml:space="preserve" width="512" height="512">
<g>
	<circle fill="#E05B49" cx="50" cy="50" r="48"/>
	<path opacity="0.1" d="M97.8974609,52.9974365L77.5,32.5999756H37.710022l-6.7700195-6.7700195h-2.0999756l-0.3800049-0.3799438   h-4.7000122c-0.7000122,0-1.2600098,0.5599976-1.2600098,1.2599487c0,0.3699951,0.1599731,0.7000122,0.4199829,0.9300537   l0.0100098,0.0099487l8.6400146,8.6400146l5.0800171,21.9400024c-1.4800415,0.4500122-2.5200195,1.8099976-2.5200195,3.4199829   v0.1100464c0,1.0099487,0.4199829,1.9299927,1.0999756,2.5799561l4.3800049,4.3800049   c-0.2799683,0.5499878-0.4500122,1.1799927-0.4500122,1.8500366c0,1.1199951,0.460022,2.1300049,1.210022,2.8499756   L63.119751,96.1697388C82.3253174,90.7220459,96.6251831,73.6282959,97.8974609,52.9974365z"/>
	<g>
		<g>
			<circle fill="#64798A" cx="43.1500015" cy="70.5684509" r="3.9854562"/>
		</g>
		<g>
			<circle fill="#EBF0F3" cx="43.1500015" cy="70.5684509" r="2.2359259"/>
		</g>
		<g>
			<circle fill="#64798A" cx="68.4139709" cy="70.5684509" r="3.9854562"/>
		</g>
		<g>
			<circle fill="#EBF0F3" cx="68.4139709" cy="70.5684509" r="2.2359259"/>
		</g>
		<path fill="#EBF0F3" d="M32.0053825,32.604866v1.7495308h6.6863136v2.8250465h-5.7790871v1.7495308h5.7790871v3.0394669H34.197422    v1.7495308h4.4942741v3.0394669h-3.5110168v1.7495308h3.5110168v3.0394669h-2.301384v1.749527h2.301384v4.5443039    l-1.0242577,0.0998955l0.1691437,1.7409897l33.9671974-3.3119774L77.5,32.604866H32.0053825z M74.605011,37.1794434h-6.6402893    v-2.8250465h7.3176117L74.605011,37.1794434z M54.2033997,46.7574387v-3.0394669h5.1315575v3.0394669H54.2033997z     M59.3349571,48.5069695v3.0394669h-5.1315575v-3.0394669H59.3349571z M54.2033997,41.968441v-3.0394669h5.1315575v3.0394669    H54.2033997z M61.0844879,38.9289742h5.1306992v3.0394669h-5.1306992V38.9289742z M61.0844879,37.1794434v-2.8250465h5.1306992    v2.8250465H61.0844879z M59.3349571,37.1794434h-5.1315575v-2.8250465h5.1315575V37.1794434z M52.4538727,37.1794434h-5.1315575    v-2.8250465h5.1315575V37.1794434z M52.4538727,38.9289742v3.0394669h-5.1315575v-3.0394669H52.4538727z M52.4538727,43.7179718    v3.0394669h-5.1315575v-3.0394669H52.4538727z M52.4538727,48.5069695v3.0394669h-5.1315575v-3.0394669H52.4538727z     M52.4538727,53.2959633v3.2021523l-5.1315575,0.5004387v-3.7025909H52.4538727z M54.2033997,53.2959633h5.1315575v2.5310745    l-5.1315575,0.5004387V53.2959633z M61.0844879,53.2959633h5.1306992v1.8600502l-5.1306992,0.5003853V53.2959633z     M61.0844879,51.5464363v-3.0394669h5.1306992v3.0394669H61.0844879z M61.0844879,46.7574387v-3.0394669h5.1306992v3.0394669    H61.0844879z M67.9647217,43.7179718h5.0726089l-0.7287903,3.0394669h-4.3438187V43.7179718z M67.9647217,41.968441v-3.0394669    h6.2207413l-0.7286911,3.0394669H67.9647217z M40.441227,34.3543968h5.1315575v2.8250465H40.441227V34.3543968z     M40.441227,38.9289742h5.1315575v3.0394669H40.441227V38.9289742z M40.441227,43.7179718h5.1315575v3.0394669H40.441227    V43.7179718z M40.441227,48.5069695h5.1315575v3.0394669H40.441227V48.5069695z M40.441227,53.2959633h5.1315575v3.87323    l-5.1315575,0.5004349V53.2959633z M67.9647217,54.9854279v-1.6894646H70.74086l-0.3483276,1.4526749L67.9647217,54.9854279z     M71.1603012,51.5464363h-3.1955795v-3.0394669h3.9242706L71.1603012,51.5464363z"/>
		<g>
			<path fill="#1C75A1" d="M74.5739822,63.5902596H37.7110023c-1.0105896,0-1.8298302-0.8192406-1.8298302-1.829834v-0.10849     c0-0.9429474,0.7140579-1.7422676,1.6536407-1.8218765c0.3191719-0.0270691,0.6103706-0.1908188,0.7963867-0.4478989     c0.1819572-0.2515793,0.2468796-0.5697937,0.1768303-0.8743401l-7.5670586-32.6785393h-4.0492058v1.7495308h2.6584663     l7.0972137,30.6526566c-1.4753113,0.4519043-2.5158043,1.8131714-2.5158043,3.4204674v0.10849     c0,1.9768181,1.6026001,3.5793648,3.579361,3.5793648h36.8629799c0.4830856,0,0.8747635-0.3916779,0.8747635-0.8747635     C75.4487457,63.981884,75.0570679,63.5902596,74.5739822,63.5902596z"/>
		</g>
		<g>
			<path fill="#E56353" d="M23.7598248,25.4463043c-0.695797,0-1.2598228,0.5640278-1.2598228,1.2597713     s0.5640259,1.2597694,1.2598228,1.2597694h4.7004738v-2.5195408H23.7598248z"/>
		</g>
	</g>
</g>
</svg>
