<?xml version="1.0" encoding="utf-8"?>
<!-- Generator: Adobe Illustrator 21.0.2, SVG Export Plug-In . SVG Version: 6.00 Build 0)  -->
<svg xmlns="http://www.w3.org/2000/svg" xmlns:xlink="http://www.w3.org/1999/xlink" version="1.1" id="Layer_1" x="0px" y="0px" viewBox="0 0 100 100" enable-background="new 0 0 100 100" xml:space="preserve" width="512" height="512">
<g>
	<circle fill="#EA8953" cx="50" cy="50" r="48"/>
	<path opacity="0.1" d="M97.2583008,58.3665161L69.4500122,30.5499878c-10.75-10.7399902-28.1500244-10.7399902-38.9000244,0   c-10.7399902,10.75-10.7399902,28.1500244,0,38.9000244l27.8165283,27.8082275   C78.166748,93.7758179,93.7758789,78.166626,97.2583008,58.3665161z"/>
	<g>
		<circle fill="#64798A" cx="50" cy="50" r="27.5"/>
		<circle fill="#EBF0F3" cx="50" cy="50" r="22.8916283"/>
		<ellipse fill="#FFFFFF" cx="50" cy="50.7416954" rx="22.8916283" ry="22.149931"/>
		<g>
			<g>
				<rect x="28.9717083" y="49.4538116" fill="#E56353" width="4.0964208" height="1.0923789"/>
				<rect x="66.9318695" y="49.4538116" fill="#E56353" width="4.0964208" height="1.0923789"/>
			</g>
			
				<ellipse transform="matrix(0.8660256 -0.4999997 0.4999997 0.8660256 -25.713707 39.1111412)" fill="#E56353" cx="60.1255798" cy="67.5380325" rx="0.7771215" ry="0.7771215"/>
			
				<ellipse transform="matrix(0.8660256 -0.4999997 0.4999997 0.8660256 -10.8888216 24.286274)" fill="#E56353" cx="39.8744202" cy="32.4619675" rx="0.7771215" ry="0.7771215"/>
			
				<ellipse transform="matrix(0.8660256 -0.4999997 0.4999997 0.8660256 -25.7136993 24.2862663)" fill="#E56353" cx="32.4619675" cy="60.1255798" rx="0.7771215" ry="0.7771215"/>
			
				<ellipse transform="matrix(0.8660256 -0.4999997 0.4999997 0.8660256 -10.8888292 39.1111488)" fill="#E56353" cx="67.5380325" cy="39.8744202" rx="0.7771215" ry="0.7771215"/>
			
				<ellipse transform="matrix(0.5000003 -0.8660253 0.8660253 0.5000003 1.9498898 68.3012619)" fill="#E56353" cx="60.1255913" cy="32.4619751" rx="0.7771215" ry="0.7771215"/>
			
				<ellipse transform="matrix(0.5000003 -0.8660253 0.8660253 0.5000003 -38.5524406 68.301239)" fill="#E56353" cx="39.8744087" cy="67.5380249" rx="0.7771215" ry="0.7771215"/>
			
				<ellipse transform="matrix(0.5000003 -0.8660253 0.8660253 0.5000003 -18.3012848 88.5524139)" fill="#E56353" cx="67.5380249" cy="60.1255913" rx="0.7771215" ry="0.7771215"/>
			
				<ellipse transform="matrix(0.5000003 -0.8660253 0.8660253 0.5000003 -18.3012657 48.0500832)" fill="#E56353" cx="32.4619751" cy="39.8744087" rx="0.7771215" ry="0.7771215"/>
			<g>
				
					<rect x="47.9517899" y="68.4338913" transform="matrix(6.123234e-17 -1 1 6.123234e-17 -18.9800816 118.9800873)" fill="#E56353" width="4.0964208" height="1.0923789"/>
				
					<rect x="47.9517899" y="30.4737282" transform="matrix(6.123234e-17 -1 1 6.123234e-17 18.9800835 81.0199203)" fill="#E56353" width="4.0964208" height="1.0923789"/>
			</g>
		</g>
		<polygon fill="#3A556A" points="46.2930794,50.9482384 45.4655266,49.9992447 46.2948036,49.0517616 60.7195587,49.5476151     61.2018585,50.0135689 60.7187119,50.4786415   "/>
		<polygon fill="#64798A" points="49.1557655,53.8253937 47.5770187,54.1235619 47.0695648,52.5991478 56.9278297,37.0429726     57.7520409,36.8129539 57.9519958,37.6449699   "/>
		<circle fill="#FCD462" cx="50" cy="50" r="1.1664643"/>
	</g>
</g>
</svg>
