<?xml version="1.0" encoding="utf-8"?>
<!-- Generator: Adobe Illustrator 21.0.2, SVG Export Plug-In . SVG Version: 6.00 Build 0)  -->
<svg xmlns="http://www.w3.org/2000/svg" xmlns:xlink="http://www.w3.org/1999/xlink" version="1.1" id="Layer_1" x="0px" y="0px" viewBox="0 0 100 100" enable-background="new 0 0 100 100" xml:space="preserve" width="512" height="512">
<g>
	<circle fill="#334D5C" cx="50" cy="50" r="48"/>
	<path opacity="0.1" d="M25.5,31.6900024c0,1.6599731-1.3400269,3-3,3v30.6199951L54.9382935,97.748291   c22.5679321-2.3065796,40.506958-20.2471313,42.810791-42.815918L74.5,31.6900024H25.5z"/>
	<g>
		<path fill="#F6C358" d="M25.5000019,31.6912231c0,1.6568604-1.3431396,3-3,3v30.6175537c1.6568604,0,3,1.3431396,3,3h34.2641602    V31.6912231H25.5000019z"/>
		<path fill="#2D93BA" d="M74.5,31.6912231H59.7641602v36.6175537H74.5c0-1.6568604,1.3432617-3,3-3V34.6912231    C75.8432617,34.6912231,74.5,33.3480835,74.5,31.6912231z"/>
		<path fill="#FCD462" d="M27.6943378,34.690918c-0.5263672,0.9091797-1.2851563,1.6679688-2.1943359,2.1943359v26.2294922    c0.9091797,0.5263672,1.6679688,1.2851563,2.1943359,2.1943359h32.0698242V34.690918H27.6943378z"/>
		<path fill="#27A2DB" d="M72.3056641,34.690918H59.7641602V65.309082h12.5415039    c0.5263672-0.9091797,1.2851563-1.6679688,2.1943359-2.1943359V36.8852539    C73.5908203,36.3588867,72.8320313,35.6000977,72.3056641,34.690918z"/>
		<g>
			<circle fill="#FFFFFF" cx="59.7952003" cy="32.1581764" r="0.3992735"/>
			<circle fill="#FFFFFF" cx="59.7952003" cy="34.2572136" r="0.3992735"/>
			<circle fill="#FFFFFF" cx="59.7952003" cy="36.3562508" r="0.3992735"/>
			<circle fill="#FFFFFF" cx="59.7952003" cy="38.4552917" r="0.3992735"/>
			<circle fill="#FFFFFF" cx="59.7952003" cy="40.5543289" r="0.3992735"/>
			<circle fill="#FFFFFF" cx="59.7952003" cy="42.6533661" r="0.3992735"/>
			<circle fill="#FFFFFF" cx="59.7952003" cy="44.7524033" r="0.3992735"/>
			<circle fill="#FFFFFF" cx="59.7952003" cy="46.8514442" r="0.3992735"/>
			<circle fill="#FFFFFF" cx="59.7952003" cy="48.9504814" r="0.3992735"/>
			<circle fill="#FFFFFF" cx="59.7952003" cy="51.0495186" r="0.3992735"/>
			<circle fill="#FFFFFF" cx="59.7952003" cy="53.1485558" r="0.3992735"/>
			<circle fill="#FFFFFF" cx="59.7952003" cy="55.2475967" r="0.3992735"/>
			<circle fill="#FFFFFF" cx="59.7952003" cy="57.3466339" r="0.3992735"/>
			<circle fill="#FFFFFF" cx="59.7952003" cy="59.4456711" r="0.3992735"/>
			<circle fill="#FFFFFF" cx="59.7952003" cy="61.5447083" r="0.3992735"/>
			<circle fill="#FFFFFF" cx="59.7952003" cy="63.6437492" r="0.3992735"/>
			<circle fill="#FFFFFF" cx="59.7952003" cy="65.7427826" r="0.3992735"/>
			<circle fill="#FFFFFF" cx="59.7952003" cy="67.8418274" r="0.3992735"/>
		</g>
		<rect x="65.6377411" y="39.0448303" fill="#FFFFFF" width="2.2208269" height="21.9103413"/>
		<rect x="27.0413017" y="38.0560188" fill="#E56353" width="23.0506496" height="3.4162779"/>
		<rect x="45.305687" y="60.2358437" fill="#DC8744" width="11.5253248" height="3.4162779"/>
		<rect x="27.0413017" y="45.1433029" fill="#64798A" width="29.789711" height="1.7081389"/>
		<rect x="27.0413017" y="50.5224533" fill="#64798A" width="29.789711" height="1.7081389"/>
		<rect x="27.0413017" y="55.9015999" fill="#64798A" width="29.789711" height="1.7081389"/>
	</g>
</g>
</svg>
