<?xml version="1.0" encoding="utf-8"?>
<!-- Generator: Adobe Illustrator 21.0.2, SVG Export Plug-In . SVG Version: 6.00 Build 0)  -->
<svg xmlns="http://www.w3.org/2000/svg" xmlns:xlink="http://www.w3.org/1999/xlink" version="1.1" id="Layer_1" x="0px" y="0px" viewBox="0 0 100 100" enable-background="new 0 0 100 100" xml:space="preserve" width="512" height="512">
<g>
	<circle fill="#EFC84A" cx="50" cy="50" r="48"/>
	<path opacity="0.1" d="M71.0499878,24.7399902L57.25,22.5599976c-1.5999756-0.25-3.2199707,0.2799683-4.3599854,1.4199829   L23.4500122,53.4199829c-1.2700195,1.2700195-1.2700195,3.3200073,0,4.5900269l38.491394,38.491394   c20.6353149-5.2834473,35.9082031-23.9405518,36.0507813-46.18927L73.9199829,26.2399902   C73.1699829,25.4599609,72.1699829,24.9199829,71.0499878,24.7399902z"/>
	<g>
		<g>
			<path fill="#27A2DB" d="M77.4383087,42.7478523l-2.1739044-13.8012352     c-0.3415527-2.168539-2.042511-3.8694935-4.2110443-4.2110481l-13.8012123-2.1739254     c-1.5985184-0.2517796-3.2210732,0.2761497-4.3653488,1.4204235l-29.43507,29.43507     c-1.2689953,1.2689934-1.2689438,3.3264847,0,4.5954285l18.5357819,18.5357819     c1.2689438,1.2689438,3.3263092,1.2689209,4.5952759-0.0000534l29.4351501-29.4351425     C77.1621857,45.9689026,77.6901093,44.346344,77.4383087,42.7478523z"/>
			<path fill="#1C75A1" d="M25.3968868,55.7144356L55.008213,26.1031094     c0.4638672-0.4638672,1.128418-0.6796875,1.7773438-0.5771484l13.8007851,2.1728516     c0.8867188,0.140625,1.5756836,0.8300781,1.7148438,1.7158203l2.1738281,13.7998028     c0.1025391,0.6445313-0.1176758,1.3154297-0.5766602,1.7753906L44.2850685,74.6031113L25.3968868,55.7144356z      M72.4833145,43.5767403l-2.1577148-13.8515606l-13.8515663-2.2236328l-0.0517578,0.015625L28.2250118,55.7144356     l16.0600567,16.0605507L72.4833145,43.5767403z"/>
			<circle fill="#FFFFFF" cx="69.8640823" cy="30.1267624" r="2.7955317"/>
		</g>
		<g>
			<path fill="#1C75A1" d="M38.2203407,57.336628c0.4661369,0.4661369,0.7224693,0.9955406,0.769474,1.5886917     c0.046524,0.5926666-0.136364,1.0956345-0.5491486,1.5084152c-0.4127846,0.4127846-0.9176788,0.5937462-1.5146866,0.5428848     c-0.5973167-0.0495872-1.1267204-0.3059158-1.5890007-0.7681961c-0.4617958-0.4617996-0.7181282-0.9912033-0.7681961-1.5890007     c-0.0508614-0.5970078,0.1301003-1.101902,0.5428848-1.5146866c0.4127808-0.4127846,0.9176788-0.5937424,1.5146828-0.542881     C37.2233582,56.6127167,37.7546883,56.8709755,38.2203407,57.336628z M40.094574,51.7188377l3.3943214,13.1677666     l-1.6781235,1.6781235l-3.3840027-13.1780853L40.094574,51.7188377z M36.9098587,59.4887619     c0.1811485,0.0319138,0.3307076-0.0106316,0.4481926-0.1281128c0.1166916-0.1166916,0.1608238-0.2678375,0.1320839-0.4521637     c-0.0279427-0.1851196-0.1293221-0.3642921-0.3033409-0.538311c-0.1735344-0.1735344-0.3565636-0.2787704-0.5498772-0.3149071     c-0.1920395-0.0364532-0.3454514,0.0022354-0.4589691,0.1157532c-0.1143074,0.1143074-0.1522026,0.2669296-0.1165466,0.4597626     c0.0369339,0.1925201,0.1421661,0.3755455,0.3157043,0.5490837     C36.5511246,59.3538857,36.7287064,59.456852,36.9098587,59.4887619z M46.9095039,58.3384895     c0.4661369,0.4661369,0.7224655,0.9955406,0.7689896,1.5882072c0.0470047,0.5931511-0.1358833,1.0961151-0.5494614,1.5096931     c-0.4127808,0.4127846-0.9176788,0.5937462-1.5146828,0.5428848c-0.5970078-0.0508614-1.1264076-0.3071938-1.5882072-0.7689934     c-0.4622803-0.4622803-0.7186127-0.9916801-0.769474-1.5886879c-0.0503769-0.5965233,0.1305809-1.1014175,0.5433655-1.5142021     c0.413578-0.413578,0.9184723-0.5945396,1.5149956-0.5441589C45.9120369,57.6140938,46.443367,57.8723526,46.9095039,58.3384895z      M45.5985374,60.4901428c0.181633,0.0323944,0.3307076-0.0106316,0.4473991-0.1273232     c0.117485-0.117485,0.1620979-0.2681465,0.1328773-0.4529572c-0.0287361-0.1843262-0.129631-0.3630142-0.3036499-0.5370331     c-0.1735382-0.1735344-0.3565636-0.2787704-0.5490837-0.3157005c-0.1920395-0.0364532-0.3454552,0.0022354-0.4597626,0.1165466     c-0.1135178,0.1135139-0.1522064,0.2669296-0.1157532,0.4589691c0.0369301,0.1925201,0.1413727,0.376339,0.3149071,0.5498772     C45.2394905,60.3565407,45.4165916,60.4590225,45.5985374,60.4901428z"/>
			<path fill="#1C75A1" d="M54.5480042,51.5406761c0.1285133,1.5065804-0.3112984,2.7639389-1.3194427,3.7720833     c-1.0081444,1.0081482-2.2655067,1.4479599-3.7720871,1.3194427c-1.5068893-0.1272392-2.8685188-0.799839-4.0847168-2.016037     s-1.8883133-2.577343-2.016037-4.0847168c-0.1285172-1.5065804,0.3112984-2.7639389,1.3194427-3.7720833     s2.2655067-1.4479599,3.7720833-1.3194427c1.5065804,0.1285172,2.8685226,0.799839,4.0847206,2.016037     S54.4199677,50.0345802,54.5480042,51.5406761z M50.9866371,49.0128555     c-0.7380104-0.7380104-1.5633202-1.1727638-2.4741745-1.3040886c-0.9121284-0.1310158-1.6523781,0.0876617-2.2215424,0.656826     c-0.5691681,0.5691643-0.7878456,1.3094139-0.6560364,2.2207527c0.1305351,0.911644,0.5652885,1.7369537,1.303299,2.4749641     c0.7389717,0.7389755,1.5618744,1.1713181,2.4696655,1.2979965c0.9069939,0.1274719,1.6453171-0.0931358,2.2144814-0.6623001     s0.789772-1.3074875,0.6630936-2.2152786C52.1579552,50.5747299,51.7256088,49.7518311,50.9866371,49.0128555z"/>
			<path fill="#1C75A1" d="M54.4134026,37.400013l1.6230431,1.6230431l-3.1601753,3.1601753l1.788868,1.788868l3.0037918-3.0037956     l1.6230469,1.6230431l-3.0037956,3.0037956l3.2460861,3.2460861l-1.52174,1.5217438l-8.281044-8.281044L54.4134026,37.400013z"/>
			<path fill="#1C75A1" d="M60.3836823,31.4297314l1.6230431,1.623045L58.84655,36.2129517l1.788868,1.788868l3.0037918-3.0037956     l1.6230431,1.6230431l-3.0037918,3.0037956l3.2460861,3.2460861l-1.52174,1.5217438l-8.281044-8.2810402L60.3836823,31.4297314z"/>
		</g>
	</g>
</g>
</svg>
