<?xml version="1.0" encoding="utf-8"?>
<!-- Generator: Adobe Illustrator 21.0.2, SVG Export Plug-In . SVG Version: 6.00 Build 0)  -->
<svg xmlns="http://www.w3.org/2000/svg" xmlns:xlink="http://www.w3.org/1999/xlink" version="1.1" id="Layer_1" x="0px" y="0px" viewBox="0 0 100 100" enable-background="new 0 0 100 100" xml:space="preserve" width="512" height="512">
<g>
	<circle fill="#EA8953" cx="50" cy="50" r="48"/>
	<path opacity="0.1" d="M60.6500244,25.3900146c-0.6400146-0.4300537-1.5500488-0.9100342-2.8400269-1.3100586   C55.5100098,22.7299805,52.8499756,21.9500122,50,21.9500122c-2.7999878,0-5.4299927,0.7599487-7.7000122,2.0599976   c-3.5899658,1.0799561-4.3900146,2.6900024-4.3900146,2.6900024c-0.1399536,0.3099976-0.2299805,0.8099976-0.2699585,1.4199829   c-1.9800415,2.6099854-3.1700439,5.8499756-3.1700439,9.3699951v1.460022C33.7299805,39.5799561,33.25,40.5100098,33.25,41.5599976   c0,0.8200073,0.2999878,1.5599976,0.7700195,2.1400146v0.0099487l0.0199585,0.0100098   c0.1400146,0.1799927,0.3000488,0.3400269,0.4800415,0.4899902l7.8899536,7.8900146v3.9899902l-3.1099854,0.7900391   l-1.5299683,0.3999634l-5.5800171,1.4200439c-2.75,0.7099609-4.7299805,3.1099854-4.8900146,5.9499512l-0.7799683,13.4000244   l19.795166,19.7952271C47.5327148,97.9377441,48.758728,98,50,98c22.6246948,0,41.5814209-15.6575928,46.6552734-36.7247925   L61.8300171,26.4500122C61.6400146,26.2099609,61.2800293,25.8200073,60.6500244,25.3900146z"/>
	<g>
		<path fill="#F6C358" d="M57.5857811,56.0869331h-0.0007324v-5.098938h-15.170166v5.098938l-3.1137695,0.7963867    c0.6682129,5.3143311,5.2033691,9.4251671,10.6989746,9.4251671c5.4953613,0,10.0307617-4.1108971,10.6987305-9.4252892    L57.5857811,56.0869331z"/>
		<path fill="#FCD462" d="M60.976799,37.0988846c-0.1662827-0.4921455-1.2350655-7.1189747-1.4579659-7.5713024H39.4664154    c-0.2228966,0.4523277-0.2769012,7.0791569-0.4431877,7.5713024c-1.4573975,0.0016823-2.6383896,1.2280388-2.6383896,3.4823418    c0,2.1941223,1.1188316,4.5529671,2.5223656,4.6804428c1.4962769,5.4432983,5.8961143,9.8635483,11.0928116,9.8635483    c5.1966476,0,9.5964851-4.4202499,11.0928116-9.8635483c1.4034843-0.1274529,2.5223389-2.4863205,2.5223389-4.6804428    C63.6151657,38.3269234,62.4342003,37.1005669,60.976799,37.0988846z"/>
		<path fill="#64798A" d="M61.998867,26.69594c0,0-1.7595215-3.5928955-12.0449219-3.6472778    c-10.2856445,0.0543823-12.045166,3.6472778-12.045166,3.6472778c-0.9243164,2.0703125,0.4370117,12.309206,0.4370117,12.309206    l1.1982422-3.649292c0.5205078-1.7420654,1.7966309-2.0703125,1.7966309-2.0703125h8.3059082    c0.4448242,0,0.8811035-0.1227417,1.260498-0.3547974l4.0488281-2.4762592    c-0.2001953,1.3701172-0.505127,2.876833,0.3813477,2.8310566h3.2299805c0,0,1.2758789,0.3282471,1.7963867,2.0703125    l1.1982422,3.649292C61.5618553,39.005146,62.9234276,28.7662525,61.998867,26.69594z"/>
		<path fill="#27A2DB" d="M72.7037811,64.6482773c-0.1636658-2.8376312-2.1449051-5.2430878-4.8986206-5.947422    l-5.5740776-1.4257278c-0.8600922,6.0595398-6.0830536,10.6047554-12.2310181,10.6047554    c-6.1480675,0-11.3709259-4.5451241-12.2310181-10.6046677l-5.5741272,1.4256783    c-2.7537384,0.7043114-4.7350349,3.1097755-4.8987007,5.9474373l-0.7728233,13.4003296h46.9532127L72.7037811,64.6482773z"/>
		<path fill="#2D93BA" d="M50.0000648,67.8798828c6.1479645,0,11.3709259-4.5452156,12.2310181-10.6047554l-1.5322456-0.3919182    c-0.6680374,5.3143959-5.2032661,9.4252853-10.698822,9.4252853c-5.495533,0-10.0307617-4.1108246-10.698822-9.4251518    l-1.5321465,0.3918724C38.6291389,63.3347588,43.8519974,67.8798828,50.0000648,67.8798828z"/>
		<g>
			<g>
				<path fill="#2F4859" d="M65.5393982,39.8570976h-1v-2.3706055c0-8.0146484-6.5205116-14.5351563-14.5361366-14.5351563      c-8.0146484,0-14.5351563,6.5205078-14.5351563,14.5351563v2.3706055h-1v-2.3706055      c0-8.565918,6.96875-15.5351563,15.5351563-15.5351563s15.5361366,6.9692383,15.5361366,15.5351563V39.8570976z"/>
			</g>
			<g>
				<path fill="#3A556A" d="M33.24757,41.561657c0,1.9006386,1.5407982,3.4413528,3.4413948,3.4413528v-6.8827057      C34.7883682,38.1203041,33.24757,39.6610603,33.24757,41.561657z"/>
				<path fill="#2F4859" d="M37.6952057,36.7809982c-0.6656227,0-1.2051544,0.5396347-1.2051544,1.2052574v7.0822754      c0,0.6656227,0.5395317,1.2052536,1.2051544,1.2052536c0.6656265,0,1.2053566-0.5396309,1.2053566-1.2052536v-7.0822754      C38.9005623,37.3206329,38.3608322,36.7809982,37.6952057,36.7809982z"/>
			</g>
			<g>
				<path fill="#3A556A" d="M66.7596436,41.4931297c0-1.9006424-1.5407944-3.4413567-3.4413948-3.4413567v6.8827095      C65.2188492,44.9344826,66.7596436,43.3937263,66.7596436,41.4931297z"/>
				<path fill="#2F4859" d="M62.3120079,46.2737846c0.6656227,0,1.2051582-0.5396309,1.2051582-1.2052536v-7.0822754      c0-0.6656227-0.5395355-1.2052574-1.2051582-1.2052574s-1.2053566,0.5396347-1.2053566,1.2052574v7.0822754      C61.1066513,45.7341537,61.6463852,46.2737846,62.3120079,46.2737846z"/>
			</g>
		</g>
		<path fill="#64798A" d="M64.8961792,40.7827339c-0.6599121,0-1.1999474,0.5400391-1.1999474,1.2000122    c0,0.2409058,0.0898438,0.4529419,0.2133789,0.6414795c-1.2927246,1.5369263-4.7246094,5.1295776-9.8388672,7.0123901    c-0.3740234-0.5505981-1.072998-0.8192749-1.7392578-0.6063232l-2.1303711,0.6807861    c-0.8110352,0.2591553-1.2585449,1.1268921-0.9995117,1.9379883c0.2592773,0.8111572,1.1269531,1.2584839,1.9382324,0.9992676    l2.130127-0.6807251c0.6196289-0.197998,1.0241699-0.7512817,1.0664063-1.362854    c5.5415039-2.0056763,9.1447754-5.8709717,10.4379845-7.4467163c0.0419922,0.0045166,0.0786133,0.0247192,0.1218262,0.0247192    c0.6699219,0,1.1999512-0.5400391,1.1999512-1.2000122S65.5661011,40.7827339,64.8961792,40.7827339z"/>
	</g>
</g>
</svg>
