<?xml version="1.0" encoding="utf-8"?>
<!-- Generator: Adobe Illustrator 21.0.2, SVG Export Plug-In . SVG Version: 6.00 Build 0)  -->
<svg xmlns="http://www.w3.org/2000/svg" xmlns:xlink="http://www.w3.org/1999/xlink" version="1.1" id="Layer_1" x="0px" y="0px" viewBox="0 0 100 100" enable-background="new 0 0 100 100" xml:space="preserve" width="512" height="512">
<g>
	<circle fill="#334D5C" cx="50" cy="50" r="48"/>
	<path opacity="0.1" d="M22.5,22.5v55l19.894104,19.894104C44.8720093,97.7886963,47.4110107,98,50,98   c26.5097046,0,48-21.4904175,48-48c0-2.5889893-0.2113037-5.1279907-0.605896-7.605896L77.5,22.5H22.5z"/>
	<g>
		<rect x="22.5000019" y="22.5" fill="#FCD462" width="55" height="55"/>
		<g>
			<path fill="#E56353" d="M22.5000076,32.9993172v3.3404541c0,2.1696777,1.7587891,3.9285889,3.9284668,3.9285889l0,0     c2.1699219,0,3.9287109-1.7589111,3.9287109-3.9285889v-3.3404541H22.5000076z"/>
			<path fill="#EBF0F3" d="M30.3571854,32.9993172v3.3404541c0,2.1696777,1.7587891,3.9285889,3.9284668,3.9285889     s3.9287109-1.7589111,3.9287109-3.9285889v-3.3404541H30.3571854z"/>
			<path fill="#E56353" d="M38.2143631,32.9993172v3.3404541c0,2.1696777,1.7587891,3.9285889,3.9284668,3.9285889     s3.9287109-1.7589111,3.9287109-3.9285889v-3.3404541H38.2143631z"/>
			<path fill="#EBF0F3" d="M46.0715408,32.9993172v3.3404541c0,2.1696777,1.7587891,3.9285889,3.9284668,3.9285889     s3.9284668-1.7589111,3.9284668-3.9285889v-3.3404541H46.0715408z"/>
			<path fill="#E56353" d="M53.9284744,32.9993172v3.3404541c0,2.1696777,1.7590332,3.9285889,3.9287109,3.9285889     s3.9284668-1.7589111,3.9284668-3.9285889v-3.3404541H53.9284744z"/>
			<path fill="#EBF0F3" d="M61.7856522,32.9993172v3.3404541c0,2.1696777,1.7590332,3.9285889,3.9287109,3.9285889     s3.9284668-1.7589111,3.9284668-3.9285889v-3.3404541H61.7856522z"/>
			<path fill="#E56353" d="M69.6428299,32.9993172v3.3404541c0,2.1696777,1.7587891,3.9285889,3.9287109,3.9285889     c2.1694336,0,3.9284668-1.7589111,3.9284668-3.9285889v-3.3404541H69.6428299z"/>
			<rect x="22.4999943" y="22.5" fill="#D15241" width="7.8571429" height="10.4993315"/>
			<rect x="30.3571377" y="22.5" fill="#E1E6E9" width="7.8571429" height="10.4993315"/>
			<rect x="38.2142792" y="22.5" fill="#D15241" width="7.8571429" height="10.4993315"/>
			<rect x="46.0714226" y="22.5" fill="#E1E6E9" width="7.8571429" height="10.4993315"/>
			<rect x="53.928566" y="22.5" fill="#D15241" width="7.8571429" height="10.4993315"/>
			<rect x="61.7857094" y="22.5" fill="#E1E6E9" width="7.8571429" height="10.4993315"/>
			<rect x="69.6428528" y="22.5" fill="#D15241" width="7.8571429" height="10.4993315"/>
		</g>
		<g>
			<path fill="#DC8744" d="M34.8447342,43.8651505c-4.8583984,0-8.7971191,3.9385986-8.7971191,8.7971191v24.8377075h17.5944824     V52.6622696C43.6420975,47.8037491,39.7033768,43.8651505,34.8447342,43.8651505z"/>
			<circle fill="#EBF0F3" cx="40.506031" cy="62.6825638" r="1.2083334"/>
		</g>
		<rect x="48.4184227" y="51.5228157" fill="#DC8744" width="25.152998" height="19.248457"/>
		<rect x="50.4182777" y="53.5228653" fill="#EBF0F3" width="9.5766602" height="15.2485352"/>
		<rect x="61.9949379" y="53.5228653" fill="#EBF0F3" width="9.5766602" height="15.2485352"/>
		<g>
			<polygon fill="#E1E6E9" points="69.0737,53.5228653 64.2853699,68.7714005 65.3880997,68.7714005 70.1764297,53.5228653    "/>
			<polygon fill="#E1E6E9" points="68.1784363,53.5228653 63.3901062,68.7714005 63.723217,68.7714005 68.5115433,53.5228653    "/>
		</g>
		<g>
			<polygon fill="#E1E6E9" points="57.4970398,53.5228653 52.7087097,68.7714005 53.8114395,68.7714005 58.5997696,53.5228653         "/>
			<polygon fill="#E1E6E9" points="56.6017761,53.5228653 51.813446,68.7714005 52.1465569,68.7714005 56.9348869,53.5228653    "/>
		</g>
	</g>
</g>
</svg>
