<?xml version="1.0" encoding="utf-8"?>
<!-- Generator: Adobe Illustrator 21.0.2, SVG Export Plug-In . SVG Version: 6.00 Build 0)  -->
<svg xmlns="http://www.w3.org/2000/svg" xmlns:xlink="http://www.w3.org/1999/xlink" version="1.1" id="Layer_1" x="0px" y="0px" viewBox="0 0 100 100" enable-background="new 0 0 100 100" xml:space="preserve" width="512" height="512">
<g>
	<circle fill="#45B39C" cx="50" cy="50" r="48"/>
	<path opacity="0.1" d="M96.0882568,63.4067383l-39.668335-39.6767578c-0.1098633-0.1699829-0.289917-0.289978-0.5-0.289978   h-8.2299805c-0.3199463,0-0.5899658,0.2600098-0.5899658,0.5899658v5.1600342l-5.25-5.25l-0.9799805-0.0900269   l-0.1400146,1.6699829l-1.8399658-1.8399658l-1.9801025-0.1600342l-0.1499023,1.6600342l-1.8300781-1.8300171l-1.9799805-0.1699829   l-0.1398926,1.6699829l-1.8400879-1.8399658l-1.9799805-0.1700439l-0.1400146,1.6700439l-1.8399658-1.8400269L25.0300293,22.5   l-0.1600342,1.9599609l4.0499268,4.0500488l0.0100098,0.4799805l9.7000732,9.7000122   c-0.0200195,0.0199585-0.0499268,0.039978-0.0799561,0.0499878L26.8900146,27.0799561l-1.9899902,0.0600586l0.0599365,1.9599609   l4.0300293,4.0300293l0.0900879,0.5700073l7,7c-0.1401367,0.1299438-0.2700195,0.2599487-0.4101563,0.3899536l-8.869873-9   l-1.9599609,0.3300171l0.3198242,1.9400024l8.6801758,8.6799927c-3.3701172,4.0499878-5.4001465,9.2399902-5.4001465,14.9199829   c0,6.8300171,2.9400635,12.960022,7.6101074,17.2300415l22.0996094,22.1069946   C76.3369141,94.1845703,91.0229492,80.8476563,96.0882568,63.4067383z"/>
	<g>
		<g>
			<g>
				<path fill="#FCD462" d="M38.8784599,32.0618515l-1.9594383,0.327713l-0.3250313-1.9393158l1.9594421-0.327713      L38.8784599,32.0618515z M34.9597015,32.7177429l-1.9594421,0.327713l-0.3250275-1.9393158l1.9594383-0.327713      L34.9597015,32.7177429z M31.0400105,33.3738747l-1.9594402,0.327713L28.7555408,31.76227l1.9594402-0.327713      L31.0400105,33.3738747z M27.1212502,34.0297661l-1.9594402,0.327713l-0.3250294-1.9393158l1.9594402-0.327713      L27.1212502,34.0297661z"/>
			</g>
			<g>
				
					<rect x="40.6694794" y="29.6995468" transform="matrix(0.9863315 -0.1647734 0.1647734 0.9863315 -4.493103 7.2016048)" fill="#FCD462" width="0.9827453" height="1.9665294"/>
			</g>
		</g>
		<g>
			
				<rect x="24.9317455" y="27.1100845" transform="matrix(0.9996144 -0.0277686 0.0277686 0.9996144 -0.7701128 0.7307361)" fill="#FCD462" width="1.9866854" height="1.9663672"/>
			
				<rect x="36.8478584" y="26.7774601" transform="matrix(0.9996144 -0.0277693 0.0277693 0.9996144 -0.7562991 1.061528)" fill="#FCD462" width="1.9866858" height="1.9663373"/>
			
				<rect x="32.8761597" y="26.8882713" transform="matrix(0.9996144 -0.0277693 0.0277693 0.9996144 -0.7609088 0.9512795)" fill="#FCD462" width="1.9866858" height="1.9663973"/>
			
				<rect x="28.9035053" y="26.9992409" transform="matrix(0.9996135 -0.0277988 0.0277988 0.9996135 -0.7663229 0.8419086)" fill="#FCD462" width="1.9866254" height="1.966368"/>
			
				<rect x="40.8207703" y="26.6804333" transform="matrix(0.9996335 -0.0270728 0.0270728 0.9996335 -0.7337927 1.1285771)" fill="#FCD462" width="0.9827545" height="1.9665408"/>
		</g>
		<g>
			<g>
				<path fill="#FCD462" d="M38.722599,25.643837l-1.9794197-0.1694317l0.1670341-1.9592571l1.9794159,0.1694298      L38.722599,25.643837z M34.7637634,25.3054543l-1.9794159-0.1694317l0.1670303-1.9592571l1.9794159,0.1694298      L34.7637634,25.3054543z M30.8039684,24.9670715l-1.9794178-0.1694298l0.1670322-1.959259l1.9794178,0.1694317      L30.8039684,24.9670715z M26.8451347,24.6286888l-1.9794178-0.1694298L25.0327473,22.5l1.9794178,0.1694317      L26.8451347,24.6286888z"/>
			</g>
			<g>
				
					<rect x="40.2928009" y="24.3837833" transform="matrix(0.0854704 -0.9963407 0.9963407 0.0854704 12.9640522 63.8740921)" fill="#FCD462" width="1.9665294" height="0.9827453"/>
			</g>
		</g>
		<g>
			<path fill="#64798A" d="M55.9153976,23.4356041h-8.2228775c-0.3271942,0-0.592495,0.2653008-0.592495,0.5925579v8.5008602     h9.4078712V24.028162C56.5078964,23.7009048,56.2425919,23.4356041,55.9153976,23.4356041z"/>
			<path fill="#E1E6E9" d="M48.2311325,27.1673565c0-0.8923283-0.4929771-1.615654-1.1010094-1.615654     c-0.0103188,0-0.0199051,0.0040035-0.030098,0.0044289v3.2223873c0.0101929,0.0004253,0.0197792,0.0044308,0.030098,0.0044308     C47.7381554,28.7829494,48.2311325,28.0596218,48.2311325,27.1673565z"/>
			<path fill="#3A556A" d="M58.817688,32.2845764H44.7904739c-0.3437042,0-0.6223526,0.2785873-0.6223526,0.6222305v4.2138062     h15.2716789v-4.2138062C59.4398003,32.5631638,59.1611481,32.2845764,58.817688,32.2845764z"/>
			<path fill="#E1E6E9" d="M39.0097046,77.5h25.5888062c6.3609161-4.1734543,10.5647125-11.3640747,10.5647125-19.5402832     c0-12.900959-10.4583969-23.3592339-23.3593559-23.3592339c-12.9007187,0-23.3591137,10.4582748-23.3591137,23.3592339     C28.4447536,66.1359253,32.6486702,73.3265457,39.0097046,77.5z"/>
			<path fill="#FCD462" d="M51.3669281,53.3240852c-8.4044342,2.9463463-15.6573715,2.9119987-20.7780704,2.1590576     c-0.0945435,0.8139877-0.1557102,1.6378632-0.1557102,2.4767914c0,7.0288963,3.4224548,13.5466118,9.184803,17.5516167H63.990696     c5.7613792-4.0045166,9.1838341-10.5222321,9.1838341-17.5516167c0-0.7031822-0.0388412-1.3973198-0.1055908-2.0832672     C62.2442703,49.1809082,51.3669281,53.3240852,51.3669281,53.3240852z"/>
		</g>
	</g>
</g>
</svg>
