<?xml version="1.0" encoding="utf-8"?>
<!-- Generator: Adobe Illustrator 21.0.2, SVG Export Plug-In . SVG Version: 6.00 Build 0)  -->
<svg xmlns="http://www.w3.org/2000/svg" xmlns:xlink="http://www.w3.org/1999/xlink" version="1.1" id="Layer_1" x="0px" y="0px" viewBox="0 0 100 100" enable-background="new 0 0 100 100" xml:space="preserve" width="512" height="512">
<g>
	<circle fill="#334D5C" cx="50" cy="50" r="48"/>
	<path opacity="0.1" d="M97.1276855,59.0976563L72.8900146,34.8599854c-0.0100098,0-0.0200195-0.0100098-0.0300293-0.0200195   v-0.0100098c-0.5599976-0.5499878-1.3299561-0.8899536-2.1799927-0.8899536H53.0999756   c-1.3299561,0-2.4599609,0.8499756-2.8999634,2.0199585l-1.0400391-1.039978l-0.0099487,0.0100098   c-0.5599976-0.6099854-1.3600464-0.9899902-2.25-0.9899902H29.3200073c-1.7200317,0-3.1099854,1.3899536-3.1099854,3.0999756   v7.9899902h-2.5700073c-0.6300049,0-1.1400146,0.5100098-1.1400146,1.1400146v12.5900269   c0,0.5999756,0.2299805,1.1399536,0.6099854,1.5599976c0.0499878,0.0499878,0.1000366,0.1099854,0.1600342,0.1599731   l3.6399536,3.6400146l-0.1299438,0.539978c-0.1300049,0.5200195,0.0199585,1,0.3399658,1.2300415l-0.0100098,0.0199585   L58.444397,97.2443848C77.9638672,93.7780762,93.3989868,78.5251465,97.1276855,59.0976563z"/>
	<g>
		<g>
			<path fill="#EBF0F3" d="M28.130928,59.160717l-1.3479538,5.497242c-0.1508656,0.6153183,0.0661354,1.1910782,0.5106354,1.3546219     c0.4444981,0.1635361,0.9829121-0.1343002,1.2668571-0.7006531l2.5362091-5.0600624L28.130928,59.160717z"/>
			<path fill="#EBF0F3" d="M71.869072,59.160717l1.3479538,5.497242c0.1508713,0.6153183-0.0661316,1.1910782-0.5106354,1.3546219     c-0.4444962,0.1635361-0.9829102-0.1343002-1.2668533-0.7006531l-2.5362091-5.0600624L71.869072,59.160717z"/>
		</g>
		<path fill="#FCD462" d="M46.8982468,33.9428062H29.3165379c-1.713316,0-3.1021919,1.3889008-3.1021919,3.1021919v19.83004    h23.7860928v-19.83004C50.0004387,35.331707,48.6115646,33.9428062,46.8982468,33.9428062z"/>
		<g>
			<g>
				<g>
					<g>
						<path fill="#F6C358" d="M32.4844742,37.5494537c0,1.2393723-1.0047283,2.2440033-2.243906,2.2440033v0.0000992        c1.2391777,0,2.243906,1.004631,2.243906,2.2440033c0-1.2393723,1.0047302-2.2440033,2.244297-2.2440033V39.793457        C33.4892044,39.793457,32.4844742,38.788826,32.4844742,37.5494537z"/>
						<circle fill="#DC8744" cx="32.4846687" cy="39.7935066" r="0.5966324"/>
					</g>
					<g>
						<path fill="#F6C358" d="M43.7299232,37.5494537c0,1.2393723-1.0047302,2.2440033-2.2439079,2.2440033v0.0000992        c1.2391777,0,2.2439079,1.004631,2.2439079,2.2440033c0-1.2393723,1.0047302-2.2440033,2.2442932-2.2440033V39.793457        C44.7346535,39.793457,43.7299232,38.788826,43.7299232,37.5494537z"/>
						<circle fill="#DC8744" cx="43.7301178" cy="39.7935066" r="0.5966324"/>
					</g>
				</g>
				<g>
					<g>
						<path fill="#F6C358" d="M32.4844742,48.7802849c0,1.2393723-1.0047283,2.2440033-2.243906,2.2440033v0.0000954        c1.2391777,0,2.243906,1.0046349,2.243906,2.2440071c0-1.2393723,1.0047302-2.2440071,2.244297-2.2440071v-0.0000954        C33.4892044,51.0242882,32.4844742,50.0196571,32.4844742,48.7802849z"/>
						<circle fill="#DC8744" cx="32.4846687" cy="51.0243378" r="0.5966324"/>
					</g>
					<g>
						<path fill="#F6C358" d="M43.7299232,48.7802849c0,1.2393723-1.0047302,2.2440033-2.2439079,2.2440033v0.0000954        c1.2391777,0,2.2439079,1.0046349,2.2439079,2.2440071c0-1.2393723,1.0047302-2.2440071,2.2442932-2.2440071v-0.0000954        C44.7346535,51.0242882,43.7299232,50.0196571,43.7299232,48.7802849z"/>
						<circle fill="#DC8744" cx="43.7301178" cy="51.0243378" r="0.5966324"/>
					</g>
				</g>
			</g>
			<g>
				<path fill="#F6C358" d="M38.1072006,43.1648674c0,1.2393723-1.0047302,2.2440071-2.2439079,2.2440071v0.0000954      c1.2391777,0,2.2439079,1.004631,2.2439079,2.2440033c0-1.2393723,1.0047264-2.2440033,2.2442932-2.2440033v-0.0000954      C39.111927,45.4088745,38.1072006,44.4042397,38.1072006,43.1648674z"/>
				<circle fill="#DC8744" cx="38.1073914" cy="45.4089203" r="0.5966324"/>
			</g>
		</g>
		<path fill="#FCD462" d="M70.6843414,33.9428062H53.1026306c-1.7133141,0-3.1021919,1.3889008-3.1021919,3.1021919v19.83004    h23.7860985v-19.83004C73.7865372,35.331707,72.3976593,33.9428062,70.6843414,33.9428062z"/>
		<g>
			<g>
				<g>
					<g>
						<path fill="#F6C358" d="M56.2705688,37.5494537c0,1.2393723-1.0047264,2.2440033-2.2439079,2.2440033v0.0000992        c1.2391815,0,2.2439079,1.004631,2.2439079,2.2440033c0-1.2393723,1.0047302-2.2440033,2.244297-2.2440033V39.793457        C57.2752991,39.793457,56.2705688,38.788826,56.2705688,37.5494537z"/>
						<circle fill="#DC8744" cx="56.2707634" cy="39.7935066" r="0.5966324"/>
					</g>
					<g>
						<path fill="#F6C358" d="M67.5160141,37.5494537c0,1.2393723-1.0047226,2.2440033-2.2439041,2.2440033v0.0000992        c1.2391815,0,2.2439041,1.004631,2.2439041,2.2440033c0-1.2393723,1.0047302-2.2440033,2.2443008-2.2440033V39.793457        C68.5207443,39.793457,67.5160141,38.788826,67.5160141,37.5494537z"/>
						<circle fill="#DC8744" cx="67.5162125" cy="39.7935066" r="0.5966324"/>
					</g>
				</g>
				<g>
					<g>
						<path fill="#F6C358" d="M56.2705688,48.7802849c0,1.2393723-1.0047264,2.2440033-2.2439079,2.2440033v0.0000954        c1.2391815,0,2.2439079,1.0046349,2.2439079,2.2440071c0-1.2393723,1.0047302-2.2440071,2.244297-2.2440071v-0.0000954        C57.2752991,51.0242882,56.2705688,50.0196571,56.2705688,48.7802849z"/>
						<circle fill="#DC8744" cx="56.2707634" cy="51.0243378" r="0.5966324"/>
					</g>
					<g>
						<path fill="#F6C358" d="M67.5160141,48.7802849c0,1.2393723-1.0047226,2.2440033-2.2439041,2.2440033v0.0000954        c1.2391815,0,2.2439041,1.0046349,2.2439041,2.2440071c0-1.2393723,1.0047302-2.2440071,2.2443008-2.2440071v-0.0000954        C68.5207443,51.0242882,67.5160141,50.0196571,67.5160141,48.7802849z"/>
						<circle fill="#DC8744" cx="67.5162125" cy="51.0243378" r="0.5966324"/>
					</g>
				</g>
			</g>
			<g>
				<path fill="#F6C358" d="M61.8932953,43.1648674c0,1.2393723-1.0047302,2.2440071-2.2439079,2.2440071v0.0000954      c1.2391777,0,2.2439079,1.004631,2.2439079,2.2440033c0-1.2393723,1.0047264-2.2440033,2.2442932-2.2440033v-0.0000954      C62.8980217,45.4088745,61.8932953,44.4042397,61.8932953,43.1648674z"/>
				<circle fill="#DC8744" cx="61.893486" cy="45.4089203" r="0.5966324"/>
			</g>
		</g>
		<path fill="#DC8744" d="M76.3593369,45.0282135h-3.9855652c-0.6299591,0-1.1406631,0.5106812-1.1406631,1.1406593v8.6524315    c-7.4256096-0.7804375-14.5337181-0.849041-21.2325211,0c-7.2387581-1.056385-14.323143-1.1074257-21.2295818,0v-8.6524315    c0-0.6299782-0.5107059-1.1406593-1.1406631-1.1406593h-3.9896793c-0.6299553,0-1.1406612,0.5106812-1.1406612,1.1406593    v12.5879898c0,1.287571,1.0438137,2.3313866,2.3314114,2.3313866h50.3371735c1.2875977,0,2.3314133-1.0438156,2.3314133-2.3313866    V46.1688728C77.5,45.5388947,76.989296,45.0282135,76.3593369,45.0282135z"/>
		<g>
			<path fill="#F6C358" d="M25.6347694,46.6294441c-0.8461056,0-1.531971,0.6858902-1.531971,1.531971v6.9879761     c0,0.8460808,0.6858654,1.531971,1.531971,1.531971s1.531971-0.6858902,1.531971-1.531971v-6.9879761     C27.1667404,47.3153343,26.480875,46.6294441,25.6347694,46.6294441z"/>
			<path fill="#F6C358" d="M74.3663101,46.6294441c-0.8461075,0-1.5319748,0.6858902-1.5319748,1.531971v6.9879761     c0,0.8460808,0.6858673,1.531971,1.5319748,1.531971s1.5319672-0.6858902,1.5319672-1.531971v-6.9879761     C75.8982773,47.3153343,75.2124176,46.6294441,74.3663101,46.6294441z"/>
		</g>
		<path fill="#F6C358" d="M46.4418221,58.0049095c0-0.8461075-0.6858902-1.531971-1.531971-1.531971H31.3049355    c-0.8460808,0-1.531971,0.6858635-1.531971,1.531971c0,0.8461037,0.6858902,1.531971,1.531971,1.531971h13.6049156    C45.7559319,59.5368805,46.4418221,58.8510132,46.4418221,58.0049095z"/>
		<path fill="#F6C358" d="M70.2279129,58.0049095c0-0.8461075-0.6858902-1.531971-1.5319672-1.531971H55.0910301    c-0.8460808,0-1.531971,0.6858635-1.531971,1.531971c0,0.8461037,0.6858902,1.531971,1.531971,1.531971h13.6049156    C69.5420227,59.5368805,70.2279129,58.8510132,70.2279129,58.0049095z"/>
	</g>
</g>
</svg>
