<?xml version="1.0" encoding="utf-8"?>
<!-- Generator: Adobe Illustrator 21.0.2, SVG Export Plug-In . SVG Version: 6.00 Build 0)  -->
<svg xmlns="http://www.w3.org/2000/svg" xmlns:xlink="http://www.w3.org/1999/xlink" version="1.1" id="Layer_1" x="0px" y="0px" viewBox="0 0 100 100" enable-background="new 0 0 100 100" xml:space="preserve" width="512" height="512">
<g>
	<circle fill="#E05B49" cx="50" cy="50" r="48"/>
	<path opacity="0.1" d="M22.5,22.5v44.8499756l30.5439453,30.5439453   c21.9124146-1.3726196,39.8356934-17.4382324,44.0246582-38.465332L60.1400146,22.5H22.5z"/>
	<g>
		<rect x="22.5000019" y="22.5" fill="#2D93BA" width="18.8221207" height="44.8487892"/>
		<rect x="41.3221207" y="22.5" fill="#1C75A1" width="18.8220062" height="44.8487892"/>
		<polygon fill="#27A2DB" points="60.1442032,67.3488235 22.5000114,67.3488235 41.3221054,58.6583138   "/>
		<g>
			<circle fill="#29897B" cx="32.650959" cy="26.3443718" r="1.2492329"/>
			<circle fill="#29897B" cx="49.9932518" cy="26.3443718" r="1.2492329"/>
		</g>
		<g>
			<path fill="#096589" d="M41.3218193,41.8318863c-5.2310333,0-9.486578-4.4820976-9.486578-9.9910488v-5.8442039h1.6308689     v5.8442039c0,4.6099033,3.5237198,8.3601818,7.8557091,8.3601818s7.8557129-3.7502785,7.8557129-8.3601818v-5.8442039h1.630867     v5.8442039C50.8083992,37.3497887,46.5528564,41.8318863,41.3218193,41.8318863z"/>
		</g>
		<g>
			<path fill="#FFFFFF" d="M41.3218193,41.0060997c-5.2310333,0-9.486578-4.2555428-9.486578-9.486578v-5.5228882h1.6308689     v5.5228882c0,4.3315907,3.5237198,7.855711,7.8557091,7.855711s7.8557129-3.5241203,7.8557129-7.855711v-5.5228882h1.630867     v5.5228882C50.8083992,36.7505569,46.5528564,41.0060997,41.3218193,41.0060997z"/>
		</g>
		<g>
			<path fill="#3A556A" d="M77.0665359,58.9756546v17.0855637c0,0.7985535-0.647377,1.4387817-1.4387817,1.4387817H52.729538     c-1.632946,0-2.9638901-1.3236542-2.9638901-2.9638901V54.572979c0-1.632988,1.3237419-2.9638901,2.9638901-2.9638901h19.9775314     c0.7985153,0,1.4387817,0.6402664,1.4387817,1.4387817v4.4890022h1.4819031     C76.4191589,57.5368729,77.0665359,58.1771393,77.0665359,58.9756546z"/>
			<path fill="#64798A" d="M52.8592415,57.4908562c-1.2160797,0-2.2530174-1.0213585-2.3612061-2.3247261     c-0.0611191-0.7401619,0.1419106-1.4475975,0.5725632-1.9922142c0.4250298-0.5373459,1.0306129-0.8456116,1.6614876-0.8456116     h19.9785843c0.3969269,0,0.7193909,0.3712921,0.7193909,0.8274307v4.3351212H52.8592415z"/>
			<path fill="#DC8744" d="M49.76828,54.2605286v0.3119698c0-0.1068726,0.0203743-0.2080383,0.0314407-0.3119698H49.76828z"/>
			<g>
				<path fill="#FCD462" d="M62.8132324,57.4908562c1.0699577-1.0756645,1.7317429-2.5577431,1.7317429-4.1948166      c0-3.2854729-2.663475-5.9489021-5.9490356-5.9489021c-3.2853889,0-5.9488602,2.6634293-5.9488602,5.9489021      c0,1.6370735,0.6617851,3.1191521,1.731739,4.1948166H62.8132324z"/>
				<path fill="#F6C358" d="M55.6633987,57.4908562h1.1586494c-1.6326828-0.6930466-2.7806206-2.312294-2.7806206-4.1948166      c0-2.5114594,2.0431366-4.5545959,4.5545998-4.5545959c2.5114594,0,4.5545959,2.0431366,4.5545959,4.5545959      c0,1.8825226-1.147934,3.50177-2.7806168,4.1948166h1.158474c1.3221626-0.9260674,2.188736-2.4581146,2.188736-4.1948166      c0-2.8283463-2.2928886-5.1211433-5.1212769-5.1211433c-2.8283043,0-5.1211014,2.2927971-5.1211014,5.1211433      C53.4748383,55.0327415,54.3414078,56.5647888,55.6633987,57.4908562z"/>
				<g>
					<path fill="#F6C358" d="M58.4197884,56.6202736v-0.5854149c-0.7329102-0.0750542-1.3907661-0.3661308-1.9729195-0.8745346       l0.5854149-0.6976662c0.4490128,0.390274,0.9110832,0.6232681,1.3875046,0.6976662v-1.5558853       c-0.6043396-0.1442337-1.0468292-0.3334961-1.3274612-0.5690994c-0.2806358-0.2349472-0.4209518-0.5841103-0.4209518-1.0468292       c0-0.4620667,0.1612015-0.8405952,0.4849091-1.134285c0.3237076-0.2943382,0.7446594-0.4548874,1.263504-0.4816437v-0.4007187       h0.5129738v0.4092026c0.588028,0.0424194,1.1440735,0.2434349,1.6681404,0.601078l-0.5214577,0.7381325       c-0.3530769-0.2512665-0.7348671-0.4065933-1.1466827-0.4653282v1.5075912h0.024147       c0.6147842,0.1442299,1.0664101,0.340023,1.3548737,0.5854149c0.2891197,0.2460442,0.4333534,0.603035,0.4333534,1.0709763       s-0.1657715,0.8484268-0.4973106,1.1427689c-0.3315392,0.2936859-0.7694588,0.4542351-1.3150635,0.4809914v0.5775833       H58.4197884z M57.8539543,51.4435577c-0.1364021,0.1200867-0.204277,0.2701912-0.204277,0.4490128       c0,0.1794777,0.0535164,0.320446,0.1605492,0.4248695c0.1063805,0.1044197,0.3100052,0.2049255,0.6095619,0.3008652v-1.3875084       C58.1789665,51.2523346,57.9903564,51.3234711,57.8539543,51.4435577z M59.5423241,54.9599648       c0.149456-0.1226959,0.2245102-0.2780228,0.2245102-0.4653282c0-0.1866531-0.0587387-0.3354568-0.1762123-0.4450989       c-0.1181297-0.1089897-0.3374138-0.2121086-0.6578598-0.3086967v1.443634       C59.1892471,55.1577148,59.3922195,55.083313,59.5423241,54.9599648z"/>
				</g>
			</g>
			<g>
				<polygon fill="#44C4A1" points="75.3140488,57.4908562 76.3462677,56.5676842 68.0200119,45.0968437 54.1612091,57.4908562           "/>
				<path fill="#3EA69B" d="M56.9876862,57.4908562l9.9352264-8.8851318      c0.3687592,0.5079727,1.0386276,0.5879745,1.496315,0.1787033l4.7655945,6.565506      c-0.4576035,0.4092712-0.5296783,1.1528549-0.1609268,1.6607857l-0.5368729,0.4801369h1.1307144l1.2322235-1.1020088      l-6.9910278-9.6313515L55.8569679,57.4908562H56.9876862z"/>
				<g>
					<path fill="#3EA69B" d="M60.7652855,57.4908562h0.9392586c0.0329132-0.2014961,0.1362381-0.3970184,0.312664-0.5859985       l0.4254036,0.5859985h0.6754074l-0.6756439-0.9309006c0.3666191-0.2419777,0.7713737-0.3769493,1.2148933-0.4063683       l-0.0584641-1.0265732c-0.64851,0.0572548-1.2217789,0.2761803-1.7186241,0.6584473l-0.2632942-0.3626404l-0.4095039,0.3662834       l0.2577591,0.355175c-0.3970795,0.394207-0.6299171,0.8370667-0.6989861,1.3291016       C60.7652855,57.4793091,60.7660789,57.4849281,60.7652855,57.4908562z"/>
				</g>
				<g>
					<path fill="#3EA69B" d="M70.0427017,52.746254c0.276825,0.3813744,0.2227097,0.9396286-0.1208725,1.2468987       c-0.3435898,0.3072701-0.8465271,0.2472-1.1233521-0.1341743c-0.276825-0.3813705-0.2227097-0.9396248,0.1208801-1.2468948       C69.2629395,52.3048134,69.7658768,52.3648834,70.0427017,52.746254z"/>
				</g>
			</g>
			<path fill="#64798A" d="M52.7320862,76.7827148c-1.2378616,0-2.2445869-1.0070801-2.2445869-2.2445831V57.4908562     c0.6217384,0.4794769,1.4008446,0.7647057,2.2445869,0.7647057h22.8947906c0.3969269,0,0.7193909,0.3228111,0.7193909,0.7193909     V76.063324c0,0.3965759-0.322464,0.7193909-0.7193909,0.7193909H52.7320862z"/>
			<g>
				<path fill="#3A556A" d="M71.9589539,64.9814987c-1.1903229,0-2.155304,0.9649506-2.155304,2.1552734v0.0000305      c0,1.1903152,0.9649811,2.1552734,2.155304,2.1552734H77.5v-4.3105774H71.9589539z"/>
				<circle fill="#2F4859" cx="72.0216599" cy="67.1367874" r="1.5753168"/>
				<path fill="#64798A" d="M72.7459488,66.2273483c0.1103287,0.1783218,0.1769943,0.3865509,0.1769943,0.6116104      c0,0.6449356-0.5228043,1.1677704-1.1677475,1.1677704c-0.275116,0-0.5246811-0.0990906-0.7242508-0.2582855      c0.2057495,0.3326035,0.5708771,0.5561142,0.9907074,0.5561142c0.6449356,0,1.1677475-0.5228348,1.1677475-1.1677704      C73.1893997,66.7669907,73.0142288,66.4413223,72.7459488,66.2273483z"/>
			</g>
		</g>
	</g>
</g>
</svg>
