<?xml version="1.0" encoding="utf-8"?>
<!-- Generator: Adobe Illustrator 21.0.2, SVG Export Plug-In . SVG Version: 6.00 Build 0)  -->
<svg xmlns="http://www.w3.org/2000/svg" xmlns:xlink="http://www.w3.org/1999/xlink" version="1.1" id="Layer_1" x="0px" y="0px" viewBox="0 0 100 100" enable-background="new 0 0 100 100" xml:space="preserve" width="512" height="512">
<g>
	<circle fill="#E05B49" cx="50" cy="50" r="48"/>
	<path opacity="0.1" d="M51.8699951,22.5l-5.5100098,13.8999634h-18.5L22.5,43.7000122v2.9400024   c0,0.7099609,0.2700195,1.3599854,0.6900024,1.8699951l-0.0100098,0.0099487L23.25,48.5799561   c0.0800171,0.0900269,0.1599731,0.1700439,0.25,0.25l1.9400024,1.9400024v21.2800293L22.5,75.5700073V77.5l19.894104,19.894104   C44.8720093,97.7886963,47.4110107,98,50,98c25.4862671,0,46.3222656-19.8660278,47.8939209-44.9561157L77.5,32.6499634   L51.8699951,22.5z"/>
	<g>
		<g>
			<g>
				<rect x="22.5000019" y="75.5690613" fill="#3A556A" width="47.0446472" height="1.9309398"/>
				<polygon fill="#64798A" points="63.9506454,68.8797302 28.0940037,68.8797302 22.5000019,75.5690613 69.5446472,75.5690613           "/>
			</g>
			<rect x="25.4403191" y="41.8430214" fill="#27A2DB" width="41.1640091" height="32.1501045"/>
			<rect x="49.5571213" y="52.9449921" fill="#FFFFFF" width="14.5667582" height="13.0527077"/>
			<rect x="57.2366867" y="53.7967224" fill="#E1E6E9" width="6.0312781" height="5.2451191"/>
			<rect x="50.4124107" y="53.7967224" fill="#E1E6E9" width="6.0312781" height="5.2451191"/>
			<rect x="57.2366867" y="59.8972015" fill="#E1E6E9" width="6.0312781" height="5.2447014"/>
			<rect x="50.4124107" y="59.8972015" fill="#E1E6E9" width="6.0312781" height="5.2447014"/>
			<g>
				<rect x="28.3806057" y="51.4020958" fill="#FFFFFF" width="14.8712349" height="22.591032"/>
			</g>
			<rect x="29.2928047" y="52.428318" fill="#FCD462" width="13.0468378" height="21.5648079"/>
			<rect x="25.4403191" y="41.8430214" opacity="0.15" width="41.1640091" height="13.746604"/>
			<g>
				<path fill="#D5D6DB" d="M22.5000343,43.6958046v2.9402885c0,1.6238785,1.3164043,2.9402847,2.9402561,2.9402847      c1.623909,0,2.9403152-1.3164063,2.9403152-2.9402847v-2.9402885H22.5000343z"/>
				<path fill="#CE412D" d="M28.3806057,43.6958046v2.9402885c0,1.6238785,1.3164063,2.9402847,2.940258,2.9402847      c1.6239109,0,2.9403172-1.3164063,2.9403172-2.9402847v-2.9402885H28.3806057z"/>
				<path fill="#D5D6DB" d="M34.2611809,43.6958046v2.9402885c0,1.6238785,1.3164063,2.9402847,2.9402542,2.9402847      c1.623909,0,2.9403152-1.3164063,2.9403152-2.9402847v-2.9402885H34.2611809z"/>
				<path fill="#CE412D" d="M40.1417503,43.6958046v2.9402885c0,1.6238785,1.3164063,2.9402847,2.940258,2.9402847      c1.623909,0,2.9403152-1.3164063,2.9403152-2.9402847v-2.9402885H40.1417503z"/>
				<path fill="#D5D6DB" d="M46.0223236,43.6958046v2.9402885c0,1.6238785,1.3164063,2.9402847,2.940258,2.9402847      c1.623909,0,2.9403152-1.3164063,2.9403152-2.9402847v-2.9402885H46.0223236z"/>
				<path fill="#CE412D" d="M51.9028969,43.6958046v2.9402885c0,1.6238785,1.3164063,2.9402847,2.940258,2.9402847      c1.623909,0,2.9403152-1.3164063,2.9403152-2.9402847v-2.9402885H51.9028969z"/>
				<path fill="#D5D6DB" d="M57.7834702,43.6958046v2.9402885c0,1.6238785,1.3164063,2.9402847,2.940258,2.9402847      c1.623909,0,2.9403152-1.3164063,2.9403152-2.9402847v-2.9402885H57.7834702z"/>
				<path fill="#CE412D" d="M63.6640434,43.6958046v2.9402885c0,1.6238785,1.3164024,2.9402847,2.940258,2.9402847      c1.623909,0,2.9403152-1.3164063,2.9403152-2.9402847v-2.9402885H63.6640434z"/>
				<polygon fill="#EBF0F3" points="32.4011841,36.4022865 27.8608036,36.4022865 22.5000324,43.6958084 28.3806057,43.6958084           "/>
				<polygon fill="#E56353" points="36.9415627,36.4022865 32.4011841,36.4022865 28.3806057,43.6958084 34.2611771,43.6958084           "/>
				<polygon fill="#EBF0F3" points="41.481945,36.4022865 36.9415627,36.4022865 34.2611771,43.6958084 40.1417503,43.6958084           "/>
				<polygon fill="#E56353" points="46.0223236,36.4022865 41.481945,36.4022865 40.1417503,43.6958084 46.0223236,43.6958084           "/>
				<polygon fill="#EBF0F3" points="50.562706,36.4022865 46.0223236,36.4022865 46.0223236,43.6958084 51.9028969,43.6958084           "/>
				<polygon fill="#E56353" points="55.1030846,36.4022865 50.562706,36.4022865 51.9028969,43.6958084 57.7834702,43.6958084           "/>
				<polygon fill="#EBF0F3" points="59.6434631,36.4022865 55.1030846,36.4022865 57.7834702,43.6958084 63.6640434,43.6958084           "/>
				<polygon fill="#E56353" points="64.1838455,36.4022865 59.6434631,36.4022865 63.6640434,43.6958084 69.5446167,43.6958084           "/>
			</g>
			<circle fill="#FFFFFF" cx="40.9189758" cy="63.2967758" r="0.7772248"/>
		</g>
		<g>
			
				<rect x="47.7589607" y="26.9754925" transform="matrix(0.9297854 0.3681021 -0.3681021 0.9297854 17.3900909 -20.1615925)" fill="#FCD462" width="27.5698681" height="17.0554562"/>
			<path fill="#E56353" d="M70.6602936,47.2086792l-23.7748985-9.412487l5.5420227-13.9985352l23.7748985,9.412487     L70.6602936,47.2086792z M48.1832809,37.2345123l21.9153366,8.676281l4.8058167-12.1389656l-21.9153366-8.6762829     L48.1832809,37.2345123z"/>
			<g>
				<path fill="#E56353" d="M54.7688446,35.9364586c-0.7878723,0.5211296-1.551281,0.6358299-2.2909126,0.3430099      c-0.7396317-0.2928238-1.2186127-0.8993835-1.4362564-1.8185959c-0.2176399-0.9192123-0.1124306-1.9166145,0.3131371-2.9915466      c0.4258461-1.0756435,1.031601-1.8740578,1.8194733-2.3951874s1.5522499-0.6354465,2.2918816-0.3426266      c0.7396317,0.2928219,1.2176437,0.8990002,1.4352875,1.8182125c0.2176399,0.9192123,0.113678,1.9162865-0.3121681,2.9919281      C56.1637192,34.6165886,55.5567169,35.415329,54.7688446,35.9364586z M55.962101,31.1257858      c-0.1354256-0.6494694-0.4491997-1.0716209-0.9422874-1.2668343s-1.0117645-0.1026306-1.5540924,0.2785168      c-0.5432968,0.380764-0.9596863,0.9381638-1.2504196,1.6725235c-0.2907333,0.7343616-0.3687325,1.4257298-0.2333069,2.075201      c0.1344604,0.649086,0.4491997,1.0716209,0.9422913,1.2668343c0.4930878,0.1952133,1.0107956,0.1022491,1.5540924-0.2785149      c0.543293-0.380764,0.9596863-0.9381638,1.2504196-1.6725273C56.0195313,32.4666252,56.0975266,31.7752552,55.962101,31.1257858      z"/>
				<path fill="#E56353" d="M62.178421,32.3311005c0.1781464,0.5613289,0.0922203,1.2840309-0.257782,2.1681023      c-0.3500061,0.8840714-0.7831192,1.461113-1.2986603,1.7322159c-0.515255,0.2703972-1.1391144,0.261425-1.8690796-0.0275688      l-0.8817596-0.3490906l-0.8471985,2.1399384l-0.8392181-0.3322487l2.8890762-7.2974892l1.7064743,0.6755924      C61.5344086,31.3391132,62.0005493,31.7690601,62.178421,32.3311005z M60.3923492,35.1080208      c0.2716026-0.1945038,0.5074043-0.5443459,0.7071266-1.0488205s0.2346611-0.9034729,0.1035767-1.1966667      c-0.1310883-0.2931938-0.4240417-0.5306396-0.8784561-0.7105446l-0.8537178-0.3379879l-1.1573181,2.923254l0.974575,0.3858337      C59.7522202,35.3068199,60.1210289,35.301815,60.3923492,35.1080208z"/>
				<path fill="#E56353" d="M67.4311676,33.6736412l-0.4587173,1.1586571l-2.6530075-1.0503273l-0.7646141,1.9313354      l2.3822899,0.9431496l-0.4339905,1.0962219l-2.3822937-0.9431496l-0.7730408,1.9526176l2.7380905,1.0840111      l-0.4587173,1.1586571l-3.5773048-1.416256l2.8890762-7.2974892L67.4311676,33.6736412z"/>
				<path fill="#E56353" d="M72.3175735,35.6081696l0.8392181,0.3322449l-2.8890762,7.297493l-0.9107666-0.3605728      l-0.7085114-6.4393082l-2.1078873,5.324295l-0.8392181-0.3322449l2.8890762-7.297493l0.8392181,0.3322449l0.7303391,6.5932236      L72.3175735,35.6081696z"/>
			</g>
		</g>
	</g>
</g>
</svg>
