<?xml version="1.0" encoding="utf-8"?>
<!-- Generator: Adobe Illustrator 21.0.2, SVG Export Plug-In . SVG Version: 6.00 Build 0)  -->
<svg xmlns="http://www.w3.org/2000/svg" xmlns:xlink="http://www.w3.org/1999/xlink" version="1.1" id="Layer_1" x="0px" y="0px" viewBox="0 0 100 100" enable-background="new 0 0 100 100" xml:space="preserve" width="512" height="512">
<g>
	<circle fill="#EA8953" cx="50" cy="50" r="48"/>
	<path opacity="0.1" d="M32.1500244,22.5v5.3699951h0.0199585l-4.8399658,6.5999756v2.6500244   c0,0.7399902,0.2999878,1.3900146,0.7699585,1.8699951L28.1099854,39l3.6700439,3.6699829   c0.9899902,6.75,7.039978,15.1400146,11.5899658,20.6400146l-8.0100098-0.0200195l-6.9899902,11.7700195l-1.4000244,2.3599854   L47.4840698,97.934082C48.3173828,97.9771118,49.1560059,98,50,98c24.7474365,0,45.1141357-18.7301636,47.7133789-42.7866821   L65,22.5H32.1500244z"/>
	<g>
		<g>
			<polygon fill="#44C4A1" points="73.0331116,77.5 26.9669342,77.4153366 35.3600578,63.2929535 64.6919022,63.3468552    "/>
			<polygon fill="#E1E6E9" points="61.4207878,63.3408432 46.063797,63.3126221 45.1248627,69.1165848    "/>
			<polygon fill="#27A2DB" points="41.6234703,63.3044624 35.3600197,63.2929535 28.3696232,75.0550613 38.8865738,71.3276062         "/>
			<polygon fill="#EAAF47" points="36.7570419,75.4964752 71.8902512,75.5610428 70.2354355,72.7531738 43.7166519,72.7044373      52.2340012,69.384201 68.2672958,69.4136658 67.1017227,67.4359512 57.2781334,67.4179001 65.2577744,64.3071594      64.6918182,63.3468552 61.4207878,63.3408432 45.1248627,69.1165848 46.063797,63.3126221 41.6234703,63.3044624      38.8865738,71.3276062 28.3696232,75.0550613 26.9668941,77.4153061 31.6103573,77.4238358 36.7901421,75.4046097    "/>
		</g>
		<g>
			<path fill="#27A2DB" d="M65.5458527,40.8162651c0,11.8275986-16.9576416,28.3577385-16.9576416,28.3577385     S31.6305676,51.9313583,31.6305676,40.8162651c0-9.3654499,7.5921955-16.9576454,16.9576435-16.9576454     S65.5458527,31.4508152,65.5458527,40.8162651z"/>
			<circle fill="#1C75A1" cx="48.5882111" cy="40.8162651" r="9.5047932"/>
		</g>
		<g>
			<g>
				<path fill="#D5D6DB" d="M27.3283291,34.4669685v2.6574821c0,1.4676933,1.1897926,2.657486,2.6574574,2.657486      c1.46772,0,2.6575127-1.1897926,2.6575127-2.657486v-2.6574821H27.3283291z"/>
				<path fill="#CE412D" d="M32.6432991,34.4669685v2.6574821c0,1.4676933,1.1897926,2.657486,2.6574593,2.657486      c1.46772,0,2.6575127-1.1897926,2.6575127-2.657486v-2.6574821H32.6432991z"/>
				<path fill="#D5D6DB" d="M37.958271,34.4669685v2.6574821c0,1.4676933,1.1897926,2.657486,2.6574593,2.657486      c1.46772,0,2.6575127-1.1897926,2.6575127-2.657486v-2.6574821H37.958271z"/>
				<path fill="#CE412D" d="M43.273243,34.4669685v2.6574821c0,1.4676933,1.1897888,2.657486,2.6574554,2.657486      c1.46772,0,2.6575127-1.1897926,2.6575127-2.657486v-2.6574821H43.273243z"/>
				<path fill="#D5D6DB" d="M48.5882111,34.4669685v2.6574821c0,1.4676933,1.1897926,2.657486,2.6574593,2.657486      c1.46772,0,2.6575127-1.1897926,2.6575127-2.657486v-2.6574821H48.5882111z"/>
				<path fill="#CE412D" d="M53.903183,34.4669685v2.6574821c0,1.4676933,1.1897926,2.657486,2.6574593,2.657486      c1.46772,0,2.6575127-1.1897926,2.6575127-2.657486v-2.6574821H53.903183z"/>
				<path fill="#D5D6DB" d="M59.2181549,34.4669685v2.6574821c0,1.4676933,1.1897926,2.657486,2.6574593,2.657486      c1.4677162,0,2.6575127-1.1897926,2.6575127-2.657486v-2.6574821H59.2181549z"/>
				<path fill="#CE412D" d="M64.5331268,34.4669685v2.6574821c0,1.4676933,1.1897888,2.657486,2.6574554,2.657486      c1.46772,0,2.6575165-1.1897926,2.6575165-2.657486v-2.6574821H64.5331268z"/>
				<polygon fill="#EBF0F3" points="36.2771721,27.8749485 32.1734924,27.8749485 27.3283291,34.4669685 32.6432991,34.4669685           "/>
				<polygon fill="#E56353" points="40.3808517,27.8749485 36.2771721,27.8749485 32.6432991,34.4669685 37.958271,34.4669685           "/>
				<polygon fill="#EBF0F3" points="44.4845314,27.8749485 40.3808517,27.8749485 37.958271,34.4669685 43.2732391,34.4669685           "/>
				<polygon fill="#E56353" points="48.5882111,27.8749485 44.4845314,27.8749485 43.2732391,34.4669685 48.5882111,34.4669685           "/>
				<polygon fill="#EBF0F3" points="52.6918907,27.8749485 48.5882111,27.8749485 48.5882111,34.4669685 53.903183,34.4669685           "/>
				<polygon fill="#E56353" points="56.7955704,27.8749485 52.6918907,27.8749485 53.903183,34.4669685 59.2181511,34.4669685           "/>
				<polygon fill="#EBF0F3" points="60.89925,27.8749485 56.7955704,27.8749485 59.2181511,34.4669685 64.5331268,34.4669685           "/>
				<polygon fill="#E56353" points="65.0029297,27.8749485 60.89925,27.8749485 64.5331268,34.4669685 69.8480911,34.4669685           "/>
			</g>
			<rect x="32.1473198" y="22.5" fill="#3A556A" width="32.8556137" height="5.3749485"/>
		</g>
	</g>
</g>
</svg>
