<?xml version="1.0" encoding="utf-8"?>
<!-- Generator: Adobe Illustrator 21.0.2, SVG Export Plug-In . SVG Version: 6.00 Build 0)  -->
<svg xmlns="http://www.w3.org/2000/svg" xmlns:xlink="http://www.w3.org/1999/xlink" version="1.1" id="Layer_1" x="0px" y="0px" viewBox="0 0 100 100" enable-background="new 0 0 100 100" xml:space="preserve" width="512" height="512">
<g>
	<circle fill="#EA8953" cx="50" cy="50" r="48"/>
	<path opacity="0.1" d="M64.7000122,22.5c-7.0700073,0-12.7999878,5.7299805-12.7999878,12.8000488   c0,0.0799561,0.0099487,0.1699219,0.0199585,0.25H37.710022l-6.7700195-6.7700195h-2.0900269l-0.3899536-0.3900146h-4.7000122   c-0.7000122,0-1.2600098,0.5699463-1.2600098,1.2598877c0,0.3901367,0.1799927,0.7401123,0.460022,0.9700928l8.5999756,8.5999756   l5.0900269,21.9599609c-1.4800415,0.4500732-2.5200195,1.8100586-2.5200195,3.4200439v0.1099854   c0,0.9300537,0.3499756,1.7600098,0.9299927,2.4000244l0.25,0.25l0.1199951,0.1099854l4.1900024,4.1999512   c-0.289978,0.5500488-0.460022,1.1800537-0.460022,1.8400879c0,1.0600586,0.4200439,2.0300293,1.1000366,2.7399902   l0.2099609,0.2099609l20.3096313,20.3095703c21.1635132-4.8588867,36.9821167-23.6972656,37.2080688-46.2817383   L73.8099976,26.3100586C71.4899902,23.9599609,68.2700195,22.5,64.7000122,22.5z"/>
	<g>
		<g>
			<g>
				<circle fill="#64798A" cx="43.1500015" cy="73.5147552" r="3.9854562"/>
			</g>
			<g>
				<circle fill="#EBF0F3" cx="43.1500015" cy="73.5147552" r="2.2359259"/>
			</g>
			<g>
				<circle fill="#64798A" cx="68.4139709" cy="73.5147552" r="3.9854562"/>
			</g>
			<g>
				<circle fill="#EBF0F3" cx="68.4139709" cy="73.5147552" r="2.2359259"/>
			</g>
			<path fill="#EBF0F3" d="M32.0053825,35.5511703v1.7495308h6.6863136v2.8250465h-5.7790871v1.7495308h5.7790871v3.0394669     H34.197422v1.7495308h4.4942741v3.0394669h-3.5110168v1.749527h3.5110168v3.0394707h-2.301384v1.749527h2.301384v4.5443039     l-1.0242577,0.0998955l0.1691437,1.7409897l33.9671974-3.3119774L77.5,35.5511703H32.0053825z M74.605011,40.1257477h-6.6402893     v-2.8250465h7.3176117L74.605011,40.1257477z M54.2033997,49.703743v-3.0394669h5.1315575v3.0394669H54.2033997z      M59.3349571,51.45327v3.0394707h-5.1315575V51.45327H59.3349571z M54.2033997,44.9147453v-3.0394669h5.1315575v3.0394669     H54.2033997z M61.0844879,41.8752785h5.1306992v3.0394669h-5.1306992V41.8752785z M61.0844879,40.1257477v-2.8250465h5.1306992     v2.8250465H61.0844879z M59.3349571,40.1257477h-5.1315575v-2.8250465h5.1315575V40.1257477z M52.4538727,40.1257477h-5.1315575     v-2.8250465h5.1315575V40.1257477z M52.4538727,41.8752785v3.0394669h-5.1315575v-3.0394669H52.4538727z M52.4538727,46.6642761     v3.0394669h-5.1315575v-3.0394669H52.4538727z M52.4538727,51.45327v3.0394707h-5.1315575V51.45327H52.4538727z      M52.4538727,56.2422676v3.2021523l-5.1315575,0.5004387v-3.7025909H52.4538727z M54.2033997,56.2422676h5.1315575v2.5310745     l-5.1315575,0.5004387V56.2422676z M61.0844879,56.2422676h5.1306992v1.8600502l-5.1306992,0.5003853V56.2422676z      M61.0844879,54.4927406V51.45327h5.1306992v3.0394707H61.0844879z M61.0844879,49.703743v-3.0394669h5.1306992v3.0394669     H61.0844879z M67.9647217,46.6642761h5.0726089l-0.7287903,3.0394669h-4.3438187V46.6642761z M67.9647217,44.9147453v-3.0394669     h6.2207413l-0.7286911,3.0394669H67.9647217z M40.441227,37.3007011h5.1315575v2.8250465H40.441227V37.3007011z      M40.441227,41.8752785h5.1315575v3.0394669H40.441227V41.8752785z M40.441227,46.6642761h5.1315575v3.0394669H40.441227     V46.6642761z M40.441227,51.45327h5.1315575v3.0394707H40.441227V51.45327z M40.441227,56.2422676h5.1315575v3.87323     l-5.1315575,0.5004349V56.2422676z M67.9647217,57.9317322v-1.6894646H70.74086l-0.3483276,1.4526749L67.9647217,57.9317322z      M71.1603012,54.4927406h-3.1955795V51.45327h3.9242706L71.1603012,54.4927406z"/>
			<g>
				<path fill="#1C75A1" d="M74.5739822,66.5365601H37.7110023c-1.0105896,0-1.8298302-0.8192368-1.8298302-1.8298264v-0.10849      c0-0.9429512,0.7140579-1.7422714,1.6536407-1.8218803c0.3191719-0.0270691,0.6103706-0.1908188,0.7963867-0.4478989      c0.1819572-0.2515793,0.2468796-0.5697937,0.1768303-0.8743401l-7.5670586-32.6785393h-4.0492058v1.7495308h2.6584663      l7.0972137,30.6526566c-1.4753113,0.4519043-2.5158043,1.8131714-2.5158043,3.4204712v0.10849      c0,1.9768143,1.6026001,3.579361,3.579361,3.579361h36.8629799c0.4830856,0,0.8747635-0.3916779,0.8747635-0.8747635      C75.4487457,66.9281921,75.0570679,66.5365601,74.5739822,66.5365601z"/>
			</g>
			<g>
				<path fill="#E56353" d="M23.7598248,28.3926086c-0.695797,0-1.2598228,0.5640278-1.2598228,1.2597713      s0.5640259,1.2597694,1.2598228,1.2597694h4.7004738v-2.5195408H23.7598248z"/>
			</g>
		</g>
		<circle fill="#44C4A1" cx="64.7014999" cy="35.2985001" r="12.7985001"/>
		<polygon fill="#FFFFFF" points="67.9569931,38.0187416 67.9569931,26.1093903 61.4460068,26.1093903 61.4460068,38.0187416     58.2326317,38.0187416 64.7014999,44.4876099 71.170372,38.0187416   "/>
	</g>
</g>
</svg>
