<?xml version="1.0" encoding="utf-8"?>
<!-- Generator: Adobe Illustrator 21.0.2, SVG Export Plug-In . SVG Version: 6.00 Build 0)  -->
<svg xmlns="http://www.w3.org/2000/svg" xmlns:xlink="http://www.w3.org/1999/xlink" version="1.1" id="Layer_1" x="0px" y="0px" viewBox="0 0 100 100" enable-background="new 0 0 100 100" xml:space="preserve" width="512" height="512">
<g>
	<circle fill="#EFC84A" cx="50" cy="50" r="48"/>
	<path opacity="0.1" d="M97.9636841,51.4367676L70.3599854,23.8399658l-0.0499878-0.0599976   c-0.4000244-0.5100098-0.8599854-0.9599609-1.3599854-1.3599854l-0.0300293-0.0200195v-0.0099487   c-1.5599976-1.2400513-3.5199585-1.960022-5.6099854-1.960022h-7.3300171l-3.9899902,7.9699707l-7.9699707-7.9699707h-7.3300171   c-3.7299805,0-7.0700073,2.2999878-8.4099731,5.7799683l-5.5400391,14.3800049l-0.6099854,1.5900269l11.7600098,11.7600098   v25.6300049l18.3728027,18.3728027C77.2449341,96.7828369,97.2241821,76.5265503,97.9636841,51.4367676z"/>
	<g>
		<g>
			<polygon fill="#FFFFFF" points="57.6525879,20.4349976 55.9759521,20.4349976 50,32.3868408 44.0240479,20.4349976      42.3474121,20.4349976 50,35.7409668    "/>
			<path fill="#27A2DB" d="M71.7199707,26.2050171c-1.3399658-3.4700317-4.6799316-5.7700195-8.4099121-5.7700195h-5.6574707     L50,35.7409668l-7.6525879-15.3059692h-5.6574707c-3.7299805,0-7.0699444,2.2999878-8.4099102,5.7700195l-5.5371094,14.3873291     l8.663208,4.3102417l2.4838848-4.9675903v39.6300049h32.2199707V39.9349976l2.4838867,4.9675903l8.663208-4.3102417     L71.7199707,26.2050171z"/>
			<polygon fill="#FFFFFF" points="22.1300068,42.1849976 30.6699238,46.375 31.4061298,44.9025879 22.7429218,40.5923462    "/>
			<polygon fill="#FFFFFF" points="68.5938721,44.9025879 69.3300781,46.375 77.8699951,42.1849976 77.2570801,40.5923462    "/>
			<rect x="33.8900146" y="75.7175903" fill="#FFFFFF" width="32.2199707" height="1.6464318"/>
		</g>
		<g>
			<path fill="#FFFFFF" d="M49.2153091,60.950016c1.2312393,0,2.1388931-0.4174232,2.7229652-1.2522736     c0.5824509-0.8348503,0.8817673-1.9625397,0.8947105-3.3798409c-0.3316727,0.3705025-0.80896,0.7183571-1.4318619,1.04356     s-1.3121376,0.4869957-2.0677071,0.4869957c-1.2458,0-2.28936-0.4141884-3.1306801-1.2425652     c-0.8413239-0.8283806-1.261982-1.928566-1.261982-3.3005676c0-1.3719978,0.4530182-2.4754219,1.360672-3.3102722     c0.9076576-0.8348465,2.0515289-1.2522736,3.4300003-1.2522736c2.2262611,0,3.7649078,0.9934082,4.6127014,2.9818344     c0.4772873,1.1406364,0.7151222,2.4252701,0.7151222,3.857132s-0.1520844,2.6242714-0.4562569,3.578846     c-0.3057861,0.9545746-0.7232094,1.7101479-1.2522697,2.2667122c-1.0338554,1.0856285-2.3039246,1.6292496-3.8085938,1.6292496     c-1.5030518,0-2.865345-0.4692001-4.0852585-1.4108315l1.1729965-1.7295609     c0.3057861,0.2653427,0.7118835,0.5031776,1.2231483,0.7151222C48.3626633,60.8432312,48.8172989,60.950016,49.2153091,60.950016     z M49.6424408,55.7807503c0.8008728,0,1.4706917-0.2216568,2.007843-0.666584     c0.5371513-0.4433136,0.8057251-1.0192947,0.8057251-1.7295609c0-0.7086525-0.2588654-1.3186111-0.7766037-1.8282547     c-0.5161171-0.5112648-1.1632881-0.7652779-1.9382706-0.7652779c-0.7749863,0-1.4140663,0.2281265-1.9188576,0.6860008     c-0.5031738,0.4562531-0.753952,1.04356-0.753952,1.7586823s0.2281265,1.3186073,0.6843796,1.8088379     C48.2105789,55.5348244,48.8399506,55.7807503,49.6424408,55.7807503z"/>
		</g>
	</g>
</g>
</svg>
