<?xml version="1.0" encoding="utf-8"?>
<!-- Generator: Adobe Illustrator 21.0.2, SVG Export Plug-In . SVG Version: 6.00 Build 0)  -->
<svg xmlns="http://www.w3.org/2000/svg" xmlns:xlink="http://www.w3.org/1999/xlink" version="1.1" id="Layer_1" x="0px" y="0px" viewBox="0 0 100 100" enable-background="new 0 0 100 100" xml:space="preserve" width="512" height="512">
<g>
	<circle fill="#EA8953" cx="50" cy="50" r="48"/>
	<path opacity="0.1" d="M76.9500122,27.0491714C76.5900269,26.6591568,76.0700073,26.4191666,75.5,26.4191666h-51   c-1.0999756,0-2,0.9000244-2,2v34.6600342c0,0.6199951,0.2800293,1.1699219,0.7299805,1.5400391l0.0400391,0.0299072   l32.9378052,32.9378662C79.7827759,94.5403824,98,74.4043961,98,49.9999771c0-0.6530762-0.0233765-1.300415-0.0491943-1.9471436   L77.039978,27.149147L76.9500122,27.0491714z"/>
	<g>
		<rect x="42.5532379" y="64.4297714" fill="#E1E6E9" width="14.893527" height="5.7805567"/>
		<path fill="#3A556A" d="M77.5,28.4207973c0-1.1046143-0.8953857-2-2-2h-51c-1.1044922,0-2,0.8953857-2,2v30.2673321h55V28.4207973    z"/>
		<rect x="25.5002441" y="29.4209805" fill="#64798A" width="49" height="29.2671509"/>
		<path fill="#EBF0F3" d="M22.5,58.6881294v4.3894043c0,1.104557,0.8955078,2.0000038,2,2.0000038h51    c1.1046143,0,2-0.8954468,2-2.0000038v-4.3894043H22.5z"/>
		<circle fill="#D5D6DB" cx="50" cy="61.8828316" r="2.1389639"/>
		<rect x="38.0705795" y="71.9860916" fill="#E1E6E9" width="23.8588428" height="1.59311"/>
		<polygon fill="#D5D6DB" points="57.4467773,69.6744003 42.5532227,69.6744003 38.0705566,71.9861069 61.9294434,71.9861069   "/>
		<g>
			<path fill="#FFFFFF" d="M36.9971542,48.7359123v-0.783577l1.0010376-0.9726715     c2.4098167-2.2928123,3.4983101-3.5124931,3.5124931-4.9354553c0-0.9573097-0.4644737-1.8425255-1.8720703-1.8425255     c-0.8568497,0-1.5683289,0.4349289-2.0032539,0.79776l-0.4065628-0.8993988     c0.6535721-0.5519295,1.5825157-0.9584885,2.6710091-0.9584885c2.03162,0,2.8884697,1.3934135,2.8884697,2.7430992     c0,1.7420654-1.2634087,3.1496658-3.2513008,5.065464l-0.7552109,0.6972961v0.0283661h4.2381592v1.0601311H36.9971542z"/>
			<path fill="#FFFFFF" d="M48.395031,48.7359123v-2.5693703h-4.3835258V45.325058l4.2097931-6.0239525h1.3792343v5.864399h1.320137     v1.0010376h-1.320137v2.5693703H48.395031z M48.395031,45.1655045v-3.149662c0-0.4940186,0.014183-0.9868546,0.0437279-1.4808731     H48.395031c-0.2895546,0.5519295-0.5223808,0.9584923-0.7835732,1.3934174l-2.3081779,3.2075729v0.0295448H48.395031z"/>
			<path fill="#FFFFFF" d="M51.2291374,52.946888l4.0490608-17.7846642h0.9868546L52.2018089,52.946888H51.2291374z"/>
			<path fill="#FFFFFF" d="M63.0028496,39.3011055v0.8414879l-4.1069717,8.5933189h-1.3213234l4.0927887-8.3463097v-0.0283661     h-4.6151695v-1.0601311H63.0028496z"/>
		</g>
	</g>
</g>
</svg>
