<?xml version="1.0" encoding="utf-8"?>
<!-- Generator: Adobe Illustrator 21.0.2, SVG Export Plug-In . SVG Version: 6.00 Build 0)  -->
<svg xmlns="http://www.w3.org/2000/svg" xmlns:xlink="http://www.w3.org/1999/xlink" version="1.1" id="Layer_1" x="0px" y="0px" viewBox="0 0 100 100" enable-background="new 0 0 100 100" xml:space="preserve" width="512" height="512">
<g>
	<circle fill="#45B39C" cx="50" cy="50" r="48"/>
	<path opacity="0.1" d="M42.4000244,22.4991226v24.0100098c-1.2800293,0.880127-2.2400513,2.0600586-2.8800049,3.0900879   c-0.2800293-0.130127-0.5800171-0.2000732-0.9100342-0.2000732c-0.2000122,0-0.3999634,0.0300293-0.5899658,0.0799561   l-1.8400269-1.8299561l-0.2199707-0.2199707c-1.0100098-0.9699707-2.3099976-1.8099365-3.9400024-2.1199951   c-0.5900269-0.1199951-1.2200317,0.0800781-1.8099976,0.4599609c-0.0100098,0-0.0100098,0.0100098-0.0100098,0.0100098   c-0.2300415,0.1400146-0.4500122,0.3100586-0.6600342,0.5c-0.6300049,0.5800781-1.1699829,1.3200684-1.4899902,2.0200195   c-0.0100098,0.0300293-0.0199585,0.0600586-0.0299683,0.0900879c-0.0300293,0.0699463-0.0700073,0.1398926-0.0900269,0.2099609   c-0.0899658,0.25-0.1599731,0.4899902-0.1799927,0.7099609c-0.0200195,0.1599121-0.0200195,0.3100586,0.0100098,0.4499512   c0.039978,0.2399902,0.1799927,0.4599609,0.3699951,0.6400146l1.2199707,1.2301025H22.5v5.7399902l0.6799927,0.6799316v19.4499512   l20.0115356,20.0114746C45.4165649,97.8267593,47.6876221,97.9999771,50,97.9999771c26.5097046,0,48-21.4903564,48-48   c0-2.5893555-0.2113647-5.1286621-0.6060791-7.6069336L77.5,22.4991226H42.4000244z"/>
	<g>
		<g>
			<rect x="42.4029884" y="22.4999981" fill="#64798A" width="35.0970116" height="7.6153893"/>
			<rect x="42.4029884" y="30.1153889" fill="#3A556A" width="35.0970116" height="7.6153893"/>
			<rect x="42.4029884" y="37.7307777" fill="#64798A" width="35.0970116" height="7.6153893"/>
			<rect x="42.4029884" y="45.3461685" fill="#3A556A" width="35.0970116" height="7.6153893"/>
			<rect x="42.4029884" y="52.9615555" fill="#64798A" width="35.0970116" height="7.6153893"/>
			<g>
				<rect x="45.5773621" y="25.6453781" fill="#EBF0F3" width="15.8477182" height="1.3244156"/>
			</g>
			<circle fill="#E56353" cx="70.6621933" cy="26.3076935" r="2.2032359"/>
			<g>
				<rect x="45.5773621" y="33.2607689" fill="#EBF0F3" width="15.8477182" height="1.3244156"/>
			</g>
			<circle fill="#44C4A1" cx="70.6621933" cy="33.9230843" r="2.2032359"/>
			<g>
				<rect x="45.5773621" y="40.8761559" fill="#EBF0F3" width="15.8477182" height="1.3244156"/>
			</g>
			<circle fill="#E56353" cx="70.6621933" cy="41.5384712" r="2.2032359"/>
			<g>
				<rect x="45.5773621" y="48.4915466" fill="#EBF0F3" width="15.8477182" height="1.3244156"/>
			</g>
			<circle fill="#FCD462" cx="70.6621933" cy="49.153862" r="2.2032359"/>
			<g>
				<rect x="46.681221" y="55.455574" fill="#EBF0F3" width="26.5405445" height="2.6273577"/>
			</g>
			<g>
				<polygon fill="#FFFFFF" points="70.0176163,35.1658821 69.0561447,33.7236786 69.8231583,33.2123337 70.2336731,33.8272057       71.701088,32.6802826 72.2682495,33.4067879     "/>
			</g>
			<g>
				<polygon fill="#DC8744" points="70.0176163,50.3966599 69.0561447,48.9544563 69.8231583,48.4431114 70.2336731,49.0579834       71.701088,47.9110641 72.2682495,48.6375656     "/>
			</g>
			<g>
				<g>
					
						<rect x="70.2013168" y="24.7100506" transform="matrix(0.7070363 -0.7071772 0.7071772 0.7070363 2.0972538 57.6778946)" fill="#FFFFFF" width="0.9217603" height="3.1952872"/>
				</g>
				<g>
					
						<rect x="69.0645523" y="25.8468132" transform="matrix(0.7071068 -0.7071068 0.7071068 0.7071068 2.0941293 57.6710625)" fill="#FFFFFF" width="3.1952872" height="0.9217603"/>
				</g>
			</g>
			<g>
				<g>
					
						<rect x="70.2013168" y="39.9408302" transform="matrix(0.7070363 -0.7071772 0.7071772 0.7070363 -8.6736059 62.1399574)" fill="#FFFFFF" width="0.9217603" height="3.1952872"/>
				</g>
				<g>
					
						<rect x="69.0645523" y="41.0775909" transform="matrix(0.7071068 -0.7071068 0.7071068 0.7071068 -8.6756573 62.1320534)" fill="#FFFFFF" width="3.1952872" height="0.9217603"/>
				</g>
			</g>
		</g>
		<g>
			<g>
				<g>
					<path fill="#FCD462" d="M49.4778709,49.3111725c-0.1733704-1.6268425-2.4115791-4.3652229-4.2708282-4.0056992       c-4.8587265,0.9395447-6.8209076,6.5102654-6.8209076,6.5102654s3.8006592-0.9277115,6.8209076-2.3025665       C45.2070427,49.5131721,48.8184738,47.744236,49.4778709,49.3111725z"/>
					<path fill="#44C4A1" d="M48.3009529,48.1543884c-1.3075409-0.0308342-2.9498749,0.7436104-3.2691574,0.9003754       c-2.0172958,0.911129-4.6603966,1.8315849-6.0226059,2.2256737c0.5641251-1.087101,2.7241707-4.7801704,6.3451424-5.4751129       c0.0357819-0.006897,0.0763168-0.0088882,0.1193542-0.0110016c0.0471687-0.0023613,0.0960884-0.0047836,0.1477585-0.0136757       c0.396225-0.0681648,1.4938278,0.2461205,2.0648041,0.5035057c-0.2135963-0.193943-0.4379845-0.3684959-0.6686401-0.5160522       c-0.5385895-0.1662445-1.1303024-0.2914886-1.4397049-0.238327c-0.0389099,0.0066528-0.0781937,0.0083313-0.1171036,0.0102577       c-0.0499191,0.0024834-0.1015892,0.0050354-0.1550102,0.0152893c-4.1378059,0.7941475-6.4099503,5.3539009-6.6554184,5.871254       l-0.1183548,0.249382l0.2677345-0.0722885c1.2587471-0.3397636,4.1617012-1.3340645,6.3483963-2.3221474       c0.3069-0.1506119,1.9051933-0.8972054,3.147049-0.872654c0.3914413,0.0088425,0.7632256,0.1174736,1.0042686,0.1921043       c-0.0369568-0.0995712-0.0780411-0.2004166-0.1246414-0.302475       C48.934185,48.2310753,48.6271782,48.161705,48.3009529,48.1543884z"/>
					<path fill="#F6C358" d="M45.2070427,49.5131721c-3.0202484,1.374855-6.8209076,2.3025665-6.8209076,2.3025665       l8.0916634-0.3899498c0,0,2.7470665-0.3713837,2.9900017-1.6712189       c0.0250854-0.1342735,0.0270882-0.2837181,0.0100708-0.4433975       C48.8184738,47.744236,45.2070427,49.5131721,45.2070427,49.5131721z"/>
				</g>
				<g>
					<path fill="#FCD462" d="M27.7488232,49.3111725c0.1733723-1.6268425,2.411581-4.3652229,4.2708302-4.0056992       c4.8587265,0.9395447,6.8209076,6.5102654,6.8209076,6.5102654s-3.800663-0.9277115-6.8209076-2.3025665       C32.0196533,49.5131721,28.4082222,47.744236,27.7488232,49.3111725z"/>
					<path fill="#44C4A1" d="M28.925745,48.1543884c1.3075371-0.0308342,2.949873,0.7436104,3.2691555,0.9003754       c2.0172958,0.911129,4.6603966,1.8315849,6.0226059,2.2256737c-0.5641251-1.087101-2.7241707-4.7801704-6.3451424-5.4751129       c-0.0357819-0.006897-0.0763168-0.0088882-0.1193562-0.0110016c-0.0471668-0.0023613-0.0960846-0.0047836-0.1477566-0.0136757       c-0.3962269-0.0681648-1.4938278,0.2461205-2.0648041,0.5035057c0.2135963-0.193943,0.4379826-0.3684959,0.668642-0.5160522       c0.5385876-0.1662445,1.1303005-0.2914886,1.4397011-0.238327c0.0389099,0.0066528,0.0781956,0.0083313,0.1171036,0.0102577       c0.049921,0.0024834,0.1015911,0.0050354,0.155014,0.0152893c4.137804,0.7941475,6.4099483,5.3539009,6.6554165,5.871254       l0.1183548,0.249382l-0.2677383-0.0722885c-1.2587433-0.3397636-4.1616974-1.3340645-6.3483925-2.3221474       c-0.3068981-0.1506119-1.9051952-0.8972054-3.147049-0.872654c-0.3914413,0.0088425-0.7632256,0.1174736-1.0042686,0.1921043       c0.0369549-0.0995712,0.0780392-0.2004166,0.1246433-0.302475       C28.2925091,48.2310753,28.5995178,48.161705,28.925745,48.1543884z"/>
					<path fill="#F6C358" d="M32.0196533,49.5131721c3.0202446,1.374855,6.8209076,2.3025665,6.8209076,2.3025665       l-8.0916634-0.3899498c0,0-2.7470684-0.3713837-2.9900036-1.6712189       c-0.0250835-0.1342735-0.0270863-0.2837181-0.0100708-0.4433975       C28.4082222,47.744236,32.0196533,49.5131721,32.0196533,49.5131721z"/>
				</g>
			</g>
			<rect x="22.5" y="51.6252747" fill="#E56353" width="32.226696" height="5.7424326"/>
			<rect x="23.1798878" y="57.3677063" fill="#D15241" width="30.8669186" height="20.1322918"/>
			<polygon fill="#CE412D" points="54.0468063,58.7752495 23.1798878,58.7864265 23.1798878,57.3677063 54.0468063,57.3677063         "/>
			<rect x="35.8437881" y="51.6252747" fill="#FCD462" width="5.5391178" height="25.8747253"/>
			<g>
				<rect x="36.5123062" y="51.6252747" fill="#44C4A1" width="0.5022305" height="25.8747253"/>
				<rect x="40.2121582" y="51.6252747" fill="#44C4A1" width="0.5022305" height="25.8747253"/>
			</g>
			<g>
				<g>
					<path fill="#F6C358" d="M34.6154251,60.0148926c0.5319824-1.417778,0.3625488-2.5287361,0.1268768-4.66399       c-2.1388397,0.3120728-3.2634335,0.4294624-4.5099411,1.2986221c2.1950722-3.0643349,3.9735222-4.3623314,7.1547432-6.409893       c0.666172,0.5115089,0.9992638,0.7672615,1.665451,1.2787552       C37.8611183,55.0937271,37.0457649,57.1312332,34.6154251,60.0148926z"/>
					<path fill="#44C4A1" d="M37.6862679,50.469326c-0.0215797-0.016571-0.0414047-0.0317917-0.063652-0.0488739       c-0.0108719-0.0083504-0.0234756-0.0180244-0.0345154-0.0265007c-2.210186,1.5247459-4.6654701,3.4269142-6.2257862,5.6475563       c0.2740078-0.1075172,0.5591221-0.1936989,0.864809-0.2676888c1.8259163-2.3445435,3.2810478-3.3695755,5.5119667-5.263916       C37.7179565,50.493679,37.7026062,50.4818687,37.6862679,50.469326z"/>
					<path fill="#44C4A1" d="M38.8515663,51.3640556c-0.0110397-0.0084763-0.0236397-0.0181541-0.0345154-0.0265007       c-0.0222473-0.0170822-0.0420418-0.0322838-0.0636787-0.048893c-0.0163116-0.0125237-0.0317116-0.0243263-0.052845-0.040554       c-1.2822838,2.6227798-1.9128914,4.2809334-3.7355347,6.6280785c0.005085,0.3126297-0.007019,0.608429-0.0425377,0.8990631       C36.6912956,56.7146492,37.9242935,53.8739281,38.8515663,51.3640556z"/>
				</g>
				<g>
					<path fill="#F6C358" d="M42.4300232,60.0148926c-0.5319824-1.417778-0.3625526-2.5287361-0.1268806-4.66399       c2.1388397,0.3120728,3.2634354,0.4294624,4.5099411,1.2986221c-2.1950722-3.0643349-3.9735184-4.3623314-7.1547394-6.409893       c-0.6661758,0.5115089-0.9992676,0.7672615-1.665451,1.2787552       C39.1843262,55.0937271,39.9996796,57.1312332,42.4300232,60.0148926z"/>
					<path fill="#44C4A1" d="M39.3591766,50.469326c0.0215797-0.016571,0.0414047-0.0317917,0.063652-0.0488739       c0.0108757-0.0083504,0.0234756-0.0180244,0.0345154-0.0265007c2.2101898,1.5247459,4.6654739,3.4269142,6.2257881,5.6475563       c-0.2740097-0.1075172-0.559124-0.1936989-0.8648109-0.2676888c-1.8259163-2.3445435-3.2810478-3.3695755-5.5119667-5.263916       C39.3274879,50.493679,39.3428383,50.4818687,39.3591766,50.469326z"/>
					<path fill="#44C4A1" d="M38.1938782,51.3640556c0.0110397-0.0084763,0.0236435-0.0181541,0.0345154-0.0265007       c0.0222511-0.0170822,0.0420456-0.0322838,0.0636787-0.048893c0.0163116-0.0125237,0.0317116-0.0243263,0.052845-0.040554       c1.2822838,2.6227798,1.9128952,4.2809334,3.7355347,6.6280785c-0.005085,0.3126297,0.0070229,0.608429,0.0425377,0.8990631       C40.3541527,56.7146492,39.121151,53.8739281,38.1938782,51.3640556z"/>
				</g>
			</g>
			<path fill="#DC8744" d="M38.6133461,49.4002686c-1.2246513,0-2.2174454,0.986496-2.2174454,2.2033997h4.4348946     C40.8307953,50.3867645,39.8380013,49.4002686,38.6133461,49.4002686z"/>
		</g>
	</g>
</g>
</svg>
