<?xml version="1.0" encoding="utf-8"?>
<!-- Generator: Adobe Illustrator 21.0.2, SVG Export Plug-In . SVG Version: 6.00 Build 0)  -->
<svg xmlns="http://www.w3.org/2000/svg" xmlns:xlink="http://www.w3.org/1999/xlink" version="1.1" id="Layer_1" x="0px" y="0px" viewBox="0 0 100 100" enable-background="new 0 0 100 100" xml:space="preserve" width="512" height="512">
<g>
	<circle fill="#45B39C" cx="50" cy="50" r="48"/>
	<path opacity="0.1" d="M27.8200073,27.8200073c-7.0900269,7.0799561-7.0900269,18.5799561,0,25.6599731L68.600708,94.2606812   c11.5509033-4.8602295,20.7997437-14.1090698,25.6599731-25.6600342L53.4799805,27.8200073   C46.4000244,20.7299805,34.9000244,20.7299805,27.8200073,27.8200073z"/>
	<g>
		
			<ellipse transform="matrix(0.7071068 -0.7071068 0.7071068 0.7071068 -16.8378029 40.6500969)" fill="#64798A" cx="40.6501083" cy="40.650074" rx="18.150074" ry="18.150074"/>
		
			<ellipse transform="matrix(0.7071068 -0.7071068 0.7071068 0.7071068 -16.8378029 40.6500969)" fill="#EBF0F3" cx="40.6501083" cy="40.650074" rx="14.4282894" ry="14.4282894"/>
		
			<ellipse transform="matrix(0.7071068 -0.7071068 0.7071068 0.7071068 -17.129324 41.3538933)" fill="#FFFFFF" cx="41.3539047" cy="41.3538704" rx="13.5378361" ry="13.5378361"/>
		
			<rect x="51.8981361" y="50.5534897" transform="matrix(0.7071068 -0.7071068 0.7071068 0.7071068 -22.6372604 54.6512299)" fill="#64798A" width="5.5062022" height="8.1954317"/>
		<path fill="#3A556A" d="M53.0935211,60.1593552l17.2473907,17.2473907    c0.9813766,0.9813766,8.0471802-6.0844193,7.0658035-7.0658035L60.1593246,53.0935516    C58.9497604,51.8839874,51.8839569,58.949791,53.0935211,60.1593552z"/>
		
			<rect x="54.7970657" y="58.5182838" transform="matrix(0.7071068 -0.7071068 0.7071068 0.7071068 -24.7672348 59.793354)" fill="#FCD462" width="9.9925537" height="2.5501819"/>
	</g>
</g>
</svg>
