<?xml version="1.0" encoding="utf-8"?>
<!-- Generator: Adobe Illustrator 19.2.1, SVG Export Plug-In . SVG Version: 6.00 Build 0)  -->
<svg xmlns="http://www.w3.org/2000/svg" xmlns:xlink="http://www.w3.org/1999/xlink" version="1.1" id="Layer_1" x="0px" y="0px" viewBox="0 0 100 100" style="enable-background:new 0 0 100 100;" xml:space="preserve" width="512" height="512">
<style type="text/css">
	.st0{fill:#334D5C;}
	.st1{opacity:0.1;enable-background:new    ;}
	.st2{fill:#27A2DB;}
	.st3{fill:#FFFFFF;}
	.st4{fill:#E1E6E9;}
	.st5{fill:#FCD462;}
	.st6{fill:#44C4A1;}
	.st7{fill:#E56353;}
	.st8{fill:#DC8744;}
</style>
<g>
	<circle class="st0" cx="50" cy="50" r="48"/>
	<path class="st1" d="M71.8,31.4l-0.2,0.9l-1.1,8l-3.4-1.9l-0.3,1.6l3.5,1.9l-0.3,2.3L56.5,30.9l-0.9,0l-0.2,7.9l-7.9-7.9l-0.9-0.2   l-1.4,8.3c-0.2-0.3-0.6-0.5-0.9-0.8c-0.6-0.3-1.2-0.6-1.7-0.6c-0.6-0.1-1.1,0.1-1.4,0.5C41,38.3,41,38.6,41,38.9   c0.1,0.3,0.3,0.7,0.6,1l0.1,0.1l0.2,0.2l0.5,0.5l-0.1,0c-0.3-0.1-0.6,0-0.8,0.2L41,41.3l-9.9-9.9h-0.9v8.4c-0.3-0.2-0.7-0.4-1-0.6   c-0.6-0.2-1.2-0.4-1.8-0.3c-0.6,0-1.1,0.3-1.3,0.7c-0.1,0.3-0.1,0.6,0,0.9c0.1,0.2,0.3,0.5,0.5,0.7l0.9,0.9c-0.2,0-0.5,0.2-0.6,0.3   L22.8,47c-0.2,0.2-0.3,0.4-0.3,0.7v19.8c0,0.3,0.1,0.6,0.3,0.8l0,0l29.7,29.7c23.2-1.2,42-18.8,45.1-41.4L72.6,31.6L71.8,31.4z"/>
	<g>
		<g>
			<path class="st2" d="M38.6,47l-4.2-4.6c-0.2-0.2-0.5-0.3-0.8-0.3h-5.9c-0.3,0-0.6,0.1-0.8,0.3L22.8,47c-0.2,0.2-0.3,0.4-0.3,0.7     v19.8c0,0.6,0.5,1.1,1.1,1.1h14.3c0.6,0,1.1-0.5,1.1-1.1V47.7C38.9,47.5,38.8,47.2,38.6,47z"/>
			<circle class="st3" cx="30.7" cy="46.4" r="1.1"/>
			<rect x="30.2" y="31.4" class="st4" width="0.9" height="14.9"/>
			<g>
				<g>
					<path class="st4" d="M29.6,42.4c-0.5,0-1.1-0.1-1.6-0.3c-0.9-0.4-1.6-1-1.8-1.6c-0.1-0.3-0.1-0.6,0-0.9       c0.2-0.4,0.6-0.7,1.3-0.7c0.5,0,1.2,0.1,1.8,0.3c0.6,0.3,1.1,0.6,1.5,1c0.4,0.5,0.6,1,0.4,1.4l0,0c-0.2,0.4-0.6,0.7-1.3,0.7       C29.7,42.4,29.7,42.4,29.6,42.4z M27.6,39.8c0,0-0.1,0-0.1,0c-0.3,0-0.5,0.1-0.5,0.2c0,0.1,0,0.1,0,0.2       c0.1,0.3,0.6,0.8,1.4,1.1c0.5,0.2,1,0.3,1.4,0.3c0.3,0,0.5-0.1,0.5-0.2l0,0c0-0.1,0-0.3-0.2-0.5c-0.3-0.3-0.7-0.6-1.2-0.8       C28.4,39.9,28,39.8,27.6,39.8z"/>
				</g>
				<g>
					<path class="st4" d="M31.8,42.3c-0.1,0-0.1,0-0.2,0c-0.6,0-1.1-0.3-1.3-0.7c-0.3-0.8,0.5-1.9,1.9-2.4c0.6-0.3,1.2-0.4,1.8-0.3       c0.6,0,1.1,0.3,1.3,0.7c0.1,0.3,0.1,0.6,0,0.9C35,41,34.3,41.6,33.4,42C32.8,42.2,32.3,42.3,31.8,42.3z M33.8,39.7       c-0.4,0-0.8,0.1-1.2,0.3c-1,0.4-1.5,1.1-1.4,1.3c0,0.1,0.2,0.2,0.5,0.2c0.4,0,0.9-0.1,1.4-0.3c0.8-0.3,1.2-0.8,1.4-1.1       c0,0,0-0.1,0-0.2c0-0.1-0.2-0.2-0.5-0.2C33.9,39.7,33.8,39.7,33.8,39.7z"/>
				</g>
			</g>
		</g>
		<g>
			<path class="st5" d="M52.2,47.5l-3.3-5.2c-0.2-0.3-0.4-0.4-0.7-0.5l-5.8-1c-0.3-0.1-0.6,0-0.8,0.2l-4.9,3.8     c-0.2,0.2-0.3,0.4-0.4,0.7l-3.4,19.5c-0.1,0.6,0.3,1.1,0.9,1.2l14.1,2.4c0.6,0.1,1.1-0.3,1.2-0.9l3.4-19.5     C52.4,47.9,52.3,47.7,52.2,47.5z"/>
			<ellipse transform="matrix(0.1708 -0.9853 0.9853 0.1708 -7.8922 81.5264)" class="st3" cx="44.5" cy="45.5" rx="1.1" ry="1.1"/>
			
				<rect x="38.3" y="37.6" transform="matrix(0.1708 -0.9853 0.9853 0.1708 0.4153 76.6826)" class="st4" width="14.9" height="0.9"/>
			<g>
				<g>
					<path class="st4" d="M44.1,41.4c-0.5-0.1-1-0.3-1.5-0.6c-0.8-0.5-1.4-1.2-1.5-1.9c-0.1-0.3,0-0.6,0.1-0.9       c0.3-0.4,0.7-0.6,1.4-0.5c0.5,0.1,1.1,0.3,1.7,0.6c0.6,0.4,1,0.8,1.3,1.3c0.3,0.6,0.4,1.1,0.1,1.5l0,0       c-0.3,0.4-0.7,0.6-1.4,0.5C44.2,41.4,44.2,41.4,44.1,41.4z M42.6,38.4c0,0-0.1,0-0.1,0c-0.3,0-0.5,0-0.5,0.1c0,0,0,0.1,0,0.2       c0.1,0.3,0.5,0.9,1.2,1.3c0.4,0.3,0.9,0.5,1.3,0.5c0.3,0,0.5,0,0.5-0.1l0,0c0-0.1,0-0.3-0.1-0.5c-0.2-0.3-0.6-0.7-1-1       C43.4,38.7,42.9,38.5,42.6,38.4z"/>
				</g>
				<g>
					<path class="st4" d="M46.2,41.7c-0.1,0-0.1,0-0.2,0c-0.6-0.1-1-0.5-1.1-0.9c-0.2-0.9,0.8-1.8,2.3-2.1c0.6-0.1,1.3-0.2,1.8,0       c0.6,0.1,1,0.5,1.1,0.9c0.1,0.3,0,0.6-0.2,0.9c-0.3,0.6-1.1,1-2.1,1.2C47.3,41.7,46.7,41.8,46.2,41.7z M48.7,39.4       c-0.4-0.1-0.8,0-1.3,0.1c-1.1,0.2-1.6,0.8-1.6,1c0,0.1,0.2,0.2,0.5,0.3c0.4,0.1,0.9,0.1,1.4,0c0.8-0.2,1.3-0.6,1.5-0.8       c0,0,0.1-0.1,0.1-0.2c0-0.1-0.2-0.2-0.5-0.3C48.8,39.4,48.7,39.4,48.7,39.4z"/>
				</g>
			</g>
		</g>
		<g>
			<path class="st6" d="M63.6,46.7L59.5,42c-0.2-0.2-0.5-0.4-0.8-0.4l-5.9-0.2c-0.3,0-0.6,0.1-0.8,0.3l-4.3,4.5     c-0.2,0.2-0.3,0.4-0.3,0.7l-0.5,19.8c0,0.6,0.4,1.1,1,1.1l14.3,0.4c0.6,0,1.1-0.4,1.1-1l0.5-19.8C63.9,47.2,63.8,46.9,63.6,46.7z     "/>
			
				<ellipse transform="matrix(2.666330e-02 -0.9996 0.9996 2.666330e-02 8.3861 100.2893)" class="st3" cx="55.7" cy="45.8" rx="1.1" ry="1.1"/>
			
				<rect x="48.4" y="37.9" transform="matrix(2.666330e-02 -0.9996 0.9996 2.666330e-02 16.0423 93.2225)" class="st4" width="14.9" height="0.9"/>
			<g>
				<g>
					<path class="st4" d="M54.7,41.9c-0.5,0-1-0.1-1.6-0.4c-0.9-0.4-1.6-1-1.8-1.6c-0.1-0.3-0.1-0.6,0-0.9c0.2-0.4,0.7-0.7,1.3-0.7       c0.5,0,1.2,0.1,1.8,0.4c0.6,0.3,1.1,0.6,1.5,1.1c0.4,0.5,0.5,1,0.3,1.4l0,0c-0.2,0.4-0.7,0.7-1.3,0.7       C54.8,41.9,54.8,41.9,54.7,41.9z M52.8,39.2c0,0-0.1,0-0.1,0c-0.3,0-0.5,0.1-0.5,0.2c0,0.1,0,0.1,0,0.2       c0.1,0.3,0.6,0.8,1.3,1.1c0.5,0.2,1,0.3,1.4,0.3c0.3,0,0.5-0.1,0.5-0.2l0,0c0-0.1,0-0.3-0.2-0.5c-0.3-0.3-0.7-0.6-1.1-0.8       C53.6,39.3,53.2,39.2,52.8,39.2z"/>
				</g>
				<g>
					<path class="st4" d="M56.9,41.9c-0.1,0-0.1,0-0.2,0c-0.6-0.1-1.1-0.3-1.3-0.8c-0.3-0.8,0.5-1.8,1.9-2.4       c0.6-0.2,1.3-0.3,1.8-0.3c0.6,0.1,1.1,0.3,1.3,0.8c0.1,0.3,0.1,0.6,0,0.9c-0.3,0.6-1,1.2-1.9,1.5       C57.9,41.8,57.4,41.9,56.9,41.9z M59,39.3c-0.4,0-0.8,0.1-1.3,0.2c-1,0.4-1.5,1-1.4,1.2c0,0.1,0.2,0.2,0.5,0.2       c0.4,0,0.9-0.1,1.4-0.2c0.8-0.3,1.3-0.7,1.4-1c0,0,0.1-0.1,0-0.2c0-0.1-0.2-0.2-0.5-0.2C59,39.3,59,39.3,59,39.3z"/>
				</g>
			</g>
		</g>
		<g>
			<path class="st7" d="M77.3,48.2L74,43c-0.2-0.3-0.4-0.4-0.7-0.5l-5.8-1c-0.3-0.1-0.6,0-0.8,0.2l-4.9,3.8     c-0.2,0.2-0.3,0.4-0.4,0.7L58,65.7c-0.1,0.6,0.3,1.1,0.9,1.2l14.1,2.4c0.6,0.1,1.1-0.3,1.2-0.9L77.5,49     C77.5,48.7,77.5,48.4,77.3,48.2z"/>
			
				<ellipse transform="matrix(0.1708 -0.9853 0.9853 0.1708 12.2059 106.9412)" class="st3" cx="69.6" cy="46.2" rx="1.1" ry="1.1"/>
			
				<rect x="63.5" y="38.4" transform="matrix(0.1708 -0.9853 0.9853 0.1708 20.5134 102.0974)" class="st4" width="14.9" height="0.9"/>
			<g>
				<g>
					<path class="st4" d="M69.2,42.1c-0.5-0.1-1-0.3-1.5-0.6c-0.8-0.5-1.4-1.2-1.5-1.9c-0.1-0.3,0-0.6,0.1-0.9       c0.3-0.4,0.7-0.6,1.4-0.5c0.5,0.1,1.1,0.3,1.7,0.6c0.6,0.4,1,0.8,1.3,1.3c0.3,0.6,0.4,1.1,0.1,1.5l0,0       c-0.3,0.4-0.7,0.6-1.4,0.5C69.4,42.2,69.3,42.1,69.2,42.1z M67.7,39.2c0,0-0.1,0-0.1,0c-0.3,0-0.5,0-0.5,0.1c0,0,0,0.1,0,0.2       c0.1,0.3,0.5,0.9,1.2,1.3c0.4,0.3,0.9,0.5,1.3,0.5c0.3,0,0.5,0,0.5-0.1l0,0c0-0.1,0-0.3-0.1-0.5c-0.2-0.3-0.6-0.7-1-1       C68.5,39.4,68.1,39.3,67.7,39.2z"/>
				</g>
				<g>
					<path class="st4" d="M71.4,42.4c-0.1,0-0.1,0-0.2,0c-0.6-0.1-1-0.5-1.1-0.9c-0.2-0.9,0.8-1.8,2.3-2.1c0.6-0.1,1.3-0.2,1.8,0       c0.6,0.1,1,0.5,1.1,0.9c0.1,0.3,0,0.6-0.2,0.9c-0.3,0.6-1.1,1-2.1,1.2C72.5,42.5,71.9,42.5,71.4,42.4z M73.8,40.2       c-0.4-0.1-0.8,0-1.3,0.1c-1.1,0.2-1.6,0.8-1.6,1c0,0.1,0.2,0.2,0.5,0.3c0.4,0.1,0.9,0.1,1.4,0c0.8-0.2,1.3-0.6,1.5-0.8       c0,0,0.1-0.1,0.1-0.2c0-0.1-0.2-0.2-0.5-0.3C73.9,40.2,73.9,40.2,73.8,40.2z"/>
				</g>
			</g>
		</g>
		<path class="st3" d="M28.1,54.1c-0.4,0-0.8,0.1-1.1,0.3c-0.3,0.2-0.4,0.4-0.4,0.8c0,0.4,0.1,0.6,0.4,0.8c0.3,0.2,0.9,0.4,1.8,0.6    c0.9,0.2,1.6,0.5,2.1,0.9c0.5,0.4,0.7,1,0.7,1.8c0,0.8-0.3,1.4-0.9,1.9c-0.6,0.5-1.4,0.7-2.3,0.7c-1.4,0-2.6-0.5-3.7-1.4l0.9-1.1    c0.9,0.8,1.8,1.2,2.8,1.2c0.5,0,0.9-0.1,1.2-0.3c0.3-0.2,0.4-0.5,0.4-0.8c0-0.3-0.1-0.6-0.4-0.8c-0.3-0.2-0.7-0.4-1.4-0.5    c-0.7-0.2-1.2-0.3-1.5-0.4c-0.3-0.1-0.6-0.3-0.9-0.5c-0.5-0.4-0.8-1-0.8-1.8s0.3-1.5,0.9-1.9c0.6-0.4,1.3-0.7,2.2-0.7    c0.6,0,1.1,0.1,1.7,0.3c0.6,0.2,1,0.4,1.5,0.8L30.5,55c-0.3-0.2-0.6-0.4-1.1-0.6C29,54.2,28.5,54.1,28.1,54.1z"/>
		<path class="st8" d="M38.7,57.5l-1,1.8l-1.5-0.1l4.3-8.1l1.5,0.1l3.1,8.6l-1.5-0.1l-0.7-2L38.7,57.5z M42.5,56.5l-1.3-3.6    l-1.8,3.3L42.5,56.5z"/>
		<path class="st3" d="M51.4,60.3l0.2-8.4l1.4,0l-0.1,7l3.8,0.1l0,1.3L51.4,60.3z"/>
		<path class="st3" d="M71.1,52.6L70.9,54l-4.4-0.5l-0.3,2.2l4,0.5L70,57.4l-4-0.5l-0.3,2.2l4.6,0.5L70.2,61l-6-0.7l1-8.3L71.1,52.6    z"/>
	</g>
</g>
</svg>
