<?xml version="1.0" encoding="utf-8"?>
<!-- Generator: Adobe Illustrator 21.0.2, SVG Export Plug-In . SVG Version: 6.00 Build 0)  -->
<svg xmlns="http://www.w3.org/2000/svg" xmlns:xlink="http://www.w3.org/1999/xlink" version="1.1" id="Layer_1" x="0px" y="0px" viewBox="0 0 100 100" enable-background="new 0 0 100 100" xml:space="preserve" width="512" height="512">
<g>
	<circle fill="#E05B49" cx="50" cy="50" r="48"/>
	<path opacity="0.1" d="M62.7299805,30.9299927h-6.4699707l-7.5-7.5c-0.0800171-0.1000366-0.1699829-0.1900024-0.2700195-0.2700195   C48.0200195,22.75,47.4199829,22.5,46.75,22.5c-1.4799805,0-2.6699829,1.2000122-2.6699829,2.6699829v5.7600098H32.9699707   c-0.5799561,0-1.0599976,0.4699707-1.0599976,1.0599976v10.3099976c0,0.289978,0.1200562,0.5499878,0.3099976,0.7399902v0.0100098   l11.8600464,11.8599854v18.6099854l-0.3900146,0.4000244c-0.0100098-0.0700073-0.0200195-0.1400146-0.039978-0.210022   C43.5900269,73.8499756,43.5300293,74,43.4699707,74.1499634l-0.0699463,0.0800171   c-0.0200195-0.039978-0.0400391-0.0899658-0.0599976-0.1400146c-0.0100098,0.0800171-0.0200195,0.1600342-0.0400391,0.2399902   l-0.2199707,0.2400513c-0.0700073-0.1700439-0.1300049-0.3400269-0.2300415-0.4900513   c-0.0099487,0.0300293-0.0199585,0.0700073-0.0299683,0.1000366c-0.1000366-0.2399902-0.2200317-0.4700317-0.3699951-0.6699829   c0,0.3899536-0.0200195,0.789978-0.0499878,1.1799927l-0.0599976-0.0599976   c-0.0200195,0.25-0.0300293,0.5100098-0.0500488,0.7600098l-0.2399902,0.2599487   c-0.0999756-0.4099731-0.1900024-0.8299561-0.289978-1.2399902c0,0.4199829-0.0200195,0.8500366-0.0599976,1.2700195   c-0.0200195,0.0499878-0.0200195,0.0999756-0.0400391,0.1499634c-0.0699463-0.0799561-0.1399536-0.1699829-0.2099609-0.2599487   c-0.0499878,0.2299805-0.1099854,0.4599609-0.1600342,0.6900024c-0.2399902-0.5700073-0.4899902-1.1500244-0.6900024-1.7400513   c0.0800171,0.6000366,0.1700439,1.2000122,0.2600098,1.8000488c-0.039978-0.0500488-0.0799561-0.1100464-0.1099854-0.1600342   c-0.2299805-0.3699951-0.4500122-0.7399902-0.6799927-1.1099854c0.0299683,0.3800049,0.0599976,0.7600098,0.0899658,1.1400146   c-0.039978-0.0400391-0.0699463-0.0800171-0.1099854-0.1100464C40.039978,76.5299683,40.1099854,76.9799805,40.25,77.3999634   v0.0500488h0.0100098c0.0100098,0.0099487,0.0100098,0.0299683,0.0200195,0.0499878l19.5001831,19.5001831   c17.3103027-3.5836792,31.2009888-16.4907227,36.2062988-33.2352295L63.539978,31.3099976   C63.3400269,31.0700073,63.039978,30.9299927,62.7299805,30.9299927z"/>
	<g>
		<rect x="44.0772095" y="44.7394867" fill="#64798A" width="5.345459" height="32.760498"/>
		<path fill="#64798A" d="M49.4226685,25.1726532c0-1.4760132-1.1966553-2.6726685-2.6726074-2.6726685    c-1.4760742,0-2.6728516,1.1966553-2.6728516,2.6726685v7.1293335h5.345459V25.1726532z"/>
		<rect x="44.0772095" y="32.3019867" fill="#3A556A" width="5.345459" height="12.4375"/>
		<path fill="#FCD462" d="M67.8428497,36.4651337l-4.3011475-5.15625c-0.2019043-0.2420044-0.5007324-0.381897-0.815918-0.381897    H32.9730988c-0.586792,0-1.0624981,0.475708-1.0624981,1.0625v10.3125c0,0.586792,0.4757061,1.0625,1.0624981,1.0625h29.7526855    c0.3151855,0,0.6140137-0.1398926,0.815918-0.381897l4.3011475-5.15625    C68.1715851,37.4321747,68.1715851,36.8592987,67.8428497,36.4651337z"/>
		<g>
			<path fill="#DC8744" d="M37.8544922,34.6638031c-0.3369141,0-0.6132813,0.0688477-0.8291016,0.2060547     s-0.3242188,0.3452148-0.3242188,0.6230469s0.1083984,0.4902344,0.3242188,0.6376953     c0.2158203,0.1469727,0.6748047,0.3056641,1.3779297,0.4755859s1.2324219,0.4086914,1.5888672,0.7158203     c0.3564453,0.3076172,0.5351563,0.7602539,0.5351563,1.3588867c0,0.5981445-0.2255859,1.0834961-0.6767578,1.456543     c-0.4511719,0.3725586-1.0429688,0.559082-1.7753906,0.559082c-1.0732422,0-2.0244141-0.3696289-2.8544922-1.1083984     l0.7255859-0.8730469c0.6933594,0.6015625,1.4121094,0.9023438,2.1582031,0.9023438     c0.3720703,0,0.6679688-0.0800781,0.8876953-0.2402344c0.21875-0.1601563,0.328125-0.3730469,0.328125-0.6376953     s-0.1025391-0.4707031-0.3085938-0.6181641c-0.2060547-0.1469727-0.5605469-0.2807617-1.0644531-0.4018555     s-0.8857422-0.2319336-1.1474609-0.3334961s-0.4941406-0.2338867-0.6962891-0.3974609     c-0.40625-0.3071289-0.6083984-0.777832-0.6083984-1.4121094s0.2304688-1.1235352,0.6914063-1.4667969     s1.03125-0.5146484,1.7119141-0.5146484c0.4375,0,0.8730469,0.0717773,1.3046875,0.2158203     c0.4316406,0.1435547,0.8037109,0.3466797,1.1181641,0.6079102l-0.6181641,0.8730469     c-0.203125-0.1831055-0.4775391-0.3334961-0.8242188-0.4511719S38.1904297,34.6638031,37.8544922,34.6638031z"/>
			<path fill="#DC8744" d="M42.8623047,39.0583344l-0.6865234,1.5595703h-1.2363281l3.0214844-6.8564453h1.2353516     l3.0214844,6.8564453h-1.2363281l-0.6865234-1.5595703H42.8623047z M45.8242188,37.9889984l-1.2460938-2.824707     l-1.2451172,2.824707H45.8242188z"/>
			<path fill="#DC8744" d="M49.1679688,40.6179047v-6.8564453h1.1582031v5.7578125h3.1289063v1.0986328H49.1679688z"/>
			<path fill="#DC8744" d="M59.5361328,33.7614594v1.0888672h-3.6582031v1.8144531h3.2851563v1.0302734h-3.2851563v1.8339844     h3.7763672v1.0888672h-4.9345703v-6.8564453H59.5361328z"/>
		</g>
		<path fill="#3EA69B" d="M52.7051392,75.4281464c-0.0731201,0.2372437-0.1940918,0.4595947-0.3535156,0.6497803    c-0.1680908-0.5501709-0.3361816-1.1003418-0.5041504-1.6505127c-0.0185547,0.5795288-0.2817383,1.1473389-0.7122803,1.5357666    c-0.3431396-0.5159912-0.6506348-1.0558472-0.9191895-1.6143188c-0.0330811,0.5281982-0.06604,1.0563965-0.0991211,1.5845337    c-0.2966309-0.5909424-0.5194092-1.2189941-0.661499-1.8648071c0.0014648,0.454895-0.2392578,0.9033813-0.6188965,1.1537476    c-0.1375732-0.5879517-0.2414551-1.1831665-0.2724609-1.7861328c-0.2004395,0.484436-0.4116211,0.9644165-0.6335449,1.4394531    c-0.0498047-0.4244385-0.1577148-0.8419189-0.3195801-1.2374268c-0.3299561,0.449646-0.6103516,0.9356079-0.8347168,1.446228    c0.0014648-0.5849609,0.0028076-1.1698608,0.0041504-1.7548218c-0.3294678,0.5583496-0.6132813,1.1436768-0.8479004,1.7481079    c-0.1320801-0.4365234-0.2641602-0.8729858-0.3962402-1.3095093c-0.3244629,0.4923096-0.7055664,0.9472046-1.1333008,1.3528442    c-0.0172119-0.1085815-0.0344238-0.2171021-0.0515137-0.3256836c-0.1165771,0.1539307-0.2675781,0.2816162-0.4387207,0.3709717    c-0.0212402-0.4961548-0.1109619-0.9892578-0.2658691-1.4611206c-0.180542,0.4740601-0.3612061,0.9480591-0.5418701,1.4220581    c-0.085083-0.5824585-0.3121338-1.1437378-0.6563721-1.6213379c0.0109863,0.9300537-0.0776367,1.8612671-0.2636719,2.772522    c-0.1403809-0.6225586-0.2805176-1.2451172-0.4207764-1.8676758c0.0003662,0.8232422-0.0775146,1.6464844-0.2318115,2.4550781    c-0.3449707-0.7685547-0.6572266-1.5518188-0.9353027-2.3470459c0.0871582,0.6070557,0.1744385,1.2141113,0.2617188,1.821167    c-0.2626953-0.4296875-0.5255127-0.859314-0.7883301-1.2890015c0.0612793,0.798645,0.1225586,1.59729,0.1838379,2.3959961    l13.1923828-0.0614014C53.4282837,76.6747894,53.1622925,75.9727631,52.7051392,75.4281464z"/>
		<path fill="#44C4A1" d="M52.8232422,77.5000153c0.1844482-0.0444946,0.3754883-0.0601196,0.5639648-0.0363159    c-0.0734863-0.1778564-0.1479492-0.3735352-0.0921631-0.5576782c0.0371094-0.1225586,0.1290283-0.2250977,0.1534424-0.350769    c0.0224609-0.1159058-0.015625-0.2340698-0.0529785-0.3460693c-0.1264648-0.3775024-0.2528076-0.7550659-0.3791504-1.1325684    c-0.0339355,0.055603-0.0678711,0.1112671-0.1016846,0.1669312c-0.0279541-0.0883179-0.1077881-0.157959-0.1988525-0.1737061    c-0.1242676,0.1864624-0.2723389,0.3570557-0.4394531,0.5062866c-0.0275879-0.1989746-0.0552979-0.3980103-0.0828857-0.5969849    c-0.0718994,0.2189331-0.1793213,0.4262695-0.3164063,0.6115112c-0.0579834-0.2240601-0.1898193-0.4284058-0.3699951-0.5737915    c0.0048828,0.1364136,0.0095215,0.2728271,0.0144043,0.4092407c-0.253418-0.2667847-0.5068359-0.5335693-0.7602539-0.800415    c-0.0695801-0.1348267-0.1392822-0.2696533-0.2089844-0.40448c-0.1218262,0.6034546-0.4121094,1.1719971-0.8292236,1.6247559    c-0.0384521-0.0927124-0.0767822-0.1854248-0.1151123-0.2781372c-0.2548828,0.1659546-0.53125,0.2987671-0.8200684,0.394043    c0.0568848-0.1361694,0.0688477-0.2906494,0.0335693-0.4338989c-0.338501,0.0286255-0.6810303,0.0087891-1.0137939-0.0588379    c0.2314453-0.2158813,0.4387207-0.4577026,0.6164551-0.7195435c-0.0888672-0.118103-0.25-0.1765747-0.3937988-0.1428223    c0.1860352-0.2511597,0.3010254-0.5545044,0.3278809-0.8659668c-0.1721191,0.137085-0.3892822,0.2166138-0.609375,0.2230835    c-0.0140381-0.1682129-0.0280762-0.3364258-0.0422363-0.5046387c-0.204834,0.4030762-0.5844727,0.713501-1.0201416,0.8342285    c0.0270996-0.1329346-0.0435791-0.2797852-0.1644287-0.3414917c-0.1032715,0.1262817-0.236084,0.2282715-0.3845215,0.2955322    c-0.0327148-0.0443726-0.0651855-0.0887451-0.0979004-0.1331787c-0.1054688,0.1998291-0.2736816,0.3660278-0.4746094,0.4693604    c-0.0270996-0.0969238-0.0540771-0.1938477-0.0810547-0.2907715c-0.1362305,0.1906738-0.2883301,0.3699341-0.4542236,0.5352173    c-0.0491943,0.0489502-0.1107178,0.1004639-0.1790771,0.0891113c-0.1644287-0.0271606-0.1188965-0.3388672-0.279541-0.3830566    c-0.157959,0.2409058-0.3359375,0.4686279-0.5314941,0.6800537c-0.027832-0.2401733-0.1235352-0.4721069-0.2729492-0.6620483    c-0.0421143,0.0808105-0.0842285,0.1616821-0.1262207,0.2424927c-0.1003418-0.2352905-0.2005615-0.4705811-0.3007813-0.7059326    c-0.0378418,0.2642822-0.0755615,0.5285034-0.1132813,0.7927246c-0.0898438-0.2807617-0.2160645-0.5498657-0.3747559-0.7982788    c-0.0930176,0.2697144-0.1860352,0.5394287-0.2791748,0.8091431c-0.0762939-0.0880737-0.15271-0.1761475-0.2288818-0.2642212    c-0.0439453,0.5026855-0.0744629,1.0065918-0.0915527,1.5109253c-0.1413574-0.3106079-0.2824707-0.6212769-0.4238281-0.9318848    c-0.0258789,0.2150879-0.0830078,0.4263916-0.1687012,0.6253662c-0.0693359-0.0874023-0.1386719-0.1747437-0.2080078-0.262146    c-0.0939941,0.4061279-0.1878662,0.8123169-0.2817383,1.2184448c-0.2368164-0.3533936-0.4733887-0.7067871-0.7099609-1.0601196    c0.0383301,0.2945557,0.0231934,0.5960693-0.0447998,0.8852539c-0.0402832-0.2180176-0.1785889-0.4160767-0.3692627-0.5289917    c-0.0102539,0.4805298,0.0727539,0.9608765,0.2301025,1.4150391H52.8232422z"/>
	</g>
</g>
</svg>
