<?xml version="1.0" encoding="utf-8"?>
<!-- Generator: Adobe Illustrator 21.0.2, SVG Export Plug-In . SVG Version: 6.00 Build 0)  -->
<svg xmlns="http://www.w3.org/2000/svg" xmlns:xlink="http://www.w3.org/1999/xlink" version="1.1" id="Layer_1" x="0px" y="0px" viewBox="0 0 100 100" enable-background="new 0 0 100 100" xml:space="preserve" width="512" height="512">
<g>
	<circle fill="#EA8953" cx="50" cy="50" r="48"/>
	<path opacity="0.1" d="M43.2299805,22.4291763L40.75,25.6691666l6.2199707,8.0899658   C36.25,35.2291031,27.9899902,44.4291763,27.9899902,55.5491714c0,6.5400391,2.8500366,12.4100342,7.3699951,16.4399414   l24.9002075,24.9002686c17.6490479-3.8446045,31.673645-17.3886719,36.1950073-34.7750244L56.7700195,22.4291763H43.2299805z"/>
	<g>
		<g>
			<g>
				<polygon fill="#EBF0F3" points="51.6693726,35.5410461 59.2495728,25.6707439 56.770813,22.4342327 43.229187,22.4342327       40.7504272,25.6707439 48.3395386,35.5410461     "/>
			</g>
			<polygon fill="#E1E6E9" points="48.9857788,35.5410461 44.3538208,25.6659222 40.7512817,25.6659222 48.3388062,35.5410461         "/>
			<polygon fill="#E1E6E9" points="51.6613159,35.5410461 59.2487183,25.6659222 55.6461792,25.6659222 51.0142212,35.5410461         "/>
			<polygon fill="#E1E6E9" points="47.8565178,25.665966 48.4313126,22.437479 45.8681297,22.437479 44.3538475,25.665966    "/>
			<polygon fill="#E1E6E9" points="55.6462212,25.665966 54.1319389,22.437479 51.5687561,22.437479 52.1435509,25.665966    "/>
			<polygon fill="#E1E6E9" points="50.3850708,35.5410461 52.1434937,25.6659222 47.8565063,25.6659222 49.6150513,35.5410461         "/>
		</g>
		<path fill="#FCD462" d="M50.0000648,33.5410843c-12.1570854,0-22.0123711,9.8552284-22.0123711,22.01231    s9.8552856,22.0123711,22.0123711,22.0123711s22.0122414-9.8552856,22.0122414-22.0123711    S62.1571465,33.5410843,50.0000648,33.5410843z M49.999691,73.4887924c-9.8890076,0-17.9345856-8.0460815-17.9345856-17.935585    s8.045578-17.9350853,17.9345856-17.9350853c9.8899994,0,17.9355812,8.0455818,17.9355812,17.9350853    S59.8896904,73.4887924,49.999691,73.4887924z"/>
	</g>
</g>
</svg>
