<?xml version="1.0" encoding="utf-8"?>
<!-- Generator: Adobe Illustrator 21.0.2, SVG Export Plug-In . SVG Version: 6.00 Build 0)  -->
<svg xmlns="http://www.w3.org/2000/svg" xmlns:xlink="http://www.w3.org/1999/xlink" version="1.1" id="Layer_1" x="0px" y="0px" viewBox="0 0 100 100" enable-background="new 0 0 100 100" xml:space="preserve" width="512" height="512">
<g>
	<circle fill="#EFC84A" cx="50" cy="50" r="48"/>
	<path opacity="0.1" d="M98,49.9999771c0-0.8353271-0.0218506-1.6656494-0.0640259-2.4906006L77.2199707,26.7991714   c-0.2299805-0.3200684-0.6099854-0.5200195-1.039978-0.5200195h-7.9199829l-0.8699951-0.8599854l-0.0900269-0.0999756   c-0.2299805-0.2900391-0.5899658-0.4699707-0.9899902-0.4699707h-5.3400269l-1.2699585-1.2700195   c-0.1699829-0.2399902-0.3800049-0.4599609-0.6199951-0.6199951c-0.4000244-0.2900391-0.9000244-0.460083-1.4400024-0.460083   c-1.3300171,0-2.4100342,1.0400391-2.5,2.3500977h-6.1600342c-0.7199707,0-1.2999878,0.5799561-1.2999878,1.2999268v0.1300049   h-8.5700073c-0.7299805,0-1.3200073,0.5900879-1.3200073,1.3300781v22.8798828   c-0.1199951,0.0100098-0.2399902,0.0300293-0.3599854,0.0600586l-1.8900146-1.8900146l-0.1799927-0.1700439   c-0.9599609-0.9099121-2.1799927-1.6699219-3.7000122-1.9599609c-0.5699463-0.1099854-1.1699829,0.0800781-1.7399902,0.4399414   c-0.0100098,0.0100098-0.0100098,0.0100098-0.0199585,0.0100098c-0.210022,0.1401367-0.4200439,0.3000488-0.6199951,0.4899902   c-0.6100464,0.5500488-1.1300049,1.2600098-1.4400024,1.9400635c-0.0100098,0.0300293-0.0200195,0.0500488-0.0300293,0.0799561   c-0.0299683,0.0700684-0.0599976,0.1401367-0.0900269,0.210083c-0.0899658,0.2399902-0.1499634,0.4699707-0.1699829,0.6800537   c-0.0199585,0.1499023-0.0100098,0.2999268,0.0100098,0.4299316c0.039978,0.2299805,0.1699829,0.4399414,0.3499756,0.6099854   l1.1900024,1.1900635H22.5v5.5200195l0.6500244,0.6499023v18.7199707l20.0070801,20.0070801   C45.3930664,97.8255386,47.6757813,97.9999771,50,97.9999771C76.5097046,97.9999771,98,76.5096207,98,49.9999771z"/>
	<g>
		<g>
			<path fill="#DC8744" d="M76.176857,26.2818336H39.1092033c-0.7307549,0-1.323143,0.5923901-1.323143,1.3231449V76.176857     c0,0.730751,0.5923882,1.323143,1.323143,1.323143H76.176857C76.9077301,77.5,77.5,76.907608,77.5,76.176857V27.6049786     C77.5,26.8742237,76.9077301,26.2818336,76.176857,26.2818336z"/>
			<rect x="39.7860985" y="29.2816143" fill="#E1E6E9" width="35.7138672" height="46.2182617"/>
			<rect x="39.7860985" y="28.2816143" fill="#EBF0F3" width="35.7138672" height="46.2182617"/>
			<path fill="#64798A" d="M66.3066864,24.8508167h-6.1637459c-0.0870209-1.3110924-1.1667023-2.3508186-2.4999695-2.3508186     c-1.3330269,0-2.4129486,1.0397263-2.4998512,2.3508186h-6.1637459c-0.7182198,0-1.3004875,0.5822048-1.3004875,1.3004246     v4.4595585h19.9282837v-4.4595585C67.6071701,25.4330215,67.02491,24.8508167,66.3066864,24.8508167z"/>
			<g>
				<path fill="#64798A" d="M48.8964691,38.8040733h-4.9365234v-4.9370117h4.9365234V38.8040733z M44.7099457,38.0540733h3.4365234      v-3.4370117h-3.4365234V38.0540733z"/>
			</g>
			<g>
				<rect x="50.8710785" y="35.8353233" fill="#64798A" width="19.0537109" height="1"/>
			</g>
			<g>
				<path fill="#64798A" d="M48.8964691,46.4083443h-4.9365234v-4.9370117h4.9365234V46.4083443z M44.7099457,45.6583443h3.4365234      v-3.4370117h-3.4365234V45.6583443z"/>
			</g>
			<g>
				<rect x="50.8710785" y="43.4395943" fill="#64798A" width="19.0537109" height="1"/>
			</g>
			<g>
				<path fill="#64798A" d="M48.8964691,54.0126152h-4.9365234v-4.9370117h4.9365234V54.0126152z M44.7099457,53.2626152h3.4365234      v-3.4370117h-3.4365234V53.2626152z"/>
			</g>
			<g>
				<rect x="50.8710785" y="51.0438652" fill="#64798A" width="19.0537109" height="1"/>
			</g>
			<g>
				<path fill="#64798A" d="M48.8964691,61.6168861h-4.9365234v-4.9370117h4.9365234V61.6168861z M44.7099457,60.8668861h3.4365234      v-3.4370117h-3.4365234V60.8668861z"/>
			</g>
			<g>
				<rect x="50.8710785" y="58.6481361" fill="#64798A" width="19.0537109" height="1"/>
			</g>
			<g>
				<path fill="#64798A" d="M48.8964691,69.2211533h-4.9365234v-4.9370117h4.9365234V69.2211533z M44.7099457,68.4711533h3.4365234      v-3.4370117h-3.4365234V68.4711533z"/>
			</g>
			<g>
				<rect x="50.8710785" y="66.2524033" fill="#64798A" width="19.0537109" height="1"/>
			</g>
		</g>
		<g>
			<g>
				<g>
					<path fill="#FCD462" d="M48.4548225,50.3801422c-0.1667976-1.5651474-2.3201294-4.1996841-4.1088676-3.8537979       c-4.6744766,0.9039192-6.5622482,6.2633858-6.5622482,6.2633858s3.6565323-0.8925285,6.5622482-2.2152481       C44.3459549,50.574482,47.8204308,48.8726273,48.4548225,50.3801422z"/>
					<path fill="#44C4A1" d="M47.3225327,49.2672234c-1.2579536-0.0296593-2.8380089,0.7154121-3.1451836,0.8662338       c-1.9407959,0.8765793-4.4836617,1.7621269-5.7942162,2.1412735c0.5427322-1.0458794,2.6208649-4.5988998,6.1045227-5.2674866       c0.0344238-0.0066376,0.0734215-0.0085526,0.11483-0.0105858c0.0453758-0.0022697,0.0924416-0.0046043,0.1421509-0.0131569       c0.3812027-0.0655785,1.4371796,0.2367897,1.9865036,0.4844131c-0.2054939-0.1865883-0.4213715-0.3545227-0.6432838-0.4964828       c-0.5181656-0.1599426-1.0874405-0.2804375-1.3851051-0.22929c-0.0374336,0.0063972-0.0752296,0.0080147-0.1126633,0.0098686       c-0.048027,0.0023918-0.0977402,0.0048409-0.1491356,0.0147095c-3.9808922,0.7640305-6.1668739,5.1508751-6.4030304,5.6486053       l-0.1138687,0.2399254l0.2575836-0.0695496c1.21101-0.3268776,4.0038834-1.2834702,6.1076546-2.2340851       c0.2952576-0.1449013,1.832943-0.8631821,3.0277061-0.8395615c0.3765984,0.0085068,0.7342834,0.113018,0.9661827,0.1848183       c-0.035553-0.0957947-0.0750771-0.1928177-0.119915-0.2910042       C47.9317551,49.3410072,47.6363907,49.2742653,47.3225327,49.2672234z"/>
					<path fill="#F6C358" d="M44.3459549,50.574482c-2.9057159,1.3227196-6.5622482,2.2152481-6.5622482,2.2152481       l7.7848129-0.3751602c0,0,2.6428947-0.3572998,2.8766136-1.6078453       c0.0241356-0.1291809,0.026062-0.2729607,0.0096893-0.4265823       C47.8204308,48.8726273,44.3459549,50.574482,44.3459549,50.574482z"/>
				</g>
				<g>
					<path fill="#FCD462" d="M27.5497799,50.3801422c0.1667976-1.5651474,2.3201294-4.1996841,4.1088696-3.8537979       c4.6744766,0.9039192,6.5622482,6.2633858,6.5622482,6.2633858s-3.6565323-0.8925285-6.5622482-2.2152481       C31.6586494,50.574482,28.1841717,48.8726273,27.5497799,50.3801422z"/>
					<path fill="#44C4A1" d="M28.6820698,49.2672234c1.2579536-0.0296593,2.8380089,0.7154121,3.1451836,0.8662338       c1.940794,0.8765793,4.4836636,1.7621269,5.7942181,2.1412735c-0.5427322-1.0458794-2.6208687-4.5988998-6.1045227-5.2674866       c-0.0344257-0.0066376-0.0734234-0.0085526-0.11483-0.0105858c-0.0453777-0.0022697-0.0924416-0.0046043-0.1421528-0.0131569       c-0.3812027-0.0655785-1.4371796,0.2367897-1.9865036,0.4844131c0.2054958-0.1865883,0.4213734-0.3545227,0.6432838-0.4964828       c0.5181656-0.1599426,1.0874405-0.2804375,1.385107-0.22929c0.0374336,0.0063972,0.0752296,0.0080147,0.1126633,0.0098686       c0.048027,0.0023918,0.0977383,0.0048409,0.1491337,0.0147095c3.9808903,0.7640305,6.166872,5.1508751,6.4030323,5.6486053       l0.1138687,0.2399254l-0.2575874-0.0695496c-1.21101-0.3268776-4.0038795-1.2834702-6.1076508-2.2340851       c-0.2952595-0.1449013-1.8329449-0.8631821-3.0277061-0.8395615c-0.3765984,0.0085068-0.7342834,0.113018-0.9661846,0.1848183       c0.035553-0.0957947,0.075079-0.1928177,0.119915-0.2910042       C28.0728474,49.3410072,28.3682137,49.2742653,28.6820698,49.2672234z"/>
					<path fill="#F6C358" d="M31.6586494,50.574482c2.9057159,1.3227196,6.5622482,2.2152481,6.5622482,2.2152481       l-7.7848129-0.3751602c0,0-2.6428947-0.3572998-2.8766155-1.6078453       c-0.0241337-0.1291809-0.0260601-0.2729607-0.0096893-0.4265823       C28.1841717,48.8726273,31.6586494,50.574482,31.6586494,50.574482z"/>
				</g>
			</g>
			<rect x="22.5000019" y="52.6064911" fill="#E56353" width="31.0046005" height="5.5246692"/>
			<rect x="23.1541061" y="58.1311569" fill="#D15241" width="29.6963902" height="19.3688412"/>
			<polygon fill="#CE412D" points="52.8504982,59.4853249 23.1541061,59.4960785 23.1541061,58.1311569 52.8504982,58.1311569         "/>
			<rect x="35.3377686" y="52.6064911" fill="#FCD462" width="5.3290648" height="24.8935089"/>
			<g>
				<rect x="35.9809341" y="52.6064911" fill="#44C4A1" width="0.483185" height="24.8935089"/>
				<rect x="39.5404816" y="52.6064911" fill="#44C4A1" width="0.483185" height="24.8935089"/>
			</g>
			<g>
				<g>
					<path fill="#F6C358" d="M34.1559868,60.6779594c0.5118065-1.3640137,0.3488007-2.4328423,0.1220665-4.4871216       c-2.0577316,0.3002357-3.139679,0.4131737-4.3389168,1.2493706c2.1118317-2.9481277,3.8228378-4.1969032,6.8834229-6.1668129       c0.6409111,0.4921112,0.9613686,0.738163,1.6022911,1.2302589       C37.2785988,55.9434128,36.4941635,57.9036522,34.1559868,60.6779594z"/>
					<path fill="#44C4A1" d="M37.1103783,51.4943771c-0.0207634-0.0159416-0.0398331-0.0305862-0.0612373-0.04702       c-0.0104637-0.0080338-0.0225868-0.0173416-0.0332069-0.0254974c-2.1263733,1.4669266-4.4885483,3.2969627-5.9896946,5.4333916       c0.2636185-0.1034393,0.53792-0.1863518,0.832016-0.257534c1.7566738-2.2556381,3.1566219-3.2417984,5.3029423-5.0643005       C37.1408653,51.517807,37.1260948,51.506443,37.1103783,51.4943771z"/>
					<path fill="#44C4A1" d="M38.2314873,52.3551788c-0.0106201-0.0081558-0.022747-0.0174675-0.0332069-0.0254974       c-0.0214043-0.0164375-0.040451-0.0310593-0.061264-0.047039c-0.0156937-0.0120506-0.0305099-0.023407-0.0508423-0.0390167       c-1.2336578,2.5233192-1.8403511,4.1185913-3.5938759,6.3767319c0.0048943,0.3007736-0.006752,0.5853539-0.0409241,0.8649673       C36.1531334,57.5028648,37.3393784,54.7698708,38.2314873,52.3551788z"/>
				</g>
				<g>
					<path fill="#F6C358" d="M41.6742401,60.6779594c-0.5118103-1.3640137-0.3488007-2.4328423-0.1220665-4.4871216       c2.0577316,0.3002357,3.139679,0.4131737,4.3389168,1.2493706c-2.1118317-2.9481277-3.8228378-4.1969032-6.8834229-6.1668129       c-0.6409111,0.4921112-0.9613686,0.738163-1.6022949,1.2302589       C38.5516281,55.9434128,39.3360634,57.9036522,41.6742401,60.6779594z"/>
					<path fill="#44C4A1" d="M38.7198486,51.4943771c0.0207596-0.0159416,0.0398331-0.0305862,0.0612373-0.04702       c0.0104599-0.0080338,0.0225868-0.0173416,0.0332069-0.0254974c2.1263733,1.4669266,4.4885483,3.2969627,5.9896927,5.4333916       c-0.2636147-0.1034393-0.5379181-0.1863518-0.832016-0.257534c-1.7566719-2.2556381-3.1566238-3.2417984-5.3029404-5.0643005       C38.6893616,51.517807,38.7041283,51.506443,38.7198486,51.4943771z"/>
					<path fill="#44C4A1" d="M37.5987396,52.3551788c0.0106201-0.0081558,0.022747-0.0174675,0.0332069-0.0254974       c0.0214043-0.0164375,0.0404472-0.0310593,0.061264-0.047039c0.0156898-0.0120506,0.0305099-0.023407,0.0508423-0.0390167       c1.2336578,2.5233192,1.8403511,4.1185913,3.5938759,6.3767319c-0.0048943,0.3007736,0.006752,0.5853539,0.0409241,0.8649673       C39.6770897,57.5028648,38.4908485,54.7698708,37.5987396,52.3551788z"/>
				</g>
			</g>
			<path fill="#DC8744" d="M38.0023003,50.4658623c-1.1782112,0-2.133358,0.9490814-2.133358,2.1198387h4.266716     C40.1356583,51.4149437,39.1805153,50.4658623,38.0023003,50.4658623z"/>
		</g>
		<g>
			<polygon fill="#44C4A1" points="45.8173828,37.6443176 44.9228516,36.0163879 45.5791016,35.6550598 46.0517578,36.5134583      48.3808594,34.7009583 48.8417969,35.2927551    "/>
		</g>
		<g>
			<polygon fill="#44C4A1" points="45.8173828,45.048996 44.9228516,43.4210663 45.5791016,43.0597382 46.0517578,43.9181366      48.3808594,42.1056366 48.8417969,42.6974335    "/>
		</g>
	</g>
</g>
</svg>
