<?xml version="1.0" encoding="utf-8"?>
<!-- Generator: Adobe Illustrator 21.0.2, SVG Export Plug-In . SVG Version: 6.00 Build 0)  -->
<svg xmlns="http://www.w3.org/2000/svg" xmlns:xlink="http://www.w3.org/1999/xlink" version="1.1" id="Layer_1" x="0px" y="0px" viewBox="0 0 100 100" enable-background="new 0 0 100 100" xml:space="preserve" width="512" height="512">
<g>
	<circle fill="#45B39C" cx="50" cy="50" r="48"/>
	<path opacity="0.1" d="M74.4599609,33.2000122l-8.9799805-8.9800415c0,0,0,0-0.0100098-0.0100098   c-0.1298828-0.1099854-0.2600098-0.2199707-0.3999023-0.3299561C65.0200195,23.8399658,64.9699707,23.789978,64.9099121,23.75   C64.7800293,23.6400146,64.6400146,23.5499878,64.5,23.4500122c-0.0600586-0.0300293-0.1099854-0.0700073-0.1599121-0.1100464   C63.5200195,22.8200073,62.6599121,22.5,61.8200684,22.5c-0.1900635,0-0.380127,0.0100098-0.5700684,0.0499878   c-4.7800293,0.9299927-7.9099121,4.4799805-9.7099609,7.3200073C51.0700684,29.6699829,50.5500488,29.539978,50,29.539978   c-0.3499756,0-0.6899414,0.0499878-1.0100098,0.1500244l-3-3l-0.3399658-0.3400269   c-1.75-1.7399902-4.0300293-3.2399902-6.9000244-3.7999878c-1.0100098-0.1900024-2.0800781,0.1500244-3.0900879,0.789978   C35.6099854,23.3800049,35.5600586,23.4199829,35.5,23.4500122c-0.1400146,0.0999756-0.2800293,0.1900024-0.4099121,0.2999878   c-0.0600586,0.039978-0.1101074,0.0899658-0.1601563,0.1300049c-0.1398926,0.1099854-0.2700195,0.2199707-0.3999023,0.3299561   c-0.0100098,0.0100098-0.0100098,0.0100098-0.0100098,0.0100098c-1.0800781,0.9800415-2,2.25-2.5400391,3.4400024   c-0.0100098,0-0.0100098,0.0100098-0.0100098,0.0100098c-0.0200195,0.0499878-0.0400391,0.0900269-0.0600586,0.1400146   c-0.0499268,0.1300049-0.0998535,0.25-0.1499023,0.3699951c0,0,0,0,0.0100098,0   c-0.1600342,0.4299927-0.2700195,0.8399658-0.3100586,1.210022c-0.0300293,0.2699585-0.0300293,0.5299683,0.0200195,0.7599487   c0.0800781,0.4299927,0.3200684,0.8000488,0.6600342,1.1199951l0.0499268,0.0500488l2.0200195,2.0199585H22.5v9.8000488   l1.1599121,1.1599731V77.5l20.0805664,20.0804443C45.7906494,97.8476563,47.8769531,98,50,98   c25.2683105,0,45.9611816-19.5289917,47.8452148-44.3148804L77.5,33.3399658L74.4599609,33.2000122z"/>
	<g>
		<g>
			<g>
				<path fill="#FCD462" d="M68.5420456,29.391264c-0.2958832-2.7764626-4.1157455-7.4499454-7.2888489-6.8363647      c-8.2921944,1.6034851-11.6409683,11.1108112-11.6409683,11.1108112s6.4864311-1.5832901,11.6409683-3.929697      C61.2531967,29.7360134,67.4166794,26.717041,68.5420456,29.391264z"/>
				<path fill="#44C4A1" d="M66.5334396,27.4170284c-2.2315216-0.052618-5.0344238,1.2690907-5.5793343,1.5366364      c-3.4428329,1.5549889-7.9537048,3.1258907-10.2785378,3.7984676c0.9627724-1.8553143,4.6492348-8.1581249,10.8289986-9.3441525      c0.0610657-0.011776,0.130249-0.0151691,0.203701-0.0187759c0.0804977-0.0040321,0.1639824-0.0081692,0.2521667-0.0233402      c0.6762276-0.1163349,2.5494614,0.4200439,3.5239182,0.859314c-0.3645325-0.3309975-0.7474823-0.6288967-1.1411438-0.8807297      c-0.9191856-0.2837238-1.929039-0.4974709-2.457077-0.4067421c-0.0664063,0.0113525-0.1334534,0.0142155-0.1998596,0.0175037      c-0.0851936,0.0042439-0.173378,0.0085945-0.2645531,0.0260983c-7.0618248,1.3553371-10.9396019,9.1372871-11.358532,10.0202332      l-0.201992,0.4256096l0.4569359-0.1233749c2.1482506-0.5798607,7.1026077-2.2767906,10.834549-3.9631138      c0.5237732-0.2570438,3.2515182-1.5312271,5.3709412-1.4893227c0.6680603,0.015089,1.3025665,0.2004852,1.7139435,0.3278542      c-0.0630722-0.1699352-0.1331863-0.3420429-0.2127228-0.516222      C67.6141586,27.5479088,67.0902023,27.4295197,66.5334396,27.4170284z"/>
				<path fill="#F6C358" d="M61.2531967,29.7360134c-5.1545372,2.3464069-11.6409683,3.929697-11.6409683,3.929697      l13.8097153-0.6655121c0,0,4.6883087-0.6338272,5.1029129-2.8522053c0.0428162-0.2291565,0.0462265-0.484211,0.017189-0.7567291      C67.4166794,26.717041,61.2531967,29.7360134,61.2531967,29.7360134z"/>
			</g>
			<g>
				<path fill="#FCD462" d="M31.4579544,29.391264c0.2958889-2.7764626,4.1157494-7.4499454,7.2888527-6.8363647      c8.2921906,1.6034851,11.6409683,11.1108112,11.6409683,11.1108112s-6.4864349-1.5832901-11.6409683-3.929697      C38.7468071,29.7360134,32.5833244,26.717041,31.4579544,29.391264z"/>
				<path fill="#44C4A1" d="M33.4665604,27.4170284c2.2315216-0.052618,5.0344276,1.2690907,5.5793381,1.5366364      c3.4428329,1.5549889,7.9537048,3.1258907,10.2785378,3.7984676c-0.9627724-1.8553143-4.6492348-8.1581249-10.8289986-9.3441525      c-0.0610695-0.011776-0.130249-0.0151691-0.203701-0.0187759c-0.0804977-0.0040321-0.1639862-0.0081692-0.2521706-0.0233402      c-0.6762238-0.1163349-2.5494576,0.4200439-3.5239182,0.859314c0.3645363-0.3309975,0.7474899-0.6288967,1.1411438-0.8807297      c0.9191856-0.2837238,1.929039-0.4974709,2.4570808-0.4067421c0.0664063,0.0113525,0.1334496,0.0142155,0.1998558,0.0175037      c0.0851974,0.0042439,0.1733818,0.0085945,0.2645569,0.0260983c7.061821,1.3553371,10.9396019,9.1372871,11.358532,10.0202332      l0.201992,0.4256096l-0.4569397-0.1233749c-2.1482468-0.5798607-7.1026039-2.2767906-10.834549-3.9631138      c-0.5237694-0.2570438-3.2515182-1.5312271-5.3709412-1.4893227c-0.6680565,0.015089-1.3025627,0.2004852-1.7139416,0.3278542      c0.0630684-0.1699352,0.1331844-0.3420429,0.2127209-0.516222      C32.3858414,27.5479088,32.9098015,27.4295197,33.4665604,27.4170284z"/>
				<path fill="#F6C358" d="M38.7468071,29.7360134c5.1545334,2.3464069,11.6409683,3.929697,11.6409683,3.929697      l-13.8097153-0.6655121c0,0-4.6883106-0.6338272-5.1029167-2.8522053      c-0.0428104-0.2291565-0.0462284-0.484211-0.017189-0.7567291      C32.5833244,26.717041,38.7468071,29.7360134,38.7468071,29.7360134z"/>
			</g>
		</g>
		<rect x="22.5000019" y="33.3406487" fill="#E56353" width="55" height="9.8003778"/>
		<rect x="23.6603394" y="43.1410294" fill="#D15241" width="52.6793251" height="34.3589706"/>
		<polygon fill="#CE412D" points="76.3396606,45.5432243 23.6603394,45.5622978 23.6603394,43.1410294 76.3396606,43.1410294   "/>
		<rect x="45.2733078" y="33.3406487" fill="#FCD462" width="9.4533892" height="44.1593513"/>
		<g>
			<rect x="46.414238" y="33.3406487" fill="#44C4A1" width="0.8571365" height="44.1593513"/>
			<rect x="52.7286263" y="33.3406487" fill="#44C4A1" width="0.8571365" height="44.1593513"/>
		</g>
		<g>
			<g>
				<path fill="#F6C358" d="M43.1769028,47.6588745c0.907917-2.4196663,0.6187553-4.3156929,0.2165413-7.9598427      c-3.6502724,0.5326004-5.5695686,0.7329445-7.6969376,2.216301c3.7462425-5.2297745,6.7814484-7.445015,12.2107124-10.9394989      c1.1369324,0.8729706,1.7054062,1.3094482,2.8423576,2.1823959      C48.7162056,39.2601242,47.3246727,42.7374496,43.1769028,47.6588745z"/>
				<path fill="#44C4A1" d="M48.4177895,31.3678379c-0.0368271-0.0282784-0.0706596-0.0542545-0.1086311-0.0834084      c-0.0185547-0.0142479-0.0400658-0.0307617-0.0589066-0.0452309c-3.7720375,2.6022243-7.9623718,5.8485813-10.6252975,9.6384563      c0.4676399-0.1834908,0.9542313-0.330574,1.4759369-0.4568481c3.1162186-4.001339,5.5996284-5.750721,9.4070511-8.9837112      C48.4718742,31.4094009,48.4456749,31.3892479,48.4177895,31.3678379z"/>
				<path fill="#44C4A1" d="M50.4065628,32.8948402c-0.0188446-0.0144691-0.0403519-0.030983-0.0589104-0.0452309      c-0.0379715-0.0291519-0.0717545-0.0550919-0.1086769-0.0834427c-0.0278358-0.0213737-0.0541191-0.0415192-0.0901871-0.0692101      c-2.1884232,4.4761887-3.2646599,7.3060951-6.3752899,11.3118744c0.0086823,0.5335503-0.0119781,1.0383797-0.0725975,1.5343933      C46.7197075,42.0264816,48.8240204,37.1783371,50.4065628,32.8948402z"/>
			</g>
			<g>
				<path fill="#F6C358" d="M56.5137634,47.6588745c-0.9079132-2.4196663-0.6187515-4.3156929-0.2165413-7.9598427      c3.6502762,0.5326004,5.5695724,0.7329445,7.6969376,2.216301c-3.7462425-5.2297745-6.7814445-7.445015-12.2107086-10.9394989      c-1.1369324,0.8729706-1.7054062,1.3094482-2.8423576,2.1823959      C50.9744644,39.2601242,52.3659973,42.7374496,56.5137634,47.6588745z"/>
				<path fill="#44C4A1" d="M51.2728806,31.3678379c0.0368271-0.0282784,0.0706596-0.0542545,0.1086311-0.0834084      c0.0185547-0.0142479,0.040062-0.0307617,0.0589066-0.0452309c3.7720375,2.6022243,7.9623718,5.8485813,10.6252975,9.6384563      c-0.4676399-0.1834908-0.9542313-0.330574-1.4759369-0.4568481c-3.1162186-4.001339-5.5996323-5.750721-9.4070511-8.9837112      C51.2187958,31.4094009,51.2449951,31.3892479,51.2728806,31.3678379z"/>
				<path fill="#44C4A1" d="M49.2841072,32.8948402c0.0188446-0.0144691,0.0403519-0.030983,0.0589104-0.0452309      c0.0379715-0.0291519,0.0717545-0.0550919,0.1086769-0.0834427c0.0278358-0.0213737,0.0541191-0.0415192,0.0901871-0.0692101      c2.1884232,4.4761887,3.2646599,7.3060951,6.3752899,11.3118744c-0.0086823,0.5335503,0.0119781,1.0383797,0.0725975,1.5343933      C52.9709625,42.0264816,50.8666496,37.1783371,49.2841072,32.8948402z"/>
			</g>
		</g>
		<path fill="#DC8744" d="M50,29.5433254c-2.0900688,0-3.7844276,1.683609-3.7844276,3.7604504h7.5688553    C53.7844276,31.2269344,52.0900688,29.5433254,50,29.5433254z"/>
	</g>
</g>
</svg>
