<?xml version="1.0" encoding="utf-8"?>
<!-- Generator: Adobe Illustrator 21.0.2, SVG Export Plug-In . SVG Version: 6.00 Build 0)  -->
<svg xmlns="http://www.w3.org/2000/svg" xmlns:xlink="http://www.w3.org/1999/xlink" version="1.1" id="Layer_1" x="0px" y="0px" viewBox="0 0 100 100" enable-background="new 0 0 100 100" xml:space="preserve" width="512" height="512">
<g>
	<circle fill="#334D5C" cx="50" cy="50" r="48"/>
	<path opacity="0.1" d="M97.8817749,53.2033463L76.9000244,32.2291031l-0.1400146-0.1499023   c-0.4700317-0.5-1.1500244-0.8100586-1.8900146-0.8100586h-7.9500122l-5.9599609-5.9599609l-0.1000366-0.0999756   c-0.3900146-0.4200439-0.9599609-0.6900635-1.5799561-0.6900635H40.7199707c-1.1999512,0-2.1799927,0.9799805-2.1799927,2.1800537   v4.5699463H25.1300049c-1.4500122,0-2.6300049,1.1800537-2.6300049,2.6300049v38.9500732   c0,0.8499756,0.4099731,1.6099854,1.039978,2.0899658l22.9090576,22.9161377   C47.6228638,97.9412613,48.8041992,97.9999771,50,97.9999771C75.4320679,97.9999771,96.2317505,78.2176285,97.8817749,53.2033463z"/>
	<g>
		<path fill="#F6C358" d="M22.5000019,48.5963249v24.2529945c0,1.4536133,1.1784668,2.632019,2.6320801,2.632019h49.7358398    c1.4536133,0,2.6320801-1.1784058,2.6320801-2.632019V48.5963249H22.5000019z"/>
		<path fill="#DC8744" d="M22.5000019,48.5963249v7.3532104C31.823,58.0916862,41.173584,59.1833,50.3005371,59.1837883h0.0019531    c9.1186523,0,18.2670898-1.0910645,27.1975098-3.230835v-7.3566284H22.5000019z"/>
		<g>
			<path fill="#DC8744" d="M61.4618874,31.7537003h-2.3099785v-4.9250584H40.8480377v4.9250584h-2.3099785v-5.0547695     c0-1.2023621,0.9779053-2.1802673,2.1802673-2.1802673H59.28162c1.2023621,0,2.1802673,0.9779053,2.1802673,2.1802673V31.7537003     z"/>
		</g>
		<path fill="#FCD462" d="M74.8679199,31.2681999H25.132082c-1.4536133,0-2.6320801,1.1784058-2.6320801,2.6320801v20.0015869    c18.4833965,4.3161011,36.8210449,4.4347534,55,0V33.900219C77.5,32.4466057,76.3215332,31.2681999,74.8679199,31.2681999z"/>
		<g>
			<path fill="#EBF0F3" d="M63.0117188,35.7765007H36.9882813c-0.5878906,0-1.0644531,0.4765625-1.0644531,1.0644531v11.737915     c0,0.5878906,0.4765625,1.0645142,1.0644531,1.0645142h26.0234375c0.5878906,0,1.0644531-0.4766235,1.0644531-1.0645142     v-11.737915C64.0761719,36.2530632,63.5996094,35.7765007,63.0117188,35.7765007z"/>
			<g>
				<g>
					<polygon fill="#2D93BA" points="38.923584,48.018261 37.548584,48.018261 37.548584,46.643261 38.298584,46.643261        38.298584,47.268261 38.923584,47.268261      "/>
				</g>
				<g>
					<path fill="#2D93BA" d="M38.298584,45.0700188h-0.75v-1.5732422h0.75V45.0700188z M38.298584,41.9235344h-0.75v-1.5737305h0.75       V41.9235344z"/>
				</g>
				<g>
					<polygon fill="#2D93BA" points="38.298584,38.7765617 37.548584,38.7765617 37.548584,37.4015617 38.923584,37.4015617        38.923584,38.1515617 38.298584,38.1515617      "/>
				</g>
				<g>
					<path fill="#2D93BA" d="M59.0622559,38.1515617h-2.0146484v-0.75h2.0146484V38.1515617z M55.0339355,38.1515617h-2.0136719       v-0.75h2.0136719V38.1515617z M51.0065918,38.1515617h-2.0136719v-0.75h2.0136719V38.1515617z M46.979248,38.1515617       h-2.0146484v-0.75h2.0146484V38.1515617z M42.9509277,38.1515617h-2.0136719v-0.75h2.0136719V38.1515617z"/>
				</g>
				<g>
					<polygon fill="#2D93BA" points="62.4509277,38.7765617 61.7009277,38.7765617 61.7009277,38.1515617 61.0759277,38.1515617        61.0759277,37.4015617 62.4509277,37.4015617      "/>
				</g>
				<g>
					<path fill="#2D93BA" d="M62.4509277,45.0700188h-0.75v-1.5737305h0.75V45.0700188z M62.4509277,41.9230461h-0.75v-1.5732422       h0.75V41.9230461z"/>
				</g>
				<g>
					<polygon fill="#2D93BA" points="62.4509277,48.018261 61.0759277,48.018261 61.0759277,47.268261 61.7009277,47.268261        61.7009277,46.643261 62.4509277,46.643261      "/>
				</g>
				<g>
					<path fill="#2D93BA" d="M59.0622559,48.018261H57.048584v-0.75h2.0136719V48.018261z M55.0349121,48.018261h-2.0146484v-0.75       h2.0146484V48.018261z M51.0065918,48.018261h-2.0136719v-0.75h2.0136719V48.018261z M46.979248,48.018261h-2.0136719v-0.75       h2.0136719V48.018261z M42.9519043,48.018261h-2.0146484v-0.75h2.0146484V48.018261z"/>
				</g>
			</g>
		</g>
		<path fill="#64798A" d="M52.3391113,54.0689201h-4.6782227c-0.3103027,0-0.5617676,0.2515259-0.5617676,0.5618896v7.317627    c0,0.3103638,0.2514648,0.5618896,0.5617676,0.5618896h4.6782227c0.3103027,0,0.5617676-0.2515259,0.5617676-0.5618896v-7.317627    C52.9008789,54.320446,52.6494141,54.0689201,52.3391113,54.0689201z"/>
	</g>
</g>
</svg>
