<?xml version="1.0" encoding="utf-8"?>
<!-- Generator: Adobe Illustrator 21.0.2, SVG Export Plug-In . SVG Version: 6.00 Build 0)  -->
<svg xmlns="http://www.w3.org/2000/svg" xmlns:xlink="http://www.w3.org/1999/xlink" version="1.1" id="Layer_1" x="0px" y="0px" viewBox="0 0 100 100" enable-background="new 0 0 100 100" xml:space="preserve" width="512" height="512">
<g>
	<circle fill="#EA8953" cx="50" cy="50" r="48"/>
	<path opacity="0.1" d="M56.2399902,27.2000122l-0.1300049-0.1200562v-0.0099487   c-1.5599976-1.4200439-3.6300049-2.2900391-5.9099731-2.2900391c-4.8500366,0-8.7700195,3.9200439-8.7700195,8.7700195   c0,1.0900269,0.210022,2.1400146,0.5800171,3.1099854c-0.4700317,0.1099854-0.9400024,0.2300415-1.4000244,0.3699951   l-2.3099976-2.3099976c-0.4500122,0.3800049-0.8699951,0.7700195-1.2600098,1.1700439l-1.1699829-1.1700439   c-2.9799805,2.5800171-4.8300171,5.3200073-5.3399658,8.2399902c-1.7000122,1.7700195-3.0100098,3.8099976-3.8100586,6.0200195   h-2.9899902c-0.6799927,0-1.2299805,0.5499878-1.2299805,1.2299805v4.7400513c0,0.3299561,0.1300049,0.6299438,0.3400269,0.8499756   l0.0199585,0.0200195l4.2900391,4.2799683c1.0499878,2.4000244,2.7099609,4.5599976,4.8399658,6.3699951l3.6300049,3.6300049   v3.8900146c0,0.3200073,0.1199951,0.6099854,0.3300171,0.8300171l22.4349976,22.4349976   C75.493042,94.2391357,89.4746704,82.173584,95.2006836,66.1691895L56.6900024,27.6499634   C56.5499878,27.4899902,56.4000244,27.3399658,56.2399902,27.2000122z"/>
	<g>
		<path fill="#31978C" d="M35.8740044,45.3631516l-5.4795227-0.0000191c-0.30266-3.8364944,1.6838188-7.3634186,5.4795532-10.645752    L35.8740044,45.3631516z"/>
		<g>
			<path fill="#31978C" d="M74.9129944,62.5390778c-0.5585251,0-1.103241-0.1879654-1.5129242-0.5393448     c-0.848526-0.7265396-1.1845627-2.0269508-0.8531265-3.3112488c0.1871948-0.7334442,0.5615921-1.3955421,1.0618057-1.9417877     c-1.4853058-1.9111023-3.5813065-3.5483131-5.9013214-5.2591743l0.9329147-1.2643509     c2.0468979,1.5090866,4.4359665,3.2698174,6.200531,5.5476418c0.7994308-0.4472771,1.7292786-0.6736031,2.6591263-0.5884438     l-0.138092,1.565094c-0.5508575-0.0498695-1.1124496,0.080555-1.6157303,0.3352661     c0.4311676,0.7111969,0.7963562,1.4684258,1.0740814,2.278595c0.1749191,0.5178604,0.3467789,1.1976013,0.1104813,1.8689041     c-0.2117538,0.5999527-0.7150345,1.0472336-1.3824997,1.2259903     C75.3380203,62.5122261,75.1247406,62.5390778,74.9129944,62.5390778z M74.5309296,58.1123161     c-0.2132874,0.2930717-0.3728638,0.6198997-0.4618607,0.9666748c-0.1503677,0.5815392-0.0981979,1.3403053,0.3529129,1.7269745     c0.1703186,0.1450005,0.4649277,0.1987038,0.7181015,0.1327248c0.0935974-0.0253181,0.257782-0.0889931,0.3084183-0.2309265     c0.0767212-0.2171173-0.0214844-0.5623589-0.1166153-0.8393211     C75.1216736,59.2523804,74.8531494,58.6693039,74.5309296,58.1123161z"/>
		</g>
		<path fill="#44C4A1" d="M48.154686,35.9471588c-10.1702309,0-18.7360497,5.5076523-21.4308491,13.0338135h-2.9920921    c-0.6801243,0-1.2317429,0.5514259-1.2317429,1.2317467v4.7375717c0,0.6803169,0.5516186,1.2318382,1.2317429,1.2318382h2.2726479    c0.7871494,5.309906,4.40662,9.9138947,9.6168842,12.7792969v5.0306473c0,0.6803131,0.5514297,1.231842,1.2317467,1.231842    h5.3157539c0.6801262,0,1.2317467-0.5515289,1.2317467-1.231842v-2.3348846    c1.5334435,0.2692871,3.12117,0.4199448,4.7541618,0.4199448s3.2207184-0.1506577,4.7541656-0.4199448v2.3348846    c0,0.6803131,0.5516167,1.231842,1.2317429,1.231842h5.3157578c0.6803169,0,1.2317429-0.5515289,1.2317429-1.231842v-5.0306473    c5.9095688-3.250061,9.7931519-8.7319183,9.7931519-14.949234C70.4812469,44.035202,60.485363,35.9471588,48.154686,35.9471588z"/>
		<path fill="#3EA69B" d="M38.3006172,45.3631516l-5.4795227-0.0000191    c-0.3026619-3.8364944,1.6838188-7.3634186,5.4795532-10.645752L38.3006172,45.3631516z"/>
		<rect x="40.3359528" y="42.1537323" fill="#FFFFFF" width="19.7258949" height="1.8004332"/>
		<circle fill="#FCD462" cx="50.1988411" cy="33.5469284" r="8.7708397"/>
		<g>
			<path fill="#F6C358" d="M50.1983223,41.2100716c-4.2257538,0-7.6628189-3.4378357-7.6628189-7.6628227     c0-4.2257519,3.4370651-7.6635876,7.6628189-7.6635876s7.6643562,3.4378357,7.6643562,7.6635876     C57.8626785,37.7722359,54.4240761,41.2100716,50.1983223,41.2100716z M50.1983223,27.0620861     c-3.5751648,0-6.4843979,2.9092331-6.4843979,6.4851627c0,3.5751686,2.9092331,6.4843979,6.4843979,6.4843979     c3.5766983,0,6.4859314-2.9092293,6.4859314-6.4843979C56.6842537,29.9713192,53.7750206,27.0620861,50.1983223,27.0620861z"/>
		</g>
		<g>
			<path fill="#F6C358" d="M49.9375229,38.4810104v-0.8689766c-1.0879173-0.1109238-2.0644302-0.5434761-2.9285622-1.2971725     l0.8689766-1.0356064c0.6665077,0.579319,1.3523903,0.9241982,2.0595856,1.0356064v-2.3095284     c-0.8970718-0.2140961-1.5538902-0.496006-1.970459-0.8452454c-0.4165688-0.3492355-0.6248512-0.8670387-0.6248512-1.5534077     c0-0.686367,0.2392845-1.2477646,0.7197914-1.6846752c0.4805031-0.4364281,1.1053543-0.6742592,1.8755188-0.7139778v-0.5953045     h0.7614479v0.6069298c0.8728561,0.0639381,1.6982384,0.3613472,2.4761543,0.893198l-0.7740402,1.0951843     c-0.5241013-0.3729725-1.0908241-0.603054-1.7021141-0.6907272v2.2378387h0.0358429     c0.9125748,0.2145805,1.5829582,0.5042419,2.0111504,0.8689804c0.4291611,0.3652229,0.6432571,0.895134,0.6432571,1.5892525     c0,0.694603-0.2460632,1.2603569-0.7381973,1.6963005c-0.4921303,0.4369125-1.1421661,0.6747437-1.9520531,0.7144623v0.8568687     H49.9375229z M49.0976067,30.7972794c-0.2024689,0.1782532-0.3032188,0.4005833-0.3032188,0.6665077     c0,0.2659264,0.0794373,0.4761467,0.2383156,0.6306648c0.1579056,0.1550026,0.4601593,0.3037071,0.9048195,0.4465981v-2.0595856     C49.5800514,30.5134335,49.3000793,30.6185436,49.0976067,30.7972794z M51.6037941,36.0169678     c0.2218475-0.1821289,0.3332558-0.4122086,0.3332558-0.6902428c0-0.2775497-0.0871887-0.4979439-0.2615662-0.6606979     c-0.1753464-0.1627502-0.5008507-0.3153305-0.9765129-0.4582214v2.1424141     C51.0796928,36.3109856,51.3809776,36.1995773,51.6037941,36.0169678z"/>
		</g>
	</g>
</g>
</svg>
