<?xml version="1.0" encoding="utf-8"?>
<!-- Generator: Adobe Illustrator 21.0.2, SVG Export Plug-In . SVG Version: 6.00 Build 0)  -->
<svg xmlns="http://www.w3.org/2000/svg" xmlns:xlink="http://www.w3.org/1999/xlink" version="1.1" id="Layer_1" x="0px" y="0px" viewBox="0 0 100 100" enable-background="new 0 0 100 100" xml:space="preserve" width="512" height="512">
<g>
	<circle fill="#EFC84A" cx="50" cy="50" r="48"/>
	<path opacity="0.1" d="M56.9899902,25.0992203l-1.7199707-1.5500488l-0.9100342-0.8300781   c-0.3499756-0.3099365-0.8900146-0.289917-1.2000122,0.0600586L38.0900269,39.4291763   c-0.1000366,0.1099854-0.1600342,0.25-0.1900024,0.4000244h-7.6000366c-0.8200073,0-1.4699707,0.6599121-1.4699707,1.4699707   v25.9000244h-0.0100098L22.5,75.3692398V76.85923c0,0.1599121,0.0599976,0.3099365,0.1599731,0.4199219l0.1200562,0.1101074   l20.0791626,20.0791016C45.1893921,97.8160172,47.5730591,97.9999771,50,97.9999771   c21.8372192,0,40.2559204-14.5877686,46.0747681-34.5460205L64.6500244,32.0291519L56.9899902,25.0992203z"/>
	<g>
		<g>
			<path fill="#3A556A" d="M22.5,75.373291v1.4827271C22.5,77.2116699,22.7883301,77.5,23.144043,77.5H76.855957     C77.2116699,77.5,77.5,77.2116699,77.5,76.8560181V75.373291H22.5z"/>
			<polygon fill="#64798A" points="71.1815567,67.20401 28.8184509,67.20401 22.5000038,75.3733063 77.5,75.3733063    "/>
			<path fill="#3A556A" d="M69.7036133,39.8282547H30.2963867c-0.8115234,0-1.4693604,0.6578369-1.4693604,1.4692993v25.9064331     h42.3459473V41.297554C71.1729736,40.4860916,70.5151367,39.8282547,69.7036133,39.8282547z"/>
			<rect x="31.8271484" y="42.8282547" fill="#EBF0F3" width="36.3457031" height="21.3759766"/>
			<polygon fill="#E1E6E9" points="68.1728516,42.8282547 46.9992676,42.8282547 59.4825439,64.2042313 68.1728516,64.2042313         "/>
			<g>
				<polygon fill="#E1E6E9" points="32.942997,68.0996933 29.7143707,68.0996933 30.0675011,67.6322327 33.2397881,67.6322327           "/>
				<polygon fill="#E1E6E9" points="38.8813591,68.0996933 35.6527328,68.0996933 35.9022408,67.6322327 39.0745239,67.6322327           "/>
				<polygon fill="#E1E6E9" points="42.9747963,68.0996933 39.74617,68.0996933 39.9242439,67.6322327 43.0965309,67.6322327           "/>
				<polygon fill="#E1E6E9" points="47.0682297,68.0996933 43.8396034,68.0996933 43.9462471,67.6322327 47.1185341,67.6322327           "/>
				<polygon fill="#E1E6E9" points="51.1616669,68.0996933 47.9330406,68.0996933 47.9682541,67.6322327 51.1405373,67.6322327           "/>
				<polygon fill="#E1E6E9" points="57.9071846,68.0996933 54.6785583,68.0996933 54.5960617,67.6322327 57.7683487,67.6322327           "/>
				<polygon fill="#E1E6E9" points="62.0006218,68.0996933 58.7719955,68.0996933 58.6180649,67.6322327 61.7903519,67.6322327           "/>
				<polygon fill="#E1E6E9" points="66.0940552,68.0996933 62.8654289,68.0996933 62.6400719,67.6322327 65.812355,67.6322327           "/>
				<polygon fill="#E1E6E9" points="70.1874924,68.0996933 66.9588623,68.0996933 66.6620789,67.6322327 69.8343582,67.6322327           "/>
				<polygon fill="#E1E6E9" points="32.2420883,69.2036667 28.8804092,69.2036667 29.4227047,68.4857941 32.6978645,68.4857941           "/>
				<polygon fill="#E1E6E9" points="37.0895081,69.2036667 33.727829,69.2036667 34.1453667,68.4857941 37.4205246,68.4857941           "/>
				<polygon fill="#E1E6E9" points="41.9369278,69.2036667 38.5752487,69.2036667 38.8680267,68.4857941 42.1431885,68.4857941           "/>
				<polygon fill="#E1E6E9" points="46.7843475,69.2036667 43.4226723,69.2036667 43.5906906,68.4857941 46.8658485,68.4857941           "/>
				<polygon fill="#E1E6E9" points="51.6317711,69.2036667 48.270092,69.2036667 48.3133507,68.4857941 51.5885086,68.4857941           "/>
				<polygon fill="#E1E6E9" points="56.4791908,69.2036667 53.1175117,69.2036667 53.0360146,68.4857941 56.3111725,68.4857941           "/>
				<polygon fill="#E1E6E9" points="61.3266106,69.2036667 57.9649315,69.2036667 57.7586746,68.4857941 61.0338326,68.4857941           "/>
				<polygon fill="#E1E6E9" points="66.1740341,69.2036667 62.812355,69.2036667 62.4813347,68.4857941 65.7564926,68.4857941           "/>
				<polygon fill="#E1E6E9" points="71.0214539,69.2036667 67.6597748,69.2036667 67.2039948,68.4857941 70.4791565,68.4857941           "/>
				<polygon fill="#E1E6E9" points="31.5720749,70.2589798 28.0832081,70.2589798 28.666748,69.4865036 32.0625153,69.4865036           "/>
				<polygon fill="#E1E6E9" points="36.6028976,70.2589798 33.1140289,70.2589798 33.563324,69.4865036 36.9590912,69.4865036           "/>
				<polygon fill="#E1E6E9" points="41.6337204,70.2589798 38.1448517,70.2589798 38.4598961,69.4865036 41.8556633,69.4865036           "/>
				<polygon fill="#E1E6E9" points="46.6645432,70.2589798 43.1756744,70.2589798 43.356472,69.4865036 46.7522392,69.4865036           "/>
				<polygon fill="#E1E6E9" points="51.6953659,70.2589798 48.2064972,70.2589798 48.2530479,69.4865036 51.6488152,69.4865036           "/>
				<polygon fill="#E1E6E9" points="56.7261848,70.2589798 53.2373199,70.2589798 53.1496239,69.4865036 56.5453873,69.4865036           "/>
				<polygon fill="#E1E6E9" points="61.7570076,70.2589798 58.2681427,70.2589798 58.046196,69.4865036 61.4419632,69.4865036           "/>
				<polygon fill="#E1E6E9" points="66.7878342,70.2589798 63.2989616,70.2589798 62.9427719,69.4865036 66.3385391,69.4865036           "/>
				<polygon fill="#E1E6E9" points="71.8186569,70.2589798 68.3297882,70.2589798 67.8393478,69.4865036 71.2351151,69.4865036           "/>
				<polygon fill="#E1E6E9" points="33.5431442,71.3972855 27.2233105,71.3972855 27.8529854,70.563736 33.9977264,70.563736           "/>
				<polygon fill="#E1E6E9" points="38.4548683,71.3972855 34.8288078,71.3972855 35.2477684,70.563736 38.7733688,70.563736           "/>
				<polygon fill="#E1E6E9" points="43.6835136,71.3972855 40.057457,71.3972855 40.3315544,70.563736 43.8571548,70.563736     "/>
				<polygon fill="#E1E6E9" points="48.9121628,71.3972855 45.2861023,71.3972855 45.4153442,70.563736 48.9409409,70.563736           "/>
				<polygon fill="#E1E6E9" points="54.1408081,71.3972855 50.5147514,71.3972855 50.4991302,70.563736 54.0247269,70.563736           "/>
				<polygon fill="#E1E6E9" points="62.2212563,71.3972855 55.2605171,71.3972855 55.1134148,70.563736 61.8813019,70.563736           "/>
				<polygon fill="#E1E6E9" points="67.4499054,71.3972855 63.8238449,71.3972855 63.4394913,70.563736 66.9650879,70.563736           "/>
				<polygon fill="#E1E6E9" points="72.6785507,71.3972855 69.0524902,71.3972855 68.5232773,70.563736 72.0488739,70.563736           "/>
				<polygon fill="#E1E6E9" points="30.0675011,72.6287766 26.2930202,72.6287766 26.9745235,71.7266235 30.640274,71.7266235           "/>
				<polygon fill="#E1E6E9" points="51.8381729,72.6287766 31.7356873,72.6287766 32.2604065,71.7266235 51.7838058,71.7266235           "/>
				<polygon fill="#E1E6E9" points="57.280838,72.6287766 53.5063553,72.6287766 53.4039383,71.7266235 57.0696907,71.7266235           "/>
				<polygon fill="#E1E6E9" points="68.1661758,72.6287766 64.3916931,72.6287766 63.9757042,71.7266235 67.6414566,71.7266235           "/>
				<polygon fill="#E1E6E9" points="73.6088409,72.6287766 69.8343582,72.6287766 69.2615891,71.7266235 72.9273376,71.7266235           "/>
				<g>
					<polygon fill="#E1E6E9" points="62.515934,72.1199722 62.3555107,71.7266235 58.6897507,71.7266235 58.8027649,72.1199722             "/>
					<polygon fill="#E1E6E9" points="58.8321915,72.2223892 58.9489517,72.6287689 62.7234421,72.6287689 62.5577049,72.2223892             "/>
				</g>
			</g>
			<polygon fill="#3A556A" points="55.5720901,74.7175751 44.4279137,74.7175751 45.136528,72.9603653 54.8634796,72.9603653    "/>
		</g>
		<g>
			<g>
				<path fill="#27A2DB" d="M53.15522,22.7808971l-15.063221,16.6455441      c-0.3164024,0.3496399-0.2894783,0.8895721,0.0601616,1.2059746l10.2850418,9.3073502      c0.3496399,0.3163986,0.8895683,0.2894363,1.2059708-0.0601997l15.0632248-16.645546      c0.3163681-0.3495979,0.2894363-0.889534-0.0601959-1.2059364l-10.2850456-9.3073463      C54.0115166,22.404335,53.4715881,22.4312973,53.15522,22.7808971z"/>
			</g>
			<g>
				
					<rect x="35.9460907" y="32.1206551" transform="matrix(0.670986 -0.74147 0.74147 0.670986 -8.8727255 46.5572052)" fill="#3A556A" width="24.1569824" height="2.3115771"/>
			</g>
			<g>
				
					<rect x="42.461483" y="40.5275993" transform="matrix(0.670986 -0.74147 0.74147 0.670986 -15.3394909 47.3643646)" fill="#FFFFFF" width="6.4784636" height="0.8784357"/>
			</g>
			<g>
				
					<rect x="44.0555458" y="41.6260147" transform="matrix(0.670986 -0.74147 0.74147 0.670986 -15.3743181 49.4827156)" fill="#FFFFFF" width="8.0294514" height="0.8784357"/>
			</g>
			<g>
				
					<rect x="45.7548866" y="42.8398819" transform="matrix(0.670986 -0.74147 0.74147 0.670986 -15.4750662 51.6833992)" fill="#FFFFFF" width="9.4895077" height="0.8784357"/>
			</g>
			<g>
				
					<ellipse transform="matrix(0.670986 -0.74147 0.74147 0.670986 -6.2537632 55.2437706)" fill="#E56353" cx="59.122139" cy="34.668663" rx="1.4979627" ry="1.4979627"/>
			</g>
			<g>
				
					<ellipse transform="matrix(0.670986 -0.74147 0.74147 0.670986 -4.2382331 55.9070206)" fill="#FCD462" cx="60.8772583" cy="32.7291756" rx="1.4979627" ry="1.4979627"/>
			</g>
		</g>
		<g>
			<path fill="#E56353" d="M46.7592735,55.0168686c0.3399048,0.2841988,0.5098572,0.7218666,0.5098572,1.3129997     c0,0.5917053-0.1733627,1.024826-0.5206566,1.2993622c-0.3467216,0.2745361-0.8787422,0.4120865-1.5954933,0.4120865h-0.8662415     v1.431797h-0.8241768v-4.8819771h1.6762085C45.8793945,54.5911369,46.4193726,54.7332382,46.7592735,55.0168686z      M46.1760979,57.0318413c0.1654053-0.1744995,0.2478218-0.4302788,0.2478218-0.7679062s-0.1045837-0.576355-0.3143234-0.7161827     c-0.2097397-0.1398239-0.5377045-0.2091713-0.9850349-0.2091713h-0.837822v1.9552917h0.9566154     C45.6997795,57.2938728,46.0106926,57.2069092,46.1760979,57.0318413z"/>
			<path fill="#E56353" d="M48.6656837,58.3624649l-0.4888229,1.1106491h-0.879879l2.1513901-4.8819771h0.879879     l2.1513901,4.8819771h-0.8804512l-0.4888229-1.1106491H48.6656837z M50.775013,57.6013794l-0.8867035-2.0115662     l-0.8872681,2.0115662H50.775013z"/>
			<path fill="#E56353" d="M54.721405,59.473114h-0.8378181v-1.9274406l-1.8160362-2.9545364h0.9009132l1.334034,2.2207336     l1.3340302-2.2207336h0.9009132l-1.8160362,2.9545364V59.473114z"/>
		</g>
		<g>
			<polygon fill="#64798A" points="63.4131279,59.1733475 58.5832367,56.5111618 59.9100723,61.8641586 60.5784645,59.9841652      61.9424477,61.7598763 62.7883453,61.1101151 61.4243622,59.334404    "/>
			<g>
				<rect x="58.4339142" y="54.225235" fill="#64798A" width="0.2986425" height="0.8585972"/>
				<rect x="58.4339142" y="57.7529488" fill="#64798A" width="0.2986425" height="0.8585972"/>
				
					<rect x="60.197773" y="55.98909" transform="matrix(-1.836970e-16 1 -1 -1.836970e-16 116.76548 -3.9287035)" fill="#64798A" width="0.2986425" height="0.8585972"/>
				
					<rect x="56.6700554" y="55.98909" transform="matrix(-1.836970e-16 1 -1 -1.836970e-16 113.2377701 -0.4009888)" fill="#64798A" width="0.2986425" height="0.8585972"/>
				
					<rect x="59.6811485" y="54.7418556" transform="matrix(0.7071068 0.7071068 -0.7071068 0.7071068 56.5358353 -26.147274)" fill="#64798A" width="0.2986425" height="0.8585972"/>
				
					<rect x="57.1866798" y="57.2363243" transform="matrix(0.7071068 0.7071068 -0.7071068 0.7071068 57.5690804 -23.6528034)" fill="#64798A" width="0.2986425" height="0.8585972"/>
				
					<rect x="59.6811485" y="57.2363243" transform="matrix(-0.7071068 0.7071068 -0.7071068 -0.7071068 142.9127502 56.1348457)" fill="#64798A" width="0.2986425" height="0.8585972"/>
				
					<rect x="57.1866798" y="54.7418556" transform="matrix(-0.7071068 0.7071068 -0.7071068 -0.7071068 136.890564 53.640377)" fill="#64798A" width="0.2986425" height="0.8585972"/>
			</g>
		</g>
	</g>
</g>
</svg>
