<?xml version="1.0" encoding="utf-8"?>
<!-- Generator: Adobe Illustrator 21.0.2, SVG Export Plug-In . SVG Version: 6.00 Build 0)  -->
<svg xmlns="http://www.w3.org/2000/svg" xmlns:xlink="http://www.w3.org/1999/xlink" version="1.1" id="Layer_1" x="0px" y="0px" viewBox="0 0 100 100" enable-background="new 0 0 100 100" xml:space="preserve" width="512" height="512">
<g>
	<circle fill="#EA8953" cx="50" cy="50" r="48"/>
	<path opacity="0.1" d="M76.3699951,40.4500122c-0.5200195-0.4200439-1.1699829-0.6700439-1.8900146-0.6700439h-6.4899902   l-14.8900146-15.5c-0.1900024-0.2000122-0.3999634-0.3699951-0.6199951-0.5199585C51.9199829,23,51.0200195,22.5,50,22.5   s-1.9199829,0.5-2.4899902,1.2600098c-0.210022,0.1499634-0.4199829,0.3299561-0.6099854,0.5199585l-14.8900146,15.5h-6.4899902   c-1.6700439,0-3.0200195,1.3500366-3.0200195,3.0200195v31.6799927c0,0.960022,0.4500122,1.8200073,1.1500244,2.3699951   L44.4736328,97.673584C46.2880859,97.8817139,48.1298218,98,50,98c22.781189,0,41.8416138-15.8757935,46.7564697-37.1635742   L76.8499756,40.9299927L76.3699951,40.4500122z"/>
	<g>
		<g>
			<path fill="#27A2DB" d="M70.6721878,45.4598885L51.6575356,25.6678963c-0.875-0.9101563-2.4394531-0.9101563-3.3144531,0     L29.328434,45.4598885l-1.4414063-1.3857422l19.0146484-19.7919922c0.8173828-0.8510742,1.9179688-1.3198242,3.0986328-1.3198242     s2.28125,0.46875,3.0986328,1.3198242l19.0146523,19.7919922L70.6721878,45.4598885z"/>
		</g>
		<circle fill="#FCD462" cx="50" cy="25.607111" r="3.1071005"/>
		<path fill="#64798A" d="M74.482666,39.7794075h-48.965332c-1.6665039,0-3.017334,1.3509521-3.017334,3.017334v31.6859169    c0,1.6664429,1.3508301,3.017334,3.017334,3.017334h48.965332c1.6665039,0,3.017334-1.3508911,3.017334-3.017334V42.7967415    C77.5,41.1303596,76.1491699,39.7794075,74.482666,39.7794075z"/>
		<polygon fill="#FCD462" points="25.5166035,74.4999313 25.5000019,42.7968025 74.4824219,42.7792244 74.5,74.4828415     74.4824219,74.4999313   "/>
		<polygon fill="#F6C358" points="39.2481689,74.4999313 59.0371475,42.7968025 74.4824219,42.7792244 74.5,74.4828415     74.4824219,74.4999313   "/>
		<g>
			<path fill="#E56353" d="M37.6112404,62.6219711c-1.0904465,1.0653191-2.4384308,1.5979843-4.0439529,1.5979843     c-1.6055183,0-2.9535027-0.5326653-4.0439491-1.5979843c-1.0917034-1.0646935-1.6369267-2.3925781-1.6369267-3.9823952     c0-1.5904427,0.5452232-2.9176979,1.6369267-3.9830208c1.0904465-1.0653229,2.4384308-1.5973549,4.0439491-1.5973549     c1.6055222,0,2.9535065,0.532032,4.0439529,1.5973549c1.0917015,1.0653229,1.6369286,2.3925781,1.6369286,3.9830208     C39.2481689,60.229393,38.7029419,61.5572777,37.6112404,62.6219711z M36.2770767,55.8682327     c-0.7361794-0.7613029-1.6394424-1.1419525-2.7097893-1.1419525c-1.070343,0-1.9736061,0.3806496-2.7097836,1.1419525     c-0.7349224,0.7619324-1.1030102,1.6852951-1.1030102,2.7713432c0,1.0860519,0.3680878,2.0094147,1.1030102,2.7707176     c0.7361774,0.7619286,1.6394405,1.1425819,2.7097836,1.1425819c1.0703468,0,1.9736099-0.3806534,2.7097893-1.1425819     c0.7349205-0.7613029,1.1030083-1.6846657,1.1030083-2.7707176     C37.380085,57.5535278,37.0119972,56.6301651,36.2770767,55.8682327z"/>
			<path fill="#E56353" d="M48.8348045,54.26334c0.751255,0.6275101,1.1268806,1.594841,1.1268806,2.9019966     s-0.3831635,2.2638092-1.1507492,2.8712196c-0.7663269,0.6074066-1.9421997,0.9107971-3.5263634,0.9107971h-1.914566v3.1645622     h-1.8215981V53.3211327h3.7047539C46.8900909,53.3211327,48.0835533,53.6352043,48.8348045,54.26334z M47.5458679,58.7168388     c0.3655739-0.3863068,0.5477333-0.9522591,0.5477333-1.6984863c0-0.7455978-0.2311516-1.2732353-0.6947174-1.5822792     c-0.4635658-0.3084145-1.1884384-0.4629364-2.1771278-0.4629364h-1.8517494v4.322216h2.1143112     C46.4931068,59.2953529,47.1802902,59.1025124,47.5458679,58.7168388z"/>
			<path fill="#E56353" d="M59.686512,53.3211327v1.713562h-5.7575073v2.8561401h5.1708298v1.6205978h-5.1708298v2.8869209     h5.9434395v1.713562h-7.7650414V53.3211327H59.686512z"/>
			<path fill="#E56353" d="M70.2919922,53.3211327h1.8216019v10.7907829h-1.9761276l-6.1130371-7.8730812v7.8730812h-1.8215942     V53.3211327h1.8215942l6.2675629,8.0583801V53.3211327z"/>
		</g>
	</g>
</g>
</svg>
