<?xml version="1.0" encoding="utf-8"?>
<!-- Generator: Adobe Illustrator 21.0.2, SVG Export Plug-In . SVG Version: 6.00 Build 0)  -->
<svg xmlns="http://www.w3.org/2000/svg" xmlns:xlink="http://www.w3.org/1999/xlink" version="1.1" id="Layer_1" x="0px" y="0px" viewBox="0 0 100 100" enable-background="new 0 0 100 100" xml:space="preserve" width="512" height="512">
<g>
	<circle fill="#EA8953" cx="50" cy="50" r="48"/>
	<path opacity="0.1" d="M76.8900146,23.3599854C76.4400024,22.8299561,75.7700195,22.5,75.0200195,22.5H24.9799805   c-1.1999512,0-2.1999512,0.8499756-2.4299927,1.9799805C22.5200195,24.6400146,22.5,24.8099976,22.5,24.9799805v50.039978   c0,0.6800537,0.2800293,1.3000488,0.7299805,1.75l20.854126,20.854126C46.0241089,97.8627319,47.9954834,98,50,98   c26.5097046,0,48-21.4904175,48-48c0-1.9992065-0.1365967-3.9654541-0.3739624-5.9005127L76.9299927,23.4099731   L76.8900146,23.3599854z"/>
	<g>
		<path fill="#EBF0F3" d="M77.5003052,24.9788818v50.039978c0,1.3699951-1.1099854,2.4799805-2.4799805,2.4799805H24.9802856    c-1.369873,0-2.4799805-1.1099854-2.4799805-2.4799805v-50.039978c0-1.3699951,1.1101074-2.4800415,2.4799805-2.4800415    h50.0400391C76.3903198,22.4988403,77.5003052,23.6088867,77.5003052,24.9788818z"/>
		<path fill="#64798A" d="M77.4996948,24.9824829c0-1.3704224-1.1109619-2.4813232-2.4813232-2.4813232H24.9810181    c-1.3703613,0-2.4813232,1.1109009-2.4813232,2.4813232v4.8773193h55V24.9824829z"/>
		<circle fill="#EBF0F3" cx="62.4298058" cy="26.180481" r="1.8022318"/>
		<circle fill="#FCD462" cx="67.7214661" cy="26.180481" r="1.8022318"/>
		<circle fill="#E56353" cx="73.0131226" cy="26.180481" r="1.8022318"/>
		<path fill="#E1E6E9" d="M22.4996948,29.8598022v45.1600342c0,1.3703613,1.1109619,2.4813232,2.4813232,2.4813232h13.9541016    V29.8598022H22.4996948z"/>
		<g>
			<rect x="24.9180298" y="33.7770996" fill="#D5D6DB" width="11.1796875" height="1.2001953"/>
		</g>
		<g>
			<rect x="24.9180298" y="38.3873558" fill="#D5D6DB" width="11.1796875" height="1.2001953"/>
		</g>
		<g>
			<rect x="24.9180298" y="42.997612" fill="#D5D6DB" width="11.1796875" height="1.2001953"/>
		</g>
		<g>
			<rect x="24.9180298" y="47.6078682" fill="#D5D6DB" width="11.1796875" height="1.2001953"/>
		</g>
		<g>
			<rect x="24.9180298" y="52.2181206" fill="#D5D6DB" width="11.1796875" height="1.2001953"/>
		</g>
		<rect x="43.1345787" y="34.3771973" fill="#FFFFFF" width="12.5077667" height="13.7749128"/>
		<rect x="43.1345787" y="48.1521111" fill="#E56353" width="12.5077667" height="3.6566589"/>
		<rect x="61.3378448" y="34.3771973" fill="#FFFFFF" width="12.5077667" height="13.7749128"/>
		<rect x="61.3378448" y="48.1521111" fill="#E56353" width="12.5077667" height="3.6566589"/>
		<rect x="43.1345787" y="56.7124939" fill="#FFFFFF" width="12.5077667" height="13.7749128"/>
		<rect x="43.1345787" y="70.4874039" fill="#E56353" width="12.5077667" height="3.6566589"/>
		<rect x="61.3378448" y="56.7124939" fill="#FFFFFF" width="12.5077667" height="13.7749128"/>
		<rect x="61.3378448" y="70.4874039" fill="#E56353" width="12.5077667" height="3.6566589"/>
		<g>
			<polygon fill="#2D93BA" points="49.8342667,37.2523918 48.9426537,36.1378746 47.6052322,36.1378746 46.7136192,37.2523918      47.6052322,38.8127136 48.9426537,38.8127136    "/>
			<polygon fill="#27A2DB" points="48.9426537,38.8127136 47.6052322,38.8127136 46.490715,44.8311081 48.273941,46.3914337      50.0571709,44.8311081    "/>
			<polyline fill="#1C75A1" points="49.1685791,40.1650734 51.8404007,41.9333649 52.2862053,42.8249779 51.3945923,43.0478821      49.4379921,41.4875565    "/>
		</g>
		<g>
			<path fill="#3A556A" d="M72.1488647,40.6950111c-0.8071747-0.5381126-1.1543579-1.5498962-0.8475647-2.470211l0.3918533-1.175499     l-1.5950012-0.9114265c0,0-0.6835709,2.402092-2.506424,2.9621391v7.29142h4.5571365V40.6950111z"/>
			<path fill="#64798A" d="M65.0853043,36.1378746l-1.5950012,0.9114265l0.3917961,1.175499     c0.306797,0.9203148-0.040329,1.9320984-0.8475075,2.470211v5.6964226h4.5571365v-7.29142     C65.7688751,38.5399666,65.0853043,36.1378746,65.0853043,36.1378746z"/>
			<g>
				<rect x="69.1867828" y="43.4292793" fill="#2F4859" width="2.2785687" height="0.4557138"/>
			</g>
			<g>
				<rect x="63.7182159" y="43.4292793" fill="#2F4859" width="2.2785687" height="0.4557138"/>
			</g>
			<g>
				<rect x="68.2753525" y="40.011425" fill="#2F4859" width="0.4557138" height="0.4557138"/>
			</g>
			<g>
				<rect x="68.2753525" y="41.6064262" fill="#2F4859" width="0.4557138" height="0.4557138"/>
			</g>
			<g>
				<rect x="68.2753525" y="43.2014236" fill="#2F4859" width="0.4557138" height="0.4557138"/>
			</g>
			<g>
				<rect x="68.2753525" y="44.7964211" fill="#2F4859" width="0.4557138" height="0.4557138"/>
			</g>
		</g>
		<g>
			<path fill="#E56353" d="M46.5166168,59.904438h-0.8219337c-0.2266769,0-0.4104195,0.1837425-0.4104195,0.4104195v7.5927658     c0,0.2266617,0.1837425,0.4104233,0.4104195,0.4104233h7.3875542c0.2266769,0,0.4104195-0.1837616,0.4104195-0.4104233     v-7.5927658c0-0.2266769-0.1837425-0.4104195-0.4104195-0.4104195h-0.8199196"/>
			<g>
				<rect x="49.1832123" y="60.7256393" fill="#CE412D" width="0.4104197" height="7.5923634"/>
			</g>
			<g>
				<rect x="50.4144707" y="63.1877556" fill="#CE412D" width="2.2573082" height="0.4104197"/>
			</g>
			<g>
				<rect x="48.3623734" y="62.7773361" fill="#CE412D" width="0.4104197" height="0.4104197"/>
			</g>
			<g>
				<rect x="48.3623734" y="64.2138062" fill="#CE412D" width="0.4104197" height="0.4104197"/>
			</g>
			<g>
				<rect x="48.3623734" y="65.6502762" fill="#CE412D" width="0.4104197" height="0.4104197"/>
			</g>
			<rect x="48.3623734" y="67.0867462" fill="#CE412D" width="0.4104197" height="0.4104197"/>
			<polygon fill="#CE412D" points="47.5457039,58.8818588 51.2479439,58.8895912 49.3894882,60.7256432    "/>
			<path fill="#D15241" d="M49.3894882,60.7256432l-1.0256844,1.0256844l-1.8472519-1.8472519l1.0087776-1.0087814     c0.0093384-0.0093346,0.0244751-0.0093346,0.0338135,0L49.3894882,60.7256432z"/>
			<path fill="#D15241" d="M49.3894882,60.7256432l1.0256844,1.0256844l1.8472557-1.8472519l-0.971096-0.9710999     c-0.0301476-0.0301476-0.0790291-0.0301476-0.1091766,0L49.3894882,60.7256432z"/>
		</g>
		<g>
			<g>
				<path fill="#DC8744" d="M70.145195,65.1669464l-0.4083939-0.124939c0.3526993-1.1537247,0.8628693-2.5331268,1.331749-3.5999794      c0.8182297-1.8627739,1.1158676-1.9487038,1.3488464-1.8769569c0.2415237,0.0738373,0.4313278,0.3574982,0.187088,1.9197159      c-0.1539307,0.9839439-0.4430084,2.2045174-0.7927856,3.3487549l-0.4083939-0.124939      c0.6889191-2.2536354,0.9583969-4.1363258,0.8764267-4.6526527      C71.8632126,60.5477676,70.8403702,62.8931808,70.145195,65.1669464z"/>
			</g>
			<g>
				<path fill="#DC8744" d="M65.0380554,65.1669464c-0.6951752-2.2737656-1.7178116-4.6192818-2.1343346-5.1109962      c-0.08218,0.5163269,0.1872978,2.3991203,0.8762169,4.6526527l-0.4083862,0.124939      c-0.3497772-1.1441307-0.6386528-2.3647041-0.7925797-3.3487549c-0.2442398-1.5622177-0.0544395-1.8458786,0.1870918-1.9197159      c0.2327652-0.0711212,0.5306091,0.01408,1.3488426,1.8769569c0.4686661,1.0667496,0.9788361,2.4461517,1.3315353,3.5999794      L65.0380554,65.1669464z"/>
			</g>
			<g>
				<path fill="#DC8744" d="M71.6909332,60.0664711l-0.1388626,0.0918388      c-0.0255966,0.0149498-2.5608139,1.6872826-3.0349503,3.395916c-0.113205,0.4100723-0.4933853,0.6962624-0.9247894,0.6962624      c-0.4314346,0-0.8137283-0.28619-0.9269333-0.6962624c-0.4741364-1.7107735-3.0093498-3.3809662-3.0349541-3.395916      l-0.1388588-0.0918388l0.5339508-1.5997086l0.1730118,0.0170784c2.537323,0.2819252,4.2502365,0.2819252,6.7875595,0      l0.1708755-0.0170784L71.6909332,60.0664711z"/>
			</g>
			<g>
				<path fill="#FCD462" d="M72.6376495,66.3487244c-0.128067-0.6964264-0.440094-1.5322876-0.9323273-1.7896652      c-0.8038406-0.4206924-2.5337524,0.6699371-3.8425522,1.6584702l0.1287384,0.1705017l0.0006256,0.2493973      c0.2630157,0.2671204,0.2637482,0.750473,0.0025864,1.0191956l0.0005417,0.2176514l-0.115387,0.1798553      c0.0911407,0.0583954,0.1808319,0.1001129,0.2744827,0.1275406c0.9784164,0.2865829,2.1209869,0.5513611,3.0013733,0.5513611      c0.554184,0,1.0044937-0.1049118,1.2443542-0.3754272C72.7707138,67.939827,72.7657089,67.0458832,72.6376495,66.3487244z"/>
				<path fill="#FCD462" d="M67.1881409,67.874321l0.0002594-0.1037216      c-0.4649658-0.2446213-0.4634552-1.0034485,0.0030975-1.2459412l0.0003433-0.1366959l-0.0000534-0.0000381l0.1286926-0.1703949      c-1.3085938-0.9888458-3.0366287-2.079689-3.842556-1.6584702c-0.4920273,0.2573776-0.8040504,1.0932388-0.9321175,1.7896652      c-0.1280632,0.6971588-0.1330681,1.5911026,0.2375679,2.0088806c0.2398605,0.2706223,0.6899605,0.3755341,1.2443504,0.3755341      c0.8801804-0.0001068,2.0229568-0.2649918,3.0011673-0.5514679c0.0928116-0.0272217,0.1852112-0.0701828,0.2746887-0.1276474      l-0.1155472-0.1796646L67.1881409,67.874321z"/>
			</g>
			<g>
				<path fill="#DC8744" d="M67.5916214,68.3081665c-0.4790955,0-0.8543167-0.5160065-0.8543167-1.1746826      s0.3752213-1.1746902,0.8543167-1.1746902s0.8543167,0.5160141,0.8543167,1.1746902      S68.0707169,68.3081665,67.5916214,68.3081665z M67.5916214,66.3859558c-0.2021027,0-0.4271545,0.3070221-0.4271545,0.7475281      s0.2250519,0.7475281,0.4271545,0.7475281c0.2021103,0,0.4271622-0.3070221,0.4271622-0.7475281      S67.7937317,66.3859558,67.5916214,66.3859558z"/>
			</g>
		</g>
	</g>
</g>
</svg>
