<?xml version="1.0" encoding="utf-8"?>
<!-- Generator: Adobe Illustrator 21.0.2, SVG Export Plug-In . SVG Version: 6.00 Build 0)  -->
<svg xmlns="http://www.w3.org/2000/svg" xmlns:xlink="http://www.w3.org/1999/xlink" version="1.1" id="Layer_1" x="0px" y="0px" viewBox="0 0 100 100" enable-background="new 0 0 100 100" xml:space="preserve" width="512" height="512">
<g>
	<circle fill="#E05B49" cx="50" cy="50" r="48"/>
	<path opacity="0.1" d="M98,49.9999771c0-1.7440186-0.0986328-3.4647217-0.2799683-5.1607666l-20.960022-20.9599609   c-0.3400269-0.2900391-0.7800293-0.460083-1.2600098-0.460083h-51c-1.0999756,0-2,0.9000244-2,2v38.6600342   c0,0.5300293,0.2000122,1.0100098,0.539978,1.3599854l0.0500488,0.0499268l32.2128296,32.2128906   C79.3161621,95.0616226,98,74.7166519,98,49.9999771z"/>
	<g>
		<rect x="42.5532379" y="65.4297714" fill="#E1E6E9" width="14.893527" height="7.7805567"/>
		<path fill="#3A556A" d="M77.5,25.4207973c0-1.1046143-0.8953857-2-2-2h-51c-1.1044922,0-2,0.8953857-2,2v32.267334h55V25.4207973z    "/>
		<rect x="25.5002441" y="26.4209805" fill="#64798A" width="49" height="31.2671509"/>
		<path fill="#EBF0F3" d="M22.5,57.6881294v6.3894081c0,1.1045532,0.8955078,2,2,2h51c1.1046143,0,2-0.8954468,2-2v-6.3894081H22.5z    "/>
		<circle fill="#E1E6E9" cx="50" cy="61.8828316" r="2.1389639"/>
		<rect x="38.0705795" y="74.9860916" fill="#E1E6E9" width="23.8588428" height="1.59311"/>
		<polygon fill="#D5D6DB" points="57.4467773,72.6744003 42.5532227,72.6744003 38.0705566,74.9861069 61.9294434,74.9861069   "/>
		<g>
			<g>
				<rect x="30.8278847" y="29.7997112" fill="#FCD462" width="24.5096874" height="24.5096874"/>
				<g>
					<path fill="#E56353" d="M30.8278885,34.4785309v1.4886093c0,0.9668732,0.7837696,1.7506981,1.7506447,1.7506981l0,0       c0.9669838,0,1.7507553-0.7838249,1.7507553-1.7506981v-1.4886093H30.8278885z"/>
					<path fill="#EBF0F3" d="M34.3292885,34.4785309v1.4886093c0,0.9668732,0.7837677,1.7506981,1.7506447,1.7506981       c0.9668732,0,1.7507553-0.7838249,1.7507553-1.7506981v-1.4886093H34.3292885z"/>
					<path fill="#E56353" d="M37.8306885,34.4785309v1.4886093c0,0.9668732,0.7837677,1.7506981,1.7506447,1.7506981       c0.9668732,0,1.7507515-0.7838249,1.7507515-1.7506981v-1.4886093H37.8306885z"/>
					<path fill="#EBF0F3" d="M41.3320847,34.4785309v1.4886093c0,0.9668732,0.7837715,1.7506981,1.7506485,1.7506981       c0.9668732,0,1.7506447-0.7838249,1.7506447-1.7506981v-1.4886093H41.3320847z"/>
					<path fill="#E56353" d="M44.8333778,34.4785309v1.4886093c0,0.9668732,0.7838783,1.7506981,1.7507515,1.7506981       c0.966877,0,1.7506485-0.7838249,1.7506485-1.7506981v-1.4886093H44.8333778z"/>
					<path fill="#EBF0F3" d="M48.3347778,34.4785309v1.4886093c0,0.9668732,0.7838783,1.7506981,1.7507515,1.7506981       c0.966877,0,1.7506485-0.7838249,1.7506485-1.7506981v-1.4886093H48.3347778z"/>
					<path fill="#E56353" d="M51.8361778,34.4785309v1.4886093c0,0.9668732,0.7837677,1.7506981,1.7507515,1.7506981       c0.9667664,0,1.7506447-0.7838249,1.7506447-1.7506981v-1.4886093H51.8361778z"/>
					<rect x="30.8278809" y="29.7997112" fill="#D15241" width="3.501384" height="4.6788244"/>
					<rect x="34.3292656" y="29.7997112" fill="#E1E6E9" width="3.501384" height="4.6788244"/>
					<rect x="37.8306503" y="29.7997112" fill="#D15241" width="3.501384" height="4.6788244"/>
					<rect x="41.3320313" y="29.7997112" fill="#E1E6E9" width="3.501384" height="4.6788244"/>
					<rect x="44.833416" y="29.7997112" fill="#D15241" width="3.501384" height="4.6788244"/>
					<rect x="48.3348007" y="29.7997112" fill="#E1E6E9" width="3.501384" height="4.6788244"/>
					<rect x="51.8361855" y="29.7997112" fill="#D15241" width="3.501384" height="4.6788244"/>
				</g>
				<g>
					<path fill="#DC8744" d="M36.3290749,39.3206787c-2.1650505,0-3.9202652,1.7551613-3.9202652,3.9202652V54.309391h7.840641       V43.2409439C40.2494507,41.07584,38.494236,39.3206787,36.3290749,39.3206787z"/>
					<circle fill="#EBF0F3" cx="38.8519249" cy="47.706295" r="0.5384704"/>
				</g>
				<rect x="42.3779297" y="42.7331696" fill="#DC8744" width="11.2089481" height="8.5777035"/>
				<rect x="43.2691269" y="43.6244545" fill="#EBF0F3" width="4.2676535" height="6.7952151"/>
				<rect x="48.4280396" y="43.6244545" fill="#EBF0F3" width="4.2676535" height="6.7952151"/>
				<g>
					<polygon fill="#E1E6E9" points="51.5825539,43.6244545 49.4487267,50.4196701 49.9401398,50.4196701 52.0739632,43.6244545             "/>
					<polygon fill="#E1E6E9" points="51.1835976,43.6244545 49.0497704,50.4196701 49.1982155,50.4196701 51.3320389,43.6244545             "/>
				</g>
				<g>
					<polygon fill="#E1E6E9" points="46.4236412,43.6244545 44.289814,50.4196701 44.7812233,50.4196701 46.9150505,43.6244545             "/>
					<polygon fill="#E1E6E9" points="46.0246811,43.6244545 43.8908539,50.4196701 44.039299,50.4196701 46.1731262,43.6244545             "/>
				</g>
			</g>
			<g>
				
					<ellipse transform="matrix(0.7071068 -0.7071068 0.7071068 0.7071068 -10.9569569 50.249527)" opacity="0.52" fill="#FFFFFF" cx="55.1780663" cy="38.3509789" rx="5.2413945" ry="5.2413945"/>
				<path opacity="0.67" fill="#EBF0F3" d="M51.4718437,42.0571899c-2.0468979-2.046875-2.0468979-5.3655548,0-7.4124489      c2.0468941-2.046875,5.365551-2.046875,7.4124489,0c1.400074,1.4000511,1.8412132,3.3948174,1.3260155,5.1709061      c0.6322174-1.9362831,0.1841774-4.148262-1.3547516-5.6871681c-2.1814957-2.1815205-5.7184525-2.1815205-7.8999519,0      c-2.1815453,2.1815453-2.1815453,5.7184792,0,7.9000206c1.538929,1.5389557,3.7510071,1.9870186,5.6873589,1.3546829      C54.8667793,43.8984489,52.8719673,43.4572868,51.4718437,42.0571899z"/>
				<path fill="#27A2DB" d="M62.2018738,43.8673782l-1.6368561-1.6368256      c2.0215988-2.7496033,1.7967606-6.6336403-0.6904984-9.1209564c-2.7442932-2.7442665-7.1935883-2.7442665-9.9378815,0      c-2.7441864,2.7442398-2.7441864,7.1935349,0,9.9377747c2.4873695,2.487339,6.3712997,2.7121506,9.1209564,0.6905785      l1.6368523,1.6368294L62.2018738,43.8673782z M50.9555931,42.0284958c-2.1815567-2.1815567-2.1815567-5.7184677,0-7.9000244      c2.1815033-2.1815319,5.7184677-2.1815319,7.899971,0c2.1815567,2.1815567,2.1815567,5.7184677,0,7.9000244      C56.6740608,44.2100258,53.1370964,44.2100258,50.9555931,42.0284958z"/>
				<path fill="#EBF0F3" d="M59.7232513,45.6318321l6.6776123,6.6776085      c0.3799591,0.3799591,3.1156006-2.3556824,2.7356415-2.7356415l-6.6776123-6.6776085      C61.990593,42.427887,59.2549515,45.1635284,59.7232513,45.6318321z"/>
				
					<rect x="60.3828087" y="44.9964638" transform="matrix(0.7071068 -0.7071068 0.7071068 0.7071068 -13.9140987 57.3886681)" fill="#E56353" width="3.8687806" height="0.9873446"/>
			</g>
		</g>
	</g>
</g>
</svg>
