<?xml version="1.0" encoding="utf-8"?>
<!-- Generator: Adobe Illustrator 21.0.2, SVG Export Plug-In . SVG Version: 6.00 Build 0)  -->
<svg xmlns="http://www.w3.org/2000/svg" xmlns:xlink="http://www.w3.org/1999/xlink" version="1.1" id="Layer_1" x="0px" y="0px" viewBox="0 0 100 100" enable-background="new 0 0 100 100" xml:space="preserve" width="512" height="512">
<g>
	<circle fill="#EFC84A" cx="50" cy="50" r="48"/>
	<path opacity="0.1" d="M98,50c0-1.7477417-0.0991821-3.4719238-0.281311-5.1713257L76.9699707,24.0799561   C76.6099854,23.6799927,76.0800171,23.4199829,75.5,23.4199829h-51c-1.0999756,0-2,0.9000244-2,2v40.6599731   c0,0.4800415,0.1799927,0.9200439,0.460022,1.2600098c0.0899658,0.1000366,0.1799927,0.1900024,0.2799683,0.2800293   l30.2407227,30.2407227C78.3636475,96.0755005,98,75.3378296,98,50z"/>
	<g>
		<rect x="42.5531158" y="67.4297714" fill="#E1E6E9" width="14.893527" height="5.7805567"/>
		<path fill="#3A556A" d="M77.5001221,25.4207973c0-1.1046143-0.8953857-2-2-2h-51c-1.1044922,0-2,0.8953857-2,2v34.267334h55    V25.4207973z"/>
		<rect x="25.5001221" y="26.4209805" fill="#64798A" width="49" height="33.2671509"/>
		<path fill="#EBF0F3" d="M22.4998779,59.6881332v6.3894043c0,1.1045532,0.8955078,2,2,2h51c1.1046143,0,2-0.8954468,2-2v-6.3894043    H22.4998779z"/>
		<circle fill="#E1E6E9" cx="49.9998779" cy="63.8828354" r="2.1389639"/>
		<rect x="38.0704575" y="74.9860916" fill="#E1E6E9" width="23.8588428" height="1.59311"/>
		<polygon fill="#D5D6DB" points="57.4466553,72.6744003 42.5531006,72.6744003 38.0704346,74.9861069 61.9293213,74.9861069   "/>
		<g>
			<g>
				<path fill="#FFFFFF" d="M54.8185501,42.7365494c-0.7398033,0-1.3717804,0.4600296-1.6318016,1.1082382h-3.935833      c-0.2600174-0.6482086-0.892292-1.1082382-1.6329765-1.1082382c-0.7398071,0-1.3717842,0.4600296-1.6318016,1.1082382      h-0.6681175c-0.481842,0-0.8743668-0.3919373-0.8743668-0.8737793s0.3925247-0.8737831,0.8743668-0.8737831h11.6053619      l1.6171112-8.9898949H44.1977348l-0.4603958-2.2264671h-2.2775879v1.203434h1.297451l1.8499527,8.9428101      c-0.7951889,0.2917519-1.3669357,1.0492592-1.3669357,1.9439011c0,1.145256,0.9319534,2.0772133,2.0778008,2.0772133h0.6362381      c0.2325478,0.7005806,0.8862686,1.2104836,1.663681,1.2104836c0.7782936,0,1.4323082-0.509903,1.664856-1.2104836h3.8720779      c0.2325478,0.7005806,0.8862648,1.2104836,1.6636772,1.2104836c0.7782936,0,1.4323082-0.509903,1.664856-1.2104836h0.9594269      v-1.203434h-0.9913025C56.1915092,43.196579,55.5592384,42.7365494,54.8185501,42.7365494z M57.1020164,34.3107643      l-1.1846275,6.5830307H45.8075027l-1.3609123-6.5830307H57.1020164z M47.617939,45.0552711      c-0.306736,0-0.5570564-0.2503242-0.5570564-0.5576439c0-0.3073235,0.2503204-0.5576439,0.5570564-0.5576439      c0.3079071,0,0.5582314,0.2503204,0.5582314,0.5576439C48.1761703,44.8049469,47.9258461,45.0552711,47.617939,45.0552711z       M54.8185501,45.0552711c-0.3067322,0-0.5570564-0.2503242-0.5570564-0.5576439      c0-0.3073235,0.2503242-0.5576439,0.5570564-0.5576439c0.3079109,0,0.5582352,0.2503204,0.5582352,0.5576439      C55.3767853,44.8049469,55.126461,45.0552711,54.8185501,45.0552711z"/>
				<rect x="46.4908943" y="35.8038864" fill="#FFFFFF" width="1.2034321" height="3.6661193"/>
				<rect x="48.8448753" y="35.8038864" fill="#FFFFFF" width="1.2034321" height="3.6661193"/>
				<rect x="51.1988525" y="35.8038864" fill="#FFFFFF" width="1.2034321" height="3.6661193"/>
				<rect x="53.5540085" y="35.8038864" fill="#FFFFFF" width="1.2034321" height="3.6661193"/>
			</g>
			<g>
				<path fill="#FCD462" d="M54.3509521,51.0571671h-8.7019043c-1.1517334,0-2.0854492,0.9337158-2.0854492,2.0855103v0.000061      c0,1.1517944,0.9337158,2.0855103,2.0854492,2.0855103h8.7019043c1.1518555,0,2.0856934-0.9337158,2.0856934-2.0855103      v-0.000061C56.4366455,51.9908829,55.5028076,51.0571671,54.3509521,51.0571671z"/>
				<g>
					<path fill="#DC8744" d="M47.1478386,54.5555573h-1.2495117v-2.8542747h1.1106033       c0.193409,0,0.3602333,0.0229301,0.500473,0.0694542c0.139904,0.0461922,0.2442513,0.1086655,0.3123779,0.1877594       c0.1306,0.1468849,0.1957359,0.3130417,0.1957359,0.4981422c0,0.22332-0.0707855,0.3894768-0.2123528,0.4981461       c-0.0515099,0.0382156-0.0870667,0.0621414-0.1060104,0.0714455c-0.01894,0.0096397-0.0531693,0.0252571-0.1020203,0.0468597       c0.1767921,0.0382156,0.3176956,0.1179733,0.4227066,0.2389336c0.1046829,0.1212959,0.1571884,0.2715034,0.1571884,0.4512901       c0,0.1987228-0.0681267,0.3745193-0.2043762,0.526722C47.8121414,54.4671593,47.5369835,54.5555573,47.1478386,54.5555573z        M46.380188,52.8853302h0.6124611c0.3485985,0,0.5227356-0.1183052,0.5227356-0.3552475       c0-0.1359177-0.0422058-0.2339516-0.1266136-0.2941017c-0.0844078-0.0598183-0.2150116-0.0897255-0.3921356-0.0897255       H46.380188V52.8853302z M46.380188,54.1105843h0.7553558c0.1771278,0,0.3123779-0.027916,0.4064255-0.083744       c0.0937119-0.0558281,0.1409035-0.1615067,0.1409035-0.3167c0-0.2528915-0.2030487-0.3795052-0.6084747-0.3795052H46.380188       V54.1105843z"/>
					<path fill="#DC8744" d="M49.4222221,53.9022217c0.1306,0.1525345,0.3077278,0.2286339,0.531044,0.2286339       c0.2229843,0,0.4001083-0.0760994,0.5307121-0.2286339c0.1306-0.1525345,0.1960678-0.3592377,0.1960678-0.6207695v-1.5801697       h0.4818573v1.6007729c0,0.4110756-0.1129875,0.7274437-0.3389626,0.9494324       c-0.225975,0.221653-0.5160904,0.3326492-0.8696747,0.3326492c-0.35392,0-0.6440315-0.1109962-0.8700066-0.3326492       c-0.2259789-0.2219887-0.3389664-0.5383568-0.3389664-0.9494324v-1.6007729h0.4818611v1.5801697       C49.2261543,53.542984,49.2916222,53.7496872,49.4222221,53.9022217z"/>
					<path fill="#DC8744" d="M53.0401649,54.5555573h-0.4898376V53.428669l-1.0617523-1.7273865h0.526722l0.7799492,1.2983627       l0.7799492-1.2983627h0.5267258l-1.0617561,1.7273865V54.5555573z"/>
				</g>
			</g>
		</g>
	</g>
</g>
</svg>
