<?xml version="1.0" encoding="utf-8"?>
<!-- Generator: Adobe Illustrator 21.0.2, SVG Export Plug-In . SVG Version: 6.00 Build 0)  -->
<svg xmlns="http://www.w3.org/2000/svg" xmlns:xlink="http://www.w3.org/1999/xlink" version="1.1" id="Layer_1" x="0px" y="0px" viewBox="0 0 100 100" enable-background="new 0 0 100 100" xml:space="preserve" width="512" height="512">
<g>
	<circle fill="#334D5C" cx="50" cy="50" r="48"/>
	<path opacity="0.1" d="M96.979187,59.8714371L60.4199829,23.319191l-0.039978-0.0500488l-0.4500122-0.4499512   c-0.2999878-0.1999512-0.6599731-0.3200684-1.0499878-0.3200684H29.3699951C28.3400269,22.4991226,27.5,23.3292007,27.5,24.35923   v3.75h-0.0700073L22.5,34.7190933v2.4500732c0,1.1199951,0.5100098,2.1199951,1.3099976,2.7800293l0.0499878,0.039917   L27.5,43.6292496v32.0100098c0,0.4199219,0.1400146,0.8099365,0.3800049,1.119873L49.0979614,97.97715   C49.3991699,97.9827652,49.6974487,97.9999771,50,97.9999771C73.1254272,97.9999771,92.4268799,81.6446304,96.979187,59.8714371z"/>
	<g>
		<path fill="#64798A" d="M58.8790207,22.4999981H29.3652267c-1.0289307,0-1.8630371,0.8341675-1.8630371,1.8630981v51.2738037    c0,1.0289917,0.8341064,1.8630981,1.8630371,1.8630981h29.5137939c1.0290527,0,1.8631592-0.8341064,1.8631592-1.8630981    V24.3630962C60.7421799,23.3341656,59.9080734,22.4999981,58.8790207,22.4999981z"/>
		<rect x="27.5021896" y="28.1060543" fill="#64798A" width="33.2399902" height="40.6397057"/>
		<rect x="29.1416492" y="28.1060543" fill="#EBF0F3" width="29.961071" height="40.6397057"/>
		<path fill="#3A556A" d="M49.6926956,24.5566158H38.5516739c-0.475399,0-0.8609085,0.385458-0.8609085,0.8609085    c0,0.4754982,0.3855095,0.8609066,0.8609085,0.8609066h11.1410217c0.4754982,0,0.8609047-0.3854084,0.8609047-0.8609066    C50.5536003,24.9420738,50.1681938,24.5566158,49.6926956,24.5566158z"/>
		<circle fill="#3A556A" cx="35.7000504" cy="25.4175243" r="0.8609078"/>
		<path fill="#3A556A" d="M44.1221848,76.2200317c-1.7246094,0-3.1269531-1.402832-3.1269531-3.1269531    s1.4023438-3.1269531,3.1269531-3.1269531s3.1269531,1.402832,3.1269531,3.1269531S45.8467941,76.2200317,44.1221848,76.2200317z     M44.1221848,71.4661255c-0.8974609,0-1.6269531,0.7299805-1.6269531,1.6269531s0.7294922,1.6269531,1.6269531,1.6269531    s1.6269531-0.7299805,1.6269531-1.6269531S45.0196457,71.4661255,44.1221848,71.4661255z"/>
		<path fill="#CE412D" d="M22.5000019,34.7232819v2.4427414c0,1.9902725,1.6134243,3.6036987,3.6036606,3.6036987    c1.9903088,0,3.6037331-1.6134262,3.6037331-3.6036987v-2.4427414H22.5000019z"/>
		<path fill="#F6C358" d="M29.7073956,34.7232819v2.4427414c0,1.9902725,1.6134243,3.6036987,3.6036625,3.6036987    c1.9903069,0,3.6037331-1.6134262,3.6037331-3.6036987v-2.4427414H29.7073956z"/>
		<path fill="#CE412D" d="M36.9147911,34.7232819v2.4427414c0,1.9902725,1.6134224,3.6036987,3.6036606,3.6036987    c1.9903107,0,3.6037331-1.6134262,3.6037331-3.6036987v-2.4427414H36.9147911z"/>
		<path fill="#F6C358" d="M44.1221848,34.7232819v2.4427414c0,1.9902725,1.6134224,3.6036987,3.6036606,3.6036987    c1.9903107,0,3.6037331-1.6134262,3.6037331-3.6036987v-2.4427414H44.1221848z"/>
		<path fill="#CE412D" d="M51.3295784,34.7232819v2.4427414c0,1.9902725,1.6134262,3.6036987,3.6036606,3.6036987    c1.9903107,0,3.6037369-1.6134262,3.6037369-3.6036987v-2.4427414H51.3295784z"/>
		<path fill="#F6C358" d="M58.5369759,34.7232819v2.4427414c0,1.9902725,1.6134224,3.6036987,3.6036606,3.6036987    c1.9903069,0,3.6037331-1.6134262,3.6037331-3.6036987v-2.4427414H58.5369759z"/>
		<polygon fill="#E56353" points="32.9925499,28.1060543 27.4277325,28.1060543 22.5,34.7232857 29.7073936,34.7232857   "/>
		<polygon fill="#FCD462" points="38.5573654,28.1060543 32.9925499,28.1060543 29.7073936,34.7232857 36.9147873,34.7232857   "/>
		<polygon fill="#E56353" points="44.1221848,28.1060543 38.5573654,28.1060543 36.9147873,34.7232857 44.1221848,34.7232857   "/>
		<polygon fill="#FCD462" points="49.6870003,28.1060543 44.1221848,28.1060543 44.1221848,34.7232857 51.3295784,34.7232857   "/>
		<polygon fill="#E56353" points="55.2518158,28.1060543 49.6870003,28.1060543 51.3295784,34.7232857 58.536972,34.7232857   "/>
		<path fill="#E1E6E9" d="M41.9478226,44.9044495c-0.6789551,0-1.229248,0.550354-1.229248,1.2293091v19.9718628    c0,0.678894,0.550293,1.2293091,1.229248,1.2293091h17.1549072v-22.430481H41.9478226z"/>
		<polygon fill="#FCD462" points="60.8166351,28.1060543 55.2518158,28.1060543 58.536972,34.7232857 65.7443695,34.7232857   "/>
		<g>
			<g>
				<path fill="#FCD462" d="M76.2707291,42.9044762H43.9478722c-0.6789398,0-1.2293472,0.5503693-1.2293472,1.2293091v19.9718285      c0,0.6789398,0.5504074,1.2293091,1.2293472,1.2293091h32.3228569c0.6788635,0,1.2292709-0.5503693,1.2292709-1.2293091      V44.1337852C77.5,43.4548454,76.9495926,42.9044762,76.2707291,42.9044762z"/>
			</g>
			<g>
				<rect x="42.7185249" y="45.9026871" fill="#3A556A" width="34.7814751" height="3.3282325"/>
			</g>
			<g>
				<rect x="44.9902496" y="51.8831177" fill="#64798A" width="9.3277597" height="1.264781"/>
			</g>
			<g>
				<rect x="44.9902496" y="55.4739723" fill="#64798A" width="11.5608883" height="1.264781"/>
			</g>
			<g>
				<rect x="44.9902496" y="59.2402153" fill="#64798A" width="13.6630926" height="1.264781"/>
			</g>
			<g>
				<path fill="#E56353" d="M69.7029037,59.1459579c0.421051,2.2212906-1.4902496,4.1325912-3.7115402,3.7115364      c-1.2339325-0.2338943-2.2433052-1.2432671-2.4771996-2.4771996c-0.4210548-2.2212906,1.4902458-4.1325912,3.7115364-3.7115364      C68.4596329,56.9026527,69.4690018,57.9120255,69.7029037,59.1459579z"/>
			</g>
			<g>
				<path fill="#44C4A1" d="M75.20858,59.1459579c0.421051,2.2212906-1.4902496,4.1325912-3.7115402,3.7115364      c-1.2339325-0.2338943-2.2433014-1.2432671-2.4772034-2.4771996c-0.421051-2.2212906,1.4902496-4.1325912,3.7115402-3.7115364      C73.9653091,56.9026527,74.974678,57.9120255,75.20858,59.1459579z"/>
			</g>
		</g>
		<rect x="59.1027298" y="65.3349228" fill="#3A556A" width="1.6394482" height="2.0000072"/>
	</g>
</g>
</svg>
