<?xml version="1.0" encoding="utf-8"?>
<!-- Generator: Adobe Illustrator 21.0.2, SVG Export Plug-In . SVG Version: 6.00 Build 0)  -->
<svg xmlns="http://www.w3.org/2000/svg" xmlns:xlink="http://www.w3.org/1999/xlink" version="1.1" id="Layer_1" x="0px" y="0px" viewBox="0 0 100 100" enable-background="new 0 0 100 100" xml:space="preserve" width="512" height="512">
<g>
	<circle fill="#EA8953" cx="50" cy="50" r="48"/>
	<path opacity="0.1" d="M66.8200073,29.4091568l-7.6799927-3.8800049l-1.5800171-0.7900391l-0.039978-0.0200195H42.4799805   l-0.039978,0.0200195l-2.289978,1.1501465l-6.9700317,3.5198975L22.789978,35.7691422l7.25,12.2299805l3.1400146,3.1401367   v24.1499023l22.3861694,22.3793945c21.8621826-2.5263672,39.2385254-19.7346191,42.027771-41.5155029L77.210022,35.7691422   L66.8200073,29.4091568z"/>
	<g>
		<polygon fill="#27A2DB" points="57.5203819,24.71488 42.4794426,24.71488 33.1814651,29.4133587 33.1814651,75.2851334     66.8185349,75.2851334 66.8185349,29.4133587   "/>
		<polyline fill="#3A556A" points="33.1814651,29.4133587 22.7894058,35.7701416 30.0364304,48.0000076 33.1814651,45.8580551   "/>
		<polyline fill="#3A556A" points="66.8185349,29.4133587 77.2105942,35.7701416 69.9635696,48.0000076 66.8185349,45.8580551   "/>
		<g>
			<polygon fill="#D15241" points="51.9120789,41.8620415 53.9102478,37.8171577 52.5975761,35.1600609 47.4023132,35.1600609      46.089756,37.8171577 48.0878105,41.8620415    "/>
			<polygon fill="#E56353" points="53.796093,65.408844 50,69.1100311 46.2039108,65.408844 48.1036377,41.8620415      51.8963661,41.8620415    "/>
		</g>
		<path fill="#FFFFFF" d="M44.6846466,40.8150215c0.2831306-2.2085037,5.3122749-5.6496277,5.3122749-5.6496277    c-3.2815666-2.4270248-7.0281563-9.4146614-7.5611458-10.4284477l-2.2893677,1.1568584    C39.9889946,30.4042339,44.6846466,40.8150215,44.6846466,40.8150215z"/>
		<path fill="#FFFFFF" d="M50.0030823,35.1653938c0,0,5.0291405,3.441124,5.3122749,5.6496277    c0,0,4.6956482-10.4106541,4.5382347-14.9211292L57.5642281,24.73699    C57.0312386,25.7510433,53.2846489,32.7384567,50.0030823,35.1653938z"/>
		<path fill="#2D93BA" d="M49.990406,35.1600418h0.0191917c3.2799835-2.431385,7.0219917-9.4095478,7.5546303-10.4230213    l-0.0438461-0.0221558H42.4794426l-0.0436668,0.0220661C42.9684105,25.7500496,46.710247,32.7285652,49.990406,35.1600418z"/>
	</g>
</g>
</svg>
