<?xml version="1.0" encoding="utf-8"?>
<!-- Generator: Adobe Illustrator 21.0.2, SVG Export Plug-In . SVG Version: 6.00 Build 0)  -->
<svg xmlns="http://www.w3.org/2000/svg" xmlns:xlink="http://www.w3.org/1999/xlink" version="1.1" id="Layer_1" x="0px" y="0px" viewBox="0 0 100 100" enable-background="new 0 0 100 100" xml:space="preserve" width="512" height="512">
<g>
	<circle fill="#45B39C" cx="50" cy="50" r="48"/>
	<path opacity="0.1" d="M36.75,37.8492203c-0.1599731-0.1800537-0.3599854-0.3300781-0.6099854-0.4100342   c-0.7200317-0.25-1.4899902,0.1500244-1.7300415,0.8699951c-0.1499634,0.4599609-0.289978,0.9199219-0.4199829,1.3900146   c-0.1599731,0.5699463,0.0599976,1.1700439,0.5200195,1.5L56.5,63.1891861   c-0.1500244,0.3499756-0.1500244,0.7399902,0.0100098,1.1099854c0,0.0100098,0.0100098,0.0100098,0.0100098,0.0200195   L35.2999878,43.0992203c-0.1900024-0.1600342-0.4099731-0.2700195-0.6699829-0.3100586   c-0.7399902-0.1199951-1.4500122,0.3900146-1.5700073,1.1400146c-0.0700073,0.4799805-0.1400146,0.960083-0.1900024,1.4400635   c-0.0700073,0.5699463,0.2200317,1.0899658,0.6799927,1.3598633l17.7300415,17.7301025   c-0.0100098,0.0198975-0.0200195,0.039917-0.0200195,0.0599365l-0.1199951-0.1199951h-0.460022L35.0999756,48.8292007   l-0.2099609-0.2099609L34.8800049,48.60923c-0.2399902-0.2000732-0.5499878-0.3100586-0.8699951-0.3000488   c-0.7600098,0.0300293-1.3500366,0.6599121-1.3200073,1.4299316c0.0100098,0.5,0.039978,0.9899902,0.0800171,1.460083   c0.039978,0.3699951,0.2099609,0.6999512,0.4699707,0.9200439L33.25,52.1292496l1.6500244,1.6499023   c-0.1300049,0-0.2600098,0.0200195-0.3900146,0.0600586c-0.7200317,0.2299805-1.1199951,1-0.9000244,1.7299805   c0.1500244,0.4899902,0.3200073,0.9699707,0.5,1.4199219c0.0800171,0.1800537,0.1799927,0.3400879,0.3200073,0.4700928v0.0098877   l1.8699951,1.8701172c-0.289978,0.4799805-0.2600098,1.1199951,0.1099854,1.5799561   c0.3300171,0.4000244,0.6700439,0.7700195,1.0300293,1.1300049l7.2600098,7.2600098   c-0.1799927,0.4199219-0.2800293,0.8800049-0.2800293,1.3699951c0,2.5,5.9800415,6.8199463,5.9800415,6.8199463   l17.168457,17.168457c5.9389648-2.3378906,11.2972412-5.8215332,15.8048096-10.1850586L36.75,37.85923V37.8492203z"/>
	<path opacity="0.1" d="M59.5100098,27.3692398c-0.2399902-0.2700195-0.5599976-0.4200439-0.8900146-0.4400635l-2.5-2.5   c-0.4400024-0.2800293-0.8800049-0.5300293-1.3300171-0.7600098c-0.6799927-0.3299561-1.5-0.0499268-1.8299561,0.6300049   c-0.0500488,0.0900879-0.0800171,0.1899414-0.1000366,0.2900391l-1.6199951-1.6201172l-0.1400146-0.1398926l-0.0299683-0.0300293   c-0.2200317-0.1799316-0.5-0.2900391-0.8099976-0.3000488h-0.2700195c-0.4400024,0-0.8800049,0.0300293-1.3200073,0.0900879   C47.9299927,22.6891861,47.4000244,23.3792496,47.5,24.1392593c0.0200195,0.1899414,0.0800171,0.3598633,0.1699829,0.5098877   c0.1199951,0.210083,0.2900391,0.3800049,0.5,0.5L64.960022,41.9391861   c-0.3500366,0.1199951-0.6199951,0.3800049-0.7800293,0.7099609l-18-18   c-0.3900146-0.6600342-1.2299805-0.8699951-1.8699951-0.4899902c-0.4299927,0.2600098-0.8499756,0.5400391-1.2700195,0.8499756   c-0.5999756,0.4500732-0.7299805,1.3200684-0.2799683,1.9300537l21.8300171,21.8299561   c-0.0100098,0.0300293-0.0100098,0.0600586-0.0100098,0.0900879c0,0.4399414-0.0100098,0.8798828-0.0300293,1.3099365   c-0.0100098,0.2600098,0.0400391,0.5100098,0.1600342,0.7200928L41.9699707,28.1591568l-0.2099609-0.2199707   c-0.5800171-0.4899902-1.4400024-0.4100342-1.9299927,0.1700439c-0.3099976,0.369873-0.6100464,0.7600098-0.9000244,1.1599121   c-0.4500122,0.6101074-0.3200073,1.4799805,0.289978,1.9300537l24.3300171,24.3299561   c-0.0599976,0.4599609,0.1199951,0.9100342,0.460022,1.1899414L64,56.7291031l23.3779297,23.3721924   c3.8392334-4.7613525,6.7866821-10.2684326,8.5906982-16.2734375L59.5100098,27.3692398z"/>
	<path opacity="0.1" d="M38.4899902,32.4091568c-0.6699829-0.3599854-1.5-0.0999756-1.8499756,0.5699463   C36.4199829,33.4091568,36.2000122,33.8392105,36,34.2791519c-0.3200073,0.6899414-0.0300293,1.5100098,0.6500244,1.8400879   l24.1599731,24.1599121C60.75,60.7190933,60.9000244,61.1691666,61.25,61.4891129l22.5687256,22.5687256   c1.0683594-1.0609131,2.0855713-2.1727295,3.0508423-3.3297119l-47.949585-47.9589844   C38.8099976,32.6192398,38.6599731,32.4991226,38.4899902,32.4091568z"/>
	<g>
		<g>
			<path fill="#FCD462" d="M48.3461571,66.6177216c-0.0333519,0-0.0680351-0.0013428-0.101387-0.0040436     c-0.4922562-0.0363998-0.9791756-0.0889816-1.4580917-0.1570663c-0.7470589-0.1065063-1.2673302-0.8048859-1.1619415-1.5598907     c0.1053886-0.7543259,0.7790756-1.2828255,1.5434723-1.1742935c0.4202194,0.0599937,0.8457756,0.105835,1.2766647,0.1381912     c0.7523956,0.0559502,1.3180237,0.717926,1.2619934,1.4783249     C49.6548386,66.0642776,49.0545273,66.6177216,48.3461571,66.6177216z M52.4629707,66.5408783     c-0.6856918,0-1.2766647-0.5204163-1.3567085-1.2255325c-0.0840416-0.7576981,0.4549065-1.441246,1.2046318-1.5268555     c0.4282227-0.0492096,0.8497734-0.1119041,1.2659912-0.1900978c0.7377205-0.1348228,1.4540939,0.3566017,1.5914993,1.1062126     c0.1374016,0.7496109-0.3535194,1.4702301-1.0952377,1.6090927c-0.4775848,0.0889893-0.9631691,0.1624603-1.4554291,0.2184143     C52.5656929,66.5381775,52.5136642,66.5408783,52.4629707,66.5408783z M42.9940338,65.4272461     c-0.1680908,0-0.3375092-0.0316772-0.5029297-0.0977402c-0.4682465-0.1874084-0.9231491-0.3943558-1.367382-0.6208572     c-0.672348-0.3437958-0.9431572-1.1736221-0.6029816-1.8544731c0.3401794-0.6801758,1.1632767-0.9531898,1.8356247-0.6100693     c0.3695259,0.1887512,0.7497253,0.3619957,1.1405945,0.5183907c0.7017021,0.2804298,1.044548,1.0826187,0.767067,1.7917786     C44.051918,65.0962601,43.5369835,65.4272461,42.9940338,65.4272461z M57.7550659,65.0976105     c-0.5162697,0-1.0111961-0.297287-1.2419815-0.8021927c-0.3161659-0.6923065-0.0173416-1.5120239,0.6683502-1.8315506     c0.3775291-0.1766167,0.7457199-0.3694115,1.1019058-0.5790596c0.6510086-0.3822212,1.487442-0.1611137,1.8689766,0.4968185     c0.3788643,0.6592789,0.1587486,1.5046082-0.4922562,1.8881798c-0.4308929,0.2541351-0.8764572,0.487381-1.3340302,0.7003937     C58.1405983,65.0571594,57.9458313,65.0976105,57.7550659,65.0976105z M38.3969688,62.4463387     c-0.3455162,0-0.6923637-0.1321259-0.9578362-0.3963737c-0.3588524-0.3559303-0.7003632-0.7327576-1.0245323-1.1311569     c-0.4789162-0.5891724-0.3948746-1.4587708,0.1880989-1.9434547c0.5829697-0.484684,1.4420853-0.3983994,1.9223366,0.1894226     c0.2628021,0.3228989,0.5402794,0.6282692,0.8297653,0.91679c0.5376129,0.5345688,0.5456161,1.408886,0.0160065,1.9522171     C39.1040039,62.3088226,38.7504845,62.4463387,38.3969688,62.4463387z M62.1600304,61.8409882     c-0.3255043,0-0.6510048-0.1166191-0.9124756-0.3532333c-0.5616264-0.5089493-0.6083183-1.3819199-0.1040535-1.9495201     c0.2708054-0.3046989,0.5269394-0.6275978,0.7683983-0.9666748c0.4415665-0.6188316,1.2953453-0.7583694,1.9076614-0.3121109     c0.6123238,0.4455872,0.7497292,1.308445,0.3094978,1.9272766c-0.3001595,0.4199715-0.6176567,0.818367-0.9524994,1.1958694     C62.9070854,61.6859436,62.5335579,61.8409882,62.1600304,61.8409882z M35.3780594,57.8495903     c-0.5362816,0-1.0458794-0.3228989-1.2633247-0.8561172c-0.1854324-0.4563713-0.3548546-0.9302711-0.5056-1.4223709     c-0.2241135-0.728035,0.1787605-1.501915,0.8991394-1.7277412c0.7230415-0.2264977,1.487442,0.1820107,1.7102242,0.9093742     c0.1267319,0.4112053,0.2668037,0.8082581,0.4228859,1.1904755c0.2868156,0.7044449-0.0453568,1.5113525-0.7430534,1.8018951     C35.7275734,57.8158875,35.5514832,57.8495903,35.3780594,57.8495903z M64.9027939,57.0689735     c-0.1480789,0-0.3001556-0.0249443-0.4482346-0.0768471c-0.7123718-0.2500954-1.089901-1.0367813-0.8417702-1.7567291     c0.1347351-0.3930054,0.2574654-0.8008423,0.3655243-1.2221603c0.1880989-0.7388229,0.935154-1.1817131,1.6648674-0.9909401     c0.7297134,0.1914482,1.1686096,0.9444275,0.9791794,1.6825752c-0.1267319,0.495472-0.270813,0.9734154-0.4295578,1.4351807     C65.9980316,56.7110214,65.4684219,57.0689735,64.9027939,57.0689735z M34.1320763,52.458744     c-0.6990318,0-1.2953415-0.5399628-1.359375-1.2572136c-0.0426903-0.4759216-0.0720406-0.9653244-0.0867119-1.4661865     c-0.0240135-0.7617455,0.5682945-1.3994522,1.3220215-1.4230461c0.7443886-0.0262871,1.3833885,0.5736694,1.407402,1.3367577     c0.0146751,0.4455872,0.0413551,0.8810616,0.0787086,1.3057518c0.0667,0.7590446-0.4869232,1.4304581-1.2379799,1.4985428     C34.2134514,52.4567223,34.1720963,52.458744,34.1320763,52.458744z M65.9126511,51.6255455     c-0.02668,0-0.0520248-0.0006752-0.0787048-0.0020218c-0.7537231-0.0431442-1.3286896-0.6956825-1.2860031-1.456749     c0.0240097-0.4260368,0.0346832-0.8635368,0.0346832-1.3104706c0-0.7624168,0.6109848-1.4264145,1.3660431-1.4264145     c0.7550659,0,1.3660507,0.5716438,1.3660507,1.3340645v0.09235c0,0.5008659-0.0133438,0.9895935-0.0400238,1.4668617     C67.233345,51.0579453,66.6316986,51.6255455,65.9126511,51.6255455z M34.2294617,46.9074554     c-0.0520287,0-0.1040573-0.002697-0.1574173-0.0087624c-0.7483902-0.0869598-1.2873383-0.7711792-1.2006264-1.5288773     c0.05336-0.4786186,0.1173935-0.9579086,0.1934357-1.4372025c0.1173935-0.7529793,0.8244286-1.2626038,1.562149-1.1480064     c0.7457199,0.1193161,1.2539864,0.826458,1.1352577,1.5794373c-0.0680351,0.4401932-0.1267319,0.8803864-0.1774254,1.3199043     C35.5061264,46.3883934,34.9151497,46.9074554,34.2294617,46.9074554z M65.6405106,45.9872971     c-0.6670151,0-1.2499847-0.4934464-1.3500366-1.1796875c-0.0640335-0.4401932-0.1360703-0.8810616-0.2174454-1.3212547     c-0.1374054-0.7496109,0.3521805-1.4702301,1.0939026-1.6097717c0.7430573-0.1348228,1.4554291,0.3552551,1.5928345,1.1055374     c0.0867081,0.4738998,0.1640854,0.9484711,0.2334518,1.4237175c0.1093903,0.7543297-0.4055405,1.4554024-1.1526031,1.5666313     C65.7739182,45.9825783,65.7058792,45.9872971,65.6405106,45.9872971z M35.307354,41.4586334     c-0.1253967,0-0.2521286-0.0175247-0.3775291-0.0539284c-0.7257118-0.2103195-1.1445961-0.9747581-0.9364891-1.7075157     c0.1307373-0.4651337,0.2708092-0.926899,0.4215546-1.3846207c0.2361221-0.7226448,1.0018539-1.1217155,1.7262344-0.8770142     c0.7163734,0.2393074,1.1045761,1.0199242,0.8671188,1.7439194c-0.1374054,0.4226646-0.2668076,0.8493767-0.3895378,1.2781105     C36.4479523,41.0636063,35.9009972,41.4586334,35.307354,41.4586334z M64.418541,40.5681381     c-0.5803032,0-1.1179161-0.376152-1.3020134-0.9646492c-0.1334-0.4260368-0.2734756-0.8487053-0.4228859-1.2666512     c-0.2547989-0.7172508,0.1133919-1.5079803,0.8230972-1.7661667c0.713707-0.2588577,1.4914474,0.1132507,1.748909,0.831852     c0.1600876,0.4516525,0.3108292,0.9080238,0.4549026,1.3677673c0.2281189,0.7266884-0.1707535,1.5025864-0.8897934,1.73246     C64.6933517,40.5472412,64.5546112,40.5681381,64.418541,40.5681381z M37.2310257,36.2511444     c-0.194767,0-0.3935394-0.042469-0.5829697-0.1328011c-0.6816902-0.325592-0.9725075-1.1486778-0.6510086-1.8376198     c0.2067757-0.4408646,0.4202194-0.8749924,0.6430054-1.3010292c0.3508492-0.6734352,1.1766129-0.9316177,1.8462944-0.5743408     c0.6670151,0.3559303,0.921814,1.1918259,0.5682983,1.8659325c-0.2041092,0.389637-0.3988762,0.7860107-0.5869751,1.1891289     C38.2342148,35.9592552,37.7432938,36.2511444,37.2310257,36.2511444z M62.3507957,35.4186211     c-0.4989281,0-0.9805107-0.2770615-1.2206345-0.7576981c-0.1987724-0.3963776-0.4055481-0.7866859-0.6189919-1.1689072     c-0.3721924-0.6633224-0.1400719-1.5059586,0.5162697-1.8814354c0.6550102-0.3748055,1.4901123-0.1415634,1.8609695,0.5224342     c0.2347908,0.4186211,0.4629097,0.8466797,0.6803551,1.2821541c0.3401794,0.6801758,0.0707054,1.5106773-0.6029816,1.8551483     C62.7683487,35.3707581,62.5575714,35.4186211,62.3507957,35.4186211z M40.027153,31.4696903     c-0.2814827,0-0.5669632-0.0876331-0.8110924-0.2703171c-0.605648-0.4536762-0.7350502-1.3178825-0.2854805-1.9306469     c0.2921524-0.4004211,0.5936432-0.7873592,0.9018021-1.1594677c0.4869232-0.5824299,1.346035-0.6613007,1.9250031-0.1705494     c0.5776367,0.4894028,0.6536751,1.3603516,0.1694221,1.9448032c-0.2734756,0.3289661-0.5402794,0.6714134-0.800415,1.0259933     C40.8595848,31.2762222,40.4460373,31.4696903,40.027153,31.4696903z M59.3972549,30.7355862     c-0.4002075,0-0.7964134-0.1766167-1.0658875-0.516367c-0.2721443-0.3424473-0.5522881-0.6720867-0.8377724-0.9875698     c-0.5095978-0.5622063-0.4722443-1.4351768,0.0840454-1.9501972c0.5562897-0.5143452,1.420742-0.4772682,1.9303398,0.0856133     c0.3255043,0.3586254,0.6430016,0.7341042,0.9524956,1.1237392c0.4735832,0.5945625,0.3788643,1.4634895-0.2094421,1.9407578     C59.9989014,30.6364918,59.6974106,30.7355862,59.3972549,30.7355862z M43.8571472,27.5005379     c-0.4188843,0-0.8310966-0.1934681-1.0992393-0.5595093c-0.4495659-0.6127663-0.3214989-1.4769726,0.2854843-1.9306488     c0.4135475-0.3094158,0.8337669-0.5925407,1.2619896-0.8480282c0.6483383-0.3869381,1.4861107-0.1705494,1.8716431,0.4860325     c0.3828659,0.6565819,0.168087,1.5032616-0.4815826,1.8908749c-0.3481827,0.2082996-0.6910286,0.4388447-1.0272026,0.6902866     C44.4241104,27.4122295,44.1386299,27.5005379,43.8571472,27.5005379z M55.3764915,26.9747334     c-0.2534637,0-0.5095978-0.0707817-0.7377167-0.219759c-0.3468475-0.225153-0.700367-0.4273853-1.0592194-0.6060238     c-0.6763535-0.3363819-0.9551659-1.1641865-0.6229935-1.8484077c0.3335075-0.6835461,1.1552696-0.963974,1.8289528-0.6296177     c0.4522362,0.2244797,0.8964691,0.4792919,1.3313637,0.7624187c0.6349983,0.4125538,0.8177605,1.2666492,0.4095459,1.9077263     C56.2649536,26.7509289,55.8260612,26.9747334,55.3764915,26.9747334z M48.8504219,25.3366489     c-0.6763535,0-1.2633286-0.5062561-1.3527069-1.2012615c-0.0987167-0.7563515,0.4282227-1.4493351,1.1766129-1.5484276     c0.4362297-0.0573006,0.8764572-0.0869617,1.319355-0.0869617l0.2641373,0.0040455     c0.7550621,0.0195484,1.3500404,0.6532116,1.3313637,1.4156284c-0.0200119,0.7624168-0.700367,1.353611-1.4007301,1.3441734     l-0.1947708-0.002697c-0.322834,0-0.645668,0.0215721-0.9645042,0.0640411     C48.9691505,25.3326035,48.9091187,25.3366489,48.8504219,25.3366489z"/>
		</g>
		<g>
			<path fill="#E56353" d="M52.9807777,67.2468109c-1.0405426,0-1.960022,0.4835892-2.5820122,1.2290649     c-0.6223259-0.7454758-1.5418053-1.2290649-2.5823479-1.2290649c-1.8733101,0-3.3921013,1.5347748-3.3921013,3.428009     c0,2.5015411,5.9744492,6.8251801,5.9744492,6.8251801s5.9737816-4.5398254,5.9737816-6.8251801     C56.3725471,68.7815857,54.8540878,67.2468109,52.9807777,67.2468109z"/>
			<polygon fill="#EBF0F3" points="50.711483,68.5969086 50.0853806,68.5969086 49.6584892,64.3976593 51.1383743,64.3976593    "/>
		</g>
	</g>
</g>
</svg>
