<?xml version="1.0" encoding="utf-8"?>
<!-- Generator: Adobe Illustrator 21.0.2, SVG Export Plug-In . SVG Version: 6.00 Build 0)  -->
<svg xmlns="http://www.w3.org/2000/svg" xmlns:xlink="http://www.w3.org/1999/xlink" version="1.1" id="Layer_1" x="0px" y="0px" viewBox="0 0 100 100" enable-background="new 0 0 100 100" xml:space="preserve" width="512" height="512">
<g>
	<circle fill="#45B39C" cx="50" cy="50" r="48"/>
	<path opacity="0.1" d="M77.289978,27.1799927c-0.2299805-0.3900146-0.6699829-0.6500244-1.1599731-0.6500244H23.8699951   c-0.7600098,0-1.3699951,0.6100464-1.3699951,1.3699951v35.6900024c0,0.4100342,0.1799927,0.7800293,0.460022,1.0200195   l0.0099487,0.0100098L55.960022,97.6184692C79.6550903,94.6816406,98,74.4898682,98,50   c0-0.7280884-0.0227661-1.4507446-0.0548706-2.1708984L77.2999878,27.1900024L77.289978,27.1799927z"/>
	<g>
		<rect x="44.7959938" y="64.4818497" fill="#3A556A" width="10.4080172" height="6.5483913"/>
		<path fill="#64798A" d="M60.6108398,70.03022H39.3891602c-0.5495605,0-0.9951172,0.4454346-0.9951172,0.994873v2.4489746    H61.605957v-2.4489746C61.605957,70.4756546,61.1604004,70.03022,60.6108398,70.03022z"/>
		<path fill="#64798A" d="M76.1292877,26.5259285H23.870718c-0.7570572,0-1.370718,0.6136818-1.370718,1.370718v35.6978149    c0,0.7570152,0.6136608,1.3707161,1.370718,1.3707161h52.2585678c0.7570496,0,1.3707123-0.6137009,1.3707123-1.3707161V27.8966465    C77.5,27.1396103,76.8863373,26.5259285,76.1292877,26.5259285z"/>
		<rect x="25.5" y="29.5258293" fill="#27A2DB" width="49" height="32.4394531"/>
		<rect x="25.5" y="60.7781372" fill="#2D93BA" width="49" height="1.187145"/>
		<g>
			<polygon fill="#FFFFFF" points="22.5,45.1064949 41.0805664,26.5259285 28.7512207,26.5259285 22.5,32.7773323    "/>
			<g>
				<path fill="#E56353" d="M26.7339592,38.8354111L22.6063881,34.70784l0.6967793-0.6967773l1.789278,1.7892799      l2.0490093-2.0490112l-1.7892799-1.789278l0.6967793-0.6967793l4.1275711,4.1275711l-0.6967773,0.6967773l-1.6888485-1.6888466      l-2.0490074,2.0490112l1.6888466,1.6888466L26.7339592,38.8354111z"/>
				<path fill="#E56353" d="M30.858408,27.5365486c0.7580452-0.0377216,1.457468,0.2647762,2.099226,0.9065323      c0.6415138,0.6415176,0.956749,1.3421402,0.9447327,2.1018696c-0.0117722,0.7599678-0.4154243,1.5374775-1.2102318,2.3322849      l-1.3700104,1.3700104l-4.1275711-4.1275711l1.4171047-1.4171028      C29.3516846,27.9625454,30.1008415,27.5737896,30.858408,27.5365486z M32.2726288,29.163166      c-0.9447365-0.9447365-1.958189-0.8760185-3.0408382,0.2066307l-0.6967793,0.6967793l2.8284397,2.8284397l0.7736645-0.7736664      c0.4997597-0.4997578,0.763813-1.0016785,0.7912025-1.5057602      C32.9559517,30.1117458,32.7373047,29.6278458,32.2726288,29.163166z"/>
			</g>
		</g>
	</g>
</g>
</svg>
