<?xml version="1.0" encoding="utf-8"?>
<!-- Generator: Adobe Illustrator 21.0.2, SVG Export Plug-In . SVG Version: 6.00 Build 0)  -->
<svg xmlns="http://www.w3.org/2000/svg" xmlns:xlink="http://www.w3.org/1999/xlink" version="1.1" id="Layer_1" x="0px" y="0px" viewBox="0 0 100 100" enable-background="new 0 0 100 100" xml:space="preserve" width="512" height="512">
<g>
	<circle fill="#EFC84A" cx="50" cy="50" r="48"/>
	<path opacity="0.1" d="M97.7872314,54.4471436L66.789978,23.4500122c-0.1237793-0.1680298-0.2766724-0.3125-0.4425659-0.442627   l-0.017395-0.017395l-0.0049438,0.0023804C65.9316406,22.6908569,65.4433594,22.5,64.9099731,22.5H35.0900269   c-1.2900391,0-2.3300171,1.039978-2.3300171,2.3299561v50.3400269c0,0.6400146,0.25,1.210022,0.6599731,1.6300049   l0.1799927,0.1699829l20.819397,20.8193359C77.390686,95.69104,95.6760254,77.4146729,97.7872314,54.4471436z"/>
	<g>
		<path fill="#64798A" d="M64.907959,22.5H35.092041c-1.2878418,0-2.3317871,1.0439453-2.3317871,2.3317261v50.3365479    c0,1.2877808,1.0439453,2.3317261,2.3317871,2.3317261h29.815918c1.2878418,0,2.3317871-1.0439453,2.3317871-2.3317261V24.8317261    C67.2397461,23.5439453,66.1958008,22.5,64.907959,22.5z"/>
		<rect x="34.4433098" y="28.0027542" fill="#27A2DB" width="31.1133823" height="41.1039391"/>
		<rect x="34.4433098" y="66.4577637" fill="#2D93BA" width="31.1133823" height="2.6489265"/>
		<g>
			<path fill="#2F4859" d="M55.9363174,24.7075481h-8.5075684c-0.4279785,0-0.7751465,0.3470459-0.7751465,0.7751465     s0.347168,0.7751465,0.7751465,0.7751465h8.5075684c0.4279785,0,0.7751465-0.3470459,0.7751465-0.7751465     S56.364296,24.7075481,55.9363174,24.7075481z"/>
			<circle fill="#2F4859" cx="44.0633774" cy="25.4823875" r="0.7748383"/>
		</g>
		<g>
			<path fill="#EBF0F3" d="M50,75.9680786c-1.4863281,0-2.6953125-1.2089844-2.6953125-2.6948242     c0-1.4863281,1.2089844-2.6953125,2.6953125-2.6953125s2.6953125,1.2089844,2.6953125,2.6953125     C52.6953125,74.7590942,51.4863281,75.9680786,50,75.9680786z M50,72.0779419     c-0.6591797,0-1.1953125,0.5361328-1.1953125,1.1953125c0,0.6586914,0.5361328,1.1948242,1.1953125,1.1948242     s1.1953125-0.5361328,1.1953125-1.1948242C51.1953125,72.6140747,50.6591797,72.0779419,50,72.0779419z"/>
		</g>
		<g>
			<g>
				<rect x="59.5302734" y="72.5232544" fill="#EBF0F3" width="2.6738281" height="1.5"/>
			</g>
			<g>
				<rect x="37.7958984" y="72.5232544" fill="#EBF0F3" width="2.6738281" height="1.5"/>
			</g>
		</g>
	</g>
</g>
</svg>
