<?xml version="1.0" encoding="utf-8"?>
<!-- Generator: Adobe Illustrator 21.0.2, SVG Export Plug-In . SVG Version: 6.00 Build 0)  -->
<svg xmlns="http://www.w3.org/2000/svg" xmlns:xlink="http://www.w3.org/1999/xlink" version="1.1" id="Layer_1" x="0px" y="0px" viewBox="0 0 100 100" enable-background="new 0 0 100 100" xml:space="preserve" width="512" height="512">
<g>
	<circle fill="#45B39C" cx="50" cy="50" r="48"/>
	<path opacity="0.1" d="M96.6552734,61.2751465l-21.5852051-21.585144l0.0100098,0.0299683   c-1.880127-2.2299805-4.7200928-3.9699707-8.1000977-4.8900146L55.2199707,23.0700073   C54.8800049,22.7199707,54.4099121,22.5,53.8800049,22.5H24.3599854C23.3300781,22.5,22.5,23.3299561,22.5,24.3599854v51.2800293   c0,0.5599976,0.25,1.0499878,0.6400146,1.3899536l20.5357666,20.5422363C45.746582,97.8449707,47.8546143,98,50,98   C72.6247559,98,91.5814209,82.3423462,96.6552734,61.2751465z"/>
	<g>
		<path fill="#64798A" d="M53.8768311,22.5H24.363039c-1.0289307,0-1.8630371,0.8341675-1.8630371,1.8630981v51.2738037    c0,1.0289917,0.8341064,1.8630981,1.8630371,1.8630981h29.513792c1.0290527,0,1.8631592-0.8341064,1.8631592-1.8630981V24.3630981    C55.7399902,23.3341675,54.9058838,22.5,53.8768311,22.5z"/>
		<rect x="22.5000019" y="28.1060562" fill="#E1E6E9" width="33.2399902" height="40.6397057"/>
		<rect x="24.1394615" y="28.1060562" fill="#FFFFFF" width="29.961071" height="40.6397057"/>
		<path fill="#3A556A" d="M44.690506,24.5566158H33.5494881c-0.4754028,0-0.8609085,0.385458-0.8609085,0.8609085    c0,0.4755001,0.3855057,0.8609085,0.8609085,0.8609085H44.690506c0.4754982,0,0.8609085-0.3854084,0.8609085-0.8609085    C45.5514145,24.9420738,45.1660042,24.5566158,44.690506,24.5566158z"/>
		<circle fill="#3A556A" cx="30.6978645" cy="25.4175243" r="0.8609078"/>
		<g>
			<path fill="#3A556A" d="M39.1199951,76.2200317c-1.7246094,0-3.1269531-1.402832-3.1269531-3.1269531     s1.4023438-3.1269531,3.1269531-3.1269531s3.1269531,1.402832,3.1269531,3.1269531S40.8446045,76.2200317,39.1199951,76.2200317z      M39.1199951,71.4661255c-0.8974609,0-1.6269531,0.7299805-1.6269531,1.6269531s0.7294922,1.6269531,1.6269531,1.6269531     s1.6269531-0.7299805,1.6269531-1.6269531S40.0174561,71.4661255,39.1199951,71.4661255z"/>
		</g>
		<path fill="#FCD462" d="M30.7441425,61.8619385h-4.0441895c-0.3815918,0-0.690918,0.3093872-0.690918,0.690979v4.0441895    c0,0.3815918,0.3093262,0.690918,0.690918,0.690918h4.0441895c0.3815918,0,0.69104-0.3093262,0.69104-0.690918v-4.0441895    C31.4351826,62.1713257,31.1257343,61.8619385,30.7441425,61.8619385z"/>
		<path fill="#44C4A1" d="M37.6761475,61.8619385H33.631958c-0.3815918,0-0.690918,0.3093872-0.690918,0.690979v4.0441895    c0,0.3815918,0.3093262,0.690918,0.690918,0.690918h4.0441895c0.3815918,0,0.690918-0.3093262,0.690918-0.690918v-4.0441895    C38.3670654,62.1713257,38.0577393,61.8619385,37.6761475,61.8619385z"/>
		<path fill="#DC8744" d="M30.7441425,35.2578125h-4.0441895c-0.3815918,0-0.690918,0.3093872-0.690918,0.690979v4.0441895    c0,0.3815918,0.3093262,0.690918,0.690918,0.690918h4.0441895c0.3815918,0,0.69104-0.3093262,0.69104-0.690918v-4.0441895    C31.4351826,35.5671997,31.1257343,35.2578125,30.7441425,35.2578125z"/>
		<path fill="#E56353" d="M37.6761475,35.2578125H33.631958c-0.3815918,0-0.690918,0.3093872-0.690918,0.690979v4.0441895    c0,0.3815918,0.3093262,0.690918,0.690918,0.690918h4.0441895c0.3815918,0,0.690918-0.3093262,0.690918-0.690918v-4.0441895    C38.3670654,35.5671997,38.0577393,35.2578125,37.6761475,35.2578125z"/>
		<path fill="#27A2DB" d="M44.6080322,61.8619385h-4.0441895c-0.3815918,0-0.690918,0.3093872-0.690918,0.690979v4.0441895    c0,0.3815918,0.3093262,0.690918,0.690918,0.690918h4.0441895c0.3815918,0,0.690918-0.3093262,0.690918-0.690918v-4.0441895    C45.2989502,62.1713257,44.989624,61.8619385,44.6080322,61.8619385z"/>
		<path fill="#3A556A" d="M51.5400391,61.8619385h-4.0441895c-0.3815918,0-0.69104,0.3093872-0.69104,0.690979v4.0441895    c0,0.3815918,0.3094482,0.690918,0.69104,0.690918h4.0441895c0.3815918,0,0.690918-0.3093262,0.690918-0.690918v-4.0441895    C52.230957,62.1713257,51.9216309,61.8619385,51.5400391,61.8619385z"/>
		<rect x="25.3561039" y="30.47369" fill="#EBF0F3" width="27.5277843" height="3.5888658"/>
		<rect x="48.1762276" y="30.47369" fill="#3A556A" width="4.7076616" height="3.5888658"/>
		<path fill="#FFFFFF" d="M50.8239937,31.3764839c-0.3267937-0.3267937-0.8587799-0.3267937-1.1855736,0    s-0.3267937,0.8587837,0,1.1855774c0.288475,0.288475,0.7295837,0.3069458,1.055584,0.0861816l0.7316437,0.7316437    l0.2161751-0.2161713l-0.7316437-0.7316437C51.1309433,32.1060677,51.1124725,31.6649609,50.8239937,31.3764839z     M50.6078224,32.3458862c-0.2077293,0.2077293-0.5455017,0.2077293-0.753231,0s-0.2077293-0.5454998,0-0.7532291    s0.5455017-0.2077293,0.753231,0S50.8155518,32.1381569,50.6078224,32.3458862z"/>
		<path fill="#3A556A" d="M61.3995361,34.0797729c-5.4133301,0-10.1914063,1.9788208-13.1103516,5.0032349l-8.0717773-1.5750122    l5.4411621,5.9695435c-0.2319336,0.8031616-0.3596191,1.6347656-0.3596191,2.4890137    c0,6.5648804,7.2084961,11.8867798,16.1005859,11.8867798S77.5,52.5314331,77.5,45.9665527    S70.291626,34.0797729,61.3995361,34.0797729z"/>
		<g>
			<polygon fill="#FFFFFF" points="56.8847847,49.1928749 69.1417923,49.1928749 71.1877136,40.533371 55.0310287,40.533371      54.4665718,37.8963661 52.230957,37.8963661 52.230957,38.7386284 53.7624931,38.7386284 56.5648232,51.8298798      68.4617767,51.8298798 68.4617767,50.9876175 57.2689018,50.9876175    "/>
			<circle fill="#FFFFFF" cx="58.0058556" cy="54.09161" r="1.2231408"/>
			<circle fill="#FFFFFF" cx="65.9810257" cy="54.09161" r="1.2231408"/>
		</g>
	</g>
</g>
</svg>
