<?xml version="1.0" encoding="utf-8"?>
<!-- Generator: Adobe Illustrator 21.0.2, SVG Export Plug-In . SVG Version: 6.00 Build 0)  -->
<svg xmlns="http://www.w3.org/2000/svg" xmlns:xlink="http://www.w3.org/1999/xlink" version="1.1" id="Layer_1" x="0px" y="0px" viewBox="0 0 100 100" enable-background="new 0 0 100 100" xml:space="preserve" width="512" height="512">
<g>
	<circle fill="#45B39C" cx="50" cy="50" r="48"/>
	<path opacity="0.1" d="M64.7600098,22.5H35.2399902c-1.0299683,0-1.8599854,0.8299561-1.8599854,1.8599854v5.9099731   l-3.2399902,4.0800171v2.3699951c0,0.6199951,0.2299805,1.1700439,0.5999756,1.6000366l-0.0100098,0.0099487l0.0500488,0.0500488   c0.0599976,0.0700073,0.1199951,0.1300049,0.1899414,0.1900024l2.4100342,2.4099731v34.6600342   c0,0.4499512,0.1599731,0.8499756,0.4199829,1.1699829v0.0100098l0.0700073,0.0799561   c0.039978,0.0300293,0.0800171,0.0700073,0.1099854,0.1100464l20.7619629,20.7548218   C77.4647827,95.5360107,95.5357666,77.46521,97.7647705,54.7424316L66.1300049,23.0999756   C65.789978,22.7299805,65.2999878,22.5,64.7600098,22.5z"/>
	<g>
		<path fill="#2F4859" d="M64.7568359,22.5H35.243042c-1.0289307,0-1.8630371,0.8341675-1.8630371,1.8630981v51.2738037    c0,1.0289917,0.8341064,1.8630981,1.8630371,1.8630981h29.5137939c1.0290527,0,1.8631592-0.8341064,1.8631592-1.8630981    V24.3630981C66.6199951,23.3341675,65.7858887,22.5,64.7568359,22.5z"/>
		<rect x="33.3800049" y="28.1060562" fill="#64798A" width="33.2399902" height="40.6397057"/>
		<rect x="35.0194664" y="28.1060562" fill="#FFFFFF" width="29.961071" height="40.6397057"/>
		<g>
			<path fill="#3A556A" d="M50,76.2200317c-1.7246094,0-3.1269531-1.402832-3.1269531-3.1269531     S48.2753906,69.9661255,50,69.9661255s3.1269531,1.402832,3.1269531,3.1269531S51.7246094,76.2200317,50,76.2200317z      M50,71.4661255c-0.8974609,0-1.6269531,0.7299805-1.6269531,1.6269531S49.1025391,74.7200317,50,74.7200317     s1.6269531-0.7299805,1.6269531-1.6269531S50.8974609,71.4661255,50,71.4661255z"/>
		</g>
		<path fill="#3A556A" d="M55.5705109,24.5566158H44.429493c-0.4754028,0-0.8609085,0.385458-0.8609085,0.8609085    c0,0.4755001,0.3855057,0.8609085,0.8609085,0.8609085h11.1410179c0.4754982,0,0.8609085-0.3854084,0.8609085-0.8609085    C56.4314194,24.9420738,56.0460091,24.5566158,55.5705109,24.5566158z"/>
		<circle fill="#3A556A" cx="41.5778694" cy="25.4175243" r="0.8609078"/>
		<g>
			<path fill="#E1E6E9" d="M64.8947754,34.345726v2.3783379c0,1.3710403,1.1114807,2.4824791,2.4824295,2.4824791     c1.3710403,0,2.4824371-1.1114388,2.4824371-2.4824791V34.345726H64.8947754z"/>
			<path fill="#D15241" d="M59.9298897,34.345726v2.3783379c0,1.3710403,1.1114845,2.4824791,2.4824371,2.4824791     c1.3710403,0,2.4824333-1.1114388,2.4824333-2.4824791V34.345726H59.9298897z"/>
			<path fill="#E1E6E9" d="M54.9649658,34.345726v2.3783379c0,1.3710403,1.1114807,2.4824791,2.4824333,2.4824791     c1.3710403,0,2.4824333-1.1114388,2.4824333-2.4824791V34.345726H54.9649658z"/>
			<path fill="#D15241" d="M50.0000381,34.345726v2.3783379c0,1.3710403,1.1114845,2.4824791,2.4824371,2.4824791     c1.3710403,0,2.4824333-1.1114388,2.4824333-2.4824791V34.345726H50.0000381z"/>
			<path fill="#E1E6E9" d="M45.0351143,34.345726v2.3783379c0,1.3710403,1.1114807,2.4824791,2.4824333,2.4824791     c1.3710403,0,2.4824333-1.1114388,2.4824333-2.4824791V34.345726H45.0351143z"/>
			<path fill="#D15241" d="M40.0701866,34.345726v2.3783379c0,1.3710403,1.1114845,2.4824791,2.4824371,2.4824791     c1.3710403,0,2.4824333-1.1114388,2.4824333-2.4824791V34.345726H40.0701866z"/>
			<path fill="#E1E6E9" d="M35.1052628,34.345726v2.3783379c0,1.3710403,1.1114807,2.4824791,2.4824333,2.4824791     c1.3710403,0,2.4824333-1.1114388,2.4824333-2.4824791V34.345726H35.1052628z"/>
			<path fill="#D15241" d="M30.1403351,34.345726v2.3783379c0,1.3710403,1.1114826,2.4824791,2.4824371,2.4824791     c1.3710403,0,2.4824333-1.1114388,2.4824333-2.4824791V34.345726H30.1403351z"/>
			<polygon fill="#E56353" points="38.8289986,28.1060562 35.1053162,28.1060562 30.1404114,34.3457375 35.1053162,34.3457375         "/>
			<polygon fill="#EBF0F3" points="42.5526772,28.1060562 38.8289986,28.1060562 35.1053162,34.3457375 40.0702248,34.3457375         "/>
			<polygon fill="#E56353" points="46.2763596,28.1060562 42.5526772,28.1060562 40.0702248,34.3457375 45.0351334,34.3457375         "/>
			<polygon fill="#EBF0F3" points="50.0000381,28.1060562 46.2763596,28.1060562 45.0351334,34.3457375 50.0000381,34.3457375         "/>
			<polygon fill="#E56353" points="53.7237206,28.1060562 50.0000381,28.1060562 50.0000381,34.3457375 54.9649467,34.3457375         "/>
			<polygon fill="#EBF0F3" points="57.4473991,28.1060562 53.7237206,28.1060562 54.9649467,34.3457375 59.9298515,34.3457375         "/>
			<polygon fill="#E56353" points="61.1710777,28.1060562 57.4473991,28.1060562 59.9298515,34.3457375 64.8947601,34.3457375         "/>
			<polygon fill="#EBF0F3" points="64.8947601,28.1060562 61.1710777,28.1060562 64.8947601,34.3457375 69.8596649,34.3457375         "/>
		</g>
		<g>
			<g>
				<polygon fill="#DC8744" points="58.6960831,50.9629936 41.3039246,50.9629936 41.3803139,51.9236946 58.6196938,51.9236946           "/>
				<path fill="#F6C358" d="M58.5306625,51.246563H41.4693413c-0.926609,0-1.6777725-0.7511635-1.6777725-1.6777725v-0.0000038      c0-0.926609,0.7511635-1.6777725,1.6777725-1.6777725h17.0613213c0.926609,0,1.6777725,0.7511635,1.6777725,1.6777725v0.0000038      C60.2084351,50.4953995,59.4572716,51.246563,58.5306625,51.246563z"/>
				<path fill="#FCD462" d="M41.3803139,51.9236946l0.7221451,9.08078c0.054203,0.681385,0.6229553,1.2066994,1.3064651,1.2066994      h13.1821594c0.6835136,0,1.2522659-0.5253143,1.306469-1.2066994l0.7221413-9.08078H41.3803139z"/>
			</g>
			<g>
				<path fill="#F6C358" d="M45.1527443,53.461277c-0.2590866,0-0.4691048,0.2100143-0.4691048,0.4690819v6.4630318      c0,0.2590637,0.2100182,0.4690819,0.4691048,0.4690819c0.2590675,0,0.4690819-0.2100182,0.4690819-0.4690819v-6.4630318      C45.6218262,53.6712914,45.4118118,53.461277,45.1527443,53.461277z"/>
				<path fill="#F6C358" d="M47.5763779,53.461277c-0.2590866,0-0.4691048,0.2100143-0.4691048,0.4690819v6.4630318      c0,0.2590637,0.2100182,0.4690819,0.4691048,0.4690819c0.2590675,0,0.4690819-0.2100182,0.4690819-0.4690819v-6.4630318      C48.0454597,53.6712914,47.8354454,53.461277,47.5763779,53.461277z"/>
				<path fill="#F6C358" d="M50.0000114,53.461277c-0.2590866,0-0.4691048,0.2100143-0.4691048,0.4690819v6.4630318      c0,0.2590637,0.2100182,0.4690819,0.4691048,0.4690819c0.2590675,0,0.4690857-0.2100182,0.4690857-0.4690819v-6.4630318      C50.4690971,53.6712914,50.259079,53.461277,50.0000114,53.461277z"/>
				<path fill="#F6C358" d="M52.423645,53.461277c-0.2590866,0-0.4691048,0.2100143-0.4691048,0.4690819v6.4630318      c0,0.2590637,0.2100182,0.4690819,0.4691048,0.4690819c0.2590675,0,0.4690857-0.2100182,0.4690857-0.4690819v-6.4630318      C52.8927307,53.6712914,52.6827126,53.461277,52.423645,53.461277z"/>
				<path fill="#F6C358" d="M54.8472786,53.461277c-0.2590866,0-0.4691048,0.2100143-0.4691048,0.4690819v6.4630318      c0,0.2590637,0.2100182,0.4690819,0.4691048,0.4690819c0.2590675,0,0.4690857-0.2100182,0.4690857-0.4690819v-6.4630318      C55.3163643,53.6712914,55.1063461,53.461277,54.8472786,53.461277z"/>
			</g>
			<path fill="#EFB652" d="M47.599575,49.1292419l-1.1804428-1.2382393h-2.7724266l2.5004501,2.6228905     c0.3823624,0.4010544,1.0174446,0.4162331,1.4184761,0.0338936v-0.0000229     C47.966713,50.1654243,47.9819374,49.5303192,47.599575,49.1292419z"/>
			<path fill="#EFB652" d="M52.400425,49.1292419l1.1804428-1.2382393h2.7724266l-2.5004501,2.6228905     c-0.3823624,0.4010544-1.0174446,0.4162331-1.4184761,0.0338936v-0.0000229     C52.033287,50.1654243,52.0180626,49.5303192,52.400425,49.1292419z"/>
			<g>
				<path fill="#DC8744" d="M52.3098526,49.2389107l4.151207-5.8208351      c0.3217621-0.4511528,0.9483223-0.5560341,1.3994484-0.2342873l0.0000458,0.0000114      c0.4511223,0.3217278,0.5560265,0.9482841,0.2342606,1.3994331l-4.151207,5.8208351      c-0.3217621,0.451149-0.9482765,0.5560455-1.3994026,0.2343216l-0.0000458-0.0000343      C52.0930367,50.3166275,51.9880905,49.6900597,52.3098526,49.2389107z"/>
				<circle fill="#C67239" cx="53.2092934" cy="49.6769295" r="0.6389754"/>
			</g>
			<g>
				<path fill="#DC8744" d="M47.6901512,49.2389107l-4.151207-5.8208351      c-0.3217659-0.4511528-0.9483223-0.5560341-1.3994522-0.2342873l-0.000042,0.0000114      c-0.4511223,0.3217278-0.5560265,0.9482841-0.2342644,1.3994331l4.151207,5.8208351      c0.3217659,0.451149,0.9482803,0.5560455,1.3994026,0.2343216l0.0000496-0.0000343      C47.9069672,50.3166275,48.0119133,49.6900597,47.6901512,49.2389107z"/>
				<circle fill="#C67239" cx="46.7907104" cy="49.6769295" r="0.6389754"/>
			</g>
		</g>
	</g>
</g>
</svg>
