<?xml version="1.0" encoding="utf-8"?>
<!-- Generator: Adobe Illustrator 21.0.2, SVG Export Plug-In . SVG Version: 6.00 Build 0)  -->
<svg xmlns="http://www.w3.org/2000/svg" xmlns:xlink="http://www.w3.org/1999/xlink" version="1.1" id="Layer_1" x="0px" y="0px" viewBox="0 0 100 100" enable-background="new 0 0 100 100" xml:space="preserve" width="512" height="512">
<g>
	<circle fill="#45B39C" cx="50" cy="50" r="48"/>
	<path opacity="0.1" d="M97.7653809,54.7352905l-31.675293-31.675293C65.75,22.7099609,65.2800293,22.5,64.7600098,22.5H35.2399902   c-1.0300293,0-1.8599854,0.8299561-1.8599854,1.8599854v51.2800293c0,0.5499878,0.2399902,1.0299683,0.6099854,1.3699951   l20.7546387,20.7545776C77.4685059,95.5343628,95.5393066,77.4604492,97.7653809,54.7352905z"/>
	<g>
		<path fill="#64798A" d="M64.7568359,22.5H35.243042c-1.0289307,0-1.8630371,0.8341675-1.8630371,1.8630981v51.2738037    c0,1.0289917,0.8341064,1.8630981,1.8630371,1.8630981h29.5137939c1.0290527,0,1.8631592-0.8341064,1.8631592-1.8630981    V24.3630981C66.6199951,23.3341675,65.7858887,22.5,64.7568359,22.5z"/>
		<rect x="33.3800049" y="28.1060562" fill="#E1E6E9" width="33.2399902" height="40.6397057"/>
		<rect x="35.0194664" y="28.1060562" fill="#FFFFFF" width="29.961071" height="40.6397057"/>
		<g>
			<path fill="#3A556A" d="M50,76.2200317c-1.7246094,0-3.1269531-1.402832-3.1269531-3.1269531     S48.2753906,69.9661255,50,69.9661255s3.1269531,1.402832,3.1269531,3.1269531S51.7246094,76.2200317,50,76.2200317z      M50,71.4661255c-0.8974609,0-1.6269531,0.7299805-1.6269531,1.6269531S49.1025391,74.7200317,50,74.7200317     s1.6269531-0.7299805,1.6269531-1.6269531S50.8974609,71.4661255,50,71.4661255z"/>
		</g>
		<g>
			<polygon fill="#64798A" points="41.0920792,39.5179939 41.0920792,40.230629 41.0920792,40.9432564 41.0920792,41.6558914      41.0920792,42.3685303 41.0920792,43.0811539 41.0920792,43.0811691 41.0920792,43.7937927 41.0920792,44.5064278      41.8047295,44.5064278 42.5173264,44.5064278 42.5173264,43.7937927 41.8047295,43.7937927 41.8047295,43.0811691      41.8047295,43.0811539 41.8047295,42.3685303 41.8047295,41.6558914 41.8047295,40.9432564 41.8047295,40.230629      42.5173264,40.230629 42.5173264,39.5179939 41.8047295,39.5179939    "/>
			<rect x="47.5057755" y="39.5179939" fill="#64798A" width="0.7126519" height="0.7126378"/>
			<path fill="#64798A" d="M58.1952705,39.5179939h-0.7126236h-0.7126236l0,0H56.057373h-0.7126236h-0.7126236l0,0h-0.7126503     v0.712635v0.7126274v0.712635v0.7126389v0.7126236v0.0000153v0.7126236v0.712635h0.7126503l0,0h0.7126236h0.7126236h0.7126503     l0,0h0.7126236h0.7126236h0.7126541v-0.712635v-0.7126236v-0.0000153v-0.7126236v-0.7126389v-0.712635V40.230629v-0.712635     H58.1952705z M58.1952705,40.9432564v0.712635v0.7126389v0.7126236v0.0000153v0.7126236h-0.7126236h-0.7126236l0,0H56.057373     h-0.7126236h-0.7126236v-0.7126236v-0.0000153v-0.7126236v-0.7126389v-0.712635V40.230629h0.7126236h0.7126236h0.7126503l0,0     h0.7126236h0.7126236V40.9432564z"/>
			<polygon fill="#E56353" points="56.7700233,40.9432564 56.057373,40.9432564 55.3447495,40.9432564 55.3447495,41.6558914      55.3447495,42.3685303 55.3447495,43.0811691 56.057373,43.0811691 56.7700233,43.0811691 56.7700233,43.0811691      57.4826469,43.0811691 57.4826469,42.3685303 57.4826469,41.6558914 57.4826469,40.9432564 56.7700233,40.9432564    "/>
			<polygon fill="#64798A" points="51.0689507,42.3685303 50.3563271,42.3685303 50.3563271,43.0811539 50.3563271,43.0811691      50.3563271,43.7937927 51.0689507,43.7937927 51.0689507,44.5064278 50.3563271,44.5064278 50.3563271,43.7937927      49.6436768,43.7937927 49.6436768,44.5064278 49.6436768,45.2190514 50.3563271,45.2190514 50.3563271,45.9316902      50.3563271,46.6443291 51.0689507,46.6443291 51.0689507,45.9316902 51.0689507,45.2190514 51.7815742,45.2190514      51.7815742,44.5064278 51.7815742,43.7937927 52.4942245,43.7937927 52.4942245,44.5064278 53.2068481,44.5064278      53.2068481,43.7937927 53.2068481,43.0811539 52.4942245,43.0811539 52.4942245,42.3685303 51.7815742,42.3685303      51.7815742,41.6558914 51.0689507,41.6558914    "/>
			<polygon fill="#E56353" points="43.9426308,43.0811691 44.6552544,43.0811691 44.6552544,42.3685303 44.6552544,41.6558914      44.6552544,40.9432564 43.9426308,40.9432564 43.2299767,40.9432564 42.5173531,40.9432564 42.5173531,41.6558914      42.5173531,42.3685303 42.5173531,43.0811691 43.2299767,43.0811691    "/>
			<polygon fill="#64798A" points="48.2184296,43.0811691 48.9310532,43.0811691 48.9310532,42.3685303 49.6436768,42.3685303      49.6436768,41.6558914 48.9310532,41.6558914 48.9310532,40.9432564 49.6436768,40.9432564 49.6436768,41.6558914      50.3563271,41.6558914 50.3563271,40.9432564 51.0689507,40.9432564 51.7815742,40.9432564 51.7815742,41.6558914      52.4942245,41.6558914 52.4942245,40.9432564 53.2068481,40.9432564 53.2068481,40.230629 52.4942245,40.230629      52.4942245,39.5179939 51.7815742,39.5179939 51.0689507,39.5179939 50.3563271,39.5179939 49.6436768,39.5179939      49.6436768,40.230629 48.9310532,40.230629 48.2184296,40.230629 48.2184296,40.9432564 47.5057755,40.9432564      46.7931519,40.9432564 46.7931519,41.6558914 47.5057755,41.6558914 47.5057755,42.3685303 48.2184296,42.3685303      48.2184296,43.0811539 47.5057755,43.0811539 47.5057755,43.7937927 48.2184296,43.7937927    "/>
			<polygon fill="#64798A" points="43.9426308,44.5064278 44.6552544,44.5064278 45.367878,44.5064278 46.0805283,44.5064278      46.0805283,43.7937927 46.0805283,43.0811691 46.0805283,43.0811539 46.0805283,42.3685303 46.0805283,41.6558914      46.0805283,40.9432564 46.0805283,40.230629 46.0805283,39.5179939 45.367878,39.5179939 44.6552544,39.5179939      43.9426308,39.5179939 43.2299767,39.5179939 42.5173531,39.5179939 42.5173531,40.230629 43.2299767,40.230629      43.9426308,40.230629 44.6552544,40.230629 45.367878,40.230629 45.367878,40.9432564 45.367878,41.6558914      45.367878,42.3685303 45.367878,43.0811539 45.367878,43.0811691 45.367878,43.7937927 44.6552544,43.7937927      43.9426308,43.7937927 43.2299767,43.7937927 42.5173531,43.7937927 42.5173531,44.5064278 43.2299767,44.5064278    "/>
			<polygon fill="#64798A" points="41.0920792,45.2190514 41.0920792,45.9316902 41.0920792,46.6443291 41.0920792,47.3569679      41.0920792,48.0695915 41.0920792,48.7822266 41.8047295,48.7822266 41.8047295,49.4948654 42.5173264,49.4948654      42.5173264,48.7822266 42.5173264,48.0695915 41.8047295,48.0695915 41.8047295,47.3569679 41.8047295,46.6443291      42.5173264,46.6443291 42.5173264,45.9316902 42.5173264,45.2190514 41.8047295,45.2190514    "/>
			<polygon fill="#64798A" points="43.2299767,45.9316902 43.2299767,45.2190514 42.5173531,45.2190514 42.5173531,45.9316902      42.5173531,46.6443291 43.2299767,46.6443291    "/>
			<polygon fill="#64798A" points="47.5057755,46.6443291 47.5057755,45.9316902 47.5057755,45.2190514 48.2184296,45.2190514      48.2184296,45.9316902 48.2184296,46.6443291 48.9310532,46.6443291 49.6436768,46.6443291 49.6436768,45.9316902      49.6436768,45.2190514 48.9310532,45.2190514 48.9310532,44.5064278 48.9310532,43.7937927 48.2184296,43.7937927      48.2184296,44.5064278 47.5057755,44.5064278 47.5057755,43.7937927 46.7931519,43.7937927 46.7931519,44.5064278      46.7931519,45.2190514 46.0805283,45.2190514 45.367878,45.2190514 44.6552544,45.2190514 43.9426308,45.2190514      43.9426308,45.9316902 44.6552544,45.9316902 45.367878,45.9316902 46.0805283,45.9316902 46.0805283,46.6443291      46.7931519,46.6443291    "/>
			<polygon fill="#64798A" points="57.4826469,45.9316902 57.4826469,45.2190514 56.7700233,45.2190514 56.7700233,45.9316902      56.7700233,46.6443291 56.057373,46.6443291 55.3447495,46.6443291 55.3447495,47.3569679 56.057373,47.3569679      56.7700233,47.3569679 56.7700233,46.6443291 57.4826469,46.6443291 57.4826469,47.3569679 57.4826469,48.0695915      58.1952705,48.0695915 58.1952705,47.3569679 58.9079247,47.3569679 58.9079247,46.6443291 58.9079247,45.9316902      58.1952705,45.9316902    "/>
			<rect x="47.5057755" y="46.6443291" fill="#64798A" width="0.7126519" height="0.7126378"/>
			<polygon fill="#64798A" points="54.6321259,46.6443291 54.6321259,45.9316902 54.6321259,45.2190514 53.9194756,45.2190514      53.2068481,45.2190514 52.4942245,45.2190514 52.4942245,45.9316902 51.7815742,45.9316902 51.7815742,46.6443291      52.4942245,46.6443291 53.2068481,46.6443291 53.9194756,46.6443291 53.9194756,47.3569679 54.6321259,47.3569679      54.6321259,48.0695915 53.9194756,48.0695915 53.2068481,48.0695915 53.2068481,47.3569679 52.4942245,47.3569679      51.7815742,47.3569679 51.0689507,47.3569679 50.3563271,47.3569679 50.3563271,48.0695915 49.6436768,48.0695915      49.6436768,48.7822266 48.9310532,48.7822266 48.9310532,49.4948654 48.2184296,49.4948654 48.2184296,50.207489      48.9310532,50.207489 49.6436768,50.207489 50.3563271,50.207489 51.0689507,50.207489 51.7815742,50.207489      51.7815742,49.4948654 51.7815742,48.7822266 51.0689507,48.7822266 51.0689507,48.0695915 51.7815742,48.0695915      51.7815742,48.7822266 52.4942245,48.7822266 53.2068481,48.7822266 53.2068481,49.4948654 53.2068481,50.207489      53.9194756,50.207489 53.9194756,49.4948654 54.6321259,49.4948654 54.6321259,50.207489 55.3447495,50.207489      55.3447495,49.4948654 55.3447495,48.7822266 54.6321259,48.7822266 54.6321259,48.0695915 55.3447495,48.0695915      55.3447495,47.3569679 54.6321259,47.3569679    "/>
			<rect x="48.9310532" y="47.3569679" fill="#64798A" width="0.7126237" height="0.7126237"/>
			<polygon fill="#64798A" points="46.7931519,48.7822266 46.7931519,48.0695915 47.5057755,48.0695915 47.5057755,47.3569679      46.7931519,47.3569679 46.0805283,47.3569679 46.0805283,48.0695915 45.367878,48.0695915 45.367878,47.3569679      46.0805283,47.3569679 46.0805283,46.6443291 45.367878,46.6443291 44.6552544,46.6443291 43.9426308,46.6443291      43.9426308,47.3569679 43.9426308,48.0695915 44.6552544,48.0695915 44.6552544,48.7822266 44.6552544,49.4948654      45.367878,49.4948654 45.367878,48.7822266 46.0805283,48.7822266 46.0805283,49.4948654 45.367878,49.4948654      45.367878,50.207489 46.0805283,50.207489 46.7931519,50.207489 47.5057755,50.207489 47.5057755,49.4948654      46.7931519,49.4948654    "/>
			<rect x="47.5057755" y="48.7822266" fill="#64798A" width="0.7126519" height="0.7126378"/>
			<polygon fill="#64798A" points="57.4826469,48.7822266 57.4826469,49.4948654 56.7700233,49.4948654 56.7700233,48.7822266      56.7700233,48.0695915 56.057373,48.0695915 56.057373,48.7822266 56.057373,49.4948654 56.7700233,49.4948654      56.7700233,50.207489 57.4826469,50.207489 58.1952705,50.207489 58.9079247,50.207489 58.9079247,49.4948654      58.9079247,48.7822266 58.1952705,48.7822266    "/>
			<rect x="41.0920792" y="49.4948654" fill="#64798A" width="0.7126519" height="0.7126237"/>
			<polygon fill="#64798A" points="43.2299767,49.4948654 43.2299767,48.7822266 43.2299767,48.0695915 42.5173531,48.0695915      42.5173531,48.7822266 42.5173531,49.4948654 42.5173531,50.207489 43.2299767,50.207489 43.9426308,50.207489      44.6552544,50.207489 44.6552544,49.4948654 43.9426308,49.4948654    "/>
			<rect x="41.8047295" y="50.2075043" fill="#64798A" width="0.7125954" height="0.7126237"/>
			<rect x="42.5173531" y="50.2075043" fill="#64798A" width="0.7126237" height="0.7126237"/>
			<polygon fill="#64798A" points="48.2184296,50.2075043 48.2184296,50.9201279 48.2184296,51.6327629 48.9310532,51.6327629      48.9310532,52.3453865 49.6436768,52.3453865 49.6436768,51.6327629 49.6436768,50.9201279 48.9310532,50.9201279      48.9310532,50.2075043    "/>
			<polygon fill="#64798A" points="58.1952705,50.9201279 58.1952705,51.6327629 58.9079247,51.6327629 58.9079247,50.9201279      58.9079247,50.2075043 58.1952705,50.2075043    "/>
			<rect x="41.0920792" y="50.9201279" fill="#64798A" width="0.7126519" height="0.7126378"/>
			<rect x="43.2299767" y="50.9201279" fill="#64798A" width="0.7126519" height="0.7126378"/>
			<polygon fill="#64798A" points="46.7931519,50.9201279 46.7931519,50.2075043 46.0805283,50.2075043 46.0805283,50.9201279      45.367878,50.9201279 44.6552544,50.9201279 44.6552544,51.6327629 45.367878,51.6327629 46.0805283,51.6327629      46.7931519,51.6327629    "/>
			<polygon fill="#64798A" points="50.3563271,51.6327629 50.3563271,52.3453865 51.0689507,52.3453865 51.0689507,51.6327629      51.0689507,50.9201279 51.0689507,50.2075043 50.3563271,50.2075043 49.6436768,50.2075043 49.6436768,50.9201279      50.3563271,50.9201279    "/>
			<rect x="46.7931519" y="51.6327629" fill="#64798A" width="0.7126237" height="0.7126237"/>
			<polygon fill="#64798A" points="51.7815742,51.6327629 51.7815742,52.3453865 52.4942245,52.3453865 53.2068481,52.3453865      53.2068481,51.6327629 53.9194756,51.6327629 54.6321259,51.6327629 54.6321259,51.6327629 55.3447495,51.6327629      55.3447495,52.3453865 56.057373,52.3453865 56.7700233,52.3453865 56.7700233,51.6327629 56.7700233,50.9201279      56.057373,50.9201279 55.3447495,50.9201279 54.6321259,50.9201279 54.6321259,50.2075043 53.9194756,50.2075043      53.2068481,50.2075043 52.4942245,50.2075043 51.7815742,50.2075043 51.7815742,50.9201279 52.4942245,50.9201279      52.4942245,51.6327629    "/>
			<polygon fill="#64798A" points="41.0920792,52.3454018 41.0920792,53.0580254 41.0920792,53.7706642 41.0920792,54.4832878      41.0920792,55.1959267 41.0920792,55.9085617 41.0920792,56.6212006 41.0920792,57.3338242 41.8047295,57.3338242      42.5173264,57.3338242 42.5173264,56.6212006 41.8047295,56.6212006 41.8047295,55.9085617 41.8047295,55.1959267      41.8047295,54.4832878 41.8047295,53.7706642 41.8047295,53.0580254 42.5173264,53.0580254 42.5173264,52.3454018      41.8047295,52.3454018    "/>
			<polygon fill="#64798A" points="44.6552544,52.3454018 43.9426308,52.3454018 43.2299767,52.3454018 42.5173531,52.3454018      42.5173531,53.0580254 43.2299767,53.0580254 43.9426308,53.0580254 44.6552544,53.0580254 45.367878,53.0580254      45.367878,53.7706642 45.367878,54.4832878 45.367878,55.1959267 45.367878,55.9085617 45.367878,56.6212006      44.6552544,56.6212006 43.9426308,56.6212006 43.2299767,56.6212006 42.5173531,56.6212006 42.5173531,57.3338242      43.2299767,57.3338242 43.9426308,57.3338242 44.6552544,57.3338242 45.367878,57.3338242 46.0805283,57.3338242      46.0805283,56.6212006 46.0805283,55.9085617 46.0805283,55.1959267 46.0805283,54.4832878 46.0805283,53.7706642      46.0805283,53.0580254 46.0805283,52.3454018 45.367878,52.3454018    "/>
			<rect x="53.9194756" y="52.3454018" fill="#64798A" width="0.7126519" height="0.7126237"/>
			<polygon fill="#64798A" points="57.4826469,52.3454018 56.7700233,52.3454018 56.7700233,53.0580254 57.4826469,53.0580254      58.1952705,53.0580254 58.1952705,53.7706642 57.4826469,53.7706642 57.4826469,54.4832878 58.1952705,54.4832878      58.9079247,54.4832878 58.9079247,53.7706642 58.9079247,53.0580254 58.9079247,52.3454018 58.1952705,52.3454018    "/>
			<polygon fill="#64798A" points="49.6436768,53.7706642 49.6436768,53.0580254 48.9310532,53.0580254 48.2184296,53.0580254      48.2184296,53.7706642 48.9310532,53.7706642    "/>
			<polygon fill="#64798A" points="47.5057755,53.7706642 47.5057755,53.0580254 47.5057755,52.3454018 46.7931519,52.3454018      46.7931519,53.0580254 46.7931519,53.7706642 46.7931519,54.4832878 47.5057755,54.4832878 48.2184296,54.4832878      48.2184296,53.7706642    "/>
			<rect x="51.7815742" y="54.4832878" fill="#64798A" width="0.7126519" height="0.7126378"/>
			<polygon fill="#64798A" points="56.7700233,54.4832878 56.057373,54.4832878 56.057373,53.7706642 56.057373,53.0580254      56.057373,52.3454018 55.3447495,52.3454018 55.3447495,53.0580254 55.3447495,53.7706642 54.6321259,53.7706642      54.6321259,53.7706642 53.9194756,53.7706642 53.2068481,53.7706642 53.2068481,53.0580254 53.2068481,52.3454018      52.4942245,52.3454018 52.4942245,53.0580254 52.4942245,53.7706642 52.4942245,54.4832878 53.2068481,54.4832878      53.9194756,54.4832878 54.6321259,54.4832878 54.6321259,55.1959267 54.6321259,55.9085617 54.6321259,56.6212006      53.9194756,56.6212006 53.9194756,57.3338242 54.6321259,57.3338242 54.6321259,57.3338242 55.3447495,57.3338242      55.3447495,56.6212006 56.057373,56.6212006 56.057373,55.9085617 56.7700233,55.9085617 56.7700233,55.9085617      57.4826469,55.9085617 57.4826469,55.1959267 57.4826469,54.4832878 56.7700233,54.4832878    "/>
			<polygon fill="#E56353" points="43.9426308,55.9085617 44.6552544,55.9085617 44.6552544,55.1959267 44.6552544,54.4832878      44.6552544,53.7706642 43.9426308,53.7706642 43.2299767,53.7706642 42.5173531,53.7706642 42.5173531,54.4832878      42.5173531,55.1959267 42.5173531,55.9085617 43.2299767,55.9085617    "/>
			<rect x="58.1952705" y="55.1959267" fill="#64798A" width="0.7126519" height="0.7126378"/>
			<path fill="#64798A" d="M51.7815742,55.9085617h-0.7126236h-0.7126236v-0.712635h0.7126236v-0.7126389v-0.7126236h0.7126236     v-0.7126389v-0.7126236h-0.7126236h-0.7126236v0.7126236v0.7126389h-0.7126503v0.7126236h-0.7126236h-0.7126236v0.7126389     v0.712635v0.7126389h-0.7126541v-0.7126389v-0.712635h-0.7126236v0.712635v0.7126389v0.7126236h0.7126236h0.7126541h0.7126236     h0.7126236h0.7126503v-0.7126236h0.7126236v0.7126236h0.7126236v-0.7126236h0.7126503v0.7126236h0.7126236v-0.7126236v-0.7126389     v-0.712635h-0.7126236v0.712635H51.7815742z M48.9310532,56.6212006v-0.7126389h0.7126236v0.7126389H48.9310532z"/>
			<polygon fill="#64798A" points="57.4826469,57.3338242 58.1952705,57.3338242 58.9079247,57.3338242 58.9079247,56.6212006      58.1952705,56.6212006 58.1952705,55.9085617 57.4826469,55.9085617 57.4826469,56.6212006    "/>
		</g>
		<path fill="#3A556A" d="M55.5705109,24.5566158H44.429493c-0.4754028,0-0.8609085,0.385458-0.8609085,0.8609085    c0,0.4755001,0.3855057,0.8609085,0.8609085,0.8609085h11.1410179c0.4754982,0,0.8609085-0.3854084,0.8609085-0.8609085    C56.4314194,24.9420738,56.0460091,24.5566158,55.5705109,24.5566158z"/>
		<circle fill="#3A556A" cx="41.5778694" cy="25.4175243" r="0.8609078"/>
	</g>
</g>
</svg>
