<?xml version="1.0" encoding="utf-8"?>
<!-- Generator: Adobe Illustrator 21.0.2, SVG Export Plug-In . SVG Version: 6.00 Build 0)  -->
<svg xmlns="http://www.w3.org/2000/svg" xmlns:xlink="http://www.w3.org/1999/xlink" version="1.1" id="Layer_1" x="0px" y="0px" viewBox="0 0 100 100" enable-background="new 0 0 100 100" xml:space="preserve" width="512" height="512">
<g>
	<circle fill="#334D5C" cx="50" cy="50" r="48"/>
	<path opacity="0.1" d="M97.9396362,52.3887711L77.1099854,31.5591812   c-0.2299805-0.2299805-0.5499878-0.3699951-0.8999634-0.3699951H23.789978c-0.7099609,0-1.289978,0.5699463-1.289978,1.289917   V65.819191c0,0.3399658,0.1300049,0.6499023,0.3499756,0.8800049l0.0300293,0.0299072l31.0940552,31.0939941   C77.8381958,95.8653336,96.7594604,76.465065,97.9396362,52.3887711z"/>
	<g>
		<path fill="#EBF0F3" d="M76.2104492,31.1845379H23.7896748c-0.7122803,0-1.2896729,0.5773926-1.2896729,1.2896137v33.3414917    c0,0.7122803,0.5773926,1.2896729,1.2896729,1.2896729h52.4207764c0.7121582,0,1.2895508-0.5773926,1.2895508-1.2896729    V32.4741516C77.5,31.7619305,76.9226074,31.1845379,76.2104492,31.1845379z"/>
		<rect x="24.5004902" y="33.1845398" fill="#64798A" width="36.5322266" height="31.9208984"/>
		<rect x="25.5004902" y="34.1845398" fill="#27A2DB" width="34.5322266" height="29.9208984"/>
		<g>
			<polygon fill="#31B1DD" points="32.5843849,64.1054382 46.7521706,34.1845398 48.2744064,34.1845398 34.1066208,64.1054382         "/>
			<polygon fill="#31B1DD" points="35.7006607,64.1054382 49.8684464,34.1845398 52.948822,34.1845398 38.7810364,64.1054382    "/>
		</g>
		<path fill="#E1E6E9" d="M76.2104492,31.1845379H64.3725586v35.9207764h11.8378906    c0.7121582,0,1.2895508-0.5773926,1.2895508-1.2896729V32.4741516C77.5,31.7619305,76.9226074,31.1845379,76.2104492,31.1845379z"/>
		<rect x="63.0327148" y="31.1845379" fill="#64798A" width="1.3398438" height="35.9207764"/>
		<rect x="65.7315903" y="35.2411919" fill="#44C4A1" width="10.4093866" height="6.9150696"/>
		<rect x="65.7315903" y="41.6045265" fill="#3EA69B" width="10.4093866" height="0.5517343"/>
		<circle fill="#64798A" cx="70.9362793" cy="61.0991364" r="4.3117957"/>
		<circle fill="#D5D6DB" cx="70.9362793" cy="61.0991364" r="4.1646667"/>
		<g>
			<path fill="#3A556A" d="M68.2055969,44.9211502h-2.1820068c-0.1613083,0-0.2919998,0.135498-0.2919998,0.3026123v0.9588623     c0,0.1671143,0.1306915,0.3025513,0.2919998,0.3025513h2.1820068c0.1610718,0,0.2917633-0.135437,0.2917633-0.3025513v-0.9588623     C68.4973602,45.0566483,68.3666687,44.9211502,68.2055969,44.9211502z"/>
			<path fill="#3A556A" d="M72.0272827,44.9211502h-2.1820068c-0.1613083,0-0.2917633,0.135498-0.2917633,0.3026123v0.9588623     c0,0.1671143,0.130455,0.3025513,0.2917633,0.3025513h2.1820068c0.1613083,0,0.2917633-0.135437,0.2917633-0.3025513v-0.9588623     C72.319046,45.0566483,72.188591,44.9211502,72.0272827,44.9211502z"/>
			<path fill="#3A556A" d="M75.8489685,44.9211502h-2.1819992c-0.1610718,0-0.2917709,0.135498-0.2917709,0.3026123v0.9588623     c0,0.1671143,0.1306992,0.3025513,0.2917709,0.3025513h2.1819992c0.1610794,0,0.2920074-0.135437,0.2920074-0.3025513v-0.9588623     C76.140976,45.0566483,76.0100479,44.9211502,75.8489685,44.9211502z"/>
			<path fill="#3A556A" d="M68.2055969,47.2257767h-2.1820068c-0.1613083,0-0.2919998,0.135437-0.2919998,0.3025513v0.9588623     c0,0.1671143,0.1306915,0.3026123,0.2919998,0.3026123h2.1820068c0.1610718,0,0.2917633-0.135498,0.2917633-0.3026123v-0.9588623     C68.4973602,47.3612137,68.3666687,47.2257767,68.2055969,47.2257767z"/>
			<path fill="#3A556A" d="M72.0272827,47.2257767h-2.1820068c-0.1613083,0-0.2917633,0.135437-0.2917633,0.3025513v0.9588623     c0,0.1671143,0.130455,0.3026123,0.2917633,0.3026123h2.1820068c0.1613083,0,0.2917633-0.135498,0.2917633-0.3026123v-0.9588623     C72.319046,47.3612137,72.188591,47.2257767,72.0272827,47.2257767z"/>
			<path fill="#3A556A" d="M75.8489685,47.2257767h-2.1819992c-0.1610718,0-0.2917709,0.135437-0.2917709,0.3025513v0.9588623     c0,0.1671143,0.1306992,0.3026123,0.2917709,0.3026123h2.1819992c0.1610794,0,0.2920074-0.135498,0.2920074-0.3026123v-0.9588623     C76.140976,47.3612137,76.0100479,47.2257767,75.8489685,47.2257767z"/>
			<path fill="#3A556A" d="M68.2055969,49.5303421h-2.1820068c-0.1613083,0-0.2919998,0.135498-0.2919998,0.3026123v0.9588623     c0,0.1671143,0.1306915,0.3025513,0.2919998,0.3025513h2.1820068c0.1610718,0,0.2917633-0.135437,0.2917633-0.3025513v-0.9588623     C68.4973602,49.6658401,68.3666687,49.5303421,68.2055969,49.5303421z"/>
			<path fill="#3A556A" d="M72.0272827,49.5303421h-2.1820068c-0.1613083,0-0.2917633,0.135498-0.2917633,0.3026123v0.9588623     c0,0.1671143,0.130455,0.3025513,0.2917633,0.3025513h2.1820068c0.1613083,0,0.2917633-0.135437,0.2917633-0.3025513v-0.9588623     C72.319046,49.6658401,72.188591,49.5303421,72.0272827,49.5303421z"/>
			<path fill="#3A556A" d="M75.8489685,49.5303421h-2.1819992c-0.1610718,0-0.2917709,0.135498-0.2917709,0.3026123v0.9588623     c0,0.1671143,0.1306992,0.3025513,0.2917709,0.3025513h2.1819992c0.1610794,0,0.2920074-0.135437,0.2920074-0.3025513v-0.9588623     C76.140976,49.6658401,76.0100479,49.5303421,75.8489685,49.5303421z"/>
			<path fill="#F6C358" d="M68.2055969,51.8349686h-2.1820068c-0.1613083,0-0.2919998,0.135437-0.2919998,0.3025513v0.9588623     c0,0.1671143,0.1306915,0.3026123,0.2919998,0.3026123h2.1820068c0.1610718,0,0.2917633-0.135498,0.2917633-0.3026123v-0.9588623     C68.4973602,51.9704056,68.3666687,51.8349686,68.2055969,51.8349686z"/>
			<path fill="#3A556A" d="M72.0272827,51.8349686h-2.1820068c-0.1613083,0-0.2917633,0.135437-0.2917633,0.3025513v0.9588623     c0,0.1671143,0.130455,0.3026123,0.2917633,0.3026123h2.1820068c0.1613083,0,0.2917633-0.135498,0.2917633-0.3026123v-0.9588623     C72.319046,51.9704056,72.188591,51.8349686,72.0272827,51.8349686z"/>
			<path fill="#D15241" d="M75.8489685,51.8349686h-2.1819992c-0.1610718,0-0.2917709,0.135437-0.2917709,0.3025513v0.9588623     c0,0.1671143,0.1306992,0.3026123,0.2917709,0.3026123h2.1819992c0.1610794,0,0.2920074-0.135498,0.2920074-0.3026123v-0.9588623     C76.140976,51.9704056,76.0100479,51.8349686,75.8489685,51.8349686z"/>
			<path fill="#64798A" d="M68.2055969,44.7715683h-2.1820068c-0.1613083,0-0.2919998,0.135498-0.2919998,0.3026123v0.9588623     c0,0.1671143,0.1306915,0.3025513,0.2919998,0.3025513h2.1820068c0.1610718,0,0.2917633-0.135437,0.2917633-0.3025513v-0.9588623     C68.4973602,44.9070663,68.3666687,44.7715683,68.2055969,44.7715683z"/>
			<path fill="#64798A" d="M72.0272827,44.7715683h-2.1820068c-0.1613083,0-0.2917633,0.135498-0.2917633,0.3026123v0.9588623     c0,0.1671143,0.130455,0.3025513,0.2917633,0.3025513h2.1820068c0.1613083,0,0.2917633-0.135437,0.2917633-0.3025513v-0.9588623     C72.319046,44.9070663,72.188591,44.7715683,72.0272827,44.7715683z"/>
			<path fill="#64798A" d="M75.8489685,44.7715683h-2.1819992c-0.1610718,0-0.2917709,0.135498-0.2917709,0.3026123v0.9588623     c0,0.1671143,0.1306992,0.3025513,0.2917709,0.3025513h2.1819992c0.1610794,0,0.2920074-0.135437,0.2920074-0.3025513v-0.9588623     C76.140976,44.9070663,76.0100479,44.7715683,75.8489685,44.7715683z"/>
			<path fill="#64798A" d="M68.2055969,47.0761948h-2.1820068c-0.1613083,0-0.2919998,0.135437-0.2919998,0.3025513v0.9588623     c0,0.1671143,0.1306915,0.3026123,0.2919998,0.3026123h2.1820068c0.1610718,0,0.2917633-0.135498,0.2917633-0.3026123V47.378746     C68.4973602,47.2116318,68.3666687,47.0761948,68.2055969,47.0761948z"/>
			<path fill="#64798A" d="M72.0272827,47.0761948h-2.1820068c-0.1613083,0-0.2917633,0.135437-0.2917633,0.3025513v0.9588623     c0,0.1671143,0.130455,0.3026123,0.2917633,0.3026123h2.1820068c0.1613083,0,0.2917633-0.135498,0.2917633-0.3026123V47.378746     C72.319046,47.2116318,72.188591,47.0761948,72.0272827,47.0761948z"/>
			<path fill="#64798A" d="M75.8489685,47.0761948h-2.1819992c-0.1610718,0-0.2917709,0.135437-0.2917709,0.3025513v0.9588623     c0,0.1671143,0.1306992,0.3026123,0.2917709,0.3026123h2.1819992c0.1610794,0,0.2920074-0.135498,0.2920074-0.3026123V47.378746     C76.140976,47.2116318,76.0100479,47.0761948,75.8489685,47.0761948z"/>
			<path fill="#64798A" d="M68.2055969,49.3807602h-2.1820068c-0.1613083,0-0.2919998,0.135498-0.2919998,0.3026123v0.9588623     c0,0.1671143,0.1306915,0.3025513,0.2919998,0.3025513h2.1820068c0.1610718,0,0.2917633-0.135437,0.2917633-0.3025513v-0.9588623     C68.4973602,49.5162582,68.3666687,49.3807602,68.2055969,49.3807602z"/>
			<path fill="#64798A" d="M72.0272827,49.3807602h-2.1820068c-0.1613083,0-0.2917633,0.135498-0.2917633,0.3026123v0.9588623     c0,0.1671143,0.130455,0.3025513,0.2917633,0.3025513h2.1820068c0.1613083,0,0.2917633-0.135437,0.2917633-0.3025513v-0.9588623     C72.319046,49.5162582,72.188591,49.3807602,72.0272827,49.3807602z"/>
			<path fill="#64798A" d="M75.8489685,49.3807602h-2.1819992c-0.1610718,0-0.2917709,0.135498-0.2917709,0.3026123v0.9588623     c0,0.1671143,0.1306992,0.3025513,0.2917709,0.3025513h2.1819992c0.1610794,0,0.2920074-0.135437,0.2920074-0.3025513v-0.9588623     C76.140976,49.5162582,76.0100479,49.3807602,75.8489685,49.3807602z"/>
			<path fill="#FCD462" d="M68.2055969,51.6853867h-2.1820068c-0.1613083,0-0.2919998,0.135437-0.2919998,0.3025513v0.9588623     c0,0.1671143,0.1306915,0.3026123,0.2919998,0.3026123h2.1820068c0.1610718,0,0.2917633-0.135498,0.2917633-0.3026123v-0.9588623     C68.4973602,51.8208237,68.3666687,51.6853867,68.2055969,51.6853867z"/>
			<path fill="#64798A" d="M72.0272827,51.6853867h-2.1820068c-0.1613083,0-0.2917633,0.135437-0.2917633,0.3025513v0.9588623     c0,0.1671143,0.130455,0.3026123,0.2917633,0.3026123h2.1820068c0.1613083,0,0.2917633-0.135498,0.2917633-0.3026123v-0.9588623     C72.319046,51.8208237,72.188591,51.6853867,72.0272827,51.6853867z"/>
			<path fill="#E56353" d="M75.8489685,51.6853867h-2.1819992c-0.1610718,0-0.2917709,0.135437-0.2917709,0.3025513v0.9588623     c0,0.1671143,0.1306992,0.3026123,0.2917709,0.3026123h2.1819992c0.1610794,0,0.2920074-0.135498,0.2920074-0.3026123v-0.9588623     C76.140976,51.8208237,76.0100479,51.6853867,75.8489685,51.6853867z"/>
		</g>
		<g>
			<g>
				<path fill="#64798A" d="M66.1286621,67.1053162v1.3636475c0,0.1913452,0.1550293,0.3464966,0.3464355,0.3464966h7.373291      c0.1914063,0,0.3464355-0.1551514,0.3464355-0.3464966v-1.3636475H66.1286621z"/>
				<rect x="66.1286621" y="67.1053162" fill="#3A556A" width="8.0661621" height="0.5043335"/>
			</g>
			<g>
				<path fill="#64798A" d="M25.8051777,67.1053162v1.3636475c0,0.1913452,0.1550293,0.3464966,0.3464355,0.3464966h7.3732891      c0.1914063,0,0.3464355-0.1551514,0.3464355-0.3464966v-1.3636475H25.8051777z"/>
				<rect x="25.8051777" y="67.1053162" fill="#3A556A" width="8.0661621" height="0.5043335"/>
			</g>
		</g>
	</g>
</g>
</svg>
