<?xml version="1.0" encoding="utf-8"?>
<!-- Generator: Adobe Illustrator 21.0.2, SVG Export Plug-In . SVG Version: 6.00 Build 0)  -->
<svg xmlns="http://www.w3.org/2000/svg" xmlns:xlink="http://www.w3.org/1999/xlink" version="1.1" id="Layer_1" x="0px" y="0px" viewBox="0 0 100 100" enable-background="new 0 0 100 100" xml:space="preserve" width="512" height="512">
<g>
	<circle fill="#334D5C" cx="50" cy="50" r="48"/>
	<path opacity="0.1" d="M96.7800293,60.7600098C92.289978,80.3599854,75.8099976,95.3800049,55.460022,97.6799927   L30.9699707,73.1900024l5.6300049-15.0300293l-0.2399902-0.2399902v-0.3200073L33.5100098,54.75l0.2799683-1.2800293   l-2.4099731-2.4099731l0.8399658-1.8900146l-2.1599731-2.1599731l1.5999756-2.2000122l-2.039978-2.0400391L31.75,40.8599854   l-1.6900024-2.3300171l2.4899902-1.4299927l-1.1699829-2.6199951l2.7299805-0.8800049l-0.5999756-2.8099976L36.3699951,30.5   l-0.0100098-2.8800049l2.8599854,0.3099976l0.5900269-2.8099976l2.7299805,0.8900146l1.1600342-2.6199951l2.4899902,1.4399414   L47.8699951,22.5L50,24.4299927L52.1300049,22.5l2.0899658,2.0899658l2.0800171-1.1999512l2.2600098,2.2599487l1.6300049-0.5299683   l2.5900269,2.5899658l0.8599854-0.0899658L96.7800293,60.7600098z"/>
	<g>
		<g>
			<polygon fill="#27A2DB" points="42.464077,77.5 38.0521278,71.7752838 30.9651413,73.19384 41.1433296,46.0145378      52.6422691,50.320694    "/>
			<polygon fill="#E56353" points="57.535923,77.5 61.9478722,71.7752838 69.0348587,73.19384 58.8566704,46.0145378      47.3577347,50.320694    "/>
		</g>
		<polygon fill="#FCD462" points="50,24.4267712 52.1307526,22.5 53.8143387,24.8276749 56.2991257,23.3860149     57.4619751,26.0128632 60.1921997,25.1193237 60.7834816,27.9305382 63.6398239,27.6241703 63.6337013,30.4968872     66.4913254,30.7910805 65.8880615,33.5997505 68.6220703,34.4816475 67.4480438,37.1035156 69.9389496,38.5345726     68.2454529,40.8550529 70.3843994,42.772728 68.2454529,44.690403 69.9389496,47.0108795 67.4480438,48.4419403     68.6220703,51.0638084 65.8880615,51.9457054 66.4913254,54.7543716 63.6337013,55.0485687 63.6398239,57.9212837     60.7834816,57.6149178 60.1921997,60.4261322 57.4619751,59.532589 56.2991257,62.1594391 53.8143387,60.7177773     52.1307526,63.0454521 50,61.1186829 47.8692513,63.0454521 46.1856613,60.7177773 43.7008781,62.1594391 42.5380287,59.532589     39.8078041,60.4261322 39.2165184,57.6149178 36.3601799,57.9212837 36.3662987,55.0485687 33.5086784,54.7543716     34.1119385,51.9457054 31.3779297,51.0638084 32.55196,48.4419403 30.0610542,47.0108795 31.7545471,44.690403     29.6156063,42.772728 31.7545471,40.8550529 30.0610542,38.5345726 32.55196,37.1035156 31.3779297,34.4816475     34.1119385,33.5997505 33.5086784,30.7910805 36.3662987,30.4968872 36.3601799,27.6241703 39.2165184,27.9305382     39.8078041,25.1193237 42.5380287,26.0128632 43.7008781,23.3860149 46.1856613,24.8276749 47.8692513,22.5   "/>
		<circle fill="#DC8744" cx="50" cy="42.772728" r="15.0181484"/>
		<circle fill="#F6C358" cx="50" cy="42.772728" r="13.2774429"/>
		<polygon fill="#DC8744" points="50,32.970417 53.1849632,39.4238586 60.3067589,40.4587173 55.1533813,45.4820175     56.3699265,52.5750351 50,49.2261658 43.6300735,52.5750351 44.8466225,45.4820175 39.6932449,40.4587173 46.8150368,39.4238586       "/>
	</g>
</g>
</svg>
