<?xml version="1.0" encoding="utf-8"?>
<!-- Generator: Adobe Illustrator 21.0.2, SVG Export Plug-In . SVG Version: 6.00 Build 0)  -->
<svg xmlns="http://www.w3.org/2000/svg" xmlns:xlink="http://www.w3.org/1999/xlink" version="1.1" id="Layer_1" x="0px" y="0px" viewBox="0 0 100 100" enable-background="new 0 0 100 100" xml:space="preserve" width="512" height="512">
<g>
	<circle fill="#EFC84A" cx="50" cy="50" r="48"/>
	<path opacity="0.1" d="M98,49.9999771c0-2.5893555-0.2113647-5.1286621-0.6060791-7.6069336L77.5,22.4991226h-9v18.5l-18.5-18.5   l-6.6599731,11.8400879L31.5,22.4991226h-9v27.5c0,7.6700439,3.1400146,14.6000977,8.2000122,19.5900879l0.039978,0.0400391   l27.6286621,27.6286621C80.8863525,93.2964859,98,73.6534195,98,49.9999771z"/>
	<g>
		<path fill="#E56353" d="M68.4996338,22.4999981v27.4997578c0,10.2011719-8.2988281,18.5-18.5,18.5s-18.5-8.2988281-18.5-18.5    V22.4999981H22.5V50c0,15.1878052,12.3121338,27.5,27.4998779,27.5H50c15.1878662,0,27.5-12.3121948,27.5-27.5V22.4999981    H68.4996338z"/>
		<path fill="#27A2DB" d="M49.9996338,68.4997559c-10.2011719,0-18.5-8.2988281-18.5-18.5V29.7134991    c-3.0546875,0-6.5449219,0-8.9996338,0V50c0,15.1878052,12.3121338,27.5,27.4998779,27.5H50v-9.0002441H49.9996338z"/>
		<path fill="#3A556A" d="M31.4996338,22.4999981H22.5v7.213501c2.4547119,0,5.9449463,0,8.9996338,0V22.4999981z"/>
		<path fill="#3A556A" d="M77.5,22.4999981h-8.9996338v7.213501c2.4547119,0,5.9449463,0,8.9996338,0V22.4999981z"/>
		<g>
			<polygon fill="#27A2DB" points="40.5565186,39.2994995 50,39.2994995 50,22.4999981    "/>
			<polygon fill="#E56353" points="59.4434814,39.2994995 50,39.2994995 50,56.098999    "/>
		</g>
	</g>
</g>
</svg>
