<?xml version="1.0" encoding="utf-8"?>
<!-- Generator: Adobe Illustrator 21.0.2, SVG Export Plug-In . SVG Version: 6.00 Build 0)  -->
<svg xmlns="http://www.w3.org/2000/svg" xmlns:xlink="http://www.w3.org/1999/xlink" version="1.1" id="Layer_1" x="0px" y="0px" viewBox="0 0 100 100" enable-background="new 0 0 100 100" xml:space="preserve" width="512" height="512">
<g>
	<circle fill="#334D5C" cx="50" cy="50" r="48"/>
	<path opacity="0.1" d="M75.7199707,43.9099731l-0.00177,0.0003662c-2.119873-2.1229858-6.0133057-3.9154053-11.0281982-5.1103516   c-0.4799805-0.1099854-0.960022-0.2200317-1.460022-0.3300171C60.9299927,38,58.4299927,37.6400146,55.7800293,37.4299927   C53.9199829,37.2799683,51.9799805,37.2000122,50,37.2000122c-1.6199951,0-3.210022,0.0499878-4.7600098,0.1499634   c-3.2799683,0.2200317-6.3699951,0.6600342-9.1400146,1.2700195c-4.0699463,0.8999634-7.4699707,2.1799927-9.8499756,3.7199707   c-2.3900146,1.5300293-3.75,3.3200073-3.75,5.2200317C22.5,48.5,22.8400269,49.3099976,23.4699707,50l0.3200073,0.3200073   l1.5100098,1.5099487C23.5100098,53.2000122,22.5,54.75,22.5,56.3800049c0,0.7299805,0.2000122,1.3800049,0.5800171,1.9499512   l0.0100098,0.0100098c0.289978,0.4500122,0.6999512,0.8500366,1.2099609,1.210022l37.0808105,37.0808105   c16.4515381-4.00177,29.5856323-16.4719238,34.5132446-32.5401611L76.1199951,44.3099976L75.7199707,43.9099731z"/>
	<g>
		<path fill="#F6C358" d="M50.0000381,37.1969643c-15.18787,0-27.5000362,4.6398354-27.5000362,10.3633614    s12.3121662,6.4184036,27.5000362,6.4184036C65.1878357,53.9787292,77.5,53.2838554,77.5,47.5603256    S65.1878357,37.1969643,50.0000381,37.1969643z"/>
		<path fill="#F2BA57" d="M36.0164795,40.0608101l-0.5422363,3.2828369    c-0.1003418,0.4709473-0.1884766,0.942749-0.3071289,1.4119263l0.1376953,0.0593262    c0.8520508-1.4937744,1.4714355-3.1083984,1.927002-4.788147c0.1525879-0.5634766,0.3254395-1.1377563,0.4108887-1.723877    c-0.5253906,0.0997925-1.0410156,0.2053833-1.5461426,0.3172607c-0.0036621,0.3953857-0.0012207,0.7937622-0.045166,1.1918945    C36.043335,39.8947334,36.0252686,39.9780464,36.0164795,40.0608101z"/>
		<path fill="#F2BA57" d="M45.0955811,39.8120308c-0.0083008,0.0852051-0.0268555,0.1710205-0.0358887,0.2562866    l-0.5412598,3.2763672c-0.1000977,0.4705811-0.1882324,0.9420166-0.3068848,1.4108887l0.1376953,0.0593262    c0.8520508-1.4937744,1.4714355-3.1083984,1.927002-4.788147c0.2263184-0.8364868,0.5153809-1.694397,0.4611816-2.5843506    c-0.0031738-0.0563965-0.0126953-0.1129761-0.0170898-0.1694946c-0.4975586,0.0222778-0.9904785,0.0497437-1.4794922,0.0819092    c-0.0004883,0.0026855-0.0009766,0.0053101-0.0014648,0.0079956    C45.0784912,38.159626,45.1868896,38.9867744,45.0955811,39.8120308z"/>
		<path fill="#F2BA57" d="M54.1400146,39.8120308c-0.0083008,0.0852051-0.0268555,0.1710205-0.0358887,0.2562866    l-0.5412598,3.2763672c-0.1000977,0.4705811-0.1882324,0.9420166-0.3068848,1.4108887l0.1376953,0.0593262    c0.8520508-1.4937744,1.4714355-3.1083984,1.927002-4.788147c0.2263184-0.8364868,0.5153809-1.694397,0.4611816-2.5843506    c-0.0002441-0.0046997-0.0012207-0.0094604-0.0014648-0.0141602c-0.4919434-0.0396729-0.987793-0.0753174-1.4892578-0.1049194    c-0.0024414,0.0131836-0.0048828,0.0263062-0.0073242,0.0394897    C54.1229248,38.159626,54.2313232,38.9867744,54.1400146,39.8120308z"/>
		<path fill="#F2BA57" d="M63.1488037,40.0671577l-0.5415039,3.27771c-0.1000977,0.47052-0.1884766,0.9418945-0.3068848,1.4107056    l0.1376953,0.0593262c0.8520508-1.4937744,1.4714355-3.1083984,1.927002-4.788147    c0.1088867-0.4030762,0.2312012-0.8114624,0.3239746-1.225708c-0.4763184-0.1137085-0.9599609-0.2233276-1.4553223-0.3260498    c-0.0068359,0.4429321,0.0002441,0.8900757-0.0493164,1.3370361    C63.1761475,39.8968697,63.1578369,39.9822578,63.1488037,40.0671577z"/>
		<g>
			<path fill="#FCD462" d="M50.0000381,46.0212708c-15.18787,0-27.5000362,4.6398354-27.5000362,10.3633614     s12.3121662,6.4184036,27.5000362,6.4184036C65.1878357,62.8030357,77.5,62.1081619,77.5,56.3846321     S65.1878357,46.0212708,50.0000381,46.0212708z"/>
			<path fill="#F6C358" d="M36.0164795,48.8851128l-0.5422363,3.2828369     c-0.1003418,0.4709473-0.1884766,0.942749-0.3071289,1.4119263l0.1376953,0.0593262     c0.8520508-1.4937744,1.4714355-3.1083984,1.927002-4.788147c0.1525879-0.5634766,0.3254395-1.1377563,0.4108887-1.723877     c-0.5253906,0.0997925-1.0410156,0.2053833-1.5461426,0.3172607c-0.0036621,0.3953857-0.0012207,0.7937622-0.045166,1.1918945     C36.043335,48.7190361,36.0252686,48.8023491,36.0164795,48.8851128z"/>
			<path fill="#F6C358" d="M45.0955811,48.6363335c-0.0083008,0.0852051-0.0268555,0.1710205-0.0358887,0.2562866     l-0.5412598,3.2763672c-0.1000977,0.4705811-0.1882324,0.9420166-0.3068848,1.4108887l0.1376953,0.0593262     c0.8520508-1.4937744,1.4714355-3.1083984,1.927002-4.788147c0.2263184-0.8364868,0.5153809-1.694397,0.4611816-2.5843506     c-0.0031738-0.0563965-0.0126953-0.1129761-0.0170898-0.1694946c-0.4975586,0.0222778-0.9904785,0.0497437-1.4794922,0.0819092     c-0.0004883,0.0026855-0.0009766,0.0053101-0.0014648,0.0079956     C45.0784912,46.9839287,45.1868896,47.8110771,45.0955811,48.6363335z"/>
			<path fill="#F6C358" d="M54.1400146,48.6363335c-0.0083008,0.0852051-0.0268555,0.1710205-0.0358887,0.2562866     l-0.5412598,3.2763672c-0.1000977,0.4705811-0.1882324,0.9420166-0.3068848,1.4108887l0.1376953,0.0593262     c0.8520508-1.4937744,1.4714355-3.1083984,1.927002-4.788147c0.2263184-0.8364868,0.5153809-1.694397,0.4611816-2.5843506     c-0.0002441-0.0046997-0.0012207-0.0094604-0.0014648-0.0141602c-0.4919434-0.0396729-0.987793-0.0753174-1.4892578-0.1049194     c-0.0024414,0.0131836-0.0048828,0.0263062-0.0073242,0.0394897     C54.1229248,46.9839287,54.2313232,47.8110771,54.1400146,48.6363335z"/>
			<path fill="#F6C358" d="M63.1488037,48.8914604l-0.5415039,3.27771c-0.1000977,0.47052-0.1884766,0.9418945-0.3068848,1.4107056     l0.1376953,0.0593262c0.8520508-1.4937744,1.4714355-3.1083984,1.927002-4.788147     c0.1088867-0.4030762,0.2312012-0.8114624,0.3239746-1.225708c-0.4763184-0.1137085-0.9599609-0.2233276-1.4553223-0.3260498     c-0.0068359,0.4429321,0.0002441,0.8900757-0.0493164,1.3370361     C63.1761475,48.7211723,63.1578369,48.8065605,63.1488037,48.8914604z"/>
		</g>
	</g>
</g>
</svg>
