<?xml version="1.0" encoding="utf-8"?>
<!-- Generator: Adobe Illustrator 21.0.2, SVG Export Plug-In . SVG Version: 6.00 Build 0)  -->
<svg xmlns="http://www.w3.org/2000/svg" xmlns:xlink="http://www.w3.org/1999/xlink" version="1.1" id="Layer_1" x="0px" y="0px" viewBox="0 0 100 100" enable-background="new 0 0 100 100" xml:space="preserve" width="512" height="512">
<g>
	<circle fill="#EA8953" cx="50" cy="50" r="48"/>
	<path opacity="0.1" d="M33.0900269,22.4991226v45.460083l6.8399658,6.8399658h-6.8399658v2.6999512l20.3635254,20.3636475   c23.7542725-1.6907959,42.7192993-20.6561279,44.4093628-44.4107666L66.9099731,22.4991226H33.0900269z"/>
	<g>
		<g>
			<rect x="42.4971313" y="67.3960037" fill="#3A556A" width="7.5028801" height="8.7520514"/>
			<rect x="50.0000114" y="67.3960037" fill="#2F4859" width="7.5028801" height="8.7520514"/>
			<rect x="33.0892982" y="22.4999981" fill="#64798A" width="33.8214073" height="45.4588814"/>
			
				<rect x="29.3285217" y="30.3764362" transform="matrix(-1.836970e-16 1 -1 -1.836970e-16 95.2294464 -4.7705703)" fill="#EBF0F3" width="41.3429756" height="29.706007"/>
			<rect x="33.0892982" y="74.7961121" fill="#64798A" width="33.8214073" height="2.7038858"/>
		</g>
		<rect x="37.1548195" y="29.5901871" fill="#27A2DB" width="25.690361" height="9.2922583"/>
		<g>
			<circle fill="#FFFFFF" cx="42.2501907" cy="34.2363167" r="1.7681603"/>
			<circle fill="#FFFFFF" cx="50" cy="34.2363167" r="1.7681603"/>
			<circle fill="#FFFFFF" cx="57.7498093" cy="34.2363167" r="1.7681603"/>
		</g>
		<rect x="39.050663" y="42.3161125" fill="#3A556A" width="21.8986778" height="2.1273003"/>
		<rect x="41.2126198" y="49.1359863" fill="#D5D6DB" width="17.5747604" height="1.5641913"/>
		<rect x="41.2126198" y="53.5157204" fill="#D5D6DB" width="17.5747604" height="1.5641913"/>
		<rect x="41.2126198" y="57.8954544" fill="#D5D6DB" width="17.5747604" height="1.5641913"/>
	</g>
</g>
</svg>
