<?xml version="1.0" encoding="utf-8"?>
<!-- Generator: Adobe Illustrator 21.0.2, SVG Export Plug-In . SVG Version: 6.00 Build 0)  -->
<svg xmlns="http://www.w3.org/2000/svg" xmlns:xlink="http://www.w3.org/1999/xlink" version="1.1" id="Layer_1" x="0px" y="0px" viewBox="0 0 100 100" enable-background="new 0 0 100 100" xml:space="preserve" width="512" height="512">
<g>
	<circle fill="#EFC84A" cx="50" cy="50" r="48"/>
	<path opacity="0.1" d="M93.9772339,69.2381363L59.1300049,34.399147c-1.7399902-2.0098877-4.3099976-3.2799072-7.1799927-3.2799072   c-5.2399902,0-9.4899902,4.25-9.4899902,9.5c0,2.7399902,1.3399658,5.8299561,3.0199585,8.6098633H32.9500122L22.5,68.8792496   l29.0808105,29.0808105C70.5672607,97.3443375,86.760376,85.7112808,93.9772339,69.2381363z"/>
	<g>
		<g>
			<polygon fill="#EBF0F3" points="77.5,68.8779602 22.5000019,68.8779602 32.9451065,49.2273331 67.0549011,49.2273331    "/>
			<polygon fill="#27A2DB" points="26.9282608,66.9249039 34.7592201,50.0275421 65.2405396,50.0275421 73.071373,66.9249039    "/>
			<polygon fill="#44C4A1" points="70.5820465,61.5534363 65.2405396,50.0275421 43.7855911,50.0275421 45.0178719,56.4567833         "/>
			<polygon fill="#44C4A1" points="40.7713966,50.0275421 34.7592201,50.0275421 32.899334,54.040741 41.340992,55.7237358    "/>
			<polygon fill="#FCD462" points="45.0178719,56.4567833 43.7855911,50.0275421 40.7713966,50.0275421 41.340992,55.7237358      32.899334,54.040741 32.1714973,55.6112404 41.5249481,57.5630608 42.4611282,66.9249039 47.0240707,66.9249039      45.3842735,58.3683929 71.6456299,63.8484383 70.5820465,61.5534363    "/>
		</g>
		<g>
			<path fill="#E56353" d="M61.445816,40.6165352c0,7.4217567-9.4944992,16.98312-9.4944992,16.98312     s-9.4944954-9.6950874-9.4944954-16.98312c0-5.2436638,4.2508316-9.4944973,9.4944954-9.4944973     S61.445816,35.3728714,61.445816,40.6165352z"/>
			<circle fill="#D15241" cx="51.9513168" cy="40.6165352" r="4.9478374"/>
		</g>
	</g>
</g>
</svg>
