<?xml version="1.0" encoding="utf-8"?>
<!-- Generator: Adobe Illustrator 21.0.2, SVG Export Plug-In . SVG Version: 6.00 Build 0)  -->
<svg xmlns="http://www.w3.org/2000/svg" xmlns:xlink="http://www.w3.org/1999/xlink" version="1.1" id="Layer_1" x="0px" y="0px" viewBox="0 0 100 100" enable-background="new 0 0 100 100" xml:space="preserve" width="512" height="512">
<g>
	<circle fill="#EFC84A" cx="50" cy="50" r="48"/>
	<path opacity="0.1" d="M67.8300171,51.2600098L42.4699707,25.8999634   c-0.0899658-0.1799927-0.2399902-0.3200073-0.4199829-0.4199829l-5.6300049-2.8699951   c-0.6699829-0.3400269-1.4799805,0.1500244-1.4799805,0.9099731v11.8600464h-1.1699829v15.9499512h-2.1900024v24.1000366   c0,0.6499634,0.289978,1.2199707,0.7600098,1.5999756l0.0499878,0.0400391L53.2019043,97.881897   C69.492981,96.8077393,83.557251,87.6124268,91.3900146,74.2999878L68.4199829,51.3299561L67.8300171,51.2600098z"/>
	<g>
		<path fill="#E56353" d="M42.0493774,25.4825459l-5.6254234-2.8700886c-0.6769791-0.345335-1.47995,0.1463947-1.47995,0.9064083    v21.0065441h7.6603928V26.3888836C42.6043968,26.0064964,42.3898849,25.656332,42.0493774,25.4825459z"/>
		<rect x="33.7716141" y="35.3800964" fill="#3A556A" width="10.0051689" height="22.6679592"/>
		<path fill="#64798A" d="M54.0346527,51.3258133v24.1084442c0,1.1408844,0.9249306,2.0657425,2.0658188,2.0657425h10.2509537    c1.1408844,0,2.0655289-0.9248581,2.0655289-2.0657425V51.3258133H54.0346527z"/>
		<path fill="#64798A" d="M31.5830479,51.3258133v24.1084442c0,1.1408844,0.9249325,2.0657425,2.0658169,2.0657425h10.2509575    c1.1408844,0,2.0655289-0.9248581,2.0655289-2.0657425V51.3258133H31.5830479z"/>
		<rect x="54.0346527" y="53.3238869" fill="#E56353" width="14.3823023" height="2.4456682"/>
		<rect x="31.5830479" y="53.3238869" fill="#FCD462" width="14.3823023" height="2.4456682"/>
	</g>
</g>
</svg>
