<?xml version="1.0" encoding="utf-8"?>
<!-- Generator: Adobe Illustrator 21.0.2, SVG Export Plug-In . SVG Version: 6.00 Build 0)  -->
<svg xmlns="http://www.w3.org/2000/svg" xmlns:xlink="http://www.w3.org/1999/xlink" version="1.1" id="Layer_1" x="0px" y="0px" viewBox="0 0 100 100" enable-background="new 0 0 100 100" xml:space="preserve" width="512" height="512">
<g>
	<circle fill="#EA8953" cx="50" cy="50" r="48"/>
	<path opacity="0.1" d="M43.4400024,23.0199585c-0.9199829-0.7799683-2.2999878-0.6699829-3.0800171,0.2600098   c-0.3499756,0.4100342-0.5199585,0.9100342-0.5199585,1.4000244c0,0.6199951,0.2699585,1.2399902,0.7799683,1.6699829   l0.1600342,0.1400146L29,40.4500122l-0.1699829-0.1400146C27.9099731,39.539978,26.5300293,39.6499634,25.75,40.5700073   C24.9799805,41.5,25.0900269,42.8699951,26.0100098,43.6499634l18.9400024,18.9400024h-16   c-1.3699951,0-2.4800415,1.1100464-2.4800415,2.4800415v3.2199707h-1.3099976   c-1.4699707,0-2.6599731,1.1900024-2.6599731,2.6600342V77.5l19.894104,19.894104C44.8720093,97.7886963,47.4110107,98,50,98   c18.99646,0,35.4123535-11.0371094,43.1932373-27.0467529L55.0800171,32.8399658L43.4400024,23.0199585z"/>
	<g>
		<g>
			<path fill="#FCD462" d="M55.0354004,68.2912598H25.1630878c-1.4709473,0-2.6630859,1.1923828-2.6630859,2.663208V77.5h35.1984863     v-6.5455322C57.6984863,69.4836426,56.5063477,68.2912598,55.0354004,68.2912598z"/>
			<path fill="#64798A" d="M51.2496338,62.5946045H28.9490986c-1.3691406,0-2.479248,1.1099854-2.479248,2.479248v3.2174072     h27.2587872v-3.2174072C53.7286377,63.7045898,52.6187744,62.5946045,51.2496338,62.5946045z"/>
		</g>
		<g>
			<path fill="#2F4859" d="M73.8595886,69.3253403L43.9952011,44.1084213l2.9061661-3.4417686l29.8643875,25.2169228     c0.8730927,0.7372208,0.9832382,2.0426331,0.2460175,2.9157257l-0.2364502,0.2800293     C76.0381012,69.9524155,74.7326813,70.062561,73.8595886,69.3253403z"/>
			<g>
				
					<rect x="33.1438751" y="29.1111774" transform="matrix(0.7640539 0.6451524 -0.6451524 0.7640539 34.2420082 -17.1335373)" fill="#64798A" width="14.8028479" height="18.2727451"/>
				<path fill="#3A556A" d="M55.0774612,32.8434143l-11.639389-9.8280754      c-0.9215927-0.7781773-2.2995529-0.6618767-3.0777321,0.259716l-0.0000305,0.0000362      c-0.7781754,0.9215946-0.6619453,2.2995625,0.2596512,3.0777378l11.6393852,9.8280754      c0.9215965,0.7781792,2.2995567,0.6618805,3.0777321-0.259716l0.0000343-0.0000343      C56.1152878,34.9995575,55.999054,33.6215935,55.0774612,32.8434143z"/>
				<path fill="#3A556A" d="M40.4706383,50.1422729l-11.639389-9.8280792      c-0.9215927-0.7781754-2.2995548-0.6618767-3.0777302,0.2597198l-0.0000324,0.0000343      c-0.7781754,0.9215965-0.6619434,2.2995605,0.2596493,3.0777397L37.652523,53.479763      c0.9215965,0.7781754,2.2995567,0.6618767,3.0777321-0.259716l0.0000305-0.0000381      C41.5084648,52.2984161,41.392231,50.9204483,40.4706383,50.1422729z"/>
			</g>
		</g>
	</g>
</g>
</svg>
