<?xml version="1.0" encoding="utf-8"?>
<!-- Generator: Adobe Illustrator 21.0.2, SVG Export Plug-In . SVG Version: 6.00 Build 0)  -->
<svg xmlns="http://www.w3.org/2000/svg" xmlns:xlink="http://www.w3.org/1999/xlink" version="1.1" id="Layer_1" x="0px" y="0px" viewBox="0 0 100 100" enable-background="new 0 0 100 100" xml:space="preserve" width="512" height="512">
<g>
	<circle fill="#EFC84A" cx="50" cy="50" r="48"/>
	<path opacity="0.1" d="M97.7816162,54.5208511L74.4299927,31.1691666   c-0.2000122-0.1900635-0.4699707-0.2999268-0.7700195-0.2999268H26.3400269c-0.6400146,0-1.1500244,0.5200195-1.1500244,1.1499023   v32.4100342H22.5v3.5699463l29.9390869,29.939209C76.3087158,96.7436295,95.5768433,78.1106949,97.7816162,54.5208511z"/>
	<g>
		<path fill="#3A556A" d="M73.6636963,30.8727093H26.3363056c-0.6343994,0-1.1488037,0.5143433-1.1488037,1.1488056v32.404541    h49.625v-32.404541C74.8125,31.3870525,74.2980957,30.8727093,73.6636963,30.8727093z"/>
		<polygon fill="#E1E6E9" points="22.5000019,64.4260559 22.5000019,67.9977112 25.5000019,69.1272888 74.5,69.1272888     77.5,67.9977112 77.5,64.4260559   "/>
		<polygon fill="#D5D6DB" points="22.5000019,67.9977112 25.5000019,69.1272888 74.5,69.1272888 77.5,67.9977112   "/>
		<rect x="44.948719" y="65.8529739" fill="#D5D6DB" width="10.1025677" height="0.717814"/>
		<rect x="28.1872578" y="33.8727112" fill="#27A2DB" width="43.625" height="27.5532227"/>
		<polygon fill="#2D93BA" points="71.8122559,33.8727112 57.1972656,33.8727112 37.6964111,61.4259338 71.8122559,61.4259338   "/>
		<circle fill="#2F4859" cx="50" cy="32.3409958" r="0.7641818"/>
		<circle fill="#64798A" cx="50" cy="32.3409958" r="0.2731096"/>
	</g>
</g>
</svg>
