<?xml version="1.0" encoding="utf-8"?>
<!-- Generator: Adobe Illustrator 21.0.2, SVG Export Plug-In . SVG Version: 6.00 Build 0)  -->
<svg xmlns="http://www.w3.org/2000/svg" xmlns:xlink="http://www.w3.org/1999/xlink" version="1.1" id="Layer_1" x="0px" y="0px" viewBox="0 0 100 100" enable-background="new 0 0 100 100" xml:space="preserve" width="512" height="512">
<g>
	<circle fill="#EA8953" cx="50" cy="50" r="48"/>
	<path opacity="0.1" d="M40.4500122,22.5c0,0-1.7000122,10.25-6.2999878,18.3399658   c-0.25,0.4400635-0.3900146,0.9300537-0.3900146,1.4300537v1.9599609c0,1.5999756,0.6699829,3.0800781,1.7600098,4.0999756   l0.0899658,0.0899658l12.4700317,12.4799805v12.75H41.789978V77.5l19.2171631,19.217041   c18.0283813-4.2321777,32.1403198-18.6156006,35.9612427-36.7987061L59.5499878,22.5H40.4500122z"/>
	<g>
		<rect x="48.0763321" y="43.0701561" fill="#64798A" width="3.8473361" height="34.4298439"/>
		<path fill="#FCD462" d="M65.854744,40.8434639C61.2496681,32.7473755,59.5511398,22.5,59.5511398,22.5H40.448864    c0,0-1.6985283,10.2473755-6.3036041,18.3434906c-0.2481155,0.4361038-0.3856964,0.925457-0.3856964,1.4271927v1.9621391    c0,2.9148865,2.2400627,5.4230537,5.1516418,5.5601883c3.1087723,0.1464386,5.6753159-2.3306885,5.6753159-5.4072838    c0,2.9897957,2.4237328,5.4134789,5.4134789,5.4134789s5.4134789-2.4236832,5.4134789-5.4134789    c0,3.0764961,2.5662498,5.5536003,5.6750221,5.4073105c2.9117737-0.1370125,5.1519394-2.6451797,5.1519394-5.5601654v-1.9621887    C66.2404404,41.7689705,66.1028595,41.2795944,65.854744,40.8434639z"/>
		
			<rect x="48.0763321" y="67.3645782" transform="matrix(-1.836970e-16 1 -1 -1.836970e-16 125.5763321 25.5763302)" fill="#3A556A" width="3.8473361" height="16.4235077"/>
	</g>
</g>
</svg>
