<?xml version="1.0" encoding="utf-8"?>
<!-- Generator: Adobe Illustrator 21.0.2, SVG Export Plug-In . SVG Version: 6.00 Build 0)  -->
<svg xmlns="http://www.w3.org/2000/svg" xmlns:xlink="http://www.w3.org/1999/xlink" version="1.1" id="Layer_1" x="0px" y="0px" viewBox="0 0 100 100" enable-background="new 0 0 100 100" xml:space="preserve" width="512" height="512">
<g>
	<circle fill="#EFC84A" cx="50" cy="50" r="48"/>
	<path opacity="0.1" d="M59.7299805,34.35923l-4.6999512-4.7000732c-0.9200439-0.9300537-2.4100342-0.9300537-3.3200073,0   C51.5,29.8692398,51.3400269,30.0992203,51.2299805,30.35923l-0.6199951-0.6201172h-0.0100098   c-0.0199585-0.0299072-0.039978-0.0499268-0.0699463-0.0799561c-0.9200439-0.9300537-2.4000244-0.9300537-3.3200073,0   c-0.9200439,0.9200439-0.9200439,2.4300537,0,3.3499756l1.3499756,1.3500977H26.7399902v3.119873h0.0300293   c-1.6500244,5.3400879-6.5,22.5-2.3300171,26.710083l33.1990356,33.1989746   c20.1480103-3.2232666,36.0982666-18.9827881,39.6206055-39.0292969L73.2600098,34.35923H59.7299805z"/>
	<g>
		<path fill="#3A556A" d="M55.0280228,33.0113869c0.9173317-0.9270897,0.9174767-2.4299107,0.0000992-3.3570461    c-0.9173813-0.9271374-2.4043884-0.9269886-3.3217163,0.0000973c-0.7769127,0.7851753-0.8885345,1.9804001-0.3493614,2.8919983    l-2.525528,2.5523872l0.8092232,0.8178291l2.5254784-2.5523376C53.068222,33.9092216,54.2511101,33.7965622,55.0280228,33.0113869    z"/>
		<path fill="#3A556A" d="M47.2081833,33.0113869c-0.9173317-0.9270897-0.9174767-2.4299107-0.0000992-3.3570461    c0.9173775-0.9271374,2.4043846-0.9269886,3.3217163,0.0000973c0.7769127,0.7851753,0.8885345,1.9804001,0.3493614,2.8919983    l2.525528,2.5523872l-0.8092232,0.8178291l-2.5254784-2.5523376    C49.167984,33.9092216,47.9850922,33.7965622,47.2081833,33.0113869z"/>
		<path fill="#E56353" d="M75.5632172,64.1903763c-9.0379639,9.1340866-42.0884743,9.1340866-51.1264343,0    c-4.9531879-5.0058708,2.8421574-28.3174782,2.8421574-28.3174782h45.4421234    C72.7210617,35.8728981,80.5164108,59.1845055,75.5632172,64.1903763z"/>
		<rect x="26.7417145" y="34.3590775" fill="#64798A" width="46.516571" height="3.1167896"/>
		<rect x="31.7104378" y="45.1532593" fill="#D15241" width="1.8697914" height="1.9149235"/>
		<rect x="33.59272" y="47.0555611" fill="#D15241" width="1.8697914" height="1.9149235"/>
		<rect x="35.462513" y="45.1532593" fill="#D15241" width="1.8697914" height="1.9149235"/>
		<rect x="37.3447914" y="47.0555611" fill="#D15241" width="1.8697914" height="1.9149235"/>
		<rect x="39.2145844" y="45.1532593" fill="#D15241" width="1.8697914" height="1.9149235"/>
		<rect x="41.0968666" y="47.0555611" fill="#D15241" width="1.8697914" height="1.9149235"/>
		<rect x="42.9666557" y="45.1532593" fill="#D15241" width="1.8697914" height="1.9149235"/>
		<rect x="44.848938" y="47.0555611" fill="#D15241" width="1.8697914" height="1.9149235"/>
		<rect x="46.7187271" y="45.1532593" fill="#D15241" width="1.8697914" height="1.9149235"/>
		<rect x="48.6010094" y="47.0555611" fill="#D15241" width="1.8697914" height="1.9149235"/>
		<rect x="50.4708023" y="45.1532593" fill="#D15241" width="1.8697914" height="1.9149235"/>
		<rect x="52.3530846" y="47.0555611" fill="#D15241" width="1.8697914" height="1.9149235"/>
		<rect x="54.2228737" y="45.1532593" fill="#D15241" width="1.8697914" height="1.9149235"/>
		<rect x="56.1051559" y="47.0555611" fill="#D15241" width="1.8697914" height="1.9149235"/>
		<rect x="57.9749451" y="45.1532593" fill="#D15241" width="1.8697914" height="1.9149235"/>
		<rect x="59.8572273" y="47.0555611" fill="#D15241" width="1.8697914" height="1.9149235"/>
		<path fill="#D15241" d="M66.4010315,45.1532593h-4.28405v3.8172226h4.28405c1.0429153,0,1.8885269-0.8545494,1.8885269-1.9086113    C68.2895584,46.0077515,67.4439468,45.1532593,66.4010315,45.1532593z M66.4010315,48.0130234h-0.964035v-1.9023018h0.964035    c0.5190277,0,0.9409103,0.4263687,0.9409103,0.9509163S66.9200592,48.0130234,66.4010315,48.0130234z"/>
	</g>
</g>
</svg>
