<?xml version="1.0" encoding="utf-8"?>
<!-- Generator: Adobe Illustrator 21.0.2, SVG Export Plug-In . SVG Version: 6.00 Build 0)  -->
<svg xmlns="http://www.w3.org/2000/svg" xmlns:xlink="http://www.w3.org/1999/xlink" version="1.1" id="Layer_1" x="0px" y="0px" viewBox="0 0 100 100" enable-background="new 0 0 100 100" xml:space="preserve" width="512" height="512">
<g>
	<circle fill="#334D5C" cx="50" cy="50" r="48"/>
	<path opacity="0.1" d="M97.0846558,59.338562L72.4699707,34.7299805c-0.9799805-1.0200195-2.2299805-1.8300171-3.6899414-2.289978   c-0.3200073-0.1000366-0.6300049-0.1700439-0.9500122-0.2300415l-8.8400269-8.8399658l-5.4099731,3.5700073l-2.2600098-2.2600098   c-0.1900024-0.2399902-0.4400024-0.460022-0.7299805-0.6699829V24c-0.0800171-0.0499878-0.1700439-0.1099854-0.2600098-0.1700439   c-0.0300293-0.0199585-0.0700073-0.0499878-0.1100464-0.0699463c-0.8799438-0.5599976-2.0499878-1-3.1899414-1.1700439   c0,0,0,0-0.0100098,0C46.6500244,22.5299683,46.2700195,22.5,45.9099731,22.5c-0.0099487,0-0.0099487,0-0.0199585,0   c0,0,0,0-0.0100098,0c-0.9400024,0.0199585-1.7999878,0.2600098-2.3900146,0.8299561   c-2.7700195,2.710022-3.289978,6.4400024-3.2399902,9.1100464c-0.4000244,0.0700073-0.7999878,0.2099609-1.1699829,0.4500122   c-0.3600464,0.2399902-0.6500244,0.5499878-0.8699951,0.8999634c-2.4400024-1.0999756-6.0700073-2.0899658-9.6500244-0.6099854   c-0.7600098,0.3099976-1.3200073,1.0100098-1.7000122,1.8800049h-0.0100098c0,0.0100098,0,0.0100098,0,0.0199585   c-0.1499634,0.3300171-0.2699585,0.6900024-0.3699951,1.0600586c-0.1799927,0.7099609-0.2699585,1.4799805-0.2699585,2.2099609   c0,0.4100342,0.0299683,0.8200073,0.0899658,1.1900024c0.0100098,0.039978,0.0200195,0.0800171,0.0200195,0.1199951   c0.0200195,0.1000366,0.039978,0.210022,0.0700073,0.3099976c0.0799561,0.3500366,0.1900024,0.6700439,0.3299561,0.9400024   c0.1000366,0.1900024,0.210022,0.3599854,0.3400269,0.4899902l1.8300171,1.8300171L22.5,47.4500122l4.289978,6.5   l7.5599976,7.5599976V77.5l20.2738037,20.2738037C75.8451538,95.744812,93.0288086,79.9018555,97.0846558,59.338562z"/>
	<g>
		<g>
			<g>
				<path fill="#FCD462" d="M68.7757797,32.4436531c-4.1466293-1.3044643-8.7099152,0.7137642-10.5336113,4.6597252      c-1.0987587,2.3775063-1.0430222,4.9564209-0.0954704,7.1480217c1.0280037,2.3777084,1.1758347,5.0426025,0.2459602,7.4604187      l-0.1240234,0.3224754l6.2268257,2.3947906l0.0559464-0.145462c0.9327774-2.4253693,2.7438583-4.4514847,5.1241379-5.4939156      c2.0629196-0.9033852,3.7779007-2.5986328,4.6502075-4.8667755      C76.1250229,39.2445526,73.631958,33.9713287,68.7757797,32.4436531z"/>
				<polygon fill="#DC8744" points="67.4919357,42.0612183 66.5194626,39.8732605 64.3315048,40.8457375 63.0606461,37.9858627       59.9028015,52.6627808 60.574646,52.9211655 63.296524,40.2680473 63.970623,41.7840843 66.158577,40.8116074       67.1310577,42.9995651 68.6949768,42.3044548 62.5793228,53.6921501 63.2482491,53.9494133 70.3039398,40.8113747     "/>
			</g>
			<g>
				
					<rect x="55.9183006" y="36.3986893" transform="matrix(0.3589606 -0.9333527 0.9333527 0.3589606 1.6576301 76.2362595)" fill="#FCD462" width="0.8209424" height="1.0253763"/>
				
					<rect x="75.6584167" y="43.990593" transform="matrix(0.3589606 -0.9333527 0.9333527 0.3589606 7.2259007 99.5274658)" fill="#FCD462" width="0.8209424" height="1.0253763"/>
				
					<rect x="69.4820938" y="30.426796" transform="matrix(0.3589606 -0.9333527 0.9333527 0.3589606 16.087368 85.0977249)" fill="#FCD462" width="1.0253763" height="0.8209424"/>
				
					<rect x="61.4934044" y="30.5316257" transform="matrix(0.9138035 -0.4061566 0.4061566 0.9138035 -7.2728691 27.8185406)" fill="#FCD462" width="0.8208547" height="1.0249346"/>
				
					<rect x="70.0834045" y="49.8580971" transform="matrix(0.9138035 -0.4061566 0.4061566 0.9138035 -14.3820143 32.9733009)" fill="#FCD462" width="0.8208547" height="1.0249346"/>
				
					<rect x="75.3496017" y="36.0018997" transform="matrix(0.9138035 -0.4061566 0.4061566 0.9138035 -8.250062 33.9504929)" fill="#FCD462" width="1.0249346" height="0.8208547"/>
				
					<rect x="56.0231285" y="44.5918999" transform="matrix(0.9138035 -0.4061566 0.4061566 0.9138035 -13.4048214 26.8413486)" fill="#FCD462" width="1.0249346" height="0.8208547"/>
			</g>
		</g>
		<g>
			<rect x="34.3529549" y="49.3582573" fill="#27A2DB" width="43.1470451" height="28.1417446"/>
			<rect x="52.0550766" y="49.3582573" fill="#E56353" width="7.7428064" height="28.1417446"/>
			<rect x="52.9895592" y="49.3582573" fill="#FCD462" width="0.7020383" height="28.1417446"/>
			<rect x="58.1613617" y="49.3582573" fill="#FCD462" width="0.7020383" height="28.1417446"/>
		</g>
		<g>
			<path fill="#E56353" d="M51.3214493,24.6757298c-1.4117546-1.7127399-5.992218-3.1415596-7.8290672-1.3453712     c-4.8001862,4.6939526-2.8602791,12.4683208-2.8602791,12.4683208s3.6108513-3.8900642,6.0038834-7.7034302     C46.6359863,28.0952492,49.4040642,23.3939419,51.3214493,24.6757298z"/>
			<path fill="#FCD462" d="M49.1244354,24.2450504c-1.5037193,0.9419575-2.7849426,3.0459538-3.0293846,3.4620171     c-1.6037178,2.5389194-3.9091415,5.5559406-5.1573143,7.0199375c-0.1733513-1.652523-0.4863892-7.4484215,3.0948792-10.9406414     c0.0353661-0.0345459,0.0797844-0.0670834,0.1269417-0.1016312c0.051651-0.0379124,0.1052361-0.0772057,0.1571083-0.1258755     c0.3977699-0.3732166,1.8755226-0.8373394,2.7144012-0.9724503c-0.386776-0.0600471-0.771286-0.0900726-1.1427307-0.0848446     c-0.7341118,0.2141247-1.4977531,0.51437-1.8084068,0.805727c-0.039093,0.036602-0.082325,0.067852-0.1249466,0.0991039     c-0.0546722,0.0401096-0.1112823,0.0816002-0.1641159,0.1331272c-4.0924263,3.990694-3.2588272,10.8517952-3.1502838,11.621048     l0.0522881,0.3708305l0.2491837-0.2818947c1.1715889-1.3251686,3.7161102-4.619957,5.4541664-7.3725796     c0.2350159-0.3998432,1.487175-2.4394016,2.9118195-3.3393974c0.4498863-0.2824345,0.9520607-0.4371815,1.280777-0.532753     c-0.1162376-0.0851479-0.2381058-0.1686535-0.3671265-0.2494087     C49.898819,23.858799,49.4993324,24.0096111,49.1244354,24.2450504z"/>
			<path fill="#D15241" d="M46.6359863,28.0952492c-2.3930321,3.8133659-6.0038834,7.7034302-6.0038834,7.7034302     l8.8718452-6.4869308c0,0,2.833374-2.4729195,2.1373596-4.1263809c-0.071907-0.1707935-0.1812935-0.341526-0.3198586-0.5096378     C49.4040642,23.3939419,46.6359863,28.0952492,46.6359863,28.0952492z"/>
			<path fill="#E56353" d="M26.7149982,40.909668c-1.0190926-1.9717979-0.5303612-6.7449837,1.8436928-7.7269096     c6.2040691-2.5660305,12.5880146,2.2764168,12.5880146,2.2764168s-4.9970512,1.7889404-9.4444103,2.4884758     C31.7022953,37.9476509,26.291048,38.6425934,26.7149982,40.909668z"/>
			<path fill="#FCD462" d="M27.1835289,38.7204132c1.4576492-1.0117874,3.8960571-1.3617897,4.3747425-1.4228058     c2.9651394-0.4753532,6.6459217-1.4076881,8.4829464-1.9791298c-1.4510117-0.809597-6.6562119-3.3779221-11.2758732-1.4596367     c-0.0456753,0.0189209-0.0930653,0.0469551-0.1433811,0.0767136c-0.0551777,0.0325661-0.1123848,0.0663681-0.1775398,0.0949059     c-0.4996243,0.2188301-1.5077667,1.3947601-1.9620571,2.112812c0.096983-0.3792076,0.2206764-0.7445145,0.3716354-1.0839386     c0.4857063-0.5906448,1.0622063-1.1745453,1.4522953-1.3454971c0.0490303-0.0215378,0.0947723-0.0489883,0.140274-0.0758781     c0.0583878-0.0344772,0.1188049-0.0701942,0.186964-0.0984917c5.2790508-2.1920776,11.258707,1.2739525,11.9231968,1.6764221     l0.320343,0.1939812l-0.3572006,0.1181641c-1.6792679,0.5556641-5.7094879,1.5985184-8.9239521,2.1132851     c-0.460062,0.0587311-2.8277931,0.4073677-4.2157536,1.3629723c-0.4366703,0.3024635-0.7765274,0.7032394-0.9937325,0.9678383     c-0.0325432-0.1403656-0.0613613-0.2852592-0.0848331-0.4356499     C26.523735,39.2803497,26.8195686,38.9724274,27.1835289,38.7204132z"/>
			<path fill="#D15241" d="M31.7022953,37.9476509c4.4473591-0.6995354,9.4444103-2.4884758,9.4444103-2.4884758     l-9.4545097,5.603756c0,0-3.3883038,1.6317902-4.6345272,0.3413239     c-0.1287212-0.1333122-0.2426414-0.3010521-0.3426704-0.4945869     C26.291048,38.6425934,31.7022953,37.9476509,31.7022953,37.9476509z"/>
			
				<rect x="21.0317478" y="34.7693787" transform="matrix(0.834708 -0.5506929 0.5506929 0.834708 -14.2026138 30.0113983)" fill="#27A2DB" width="43.7209358" height="7.7905755"/>
			
				<rect x="39.1348419" y="34.7693787" transform="matrix(0.834708 -0.5506929 0.5506929 0.834708 -14.2026138 30.0113983)" fill="#E56353" width="7.5147457" height="7.7905755"/>
			
				<rect x="40.4566383" y="36.151474" transform="matrix(0.834708 -0.5506929 0.5506929 0.834708 -15.3099928 29.0862026)" fill="#FCD462" width="0.6813601" height="7.7905755"/>
			
				<rect x="44.646431" y="33.3872871" transform="matrix(0.834708 -0.5506929 0.5506929 0.834708 -13.0952358 30.9365921)" fill="#FCD462" width="0.6813601" height="7.7905755"/>
			<path fill="#D15241" d="M42.4877167,47.9007034c-0.4568024-2.0029716-1.4786758-3.1344604-3.3408165-5.3763924     c-2.1889191,1.9513397-3.374733,2.9244652-4.1369514,4.8399963c0.1963615-5.1100769,1.2405701-7.9086456,3.3133087-12.6040611     c1.1365433,0.0815392,1.7048149,0.122303,2.841362,0.2038193C42.4865761,39.9029884,43.0854874,42.819458,42.4877167,47.9007034z     "/>
			<path fill="#FCD462" d="M38.8336411,34.7968445c-0.0368156-0.0026398-0.0706329-0.0050659-0.108593-0.0077896     c-0.0185509-0.0013313-0.0400505-0.0028725-0.0588837-0.0042229c-1.3637161,3.377903-2.7230072,7.3663216-2.8308868,11.0467491     c0.229969-0.3264694,0.4884491-0.6370735,0.7793427-0.9492416c0.3160782-4.0191689,1.1980896-6.2670784,2.3091583-10.0790062     C38.887722,34.8007469,38.861515,34.7988434,38.8336411,34.7968445z"/>
			<path fill="#FCD462" d="M40.8217163,34.9394531c-0.018837-0.0013504-0.0403366-0.0028915-0.0588875-0.0042229     c-0.0379601-0.0027237-0.0717316-0.005146-0.1086426-0.0077934c-0.0278244-0.0019951-0.0540848-0.0038567-0.0901375-0.006443     c0.5074081,3.9280968,1.0321121,6.2769585,0.7216835,10.2966309c0.2393265,0.3502274,0.4466133,0.6942406,0.6235275,1.0498962     C42.3728409,42.6125374,41.6467934,38.4744606,40.8217163,34.9394531z"/>
			<path fill="#D15241" d="M51.3371391,42.0623589c-1.6616631-1.2080765-2.2998009-2.5927315-3.6281815-5.1868095     c2.65522-1.244545,4.0164375-1.9518051,6.0773659-1.8988266c-4.7751389-1.830162-7.758831-1.9713516-12.8910637-1.9133377     c-0.3722382,1.0769501-0.5583649,1.6154213-0.9306259,2.6923599     C43.9850044,38.9144096,46.4305649,40.6125679,51.3371391,42.0623589z"/>
			<path fill="#FCD462" d="M40.7280846,33.5470009c0.0120583-0.0348854,0.0231323-0.0669327,0.0355644-0.1028976     c0.0060768-0.0175781,0.0131187-0.0379524,0.0192871-0.0557976c3.6420135,0.0754051,7.8435593,0.3951035,11.2695503,1.7440834     c-0.3906212,0.0829582-0.777874,0.1983757-1.1793213,0.3429718c-3.8193359-1.2908554-6.2329674-1.3644867-10.1745834-1.8429413     C40.710392,33.5982552,40.7189522,33.5734138,40.7280846,33.5470009z"/>
			<path fill="#FCD462" d="M40.076931,35.4308205c0.0061722-0.017849,0.0132141-0.0382233,0.0192871-0.0558014     c0.0124321-0.035965,0.0234947-0.0679665,0.0355835-0.1029434c0.0091133-0.0263672,0.0177383-0.051239,0.0295448-0.0854034     c3.4115868,2.0120888,5.364521,3.4186859,9.1820908,4.7149353c0.2278061,0.35783,0.4625092,0.683754,0.7198639,0.9863358     C46.5207405,39.875988,43.00214,37.5802803,40.076931,35.4308205z"/>
			<path fill="#CE412D" d="M39.0847893,32.8935966c-1.3868256,0.9149475-1.7740669,2.7737961-0.8649101,4.151844l5.022171-3.313343     C42.3328934,32.3540497,40.4716148,31.9786472,39.0847893,32.8935966z"/>
		</g>
	</g>
</g>
</svg>
