<?xml version="1.0" encoding="utf-8"?>
<!-- Generator: Adobe Illustrator 21.0.2, SVG Export Plug-In . SVG Version: 6.00 Build 0)  -->
<svg xmlns="http://www.w3.org/2000/svg" xmlns:xlink="http://www.w3.org/1999/xlink" version="1.1" id="Layer_1" x="0px" y="0px" viewBox="0 0 100 100" enable-background="new 0 0 100 100" xml:space="preserve" width="512" height="512">
<g>
	<circle fill="#EA8953" cx="50" cy="50" r="48"/>
	<path opacity="0.1" d="M95.6523438,64.8340836L55.8300171,25.0191422l-0.3200073-0.3199463   C54.0800171,23.3392105,52.1400146,22.4991226,50,22.4991226c-4.0100098,0-7.3300171,2.9400635-7.9400024,6.7800293   c-3.7299805,0.7099609-6.539978,3.9799805-6.539978,7.9100342c0,1.0299072,0.2099609,2.0100098,0.5599976,2.9100342h-0.0300293   c-0.1199951,0-0.2299805,0.1298828-0.1799927,0.2600098l0.3400269,0.8898926l0.3399658,0.9000244l1.3300171,3.4901123   l0.4000244,1.0299072l0.0599976,0.1600342L39.210022,49.10923l0.3999634,1.0499268L40,51.1791763l1.5200195,4l0.1999512,0.5200195   l0.460022,1.2199707l1.2600098,3.2999268l1.3400269,3.5l0.25,0.6601563l1,2.619873l0.8699951,2.2900391l3.1300049,8.2099609   l17.276062,17.2719727C80.7040405,89.5882339,91.1906738,78.5737076,95.6523438,64.8340836z"/>
	<g>
		<g>
			<circle fill="#27A2DB" cx="49.9999924" cy="30.5554104" r="8.0554123"/>
			<g>
				<path fill="#44C4A1" d="M50.4625626,41.344429c0.7351189-1.2150574,1.1659126-2.6347885,1.1659126-4.1585732      c0-4.4488869-3.6064987-8.0554123-8.0553627-8.0554123s-8.0553627,3.6065254-8.0553627,8.0554123      c0,1.5237846,0.4307938,2.9435158,1.1659126,4.1585732H50.4625626z"/>
				<path fill="#E56353" d="M63.3163376,41.344429c0.7351227-1.2150574,1.1659164-2.6347885,1.1659164-4.1585732      c0-4.4488869-3.6065025-8.0554123-8.0553627-8.0554123s-8.0554657,3.6065254-8.0554657,8.0554123      c0,1.5237846,0.4308929,2.9435158,1.1660156,4.1585732H63.3163376z"/>
			</g>
		</g>
		<path fill="#FCD462" d="M50.0297089,77.5L35.8718071,40.3596916c-0.0530586-0.1391792,0.0636559-0.2823639,0.2108307-0.2594223    c9.2784157,1.4464531,18.5568352,1.4464264,27.8352509-0.0000801c0.1470528-0.0229263,0.263752,0.1200294,0.2109261,0.2591705    L50.0297089,77.5z"/>
		<path fill="#F6C358" d="M37.5175934,41.1806068l2.4135742,2.4136353l-2.0463867,2.0463257l0.3903809,1.0238037    l2.3630371-2.3630981l2.4138184,2.4136963l-2.4138184,2.4138184l-2.3005371-2.300415l0.8710938,2.2850952l0.7224121,0.7224121    l-0.3237305,0.3236694l0.3903809,1.0238037l0.6403809-0.6405029l2.4135742,2.4135132l-1.7216797,1.7217407l0.3901367,1.0238037    l2.0385742-2.0385132l2.4138184,2.4138184l-2.4138184,2.4137573l-1.5761719-1.5761719l1.2602539,3.3060913l0.315918-0.3158569    l2.4135742,2.4136963l-1.3972168,1.3971558l0.3903809,1.0237999l1.7138672-1.7138634l2.4135742,2.4136925l-2.4133301,2.4134521    l-0.8522949-0.8521729l0.8710938,2.2850952l2.3950195,2.3948364l-1.072998,1.072998l0.3903809,1.0238037l1.3896484-1.3897705    l1.4277344,1.4279175l0.3891602-1.0250244l-1.1098633-1.1099243l2.4133301-2.4134521l0.0246582,0.0247192l0.8955078-2.3591309    l-0.920166,0.9203491l-2.4138184-2.4136963l2.4140625-2.4139366l1.7419434,1.7420616l0.3891602-1.0249596l-1.4240723-1.4240723    l2.4138184-2.4138184l0.338623,0.338623l0.3891602-1.0249634l-0.020752-0.0206909l0.0458984-0.0459595l0.8652344-2.2791748    l-1.6181641,1.618103l-2.4138184-2.4138184l2.4135742-2.4135132l2.0561523,2.0562134l0.3891602-1.0250244l-1.7382813-1.7382202    l2.4135742-2.4136353l0.652832,0.652832l0.3891602-1.0249634l-0.3349609-0.3349609l0.744873-0.744873l0.8652344-2.2794189    l-2.3171387,2.3173218l-2.4135742-2.4134521l2.4138184-2.4136963l2.369873,2.3701172l0.3891602-1.0249634l-2.052002-2.052124    l2.4138184-2.4136963l0.9665527,0.9666138l0.3891602-1.0249634l-0.6486816-0.6486816l0.2631836-0.2633057l-0.0415039-0.0413818    c-0.5690918,0.0855103-1.1381836,0.1583252-1.7075195,0.2329712l0.0717773,0.0717163l-2.4138184,2.4136353l-2.0117188-2.0117798    c-0.7907715,0.0651245-1.581543,0.1098022-2.3723145,0.1539307l-1.857666,1.8577881l-1.7294922-1.7294312    c-0.4624023,0.0072021-0.9245605,0.0270386-1.3869629,0.0270386l2.4094238,2.4093628l-2.4135742,2.4135132l-2.4135742-2.4136353    l2.4089355-2.4092407c-0.4621582,0-0.9245605-0.0198364-1.3869629-0.0270386l-1.7290039,1.729187l-1.8574219-1.8574829    c-0.7907715-0.0441284-1.581543-0.0888062-2.3723145-0.1539307l-2.0117188,2.0114746l-2.4135742-2.4136353l0.0712891-0.0713501    c-0.5690918-0.074646-1.1381836-0.1473999-1.7072754-0.2329102l-0.0412598,0.0411987l0.2631836,0.2630615l-0.6481934,0.6481934    l0.3901367,1.0238647L37.5175934,41.1806068z M41.3452301,49.8358192l2.4138184-2.4138184l2.4135742,2.4135132    l-2.4138184,2.4138184L41.3452301,49.8358192z M44.4658356,52.9563637l2.4138184-2.4138184l2.4138184,2.4138184    l-2.4138184,2.4138184L44.4658356,52.9563637z M50.0005035,53.6633949l2.4135742,2.4135742l-2.4138184,2.4138184    l-2.4135742-2.4135742L50.0005035,53.6633949z M44.4658356,59.1980019l2.4138184-2.4138184l2.4135742,2.4136353    l-2.4138184,2.4138794L44.4658356,59.1980019z M52.4138336,68.5602417l-2.4133301,2.4134521l-2.4138184-2.4136963    l2.4133301-2.4134521L52.4138336,68.5602417z M50.0000153,64.7324829l-2.4135742-2.4137535l2.4138184-2.4138794    l2.4138184,2.4137573L50.0000153,64.7324829z M55.5349274,59.1977577l-2.4138184,2.4138184l-2.4138184-2.4137573    l2.4138184-2.4138184L55.5349274,59.1977577z M53.121109,55.3699379l-2.4135742-2.4135742l2.4135742-2.4135742    l2.4135742,2.4135742L53.121109,55.3699379z M58.6552887,49.8356972l-2.4135742,2.4136353l-2.4135742-2.4135132    l2.4135742-2.4135742L58.6552887,49.8356972z M56.2417145,41.1806679l2.4138184,2.4138184l-2.4138184,2.4136963    l-2.4138184-2.4138184L56.2417145,41.1806679z M53.1208649,44.3013954l2.4138184,2.4138184L53.121109,49.128727    l-2.4138184-2.4138184L53.1208649,44.3013954z M52.4140778,49.8357582l-2.4135742,2.4135742l-2.4138184-2.4138184    l2.4135742-2.4135742L52.4140778,49.8357582z M49.2932281,46.7149086l-2.4135742,2.4136353l-2.4135742-2.4135742    l2.4135742-2.4136963L49.2932281,46.7149086z M43.7590485,41.1805458l2.4135742,2.4136963l-2.4135742,2.4136963    l-2.4138184-2.4136963L43.7590485,41.1805458z"/>
	</g>
</g>
</svg>
