<?xml version="1.0" encoding="utf-8"?>
<!-- Generator: Adobe Illustrator 21.0.2, SVG Export Plug-In . SVG Version: 6.00 Build 0)  -->
<svg xmlns="http://www.w3.org/2000/svg" xmlns:xlink="http://www.w3.org/1999/xlink" version="1.1" id="Layer_1" x="0px" y="0px" viewBox="0 0 100 100" enable-background="new 0 0 100 100" xml:space="preserve" width="512" height="512">
<g>
	<circle fill="#45B39C" cx="50" cy="50" r="48"/>
	<path opacity="0.1" d="M88.4768066,78.7012711L75.2000122,65.4191666h-0.0100098   c-0.4700317-0.5-0.9899902-0.9400635-1.5200195-1.3399658c-1.7699585-1.3300781-3.8399658-2.1899414-6.0199585-2.5900879   L30.2199707,24.0591812C29.9799805,23.7291031,29.5,23.6891861,29.210022,23.9791031   C22.1900024,31.0892105,22.5,38.6292496,22.5,38.6292496s0.0200195,0.0599365,0.0499878,0.1599121   c0.0300293,0.0600586,0.0499878,0.1400146,0.0800171,0.2299805c0.0100098,0.0300293,0.0200195,0.0500488,0.0299683,0.0800781   c0.0400391,0.119873,0.0800171,0.2600098,0.1300049,0.4199219c0.0200195,0.0500488,0.0400391,0.1101074,0.0500488,0.1600342   c0.1299438,0.3900146,0.2799683,0.8900146,0.4499512,1.4699707c0.0200195,0.0699463,0.0400391,0.1400146,0.0599976,0.210083   c0.1800537,0.6298828,0.3800049,1.3499756,0.6000366,2.1699219c0.0199585,0.0800781,0.039978,0.1500244,0.0700073,0.2299805   c0.2199707,0.8500977,0.4599609,1.7800293,0.6999512,2.8000488c0.0200195,0.0899658,0.0500488,0.1799316,0.0700073,0.2700195   c0.2400513,1.0300293,0.5,2.1499023,0.75,3.3399658c0.0200195,0.0999756,0.0400391,0.210083,0.0599976,0.3199463   c0.2600098,1.2000732,0.5,2.4700928,0.7400513,3.8100586c0.0199585,0.1199951,0.039978,0.2399902,0.0699463,0.3699951   c0.2300415,1.3399658,0.460022,2.75,0.6600342,4.210083c0.0200195,0.0699463,0.0299683,0.1499023,0.039978,0.2299805   c-0.4099731,0.1999512-0.75,0.4899902-0.9599609,0.8798828c-0.5,0.9400635-0.1900024,2.1501465,0.6999512,3.1101074   l0.8400269,0.8399658c0.3800049,3.7399902,0.6099854,7.7299805,0.5900269,11.8499756l22.1986694,22.1987305   C66.0300293,97.8353043,79.8134766,90.2964859,88.4768066,78.7012711z"/>
	<g>
		<g>
			<path fill="#E56353" d="M77.4999466,70.6702652c0-2.917778-1.8301239-5.0898895-3.8321686-6.5932846     c-2.3020248-1.7286682-5.1070557-2.6568298-7.9809036-2.8258667l-3.8338089-0.2254982     c-4.4068909-0.2592087-8.4059105-2.6403313-10.7617226-6.3736954     c-6.3010521-9.9855614-18.4069557-27.1084805-20.8761139-30.5891304c-0.2349358-0.3311768-0.7166462-0.3701878-1.001997-0.081316     c-7.0253963,7.1121178-6.7111111,14.6478825-6.7111111,14.6478825l8.4229641,8.4230804     c6.8502254,1.7124405,16.1168537,18.9758911,19.5871258,25.893425c0.8755989,1.7453995,2.6571732,2.8443604,4.60989,2.8443527     l16.9277725-0.0000458C77.5776443,75.0975952,77.4999466,70.6702652,77.4999466,70.6702652z"/>
			<path fill="#2F4859" d="M76.8398743,72.9827957H50.5330124c0.0014648,0.0026321,0.0031776,0.0049515,0.0046425,0.0075226     c0.5496025,1.075058,1.4444199,1.8991013,2.5108643,2.3663101c0.0378952,0.0165634,0.0787239,0.0264664,0.1168633,0.0421143     c0.1779861,0.0729141,0.3574371,0.1421661,0.5437355,0.1950378c0.085083,0.0240784,0.1740761,0.0352631,0.2603798,0.055069     c0.144001,0.0329437,0.2862892,0.0706558,0.4334717,0.0912552c0.2246819,0.0314178,0.4532738,0.0460205,0.6838226,0.0476151     c0.011982,0.000061,0.0234718,0.0024414,0.0354538,0.0024414h16.9276733l0.0002441-0.000061     c1.0402832-0.1820831,1.8720245-0.4378128,2.5604935-0.7325363     C75.7340622,74.4964676,76.4203339,73.7237701,76.8398743,72.9827957z"/>
			<path fill="#EBF0F3" d="M50.5330124,72.9827957h26.3068619c0.1990051-0.3509598,0.3339615-0.6906662,0.4307785-1.0014114     H50.0242386c0.0112457,0.0221252,0.0205345,0.0408325,0.0317802,0.0628357     c0.1623383,0.3188095,0.3188095,0.6277161,0.461834,0.9130325C50.5224991,72.9661713,50.5286102,72.973877,50.5330124,72.9827957     z"/>
			<path fill="#D15241" d="M22.502121,38.6293564c0,0,5.8792877,17.0113602,5.7802372,37.1608124h2.6427269V47.0524368     C30.9250851,47.0524368,28.612524,42.0976143,22.502121,38.6293564z"/>
		</g>
		<g>
			<path fill="#FCD462" d="M35.9495888,59.9925461l-2.997345,0.590992     c-0.1951141,0.0385895-0.3690071,0.1473885-0.4888382,0.3059273l-2.5006962,3.3084641     c-0.1198311,0.1585388-0.1772079,0.3557129-0.1609554,0.5537567l0.2490368,3.0450668     c0.0187721,0.2296371,0.1346855,0.4402771,0.3185425,0.5792465l10.1514606,7.672966     c0.356369,0.2693634,0.8637657,0.1987228,1.1330185-0.1575012l5.2490044-6.944519     c0.269249-0.3562241,0.1987801-0.8636475-0.157589-1.1330032l-10.1515083-7.6730042     C36.4099083,60.0020027,36.1756363,59.9479561,35.9495888,59.9925461z"/>
			<path fill="#DC8744" d="M40.9473877,74.9610062l-9.7865219-7.3971252l-0.228384-2.7830963l2.3562832-3.1174011     l2.7398224-0.5395813l9.7865219,7.3971252L40.9473877,74.9610062z M31.8810978,67.168129l8.9202099,6.7423248     l3.9632492-5.2434464l-8.920208-6.7423248l-2.1298027,0.4192009l-2.0112152,2.6608696L31.8810978,67.168129z"/>
			<g>
				<path fill="#DC8744" d="M38.6374016,65.1681061c0.031395,0.3172684-0.0526695,0.608902-0.2529869,0.8739243      c-0.2005005,0.2652664-0.4596786,0.425705-0.7769203,0.4825439c-0.3174248,0.0570831-0.6057968-0.0129547-0.8646889-0.2086411      s-0.4045258-0.4525299-0.4361-0.7695541c-0.031395-0.3172684,0.0531616-0.6085358,0.253479-0.873558      c0.2005005-0.2652664,0.4591866-0.4260712,0.7764282-0.4829102c0.3177299-0.0564651,0.6057968,0.0129547,0.8646889,0.2086411      C38.4606857,64.5946045,38.6058273,64.8510818,38.6374016,65.1681061z M41.2238693,66.8437881l-6.268013,1.8801346      l-0.7771645-0.5874176l6.268013-1.8801346L41.2238693,66.8437881z M37.4824486,65.8572235      c0.1263123-0.033577,0.2353897-0.1106186,0.326561-0.2312317c0.0909843-0.1203766,0.1333771-0.247818,0.1274872-0.3817062      c-0.0065689-0.1340179-0.058609-0.2384567-0.1566734-0.3125763c-0.0985565-0.0744934-0.2112656-0.0945816-0.3375778-0.0610046      c-0.1264954,0.0338287-0.2355728,0.1108627-0.3265572,0.2312393c-0.0911713,0.1206207-0.133564,0.2480621-0.1274872,0.3817062      c0.006382,0.1342545,0.0581169,0.2380753,0.1566734,0.3125687      C37.2434273,65.8707123,37.3559532,65.8910522,37.4824486,65.8572235z M39.1851654,69.4166718      c0.031395,0.3172684-0.0529747,0.6082916-0.2532921,0.8733139c-0.2005005,0.2652664-0.4593735,0.4263153-0.7771034,0.4827805      c-0.3172417,0.056839-0.6053085-0.0125809-0.8646927-0.2086334c-0.2588921-0.1956863-0.4040337-0.4521637-0.4359131-0.7698059      c-0.031395-0.3172684,0.0531616-0.6085358,0.253479-0.873558c0.2003136-0.2650146,0.4591866-0.4260712,0.7769165-0.4825363      c0.3172417-0.056839,0.6053085,0.0125885,0.8646927,0.2086411      C39.0081444,68.8425522,39.153286,69.0990295,39.1851654,69.4166718z M38.0329018,70.1267014      c0.1264954-0.0338287,0.2350807-0.1112366,0.3260689-0.2316055c0.0911713-0.1206207,0.1338692-0.2474442,0.1279755-0.38134      c-0.006382-0.1342545-0.0586052-0.2384491-0.1566734-0.3125687c-0.0985527-0.0744934-0.2110786-0.0948334-0.337574-0.0610046      c-0.1264954,0.0338211-0.2353897,0.1106186-0.326561,0.2312393c-0.0909843,0.120369-0.1333771,0.2478104-0.1274834,0.3816986      c0.0058899,0.1338959,0.0581131,0.2380829,0.1566696,0.3125763S37.9064064,70.1605225,38.0329018,70.1267014z"/>
			</g>
			
				<ellipse transform="matrix(0.6029818 -0.7977549 0.7977549 0.6029818 -37.7219505 50.9010773)" fill="#FFFFFF" cx="32.2784767" cy="63.349144" rx="0.8586543" ry="0.8586543"/>
		</g>
		<path fill="#27A2DB" d="M32.0598488,63.1930161c-0.2685566,0.4946289-0.79883,0.815918-1.4921894,0.9042969    c-0.7275391,0.0913086-1.5322266-0.0800781-2.2753906-0.4829102c-1.5068359-0.8178711-2.2705078-2.3374023-1.7011719-3.3881836    c0.2685547-0.4946289,0.7988281-0.815918,1.4921875-0.9042969c0.1279297-0.0161133,0.2587891-0.0239258,0.390625-0.0239258    c0.6171875,0,1.2724609,0.1748047,1.8847656,0.5068359c0.7824707,0.4241943,1.3579102,1.0380249,1.6569843,1.6769409    l0.3251953-0.4302368c-0.3645039-0.652832-0.956789-1.2594604-1.7438984-1.6861572    c-0.8330078-0.4526367-1.7480469-0.6474609-2.5771484-0.5390625c-0.8574219,0.1088867-1.5205078,0.5214844-1.8681641,1.1616211    c-0.7001953,1.2929688,0.1523438,3.1166992,1.9023438,4.065918c0.6845703,0.371582,1.4238281,0.5673828,2.125,0.5673828    c0.1523438,0,0.3037109-0.0092773,0.4521484-0.0283203c0.8427734-0.1069946,1.4941425-0.5101929,1.8464375-1.1317749    l-0.4118652-0.2843628C32.0630226,63.1819687,32.0627785,63.1878281,32.0598488,63.1930161z"/>
		<path fill="#D15241" d="M30.9250813,61.5616684V47.0523911c0,0-2.3125-4.9547729-8.4228516-8.4230347    c0,0,3.3193359,9.6069946,4.9277344,22.932312H30.9250813z"/>
	</g>
</g>
</svg>
