<?xml version="1.0" encoding="utf-8"?>
<!-- Generator: Adobe Illustrator 21.0.2, SVG Export Plug-In . SVG Version: 6.00 Build 0)  -->
<svg xmlns="http://www.w3.org/2000/svg" xmlns:xlink="http://www.w3.org/1999/xlink" version="1.1" id="Layer_1" x="0px" y="0px" viewBox="0 0 100 100" enable-background="new 0 0 100 100" xml:space="preserve" width="512" height="512">
<g>
	<circle fill="#EFC84A" cx="50" cy="50" r="48"/>
	<path opacity="0.1" d="M50,35.1591568c-6.7999878,0-13.6099854-3.6300049-16.5300293-0.7099609   c-3.25,3.2399902-1.8099976,15.039917-0.7599487,21.3800049C26.4799805,56.9491959,22.5,58.6591568,22.5,60.5792007   c0,0.4699707,0.2399902,0.9299316,0.7000122,1.3699951l35.2874146,35.2874756   c17.8691406-3.1901855,32.3104248-16.2575684,37.4678955-33.3620605l-29.425293-29.425415   C63.6099854,31.5291519,56.8099976,35.1591568,50,35.1591568z"/>
	<g>
		<g>
			<ellipse fill="#3A556A" cx="50" cy="60.5777283" rx="27.5" ry="6.1111112"/>
			<path fill="#64798A" d="M66.5315933,34.4483185c-2.9222145-2.922224-9.7261581,0.7112961-16.5303421,0.7111168     c-6.8050117-0.0001793-13.61026-3.6336956-16.5328369-0.7111168c-4.5024548,4.5024567,0.0000114,25.4697266,0.0000114,25.4697266     c-0.0001526,4.0076599,33.0629768,4.0076599,33.0631294,0C66.5315552,59.918045,71.03405,38.9507751,66.5315933,34.4483185z"/>
		</g>
		<ellipse fill="#3A556A" cx="50" cy="51.8598976" rx="4.1940074" ry="5.8942804"/>
		<ellipse fill="#FCD462" cx="50.0000648" cy="51.8599586" rx="3.5907354" ry="5.2907882"/>
	</g>
</g>
</svg>
