<?xml version="1.0" encoding="utf-8"?>
<!-- Generator: Adobe Illustrator 21.0.2, SVG Export Plug-In . SVG Version: 6.00 Build 0)  -->
<svg xmlns="http://www.w3.org/2000/svg" xmlns:xlink="http://www.w3.org/1999/xlink" version="1.1" id="Layer_1" x="0px" y="0px" viewBox="0 0 100 100" enable-background="new 0 0 100 100" xml:space="preserve" width="512" height="512">
<g>
	<circle fill="#E05B49" cx="50" cy="50" r="48"/>
	<path opacity="0.1" d="M69.9599609,22.5v1.1499023L68.8100586,22.5h-1.4100342v1.1499023L66.25,22.5h-1.4099121v1.1300049   l-0.0100098,0.0100098L63.6899414,22.5h-1.4099121v1.1499023L61.1300049,22.5h-1.4100342v1.1499023L58.5700684,22.5h-1.4101563   v1.1499023L56.0100098,22.5h-1.4100342v1.1499023L53.4499512,22.5h-1.4099121v1.1499023L50.8900146,22.5h-1.4100342v1.1499023   L48.3300781,22.5h-1.4101563v1.1499023L45.7700195,22.5h-1.4100342v1.1499023L43.2099609,22.5h-1.4699707v21.0500488h-9.8000488   c-1.8598633,0-3.369873,1.5-3.369873,3.3598633V77.5l20.4758301,20.4758301C49.3643799,97.9821777,49.6799316,98,50,98   c26.5097656,0,48-21.4904785,48-48c0-0.3200684-0.0178223-0.6357422-0.0241699-0.9542236L71.4299316,22.5H69.9599609z"/>
	<g>
		<path fill="#2D93BA" d="M69.9569931,22.5v6.2721367h-1.1519089V22.5h-1.4076614v6.2721367h-1.1519089V22.5h-1.4078522v6.2721367    h-1.1517181V22.5h-1.4078445v6.2721367h-1.1519127V22.5H59.718338v6.2721367h-1.1517181V22.5h-1.4078484v6.2721367h-1.1519089    V22.5H54.599205v6.2721367h-1.1519127V22.5h-1.4078445v6.2721367h-1.1519127V22.5h-1.4076576v6.2721367h-1.1519089V22.5    h-1.4078484v6.2721367h-1.151722V22.5h-1.4078445v6.2721367h-1.1519127V22.5h-1.4692726v21.047287v0.0001869v9.5379028    c0,1.8597221-1.5075684,3.3673363-3.3671913,3.3673363h29.6868896c1.8598175,0,3.3673859-1.5076141,3.3673859-3.3673363V22.5    H69.9569931z"/>
		<path fill="#27A2DB" d="M30.0430107,77.5v-6.2721329h1.1519089V77.5h1.4076576v-6.2721329h1.1519127V77.5h1.4078445v-6.2721329    h1.151722V77.5h1.4078484v-6.2721329h1.1519089V77.5h1.4078484v-6.2721329h1.1517181V77.5h1.4078484v-6.2721329h1.1519127V77.5    h1.4076576v-6.2721329h1.1519089V77.5h1.4078484v-6.2721329h1.1519089V77.5h1.4076576v-6.2721329h1.1519089V77.5h1.4078484    v-6.2721329h1.151722V77.5h1.4078484v-6.2721329h1.1519089V77.5h1.4692726V56.452713v-0.0001869v-9.5379028    c0-1.8597221,1.5075684-3.3673363,3.3671951-3.3673363H31.9409313c-1.8598156,0-3.367384,1.5076141-3.367384,3.3673363V77.5    H30.0430107z"/>
		<path fill="#1C75A1" d="M64.9826965,53.0853767v-6.2953606c-0.0671158-1.8005676-1.5377121-3.2427292-3.3548698-3.2427292    c-1.8596268,0-3.3671951,1.5076141-3.3671951,3.3673363v9.5380898h10.0894508    C66.4902649,56.452713,64.9826965,54.9450989,64.9826965,53.0853767z"/>
	</g>
</g>
</svg>
