<?xml version="1.0" encoding="utf-8"?>
<!-- Generator: Adobe Illustrator 21.0.2, SVG Export Plug-In . SVG Version: 6.00 Build 0)  -->
<svg xmlns="http://www.w3.org/2000/svg" xmlns:xlink="http://www.w3.org/1999/xlink" version="1.1" id="Layer_1" x="0px" y="0px" viewBox="0 0 100 100" enable-background="new 0 0 100 100" xml:space="preserve" width="512" height="512">
<g>
	<circle fill="#EA8953" cx="50" cy="50" r="48"/>
	<path opacity="0.1" d="M95.819397,64.3406754l-22.4594116-22.451416l-0.0599976-0.0700684   c-0.0499878-0.0800781-0.1300049-0.1500244-0.2299805-0.1999512l-8.1900024-4.2000732   c-2.8900146-1.4799805-6.2299805-1.5499268-9.1699829-0.1700439L50,39.9091568l-5.710022-2.6600342   c-2.9400024-1.3798828-6.2799683-1.3099365-9.1699829,0.1700439l-8.1900024,4.2000732   c-0.3499756,0.1799316-0.4899902,0.6098633-0.3099976,0.9599609c0.0599976,0.1300049,0.1600342,0.2199707,0.2700195,0.2800293   l0.0199585,0.0100098l1.2800293,1.2799072c-3.3099976,1.6700439-5.5900269,5.0699463-5.6799927,9.0100098   c0,0.0300293-0.0100098,0.0599365,0,0.0899658c0,0.0500488-0.0100098,0.0900879-0.0100098,0.1401367   c0,2.8798828,1.1799927,5.4899902,3.0800171,7.3598633l35.8664551,35.8664551   C77.7824707,92.6175308,90.8395996,80.2675552,95.819397,64.3406754z"/>
	<g>
		<g>
			<path fill="#3A556A" d="M23.209549,53.9107246c-0.2667389,0-0.5224037-0.1513672-0.6428509-0.4091072     c-0.1656742-0.3548851-0.0119991-0.7766838,0.3424225-0.9423561l32.7969589-15.3119087     c2.9438248-1.3740768,6.288681-1.3110847,9.1785164,0.1721344l8.1881638,4.2036858     c0.3484192,0.1788254,0.4859467,0.606163,0.3068848,0.9543533c-0.1785965,0.3481941-0.6063919,0.4847908-0.9538879,0.3068886     l-8.1886292-4.2036858c-2.4975662-1.2817802-5.3869362-1.3369255-7.9311142-0.1485977L23.5090542,53.8440399     C23.4121418,53.889267,23.310154,53.9107246,23.209549,53.9107246z"/>
		</g>
		<g>
			<path fill="#3A556A" d="M76.790451,53.9107246c0.2667389,0,0.5223999-0.1513672,0.6428528-0.4091072     c0.1656723-0.3548851,0.0119934-0.7766838-0.3424225-0.9423561L44.2939186,37.2473526     c-2.9438248-1.3740768-6.288681-1.3110847-9.1785126,0.1721344l-8.1881657,4.2036858     c-0.348423,0.1788254-0.4859467,0.606163-0.3068886,0.9543533c0.1785946,0.3481941,0.6063938,0.4847908,0.9538937,0.3068886     l8.1886253-4.2036858c2.4975662-1.2817802,5.3869362-1.3369255,7.9311142-0.1485977l32.7969589,15.3119087     C76.5878601,53.889267,76.6898499,53.9107246,76.790451,53.9107246z"/>
		</g>
		<g>
			<path fill="#3A556A" d="M47.8102341,49.8011131l-0.8094482-1.163868c1.7831841-1.2402458,3.6674347-1.2393227,5.4496994,0     l-0.8094482,1.163868C50.3350296,48.8924484,49.1171646,48.8924484,47.8102341,49.8011131z"/>
		</g>
		<path fill="#64798A" d="M77.5,53.3872299c0,5.7176094-4.6350403,10.3526497-10.3526459,10.3526497    c-5.7176132,0-15.5739441-7.1745224-15.5739441-12.8921356s9.8563309-7.8131638,15.5739441-7.8131638    C72.8649597,43.0345802,77.5,47.6696205,77.5,53.3872299z"/>
		<path fill="#27A2DB" d="M67.1474609,62.7947502c-5.2969475,0-14.6291389-6.9066162-14.6291389-11.9469757    c0-4.6852493,8.7294884-6.868084,14.6291389-6.868084c5.1871109,0,9.4074097,4.2202988,9.4074097,9.4076462    S72.3345718,62.7947502,67.1474609,62.7947502z"/>
		<path fill="#40B8E2" d="M61.6496506,44.526123c1.5973244,4.6005936,4.3458252,12.5540886,6.3049545,18.227726    c0.6465378-0.0553207,1.2745056-0.1744995,1.8775558-0.3544807c-3.3171692-9.6092834-5.208107-15.0705185-6.2882195-18.1787491    C62.9147034,44.301609,62.280159,44.4035683,61.6496506,44.526123z"/>
		<path fill="#40B8E2" d="M60.2148895,44.845211c1.5818596,4.5577621,4.1516495,11.9935303,6.1922302,17.9037361    c0.2532425,0.0271416,0.5020981,0.0458031,0.7403412,0.0458031c0.0913773,0,0.1799774-0.0111046,0.2706604-0.0137024    c-1.9405518-5.6214027-4.6178665-13.3705177-6.2782974-18.1519852    C60.82901,44.6953735,60.5209694,44.7685165,60.2148895,44.845211z"/>
		<path fill="#64798A" d="M22.5,53.3872299c0,5.7176094,4.6350384,10.3526497,10.3526497,10.3526497    S48.42659,56.5653572,48.42659,50.847744s-9.8563309-7.8131638-15.5739403-7.8131638S22.5,47.6696205,22.5,53.3872299z"/>
		<path fill="#27A2DB" d="M32.8525391,62.7947502c5.2969475,0,14.6291389-6.9066162,14.6291389-11.9469757    c0-4.6852493-8.7294884-6.868084-14.6291389-6.868084c-5.1871147,0-9.4074135,4.2202988-9.4074135,9.4076462    S27.6654243,62.7947502,32.8525391,62.7947502z"/>
		<path fill="#40B8E2" d="M32.8525162,43.9796906c-0.578476,0-1.1424122,0.0601959-1.6922741,0.1606865    c1.5472507,4.4571266,4.1424236,11.9662132,6.0728245,17.5561752c0.5661278-0.2482491,1.1375656-0.5334473,1.7069244-0.8490181    c-3.0079727-8.712326-4.7846985-13.8440056-5.8342361-16.8649559    C33.0214195,43.9817123,32.9358139,43.9796906,32.8525162,43.9796906z"/>
		<path fill="#40B8E2" d="M29.7456703,44.5179863c1.5809383,4.5558014,4.107235,11.8655815,6.1240463,17.7069702    c0.2929306-0.0983849,0.588398-0.2047844,0.8875542-0.3257217c-1.9152832-5.5477676-4.4816132-12.9752007-6.1045494-17.6491127    C30.3439865,44.3245087,30.0418282,44.4138947,29.7456703,44.5179863z"/>
	</g>
</g>
</svg>
