<?xml version="1.0" encoding="utf-8"?>
<!-- Generator: Adobe Illustrator 21.0.2, SVG Export Plug-In . SVG Version: 6.00 Build 0)  -->
<svg xmlns="http://www.w3.org/2000/svg" xmlns:xlink="http://www.w3.org/1999/xlink" version="1.1" id="Layer_1" x="0px" y="0px" viewBox="0 0 100 100" enable-background="new 0 0 100 100" xml:space="preserve" width="512" height="512">
<g>
	<circle fill="#EFC84A" cx="50" cy="50" r="48"/>
	<path opacity="0.1" d="M75.5900269,33.3399658h-1.0400391l-8.0299683-8.0199585h-0.0100098   c-0.3200073-0.3900146-0.6600342-0.7600098-1.0300293-1.0900269c0-0.0100098,0-0.0100098-0.0100098-0.0100098   c-0.1299438-0.1199951-0.2599487-0.2299805-0.3999634-0.3399658C65.0200195,23.8299561,64.9699707,23.789978,64.9099731,23.75   c-0.1399536-0.1099854-0.2799683-0.2000122-0.4199829-0.2999878c-0.0499878-0.0300293-0.0999756-0.0700073-0.1499634-0.1100464   C63.5200195,22.8200073,62.6599731,22.5,61.8200073,22.5c-0.1900024,0-0.3800049,0.0100098-0.5700073,0.0499878   c-4.7800293,0.9299927-7.9099731,4.4799805-9.710022,7.3200073C51.0700073,29.6699829,50.5499878,29.539978,50,29.539978   s-1.0700073,0.1300049-1.539978,0.3300171c-1.8000488-2.8400269-4.9299927-6.3900146-9.710022-7.3200073   c-1.0100098-0.1900024-2.0800171,0.1500244-3.0900269,0.789978C35.6099854,23.3800049,35.5599976,23.4199829,35.5,23.4500122   c-0.1400146,0.0999756-0.2800293,0.1900024-0.4099731,0.2999878c-0.0599976,0.039978-0.1100464,0.0799561-0.1600342,0.1300049   c-0.1400146,0.1099854-0.2700195,0.2199707-0.3999634,0.3399658c-0.0100098,0-0.0100098,0-0.0100098,0.0100098   c0-0.0100098,0-0.0100098,0-0.0100098c-1.0800171,0.9800415-2,2.25-2.5400391,3.4400024   c-0.0100098,0-0.0100098,0.0100098-0.0100098,0.0100098c-0.0199585,0.0499878-0.039978,0.0900269-0.0599976,0.1400146   c-0.0499878,0.1300049-0.0999756,0.25-0.1499634,0.3699951c0,0,0,0,0.0100098,0   C31.6099854,28.6099854,31.5,29.0199585,31.460022,29.3900146c-0.0300293,0.2699585-0.0300293,0.5299683,0.0199585,0.7599487   c0.0700073,0.3600464,0.25,0.6700439,0.5,0.9500122c0.0700073,0.0800171,0.1500244,0.1600342,0.2399902,0.2399902l2,2h-9.8099976   C23.3499756,33.3399658,22.5,34.2000122,22.5,35.25v7.8900146l1.1599731,1.1599731v31.289978   c0,0.4200439,0.1400146,0.8099976,0.3800049,1.1300049c0.1100464,0.1500244,0.25,0.2900391,0.4000244,0.4000244   l20.6292725,20.6292725C46.6903687,97.9146729,48.3352051,98,50,98c24.9103394,0,45.3847656-18.9764404,47.7650757-43.2613525   L77,33.9799805C76.6500244,33.5899658,76.1500244,33.3399658,75.5900269,33.3399658z"/>
	<g>
		<path fill="#E56353" d="M68.5421143,29.391264c-0.2958832-2.7764626-4.1157455-7.4499454-7.2888489-6.8363647    c-8.2921906,1.6034851-11.6409683,11.1108112-11.6409683,11.1108112s6.4864349-1.5832901,11.6409683-3.929697    C61.2532654,29.7360134,67.416748,26.717041,68.5421143,29.391264z"/>
		<path fill="#FFFFFF" d="M66.5335159,27.4170284c-2.2315216-0.052618-5.0344315,1.2690907-5.5793419,1.5366364    c-3.4428329,1.5549889-7.9537048,3.1258907-10.2785378,3.7984676c0.9627724-1.8553143,4.6492348-8.1581249,10.8289986-9.3441525    c0.0610695-0.011776,0.130249-0.0151691,0.203701-0.0187759c0.0804977-0.0040321,0.1639862-0.0081692,0.2521706-0.0233402    c0.6762238-0.1163349,2.5494576,0.4200439,3.5239143,0.859314c-0.3645325-0.3309975-0.7474823-0.6288967-1.1411362-0.8807297    c-0.9191895-0.2837238-1.9290428-0.4974709-2.4570847-0.4067421c-0.0664063,0.0113525-0.1334534,0.0142155-0.1998558,0.0175037    c-0.0851974,0.0042439-0.1733818,0.0085945-0.2645569,0.0260983c-7.061821,1.3553371-10.9396019,9.1372871-11.358532,10.0202332    l-0.201992,0.4256096l0.4569397-0.1233749c2.1482468-0.5798607,7.1026039-2.2767906,10.834549-3.9631138    c0.5237694-0.2570438,3.2515144-1.5312271,5.3709373-1.4893227c0.6680603,0.015089,1.3025665,0.2004852,1.7139435,0.3278542    c-0.0630646-0.1699352-0.1331863-0.3420429-0.2127228-0.516222C67.6142273,27.5479088,67.090271,27.4295197,66.5335159,27.4170284    z"/>
		<path fill="#D15241" d="M61.2532654,29.7360134c-5.1545334,2.3464069-11.6409683,3.929697-11.6409683,3.929697    l13.8097153-0.6655121c0,0,4.6883087-0.6338272,5.1029129-2.8522053c0.0428162-0.2291565,0.0462341-0.484211,0.017189-0.7567291    C67.416748,26.717041,61.2532654,29.7360134,61.2532654,29.7360134z"/>
		<path fill="#E56353" d="M31.458025,29.391264c0.2958889-2.7764626,4.1157475-7.4499454,7.2888508-6.8363647    c8.2921944,1.6034851,11.6409683,11.1108112,11.6409683,11.1108112s-6.4864311-1.5832901-11.6409683-3.929697    C38.7468758,29.7360134,32.5833931,26.717041,31.458025,29.391264z"/>
		<path fill="#FFFFFF" d="M33.466629,27.4170284c2.2315216-0.052618,5.0344276,1.2690907,5.5793381,1.5366364    c3.4428329,1.5549889,7.9537048,3.1258907,10.2785378,3.7984676c-0.9627724-1.8553143-4.6492348-8.1581249-10.8289986-9.3441525    c-0.0610657-0.011776-0.130249-0.0151691-0.203701-0.0187759c-0.0804977-0.0040321-0.1639824-0.0081692-0.2521706-0.0233402    c-0.6762238-0.1163349-2.5494537,0.4200439-3.5239182,0.859314c0.3645363-0.3309975,0.7474899-0.6288967,1.1411438-0.8807297    c0.9191856-0.2837238,1.9290428-0.4974709,2.4570808-0.4067421c0.0664063,0.0113525,0.1334534,0.0142155,0.1998596,0.0175037    c0.0851936,0.0042439,0.173378,0.0085945,0.2645531,0.0260983c7.0618248,1.3553371,10.9396019,9.1372871,11.358532,10.0202332    l0.201992,0.4256096l-0.4569359-0.1233749c-2.1482506-0.5798607-7.1026077-2.2767906-10.834549-3.9631138    c-0.5237732-0.2570438-3.2515182-1.5312271-5.3709412-1.4893227c-0.6680603,0.015089-1.3025665,0.2004852-1.7139435,0.3278542    c0.0630684-0.1699352,0.1331844-0.3420429,0.2127209-0.516222C32.3859138,27.5479088,32.9098701,27.4295197,33.466629,27.4170284z    "/>
		<path fill="#D15241" d="M38.7468758,29.7360134c5.1545372,2.3464069,11.6409683,3.929697,11.6409683,3.929697    l-13.8097153-0.6655121c0,0-4.6883087-0.6338272-5.1029148-2.8522053c-0.0428123-0.2291565-0.0462284-0.484211-0.017189-0.7567291    C32.5833931,26.717041,38.7468758,29.7360134,38.7468758,29.7360134z"/>
		<path fill="#27A2DB" d="M75.5905762,33.3406067H24.4096699c-1.0546875,0-1.909668,0.8549805-1.909668,1.909668v7.8907471h55    v-7.8907471C77.5,34.1955872,76.6450195,33.3406067,75.5905762,33.3406067z"/>
		<path fill="#27A2DB" d="M23.6604023,43.1410217v32.4493408c0,1.0546265,0.8549805,1.9096069,1.909668,1.9096069h48.8601074    c1.0544434,0,1.9094238-0.8549805,1.9094238-1.9096069V43.1410217H23.6604023z"/>
		<polygon fill="#2D93BA" points="76.3397369,45.5432243 23.660408,45.5622978 23.660408,43.1410294 76.3397369,43.1410294   "/>
		<rect x="45.2733765" y="33.3406487" fill="#E56353" width="9.4533892" height="44.1593513"/>
		<rect x="46.4143105" y="33.3406487" fill="#FFFFFF" width="0.8571365" height="44.1593513"/>
		<rect x="52.7286949" y="33.3406487" fill="#FFFFFF" width="0.8571365" height="44.1593513"/>
		<path fill="#D15241" d="M43.1769753,47.6588745c0.9079132-2.4196663,0.6187515-4.3156929,0.2165413-7.9598427    c-3.6502724,0.5326004-5.5695724,0.7329445-7.6969376,2.216301c3.7462425-5.2297745,6.7814484-7.445015,12.2107086-10.9394989    c1.1369362,0.8729706,1.7054062,1.3094482,2.8423576,2.1823959    C48.7162743,39.2601242,47.3247414,42.7374496,43.1769753,47.6588745z"/>
		<path fill="#FFFFFF" d="M48.4178619,31.3678379c-0.0368309-0.0282784-0.0706635-0.0542545-0.1086311-0.0834084    c-0.0185585-0.0142479-0.0400658-0.0307617-0.0589104-0.0452309c-3.7720375,2.6022243-7.9623718,5.8485813-10.6252975,9.6384563    c0.4676399-0.1834908,0.9542313-0.330574,1.4759369-0.4568481c3.1162186-4.001339,5.5996323-5.750721,9.4070511-8.9837112    C48.4719429,31.4094009,48.4457436,31.3892479,48.4178619,31.3678379z"/>
		<path fill="#FFFFFF" d="M50.4066315,32.8948402c-0.0188446-0.0144691-0.0403519-0.030983-0.0589066-0.0452309    c-0.0379715-0.0291519-0.0717545-0.0550919-0.1086807-0.0834427c-0.0278358-0.0213737-0.0541191-0.0415192-0.0901871-0.0692101    c-2.1884232,4.4761887-3.2646599,7.3060951-6.3752899,11.3118744c0.0086823,0.5335503-0.0119781,1.0383797-0.0725937,1.5343933    C46.71978,42.0264816,48.8240891,37.1783371,50.4066315,32.8948402z"/>
		<path fill="#D15241" d="M56.5138359,47.6588745c-0.9079132-2.4196663-0.6187515-4.3156929-0.2165413-7.9598427    c3.6502724,0.5326004,5.5695724,0.7329445,7.6969376,2.216301c-3.7462425-5.2297745-6.7814484-7.445015-12.2107086-10.9394989    c-1.1369362,0.8729706-1.7054062,1.3094482-2.8423615,2.1823959    C50.9745369,39.2601242,52.3660698,42.7374496,56.5138359,47.6588745z"/>
		<path fill="#FFFFFF" d="M51.2729492,31.3678379c0.0368271-0.0282784,0.0706596-0.0542545,0.1086311-0.0834084    c0.0185585-0.0142479,0.0400658-0.0307617,0.0589066-0.0452309c3.7720375,2.6022243,7.9623718,5.8485813,10.6252975,9.6384563    c-0.4676361-0.1834908-0.9542313-0.330574-1.4759369-0.4568481c-3.1162186-4.001339-5.5996284-5.750721-9.4070511-8.9837112    C51.2188644,31.4094009,51.2450638,31.3892479,51.2729492,31.3678379z"/>
		<path fill="#FFFFFF" d="M49.2841797,32.8948402c0.0188408-0.0144691,0.0403481-0.030983,0.0589066-0.0452309    c0.0379715-0.0291519,0.0717545-0.0550919,0.1086807-0.0834427c0.0278358-0.0213737,0.0541191-0.0415192,0.0901871-0.0692101    c2.1884232,4.4761887,3.2646561,7.3060951,6.3752861,11.3118744c-0.0086784,0.5335503,0.011982,1.0383797,0.0725975,1.5343933    C52.9710312,42.0264816,50.8667183,37.1783371,49.2841797,32.8948402z"/>
		<path fill="#CE412D" d="M50.0000725,29.5433254c-2.0900688,0-3.7844276,1.683609-3.7844276,3.7604504h7.5688553    C53.7845001,31.2269344,52.0901413,29.5433254,50.0000725,29.5433254z"/>
		<g>
			<path fill="#FCD462" d="M58.5570335,40.9532204l-6.0190277,1.6220284     c-0.5021935,0.1353035-0.8944664,0.5275764-1.0297699,1.0297699l-1.6219177,6.0189171     c-0.135891,0.5042877,0.0079498,1.0428543,0.3772659,1.4121704l11.5585938,11.5585938     c0.5701141,0.5701103,1.4945068,0.5700569,2.064621-0.0000572l7.6409416-7.6409454     c0.5701141-0.5701103,0.5700607-1.4943924-0.0000534-2.0645065L59.9690933,41.3305969     C59.5997734,40.9612808,59.0613213,40.8173294,58.5570335,40.9532204z"/>
			
				<ellipse transform="matrix(0.7071068 -0.7071068 0.7071068 0.7071068 -15.9372931 51.1091805)" fill="#DC8744" cx="53.7255898" cy="44.7926064" rx="1.1225729" ry="1.1225729"/>
			<g>
				
					<rect x="57.0905495" y="48.622551" transform="matrix(0.7071068 0.7071068 -0.7071068 0.7071068 53.6652641 -30.5713634)" fill="#F6C358" width="13.2899637" height="1.7429461"/>
				
					<rect x="54.4362907" y="51.2768135" transform="matrix(0.7071068 0.7071068 -0.7071068 0.7071068 54.764698 -27.9171028)" fill="#F6C358" width="13.2899637" height="1.7429461"/>
				
					<rect x="51.7820282" y="53.9310722" transform="matrix(0.7071068 0.7071068 -0.7071068 0.7071068 55.8641281 -25.2628422)" fill="#F6C358" width="13.2899637" height="1.7429461"/>
			</g>
		</g>
	</g>
</g>
</svg>
