<?xml version="1.0" encoding="utf-8"?>
<!-- Generator: Adobe Illustrator 21.0.2, SVG Export Plug-In . SVG Version: 6.00 Build 0)  -->
<svg xmlns="http://www.w3.org/2000/svg" xmlns:xlink="http://www.w3.org/1999/xlink" version="1.1" id="Layer_1" x="0px" y="0px" viewBox="0 0 100 100" enable-background="new 0 0 100 100" xml:space="preserve" width="512" height="512">
<g>
	<circle fill="#EA8953" cx="50" cy="50" r="48"/>
	<path opacity="0.1" d="M97.9735718,51.0455093l-24.0435791-24.036377l-0.2000122-0.2099609   C71.2199707,24.149147,67.6799927,22.4991226,63.75,22.4991226c-7.3499756,0-13.3400269,5.7700195-13.710022,13.0300293H26.5800171   L22.5,42.2591324v2.6500244c0,0.6400146,0.2000122,1.2399902,0.5300293,1.7301025l0.0099487,0.0098877   c0.210022,0.3000488,0.4700317,0.5699463,0.7700195,0.7700195L24.5,48.10923v29.3898926l20.2035522,20.2036133   C46.4435425,97.893898,48.2091064,97.9999771,50,97.9999771C76.1590576,97.9999771,97.4155273,77.0706558,97.9735718,51.0455093z"/>
	<g>
		<g>
			<rect x="24.4988022" y="42.9939957" fill="#64798A" width="39.5565872" height="34.5060005"/>
			<g>
				<path fill="#E56353" d="M22.5000134,42.26017v2.6452866c0,1.7181549,1.3927746,3.1110268,3.1109295,3.1110268l0,0      c1.7183475,0,3.1111221-1.3928719,3.1111221-3.1110268V42.26017H22.5000134z"/>
				<path fill="#EBF0F3" d="M28.722065,42.26017v2.6452866c0,1.7181549,1.3927765,3.1110268,3.1109314,3.1110268      s3.1111221-1.3928719,3.1111221-3.1110268V42.26017H28.722065z"/>
				<path fill="#E56353" d="M34.9441185,42.26017v2.6452866c0,1.7181549,1.3927765,3.1110268,3.1109314,3.1110268      s3.1111221-1.3928719,3.1111221-3.1110268V42.26017H34.9441185z"/>
				<path fill="#EBF0F3" d="M41.166172,42.26017v2.6452866c0,1.7181549,1.3927765,3.1110268,3.1109314,3.1110268      s3.1109276-1.3928719,3.1109276-3.1110268V42.26017H41.166172z"/>
				<path fill="#E56353" d="M47.388031,42.26017v2.6452866c0,1.7181549,1.3929672,3.1110268,3.1111221,3.1110268      c1.7181587,0,3.1109314-1.3928719,3.1109314-3.1110268V42.26017H47.388031z"/>
				<path fill="#EBF0F3" d="M53.6100845,42.26017v2.6452866c0,1.7181549,1.3929672,3.1110268,3.1111221,3.1110268      s3.1109314-1.3928719,3.1109314-3.1110268V42.26017H53.6100845z"/>
				<path fill="#E56353" d="M59.8321381,42.26017v2.6452866c0,1.7181549,1.3927765,3.1110268,3.1111221,3.1110268      c1.7179642,0,3.1109314-1.3928719,3.1109314-3.1110268V42.26017H59.8321381z"/>
				<polygon fill="#D15241" points="31.6335201,35.5296097 26.5760918,35.5296097 22.5000019,42.2601776 28.7220268,42.2601776           "/>
				<polygon fill="#E1E6E9" points="36.6909485,35.5296097 31.6335201,35.5296097 28.7220268,42.2601776 34.9440498,42.2601776           "/>
				<polygon fill="#D15241" points="41.7483749,35.5296097 36.6909485,35.5296097 34.9440498,42.2601776 41.1660767,42.2601776           "/>
				<polygon fill="#E1E6E9" points="46.8058052,35.5296097 41.7483749,35.5296097 41.1660767,42.2601776 47.3880997,42.2601776           "/>
				<polygon fill="#D15241" points="51.8632317,35.5296097 46.8058052,35.5296097 47.3880997,42.2601776 53.6101265,42.2601776           "/>
				<polygon fill="#E1E6E9" points="56.9206581,35.5296097 51.8632317,35.5296097 53.6101265,42.2601776 59.8321533,42.2601776           "/>
				<polygon fill="#D15241" points="61.9780884,35.5296097 56.9206581,35.5296097 59.8321533,42.2601776 66.0541763,42.2601776           "/>
			</g>
			<path fill="#EBF0F3" d="M33.0676231,50.8647575c-3.8473358,0-6.9663868,3.1189537-6.9663868,6.9663887v19.6688385h13.9329662     V57.8311462C40.0342026,53.9837112,36.9151535,50.8647575,33.0676231,50.8647575z"/>
			<g>
				<rect x="44.2056351" y="56.9288177" fill="#EBF0F3" width="15.2707615" height="11.6860266"/>
				<rect x="45.4197807" y="58.1430779" fill="#27A2DB" width="5.8141336" height="9.2576132"/>
				<rect x="52.448143" y="58.1430779" fill="#27A2DB" width="5.8141336" height="9.2576132"/>
				<g>
					<polygon fill="#2CAFDD" points="56.7457657,58.1430779 53.8386993,67.4006958 54.5081825,67.4006958 57.4152489,58.1430779             "/>
					<polygon fill="#2CAFDD" points="56.2022362,58.1430779 53.2951698,67.4006958 53.497406,67.4006958 56.4044724,58.1430779             "/>
				</g>
				<g>
					<polygon fill="#2CAFDD" points="49.7174034,58.1430779 46.8103371,67.4006958 47.4798203,67.4006958 50.3868866,58.1430779             "/>
					<polygon fill="#2CAFDD" points="49.1738739,58.1430779 46.2668076,67.4006958 46.4690437,67.4006958 49.3761101,58.1430779             "/>
				</g>
			</g>
			<rect x="42.9643402" y="68.6148453" fill="#3A556A" width="17.7533512" height="1.2853419"/>
			<path fill="#D5D6DB" d="M33.0678329,52.0526657c-3.1869087,0-5.7791252,2.5922165-5.7791252,5.7783546v18.4811363h11.5574799     V57.8310204C38.8461876,54.6448822,36.2539711,52.0526657,33.0678329,52.0526657z M38.0542908,57.8310204v2.0199471h-4.5905113     v-6.9863472C36.0281563,53.0676651,38.0542908,55.2154579,38.0542908,57.8310204z M33.4637794,60.6428604h4.5905113v7.576355     h-4.5905113V60.6428604z M32.6718864,68.2192154h-4.5912838v-7.576355h4.5912838V68.2192154z M32.6718864,52.8646202v6.9863472     h-4.5912838v-2.0199471C28.0806026,55.2154083,30.1068344,53.0676651,32.6718864,52.8646202z M28.0806026,69.0111084h4.5912838     v6.5091553h-4.5912838V69.0111084z M33.4637794,75.5202637v-6.5091553h4.5905113v6.5091553H33.4637794z"/>
			<circle fill="#DC8744" cx="38.5171127" cy="64.182373" r="0.9020709"/>
		</g>
		<path opacity="0.1" d="M66.0571289,44.9020081v-2.6400146l-4.0800781-6.7299805H48.036377    C48.0255127,35.771637,48,36.0074768,48,36.2497864c0,8.6845703,7.0654297,15.75,15.75,15.75    c0.1037598,0,0.2038574-0.0135498,0.3071289-0.015564v-4.1722412    C65.2270508,47.361969,66.0571289,46.2320251,66.0571289,44.9020081z"/>
		<circle fill="#FCD462" cx="63.75" cy="36.25" r="13.75"/>
		<g>
			<g>
				<path fill="#DC8744" d="M59.9884071,32.5249023c0.3138885-0.4274483,0.4695549-0.8625488,0.4695549-1.3014793      s-0.1671524-0.811512-0.5014534-1.1202946s-0.7579193-0.4631729-1.2695808-0.4631729      c-0.8995514,0-1.6459885,0.4606209-2.2418633,1.3805885l-1.4903221-0.8625488      c0.4810371-0.7209187,1.011837-1.2644768,1.5923996-1.6306782c0.5792847-0.3662014,1.3269997-0.5486622,2.2418633-0.5486622      s1.7161674,0.2896423,2.4064636,0.8702049c0.6902924,0.5792866,1.0348015,1.3716564,1.0348015,2.3745632      c0,0.5652504-0.1467361,1.1037064-0.4389305,1.6153641c-0.2921944,0.5129395-0.8306503,1.1713333-1.6153641,1.9751892      l-2.571064,2.6182709h4.9698677v1.7723083h-7.4937172v-1.5681534l3.3238792-3.3391914      C59.1462746,33.5443954,59.6745224,32.9536247,59.9884071,32.5249023z"/>
				<path fill="#DC8744" d="M68.6891861,34.7667656v-2.0058098h1.755722v2.0058098h1.3180695v1.677887h-1.3180695v2.759903      h-1.755722v-2.759903h-4.7031937v-1.6306763l4.0294876-6.5686474h2.0223923l-3.9669571,6.5214367H68.6891861z"/>
			</g>
			<g>
				<path fill="#DC8744" d="M55.6922493,44.4839783v-3.2749748h0.5528831v1.4195747h1.6258545v-1.4195747h0.5528831v3.2749748      h-0.5528831v-1.3398857h-1.6258545v1.3398857H55.6922493z"/>
				<path fill="#DC8744" d="M62.073658,44.0317574c-0.3309669,0.3233414-0.740097,0.4850121-1.2273979,0.4850121      s-0.8964348-0.1616707-1.2274017-0.4850121c-0.3313484-0.3233414-0.49683-0.7259941-0.49683-1.2087173      s0.1654816-0.8857574,0.49683-1.2087173c0.3309669-0.3233414,0.7401009-0.4850121,1.2274017-0.4850121      s0.896431,0.1616707,1.2273979,0.4850121c0.3313484,0.3229599,0.4968338,0.7259941,0.4968338,1.2087173      S62.4050064,43.708416,62.073658,44.0317574z M61.6687202,41.9818954      c-0.2234421-0.2310677-0.4975929-0.3465996-0.8224602-0.3465996s-0.5990219,0.1155319-0.8224602,0.3465996      c-0.2230606,0.2314491-0.3347816,0.5117035-0.3347816,0.8411446s0.111721,0.6096954,0.3347816,0.8411446      c0.2234383,0.2310677,0.4975929,0.3465996,0.8224602,0.3465996s0.5990181-0.1155319,0.8224602-0.3465996      c0.2230606-0.2314491,0.3347816-0.5117035,0.3347816-0.8411446S61.8917809,42.2133446,61.6687202,41.9818954z"/>
				<path fill="#DC8744" d="M64.0041733,43.7343445c0.1498489,0.1750145,0.3530807,0.2623329,0.609314,0.2623329      c0.2558517,0,0.4590836-0.0873184,0.6089325-0.2623329c0.1498566-0.1750183,0.224968-0.4121857,0.224968-0.712265v-1.813076      h0.552887v1.8367157c0,0.4716644-0.1296463,0.8346634-0.3889313,1.0893707      c-0.2592773,0.2543259-0.5921555,0.3816795-0.9978561,0.3816795c-0.4060822,0-0.7389565-0.1273537-0.9982376-0.3816795      c-0.259285-0.2547073-0.3889236-0.6177063-0.3889236-1.0893707v-1.8367157h0.5528831v1.813076      C63.7792091,43.3221588,63.8543243,43.5593262,64.0041733,43.7343445z"/>
				<path fill="#DC8744" d="M69.4815292,42.2724457c0,0.5402985-0.2360229,0.8807983-0.707695,1.0214996l0.8575439,1.190033      h-0.7027359l-0.7824249-1.1011925h-0.7263718v1.1011925h-0.5528793v-3.2749748h1.2182465      c0.4994965,0,0.8575363,0.0842667,1.0729752,0.2528C69.3736191,41.6307182,69.4815292,41.9006805,69.4815292,42.2724457z       M68.7456207,42.7364845c0.1124802-0.0968475,0.1689148-0.2524185,0.1689148-0.4663277      s-0.0579605-0.3607063-0.1734924-0.4403992s-0.3218155-0.1193466-0.6184616-0.1193466h-0.7027359v1.1713486h0.6886215      C68.4207535,42.8817596,68.633522,42.8333359,68.7456207,42.7364845z"/>
				<path fill="#DC8744" d="M71.2686691,41.6398697c-0.1609039,0-0.2928314,0.032795-0.3957825,0.0983772      c-0.1033325,0.0655823-0.154808,0.1647186-0.154808,0.2977943c0,0.1326904,0.0514755,0.2341156,0.154808,0.3042755      c0.102951,0.0705414,0.322197,0.1460381,0.6581192,0.227253c0.3355408,0.0812187,0.5887222,0.1952248,0.7591629,0.3420258      c0.1700592,0.146801,0.2550888,0.3633766,0.2550888,0.6489677c0,0.2859764-0.1075211,0.517807-0.3233414,0.6958733      c-0.2154312,0.1780663-0.4979706,0.2669067-0.8480072,0.2669067c-0.512085,0-0.9665909-0.1761589-1.3631439-0.5292435      l0.3466034-0.4171371c0.3309708,0.2874985,0.6745148,0.4312477,1.0306473,0.4312477      c0.1780701,0,0.3195343-0.0385132,0.4240036-0.1147728c0.1048584-0.0766411,0.1570969-0.1780663,0.1570969-0.304657      s-0.0491867-0.2249641-0.1475601-0.2951241c-0.0983734-0.0705414-0.2680511-0.1342163-0.5082703-0.192173      c-0.2406006-0.0579605-0.4236221-0.1109581-0.5483093-0.1593857c-0.1250687-0.0484238-0.2360229-0.111721-0.3328705-0.1898842      c-0.1937027-0.146801-0.2901688-0.3713875-0.2901688-0.6745186s0.1098099-0.5364876,0.3302002-0.7004433      c0.2200089-0.1639595,0.4926376-0.2459412,0.8175049-0.2459412c0.2093353,0,0.4171448,0.034317,0.6230469,0.102951      c0.2062759,0.068634,0.384346,0.1654854,0.5341949,0.2905502l-0.2951279,0.417141      c-0.0968475-0.0876999-0.2280121-0.1593819-0.3934937-0.2158165      C71.5927734,41.668087,71.4295807,41.6398697,71.2686691,41.6398697z"/>
			</g>
		</g>
	</g>
</g>
</svg>
