<?xml version="1.0" encoding="utf-8"?>
<!-- Generator: Adobe Illustrator 21.0.2, SVG Export Plug-In . SVG Version: 6.00 Build 0)  -->
<svg xmlns="http://www.w3.org/2000/svg" xmlns:xlink="http://www.w3.org/1999/xlink" version="1.1" id="Layer_1" x="0px" y="0px" viewBox="0 0 100 100" enable-background="new 0 0 100 100" xml:space="preserve" width="512" height="512">
<g>
	<circle fill="#EA8953" cx="50" cy="50" r="48"/>
	<path opacity="0.1" d="M97.1884766,58.7576675l-25.128479-25.128418c-4.5999756-6.1900635-11.75-10.4001465-19.8300171-11.0400391   C35.2800293,21.2491226,21.25,35.2791519,22.5900269,52.2291031c0.4599609,5.8100586,2.7699585,11.1501465,6.3499756,15.4001465   l-0.0100098,0.0100098l0.039978,0.0299072l0.0600586,0.0699463c1,1.1900635,2.1099854,2.2900391,3.2999878,3.3000488   l26.1972656,26.1904297C78.1208496,93.7144547,93.5802002,78.3187027,97.1884766,58.7576675z"/>
	<g>
		<circle fill="#EBF0F3" cx="50" cy="50" r="27.5"/>
		<g>
			<circle fill="#D5D6DB" cx="50" cy="50" r="10.5975113"/>
			<circle fill="#E1E6E9" cx="50" cy="50" r="10.4096889"/>
		</g>
		<circle fill="#D5D6DB" cx="50" cy="50" r="4.2004752"/>
		<path fill="#E1E6E9" d="M57.8819046,41.8995132L68.664978,30.817543c-0.7591019-0.73876-1.5608826-1.4330826-2.4027328-2.0785522    L56.863533,41.0267029C57.2192001,41.2993126,57.5613976,41.5874977,57.8819046,41.8995132z"/>
		<path fill="#E1E6E9" d="M49.9998131,61.3141556c-2.1884232,0-4.2265625-0.6348839-5.9599419-1.7150536L35.878212,72.7437515    c4.1030464,2.5569,8.9413986,4.0396271,14.1216011,4.0396271h0.0003471v-15.469223H49.9998131z"/>
		<path fill="#E1E6E9" d="M55.9601021,40.4012642l8.1618309-13.1448669    c-4.1030426-2.5569916-8.9415703-4.0398483-14.1217728-4.0398922v15.4695721    C52.1885834,38.6861191,54.2268982,39.3210487,55.9601021,40.4012642z"/>
		<path fill="#E1E6E9" d="M42.117897,58.1008034l-10.7827244,11.081707c0.7590961,0.7387619,1.5608807,1.4331284,2.4027309,2.078598    l9.3983612-12.2874451C42.7807732,58.7010498,42.4385757,58.4128227,42.117897,58.1008034z"/>
	</g>
</g>
</svg>
