<?xml version="1.0" encoding="utf-8"?>
<!-- Generator: Adobe Illustrator 21.0.2, SVG Export Plug-In . SVG Version: 6.00 Build 0)  -->
<svg xmlns="http://www.w3.org/2000/svg" xmlns:xlink="http://www.w3.org/1999/xlink" version="1.1" id="Layer_1" x="0px" y="0px" viewBox="0 0 100 100" enable-background="new 0 0 100 100" xml:space="preserve" width="512" height="512">
<g>
	<circle fill="#45B39C" cx="50" cy="50" r="48"/>
	<path opacity="0.1" d="M97.6099854,56c-2.6799927,21.4899902-19.5499878,38.5499878-40.9400024,41.5299683L35.7399902,76.5999756   l-0.0200195-0.0100098c-0.1899414-0.1300049-0.3399658-0.3299561-0.3799438-0.5700073   c-0.1800537-0.9899902-0.9900513-1.8399658-0.9900513-1.8399658l0.0200195-0.0100098   c-0.1400146-0.0700073-0.2299805-0.1400146-0.2299805-0.2199707V30.5799561c0-0.5999756,0.1300049-1.1899414,0.3800049-1.7399902   l1.6399536-3.5799561l-0.6999512-0.7000122l-0.0100098-0.0100098c-0.0100098,0-0.0100098-0.0100098-0.0100098-0.0100098   c-0.1900024-0.210022-0.3099976-0.4899902-0.3099976-0.7999878c0-0.6900024,0.5499878-1.2399902,1.2399902-1.2399902h27.2600098   c0.4199829,0,0.789978,0.2099609,1.0100098,0.5199585l0.0199585,0.0200195L97.6099854,56z"/>
	<g>
		<path fill="#EBF0F3" d="M50,73.6242599l-15.6531105,0.5511703c0,0,0.8167229,0.8512497,0.9920273,1.8439484    c0.0677414,0.3834915,0.3911247,0.6719742,0.7781563,0.7150269c9.1037712,1.0127869,18.3559418,1.0291748,27.7640419-0.0012131    c0.3877296-0.0424728,0.7121315-0.3312683,0.780201-0.7153473c0.1759109-0.9920349,0.9917984-1.8424149,0.9917984-1.8424149    L50,73.6242599z"/>
		<path fill="#E56353" d="M65.4803238,28.8435593c0.2492905,0.5439091,0.3783417,1.1351891,0.3783417,1.7335052v43.3697968    c0,1.7034531-31.7173271,1.7034531-31.7173271,0V30.5770645c0-0.5983162,0.1290474-1.1895962,0.3783417-1.7335052    l1.7150841-3.7420063v-1.7775135h27.5304718v1.7775135L65.4803238,28.8435593z"/>
		<path fill="#EBF0F3" d="M63.6336021,22.5H36.3664017c-0.6831894,0-1.2370262,0.5538349-1.2370262,1.2370243    c0,0.6831875,0.5538368,1.2370243,1.2370262,1.2370243h27.2672005c0.6831856,0,1.2370262-0.5538368,1.2370262-1.2370243    C64.8706284,23.0538349,64.3167877,22.5,63.6336021,22.5z"/>
		<ellipse fill="#EBF0F3" cx="50" cy="49.2742462" rx="8.298461" ry="11.5013762"/>
		<g>
			<path fill="#D15241" d="M46.6389465,53.7304726c0.148365-0.1483612,0.251236-0.3011818,0.3086205-0.4584656     c0.0570831-0.1569824,0.0894928-0.3487549,0.0969238-0.5756111l0.5625267,0.0077324     c0.0291405,0.569664-0.1492538,1.0477524-0.5351715,1.4336739c-0.386219,0.3862152-0.8304138,0.5824471-1.333477,0.5883942     c-0.5030632,0.0059433-0.9442863-0.1807709-1.3242607-0.5607452c-0.3799706-0.3799744-0.5669861-0.8262482-0.5607414-1.3391266     c0.0059471-0.5125771,0.2069321-0.9668808,0.6026649-1.3626099c0.3957329-0.3957329,0.8723335-0.580368,1.4301033-0.5536079     l0.0258675,0.5735283c-0.2387466,0.0050545-0.4355736,0.038353-0.5901794,0.1007881     c-0.1546059,0.0618439-0.3050461,0.165905-0.4513283,0.3121872c-0.2580719,0.2580719-0.3912735,0.5583649-0.3998947,0.9005775     c-0.0086212,0.3422165,0.116848,0.6431007,0.3761101,0.9023628c0.2595596,0.2595596,0.5634193,0.3891907,0.9118767,0.3891907     C46.1067467,54.0884438,46.4001999,53.9692192,46.6389465,53.7304726z"/>
			<path fill="#D15241" d="M50.2831879,50.162941c-0.0059471,0.5102005-0.1989059,0.9552879-0.5788803,1.3352623     c-0.3799744,0.3799706-0.8250618,0.5729332-1.3352585,0.5788803c-0.510498,0.0062408-0.9535027-0.1786919-1.3299103-0.5550957     c-0.3764038-0.3764076-0.5616341-0.8197098-0.5550957-1.3299103c0.0059471-0.5101967,0.1989098-0.9552841,0.5788803-1.3352585     c0.3799744-0.3799744,0.8250618-0.5729332,1.3352623-0.5788803c0.5102005-0.0065422,0.9535027,0.178688,1.3299065,0.5550957     C50.1044998,49.2094383,50.2894325,49.6524467,50.2831879,50.162941z M48.3690491,48.8803062     c-0.3544044-0.0059433-0.6582642,0.1177406-0.9115829,0.3710556c-0.253315,0.253315-0.3769989,0.5571747-0.3710518,0.9115791     c0.0065384,0.3544044,0.1379547,0.6600494,0.3948402,0.916935c0.2568817,0.2568817,0.5625267,0.388298,0.9169312,0.3948364     c0.3544044,0.0059471,0.6582642-0.1177368,0.9115791-0.3710518s0.3769989-0.5571785,0.3710556-0.9115829     c-0.0065422-0.3544006-0.1379585-0.6600456-0.3948402-0.9169312     C49.0290947,49.0182648,48.7234535,48.8868484,48.3690491,48.8803062z"/>
			<path fill="#D15241" d="M51.5673103,49.5840607l-2.5536766-2.5536728l0.4311142-0.4311104l2.1445618,2.1445618     l1.1654892-1.165493l0.409111,0.409111L51.5673103,49.5840607z"/>
			<path fill="#D15241" d="M53.415741,46.5737076l0.3252678,0.8366547l-0.4602509,0.4602509l-1.4283218-3.6790276     l0.4602509-0.460247l3.6790276,1.428318l-0.4605484,0.4605484l-0.8366547-0.3252678L53.415741,46.5737076z      M54.1209831,45.0722466l-1.5160294-0.5883942l0.5880966,1.5163269L54.1209831,45.0722466z"/>
		</g>
	</g>
</g>
</svg>
