<?xml version="1.0" encoding="utf-8"?>
<!-- Generator: Adobe Illustrator 21.0.2, SVG Export Plug-In . SVG Version: 6.00 Build 0)  -->
<svg xmlns="http://www.w3.org/2000/svg" xmlns:xlink="http://www.w3.org/1999/xlink" version="1.1" id="Layer_1" x="0px" y="0px" viewBox="0 0 100 100" enable-background="new 0 0 100 100" xml:space="preserve" width="512" height="512">
<g>
	<circle fill="#E05B49" cx="50" cy="50" r="48"/>
	<path opacity="0.1" d="M56.6300049,22.4991226c-0.0800171,1.5200195-0.5900269,6.0800781-3.9799805,8.1401367   c-0.2000122,0.119873-0.3699951,0.2799072-0.4900513,0.4799805l-0.0599976,0.1098633l-8.7299805-8.7299805h-3.1099854   c0.1300049,1.1800537,0.2999878,2.3400879,0.4299927,3.5100098c0.0599976,0.5700684,0.1300049,1.1500244-0.0200195,1.6900635   C40.5,28.3392105,40.0700073,28.85923,39.710022,29.399147c-1.4100342,2.1099854-1.8800049,4.8399658-1.2700195,7.3100586   c0.5100098,2.0299072,1.7000122,3.9000244,2.3599854,5.8599854c0.0499878,0.1599121,0.1099854,0.3100586,0.1500244,0.4599609   c0.0599976,0.1899414,0.0999756,0.3800049,0.1400146,0.5800781c0.0299683,0.1398926,0.0699463,0.2700195,0.0899658,0.4199219   c0.0499878,0.3300781,0.0900269,0.6800537,0.0900269,1.0200195c0.0199585,2.2800293-1.2000122,4.3599854-2.4400024,6.2600098   c-3.7399902,5.7600098-8.0100098,11.1500244-12.1600342,16.6300049c-1.0599976,1.3900146-2.1699829,3.039917-1.8299561,4.7600098   l25.2972412,25.2972412c23.1027832-0.0650635,42.3652344-16.4487305,46.8668823-38.2331543L59.7399902,22.4991226H56.6300049z"/>
	<g>
		<path fill="#FCD462" d="M73.3335342,67.9370041c-4.1493835-5.4751358-8.4195938-10.8690186-12.16782-16.632061    c-1.2360497-1.90028-2.4545288-3.9769402-2.4371567-6.2508698c0.0223083-2.9605331,2.1131897-5.4776306,2.8282471-8.3487282    c0.6151619-2.4699631,0.1431313-5.1953583-1.2654648-7.3073311c-0.362072-0.5426464-0.7902756-1.0632439-0.9600563-1.694725    c-0.1468811-0.5468864-0.0850906-1.1260433-0.0223083-1.6891899c0.1308899-1.1743259,0.3040276-2.3397732,0.4349174-3.514101    h-3.1176682c-0.0752182,1.5200958-0.5847588,6.0796337-3.9805908,8.1355896    c-0.1980133,0.1198616-0.3693733,0.2819729-0.4846687,0.4841366l-2.1653061,3.8022575l-2.1653099-3.8023071    c-0.1152954-0.2021141-0.2866554-0.3642254-0.4846687-0.484087c-3.3956337-2.0559559-3.8994484-6.6154938-3.972496-8.1355896    h-3.1170731c0.1308899,1.1743279,0.3040276,2.3397751,0.4349174,3.514101    c0.0627785,0.5631466,0.1245728,1.1423035-0.0223083,1.6891899c-0.1697807,0.6314812-0.5979881,1.1520786-0.9600563,1.694725    c-1.408596,2.1119728-1.8806267,4.837368-1.2654648,7.3073311c0.7150574,2.8710976,2.8059387,5.388195,2.8282471,8.3487282    c0.0173721,2.2739296-1.201107,4.3505898-2.4371567,6.2508698c-3.74823,5.7630424-8.0184345,11.1569252-12.1678219,16.632061    c-1.0583706,1.3965454-2.1690598,3.0392914-1.8273239,4.7641449c0.7859306,0.7051544,1.9562397,0.6588669,3.0071106,0.668396    c1.050869,0.0095749,2.276062,0.2266998,2.7636909,1.1675873c0.2463799,0.4753113,0.284483,1.1061935,0.7278881,1.4014359    c0.2645435,0.1761703,0.6031208,0.1766739,0.9197845,0.1711884c1.5690956-0.0273361,3.138195-0.054718,4.7072945-0.0820541    c0.7174263-0.0124741,1.4579506-0.0208511,2.1220741,0.2533875c0.5221786,0.2155838,0.9634132,0.5930252,1.4723625,0.8386383    c1.1126633,0.5371094,2.4150467,0.393898,3.6386604,0.2389755c1.5268478-0.1932907,3.0536995-0.3866196,4.5805511-0.5799561    c0.6718216-0.0850983,1.7710609-0.0850983,2.4428825,0c1.5268517,0.1933365,3.0536995,0.3866653,4.5805511,0.5799561    c1.2236137,0.1549225,2.5259972,0.2981339,3.6386604-0.2389755c0.5089493-0.2456131,0.9501839-0.6230545,1.4723625-0.8386383    c0.6641197-0.2742386,1.404644-0.2658615,2.1220741-0.2533875c1.5690956,0.0273361,3.138195,0.054718,4.7072945,0.0820541    c0.3166656,0.0054855,0.6552353,0.004982,0.9197845-0.1711884c0.4434052-0.2952423,0.4815063-0.9261246,0.72789-1.4014359    c0.4876251-0.9408875,1.712822-1.1580124,2.7636871-1.1675873c1.0508728-0.0095291,2.2211761,0.0367584,3.0071106-0.668396    C75.502594,70.9762955,74.3919067,69.3335495,73.3335342,67.9370041z"/>
		<path fill="#E56353" d="M58.8152237,44.0538254c0.0955544-0.6081352,0.2653351-1.2007599,0.47855-1.7848587    c-6.1794624,1.5362091-12.4080811,1.5362091-18.5875435,0c0.2132149,0.584198,0.3829956,1.1769218,0.4785461,1.7851601    c2.9318962,0.6636047,5.8730659,1.0036354,8.8148308,1.0036354C52.9409752,45.0577621,55.88274,44.7175293,58.8152237,44.0538254z    "/>
		<g>
			<path fill="#3EA69B" d="M51.9485016,43.4819527C51.6202736,43.8136711,50.3282318,44.5816307,50,44.2499084     c-0.328228-0.3317184,0.4316483-1.6375008,0.7598763-1.969223c0.3282318-0.3317223,0.8603973-0.3317223,1.1886253,0     C52.2767334,42.6124077,52.2767334,43.1502304,51.9485016,43.4819527z"/>
			<path fill="#3EA69B" d="M48.0514984,45.017868C48.3797302,44.6861496,49.671772,43.91819,50,44.2499084     c0.3282318,0.3317223-0.4316444,1.6375046-0.7598763,1.9692268c-0.328228,0.3317184-0.8603935,0.3317184-1.1886253,0     C47.7232704,45.887413,47.7232704,45.3495903,48.0514984,45.017868z"/>
			<path fill="#3EA69B" d="M50.7598763,46.2191353C50.4316483,45.887413,49.671772,44.5816307,50,44.2499084     c0.3282318-0.3317184,1.6202736,0.4362411,1.9485016,0.7679596c0.3282318,0.3317223,0.3282318,0.869545,0,1.2012672     C51.6202736,46.5508537,51.0881081,46.5508537,50.7598763,46.2191353z"/>
			<path fill="#3EA69B" d="M49.2401237,42.2806854C49.5683556,42.6124077,50.3282318,43.91819,50,44.2499084     c-0.328228,0.3317223-1.6202698-0.4362373-1.9485016-0.7679558c-0.328228-0.3317223-0.328228-0.869545,0-1.2012672     C48.3797302,41.9489632,48.9118958,41.9489632,49.2401237,42.2806854z"/>
			<g>
				<path fill="#44C4A1" d="M50.8404846,42.3144302c0,0.4691238-0.376297,1.9354782-0.8404846,1.9354782      c-0.4641838,0-0.8404846-1.4663544-0.8404846-1.9354782S49.5358162,41.4650078,50,41.4650078      C50.4641876,41.4650078,50.8404846,41.8453064,50.8404846,42.3144302z"/>
				<path fill="#44C4A1" d="M49.1595154,46.1853905c0-0.4691238,0.3763008-1.935482,0.8404846-1.935482      c0.4641876,0,0.8404846,1.4663582,0.8404846,1.935482S50.4641876,47.0348129,50,47.0348129      C49.5358162,47.0348129,49.1595154,46.6545143,49.1595154,46.1853905z"/>
				<path fill="#44C4A1" d="M51.9151115,45.0993347C51.4509277,45.0993347,50,44.7190323,50,44.2499084      c0-0.46912,1.4509277-0.8494225,1.9151115-0.8494225c0.4641876,0,0.8404846,0.3803024,0.8404846,0.8494225      C52.7555962,44.7190323,52.3792992,45.0993347,51.9151115,45.0993347z"/>
				<path fill="#44C4A1" d="M48.0848885,43.400486C48.5490761,43.400486,50,43.7807884,50,44.2499084      c0,0.4691238-1.4509239,0.8494263-1.9151115,0.8494263s-0.8404846-0.3803024-0.8404846-0.8494263      C47.2444038,43.7807884,47.6207008,43.400486,48.0848885,43.400486z"/>
			</g>
			<path fill="#3EA69B" d="M50.7103729,43.87714c0.3271446,0.7215347-0.3642502,1.4207954-1.0781708,1.0911827     c-0.1494102-0.0689812-0.2746162-0.1957626-0.3425713-0.3456421c-0.3271446-0.7215347,0.3642502-1.4207954,1.078167-1.0911827     C50.5172081,43.6004791,50.6424179,43.7272606,50.7103729,43.87714z"/>
			<path fill="#EBF0F3" d="M50.5148201,44.016861c0.1947746,0.4886131-0.2610207,0.949707-0.7444572,0.7537346     c-0.1272774-0.0515976-0.2343254-0.1600571-0.2851791-0.2876358c-0.1947746-0.4886131,0.2610207-0.949707,0.7444534-0.7537346     C50.3569183,43.7808228,50.4639626,43.8892822,50.5148201,44.016861z"/>
			<path fill="#64798A" d="M50.348896,44.0919724c0.132,0.3311348-0.1768951,0.6436234-0.5045204,0.5108109     c-0.0862579-0.0349693-0.1588058-0.1084747-0.1932716-0.1949348c-0.132-0.3311348,0.1768951-0.6436234,0.5045242-0.5108109     C50.2418861,43.9320068,50.3144341,44.0055122,50.348896,44.0919724z"/>
		</g>
	</g>
</g>
</svg>
