<?xml version="1.0" encoding="utf-8"?>
<!-- Generator: Adobe Illustrator 21.0.2, SVG Export Plug-In . SVG Version: 6.00 Build 0)  -->
<svg xmlns="http://www.w3.org/2000/svg" xmlns:xlink="http://www.w3.org/1999/xlink" version="1.1" id="Layer_1" x="0px" y="0px" viewBox="0 0 100 100" enable-background="new 0 0 100 100" xml:space="preserve" width="512" height="512">
<g>
	<circle fill="#EA8953" cx="50" cy="50" r="48"/>
	<path opacity="0.1" d="M61.8300171,22.5v4.6099854L58.6799927,30.75l-8.25-8.25h-2.0999756v1.6799927   c-1.2000122,0.1199951-2.5100098,0.8099976-3.5300293,1.9899902c-0.2399902,0.2800293-0.4500122,0.5700073-0.6400146,0.8699951   l-0.4299927-0.3699951c-0.2399902-0.2000122-0.5599976-0.289978-0.8699951-0.25l-4.3999634,0.6500244   c-0.2600098,0.039978-0.5,0.1699829-0.6799927,0.3699951L27.0499878,40.0100098   c-0.3399658,0.3999634-0.3200073,0.9599609-0.0199585,1.3599854c-0.1900024,0.4299927-0.1000366,0.9400024,0.2799683,1.2600098   l15.7600098,15.7600098c-2.210022,5.4599609-4.4199829,12.4599609-3.539978,17.0999756l21.2739258,21.2739868   c19.3510132-4.4533691,34.2226563-20.5959473,36.7888184-40.6011963L63.9299927,22.5H61.8300171z"/>
	<g>
		<path fill="#64798A" d="M66.586792,51.9351921c-0.7126999-1.4486961-1.2480164-2.9802856-1.5242004-4.5710678    c-0.3844452-2.2137909-0.4608841-4.2486115-0.4269257-5.8276749c0.03862-1.7907944,0.6081619-3.5267258,1.6248703-5.0014534    c4.6983109-6.8140888-0.4197311-9.9366627-2.3289108-10.8128834V22.5h-2.1012001v4.613348l-5.8559036,6.7538967    l-5.5458984-6.9628983V22.5h-2.1010666v3.3580742c-2.078167,1.0374165-6.525589,4.1787643-2.0454063,10.6769218    c1.0168419,1.4747276,1.5865211,3.210659,1.6250038,5.0014534c0.0339584,1.5790634-0.0424805,3.613884-0.4267921,5.8276749    c-0.2763138,1.5907822-0.8115044,3.1223717-1.5244637,4.5710678c-2.1905556,4.4517517-7.7349892,16.6434212-6.4251823,23.5503883    c0.6381226-0.6176834,1.0914154-0.9465256,1.9027863-1.3080063c0.811367-0.3614731,1.8228874-0.4059525,2.5402412,0.1178513    c0.4663429,0.3404999,0.7534447,0.8722305,1.1722488,1.2696609c1.0119133,0.9601135,2.5682068,0.9766235,3.9619064,0.920166    c0.5487709-0.0222397,1.1287003-0.0565948,1.5843887-0.3630753c0.4473-0.300621,0.7021751-0.8161621,1.1096611-1.1688538    c1.1037979-0.9553223,2.838131-0.4008865,4.0326157,0.438446c1.1942177,0.8393326,2.323719,1.9628448,3.7773438,2.0951385    c2.2336998,0.2033463,4.1038589-2.0310211,6.3455505-1.9576492c1.2940903,0.0424194,2.4259872,0.8499222,3.668541,1.2137985    c1.2425613,0.3639374,3.1448135,0.0146484,3.3861084-1.2574768C74.3220444,68.5786133,68.7774811,56.3869438,66.586792,51.9351921    z"/>
		<g>
			<g>
				<path fill="#3EA69B" d="M49.0587616,33.3145676l-3.1566887-3.1307735      c-0.2249832-0.2231102-0.5354004-0.3381271-0.8514404-0.3154621l-4.6862373,0.336071      c-0.31604,0.022665-0.6069183,0.1808014-0.7977104,0.433754l-2.6775932,3.5491486      c-0.1599083,0.2119713-0.2375832,0.4747314-0.2185898,0.7395706l1.1820221,16.4823189      c0.0433617,0.60466,0.5686646,1.0596619,1.1733246,1.0163002l10.5205231-0.7544746      c0.6046562-0.0433617,1.0596619-0.5686684,1.0162964-1.1733246L49.3806496,34.015377      C49.3616562,33.7505379,49.2472839,33.5015488,49.0587616,33.3145676z"/>
				<path fill="#44C4A1" d="M49.8843002,32.5783882l-3.1566925-3.1307735      c-0.2249832-0.2231102-0.5354004-0.3381252-0.8514366-0.3154621l-4.6862411,0.336071      c-0.31604,0.022665-0.6069145,0.1808033-0.7977066,0.4337559l-2.677597,3.5491505      c-0.1599083,0.2119675-0.2375793,0.4747276-0.218586,0.7395668l1.1820183,16.4823227      c0.0433617,0.6046562,0.5686684,1.0596581,1.1733246,1.0162964l10.5205269-0.7544746      c0.6046562-0.0433617,1.0596581-0.5686684,1.0162964-1.1733246l-1.1820221-16.4823189      C50.187191,33.0143585,50.0728188,32.7653694,49.8843002,32.5783882z"/>
			</g>
			<g>
				<path fill="#FFFFFF" d="M49.6251297,46.1277199l-9.8243065-3.1601563l-0.4840355-1.4583817l9.8229866,3.1605339      L49.6251297,46.1277199z M47.7627144,41.6389389c-0.2428894,0.4394264-0.6127167,0.7440643-1.1101418,0.9091148      c-0.4974213,0.1650505-0.978035,0.1420937-1.4409904-0.068409c-0.4625778-0.2091789-0.7746506-0.5576363-0.9363098-1.0431976      c-0.1611862-0.4864082-0.1211853-0.9497948,0.1208572-1.3896942c0.2433624-0.4402733,0.6127205-0.7440643,1.1101418-0.9091148      c0.4974251-0.1650505,0.9780388-0.1420898,1.4406166,0.0670891c0.4629555,0.2105026,0.7754974,0.5581093,0.9366837,1.0445175      C48.0447617,40.7356529,48.0047569,41.1990433,47.7627144,41.6389389z M44.6764717,47.6483002      c-0.2428894,0.4394264-0.613472,0.7414284-1.1100464,0.9069519c-0.4978943,0.1658974-0.9781303,0.1442566-1.4410858-0.0662422      c-0.4629555-0.2105026-0.7754974-0.5581093-0.9366875-1.0445175c-0.1625061-0.4860344-0.1208076-0.9484787,0.1221771-1.3900719      c0.2420425-0.4398956,0.6117783-0.7423706,1.1096725-0.908268c0.4974213-0.1650505,0.9771881-0.1425629,1.4414597,0.0675621      c0.4621086,0.2100258,0.7741814,0.5584831,0.9358406,1.0440445S44.9194565,47.2067108,44.6764717,47.6483002z       M45.6461258,41.5013885c0.1939545,0.0699997,0.4040833,0.0669441,0.631237-0.0087051      c0.2253685-0.0744247,0.3948936-0.2020264,0.5059433-0.3820572c0.1119003-0.1795578,0.1375618-0.3615456,0.0765152-0.5451126      c-0.0614243-0.1848869-0.1904297-0.3119545-0.3843842-0.3819542c-0.1944237-0.0691528-0.4045525-0.0660934-0.6303902,0.0091782      c-0.2266808,0.0747986-0.3962097,0.2024002-0.5067902,0.3815842c-0.1118965,0.1795578-0.1384048,0.3610725-0.0769844,0.5459595      C45.3226967,41.3051682,45.4517021,41.4322357,45.6461258,41.5013885z M42.5447311,47.5400314      c0.1944237,0.0691566,0.4045563,0.0660973,0.6303902-0.0091743c0.2266846-0.0748024,0.3948936-0.2020264,0.5076408-0.381115      c0.1110497-0.1800308,0.1367111-0.3620148,0.0748177-0.5460548c-0.0614243-0.1848869-0.188736-0.3110123-0.3826866-0.381012      c-0.1957436-0.068779-0.4054031-0.0665665-0.6320877,0.0082321c-0.2258339,0.0752716-0.394043,0.2024994-0.5067902,0.381588      c-0.1118965,0.1795578-0.1367111,0.3620148-0.0752869,0.5469017      C42.2221489,47.3442841,42.3494606,47.4704094,42.5447311,47.5400314z"/>
			</g>
			<path fill="#DC8744" d="M47.8692093,36.0681229l-0.0492287-4.4456749     c-0.0035286-0.3168316-0.1437836-0.6166897-0.3847198-0.8224678l-3.5726051-3.0512753     c-0.2409325-0.2057781-0.5590782-0.29743-0.8725395-0.2512951l-4.3985863,0.6468716     c-0.2626953,0.0386372-0.5025024,0.1711845-0.674942,0.3730888L27.184721,41.08284     c-0.3937016,0.460968-0.3391724,1.1537857,0.1217937,1.5474892l8.0204315,6.8500595     c0.460968,0.3936996,1.1537895,0.3391724,1.5474892-0.1217957l10.7318687-12.5654716     C47.7787437,36.5912209,47.8721428,36.3336296,47.8692093,36.0681229z"/>
			<path fill="#F6C358" d="M47.7376175,34.9941444l-0.0492287-4.4456749     c-0.0035248-0.3168335-0.1437798-0.6166916-0.384716-0.8224678l-3.5726051-3.0512772     c-0.2409363-0.2057762-0.559082-0.2974281-0.8725433-0.2512951l-4.3985825,0.6468716     c-0.2626991,0.0386391-0.5025024,0.1711864-0.6749458,0.3730888L27.0531311,40.0088615     c-0.3937016,0.4609642-0.3391724,1.1537857,0.1217937,1.5474854l8.0204334,6.8500595     c0.460968,0.3937035,1.1537857,0.3391724,1.5474854-0.1217918l10.7318687-12.5654716     C47.6471519,35.5172386,47.740551,35.2596512,47.7376175,34.9941444z"/>
			
				<ellipse transform="matrix(0.4854506 -0.8742641 0.8742641 0.4854506 -3.7186682 53.7342262)" fill="#FFFFFF" cx="43.7902222" cy="30.0262833" rx="1.2645868" ry="1.2645868"/>
			<g>
				<path fill="#E56353" d="M42.6249962,34.6280556c0.1438293-0.1635017,0.2184944-0.3356209,0.2239876-0.5163498      c0.0055847-0.1813393-0.0792046-0.3487091-0.2542801-0.5027199c-0.1753235-0.1542282-0.3551559-0.2196465-0.5400887-0.1960793      c-0.184845,0.0229607-0.480938,0.1576729-0.8881149,0.4049683c-0.407341,0.2464676-0.7840729,0.3714066-1.1298599,0.3744316      c-0.3459511,0.0021935-0.7072067-0.1623344-1.0842667-0.4940338c-0.3770599-0.3316956-0.5870743-0.7102509-0.6291008-1.136219      c-0.0423698-0.4255829,0.0927162-0.8160152,0.4055977-1.17169c0.457737-0.52034,1.0969353-0.7772713,1.9170074-0.770628      l0.2405548,0.8363457c-0.6751671,0.002615-1.1716652,0.1850796-1.4900017,0.5469551      c-0.1591682,0.1809349-0.2353096,0.3689346-0.2275772,0.5640488c0.0071373,0.1952782,0.0945168,0.3663025,0.2612877,0.5130081      c0.1670265,0.1469307,0.340786,0.2111282,0.5215416,0.1928215c0.1805-0.0185318,0.4166908-0.1165962,0.7076302-0.2936401      c0.2912827-0.1774292,0.5250626-0.3016663,0.7004051-0.3721542c0.1756859-0.0708809,0.3581276-0.1103821,0.5478325-0.1180687      c0.3668289-0.0264397,0.7498779,0.1366463,1.1495781,0.4882584s0.6096802,0.7342606,0.6290054,1.1485062      c0.0196648,0.4138565-0.1158676,0.7860298-0.4062538,1.1161308c-0.1871185,0.2127075-0.418148,0.384037-0.6927528,0.5135956      c-0.2751961,0.1297264-0.562149,0.1982536-0.8608551,0.2055817l-0.2863197-0.7838173      c0.2017784,0.0029335,0.4138565-0.0469246,0.6359825-0.1497993S42.481163,34.7915573,42.6249962,34.6280556z"/>
				<path fill="#E56353" d="M37.717823,34.6218338l-0.6899109-1.1979599l0.527607-0.5997658l3.031189,5.2678261L40.0591011,38.6917      l-5.6112862-2.3348618l0.5279503-0.6001549l1.2761383,0.5315552L37.717823,34.6218338z M37.1266251,36.6522293      l2.3121109,0.9617958l-1.2483749-2.1710129L37.1266251,36.6522293z"/>
				<path fill="#E56353" d="M34.0415459,36.8186722l4.3212357,3.8013458l-0.4942055,0.5617943l-3.6287422-3.1921654      l-1.3360596,1.5187874l-0.6924973-0.6091805L34.0415459,36.8186722z"/>
				<path fill="#E56353" d="M33.936058,45.6521606l-0.6862068-0.6036491l1.5620346-1.7756615l-1.1437607-1.0061531      l-1.4028664,1.5947227l-0.6489773-0.5708961l1.4028645-1.5947266l-1.156086-1.0169983l-1.6124763,1.833004l-0.6862049-0.6036453      l2.1066799-2.3948021l4.3212395,3.8013458L33.936058,45.6521606z"/>
			</g>
			<path fill="#27A2DB" d="M50.5659103,24.7790966c-1.442627-1.2461071-4.0302086-0.6202335-5.770649,1.3940315     c-1.0459023,1.2098579-1.5966225,2.703661-1.4740028,3.9954395c0.0132179,0.1404896,0.0958519,0.2580166,0.2106514,0.3217621     c0.0704308,0.0391064,0.1525536,0.0579853,0.2390938,0.0498295c0.2266731-0.0215683,0.3928833-0.2229919,0.371315-0.4496651     c-0.1017418-1.0721664,0.3755188-2.3349304,1.2768211-3.3781319c1.4438248-1.6700916,3.5119591-2.2565918,4.6075172-1.308939     c1.0968094,0.9478874,0.815258,3.0779095-0.6276665,4.7480412c-0.2937202,0.3397903-0.6698494,0.6817093-1.0179291,0.9360275     l0.5907745,0.5859241c0.3981895-0.2914562,0.716774-0.5956383,1.051033-0.9827175     C51.7635612,28.6768055,52.0070267,26.0245953,50.5659103,24.7790966z"/>
		</g>
	</g>
</g>
</svg>
