<?xml version="1.0" encoding="utf-8"?>
<!-- Generator: Adobe Illustrator 21.0.2, SVG Export Plug-In . SVG Version: 6.00 Build 0)  -->
<svg xmlns="http://www.w3.org/2000/svg" xmlns:xlink="http://www.w3.org/1999/xlink" version="1.1" id="Layer_1" x="0px" y="0px" viewBox="0 0 100 100" enable-background="new 0 0 100 100" xml:space="preserve" width="512" height="512">
<g>
	<circle fill="#EA8953" cx="50" cy="50" r="48"/>
	<path opacity="0.1" d="M66.4699707,34.9599609l-0.039978-0.0299683c-0.1599731-0.1099854-0.3499756-0.1500244-0.539978-0.1000366   l-17.7700195,4.9900513l-12.460022-12.4700317h-0.0199585c-0.8300171-0.8800049-2.1099854-1.2999878-3.3500366-0.9500122   l-2.3899536,0.6700439l-0.4400024-0.4400024l-5.5300293,1.5499878c-1.039978,0.289978-1.6499634,1.3699951-1.3599854,2.4099731   c0.1099854,0.3900146,0.3300171,0.7200317,0.6300049,0.9700317l15.6699829,15.6699829l5.0100098,17.8499756   C42.4099731,66.2699585,41.710022,68.25,42.25,70.1799927c0.2299805,0.8099976,0.6599731,1.4899902,1.210022,2.0499878   l-0.0100098,0.0300293l22.8893433,22.8831177c14.0319214-5.079895,25.020752-16.512146,29.4879761-30.8258057   L66.6099854,35.0999756C66.5700073,35.039978,66.5300293,35,66.4699707,34.9599609z"/>
	<g>
		<g>
			<path fill="#FCD462" d="M65.8890228,34.8348122l-23.8012962,6.6772079     c-0.3530464,0.0990448-0.5589142,0.4654579-0.459877,0.81847l6.5218201,23.2474136     c0.0990334,0.3530121,0.4654465,0.558876,0.8184929,0.4598389l23.8013-6.6772118     c0.3529205-0.0990067,0.5588455-0.4654388,0.4598083-0.8184509l-6.5218201-23.2474136     C66.6084213,34.9416542,66.2419434,34.7358055,65.8890228,34.8348122z"/>
			<path fill="#F6C358" d="M51.7372894,38.8049355l1.5451851,5.5078964     c0.3660011,0.0185928,0.7475433,0.1395683,1.0521431-0.0501709c0.1841202-0.1147461,0.2920609-0.3212166,0.4637794-0.453804     c0.3052521-0.2355919,0.7311707-0.1913986,1.1163559-0.208725c0.6516838-0.0292664,1.2712936-0.2615738,1.8985634-0.4476395     l-1.5739822-5.6105576L51.7372894,38.8049355z"/>
			<g>
				
					<rect x="63.0449142" y="53.5619545" transform="matrix(0.962829 -0.2701117 0.2701117 0.962829 -12.7327623 20.1447163)" fill="#FFFFFF" width="7.5636234" height="5.5463562"/>
				<g>
					
						<rect x="63.6238937" y="55.0194702" transform="matrix(0.962829 -0.2701117 0.2701117 0.962829 -13.0830297 19.3394012)" fill="#64798A" width="0.2033923" height="4.3713017"/>
					
						<rect x="64.0983734" y="54.8669167" transform="matrix(0.962829 -0.2701117 0.2701117 0.962829 -13.0216093 19.4806137)" fill="#64798A" width="0.3420132" height="4.3713017"/>
					
						<rect x="64.5780945" y="54.7517815" transform="matrix(0.962829 -0.2701117 0.2701117 0.962829 -12.9752541 19.5871925)" fill="#64798A" width="0.2033923" height="4.3713017"/>
					
						<rect x="65.0551529" y="54.6179466" transform="matrix(0.962829 -0.2701117 0.2701117 0.962829 -12.9213715 19.7110748)" fill="#64798A" width="0.2033923" height="4.3713017"/>
					
						<rect x="65.6943665" y="54.4291878" transform="matrix(0.962829 -0.2701117 0.2701117 0.962829 -12.8453751 19.8858032)" fill="#64798A" width="0.2706655" height="4.3713017"/>
					
						<rect x="65.3651733" y="54.5309753" transform="matrix(0.962829 -0.2701117 0.2701117 0.962829 -12.8863554 19.7915821)" fill="#64798A" width="0.2033923" height="4.3713017"/>
					
						<rect x="66.1256866" y="54.3176193" transform="matrix(0.962829 -0.2701117 0.2701117 0.962829 -12.800457 19.9890747)" fill="#64798A" width="0.2033923" height="4.3713017"/>
					
						<rect x="66.4865036" y="54.2163963" transform="matrix(0.962829 -0.2701117 0.2701117 0.962829 -12.7597036 20.0827751)" fill="#64798A" width="0.2033923" height="4.3713017"/>
					
						<rect x="66.9635544" y="54.0825653" transform="matrix(0.962829 -0.2701117 0.2701117 0.962829 -12.705821 20.2066574)" fill="#64798A" width="0.2033923" height="4.3713017"/>
					
						<rect x="67.4407043" y="53.9487038" transform="matrix(0.962829 -0.2701117 0.2701117 0.962829 -12.6519279 20.3305664)" fill="#64798A" width="0.2033923" height="4.3713017"/>
					
						<rect x="67.9151993" y="53.7962761" transform="matrix(0.962829 -0.2701117 0.2701117 0.962829 -12.5905581 20.4716644)" fill="#64798A" width="0.3410998" height="4.3713017"/>
					
						<rect x="68.3949051" y="53.681015" transform="matrix(0.962829 -0.2701117 0.2701117 0.962829 -12.5441523 20.5783558)" fill="#64798A" width="0.2033923" height="4.3713017"/>
					
						<rect x="68.8719635" y="53.5471802" transform="matrix(0.962829 -0.2701117 0.2701117 0.962829 -12.4902706 20.70224)" fill="#64798A" width="0.2033923" height="4.3713017"/>
					
						<rect x="69.3491135" y="53.4133224" transform="matrix(0.962829 -0.2701117 0.2701117 0.962829 -12.4363775 20.8261471)" fill="#64798A" width="0.2033923" height="4.3713017"/>
					
						<rect x="69.8261642" y="53.2794876" transform="matrix(0.962829 -0.2701117 0.2701117 0.962829 -12.3824949 20.9500313)" fill="#64798A" width="0.2033923" height="4.3713017"/>
					
						<rect x="63.849144" y="57.4499245" transform="matrix(0.962829 -0.2701117 0.2701117 0.962829 -13.0520887 20.2836056)" fill="#E56353" width="6.6451073" height="0.229765"/>
				</g>
			</g>
		</g>
		<g>
			<g>
				<path fill="#27A2DB" d="M77.5,62.3448448l-27.1781082,7.6245384c-2.5929031,0.7274094-5.2942543-0.7903214-6.0218086-3.3837204      l-10.418457-37.1371994c-0.105793-0.3771152-0.4986382-0.5978298-0.8762474-0.4918938l-3.7017994,1.0384998      l-0.7164974-2.5539951l3.7017975-1.0385017c1.7858009-0.500988,3.6458969,0.5440903,4.1467438,2.3293934l10.418457,37.1371994      c0.3323593,1.1847153,1.5666008,1.8785782,2.7513161,1.5462189l27.1781044-7.6245346L77.5,62.3448448z"/>
			</g>
			<g>
				<path fill="#E56353" d="M23.9258595,28.1807823c-1.0384331,0.2913208-1.6440983,1.3693218-1.3527679,2.4077873      l0.0000076,0.0000305c0.2913303,1.0384655,1.3693333,1.6441307,2.4077663,1.3528099l5.5351124-1.5528183l-1.0550041-3.7606297      L23.9258595,28.1807823z"/>
			</g>
		</g>
		
			<ellipse transform="matrix(0.962829 -0.2701117 0.2701117 0.962829 -16.8564701 15.2357969)" fill="#3A556A" cx="46.928978" cy="68.8636093" rx="4.8580003" ry="4.8580003"/>
		
			<ellipse transform="matrix(0.962829 -0.2701117 0.2701117 0.962829 -16.8564701 15.2357969)" fill="#64798A" cx="46.928978" cy="68.8636093" rx="3.1152592" ry="3.1152592"/>
		
			<ellipse transform="matrix(0.962829 -0.2701117 0.2701117 0.962829 -16.8564701 15.2357969)" fill="#2F4859" cx="46.928978" cy="68.8636093" rx="1.8357863" ry="1.8357863"/>
	</g>
</g>
</svg>
