<?xml version="1.0" encoding="utf-8"?>
<!-- Generator: Adobe Illustrator 21.0.2, SVG Export Plug-In . SVG Version: 6.00 Build 0)  -->
<svg xmlns="http://www.w3.org/2000/svg" xmlns:xlink="http://www.w3.org/1999/xlink" version="1.1" id="Layer_1" x="0px" y="0px" viewBox="0 0 100 100" enable-background="new 0 0 100 100" xml:space="preserve" width="512" height="512">
<g>
	<circle fill="#45B39C" cx="50" cy="50" r="48"/>
	<path opacity="0.1" d="M97.9082642,52.8553238L73.2600098,28.1991959c-0.4500122-0.5100098-0.9299927-1-1.4400024-1.4400635   l-0.0300293-0.0300293c-2.9799805-2.6298828-6.8899536-4.2299805-11.1699829-4.2299805   c-9.3200073,0-16.8800049,7.5600586-16.8800049,16.880127c0,1.9099121,0.3300171,3.7399902,0.9199829,5.4499512H24.9799805   c-1.3699951,0-2.4799805,1.1099854-2.4799805,2.4799805v27.7099609c0,0.7399902,0.3300171,1.4100342,0.8499756,1.8601074   l0.0599976,0.0499268l20.697937,20.697876c1.932373,0.2368164,3.895752,0.3729248,5.8920898,0.3729248   C75.550293,97.9999771,96.4298706,78.0346451,97.9082642,52.8553238z"/>
	<g>
		<g>
			<path fill="#2F4859" d="M68.1302948,44.8269653H24.9818497c-1.3706665,0-2.4818497,1.1111832-2.4818497,2.4818497v27.7093353     C22.5,76.3888168,23.6111832,77.5,24.9818497,77.5h43.1484451c1.3706665,0,2.4818497-1.1111832,2.4818497-2.4818497V47.308815     C70.6121445,45.9381485,69.5009613,44.8269653,68.1302948,44.8269653z"/>
			<rect x="22.5" y="48.4878197" fill="#27A2DB" width="48.1121445" height="5.3912597"/>
			<rect x="40.5683289" y="56.8938751" fill="#FFFFFF" width="27.0274715" height="3.642374"/>
			<rect x="42.7326393" y="58.2135773" fill="#D5D6DB" width="7.073596" height="1.0029726"/>
			<rect x="24.8902836" y="72.2024078" fill="#D5D6DB" width="15.6780443" height="1.7514596"/>
			<rect x="62.6337242" y="58.2135773" fill="#D5D6DB" width="3.9063141" height="1.0029726"/>
			<g>
				<circle fill="#E56353" cx="64.0664597" cy="71.0485306" r="3.5293369"/>
				<circle fill="#FCD462" cx="59.13871" cy="71.0485306" r="3.5293369"/>
			</g>
		</g>
		<g>
			<circle fill="#E56353" cx="60.6206894" cy="39.3793106" r="16.8793106"/>
			<g>
				<path fill="#FFFFFF" d="M60.6203079,54.0085754c-8.0664063,0-14.6289063-6.5625-14.6289063-14.6289063      c0-8.0673809,6.5625-14.6298809,14.6289063-14.6298809c8.0673828,0,14.6298828,6.5625,14.6298828,14.6298809      C75.2501907,47.4460754,68.6876907,54.0085754,60.6203079,54.0085754z M60.6203079,26.2497883      c-7.2392578,0-13.1289063,5.8896465-13.1289063,13.1298809c0,7.2392578,5.8896484,13.1289063,13.1289063,13.1289063      c7.2402344,0,13.1298828-5.8896484,13.1298828-13.1289063C73.7501907,32.1394348,67.8605423,26.2497883,60.6203079,26.2497883z"/>
			</g>
			<g>
				<path fill="#FFFFFF" d="M57.6410484,31.7295094c0.6945381,0.7517605,1.0437813,1.6613712,1.0437813,2.7288303      c0,1.0654869-0.3531876,1.9790421-1.0556183,2.7386932c-0.7024345,0.759655-1.5765266,1.1404686-2.6183357,1.1404686      s-1.9119568-0.3768692-2.6064987-1.1286278c-0.6945381-0.7517624-1.0418091-1.6593971-1.0418091-2.7268562      c0-1.0674629,0.3512154-1.9810181,1.0536499-2.7406693c0.7044029-0.7596531,1.5765266-1.1384926,2.6183357-1.1384926      C56.0783348,30.6028557,56.9465103,30.9777489,57.6410484,31.7295094z M67.5086365,31.0152378L55.0957184,47.9623985h-3.1273994      l12.4129219-16.9471607H67.5086365z M56.0171661,35.7310028c0.2584801-0.3314857,0.3887062-0.7399216,0.3887062-1.2253075      c0-0.4853897-0.1381187-0.8918533-0.412384-1.2233391c-0.2762337-0.3314857-0.6116676-0.4972267-1.0062904-0.4972267      c-0.3965988,0-0.7241364,0.165741-0.9826164,0.4972267s-0.3887062,0.7379494-0.3887062,1.2233391      c0,0.4853859,0.1381187,0.8938217,0.412384,1.2253075c0.2762375,0.3314857,0.6096954,0.4972267,1.0062943,0.4972267      C55.4311485,36.2282295,55.7586899,36.0624886,56.0171661,35.7310028z M67.2679214,41.5497437      c0.6945343,0.7517624,1.0418091,1.6613731,1.0418091,2.72686c0,1.0674591-0.3512192,1.9810143-1.0556259,2.7406654      c-0.7024307,0.759655-1.5745468,1.1384926-2.6183319,1.1384926c-1.0418091,0-1.9099846-0.3748932-2.6064987-1.1266518      c-0.6945381-0.7517624-1.0418091-1.6613693-1.0418091-2.7268562c0-1.0674629,0.3512154-1.9810181,1.0556221-2.7406693      c0.7024307-0.759655,1.5745544-1.1404648,2.6183357-1.1404648      C65.7032318,40.4211197,66.5714035,40.7979851,67.2679214,41.5497437z M65.691391,45.5985947      c0.2584839-0.3314857,0.386734-0.7399216,0.386734-1.2253113c0-0.4834137-0.1361465-0.8918495-0.410408-1.2233353      c-0.2762375-0.3314857-0.6116714-0.4972267-1.0062943-0.4972267c-0.3965988,0-0.7241364,0.165741-0.9826164,0.4972267      s-0.3887062,0.7399216-0.3887062,1.2233353c0,0.4853897,0.1381187,0.8938255,0.412384,1.2253113      s0.6096954,0.4972267,1.0062943,0.4972267S65.4329147,45.9300804,65.691391,45.5985947z"/>
			</g>
		</g>
	</g>
</g>
</svg>
