<?xml version="1.0" encoding="utf-8"?>
<!-- Generator: Adobe Illustrator 21.0.2, SVG Export Plug-In . SVG Version: 6.00 Build 0)  -->
<svg xmlns="http://www.w3.org/2000/svg" xmlns:xlink="http://www.w3.org/1999/xlink" version="1.1" id="Layer_1" x="0px" y="0px" viewBox="0 0 100 100" enable-background="new 0 0 100 100" xml:space="preserve" width="512" height="512">
<g>
	<circle fill="#45B39C" cx="50" cy="50" r="48"/>
	<path opacity="0.1" d="M61.5999756,27.2299805l-2.3599854-2.3599854l-1.4799805,0.4799805l-2.0500488-2.0499878   l-1.8798828,1.0999756L51.9299316,22.5L50,24.25l-1.9299316-1.75l-1.5300293,2.1099854l-2.25-1.3099976l-1.0600586,2.3800049   l-2.4699707-0.8099976l-0.5400391,2.5499878l-2.5899658-0.2700195L37.6400146,29.75l-2.5899658,0.2699585l0.5499268,2.5400391   l-2.4799805,0.7999878l1.0599365,2.3800049l-2.2600098,1.2999878l1.5400391,2.1000366l-1.9399414,1.7399902l1.8599854,1.8599854   l-1.460083,1.9799805l1.960083,1.960022l-0.7600098,1.7199707l2.1800537,2.1799927l-0.25,1.1600342l2.5799561,2.5800171v0.289978   l0.2199707,0.2199707l-6.8800049,18.3600464L55.461792,97.6817627   c20.1204834-2.2803955,36.4622803-16.9936523,41.1634521-36.2765503l-34.255249-34.255249L61.5999756,27.2299805z"/>
	<g>
		<g>
			<polygon fill="#EBF0F3" points="42.464077,77.5 38.0521278,71.7752838 30.9651413,73.19384 41.1433296,46.0145378      52.6422691,50.320694    "/>
			<polygon fill="#E56353" points="57.535923,77.5 61.9478722,71.7752838 69.0348587,73.19384 58.8566704,46.0145378      47.3577347,50.320694    "/>
		</g>
		<polygon fill="#FCD462" points="50,24.2468204 51.9317513,22.5 53.4580994,24.610281 55.7108192,23.3032665     56.7650642,25.6847782 59.2402992,24.874691 59.7763596,27.4233532 62.3659325,27.1455975 62.3603821,29.7500172     64.9511185,30.0167351 64.4041977,32.5630875 66.8828659,33.3626213 65.8184814,35.7396202 68.0767517,37.0370255     66.54142,39.1407814 68.4805984,40.8793564 66.54142,42.6179276 68.0767517,44.7216873 65.8184814,46.0190926     66.8828659,48.3960915 64.4041977,49.1956215 64.9511185,51.7419777 62.3603821,52.0086937 62.3659325,54.6131134     59.7763596,54.3353577 59.2402992,56.8840218 56.7650642,56.0739326 55.7108192,58.4554443 53.4580994,57.1484299     51.9317513,59.2587128 50,57.5118904 48.0682526,59.2587128 46.5419044,57.1484299 44.2891846,58.4554443 43.2349396,56.0739326     40.7597046,56.8840218 40.2236443,54.3353577 37.6340714,54.6131134 37.6396179,52.0086937 35.0488853,51.7419777     35.5958023,49.1956215 33.1171379,48.3960915 34.1815186,46.0190926 31.9232521,44.7216873 33.45858,42.6179276     31.5194073,40.8793564 33.45858,39.1407814 31.9232521,37.0370255 34.1815186,35.7396202 33.1171379,33.3626213     35.5958023,32.5630875 35.0488853,30.0167351 37.6396179,29.7500172 37.6340714,27.1455975 40.2236443,27.4233532     40.7597046,24.874691 43.2349396,25.6847782 44.2891846,23.3032665 46.5419044,24.610281 48.0682526,22.5   "/>
		<circle fill="#DC8744" cx="50" cy="40.8793564" r="13.6155281"/>
		<circle fill="#F6C358" cx="50" cy="40.8793564" r="12.0373964"/>
		<g>
			<path fill="#E56353" d="M48.206604,34.6294746c0.56744,0.6141853,0.8527718,1.357338,0.8527718,2.2294502     c0,0.8705025-0.2885551,1.6168785-0.862442,2.2375145s-1.2880211,0.9317589-2.1391792,0.9317589     s-1.5620651-0.3078995-2.1295052-0.9220886c-0.56744-0.6141853-0.8511581-1.3557243-0.8511581-2.2278404     c0-0.8721123,0.2869453-1.6184883,0.8608322-2.2391243c0.5754967-0.620636,1.2880173-0.9301453,2.1391754-0.9301453     C46.9298706,33.7089996,47.6391678,34.0152855,48.206604,34.6294746z M56.2684212,34.0459137L46.1270714,47.8917351h-2.5550842     l10.1413498-13.8458214H56.2684212z M46.8798981,37.8986931c0.211174-0.2708244,0.3175697-0.6045151,0.3175697-1.0010796     c0-0.3965607-0.1128426-0.7286415-0.3369179-0.9994621c-0.2256851-0.2708244-0.4997292-0.4062347-0.8221397-0.4062347     c-0.3240204,0-0.5916176,0.1354103-0.8027954,0.4062347c-0.2111778,0.2708206-0.3175735,0.6029015-0.3175735,0.9994621     c0,0.3965645,0.1128426,0.7302551,0.3369179,1.0010796c0.2256851,0.2708206,0.4981194,0.4062347,0.8221397,0.4062347     S46.6687202,38.1695137,46.8798981,37.8986931z M56.0717545,42.6525993     c0.5674362,0.6141891,0.8511543,1.357338,0.8511543,2.2278404c0,0.8721161-0.2869415,1.6184921-0.8624382,2.2391243     c-0.5738869,0.620636-1.2864113,0.9301491-2.1391792,0.9301491c-0.8511581,0-1.5604553-0.3062859-2.1295052-0.920475     c-0.56744-0.6141891-0.8511581-1.357338-0.8511581-2.2278404c0-0.8721123,0.2869415-1.6184883,0.862442-2.2391243     c0.5738869-0.620636,1.2864075-0.9317589,2.1391754-0.9317589C54.7934036,41.7305145,55.5027008,42.038414,56.0717545,42.6525993     z M54.7837334,45.9605103c0.2111778-0.2708244,0.3159599-0.6045189,0.3159599-1.0010796     c0-0.3949509-0.1112328-0.7286415-0.3353043-0.9994659c-0.2256851-0.2708206-0.499733-0.4062347-0.8221436-0.4062347     c-0.3240204,0-0.5916176,0.1354141-0.8027954,0.4062347c-0.2111778,0.2708244-0.3175697,0.6045151-0.3175697,0.9994659     c0,0.3965607,0.1128426,0.7302551,0.3369141,1.0010796c0.2240753,0.2708206,0.4981232,0.4062309,0.8221436,0.4062309     C54.3049545,46.3667412,54.5725555,46.2313309,54.7837334,45.9605103z"/>
		</g>
	</g>
</g>
</svg>
