<?xml version="1.0" encoding="utf-8"?>
<!-- Generator: Adobe Illustrator 21.0.2, SVG Export Plug-In . SVG Version: 6.00 Build 0)  -->
<svg xmlns="http://www.w3.org/2000/svg" xmlns:xlink="http://www.w3.org/1999/xlink" version="1.1" id="Layer_1" x="0px" y="0px" viewBox="0 0 100 100" enable-background="new 0 0 100 100" xml:space="preserve" width="512" height="512">
<g>
	<circle fill="#E05B49" cx="50" cy="50" r="48"/>
	<path opacity="0.1" d="M96.6833496,61.1533203L66.210022,30.6799927h-6.3699951l-4.0100098-4.0100098H22.5v40.4199829   l30.7856445,30.7855225C74.484375,96.440918,91.8986206,81.2512817,96.6833496,61.1533203z"/>
	<g>
		<rect x="22.5000019" y="26.6725655" fill="#FCD462" width="33.3308029" height="33.3308029"/>
		<polygon fill="#64798A" points="77.5,44.2871933 77.5,67.0871811 22.5000019,67.0871811 22.5000019,59.0472031     57.7299805,59.0472031 57.7299805,30.6772099 66.2099609,30.6772099   "/>
		<polygon fill="#27A2DB" points="75.5,48.0572128 75.5,45.0093613 65.2705078,32.67733 59.7294922,32.67733 59.7294922,48.0572128       "/>
		<rect x="59.7294922" y="50.3232193" fill="#3A556A" width="0.9969312" height="3.8978038"/>
		<path fill="#FCD462" d="M75.2841797,56.2724533c0,1.2236938,0.9921875,2.2156372,2.2158203,2.2156372v-4.4312134    C76.2763672,54.0568771,75.2841797,55.0488205,75.2841797,56.2724533z"/>
		<g>
			<path fill="#DC8744" d="M27.2981758,40.8144951v2.0232353h3.2654705v1.1479301h-3.2654705v3.0339966h-1.2430897v-7.3633804     h4.9089203l-0.0102882,1.1582184H27.2981758z"/>
			<path fill="#DC8744" d="M38.296524,42.0472946c0,1.2148018-0.5306702,1.9803734-1.591156,2.2967186l1.9280777,2.6756439     h-1.5800095l-1.7591896-2.4758911h-1.6331635v2.4758911h-1.2430916v-7.3633804h2.7390862     c1.1230698,0,1.9280777,0.1894646,2.4124527,0.5683937C38.0539093,40.604454,38.296524,41.2114258,38.296524,42.0472946z      M36.6419296,43.0906334c0.252903-0.2177544,0.3797836-0.5675316,0.3797836-1.048481     c0-0.4809456-0.1303101-0.8110085-0.3900719-0.9901848s-0.7235641-0.2683372-1.3905487-0.2683372h-1.5800095v2.6336365h1.5482903     C35.9115067,43.4172668,36.3898811,43.3083916,36.6419296,43.0906334z"/>
			<path fill="#DC8744" d="M45.2586899,39.6562767v1.1693611h-3.9290237v1.9486504h3.5286598v1.1059227h-3.5286598v1.9700851     h4.0559044v1.1693611h-5.298996v-7.3633804H45.2586899z"/>
			<path fill="#DC8744" d="M52.148838,39.6562767v1.1693611h-3.9290237v1.9486504h3.5286636v1.1059227h-3.5286636v1.9700851     h4.0559044v1.1693611h-5.2989922v-7.3633804H52.148838z"/>
		</g>
		<g>
			<path fill="#2F4859" d="M27.8710957,67.1610489c0-3.9521446,3.2148438-7.1669884,7.1669903-7.1669884     s7.1669922,3.2148438,7.1669922,7.1669884"/>
			<circle fill="#3A556A" cx="35.0379486" cy="67.1607208" r="6.1667151"/>
			<circle fill="#2F4859" cx="35.0379486" cy="67.1607208" r="3.408767"/>
			<circle fill="#64798A" cx="35.0379486" cy="67.1607208" r="0.5349361"/>
			<g>
				<circle fill="#64798A" cx="35.0379486" cy="64.821373" r="0.5349361"/>
				<circle fill="#64798A" cx="35.0379486" cy="69.5000687" r="0.5349361"/>
			</g>
			<g>
				
					<ellipse transform="matrix(0.8660254 -0.5 0.5 0.8660254 -29.742424 25.6605434)" fill="#64798A" cx="33.0120163" cy="68.3303909" rx="0.5349361" ry="0.5349361"/>
				
					<ellipse transform="matrix(0.8660254 -0.5 0.5 0.8660254 -28.0299034 27.3730659)" fill="#64798A" cx="37.0638847" cy="65.9910431" rx="0.5349361" ry="0.5349361"/>
			</g>
			<g>
				
					<ellipse transform="matrix(0.5 -0.8660254 0.8660254 0.5 -40.6439133 66.2634583)" fill="#64798A" cx="37.0638847" cy="68.3303909" rx="0.5349361" ry="0.5349361"/>
				
					<ellipse transform="matrix(0.5 -0.8660254 0.8660254 0.5 -40.6439133 61.5847664)" fill="#64798A" cx="33.0120163" cy="65.9910431" rx="0.5349361" ry="0.5349361"/>
			</g>
		</g>
		<g>
			<path fill="#2F4859" d="M59.4454498,67.1610489c0-3.9521446,3.2148438-7.1669884,7.1669922-7.1669884     s7.1669922,3.2148438,7.1669922,7.1669884"/>
			<circle fill="#3A556A" cx="66.6123047" cy="67.1607208" r="6.1667151"/>
			<circle fill="#2F4859" cx="66.6123047" cy="67.1607208" r="3.408767"/>
			<circle fill="#64798A" cx="66.6123047" cy="67.1607208" r="0.5349361"/>
			<g>
				<circle fill="#64798A" cx="66.6123047" cy="64.821373" r="0.5349361"/>
				<circle fill="#64798A" cx="66.6123047" cy="69.5000687" r="0.5349361"/>
			</g>
			<g>
				
					<ellipse transform="matrix(0.8660254 -0.5 0.5 0.8660254 -25.5122623 41.4477234)" fill="#64798A" cx="64.5863724" cy="68.3303909" rx="0.5349361" ry="0.5349361"/>
				
					<ellipse transform="matrix(0.8660254 -0.5 0.5 0.8660254 -23.7997417 43.160244)" fill="#64798A" cx="68.638237" cy="65.9910431" rx="0.5349361" ry="0.5349361"/>
			</g>
			<g>
				
					<ellipse transform="matrix(0.5 -0.8660254 0.8660254 0.5 -24.8567352 93.6076584)" fill="#64798A" cx="68.638237" cy="68.3303909" rx="0.5349361" ry="0.5349361"/>
				
					<ellipse transform="matrix(0.5 -0.8660254 0.8660254 0.5 -24.8567352 88.9289627)" fill="#64798A" cx="64.5863724" cy="65.9910431" rx="0.5349361" ry="0.5349361"/>
			</g>
		</g>
		<path fill="#FCD462" d="M22.5000019,62.7362289v2.4515381h1.0771484c0.2397461,0,0.434082-0.1942749,0.434082-0.43396v-2.0175781    H22.5000019z"/>
		<path fill="#E56353" d="M24.0112324,61.0841293c0-0.239624-0.1943359-0.43396-0.434082-0.43396h-1.0771484v2.0860596h1.5112305    V61.0841293z"/>
	</g>
</g>
</svg>
