<?xml version="1.0" encoding="utf-8"?>
<!-- Generator: Adobe Illustrator 21.0.2, SVG Export Plug-In . SVG Version: 6.00 Build 0)  -->
<svg xmlns="http://www.w3.org/2000/svg" xmlns:xlink="http://www.w3.org/1999/xlink" version="1.1" id="Layer_1" x="0px" y="0px" viewBox="0 0 100 100" enable-background="new 0 0 100 100" xml:space="preserve" width="512" height="512">
<g>
	<circle fill="#E05B49" cx="50" cy="50" r="48"/>
	<path opacity="0.1" d="M71.7000122,30.899147l-0.0400391,0.0100098l-24.5599976-8.4100342L22.539978,30.9091568L22.5,30.899147   v32.3000488l34.3110962,34.3111572c21.0716553-2.994751,37.7302246-19.6671143,40.7050781-40.7451172l-25.8161621-25.81604   V30.899147z"/>
	<g>
		<g>
			<polygon fill="#FCD462" points="47.1005402,39.3477211 22.5000019,30.8968029 22.5000019,63.1995735 47.1007996,71.7015991         "/>
			<polygon fill="#E5B053" points="47.1005402,39.3477211 71.7015991,30.8968029 71.7015991,63.1995735 47.1007996,71.7015991         "/>
			<polygon fill="#F6C358" points="47.1005402,22.4999981 22.5000019,30.9238605 47.1005402,39.3477211 71.7015991,30.9238605         "/>
			<polygon fill="#CE7A41" points="56.3435173,25.665123 31.7430458,34.0889435 37.8587379,36.1825981 62.4585533,27.758997    "/>
			<polygon fill="#DC8744" points="37.8582878,36.1855659 37.8582878,44.0220451 34.1547394,42.3939133 31.7393208,41.3293686      31.7393208,34.0922928 34.1547394,34.9152832    "/>
		</g>
		<g>
			<circle fill="#64798A" cx="65.0406647" cy="65.0406647" r="12.4593353"/>
			<circle fill="#EBF0F3" cx="65.0406647" cy="65.0406647" r="10.3714352"/>
			<ellipse fill="#FFFFFF" cx="65.0406647" cy="65.3767014" rx="10.3714352" ry="10.0353975"/>
			<g>
				<g>
					<rect x="55.5134468" y="64.7932053" fill="#E56353" width="1.8559519" height="0.4949205"/>
					<rect x="72.711937" y="64.7932053" fill="#E56353" width="1.8559519" height="0.4949205"/>
				</g>
				
					<ellipse transform="matrix(0.8660256 -0.4999997 0.4999997 0.8660256 -27.1648579 44.5924301)" fill="#E56353" cx="69.6282272" cy="72.9865646" rx="0.3520879" ry="0.3520879"/>
				
					<ellipse transform="matrix(0.8660256 -0.4999997 0.4999997 0.8660256 -20.4481964 37.8757744)" fill="#E56353" cx="60.4531021" cy="57.0947647" rx="0.3520879" ry="0.3520879"/>
				
					<ellipse transform="matrix(0.8660256 -0.4999997 0.4999997 0.8660256 -27.164854 37.8757706)" fill="#E56353" cx="57.0947685" cy="69.6282272" rx="0.3520879" ry="0.3520879"/>
				
					<ellipse transform="matrix(0.8660256 -0.4999997 0.4999997 0.8660256 -20.4482002 44.5924301)" fill="#E56353" cx="72.9865646" cy="60.4530983" rx="0.3520879" ry="0.3520879"/>
				
					<ellipse transform="matrix(0.5000003 -0.8660253 0.8660253 0.5000003 -14.6314125 88.8471756)" fill="#E56353" cx="69.6282349" cy="57.0947685" rx="0.3520879" ry="0.3520879"/>
				
					<ellipse transform="matrix(0.5000003 -0.8660253 0.8660253 0.5000003 -32.9816704 88.847168)" fill="#E56353" cx="60.4530983" cy="72.986557" rx="0.3520879" ry="0.3520879"/>
				
					<ellipse transform="matrix(0.5000003 -0.8660253 0.8660253 0.5000003 -23.8065472 98.0223007)" fill="#E56353" cx="72.9865646" cy="69.6282349" rx="0.3520879" ry="0.3520879"/>
				
					<ellipse transform="matrix(0.5000003 -0.8660253 0.8660253 0.5000003 -23.8065376 79.6720428)" fill="#E56353" cx="57.0947685" cy="60.4530945" rx="0.3520879" ry="0.3520879"/>
				<g>
					
						<rect x="64.1126862" y="73.3924484" transform="matrix(6.123234e-17 -1 1 6.123234e-17 -8.5992413 138.6805725)" fill="#E56353" width="1.8559519" height="0.4949205"/>
					
						<rect x="64.1126862" y="56.1939583" transform="matrix(6.123234e-17 -1 1 6.123234e-17 8.599246 121.4820862)" fill="#E56353" width="1.8559519" height="0.4949205"/>
				</g>
			</g>
			<polygon fill="#3A556A" points="63.3611832,65.4702759 62.9862442,65.0403214 63.3619652,64.6110458 69.8973389,64.835701      70.1158524,65.046814 69.8969574,65.2575226    "/>
			<polygon fill="#64798A" points="64.6581726,66.7738266 63.942894,66.9089127 63.7129822,66.2182465 68.1794357,59.1702652      68.5528564,59.0660515 68.6434479,59.4430084    "/>
			<circle fill="#FCD462" cx="65.0406647" cy="65.0406647" r="0.5284862"/>
		</g>
	</g>
</g>
</svg>
