<?xml version="1.0" encoding="utf-8"?>
<!-- Generator: Adobe Illustrator 21.0.2, SVG Export Plug-In . SVG Version: 6.00 Build 0)  -->
<svg xmlns="http://www.w3.org/2000/svg" xmlns:xlink="http://www.w3.org/1999/xlink" version="1.1" id="Layer_1" x="0px" y="0px" viewBox="0 0 100 100" enable-background="new 0 0 100 100" xml:space="preserve" width="512" height="512">
<g>
	<circle fill="#E05B49" cx="50" cy="50" r="48"/>
	<path opacity="0.1" d="M58.6300049,27.039978h-0.0100098C56.0400391,24.3900146,49.5200195,22.5,41.8699951,22.5   c-9.9000244,0-17.9300537,3.1699829-17.9300537,7.0700073v6.1699829c0,0.8200073,0.3500977,1.5999756,1.0100098,2.3300171   c0.1600342,0.1900024,0.3601074,0.3800049,0.5700684,0.5700073l2.7900391,2.789978   C24.75,42.7299805,22.5,44.5700073,22.5,46.6300049v6.1799927c0,1.1499634,0.7099609,2.2399902,1.9699707,3.2099609   l4.3000488,4.3000488v0.0700073C26.9199219,61.5,25.8300781,62.8299561,25.8300781,64.2600098v6.1699829   c0,0.6499634,0.2199707,1.2700195,0.6499023,1.8699951l-0.0100098,0.0100098l0.0400391,0.039978   c0.3200684,0.460022,0.7600098,0.9000244,1.3100586,1.3099976l24.2935791,24.2866211   c20.6153564-0.894043,37.8594971-14.7839355,43.7325439-33.687439L58.7199707,27.1400146L58.6300049,27.039978z"/>
	<g>
		<g>
			<g>
				<path fill="#F6C358" d="M61.7031059,70.4305115c0,3.9043655-8.0297089,7.0694885-17.9347687,7.0694885      c-9.9051094,0-17.9347649-3.165123-17.9347649-7.0694885v-6.1714478h35.8695259L61.7031059,70.4305115z"/>
				<g>
					<ellipse fill="#FCD462" cx="43.7683182" cy="64.2590637" rx="17.9347782" ry="7.0695133"/>
					<g>
						<path fill="#F6C358" d="M43.7680931,70.4305038c-8.6326332,0-15.6561146-2.7685089-15.6561146-6.1714859        c0-3.4028931,7.0234814-6.171402,15.6561146-6.171402c8.6330833,0,15.6565628,2.7685089,15.6565628,6.171402        C59.4246559,67.6619949,52.4011765,70.4305038,43.7680931,70.4305038z M43.7680931,58.6351166        c-7.8667145,0-14.2671528,2.5228271-14.2671528,5.6239014c0,3.1010666,6.4004383,5.6239853,14.2671528,5.6239853        c7.8671646,0,14.267601-2.5229187,14.267601-5.6239853C58.0356941,61.1579437,51.6352577,58.6351166,43.7680931,58.6351166z"/>
					</g>
					<g>
						<path fill="#F6C358" d="M43.2540131,68.0833054v-0.6735077c-2.1391258-0.0859756-4.0592003-0.4212265-5.7583122-1.0053864        l1.7086372-0.8026505c1.310524,0.4490051,2.6591454,0.7163086,4.049675,0.8026505v-1.7900162        c-1.7638741-0.1659317-3.0553513-0.3844299-3.8744316-0.6551094        c-0.8190765-0.2706795-1.2286186-0.6720085-1.2286186-1.2039795c0-0.5319748,0.4704971-0.9670906,1.4152946-1.3057213        c0.9447975-0.3382568,2.1734123-0.5225868,3.6877556-0.5533714v-0.4613953h1.4972V60.90522        c1.7162552,0.0495567,3.3391724,0.2800674,4.8687515,0.6922798l-1.5219612,0.8488312        c-1.0305138-0.2890739-2.1448402-0.4673996-3.3467903-0.5353508v1.7344513h0.0704765        c1.7943535,0.1663132,3.1124992,0.3908157,3.9544373,0.6735077c0.8438377,0.2830734,1.2648087,0.693779,1.2648087,1.2317657        c0,0.538353-0.4838295,0.9768448-1.4514847,1.3147278c-0.9676552,0.3386307-2.2457962,0.5229645-3.8382378,0.5537491        v0.6641235H43.2540131z M41.6025238,62.1279755c-0.3981094,0.1381531-0.5962143,0.3104744-0.5962143,0.5165787        c0,0.2061081,0.1561966,0.3690414,0.4685898,0.4888c0.3104858,0.1201363,0.9047966,0.2353897,1.7791138,0.3461418v-1.5962982        C42.5511284,61.9079742,42.0006332,61.9894409,41.6025238,62.1279755z M46.5303268,66.1735306        c0.4362068-0.1411591,0.655262-0.3194885,0.655262-0.5349808c0-0.2151184-0.1714363-0.3859329-0.5143051-0.5120773        c-0.3447723-0.1261368-0.9847984-0.2444-1.9200706-0.3551483v1.6604919        C45.4998131,66.401413,46.0922165,66.3150635,46.5303268,66.1735306z"/>
					</g>
				</g>
			</g>
			<g>
				<path fill="#F6C358" d="M64.642189,62.0633011c0,3.9043655-8.0297127,7.0694962-17.9347687,7.0694962      c-9.9051132,0-17.9347649-3.1651306-17.9347649-7.0694962v-6.1714478h35.8695259L64.642189,62.0633011z"/>
				<g>
					<ellipse fill="#FCD462" cx="46.7074013" cy="55.8918533" rx="17.9347782" ry="7.0695133"/>
					<g>
						<path fill="#F6C358" d="M46.7071724,62.0633011c-8.6326294,0-15.6561127-2.7685089-15.6561127-6.1714897        c0-3.4028931,7.0234833-6.171402,15.6561127-6.171402c8.6330872,0,15.6565666,2.7685089,15.6565666,6.171402        C62.363739,59.2947922,55.3402596,62.0633011,46.7071724,62.0633011z M46.7071724,50.26791        c-7.8667145,0-14.2671509,2.5228271-14.2671509,5.6239014c0,3.1010704,6.4004364,5.6239891,14.2671509,5.6239891        c7.8671684,0,14.2676048-2.5229187,14.2676048-5.6239891C60.9747772,52.7907372,54.5743408,50.26791,46.7071724,50.26791z"/>
					</g>
					<g>
						<path fill="#F6C358" d="M46.1930962,59.7160988v-0.6735077c-2.1391296-0.0859718-4.0592003-0.4212265-5.7583122-1.0053825        l1.7086334-0.8026543c1.3105278,0.4490051,2.6591492,0.7163048,4.0496788,0.8026543v-1.7900162        c-1.7638779-0.1659355-3.0553551-0.3844337-3.8744316-0.6551132        c-0.8190804-0.2706795-1.2286186-0.6720047-1.2286186-1.2039795s0.4704933-0.9670906,1.4152908-1.3057213        c0.9447975-0.3382568,2.1734161-0.5225868,3.6877594-0.5533714v-0.4613953h1.4971962v0.4704056        c1.7162552,0.0495529,3.3391762,0.2800636,4.8687553,0.692276l-1.5219612,0.8488312        c-1.0305138-0.2890739-2.1448441-0.4673996-3.3467941-0.5353508v1.7344513h0.0704803        c1.7943535,0.1663132,3.1124992,0.3908157,3.9544334,0.6735077c0.8438416,0.2830696,1.2648087,0.6937828,1.2648087,1.2317619        c0,0.5383568-0.4838257,0.9768524-1.4514809,1.3147316c-0.9676552,0.3386307-2.2458,0.5229645-3.8382416,0.5537491v0.6641235        H46.1930962z M44.5416031,53.7607689c-0.3981094,0.1381531-0.5962105,0.3104744-0.5962105,0.5165787        c0,0.2061081,0.1561966,0.3690414,0.468586,0.4888c0.3104897,0.1201363,0.9047966,0.2353935,1.7791176,0.3461418v-1.5962982        C45.4902115,53.5407715,44.9397125,53.6222382,44.5416031,53.7607689z M49.4694099,57.806324        c0.4362068-0.1411591,0.655262-0.3194847,0.655262-0.5349808c0-0.2151146-0.1714363-0.3859329-0.5143051-0.5120735        c-0.3447762-0.1261444-0.9847984-0.2444-1.9200745-0.3551521v1.6604958        C48.4388924,58.0342026,49.0312958,57.9478569,49.4694099,57.806324z"/>
					</g>
				</g>
			</g>
			<g>
				<path fill="#F6C358" d="M58.3695641,52.8061447c0,3.9043655-8.0297089,7.0694923-17.9347649,7.0694923      c-9.9051113,0-17.9347649-3.1651268-17.9347649-7.0694923V46.634697h35.8695221L58.3695641,52.8061447z"/>
				<g>
					<ellipse fill="#FCD462" cx="40.4347801" cy="46.634697" rx="17.9347782" ry="7.0695133"/>
					<g>
						<path fill="#F6C358" d="M40.4345551,52.8061409c-8.6326351,0-15.6561146-2.7685089-15.6561146-6.1714897        c0-3.4028931,7.0234795-6.171402,15.6561146-6.171402c8.6330833,0,15.6565628,2.7685089,15.6565628,6.171402        C56.0911179,50.037632,49.0676384,52.8061409,40.4345551,52.8061409z M40.4345551,41.0107498        c-7.8667145,0-14.2671528,2.522831-14.2671528,5.6239014c0,3.1010742,6.4004383,5.6239891,14.2671528,5.6239891        c7.8671646,0,14.267601-2.5229149,14.267601-5.6239891C54.7021561,43.5335808,48.3017197,41.0107498,40.4345551,41.0107498z"/>
					</g>
					<g>
						<path fill="#F6C358" d="M39.920475,50.4589386v-0.6735077c-2.1391296-0.0859718-4.0592003-0.4212227-5.7583122-1.0053825        L35.8708,47.9773941c1.310524,0.4490051,2.6591454,0.7163086,4.049675,0.8026543v-1.7900162        c-1.7638779-0.1659355-3.0553551-0.3844299-3.8744316-0.6551094        c-0.8190804-0.2706833-1.2286186-0.6720085-1.2286186-1.2039833s0.4704933-0.9670868,1.4152908-1.3057175        c0.9447975-0.3382568,2.1734161-0.5225906,3.6877594-0.5533752v-0.4613953h1.4972v0.4704056        c1.7162552,0.0495567,3.3391724,0.2800674,4.8687515,0.6922798l-1.5219612,0.8488312        c-1.0305138-0.2890778-2.1448402-0.4674034-3.3467903-0.5353546v1.7344551h0.0704765        c1.7943535,0.1663132,3.1124992,0.3908157,3.9544334,0.6735077c0.8438416,0.2830696,1.2648125,0.693779,1.2648125,1.2317619        c0,0.5383568-0.4838295,0.9768486-1.4514847,1.3147316c-0.9676552,0.3386307-2.2458,0.5229607-3.8382378,0.5537453v0.6641235        H39.920475z M38.2689819,44.5036087c-0.3981094,0.1381569-0.5962105,0.3104744-0.5962105,0.5165825        s0.1561966,0.3690414,0.4685898,0.4888c0.3104858,0.1201363,0.9047928,0.2353897,1.7791138,0.346138v-1.5962944        C39.2175903,44.2836113,38.6670952,44.365078,38.2689819,44.5036087z M43.1967888,48.5491638        c0.4362068-0.1411591,0.655262-0.3194847,0.655262-0.534977c0-0.2151184-0.1714363-0.3859329-0.5143051-0.5120773        c-0.3447762-0.1261406-0.9847984-0.2444-1.9200706-0.3551483v1.6604919        C42.1662712,48.7770462,42.7586746,48.6906967,43.1967888,48.5491638z"/>
					</g>
				</g>
			</g>
			<g>
				<path fill="#F6C358" d="M66.0818634,44.9981194c0,3.9043655-8.0297089,7.0694923-17.9347649,7.0694923      c-9.9051132,0-17.9347668-3.1651268-17.9347668-7.0694923v-6.1714478h35.8695221L66.0818634,44.9981194z"/>
				<g>
					<ellipse fill="#FCD462" cx="48.1470757" cy="38.8266716" rx="17.9347782" ry="7.0695133"/>
					<g>
						<path fill="#F6C358" d="M48.1468506,44.9981155c-8.6326332,0-15.6561127-2.7685089-15.6561127-6.1714897        c0-3.4028893,7.0234795-6.1713982,15.6561127-6.1713982c8.6330833,0,15.6565666,2.7685089,15.6565666,6.1713982        C63.8034172,42.2296066,56.7799339,44.9981155,48.1468506,44.9981155z M48.1468506,33.2027245        c-7.8667145,0-14.2671509,2.522831-14.2671509,5.6239014c0,3.1010742,6.4004364,5.6239929,14.2671509,5.6239929        c7.8671646,0,14.2676048-2.5229187,14.2676048-5.6239929C62.4144554,35.7255554,56.0140152,33.2027245,48.1468506,33.2027245z        "/>
					</g>
					<g>
						<path fill="#F6C358" d="M47.6327705,42.6509132v-0.6735077c-2.1391258-0.0859718-4.0592003-0.4212227-5.7583122-1.0053825        l1.7086372-0.8026505c1.310524,0.4490051,2.6591454,0.7163048,4.049675,0.8026505v-1.7900124        c-1.7638741-0.1659393-3.0553513-0.3844337-3.8744316-0.6551132        c-0.8190765-0.2706795-1.2286148-0.6720085-1.2286148-1.2039833c0-0.531971,0.4704933-0.9670868,1.4152908-1.3057175        c0.9447975-0.3382568,2.1734123-0.5225906,3.6877556-0.5533752V35.00243h1.4972v0.4704018        c1.7162552,0.0495567,3.3391724,0.2800674,4.8687553,0.6922798l-1.521965,0.8488312        c-1.0305138-0.2890739-2.1448402-0.4673996-3.3467903-0.5353508v1.7344513h0.0704765        c1.7943535,0.1663132,3.1124992,0.3908157,3.9544373,0.6735077c0.8438416,0.2830696,1.2648087,0.6937828,1.2648087,1.2317619        c0,0.5383568-0.4838295,0.9768486-1.4514847,1.3147316c-0.9676552,0.3386307-2.2457962,0.5229645-3.8382378,0.5537491        v0.6641197H47.6327705z M45.9812813,36.6955833c-0.3981094,0.1381569-0.5962143,0.3104744-0.5962143,0.5165825        s0.1561966,0.3690414,0.4685898,0.4888c0.3104897,0.1201363,0.9047966,0.2353897,1.7791138,0.3461418v-1.5962982        C46.9298859,36.4755859,46.3793907,36.5570526,45.9812813,36.6955833z M50.9090843,40.7411385        c0.4362068-0.1411591,0.655262-0.3194847,0.655262-0.534977c0-0.2151146-0.1714325-0.3859329-0.5143051-0.5120773        c-0.3447723-0.1261406-0.9847984-0.2444-1.9200706-0.3551483v1.6604958        C49.8785706,40.9690208,50.470974,40.8826752,50.9090843,40.7411385z"/>
					</g>
				</g>
			</g>
			<g>
				<path fill="#F6C358" d="M59.8092422,35.7409592c0,3.9043694-8.0297089,7.0694923-17.9347649,7.0694923      c-9.9051132,0-17.9347668-3.165123-17.9347668-7.0694923v-6.1714458h35.8695221L59.8092422,35.7409592z"/>
				<g>
					<ellipse fill="#FCD462" cx="41.8744545" cy="29.5695133" rx="17.9347782" ry="7.0695133"/>
					<g>
						<path fill="#F6C358" d="M41.8742294,35.7409592c-8.6326332,0-15.6561127-2.7685089-15.6561127-6.1714897        c0-3.4028931,7.0234795-6.171402,15.6561127-6.171402c8.6330833,0,15.6565666,2.7685089,15.6565666,6.171402        C57.5307961,32.9724503,50.5073128,35.7409592,41.8742294,35.7409592z M41.8742294,23.9455681        c-7.8667145,0-14.2671509,2.5228291-14.2671509,5.6239014s6.4004364,5.6239891,14.2671509,5.6239891        c7.8671684,0,14.2676048-2.5229187,14.2676048-5.6239891S49.7413979,23.9455681,41.8742294,23.9455681z"/>
					</g>
					<g>
						<path fill="#F6C358" d="M41.3601494,33.3937569v-0.6735077c-2.1391258-0.0859718-4.0592003-0.4212265-5.7583084-1.0053825        l1.7086334-0.8026543c1.310524,0.4490051,2.6591492,0.7163067,4.049675,0.8026543v-1.7900162        c-1.7638741-0.1659355-3.0553513-0.3844318-3.8744316-0.6551113        c-0.8190765-0.2706814-1.2286148-0.6720066-1.2286148-1.2039814s0.4704933-0.9670887,1.4152908-1.3057194        c0.9447975-0.3382568,2.1734161-0.5225887,3.6877556-0.5533733v-0.4613953h1.4972v0.4704056        c1.7162552,0.0495548,3.3391724,0.2800655,4.8687553,0.6922798l-1.5219612,0.8488293        c-1.0305176-0.2890759-2.1448441-0.4674015-3.3467941-0.5353527v1.7344532h0.0704803        c1.7943535,0.1663132,3.1124954,0.3908157,3.9544334,0.6735077c0.8438416,0.2830696,1.2648087,0.6937809,1.2648087,1.2317619        c0,0.5383568-0.4838257,0.9768505-1.4514847,1.3147297c-0.9676552,0.3386307-2.2457962,0.5229645-3.8382378,0.5537491        v0.6641235H41.3601494z M39.7086601,27.438427c-0.3981094,0.138155-0.5962143,0.3104744-0.5962143,0.5165806        c0,0.2061081,0.1561966,0.3690414,0.4685898,0.4888c0.3104897,0.1201363,0.9047966,0.2353916,1.7791138,0.3461399v-1.5962963        C40.6572685,27.2184296,40.1067696,27.2998962,39.7086601,27.438427z M44.6364632,31.4839821        c0.4362068-0.1411591,0.655262-0.3194847,0.655262-0.5349789c0-0.2151165-0.1714325-0.3859329-0.5143051-0.5120754        c-0.3447723-0.1261425-0.9847984-0.2444-1.9200706-0.3551502v1.6604939        C43.6059494,31.7118626,44.1983528,31.625515,44.6364632,31.4839821z"/>
					</g>
				</g>
			</g>
		</g>
		<g>
			<circle fill="#FCD462" cx="58.4648018" cy="58.464798" r="19.0352001"/>
			<g>
				<path fill="#F6C358" d="M58.4645615,75.0818863c-9.1623039,0-16.6167259-7.454422-16.6167259-16.6172066      c0-9.1625443,7.454422-16.6169624,16.6167259-16.6169624c9.1627808,0,16.6172028,7.4544182,16.6172028,16.6169624      C75.0817642,67.6274643,67.6273422,75.0818863,58.4645615,75.0818863z M58.4645615,43.3218994      c-8.3493919,0-15.14254,6.7929077-15.14254,15.1427803s6.793148,15.1430168,15.14254,15.1430168      c8.3498688,0,15.1430206-6.7931442,15.1430206-15.1430168S66.8144302,43.3218994,58.4645615,43.3218994z"/>
			</g>
			<g>
				<path fill="#F6C358" d="M57.9189377,68.7618637v-1.8134689c-2.2703781-0.2314911-4.3082581-1.1341782-6.1116219-2.7070694      l1.8134727-2.1612053c1.390934,1.2089806,2.8223038,1.9287071,4.2981491,2.1612053v-4.8197517      c-1.8721008-0.4467964-3.2428169-1.0351143-4.1121521-1.7639427c-0.8693352-0.7288246-1.3040009-1.8094254-1.3040009-3.241806      s0.4993591-2.6039619,1.5021286-3.5157509c1.0027657-0.9107819,2.3067665-1.4071083,3.9140244-1.4899979v-1.2423401h1.5890656      v1.2665977c1.8215561,0.1334343,3.5440521,0.754097,5.1674881,1.8640175l-1.6153488,2.2855377      c-1.0937424-0.7783546-2.2764435-1.2585106-3.5521393-1.4414749v4.6701431h0.0748024      c1.9044495,0.4478111,3.3034706,1.0522995,4.1970673,1.8134727c0.8956184,0.7621841,1.342411,1.8680573,1.342411,3.3166122      c0,1.4495659-0.5135117,2.6302414-1.5405388,3.5400085c-1.0270271,0.9117966-2.3835945,1.4081192-4.0737419,1.4910126v1.7882004      H57.9189377z M56.1661186,52.7266884c-0.4225388,0.371994-0.6327934,0.8359756-0.6327934,1.390934      s0.1657791,0.9936676,0.4973373,1.3161316c0.3295403,0.3234711,0.9603119,0.6338043,1.8882751,0.9320068v-4.2981529      C57.1729279,52.1343269,56.5886574,52.3536797,56.1661186,52.7266884z M61.3962784,63.619648      c0.4629707-0.3800812,0.6954651-0.8602333,0.6954651-1.440464c0-0.5792198-0.1819534-1.0391579-0.5458603-1.3788071      c-0.3659286-0.3396454-1.0452232-0.6580658-2.0378799-0.9562683v4.4710083      C60.3025322,64.2332382,60.9312859,64.0007401,61.3962784,63.619648z"/>
			</g>
		</g>
	</g>
</g>
</svg>
