<?xml version="1.0" encoding="utf-8"?>
<!-- Generator: Adobe Illustrator 21.0.2, SVG Export Plug-In . SVG Version: 6.00 Build 0)  -->
<svg xmlns="http://www.w3.org/2000/svg" xmlns:xlink="http://www.w3.org/1999/xlink" version="1.1" id="Layer_1" x="0px" y="0px" viewBox="0 0 100 100" enable-background="new 0 0 100 100" xml:space="preserve" width="512" height="512">
<g>
	<circle fill="#E05B49" cx="50" cy="50" r="48"/>
	<path opacity="0.1" d="M62.5999756,37.4799805c-2.4699707-2.4899902-5.6900024-4.25-9.2799683-4.9299927l-5.1699829-5.1699829   H36.3800049L31.5,22.5l-9,9l9,9l2.2700195,2.2699585C32.7800293,44.9799805,32.2299805,47.4199829,32.2299805,50   c0,4.1400146,1.4299927,7.9500122,3.8099976,10.9699707h-0.0099487l0.0499878,0.0499878   c0.8499756,1.0800171,1.8200073,2.0500488,2.8999634,2.9000244l30.1154175,30.1218262   c11.1955566-4.8609619,20.1740112-13.8604736,25.0036011-25.0728149L62.6099854,37.4799805H62.5999756z"/>
	<g>
		<g>
			<polygon fill="#44C4A1" points="77.5,68.5016479 68.5014877,59.5032883 68.5014877,64.3806686 51.8528214,64.3806686      51.8528214,72.6226196 68.5014877,72.6226196 68.5014877,77.5    "/>
		</g>
		<g>
			<polygon fill="#27A2DB" points="22.5000019,31.4983559 31.4985123,40.4967117 31.4985123,35.6193314 48.1471786,35.6193314      48.1471786,27.3773785 31.4985123,27.3773785 31.4985123,22.5    "/>
		</g>
		<g>
			<circle fill="#FCD462" cx="50" cy="50" r="17.7693272"/>
			<g>
				<path fill="#F6C358" d="M49.9998169,65.0146103c-8.2790794,0-15.0142441-6.7351685-15.0142441-15.0142479      s6.7351646-15.0151291,15.0142441-15.0151291S65.014946,41.7212791,65.014946,50.0003624      S58.2789001,65.0146103,49.9998169,65.0146103z M49.9998169,36.786911c-7.2858734,0-13.2125702,5.927578-13.2125702,13.2134514      s5.9266968,13.2125702,13.2125702,13.2125702s13.2134514-5.9266968,13.2134514-13.2125702      S57.2856903,36.786911,49.9998169,36.786911z"/>
			</g>
			<g>
				<path fill="#F6C358" d="M49.4896126,59.6331673v-1.6964798c-2.1239128-0.2174988-4.030323-1.0610085-5.7173462-2.534317      l1.6964798-2.0217819c1.3012009,1.1309853,2.6402283,1.8061752,4.0208664,2.0217819v-4.5088196      c-1.7513275-0.4179726-3.0336189-0.9664421-3.8468704-1.6491966c-0.8132515-0.6808624-1.2198753-1.6926994-1.2198753-3.0336151      c0-1.3390312,0.4671478-2.4359741,1.4052238-3.2870522c0.938076-0.8529663,2.1579514-1.318222,3.6615219-1.3957634v-1.1612473      h1.4865456v1.185833c1.7040482,0.1229324,3.3154182,0.7054482,4.8341179,1.7418709l-1.5111351,2.1390419      c-1.0231819-0.7281456-2.1295815-1.1782722-3.3229828-1.3484879v4.3688622h0.0699806      c1.7815857,0.4179764,3.0903549,0.9853592,3.9263,1.6964836c0.8378372,0.7130127,1.2558098,1.7475433,1.2558098,3.1035919      s-0.4803848,2.4586678-1.4411545,3.3116379c-0.9607735,0.8510742-2.2298241,1.31633-3.810936,1.3938751v1.6737823H49.4896126z       M47.8498688,44.6315155c-0.3952751,0.3479958-0.5919685,0.7829933-0.5919685,1.3012047      c0,0.5200996,0.1550827,0.9286194,0.4652519,1.2312241c0.3082809,0.3026047,0.8983612,0.5938606,1.7664604,0.8718796v-4.0208664      C48.791729,44.0773697,48.2451477,44.2835197,47.8498688,44.6315155z M52.7426186,54.8217468      c0.4331017-0.3555603,0.6506004-0.805687,0.6506004-1.348484c0-0.5409088-0.1702156-0.9721222-0.5106468-1.289856      c-0.3423233-0.3158455-0.9777946-0.614666-1.906414-0.894577v4.1835175      C51.7194328,55.3948059,52.307621,55.1791992,52.7426186,54.8217468z"/>
			</g>
		</g>
	</g>
</g>
</svg>
