<?xml version="1.0" encoding="utf-8"?>
<!-- Generator: Adobe Illustrator 21.0.2, SVG Export Plug-In . SVG Version: 6.00 Build 0)  -->
<svg xmlns="http://www.w3.org/2000/svg" xmlns:xlink="http://www.w3.org/1999/xlink" version="1.1" id="Layer_1" x="0px" y="0px" viewBox="0 0 100 100" enable-background="new 0 0 100 100" xml:space="preserve" width="512" height="512">
<g>
	<circle fill="#334D5C" cx="50" cy="50" r="48"/>
	<path opacity="0.1" d="M97.2581177,58.3672485L69.4454346,30.5545654c-10.7409668-10.7409668-28.1499023-10.7409668-38.8908691,0   s-10.7409668,28.1499023,0,38.8908691l27.8126831,27.8126831C78.1668701,93.7754517,93.7754517,78.166748,97.2581177,58.3672485z"/>
	<g>
		<circle fill="#FCD462" cx="50" cy="50" r="27.5"/>
		<path fill="#F6C358" d="M50.0000153,26.3263454C36.925396,26.3263454,26.3263588,36.9253845,26.3263588,50    c0,13.0745773,10.5990372,23.6736145,23.6736565,23.6736145c13.0745354,0,23.6736526-10.5990372,23.6736526-23.6736145    C73.6736679,36.9253845,63.0745506,26.3263454,50.0000153,26.3263454z M50.0000954,71.0546875    c-11.6098747,0-21.0546875-9.4448128-21.0546875-21.0546875s9.4448128-21.0546875,21.0546875-21.0546875    S71.0547791,38.3901253,71.0547791,50S61.6099701,71.0546875,50.0000954,71.0546875z"/>
		<g>
			<path fill="#F6C358" d="M49.1854401,65.3667755v-2.7061996c-3.3880234-0.3469467-6.4291039-1.6925049-9.1202164-4.0427017     l2.7061996-3.2251091c2.0756531,1.8041306,4.2116508,2.8811798,6.4140167,3.2251091v-7.1923904     c-2.7936859-0.6667442-4.8391762-1.5416565-6.1364594-2.6307716c-1.2972832-1.0860977-1.9459267-2.7001648-1.9459267-4.8391762     c0-2.135994,0.745182-3.8858185,2.2415886-5.2434425c1.4964027-1.3606415,3.4423294-2.1028099,5.8407974-2.2265053v-1.8524017     h2.371315v1.8916245c2.7182655,0.1960983,5.2887001,1.1253166,7.7113037,2.7786026l-2.4105339,3.412159     c-1.6321678-1.1615219-3.3970795-1.8795547-5.3007698-2.1510773v6.9691353h0.1116295     c2.8419571,0.6667442,4.9296837,1.5718269,6.2631721,2.7061958c1.3365021,1.1373863,2.0032463,2.7876549,2.0032463,4.9508018     s-0.7663002,3.9220238-2.2989082,5.2826653c-1.532608,1.3576241-3.5569763,2.0997925-6.0791397,2.2234879v2.6699944H49.1854401z      M46.5697517,41.4363899c-0.6305389,0.5551186-0.9443016,1.2490158-0.9443016,2.0756569     c0,0.8296585,0.2473869,1.4813194,0.7421684,1.9640274c0.4917603,0.4827118,1.4330444,0.9473228,2.8178215,1.3908119v-6.4140167     C48.0721893,40.5524254,47.2002945,40.8812752,46.5697517,41.4363899z M54.3745804,57.6916733     c0.6908798-0.5671844,1.0378265-1.2852173,1.0378265-2.1510811c0-0.8628426-0.2715225-1.550705-0.8145714-2.0575523     c-0.5460663-0.50383-1.559761-0.9805069-3.0410805-1.4270134v6.6734734     C52.7424164,58.6058083,53.6806831,58.2618752,54.3745804,57.6916733z"/>
		</g>
	</g>
</g>
</svg>
