<?xml version="1.0" encoding="utf-8"?>
<!-- Generator: Adobe Illustrator 21.0.2, SVG Export Plug-In . SVG Version: 6.00 Build 0)  -->
<svg xmlns="http://www.w3.org/2000/svg" xmlns:xlink="http://www.w3.org/1999/xlink" version="1.1" id="Layer_1" x="0px" y="0px" viewBox="0 0 100 100" enable-background="new 0 0 100 100" xml:space="preserve" width="512" height="512">
<g>
	<circle fill="#334D5C" cx="50" cy="50" r="48"/>
	<path opacity="0.1" d="M94.331604,68.4207535L52.8099976,26.899147c0,0-0.0900269,0.1700439-0.2299805,0.4901123   c-0.1400146,0.3199463-0.3300171,0.7799072-0.4800415,1.3598633c-0.0599976,0.1800537-0.1099854,0.380127-0.1499634,0.5900879   l-6.8400269-6.8400879c0,0-0.0899658,0.1800537-0.2299805,0.4899902c-0.1400146,0.3200684-0.3300171,0.7800293-0.4799805,1.3601074   c-0.0800171,0.2900391-0.1600342,0.5999756-0.210022,0.9499512c-0.0499878,0.3400879-0.0999756,0.7099609-0.0900269,1.0999756   c0,0.7700195,0.1400146,1.6400146,0.4900513,2.4200439c0.3499756,0.7700195,0.8099976,1.4199219,1.2099609,2   c0.1900024,0.3000488,0.4000244,0.5799561,0.5499878,0.8399658c0.1600342,0.2700195,0.3099976,0.5200195,0.4200439,0.7700195   C47,32.9191666,47.1300049,33.3692398,47.1699829,33.6991959c0.0499878,0.3199463,0.0499878,0.5299072,0.0499878,0.5299072   l5.5200195,5.5200195h-2.4199829L37.4699707,26.899147c0,0-0.0899658,0.1700439-0.2299805,0.4901123   c-0.1400146,0.3199463-0.3300171,0.7799072-0.4799805,1.3598633c-0.0800171,0.2800293-0.1600342,0.6000977-0.210022,0.9500732   C36.5,30.0391617,36.4500122,30.4091568,36.460022,30.7991714c-0.0100098,0.7700195,0.1399536,1.6400146,0.4899902,2.4199219   c0.3499756,0.7700195,0.8099976,1.420166,1.2099609,2c0.1900024,0.2900391,0.3900146,0.5800781,0.5500488,0.8400879   c0.1599731,0.2700195,0.2999878,0.5200195,0.4199829,0.7700195c0.2299805,0.4899902,0.3599854,0.9299316,0.4000244,1.2600098   c0.0499878,0.3299561,0.0499878,0.5400391,0.0499878,0.5400391l1.1199951,1.119873H28.7700195   c-0.3699951,0-0.6700439,0.3000488-0.6700439,0.6700439v33.5098877c0,0.4401855,0.1500244,0.8500977,0.4100342,1.170166   c0.0899658,0.1398926,0.2199707,0.2600098,0.3599854,0.3601074l1.1099854,1.1098633v0.1999512   c0,0.1999512,0.0800171,0.3701172,0.210022,0.5100098l20.6983643,20.6982422   C70.4873657,97.6204605,87.2147827,85.5281754,94.331604,68.4207535z"/>
	<g>
		<g>
			<path fill="#DC8744" d="M69.0317001,68.3404694h-8.0624008V45.2038727h8.0624008     c1.5819397,0,2.8688736,1.2869377,2.8688736,2.8688774v17.3988457     C71.9005737,67.0535355,70.6136398,68.3404694,69.0317001,68.3404694z M63.5256996,65.7840729h5.5060005     c0.1722565,0,0.3124771-0.1402206,0.3124771-0.3124771V48.0727501c0-0.1722565-0.1402206-0.3124733-0.3124771-0.3124733     h-5.5060005V65.7840729z"/>
		</g>
		<path fill="#F6C358" d="M29.9781322,75.51194v1.2545853c0,0.4050827,0.328392,0.7334747,0.7334995,0.7334747h30.1921844    c0.4051094,0,0.7335014-0.328392,0.7335014-0.7334747V75.51194H29.9781322z"/>
		<path fill="#FCD462" d="M62.8584099,39.7486877H28.7714977c-0.3711452,0-0.6720753,0.3008804-0.6720753,0.6720772v33.5078316    c0,1.0654297,0.8636799,1.9291306,1.9291592,1.9291306h31.5582867c1.0654793,0,1.9291573-0.8637314,1.9291573-1.9291611    V40.4063301C63.5160255,40.0431175,63.2215958,39.7486877,62.8584099,39.7486877z"/>
		<path fill="#F6C358" d="M62.8584099,39.7486877h-6.091114v36.1090393h4.8195724    c1.0654793,0,1.9291573-0.8637314,1.9291573-1.9291611V40.4063301    C63.5160255,40.0431175,63.2215958,39.7486877,62.8584099,39.7486877z"/>
		<path fill="#FFFFFF" d="M37.4737778,26.8984776c0,0,0.0077171,0.2004299,0.0089531,0.5445175    c-0.0023155,0.3379116-0.005558,0.8206367-0.0094948,1.399931c0.0036278,0.570261,0.0155945,1.2225399,0.0984192,1.8911457    c0.0388298,0.334322,0.1127815,0.6694546,0.1933708,1.0014992c0.0910873,0.3245945,0.2010078,0.6610813,0.34235,0.9704304    c0.2826004,0.6397743,0.6741257,1.2856445,1.0099907,1.9466476c0.1778526,0.3313103,0.319191,0.655098,0.4464836,0.9972153    c0.1265182,0.3301926,0.2107353,0.6588402,0.2620697,0.9669571c0.1103058,0.6163063,0.0572739,1.1505203-0.0433846,1.4933319    c-0.0422249,0.1734543-0.1052132,0.3013992-0.1442719,0.3862724c-0.0412216,0.0838699-0.063221,0.1286049-0.063221,0.1286049    s0.00494-0.2036362-0.0435371-0.5320892c-0.0433846-0.3292274-0.1730652-0.7733574-0.4005547-1.2655792    c-0.1164055-0.2458954-0.2617607-0.5025635-0.4195404-0.771656c-0.1566277-0.2575531-0.360878-0.5428963-0.5514679-0.8341064    c-0.4003983-0.5831528-0.8644829-1.2303772-1.2088394-2.0042343c-0.3500671-0.7804604-0.4964256-1.6461754-0.4883995-2.4193783    c-0.0088768-0.3887424,0.0406837-0.7582264,0.0887718-1.1026211c0.0500221-0.3440094,0.1245918-0.6626244,0.2055664-0.9506683    c0.1544609-0.5779819,0.3424263-1.0361214,0.4809875-1.3539619    C37.3786736,27.0740128,37.4737778,26.8984776,37.4737778,26.8984776z"/>
		<path fill="#FFFFFF" d="M52.8117981,26.8984776c0,0,0.0077171,0.2004299,0.0090294,0.5445175    c-0.0023155,0.3379116-0.005558,0.8206367-0.0094948,1.399931c0.0035515,0.570261,0.0155182,1.2225399,0.098423,1.8911457    c0.0387497,0.334322,0.1127777,0.6694546,0.193367,1.0014992c0.0910873,0.3245945,0.2010117,0.6610813,0.34235,0.9704304    c0.2826042,0.6397743,0.6740494,1.2856445,1.0099907,1.9466476c0.1778526,0.3313103,0.3191147,0.655098,0.4464836,0.9972153    c0.126442,0.3301926,0.2107353,0.6588402,0.2620697,0.9669571c0.1103096,0.6163063,0.0571976,1.1505203-0.0434608,1.4933319    c-0.0421448,0.1734543-0.1051369,0.3013992-0.1441956,0.3862724c-0.0412216,0.0838699-0.063221,0.1286049-0.063221,0.1286049    s0.00494-0.2036362-0.0435371-0.5320892c-0.0433807-0.3292274-0.1730652-0.7733574-0.4005547-1.2655792    c-0.1164055-0.2458954-0.2617607-0.5025635-0.4195404-0.771656c-0.1566238-0.2575531-0.360878-0.5428963-0.5514679-0.8341064    c-0.4004745-0.5831528-0.8644791-1.2303772-1.2088394-2.0042343c-0.3500671-0.7804604-0.4965019-1.6461754-0.4883957-2.4193783    c-0.0089569-0.3887424,0.0406799-0.7582264,0.0887718-1.1026211c0.0500183-0.3440094,0.1245117-0.6626244,0.2055626-0.9506683    c0.1544647-0.5779819,0.3424263-1.0361214,0.4809875-1.3539619    C52.7166939,27.0740128,52.8117981,26.8984776,52.8117981,26.8984776z"/>
		<path fill="#FFFFFF" d="M45.1145363,22.5c0,0,0.0077171,0.2004318,0.0089531,0.5445175    c-0.0022392,0.3379116-0.005558,0.8206367-0.0094948,1.399931c0.0036278,0.570261,0.0155945,1.2225418,0.0984993,1.8911457    c0.0387497,0.334322,0.1127014,0.6694946,0.193367,1.0015011c0.091011,0.3245945,0.2009315,0.6610775,0.34235,0.9704285    c0.2825241,0.6398125,0.6740494,1.2856464,1.0099144,1.9466476c0.1778526,0.3313122,0.319191,0.6551361,0.4465599,0.9972153    c0.126442,0.3301926,0.210659,0.6588421,0.2619934,0.9669552c0.1103859,0.6163101,0.0572777,1.1505203-0.0433846,1.4933357    c-0.0421448,0.1734505-0.1052132,0.3013992-0.1442719,0.3862724c-0.0412216,0.0838699-0.0631447,0.1286011-0.0631447,0.1286011    s0.0048637-0.2036324-0.0436134-0.5320892c-0.0433044-0.3291893-0.1729889-0.7733536-0.4005547-1.2655373    c-0.1163292-0.2459373-0.2617607-0.5026016-0.4195404-0.7716961c-0.1566238-0.2575531-0.3608017-0.5428581-0.5513878-0.8341064    c-0.4004784-0.5831528-0.8644829-1.2303371-1.2089195-2.0042343c-0.3500671-0.7804585-0.4964256-1.6461754-0.4883995-2.4193764    c-0.0088768-0.3887444,0.0406837-0.7582264,0.0887718-1.102623c0.0500984-0.3440094,0.1245918-0.6626225,0.2055664-0.9506683    c0.154541-0.57798,0.3424263-1.0361195,0.4809875-1.3539619C45.0194321,22.6755371,45.1145363,22.5,45.1145363,22.5z"/>
	</g>
</g>
</svg>
