<?xml version="1.0" encoding="utf-8"?>
<!-- Generator: Adobe Illustrator 21.0.2, SVG Export Plug-In . SVG Version: 6.00 Build 0)  -->
<svg xmlns="http://www.w3.org/2000/svg" xmlns:xlink="http://www.w3.org/1999/xlink" version="1.1" id="Layer_1" x="0px" y="0px" viewBox="0 0 100 100" enable-background="new 0 0 100 100" xml:space="preserve" width="512" height="512">
<g>
	<circle fill="#E05B49" cx="50" cy="50" r="48"/>
	<path opacity="0.1" d="M98,49.9999771c0-2.5893555-0.2113647-5.1286621-0.6060791-7.6068115L77.5,22.4991226h-55v55   l19.8950806,19.8951416C44.8726807,97.7887955,47.4113159,97.9999771,50,97.9999771   C76.5097046,97.9999771,98,76.5096207,98,49.9999771z"/>
	<g>
		<rect x="22.5" y="22.4999981" fill="#FFFFFF" width="55" height="55"/>
		<polygon fill="#E56353" points="68.6421585,29.3955135 66.6797714,29.3955135 64.7174683,29.3955135 64.7174683,31.3578568     64.7174683,33.3201981 64.7174683,35.2825432 66.6797714,35.2825432 68.6421585,35.2825432 68.6421585,35.2825432     70.6044617,35.2825432 70.6044617,33.3201981 70.6044617,31.3578568 70.6044617,29.3955135 68.6421585,29.3955135   "/>
		<polygon fill="#E56353" points="33.3202171,35.2825432 35.2825241,35.2825432 35.2825241,33.3201981 35.2825241,31.3578568     35.2825241,29.3955135 33.3202171,29.3955135 31.3578377,29.3955135 29.3955326,29.3955135 29.3955326,31.3578568     29.3955326,33.3201981 29.3955326,35.2825432 31.3578377,35.2825432   "/>
		<polygon fill="#E56353" points="33.3202171,70.6044769 35.2825241,70.6044769 35.2825241,68.6421356 35.2825241,66.6797943     35.2825241,64.7174911 33.3202171,64.7174911 31.3578377,64.7174911 29.3955326,64.7174911 29.3955326,66.6797943     29.3955326,68.6421356 29.3955326,70.6044769 31.3578377,70.6044769   "/>
		<g>
			<rect x="43.1316795" y="25.4708805" fill="#64798A" width="1.9624023" height="1.9623413"/>
			<path fill="#64798A" d="M72.5667343,25.4708805H70.604332h-1.9621582h-1.9624023h-1.9621582h-1.9623985h-1.9624023v1.9623413     v1.9622803v1.9623413v1.9623394v1.9622803v0.000061v1.9622803v1.9623413h1.9624023h1.9623985h1.9621582h1.9624023h1.9621582     h1.9624023h1.9624023v-1.9623413v-1.9622803v-0.000061v-1.9622803v-1.9623394v-1.9623413v-1.9622803v-1.9623413H72.5667343z      M72.5667343,29.3955021v1.9623413v1.9623394v1.9622803v0.000061v1.9622803H70.604332h-1.9621582h-1.9624023h-1.9621582     h-1.9623985v-1.9622803v-0.000061v-1.9622803v-1.9623394v-1.9623413v-1.9622803h1.9623985h1.9621582h1.9624023h1.9621582     h1.9624023V29.3955021z"/>
			<polygon fill="#64798A" points="52.9434471,33.3201828 50.9812889,33.3201828 50.9812889,35.2824631 50.9812889,35.2825241      50.9812889,37.2448044 52.9434471,37.2448044 52.9434471,39.2071457 50.9812889,39.2071457 50.9812889,37.2448044      49.0188866,37.2448044 49.0188866,39.2071457 49.0188866,41.169487 50.9812889,41.169487 50.9812889,43.1318283      50.9812889,45.0941696 52.9434471,45.0941696 52.9434471,43.1318283 52.9434471,41.169487 54.9058495,41.169487      54.9058495,39.2071457 54.9058495,37.2448044 56.8682518,37.2448044 56.8682518,39.2071457 58.83041,39.2071457      58.83041,37.2448044 58.83041,35.2824631 56.8682518,35.2824631 56.8682518,33.3201828 54.9058495,33.3201828      54.9058495,31.3578434 52.9434471,31.3578434    "/>
			<polygon fill="#64798A" points="45.0940819,35.2825241 47.0564842,35.2825241 47.0564842,33.3201828 49.0188866,33.3201828      49.0188866,31.3578434 47.0564842,31.3578434 47.0564842,29.3955021 49.0188866,29.3955021 49.0188866,31.3578434      50.9812889,31.3578434 50.9812889,29.3955021 52.9434471,29.3955021 54.9058495,29.3955021 54.9058495,31.3578434      56.8682518,31.3578434 56.8682518,29.3955021 58.83041,29.3955021 58.83041,27.4332218 56.8682518,27.4332218      56.8682518,25.4708805 54.9058495,25.4708805 52.9434471,25.4708805 50.9812889,25.4708805 49.0188866,25.4708805      49.0188866,27.4332218 47.0564842,27.4332218 45.0940819,27.4332218 45.0940819,29.3955021 43.1316795,29.3955021      41.1695213,29.3955021 41.1695213,31.3578434 43.1316795,31.3578434 43.1316795,33.3201828 45.0940819,33.3201828      45.0940819,35.2824631 43.1316795,35.2824631 43.1316795,37.2448044 45.0940819,37.2448044    "/>
			<path fill="#64798A" d="M25.4696903,25.469965v13.7399883h13.7401142V25.469965H25.4696903z M37.2495995,37.2399826h-9.8198261     V27.429987h9.8198261V37.2399826z"/>
			<polygon fill="#64798A" points="35.2796288,52.9399948 35.2796288,54.9099655 31.359705,54.9099655 31.359705,56.8699875      27.4297733,56.8699875 27.4297733,54.9099655 29.399744,54.9099655 29.399744,52.9399948 27.4297733,52.9399948      27.4297733,50.9799728 25.4696903,50.9799728 25.4696903,41.1699753 31.359705,41.1699753 31.359705,45.0899582      27.4297733,45.0899582 27.4297733,49.0199509 31.359705,49.0199509 31.359705,52.9399948    "/>
			<polygon fill="#64798A" points="43.1316795,45.0941696 43.1316795,43.1318283 43.1316795,41.169487 45.0940819,41.169487      45.0940819,43.1318283 45.0940819,45.0941696 47.0564842,45.0941696 49.0188866,45.0941696 49.0188866,43.1318283      49.0188866,41.169487 47.0564842,41.169487 47.0564842,39.2071457 47.0564842,37.2448044 45.0940819,37.2448044      45.0940819,39.2071457 43.1316795,39.2071457 43.1316795,37.2448044 41.1695213,37.2448044 41.1695213,39.2071457      41.1695213,41.169487 39.207119,41.169487 37.2449608,41.169487 35.2825584,41.169487 33.3201561,41.169487      33.3201561,43.1318283 35.2825584,43.1318283 37.2449608,43.1318283 39.207119,43.1318283 39.207119,45.0941696      41.1695213,45.0941696    "/>
			<polygon fill="#64798A" points="64.7176132,45.0941696 64.7176132,47.0565109 66.6797714,47.0565109 68.6421738,47.0565109      68.6421738,45.0941696 66.6797714,45.0941696    "/>
			<polygon fill="#64798A" points="70.604332,43.1318283 70.604332,41.169487 68.6421738,41.169487 68.6421738,43.1318283      68.6421738,45.0941696 70.604332,45.0941696 70.604332,47.0565109 70.604332,49.0187912 72.5667343,49.0187912      72.5667343,47.0565109 74.5291367,47.0565109 74.5291367,45.0941696 74.5291367,43.1318283 72.5667343,43.1318283    "/>
			<rect x="43.1316795" y="45.0941696" fill="#64798A" width="1.9624023" height="1.9623413"/>
			<polygon fill="#64798A" points="62.7552147,43.1318283 62.7552147,41.169487 60.7928123,41.169487 58.83041,41.169487      56.8682518,41.169487 56.8682518,43.1318283 54.9058495,43.1318283 54.9058495,45.0941696 56.8682518,45.0941696      58.83041,45.0941696 60.7928123,45.0941696 60.7928123,47.0565109 62.7552147,47.0565109 62.7552147,45.0941696    "/>
			<rect x="62.7552147" y="47.0565109" fill="#64798A" width="1.9624023" height="1.9622803"/>
			<rect x="47.0564842" y="47.0565109" fill="#64798A" width="1.9624023" height="1.9622803"/>
			<polygon fill="#64798A" points="41.1695213,50.9811325 41.1695213,49.0187912 43.1316795,49.0187912 43.1316795,47.0565109      41.1695213,47.0565109 39.207119,47.0565109 39.207119,49.0187912 37.2449608,49.0187912 37.2449608,47.0565109      39.207119,47.0565109 39.207119,45.0941696 37.2449608,45.0941696 35.2825584,45.0941696 33.3201561,45.0941696      33.3201561,47.0565109 33.3201561,49.0187912 35.2825584,49.0187912 35.2825584,50.9811325 35.2825584,52.9434738      37.2449608,52.9434738 37.2449608,50.9811325 39.207119,50.9811325 39.207119,52.9434738 37.2449608,52.9434738      37.2449608,54.9058151 39.207119,54.9058151 39.207119,56.8681564 37.2449608,56.8681564 35.2825584,56.8681564      35.2825584,58.8304977 37.2449608,58.8304977 39.207119,58.8304977 41.1695213,58.8304977 41.1695213,56.8681564      41.1695213,54.9058151 43.1316795,54.9058151 43.1316795,52.9434738 41.1695213,52.9434738    "/>
			<rect x="43.1316795" y="50.9811325" fill="#64798A" width="1.9624023" height="1.9623413"/>
			<polygon fill="#64798A" points="68.6421738,49.0187912 66.6797714,49.0187912 66.6797714,50.9811325 66.6797714,52.9434738      68.6421738,52.9434738 68.6421738,50.9811325    "/>
			<polygon fill="#64798A" points="70.604332,50.9811325 70.604332,52.9434738 68.6421738,52.9434738 68.6421738,54.9058151      70.604332,54.9058151 72.5667343,54.9058151 72.5667343,56.8681564 72.5667343,58.8304977 74.5291367,58.8304977      74.5291367,56.8681564 74.5291367,54.9058151 74.5291367,52.9434738 74.5291367,50.9811325 72.5667343,50.9811325    "/>
			<rect x="25.470789" y="52.9434738" fill="#64798A" width="1.9624023" height="1.9623413"/>
			<rect x="25.470789" y="56.8681564" fill="#64798A" width="1.9624023" height="1.9623413"/>
			<rect x="31.3577518" y="56.8681564" fill="#64798A" width="1.9624023" height="1.9623413"/>
			<path fill="#64798A" d="M25.4696903,60.7899704v13.7399902h13.7401142V60.7899704H25.4696903z M37.2495995,72.5699997h-9.8198261     v-9.8099976h9.8198261V72.5699997z"/>
			<rect x="60.7928123" y="60.7928391" fill="#64798A" width="1.9624023" height="1.9622803"/>
			<polygon fill="#64798A" points="70.604332,60.7928391 68.6421738,60.7928391 68.6421738,62.7551193 70.604332,62.7551193      72.5667343,62.7551193 72.5667343,64.7174606 70.604332,64.7174606 70.604332,66.6798019 72.5667343,66.6798019      74.5291367,66.6798019 74.5291367,64.7174606 74.5291367,62.7551193 74.5291367,60.7928391 72.5667343,60.7928391    "/>
			<polygon fill="#64798A" points="49.0188866,64.7174606 49.0188866,62.7551193 47.0564842,62.7551193 45.0940819,62.7551193      45.0940819,64.7174606 47.0564842,64.7174606    "/>
			<polygon fill="#64798A" points="45.0896873,64.7199631 45.0896873,66.679985 41.1697655,66.679985 41.1697655,58.8299484      43.1297264,58.8299484 43.1297264,64.7199631    "/>
			<rect x="54.9058495" y="66.6798019" fill="#64798A" width="1.9624023" height="1.9623413"/>
			<rect x="72.5667343" y="68.6421432" fill="#64798A" width="1.9624023" height="1.9623413"/>
			<path fill="#64798A" d="M66.6797714,66.679985v-5.8900146h1.9599609v-3.9199829h-5.8801231v-1.960022h-1.9699707v-1.9699707     h1.9699707v1.9699707h1.9599571v-3.9299927h-1.9599571v-1.960022h-3.9299316v-1.9599609h-7.8498535v1.9599609H49.019619v1.960022     h-1.9599609v1.960022h-1.9699707v5.8899536h1.9699707v1.960022h1.9599609v-3.9199829h-1.9599609v-1.960022h1.9599609v1.960022     h1.9602051v7.8499756H49.019619v1.960022h-3.9299316v5.8900146h-1.9599609V68.640007h-1.9599609v5.8899536h9.8100586v-1.9599609     h1.9599609v1.9599609h1.9699707v-1.9599609h1.9599609v1.9599609h1.9599609V68.640007h-1.9599609v1.9599609h-5.8898926V68.640007     h1.9599609v-3.9200439h1.9699707v-3.9299927H52.939785v-5.8800049h1.9699707v-3.9299927H52.939785v-1.960022h1.9699707v1.960022     h3.9199219v3.9299927h-3.9199219v1.960022h1.9599609v1.9599609h-1.9599609v1.960022h1.9599609v5.8900146h5.8898926v5.8900146     h-1.9699707v1.9599609h3.9299278v-1.9599609h1.9602051V70.599968h3.9199219V66.679985H66.6797714z M49.019619,72.5699997     h-1.9599609V70.599968h1.9599609V72.5699997z M64.7195663,64.7199631h-5.8898888v-5.8900146h5.8898888V64.7199631z"/>
			<polygon fill="#64798A" points="70.604332,74.5291061 72.5667343,74.5291061 74.5291367,74.5291061 74.5291367,72.5668259      72.5667343,72.5668259 72.5667343,70.6044846 70.604332,70.6044846 70.604332,72.5668259    "/>
		</g>
	</g>
</g>
</svg>
