<?xml version="1.0" encoding="utf-8"?>
<!-- Generator: Adobe Illustrator 21.0.2, SVG Export Plug-In . SVG Version: 6.00 Build 0)  -->
<svg xmlns="http://www.w3.org/2000/svg" xmlns:xlink="http://www.w3.org/1999/xlink" version="1.1" id="Layer_1" x="0px" y="0px" viewBox="0 0 100 100" enable-background="new 0 0 100 100" xml:space="preserve" width="512" height="512">
<g>
	<circle fill="#EFC84A" cx="50" cy="50" r="48"/>
	<path opacity="0.1" d="M57.6900024,26.9799805h-5.8599854L47.3499756,22.5h-1.1999512v0.9500122L45.2000122,22.5H44v0.9500122   L43.0499878,22.5h-1.2000122v0.9500122L40.9000244,22.5h-1.2000122v0.9500122L38.75,22.5h-1.2000122v0.9500122L36.5999756,22.5   h-1.1999512v0.9500122L34.4500122,22.5H33.25v0.9500122L32.2999878,22.5h-1.2000122v0.9500122L30.1500244,22.5h-1.2000122   v0.9500122L28,22.5h-1.2000122v0.9500122L25.8499756,22.5h-1.1999512v0.9500122L23.7000122,22.5H22.5v17.7699585   l51.3740234,51.3649292c11.1289063-6.3955078,19.4540405-17.1135864,22.6686401-29.8722534l-31.232666-31.232666   C63.1599731,28.3399658,60.6500244,26.9799805,57.6900024,26.9799805z"/>
	<g>
		<g>
			<g>
				<rect x="22.5000019" y="22.5" fill="#3A556A" width="1.2002685" height="17.7737026"/>
				<rect x="24.6497002" y="22.5" fill="#3A556A" width="1.2002685" height="14.3979464"/>
				<rect x="26.7994003" y="22.5" fill="#3A556A" width="1.2002685" height="14.3979464"/>
				<rect x="28.9491005" y="22.5" fill="#3A556A" width="1.2002685" height="14.3979464"/>
				<rect x="31.0999718" y="22.5" fill="#3A556A" width="1.2002685" height="14.3979464"/>
				<rect x="33.2496719" y="22.5" fill="#3A556A" width="1.2002685" height="14.3979464"/>
				<rect x="35.3993721" y="22.5" fill="#3A556A" width="1.2002685" height="14.3979464"/>
				<rect x="37.5490685" y="22.5" fill="#3A556A" width="1.2002685" height="14.3979464"/>
				<rect x="39.6999435" y="22.5" fill="#3A556A" width="1.2002685" height="14.3979464"/>
				<rect x="41.8496399" y="22.5" fill="#3A556A" width="1.2002685" height="14.3979464"/>
				<rect x="43.9993401" y="22.5" fill="#3A556A" width="1.2002685" height="14.3979464"/>
				<rect x="24.6497002" y="38.613369" fill="#3A556A" width="1.2002685" height="1.6603323"/>
				<rect x="26.7994003" y="38.613369" fill="#3A556A" width="1.2002685" height="1.6603323"/>
				<rect x="28.9491005" y="38.613369" fill="#3A556A" width="1.2002685" height="1.6603323"/>
				<rect x="31.0999718" y="38.613369" fill="#3A556A" width="1.2002685" height="1.6603323"/>
				<rect x="33.2496719" y="38.613369" fill="#3A556A" width="1.2002685" height="1.6603323"/>
				<rect x="35.3993721" y="38.613369" fill="#3A556A" width="1.2002685" height="1.6603323"/>
				<rect x="37.5490685" y="38.613369" fill="#3A556A" width="1.2002685" height="1.6603323"/>
				<rect x="39.6999435" y="38.613369" fill="#3A556A" width="1.2002685" height="1.6603323"/>
				<rect x="41.8496399" y="38.613369" fill="#3A556A" width="1.2002685" height="1.6603323"/>
				<rect x="43.9993401" y="38.613369" fill="#3A556A" width="1.2002685" height="1.6603323"/>
				<rect x="46.1490402" y="22.5" fill="#3A556A" width="1.2002685" height="17.7737026"/>
			</g>
			<rect x="22.5000019" y="31.1559944" fill="#E56353" width="24.849308" height="1.3549232"/>
		</g>
		<path fill="#27A2DB" d="M55.2664299,26.9792995H47.478363c-2.7712364,5.8577061-2.5936127,12.596735,0,20.0580692h22.1315231    v-2.2957535C69.6098862,34.9317741,63.1880569,26.9792995,55.2664299,26.9792995z"/>
		<path fill="#E56353" d="M66.5554352,50.7152252h-3.7598648c-0.4570045,0-0.7977791,0.5214996-0.7024002,1.0750008    l1.0836296,6.2915573c0.0811005,0.471283,0.4506264,0.776825,0.8332863,0.689064l2.6761398-0.613739    c0.3404922-0.0780945,0.5875092-0.445816,0.5875092-0.8746033v-5.6778221    C67.273735,51.1134224,66.9521866,50.7152252,66.5554352,50.7152252z"/>
		<path fill="#3A556A" d="M57.6865158,26.9792404l-6.485405,0.0000591c-2.7711411,5.8577061-2.5935211,12.596735,0,20.0580692    h7.9418907c2.566391,0,4.7951431,2.1879539,5.3807487,5.2823372l2.809021,14.8437462l9.3441315-3.1367035    C76.6769028,64.0267487,73.1512451,26.9792404,57.6865158,26.9792404z"/>
		<path fill="#2F4859" d="M76.6769028,64.0267487l-9.3441315,3.1367035l0.6181641,3.2664871    c0.0378799,0.2000427,0.0833817,0.3953705,0.136116,0.5855637c0.3403931,1.2273026-0.2585297,2.5567398-1.2491608,2.9799881    c-0.7594223,0.3244629-1.1625443,1.3498306-0.900589,2.2902679c0.2608185,0.9364319,1.0834427,1.4362411,1.8411484,1.1187363    l5.9866257-2.5085831c2.601326-0.7549591,4.2158279-3.9784851,3.6062317-7.1998825L76.6769028,64.0267487z"/>
	</g>
</g>
</svg>
