<?xml version="1.0" encoding="utf-8"?>
<!-- Generator: Adobe Illustrator 21.0.2, SVG Export Plug-In . SVG Version: 6.00 Build 0)  -->
<svg xmlns="http://www.w3.org/2000/svg" xmlns:xlink="http://www.w3.org/1999/xlink" version="1.1" id="Layer_1" x="0px" y="0px" viewBox="0 0 100 100" enable-background="new 0 0 100 100" xml:space="preserve" width="512" height="512">
<g>
	<circle fill="#EA8953" cx="50" cy="50" r="48"/>
	<path opacity="0.1" d="M56.9899902,25.8200073C54.3200073,23.7399902,50.960022,22.5,47.3200073,22.5   c-8.710022,0-15.789978,7.0799561-15.789978,15.789978v28.9100342h-0.0900269   c-0.4299927,0-0.7800293,0.3499756-0.7800293,0.7799683v4.8900146H25.039978c-0.4699707,0-0.8899536,0.289978-1.0499878,0.7199707   L22.5,77.5l19.894104,19.894104C44.8720093,97.7886963,47.4110107,98,50,98   c21.4285889,0,39.5715332-14.0445557,45.7414551-33.4287109L59.789978,28.6199951   C58.9799805,27.5700073,58.039978,26.6300049,56.9899902,25.8200073z"/>
	<g>
		<g>
			<path fill="#D5D6DB" d="M33.5285988,67.7578125h-2v-29.46875C31.5285988,29.5830078,38.6116066,22.5,47.3176613,22.5     s15.7890625,7.0830078,15.7890625,15.7890625V41.125h-2v-2.8359375C61.1067238,30.6855469,54.9211769,24.5,47.3176613,24.5     s-13.7890625,6.1855469-13.7890625,13.7890625V67.7578125z"/>
		</g>
		<g>
			<g>
				<path fill="#2F4859" d="M49.373127,76.0424805v0.93927c0,0.2861938,0.2319336,0.5182495,0.5183105,0.5182495h3.1416016      c0.2861328,0,0.5183105-0.2320557,0.5183105-0.5182495v-0.93927H49.373127z"/>
				<path fill="#2F4859" d="M70.7172546,76.0424805v0.93927c0,0.2861938,0.2319336,0.5182495,0.5183105,0.5182495h3.1416016      c0.2861328,0,0.5183105-0.2320557,0.5183105-0.5182495v-0.93927H70.7172546z"/>
			</g>
			<path fill="#3A556A" d="M62.1347771,38.9936523c-6.2924805,0-14.9140625,15.9450684-15.3657227,35.9375     c-0.0205078,0.9000854,0.7177734,1.6380615,1.6181641,1.6380615h27.4941368c0.9006348,0,1.6394043-0.7384644,1.6181641-1.638916     C77.0302811,54.9382324,68.0827713,38.9936523,62.1347771,38.9936523z"/>
			<path fill="#64798A" d="M62.1342888,63.4611816c5.3425255,0,9.9494591-3.1831665,12.1567345-7.7965088     c-3.2529297-10.0505371-8.3251953-16.6710205-12.1562462-16.6710205c-4.0371094,0-9.0300293,6.5697021-12.2119141,16.5547485     C52.1079216,60.2244263,56.7470818,63.4611816,62.1342888,63.4611816z"/>
			<path fill="#FCD462" d="M68.8790741,65.2409668H55.3895302c-0.5666504,0-1.026123,0.4594727-1.026123,1.0261841v6.8285522     c0,0.5667114,0.4594727,1.026123,1.026123,1.026123h13.4895439c0.5666504,0,1.026123-0.4594116,1.026123-1.026123v-6.8285522     C69.9051971,65.7004395,69.4457245,65.2409668,68.8790741,65.2409668z"/>
			<g>
				<g>
					<g>
						<g>
							<circle fill="#FFFFFF" cx="59.0016785" cy="69.6814117" r="2.8244519"/>
							<path fill="#E1E6E9" d="M59.0015717,66.856926c-0.1550293,0-0.3044434,0.0216064-0.4528809,0.0456543v5.5576172         c0.1484375,0.0240479,0.2978516,0.0456543,0.4528809,0.0456543c0.1552734,0,0.3046875-0.0216064,0.453125-0.0456543         v-5.5576172C59.3062592,66.8785324,59.1568451,66.856926,59.0015717,66.856926z"/>
						</g>
						<circle fill="#E56353" cx="59.0016785" cy="67.4044495" r="0.2024431"/>
					</g>
					<g>
						
							<ellipse transform="matrix(0.7071068 -0.7071068 0.7071068 0.7071068 -29.5067883 63.1586876)" fill="#27A2DB" cx="61.4858856" cy="67.1971893" rx="0.3277322" ry="0.3277322"/>
						
							<ellipse transform="matrix(0.7071068 -0.7071068 0.7071068 0.7071068 -34.4752045 61.1007004)" fill="#27A2DB" cx="56.5174675" cy="72.1656036" rx="0.3277322" ry="0.3277322"/>
					</g>
					<g>
						
							<ellipse transform="matrix(0.7071068 -0.7071068 0.7071068 0.7071068 -33.019989 64.6139069)" fill="#27A2DB" cx="61.4858856" cy="72.1656036" rx="0.3277322" ry="0.3277322"/>
						
							<ellipse transform="matrix(0.7071068 -0.7071068 0.7071068 0.7071068 -30.9620037 59.6454849)" fill="#27A2DB" cx="56.5174675" cy="67.1971893" rx="0.3277322" ry="0.3277322"/>
					</g>
					<g>
						<circle fill="#27A2DB" cx="62.5148811" cy="69.6813965" r="0.3277322"/>
						<circle fill="#27A2DB" cx="55.4884758" cy="69.6813965" r="0.3277322"/>
					</g>
					<g>
						<circle fill="#27A2DB" cx="59.0016785" cy="73.1945953" r="0.3277322"/>
						<circle fill="#27A2DB" cx="59.0016785" cy="66.1681976" r="0.3277322"/>
					</g>
				</g>
				<path fill="#E56353" d="M68.8026886,66.2932129h-2.6806641c-0.168457,0-0.3051758,0.1366577-0.3051758,0.3051758v0.6213379      c0,0.1685181,0.1367188,0.3051758,0.3051758,0.3051758h2.6806641c0.168457,0,0.3051758-0.1366577,0.3051758-0.3051758      v-0.6213379C69.1078644,66.4298706,68.9711456,66.2932129,68.8026886,66.2932129z"/>
				<path fill="#27A2DB" d="M68.8026886,68.2571487h-2.6806641c-0.168457,0-0.3051758,0.1366577-0.3051758,0.3051758v0.6213379      c0,0.1685181,0.1367188,0.3051758,0.3051758,0.3051758h2.6806641c0.168457,0,0.3051758-0.1366577,0.3051758-0.3051758      v-0.6213379C69.1078644,68.3938065,68.9711456,68.2571487,68.8026886,68.2571487z"/>
				<path fill="#44C4A1" d="M68.8026886,70.2210922h-2.6806641c-0.168457,0-0.3051758,0.1366577-0.3051758,0.3051758v0.6213379      c0,0.1685181,0.1367188,0.3051758,0.3051758,0.3051758h2.6806641c0.168457,0,0.3051758-0.1366577,0.3051758-0.3051758V70.526268      C69.1078644,70.3577499,68.9711456,70.2210922,68.8026886,70.2210922z"/>
			</g>
			<g>
				<circle fill="#3A556A" cx="67.6328354" cy="52.7346802" r="1.5177491"/>
				<circle fill="#3A556A" cx="56.5810547" cy="52.7346802" r="1.5177491"/>
			</g>
			<path fill="#EBF0F3" d="M67.5149002,51.5389404H56.6987419c-0.6604004,0-1.1955566,0.5353394-1.1955566,1.1957397     s0.5351563,1.1957397,1.1955566,1.1957397h10.8161583c0.6604004,0,1.1958008-0.5353394,1.1958008-1.1957397     S68.1753006,51.5389404,67.5149002,51.5389404z"/>
		</g>
		<path fill="#3A556A" d="M33.6153908,67.1971817h-2.1740723c-0.4333496,0-0.7849121,0.3514404-0.7849121,0.7849121v6.1397095    h3.7438965v-6.1397095C34.4003029,67.5486221,34.0489845,67.1971817,33.6153908,67.1971817z"/>
		<path fill="#64798A" d="M41.0683937,73.5930557c-0.166748-0.4372559-0.5859375-0.7261963-1.0539551-0.7261963H25.0420265    c-0.4677734,0-0.887207,0.2889404-1.0537109,0.7261963l-1.4882813,3.9069214H42.556675L41.0683937,73.5930557z"/>
	</g>
</g>
</svg>
