<?xml version="1.0" encoding="utf-8"?>
<!-- Generator: Adobe Illustrator 21.0.2, SVG Export Plug-In . SVG Version: 6.00 Build 0)  -->
<svg xmlns="http://www.w3.org/2000/svg" xmlns:xlink="http://www.w3.org/1999/xlink" version="1.1" id="Layer_1" x="0px" y="0px" viewBox="0 0 100 100" enable-background="new 0 0 100 100" xml:space="preserve" width="512" height="512">
<g>
	<circle fill="#334D5C" cx="50" cy="50" r="48"/>
	<path opacity="0.1" d="M68.5300293,26.2799683h-7.9000244l-1.0700073-1.0700073   c-0.2299805-0.2199707-0.5499878-0.3599854-0.9000244-0.3599854h-5.2799683l-1.5-1.5l-0.0900269-0.0899658   C51.3400269,22.789978,50.7000122,22.5,50,22.5c-1.3300171,0-2.4099731,1.039978-2.5,2.3499756h-6.1599731   c-0.7200317,0-1.3000488,0.5800171-1.3000488,1.2999878v0.1300049h-8.5700073   c-0.7299805,0-1.3299561,0.5900269-1.3299561,1.3200073v48.5800171c0,0.3800049,0.1699829,0.7299805,0.4299927,0.960022   l0.0100098,0.0099487l20.8147583,20.8147583c24.2014771-0.6924438,43.9186401-19.2843628,46.3515625-43.0106812   L69.5100098,26.7099609C69.2700195,26.4500122,68.9199829,26.2799683,68.5300293,26.2799683z"/>
	<g>
		<path fill="#DC8744" d="M68.5338287,26.2818336H31.4661751c-0.7307549,0-1.3231449,0.5923901-1.3231449,1.3231449V76.176857    c0,0.730751,0.5923901,1.323143,1.3231449,1.323143h37.0676537c0.7308731,0,1.323143-0.592392,1.323143-1.323143V27.6049786    C69.8569717,26.8742237,69.2647018,26.2818336,68.5338287,26.2818336z"/>
		<rect x="32.1430664" y="29.2816143" fill="#E1E6E9" width="35.7138672" height="46.2182617"/>
		<rect x="32.1430664" y="28.2816143" fill="#EBF0F3" width="35.7138672" height="46.2182617"/>
		<path fill="#64798A" d="M58.6636581,24.8508186h-6.1637459C52.4128914,23.5397263,51.33321,22.5,49.9999428,22.5    c-1.3330307,0-2.4129524,1.0397263-2.4998512,2.3508186h-6.1637497c-0.7182198,0-1.3004837,0.5822048-1.3004837,1.3004246    v4.4595566h19.9282875v-4.4595566C59.9641457,25.4330235,59.3818779,24.8508186,58.6636581,24.8508186z"/>
		<g>
			<path fill="#64798A" d="M41.2534409,38.8040771h-4.9365234v-4.9370117h4.9365234V38.8040771z M37.0669174,38.0540771h3.4365234     v-3.4370117h-3.4365234V38.0540771z"/>
		</g>
		<g>
			<rect x="43.2280502" y="35.8353271" fill="#64798A" width="19.0537109" height="1"/>
		</g>
		<g>
			<path fill="#64798A" d="M41.2534409,46.4083443h-4.9365234v-4.9370117h4.9365234V46.4083443z M37.0669174,45.6583443h3.4365234     v-3.4370117h-3.4365234V45.6583443z"/>
		</g>
		<g>
			<rect x="43.2280502" y="43.4395943" fill="#64798A" width="19.0537109" height="1"/>
		</g>
		<g>
			<path fill="#64798A" d="M41.2534409,54.0126152h-4.9365234v-4.9370117h4.9365234V54.0126152z M37.0669174,53.2626152h3.4365234     v-3.4370117h-3.4365234V53.2626152z"/>
		</g>
		<g>
			<rect x="43.2280502" y="51.0438652" fill="#64798A" width="19.0537109" height="1"/>
		</g>
		<g>
			<path fill="#64798A" d="M41.2534409,61.6168861h-4.9365234v-4.9370117h4.9365234V61.6168861z M37.0669174,60.8668861h3.4365234     v-3.4370117h-3.4365234V60.8668861z"/>
		</g>
		<g>
			<rect x="43.2280502" y="58.6481361" fill="#64798A" width="19.0537109" height="1"/>
		</g>
		<g>
			<path fill="#64798A" d="M41.2534409,69.2211533h-4.9365234v-4.9370117h4.9365234V69.2211533z M37.0669174,68.4711533h3.4365234     v-3.4370117h-3.4365234V68.4711533z"/>
		</g>
		<g>
			<rect x="43.2280502" y="66.2524033" fill="#64798A" width="19.0537109" height="1"/>
		</g>
	</g>
</g>
</svg>
