<?xml version="1.0" encoding="utf-8"?>
<!-- Generator: Adobe Illustrator 21.0.2, SVG Export Plug-In . SVG Version: 6.00 Build 0)  -->
<svg xmlns="http://www.w3.org/2000/svg" xmlns:xlink="http://www.w3.org/1999/xlink" version="1.1" id="Layer_1" x="0px" y="0px" viewBox="0 0 100 100" enable-background="new 0 0 100 100" xml:space="preserve" width="512" height="512">
<g>
	<circle fill="#E05B49" cx="50" cy="50" r="48"/>
	<path opacity="0.1" d="M97.6655884,55.5892105l-20.515564-20.5100098l-0.0200195-0.0300293l-0.1600342-0.1599121   l-1.9499512-1.0600586c-0.2600098-0.1400146-0.6199951,0.0300293-0.8099976,0.3800049l-1.0599976,1.9899902l-0.6800537-0.3699951   l-0.6499634,1.2399902l-0.4700317-0.4699707l-0.4199829-0.2299805L68.9400024,40.10923H22.789978v26.1098633l31.5744019,31.5744629   C76.9789429,95.7538834,95.06073,78.0359879,97.6655884,55.5892105z"/>
	<g>
		<rect x="22.7894192" y="40.1131401" fill="#EBF0F3" width="48.830822" height="26.1104794"/>
		<rect x="22.7894192" y="40.1131401" fill="#44C4A1" width="48.830822" height="6.8352041"/>
		<path fill="#E56353" d="M34.4487877,45.3099365c0.9343567,3.5262756-2.1560097,6.6582375-5.6436348,5.7298431    c-1.5286083-0.4069099-2.7556973-1.6502075-3.1608562-3.1792831c-0.9343548-3.5262756,2.1560097-6.6582336,5.6436348-5.7298431    C32.8165398,42.5375633,34.0436325,43.7808609,34.4487877,45.3099365z"/>
		<g>
			<rect x="26.8373356" y="54.3507385" fill="#E1E6E9" width="26.9469719" height="0.3064222"/>
		</g>
		<g>
			<rect x="26.8373356" y="58.4919281" fill="#E1E6E9" width="26.9469719" height="0.3064222"/>
		</g>
		<rect x="57.1180763" y="54.5038757" fill="#E1E6E9" width="13.0568819" height="4.1412201"/>
		<g>
			<path fill="#64798A" d="M55.2413788,63.6751022c-0.0026016,0-0.0060692,0-0.0086708,0     c-0.2184906-0.0026283-0.4213753-0.0972633-0.5557632-0.2611237c-0.0277443-0.0341721-0.0502892-0.0718498-0.066761-0.1112823     c-0.1248512-0.0560799-0.2488365-0.1200447-0.3684845-0.1945267c-0.110981,0.0394325-0.2219582,0.0779877-0.3329391,0.1182938     c-0.1404572,0.0481949-0.2965202,0.0271645-0.416172-0.0657196c-0.1057739-0.0806122-0.1699371-0.2059174-0.1760063-0.3382301     l-2.2386551-0.028038c-0.1066437-0.0017548-0.2731133-0.0035057-0.4465179-0.0534515     c-0.1725388,0.2444725-0.3719521,0.4793053-0.602581,0.6966133c-0.1786079,0.169117-0.4595261,0.1594772-0.6268616-0.021904     c-0.1673355-0.1805077-0.1577988-0.4644127,0.0216751-0.6335258c0.2323647-0.2199402,0.4274445-0.4635353,0.5895767-0.7185211     c-0.0277443-0.1428299-0.0242729-0.2751427-0.0216751-0.366272c0.0450859-1.8155823,0.3086624-3.6241531,0.7829247-5.3766441     c0.0572243-0.2103004,0.2488365-0.3426132,0.4707947-0.3285942c0.215023,0.0210304,0.3832245,0.1954041,0.4005661,0.4127121     c0.0893021,1.1881905,0.1829414,2.416687,0.0034676,3.6346664c-0.0788994,0.541523-0.2349625,1.2030869-0.5349541,1.8576431     l2.2577324,0.0280418l0.0008659-0.0140228c-0.052021-0.2733879-0.02948-0.5511589,0.0780334-0.7991371     c0.0867004-0.1989059,0.2982559-0.3084373,0.5124092-0.2549858c0.2089539,0.0516968,0.3511467,0.2479782,0.3372726,0.4652863     l-0.0329475,0.5099754c0.0121384,0.0359268,0.0277443,0.0709763,0.0450859,0.1051483l0.5757065,0.0070114     c1.436657-0.4679146,2.9036636-0.8683586,4.3758698-1.1951981c0.2098198-0.0481949,0.4170418,0.0613365,0.5020103,0.2584915     c0.052887,0.1217995,0.0476837,0.2576141-0.0052032,0.3715286c0.0572243-0.0043831,0.1439247,0.0035057,0.1933479,0.007885     l1.5797157,0.1437035c0.244503,0.0227852,0.4239769,0.2409706,0.4023018,0.4871941     c-0.0216751,0.2471008-0.2479706,0.4232254-0.4820671,0.4065781l-1.5788498-0.1437035     c-0.2054863-0.0184021-0.5167465-0.0464401-0.7716522-0.2628746c-0.0849686-0.0727272-0.1534653-0.1638565-0.2020187-0.2663803     c-0.8340759,0.1962814-1.6646881,0.4153404-2.4874916,0.658062c-0.0008698,0.1375694-0.0650291,0.2698822-0.177742,0.3557549     l-0.3468094,0.2628746c0.0329475,0.1402016-0.0026016,0.2891617-0.0971069,0.3986931     C55.6575508,63.5848465,55.456398,63.6751022,55.2413788,63.6751022z"/>
		</g>
		<g>
			<polygon fill="#DC8744" points="71.9287949,37.8490562 70.963829,37.3253212 71.351059,36.596611 70.9334183,36.3699379      66.3391113,45.0158348 66.756752,45.2425079 70.576622,38.0540009 71.5415878,38.5777359    "/>
			<path fill="#DC8744" d="M76.9712753,34.8855247l-1.9534149-1.060215     c-0.2594604-0.1408195-0.6226501,0.0326538-0.8111877,0.3874474L63.8567886,53.689949l2.8929291,1.570137l10.3498917-19.4771919     C77.2881393,35.4280968,77.2307281,35.0263443,76.9712753,34.8855247z"/>
			<polygon fill="#F6C358" points="66.036087,58.2560692 61.7796669,55.9459038 72.4709167,35.8263054 76.7273407,38.1364746    "/>
			<path fill="#64798A" d="M66.036087,58.2560577l-4.2564507-2.3101807l-0.5965157,1.12257l-0.0981483,3.2862434     c0.3786316-0.2005768,0.7861366-0.2383995,1.1233864-0.0553589s0.5310402,0.5471802,0.5747108,0.976963l2.6565056-1.8976669     L66.036087,58.2560577z"/>
			<path fill="#3A556A" d="M62.2083588,60.2993317c-0.3372498-0.1830406-0.7447548-0.1452179-1.1233864,0.0553589     l-0.0453606,1.5180321c-0.0094337,0.3171921,0.2598801,0.4633636,0.5163155,0.2802277l1.2271423-0.8766556     C62.739399,60.8465118,62.5456085,60.4823723,62.2083588,60.2993317z"/>
		</g>
	</g>
</g>
</svg>
