<?xml version="1.0" encoding="utf-8"?>
<!-- Generator: Adobe Illustrator 21.0.2, SVG Export Plug-In . SVG Version: 6.00 Build 0)  -->
<svg xmlns="http://www.w3.org/2000/svg" xmlns:xlink="http://www.w3.org/1999/xlink" version="1.1" id="Layer_1" x="0px" y="0px" viewBox="0 0 100 100" enable-background="new 0 0 100 100" xml:space="preserve" width="512" height="512">
<g>
	<circle fill="#E05B49" cx="50" cy="50" r="48"/>
	<path opacity="0.1" d="M63.3499756,23.0799561C62.9899902,22.7199707,62.5,22.5,61.9500122,22.5H24.5   c-1.1099854,0-2,0.8999023-2,2.0100098v24.8699951c0,0.6700439,0.3200073,1.2600098,0.8200073,1.6199951l3.0499878,3.0500488   v5.369873L63.119751,96.1696777c17.8875732-5.0737305,31.5265503-20.2467041,34.3418579-38.9752197L63.4899902,23.2299805   L63.3499756,23.0799561z"/>
	<g>
		<path fill="#27A2DB" d="M61.9456635,22.5H24.4972687c-1.1030369,0-1.9972668,0.8996773-1.9972668,2.0094643v24.8671722    c0,1.1098099,0.8942299,2.0094872,1.9972668,2.0094872h1.8724537v8.0378838l7.9889736-8.0378838h27.5869675    c1.1030388,0,1.9972687-0.8996773,1.9972687-2.0094872V24.5094643C63.9429321,23.3996773,63.0487022,22.5,61.9456635,22.5z"/>
		<g>
			<rect x="26.809618" y="27.1774673" fill="#2D93BA" width="32.8236961" height="2.8660359"/>
			<rect x="26.809618" y="35.1893425" fill="#2D93BA" width="32.8236961" height="2.8660359"/>
			<rect x="26.809618" y="43.2012138" fill="#2D93BA" width="32.8236961" height="2.8660359"/>
		</g>
		<path fill="#FCD462" d="M38.0543404,40.5759926h37.448391c1.1030426,0,1.9972687,0.8996773,1.9972687,2.0094643v24.8671722    c0,1.1098099-0.8942261,2.0094833-1.9972687,2.0094833h-1.8724518V77.5l-7.9889755-8.0378876H38.0543404    c-1.1030388,0-1.9972687-0.8996735-1.9972687-2.0094833V42.5854568    C36.0570717,41.4756699,36.9513016,40.5759926,38.0543404,40.5759926z"/>
		<g>
			
				<rect x="40.3666878" y="45.2534599" transform="matrix(-1 -4.499879e-11 4.499879e-11 -1 113.5570755 93.3729553)" fill="#DC8744" width="32.8236961" height="2.8660359"/>
			
				<rect x="40.3666878" y="53.2653313" transform="matrix(-1 -4.510937e-11 4.510937e-11 -1 113.5570755 109.396698)" fill="#DC8744" width="32.8236961" height="2.8660359"/>
			
				<rect x="40.3666878" y="61.2772064" transform="matrix(-1 -4.510937e-11 4.510937e-11 -1 113.5570755 125.4204483)" fill="#DC8744" width="32.8236961" height="2.8660359"/>
		</g>
	</g>
</g>
</svg>
