<?xml version="1.0" encoding="utf-8"?>
<!-- Generator: Adobe Illustrator 21.0.2, SVG Export Plug-In . SVG Version: 6.00 Build 0)  -->
<svg xmlns="http://www.w3.org/2000/svg" xmlns:xlink="http://www.w3.org/1999/xlink" version="1.1" id="Layer_1" x="0px" y="0px" viewBox="0 0 100 100" enable-background="new 0 0 100 100" xml:space="preserve" width="512" height="512">
<g>
	<circle fill="#E05B49" cx="50" cy="50" r="48"/>
	<path opacity="0.1" d="M96.8781738,60.3091812L62.7600098,26.1991959c-4.0499878-4.9300537-21.4700317-4.9300537-25.5200195,0   c-3.4799805,4.25-0.289978,18.5899658,4.3300171,21.5699463c1.3800049,0.9000244,3.7299805,1.4400635,6.289978,1.6300049v6.460083   c-2.5599976,0.0599365-5.039978,0.2399902-7.1599731,0.5599365l-6.0200195-6.0200195h-0.0100098   c-0.0299683-0.0499268-0.0899658-0.0799561-0.1599731-0.0799561h-2.5700073c-0.1099854,0-0.210022,0.0899658-0.210022,0.2099609   v1.1999512c0,0.0600586,0.0300293,0.1101074,0.0599976,0.1501465l0.9200439,0.9199219v7.8000488   c0,0.5100098,0.1900024,0.9699707,0.5099487,1.3199463l8.3800049,8.3800049c-0.0999756,0-0.2099609,0.0100098-0.3099976,0.0200195   c-0.4299927,0.0300293-0.7599487,0.4099121-0.7199707,0.8499756c0.0100098,0.1300049,0.0599976,0.25,0.1300049,0.3499756   c0.039978,0.0700684,0.0999756,0.1300049,0.1599731,0.1800537v0.3099365h-0.0299683   c-0.5100098,0-0.9299927,0.4200439-0.9299927,0.9400635c0,0.2099609,0.0699463,0.4000244,0.1900024,0.5599365l0.0099487,0.0100098   l0.1600342,0.1600342l0.0499878,0.039917l2.6199951,2.630127c-0.0200195,0.0699463-0.0299683,0.1398926-0.0299683,0.2099609   c0,0.2600098,0.0999756,0.4899902,0.2699585,0.6599121l19.1715698,19.1716309   C79.6017456,91.8104019,93.0360107,77.8575211,96.8781738,60.3091812z"/>
	<g>
		<circle fill="#3A556A" cx="40.8323288" cy="72.9445419" r="0.9365845"/>
		<circle fill="#3A556A" cx="59.1673813" cy="72.9445419" r="0.9365845"/>
		<circle fill="#3A556A" cx="43.8415298" cy="76.5634155" r="0.9365845"/>
		<circle fill="#3A556A" cx="56.1581802" cy="76.5634155" r="0.9365845"/>
		<rect x="40.8567352" y="71.2176819" fill="#3A556A" width="0.3470604" height="2.0464599"/>
		<rect x="58.7959137" y="71.2176819" fill="#3A556A" width="0.3470604" height="2.0464599"/>
		<rect x="43.7547646" y="74.5359421" fill="#3A556A" width="0.3470604" height="2.0464599"/>
		<rect x="55.8978844" y="74.5359421" fill="#3A556A" width="0.3470604" height="2.0464599"/>
		<rect x="48.5506859" y="60.9294701" fill="#3A556A" width="2.899354" height="9.845644"/>
		<rect x="47.8558235" y="47.2877808" fill="#64798A" width="4.2883544" height="9.9176607"/>
		<path fill="#F6C358" d="M58.4333038,47.77285c-3.5417786,2.2882195-13.3248253,2.2882195-16.8666077,0    c-4.6201286-2.9849052-7.8087807-17.3188343-4.3222656-21.5731792c4.0426064-4.9328957,21.4685326-4.9328957,25.5111389,0    C66.2420883,30.4540157,63.0534363,44.7879448,58.4333038,47.77285z"/>
		<path fill="#FCD462" d="M64.477684,57.857502c-5.2243996-2.6185493-23.9946404-2.7735672-28.9693718,0    c-1.0022125,0.5586739-0.5162659,2.3061943-0.1994057,3.1693001c0.1081696,0.2950096,0.3848801,0.4922981,0.6992836,0.4922981    h27.9709816c0.313858,0,0.5900192-0.1972198,0.6990051-0.491272C65.0021439,60.1541367,65.5072098,58.3735619,64.477684,57.857502    z"/>
		<path fill="#3A556A" d="M35.0922928,60.3395424c0.0688362,0.2562866,0.1461411,0.4955063,0.2166138,0.6872597    c0.1081696,0.2950096,0.3848801,0.4922981,0.6992836,0.4922981h27.9709816c0.313858,0,0.5900192-0.1972198,0.6990051-0.491272    c0.0712967-0.1919632,0.1496964-0.4317932,0.2201691-0.6882858H35.0922928z"/>
		<path fill="#64798A" d="M58.7081375,70.3167267c-5.7817192-0.4271927-11.6328163-0.4271927-17.4160614,0    c-0.4332924,0.0320206-0.7583237,0.4149933-0.7232552,0.8481598c0.0345612,0.4259872,0.4048309,0.7409821,0.8312607,0.7103577    c1.5903473-0.1144867,3.1865387-0.1886902,4.7842598-0.2407837c-1.234314,0.9297333-2.1522331,1.9885025-2.6752319,2.6646805    c-0.2815781,0.3641052-0.1875496,0.8862152,0.2000008,1.1343155c0.3402786,0.217659,0.7862778,0.1452332,1.033802-0.1738281    c0.7618828-0.9818954,2.5250397-2.9560471,4.8597336-3.6927032c0.268364-0.0000687,0.5257988-0.0000687,0.7939034-0.0000687    c2.3255501,0.734314,4.0955658,2.7118301,4.8607521,3.6944199c0.248539,0.3188095,0.6947937,0.3905411,1.0348206,0.1723709    c0.3890724-0.2495575,0.4772568-0.7761841,0.1941566-1.1415558c-0.5240173-0.6763687-1.4404144-1.7312622-2.6709137-2.6578217    c1.5974655,0.0520325,3.1934052,0.1261749,4.7837524,0.2407837c0.4264297,0.0307541,0.7974625-0.2844925,0.831768-0.7107391    C59.4659538,70.7312775,59.1414299,70.3487473,58.7081375,70.3167267z"/>
		<path fill="#64798A" d="M65.3333969,62.5600166h-3.3494415v-1.0409164h3.3494415    c0.5062256,0,0.9179153-0.4116898,0.9179153-0.9174118v-9.5512352h1.0409164v9.5512352    C67.2922287,61.6817436,66.4139557,62.5600166,65.3333969,62.5600166z"/>
		<path fill="#F6C358" d="M68.055687,50.3152695H65.487854c-0.1171722,0-0.2120361,0.0948715-0.2120361,0.2119522v1.1982498    c0,0.1170807,0.0948639,0.2119522,0.2120361,0.2119522h2.5678329c0.1171722,0,0.2120438-0.0948715,0.2120438-0.2119522v-1.1982498    C68.2677307,50.410141,68.1728592,50.3152695,68.055687,50.3152695z"/>
		<path fill="#64798A" d="M34.6666069,62.5600166h3.3494415v-1.0409164h-3.3494415    c-0.5062256,0-0.9179153-0.4116898-0.9179153-0.9174118v-9.5512352h-1.0409203v9.5512352    C32.7077713,61.6817436,33.5860481,62.5600166,34.6666069,62.5600166z"/>
		<path fill="#F6C358" d="M31.944315,50.3152695h2.567831c0.1171722,0,0.2120399,0.0948715,0.2120399,0.2119522v1.1982498    c0,0.1170807-0.0948677,0.2119522-0.2120399,0.2119522h-2.567831c-0.1171703,0-0.2120399-0.0948715-0.2120399-0.2119522    v-1.1982498C31.732275,50.410141,31.8271446,50.3152695,31.944315,50.3152695z"/>
	</g>
</g>
</svg>
