<?xml version="1.0" encoding="utf-8"?>
<!-- Generator: Adobe Illustrator 21.0.2, SVG Export Plug-In . SVG Version: 6.00 Build 0)  -->
<svg xmlns="http://www.w3.org/2000/svg" xmlns:xlink="http://www.w3.org/1999/xlink" version="1.1" id="Layer_1" x="0px" y="0px" viewBox="0 0 100 100" enable-background="new 0 0 100 100" xml:space="preserve" width="512" height="512">
<g>
	<circle fill="#334D5C" cx="50" cy="50" r="48"/>
	<path opacity="0.1" d="M38.6099854,35.0299683l-4.539978,5.3400269h-2.8699951L22.5,50.6099854v3.6799927l3.0900269,3.0900269v2.25   l1.4299927,1.4299927l-0.2000122,0.2299805v3.6799927L58.9958496,97.145874   c20.5291138-3.8942261,36.4273071-20.8521118,38.7141113-41.9059448L77.5,35.0299683H38.6099854z"/>
	<g>
		<g>
			<g>
				<polygon fill="#44C4A1" points="65.7121201,61.2929916 26.8230152,61.2929916 35.5230255,51.0549278 74.4121323,51.0549278           "/>
				<path fill="#3EA69B" d="M36.6783333,51.875721l-7.3048496,8.5962563h35.1835938l7.3048553-8.5962563H36.6783333z       M64.4845657,59.1038017c-1.0232315,0-2.1650352,0.367527-2.5503006,0.8209038H32.9264069      c0.3852654-0.4533768-0.1319084-0.8209038-1.1551399-0.8209038l4.9795799-5.8599052      c1.0232315,0,2.1650352-0.3675308,2.5503006-0.8209076h29.0078583      c-0.3852615,0.4533768,0.1319122,0.8209076,1.1551437,0.8209076L64.4845657,59.1038017z"/>
				<g>
					<path fill="#3EA69B" d="M48.0686188,58.8033791l0.3935089-0.4630775       c-1.2580032-0.0593681-2.2368088-0.2896194-2.9343719-0.6917801l1.5140991-0.5518723       c0.5392799,0.3087196,1.2075844,0.4930191,2.0081253,0.5518723l1.0458527-1.2307434       c-0.9819679-0.1140938-1.6447144-0.2638054-1.9873543-0.4501724c-0.3430824-0.1858521-0.3588829-0.4620476-0.0478477-0.8280678       c0.3105965-0.365509,0.852829-0.6649361,1.6281548-0.8972473c0.7757645-0.23283,1.6352005-0.3598289,2.5794754-0.3809967       l0.2693596-0.3169785h0.9157982l-0.2750626,0.3236923c1.0212784,0.0335541,1.8788643,0.1925621,2.5740662,0.4754677       l-1.4271126,0.5838814c-0.4614449-0.1987572-1.0386429-0.3216248-1.7343674-0.3680878l-1.0133896,1.192543h0.0431137       c1.0006104,0.11409,1.6752815,0.2689667,2.025322,0.4630775c0.350769,0.1946259,0.3683014,0.4770164,0.0537567,0.8471718       c-0.3145485,0.3701515-0.8662529,0.6711273-1.6559982,0.9039574c-0.7893066,0.2323112-1.6790352,0.3593102-2.6710815,0.3804779       l-0.3882446,0.4568825H48.0686188z M50.5381813,54.7084656c-0.3242378,0.0949898-0.5463104,0.2137299-0.6665154,0.3551826       c-0.1206398,0.1419678-0.1198578,0.253479,0.0010338,0.3360786c0.1197281,0.0825996,0.4156914,0.1621056,0.8860054,0.2379913       l0.9326668-1.0975494C51.2469597,54.5572052,50.8624153,54.6134758,50.5381813,54.7084656z M51.1887054,57.4900322       c0.3492928-0.0970535,0.5876961-0.2199211,0.7136002-0.3680878c0.1254692-0.1476479,0.1206284-0.2653542-0.0153961-0.3520813       c-0.1376305-0.086216-0.4598045-0.1677856-0.9669609-0.2441902l-0.9703979,1.1419525       C50.4254379,57.6464577,50.8378105,57.5876045,51.1887054,57.4900322z"/>
				</g>
				<g>
					<path fill="#3EA69B" d="M65.276619,56.1738472c-0.2892532,0.3403854-1.1464996,0.6163216-1.9147263,0.6163216       c-0.7682228,0-1.1565094-0.2759361-0.86726-0.6163216s1.1465034-0.6163216,1.9147224-0.6163216       C65.1775818,55.5575256,65.5658646,55.8334618,65.276619,56.1738472z"/>
					<path fill="#3EA69B" d="M38.7407799,56.1738472c-0.2892494,0.3403854-1.1464996,0.6163216-1.9147263,0.6163216       c-0.7682228,0-1.1565056-0.2759361-0.8672562-0.6163216s1.1464996-0.6163216,1.9147224-0.6163216       S39.0300293,55.8334618,38.7407799,56.1738472z"/>
				</g>
			</g>
			<rect x="26.8230152" y="61.2929916" fill="#3EA69B" width="38.8908157" height="3.679112"/>
			<polygon fill="#31978C" points="74.4121323,51.0549278 74.4121323,54.625164 65.713829,64.9720993 65.713829,61.2929916    "/>
		</g>
		<g>
			<g>
				<polygon fill="#44C4A1" points="64.4769745,55.9506454 25.5878677,55.9506454 34.2878799,45.7125854 73.1769867,45.7125854           "/>
				<path fill="#3EA69B" d="M35.4431877,46.5333748l-7.3048515,8.5962563h35.1835976l7.3048515-8.5962563H35.4431877z       M63.2494202,53.7614555c-1.0232315,0-2.1650352,0.3675308-2.5503006,0.8209076H31.6912594      c0.3852634-0.4533768-0.1319065-0.8209076-1.1551399-0.8209076l4.979578-5.8599052      c1.0232353,0,2.1650391-0.367527,2.5503044-0.8209038h29.0078583c-0.3852615,0.4533768,0.1319046,0.8209038,1.1551437,0.8209038      L63.2494202,53.7614555z"/>
				<g>
					<path fill="#3EA69B" d="M46.8334694,53.4610367l0.3935127-0.4630814       c-1.2580032-0.0593681-2.2368088-0.2896156-2.9343719-0.6917763l1.5140991-0.5518723       c0.5392761,0.3087158,1.2075844,0.4930191,2.0081253,0.5518723l1.0458527-1.2307472       c-0.9819679-0.11409-1.6447144-0.2638016-1.9873543-0.4501724c-0.3430824-0.1858482-0.3588867-0.4620438-0.0478477-0.8280678       c0.3105965-0.3655052,0.852829-0.6649323,1.6281548-0.8972473c0.7757607-0.23283,1.6351967-0.3598251,2.5794716-0.3809929       l0.2693596-0.3169785h0.915802l-0.2750626,0.3236885c1.0212784,0.0335579,1.8788605,0.1925621,2.5740662,0.4754715       l-1.4271164,0.5838814c-0.4614449-0.1987572-1.0386429-0.3216286-1.7343636-0.3680878l-1.0133896,1.192543h0.0431099       c1.0006142,0.11409,1.6752815,0.2689667,2.0253258,0.4630775c0.350769,0.1946259,0.3682976,0.4770164,0.0537529,0.847168       c-0.3145447,0.3701553-0.8662491,0.6711273-1.6559944,0.9039574c-0.7893066,0.2323151-1.6790352,0.359314-2.6710815,0.3804779       l-0.3882484,0.4568863H46.8334694z M49.3030319,49.3661232c-0.324234,0.0949898-0.5463104,0.213726-0.6665115,0.3551788       c-0.1206398,0.1419716-0.1198578,0.2534828,0.0010338,0.3360825c0.1197281,0.0825996,0.4156914,0.1621017,0.8860054,0.2379913       l0.9326668-1.0975533C50.0118103,49.214859,49.6272697,49.2711296,49.3030319,49.3661232z M49.9535599,52.1476898       c0.3492928-0.0970573,0.5876923-0.2199249,0.7136002-0.3680878c0.1254654-0.1476479,0.1206284-0.2653542-0.0153999-0.3520851       c-0.1376266-0.0862122-0.4598007-0.1677818-0.9669571-0.2441864l-0.9703979,1.1419487       C49.1902924,52.3041153,49.6026649,52.2452621,49.9535599,52.1476898z"/>
				</g>
				<g>
					<path fill="#3EA69B" d="M64.0414734,50.8315048c-0.2892532,0.3403854-1.1465034,0.6163216-1.9147263,0.6163216       s-1.1565094-0.2759361-0.86726-0.6163216s1.1464996-0.6163216,1.9147263-0.6163216       C63.9424362,50.2151833,64.330719,50.4911194,64.0414734,50.8315048z"/>
					<path fill="#3EA69B" d="M37.5056305,50.8315048c-0.2892494,0.3403854-1.1464996,0.6163216-1.9147224,0.6163216       s-1.1565094-0.2759361-0.86726-0.6163216s1.1465034-0.6163216,1.9147263-0.6163216       S37.7948837,50.4911194,37.5056305,50.8315048z"/>
				</g>
			</g>
			<rect x="25.5878677" y="55.9506454" fill="#3EA69B" width="38.8908157" height="3.679112"/>
			<polygon fill="#31978C" points="73.1769867,45.7125854 73.1769867,49.2828178 64.4786835,59.6297569 64.4786835,55.9506454         "/>
		</g>
		<g>
			<g>
				<polygon fill="#44C4A1" points="61.3891106,50.6083031 22.5000019,50.6083031 31.2000122,40.3702431 70.089119,40.3702431           "/>
				<path fill="#3EA69B" d="M32.35532,41.1910324l-7.3048496,8.5962563H60.234066l7.3048515-8.5962563H32.35532z       M60.1615562,48.4191132c-1.0232353,0-2.1650391,0.3675308-2.5503044,0.8209038H28.6033916      c0.3852654-0.453373-0.1319065-0.8209038-1.1551399-0.8209038l4.979578-5.8599052      c1.0232353,0,2.1650391-0.3675308,2.5503044-0.8209038h29.0078621c-0.3852654,0.453373,0.1319008,0.8209038,1.1551399,0.8209038      L60.1615562,48.4191132z"/>
				<g>
					<path fill="#3EA69B" d="M43.7456055,48.1186905l0.3935089-0.4630775       c-1.2580032-0.0593681-2.2368088-0.2896156-2.9343719-0.6917763l1.5140991-0.5518761       c0.5392761,0.3087196,1.2075844,0.4930229,2.0081253,0.5518761l1.0458527-1.2307472       c-0.9819679-0.11409-1.6447144-0.2638054-1.9873543-0.4501724c-0.3430824-0.1858521-0.3588829-0.4620438-0.0478477-0.8280678       c0.3105965-0.365509,0.852829-0.6649323,1.6281548-0.8972473c0.7757607-0.23283,1.6351967-0.3598289,2.5794716-0.3809929       l0.2693596-0.3169785h0.915802l-0.2750626,0.3236885c1.0212784,0.0335579,1.8788605,0.1925621,2.5740662,0.4754677       l-1.4271164,0.5838814c-0.461441-0.1987572-1.0386429-0.3216248-1.7343636-0.3680878l-1.0133896,1.192543h0.0431099       c1.0006142,0.1140938,1.6752815,0.2689667,2.0253258,0.4630775c0.350769,0.1946297,0.3683014,0.4770203,0.0537529,0.8471718       c-0.3145447,0.3701515-0.8662491,0.6711273-1.6559944,0.9039574c-0.7893066,0.2323151-1.6790352,0.3593102-2.6710815,0.3804779       l-0.3882446,0.4568825H43.7456055z M46.2151642,44.023777c-0.324234,0.0949898-0.5463066,0.2137299-0.6665115,0.3551826       c-0.1206398,0.1419678-0.1198578,0.253479,0.0010338,0.3360786c0.1197281,0.0826035,0.4156914,0.1621056,0.8860054,0.2379951       l0.9326668-1.0975533C46.9239464,43.8725166,46.539402,43.9287872,46.2151642,44.023777z M46.8656921,46.8053436       c0.3492928-0.0970535,0.5876961-0.2199211,0.7136002-0.3680878c0.1254654-0.1476479,0.1206284-0.2653503-0.0153961-0.3520813       c-0.1376305-0.086216-0.4598045-0.1677818-0.9669609-0.2441902l-0.9703979,1.1419525       C46.1024246,46.9617691,46.5147972,46.902916,46.8656921,46.8053436z"/>
				</g>
				<g>
					<path fill="#3EA69B" d="M60.9536018,45.4891586c-0.2892494,0.3403854-1.1464996,0.6163216-1.9147224,0.6163216       s-1.1565094-0.2759361-0.86726-0.6163216s1.1465034-0.6163216,1.9147263-0.6163216       S61.2428513,45.1487732,60.9536018,45.4891586z"/>
					<path fill="#3EA69B" d="M34.4177666,45.4891586c-0.2892494,0.3403854-1.1465034,0.6163216-1.9147263,0.6163216       s-1.1565075-0.2759361-0.8672581-0.6163216s1.1465015-0.6163216,1.9147243-0.6163216       S34.707016,45.1487732,34.4177666,45.4891586z"/>
				</g>
			</g>
			<rect x="22.5000019" y="50.6083031" fill="#3EA69B" width="38.8908157" height="3.679112"/>
			<polygon fill="#31978C" points="70.089119,40.3702431 70.089119,43.9404755 61.3908157,54.2874146 61.3908157,50.6083031    "/>
		</g>
		<g>
			<g>
				<polygon fill="#44C4A1" points="68.7999878,45.2659569 29.9108829,45.2659569 38.6108932,35.0278969 77.5,35.0278969     "/>
				<path fill="#3EA69B" d="M39.766201,35.84869l-7.3048515,8.5962524h35.1835938l7.3048553-8.5962524H39.766201z       M67.5724335,43.076767c-1.0232315,0-2.1650314,0.3675308-2.5503006,0.8209076H36.0142708      c0.3852654-0.4533768-0.1319046-0.8209076-1.1551361-0.8209076l4.9795761-5.8599014      c1.0232353,0,2.1650391-0.3675308,2.5503044-0.8209076h29.0078583      c-0.3852615,0.4533768,0.1319046,0.8209076,1.1551437,0.8209076L67.5724335,43.076767z"/>
				<g>
					<path fill="#3EA69B" d="M51.1564865,42.7763481l0.3935089-0.4630775       c-1.2580032-0.0593719-2.2368088-0.2896194-2.9343719-0.6917801l1.5140991-0.5518723       c0.5392761,0.3087196,1.2075844,0.4930191,2.0081253,0.5518723l1.0458527-1.2307434       c-0.9819679-0.1140938-1.6447144-0.2638054-1.9873543-0.4501724c-0.3430824-0.1858521-0.3588829-0.4620476-0.0478477-0.8280716       c0.3105965-0.3655052,0.852829-0.6649323,1.6281548-0.8972435c0.7757607-0.23283,1.6351967-0.3598289,2.5794716-0.3809967       l0.2693596-0.3169785h0.915802l-0.2750626,0.3236923c1.0212784,0.0335541,1.8788605,0.1925621,2.5740662,0.4754677       l-1.4271164,0.5838814c-0.461441-0.1987572-1.0386429-0.3216248-1.7343636-0.3680878l-1.0133896,1.192543h0.0431099       c1.0006142,0.11409,1.6752815,0.2689667,2.0253258,0.4630775c0.350769,0.1946259,0.3683014,0.4770164,0.0537529,0.847168       c-0.3145447,0.3701553-0.8662491,0.6711311-1.6559944,0.9039612c-0.7893066,0.2323112-1.6790352,0.3593102-2.6710815,0.3804779       l-0.3882446,0.4568825H51.1564865z M53.6260452,38.6814346c-0.324234,0.0949898-0.5463066,0.213726-0.6665115,0.3551826       c-0.1206398,0.1419678-0.1198578,0.253479,0.0010338,0.3360786c0.1197281,0.0825996,0.4156914,0.1621017,0.8860054,0.2379913       l0.9326668-1.0975533C54.3348274,38.5301704,53.9502831,38.5864449,53.6260452,38.6814346z M54.2765732,41.4630013       c0.3492928-0.0970535,0.5876961-0.2199249,0.7136002-0.3680878c0.1254654-0.1476479,0.1206284-0.2653542-0.0153961-0.3520851       c-0.1376305-0.0862122-0.4598045-0.1677818-0.9669609-0.2441864l-0.9703979,1.1419487       C53.5133057,41.6194267,53.9256783,41.5605736,54.2765732,41.4630013z"/>
				</g>
				<g>
					<path fill="#3EA69B" d="M68.3644867,40.1468163c-0.2892532,0.3403854-1.1464996,0.6163216-1.9147263,0.6163216       s-1.1565094-0.2759361-0.8672562-0.6163216c0.2892456-0.3403854,1.1464996-0.6163216,1.9147186-0.6163216       C68.2654495,39.5304947,68.6537323,39.8064308,68.3644867,40.1468163z"/>
					<path fill="#3EA69B" d="M41.8286476,40.1468163c-0.2892494,0.3403854-1.1465034,0.6163216-1.9147263,0.6163216       s-1.1565094-0.2759361-0.86726-0.6163216c0.2892532-0.3403854,1.1465034-0.6163216,1.9147263-0.6163216       S42.117897,39.8064308,41.8286476,40.1468163z"/>
				</g>
			</g>
			<rect x="29.9108829" y="45.2659569" fill="#3EA69B" width="38.8908157" height="3.679112"/>
			<polygon fill="#31978C" points="77.5,35.0278969 77.5,38.5981331 68.8016968,48.9450722 68.8016968,45.2659569    "/>
		</g>
	</g>
</g>
</svg>
