<?xml version="1.0" encoding="utf-8"?>
<!-- Generator: Adobe Illustrator 21.0.2, SVG Export Plug-In . SVG Version: 6.00 Build 0)  -->
<svg xmlns="http://www.w3.org/2000/svg" xmlns:xlink="http://www.w3.org/1999/xlink" version="1.1" id="Layer_1" x="0px" y="0px" viewBox="0 0 100 100" enable-background="new 0 0 100 100" xml:space="preserve" width="512" height="512">
<g>
	<circle fill="#EFC84A" cx="50" cy="50" r="48"/>
	<path opacity="0.1" d="M97.953186,51.8531494L77.5,31.3999634h-55v37.2000122L51.8531494,97.953125   C76.8868408,97.0014648,97.0014648,76.8868408,97.953186,51.8531494z"/>
	<g>
		<g>
			<g>
				<rect x="22.5000019" y="31.3970585" fill="#FFFFFF" width="55" height="37.205883"/>
			</g>
			<g>
				<g>
					<polygon fill="#27A2DB" points="76.7781677,33.3603096 75.4788284,33.3603096 76.2006607,31.3970585 77.5,31.3970585      "/>
				</g>
				<g>
					<polygon fill="#E56353" points="73.9898071,33.3603096 72.6904678,33.3603096 73.4123077,31.3970585 74.7116394,31.3970585             "/>
				</g>
				<g>
					<polygon fill="#27A2DB" points="71.2014465,33.3603096 69.9021072,33.3603096 70.6239471,31.3970585 71.9232788,31.3970585             "/>
				</g>
				<g>
					<polygon fill="#E56353" points="68.4130859,33.3603096 67.1137543,33.3603096 67.8355865,31.3970585 69.1349258,31.3970585             "/>
				</g>
				<g>
					<polygon fill="#27A2DB" points="65.6247253,33.3603096 64.3253937,33.3603096 65.047226,31.3970585 66.3465652,31.3970585             "/>
				</g>
				<g>
					<polygon fill="#E56353" points="62.8363686,33.3603096 61.5370331,33.3603096 62.2588654,31.3970585 63.5582047,31.3970585             "/>
				</g>
				<g>
					<polygon fill="#27A2DB" points="60.0480118,33.3603096 58.7486725,33.3603096 59.4705086,31.3970585 60.7698441,31.3970585             "/>
				</g>
				<g>
					<polygon fill="#E56353" points="57.2596512,33.3603096 55.9603119,33.3603096 56.682148,31.3970585 57.9814873,31.3970585             "/>
				</g>
				<g>
					<polygon fill="#27A2DB" points="54.4712906,33.3603096 53.1719551,33.3603096 53.8937874,31.3970585 55.1931267,31.3970585             "/>
				</g>
				<g>
					<polygon fill="#E56353" points="51.6829338,33.3603096 50.3835945,33.3603096 51.1054306,31.3970585 52.4047661,31.3970585             "/>
				</g>
				<g>
					<polygon fill="#27A2DB" points="48.8945732,33.3603096 47.5952339,33.3603096 48.31707,31.3970585 49.6164093,31.3970585             "/>
				</g>
				<g>
					<polygon fill="#E56353" points="46.1062126,33.3603096 44.8068771,33.3603096 45.5287094,31.3970585 46.8280487,31.3970585             "/>
				</g>
				<g>
					<polygon fill="#27A2DB" points="43.3178558,33.3603096 42.0185165,33.3603096 42.7403526,31.3970585 44.0396881,31.3970585             "/>
				</g>
				<g>
					<polygon fill="#E56353" points="40.5294952,33.3603096 39.2301559,33.3603096 39.951992,31.3970585 41.2513313,31.3970585             "/>
				</g>
				<g>
					<polygon fill="#27A2DB" points="37.7411346,33.3603096 36.4417992,33.3603096 37.1636314,31.3970585 38.4629707,31.3970585             "/>
				</g>
				<g>
					<polygon fill="#E56353" points="34.9527779,33.3603096 33.6534386,33.3603096 34.3752747,31.3970585 35.6746101,31.3970585             "/>
				</g>
				<g>
					<polygon fill="#27A2DB" points="32.1644173,33.3603096 30.8650799,33.3603096 31.5869141,31.3970585 32.8862534,31.3970585             "/>
				</g>
				<g>
					<polygon fill="#E56353" points="29.3760567,33.3603096 28.0767193,33.3603096 28.7985554,31.3970585 30.0978928,31.3970585             "/>
				</g>
				<g>
					<polygon fill="#27A2DB" points="26.587698,33.3603096 25.2883606,33.3603096 26.0101948,31.3970585 27.3095322,31.3970585             "/>
				</g>
				<g>
					<polygon fill="#E56353" points="23.7993393,33.3603096 22.5000019,33.3603096 23.2218361,31.3970585 24.5211735,31.3970585             "/>
				</g>
			</g>
			<g>
				<g>
					<polygon fill="#27A2DB" points="76.7781677,68.6029434 75.4788284,68.6029434 76.2006607,66.6396866 77.5,66.6396866      "/>
				</g>
				<g>
					<polygon fill="#E56353" points="73.9898071,68.6029434 72.6904678,68.6029434 73.4123077,66.6396866 74.7116394,66.6396866             "/>
				</g>
				<g>
					<polygon fill="#27A2DB" points="71.2014465,68.6029434 69.9021072,68.6029434 70.6239471,66.6396866 71.9232788,66.6396866             "/>
				</g>
				<g>
					<polygon fill="#E56353" points="68.4130859,68.6029434 67.1137543,68.6029434 67.8355865,66.6396866 69.1349258,66.6396866             "/>
				</g>
				<g>
					<polygon fill="#27A2DB" points="65.6247253,68.6029434 64.3253937,68.6029434 65.047226,66.6396866 66.3465652,66.6396866             "/>
				</g>
				<g>
					<polygon fill="#E56353" points="62.8363686,68.6029434 61.5370331,68.6029434 62.2588654,66.6396866 63.5582047,66.6396866             "/>
				</g>
				<g>
					<polygon fill="#27A2DB" points="60.0480118,68.6029434 58.7486725,68.6029434 59.4705086,66.6396866 60.7698441,66.6396866             "/>
				</g>
				<g>
					<polygon fill="#E56353" points="57.2596512,68.6029434 55.9603119,68.6029434 56.682148,66.6396866 57.9814873,66.6396866             "/>
				</g>
				<g>
					<polygon fill="#27A2DB" points="54.4712906,68.6029434 53.1719551,68.6029434 53.8937874,66.6396866 55.1931267,66.6396866             "/>
				</g>
				<g>
					<polygon fill="#E56353" points="51.6829338,68.6029434 50.3835945,68.6029434 51.1054306,66.6396866 52.4047661,66.6396866             "/>
				</g>
				<g>
					<polygon fill="#27A2DB" points="48.8945732,68.6029434 47.5952339,68.6029434 48.31707,66.6396866 49.6164093,66.6396866             "/>
				</g>
				<g>
					<polygon fill="#E56353" points="46.1062126,68.6029434 44.8068771,68.6029434 45.5287094,66.6396866 46.8280487,66.6396866             "/>
				</g>
				<g>
					<polygon fill="#27A2DB" points="43.3178558,68.6029434 42.0185165,68.6029434 42.7403526,66.6396866 44.0396881,66.6396866             "/>
				</g>
				<g>
					<polygon fill="#E56353" points="40.5294952,68.6029434 39.2301559,68.6029434 39.951992,66.6396866 41.2513313,66.6396866             "/>
				</g>
				<g>
					<polygon fill="#27A2DB" points="37.7411346,68.6029434 36.4417992,68.6029434 37.1636314,66.6396866 38.4629707,66.6396866             "/>
				</g>
				<g>
					<polygon fill="#E56353" points="34.9527779,68.6029434 33.6534386,68.6029434 34.3752747,66.6396866 35.6746101,66.6396866             "/>
				</g>
				<g>
					<polygon fill="#27A2DB" points="32.1644173,68.6029434 30.8650799,68.6029434 31.5869141,66.6396866 32.8862534,66.6396866             "/>
				</g>
				<g>
					<polygon fill="#E56353" points="29.3760567,68.6029434 28.0767193,68.6029434 28.7985554,66.6396866 30.0978928,66.6396866             "/>
				</g>
				<g>
					<polygon fill="#27A2DB" points="26.587698,68.6029434 25.2883606,68.6029434 26.0101948,66.6396866 27.3095322,66.6396866             "/>
				</g>
				<g>
					<polygon fill="#E56353" points="23.7993393,68.6029434 22.5000019,68.6029434 23.2218361,66.6396866 24.5211735,66.6396866             "/>
				</g>
			</g>
			<g>
				<g>
					<polygon fill="#27A2DB" points="77.5,34.0792084 77.5,35.3785439 75.5367508,34.6567116 75.5367508,33.3573723      "/>
				</g>
				<g>
					<polygon fill="#E56353" points="77.5,36.867569 77.5,38.1669044 75.5367508,37.4450684 75.5367508,36.1457329      "/>
				</g>
				<g>
					<polygon fill="#27A2DB" points="77.5,39.6559258 77.5,40.955265 75.5367508,40.233429 75.5367508,38.9340897      "/>
				</g>
				<g>
					<polygon fill="#E56353" points="77.5,42.4442863 77.5,43.7436218 75.5367508,43.0217896 75.5367508,41.7224503      "/>
				</g>
				<g>
					<polygon fill="#27A2DB" points="77.5,45.2326469 77.5,46.5319824 75.5367508,45.8101463 75.5367508,44.5108109      "/>
				</g>
				<g>
					<polygon fill="#E56353" points="77.5,48.0210037 77.5,49.320343 75.5367508,48.5985069 75.5367508,47.2991676      "/>
				</g>
				<g>
					<polygon fill="#27A2DB" points="77.5,50.8093643 77.5,52.1086998 75.5367508,51.3868675 75.5367508,50.0875282      "/>
				</g>
				<g>
					<polygon fill="#E56353" points="77.5,53.5977249 77.5,54.8970604 75.5367508,54.1752243 75.5367508,52.8758888      "/>
				</g>
				<g>
					<polygon fill="#27A2DB" points="77.5,56.3860817 77.5,57.685421 75.5367508,56.9635849 75.5367508,55.6642494      "/>
				</g>
				<g>
					<polygon fill="#E56353" points="77.5,59.1744423 77.5,60.4737778 75.5367508,59.7519455 75.5367508,58.4526062      "/>
				</g>
				<g>
					<polygon fill="#27A2DB" points="77.5,61.9628029 77.5,63.2621384 75.5367508,62.5403023 75.5367508,61.2409668      "/>
				</g>
				<g>
					<polygon fill="#E56353" points="77.5,64.7511597 77.5,66.050499 75.5367508,65.3286667 75.5367508,64.0293274      "/>
				</g>
			</g>
			<g>
				<g>
					<polygon fill="#27A2DB" points="22.5000019,34.0792084 22.5000019,35.3785439 24.463253,34.6567116 24.463253,33.3573723             "/>
				</g>
				<g>
					<polygon fill="#E56353" points="22.5000019,36.867569 22.5000019,38.1669044 24.463253,37.4450684 24.463253,36.1457329             "/>
				</g>
				<g>
					<polygon fill="#27A2DB" points="22.5000019,39.6559258 22.5000019,40.955265 24.463253,40.233429 24.463253,38.9340897             "/>
				</g>
				<g>
					<polygon fill="#E56353" points="22.5000019,42.4442863 22.5000019,43.7436218 24.463253,43.0217896 24.463253,41.7224503             "/>
				</g>
				<g>
					<polygon fill="#27A2DB" points="22.5000019,45.2326469 22.5000019,46.5319824 24.463253,45.8101463 24.463253,44.5108109             "/>
				</g>
				<g>
					<polygon fill="#E56353" points="22.5000019,48.0210037 22.5000019,49.320343 24.463253,48.5985069 24.463253,47.2991676             "/>
				</g>
				<g>
					<polygon fill="#27A2DB" points="22.5000019,50.8093643 22.5000019,52.1086998 24.463253,51.3868675 24.463253,50.0875282             "/>
				</g>
				<g>
					<polygon fill="#E56353" points="22.5000019,53.5977249 22.5000019,54.8970604 24.463253,54.1752243 24.463253,52.8758888             "/>
				</g>
				<g>
					<polygon fill="#27A2DB" points="22.5000019,56.3860817 22.5000019,57.685421 24.463253,56.9635849 24.463253,55.6642494             "/>
				</g>
				<g>
					<polygon fill="#E56353" points="22.5000019,59.1744423 22.5000019,60.4737778 24.463253,59.7519455 24.463253,58.4526062             "/>
				</g>
				<g>
					<polygon fill="#27A2DB" points="22.5000019,61.9628029 22.5000019,63.2621384 24.463253,62.5403023 24.463253,61.2409668             "/>
				</g>
				<g>
					<polygon fill="#E56353" points="22.5000019,64.7511597 22.5000019,66.050499 24.463253,65.3286667 24.463253,64.0293274             "/>
				</g>
			</g>
		</g>
		<g>
			<g>
				<rect x="26.9080296" y="36.4061584" fill="#27A2DB" width="8.9580078" height="1.5"/>
			</g>
			<g>
				<rect x="26.9080296" y="40.2054749" fill="#64798A" width="10.7109375" height="1.5"/>
			</g>
			<g>
				<rect x="26.9080296" y="44.004303" fill="#64798A" width="17.9150391" height="1.5"/>
			</g>
		</g>
		<g>
			<g>
				<rect x="54.601387" y="55.6815491" fill="#E56353" width="14.8916016" height="1.5"/>
			</g>
			<g>
				<rect x="54.601387" y="59.4803772" fill="#64798A" width="10.7109375" height="1.5"/>
			</g>
			<g>
				<rect x="54.601387" y="63.2792053" fill="#64798A" width="17.9140625" height="1.5"/>
			</g>
		</g>
		<g>
			<path fill="#44C4A1" d="M72.3137436,36.4103889v-0.5604095h-0.3208694c0,0.531601-0.4310074,0.9625587-0.9626083,0.9625587     c-0.531395,0-0.9624023-0.4309578-0.9624023-0.9625587c0,0.531601-0.431015,0.9625587-0.962616,0.9625587     s-0.9624023-0.4309578-0.9624023-0.9625587c0,0.531601-0.4310074,0.9625587-0.9626083,0.9625587     s-0.962616-0.4309578-0.962616-0.9625587c0,0.531601-0.4307938,0.9625587-0.9623947,0.9625587     c-0.5316086,0-0.962616-0.4309578-0.962616-0.9625587c0,0.531601-0.4310112,0.9625587-0.9624023,0.9625587     c-0.531601,0-0.9626122-0.4309578-0.9626122-0.9625587h-0.3208694v0.5604095c0.531601,0,0.9626122,0.3840065,0.9626122,0.8577271     c0,0.4736633-0.4310112,0.8576698-0.9626122,0.8576698c0.531601,0,0.9626122,0.3840065,0.9626122,0.8576736     c0,0.4736633-0.4310112,0.8576698-0.9626122,0.8576698c0.531601,0,0.9626122,0.3840065,0.9626122,0.8576736     c0,0.4737167-0.4310112,0.8576698-0.9626122,0.8576698c0.531601,0,0.9626122,0.3840065,0.9626122,0.8576736     c0,0.4737167-0.4310112,0.8577232-0.9626122,0.8577232c0.531601,0,0.9626122,0.3839531,0.9626122,0.8576736     c0,0.4736671-0.4310112,0.8576698-0.9626122,0.8576698c0.531601,0,0.9626122,0.3840065,0.9626122,0.8576736     s-0.4310112,0.8576698-0.9626122,0.8576698c0.531601,0,0.9626122,0.3840065,0.9626122,0.8576736     c0,0.4737206-0.4310112,0.8576698-0.9626122,0.8576698v0.560463h0.3208694c0-0.531601,0.4310112-0.9625587,0.9626122-0.9625587     c0.5313911,0,0.9624023,0.4309578,0.9624023,0.9625587c0-0.531601,0.4310074-0.9625587,0.962616-0.9625587     c0.531601,0,0.9623947,0.4309578,0.9623947,0.9625587c0-0.531601,0.431015-0.9625587,0.962616-0.9625587     s0.9626083,0.4309578,0.9626083,0.9625587c0-0.531601,0.4308014-0.9625587,0.9624023-0.9625587     s0.962616,0.4309578,0.962616,0.9625587c0-0.531601,0.4310074-0.9625587,0.9624023-0.9625587     c0.531601,0,0.9626083,0.4309578,0.9626083,0.9625587h0.3208694v-0.560463c-0.531601,0-0.9626083-0.3839493-0.9626083-0.8576698     c0-0.4736671,0.4310074-0.8576736,0.9626083-0.8576736c-0.531601,0-0.9626083-0.3840027-0.9626083-0.8576698     s0.4310074-0.8576736,0.9626083-0.8576736c-0.531601,0-0.9626083-0.3840027-0.9626083-0.8576698     c0-0.4737206,0.4310074-0.8576736,0.9626083-0.8576736c-0.531601,0-0.9626083-0.3840065-0.9626083-0.8577232     c0-0.4736671,0.4310074-0.8576736,0.9626083-0.8576736c-0.531601,0-0.9626083-0.3839531-0.9626083-0.8576698     c0-0.4736671,0.4310074-0.8576736,0.9626083-0.8576736c-0.531601,0-0.9626083-0.3840065-0.9626083-0.8576698     c0-0.4736671,0.4310074-0.8576736,0.9626083-0.8576736c-0.531601,0-0.9626083-0.3840065-0.9626083-0.8576698     C71.3511353,36.7943954,71.7821426,36.4103889,72.3137436,36.4103889z"/>
		</g>
	</g>
</g>
</svg>
