<?xml version="1.0" encoding="utf-8"?>
<!-- Generator: Adobe Illustrator 21.0.2, SVG Export Plug-In . SVG Version: 6.00 Build 0)  -->
<svg xmlns="http://www.w3.org/2000/svg" xmlns:xlink="http://www.w3.org/1999/xlink" version="1.1" id="Layer_1" x="0px" y="0px" viewBox="0 0 100 100" enable-background="new 0 0 100 100" xml:space="preserve" width="512" height="512">
<g>
	<circle fill="#E05B49" cx="50" cy="50" r="48"/>
	<path opacity="0.1" d="M98,50c0-1.2376099-0.0620117-2.4599609-0.1540527-3.6740112L76.8300781,25.3099976   c-0.4300537-0.4500122-1.0400391-0.7300415-1.710083-0.7300415H24.8800049c-1.3099365,0-2.3800049,1.0600586-2.3800049,2.3800049   V58.289978c0,0.6799927,0.2800293,1.289978,0.7399902,1.7200317L60.145752,96.9158325C81.7810059,92.258606,98,73.0274658,98,50z"/>
	<g>
		<path fill="#44C4A1" d="M63.3145752,45.0552979c6.1057129,0,11.4294434,3.4003906,14.1854248,8.4046021V26.958313    c0-1.3162842-1.0670166-2.3833008-2.3833008-2.3833008H24.8831787c-1.3161621,0-2.3831787,1.0670166-2.3831787,2.3833008    V58.291748c0,1.3162231,1.0670166,2.3832397,2.3831787,2.3832397h22.2753906    C47.4598389,52.013916,54.5814209,45.0552979,63.3145752,45.0552979z"/>
		<path fill="#FCD462" d="M33.3387451,31.2466431h-5.6669922c-0.5574951,0-1.0095215,0.4520264-1.0095215,1.0096436v5.6669922    c0,0.5575562,0.4520264,1.0095825,1.0095215,1.0095825h5.6669922c0.5576172,0,1.0097656-0.4520264,1.0097656-1.0095825v-5.6669922    C34.3485107,31.6986694,33.8963623,31.2466431,33.3387451,31.2466431z"/>
		<rect x="26.6622314" y="42.625" fill="#EBF0F3" width="16.414669" height="2.042057"/>
		<rect x="26.6622314" y="48.853241" fill="#EBF0F3" width="20.1926537" height="2.042057"/>
		<rect x="26.6622314" y="55.0413208" fill="#3A556A" width="8.2073345" height="2.042057"/>
		<rect x="39.2338028" y="55.0413208" fill="#3A556A" width="8.2073345" height="2.042057"/>
		<rect x="51.8053703" y="55.0413208" fill="#3A556A" width="8.2073345" height="2.042057"/>
		<rect x="64.3769455" y="55.0413208" fill="#3A556A" width="8.2073345" height="2.042057"/>
		<circle fill="#FCD462" cx="70.6464157" cy="31.7351894" r="4.3805084"/>
		<circle fill="#EBF0F3" cx="64.6766891" cy="31.7351894" r="4.3805084"/>
		<path fill="#3EA69B" d="M77.5,58.291748v-4.8318481c-2.7559814-5.0042114-8.0797119-8.4046021-14.1854248-8.4046021    c-8.7331543,0-15.8547363,6.9586182-16.1560059,15.6196899h27.9581299C76.4329834,60.6749878,77.5,59.6079712,77.5,58.291748z"/>
		<circle fill="#EBF0F3" cx="63.3150024" cy="61.2399902" r="14.1849976"/>
		<g>
			<path fill="#64798A" d="M71.406517,53.2405396v8.7177353c0,0-0.7733994,7.7600479-8.0916634,9.6264114     c-7.3179626-1.8663635-8.0913658-9.6264114-8.0913658-9.6264114v-8.7177353     c6.0532341,0.4788818,8.0913658-2.3452415,8.0913658-2.3452415S65.3532791,53.7194214,71.406517,53.2405396z"/>
			<path fill="#FFFFFF" d="M62.7383957,60.9670868v-6.5816536c-1.195179,0.626442-2.8466034,1.1869354-5.0588989,1.3302994     v5.2513542H62.7383957z"/>
			<path fill="#E56353" d="M63.8919067,60.9670868h5.0589066v-5.2513542     c-2.2122955-0.143364-3.8637238-0.7038574-5.0589066-1.3302994V60.9670868z"/>
			<path fill="#FFFFFF" d="M63.8919067,62.1205978v6.6767578c3.7603073-1.592598,4.7729263-5.4215469,5.0061417-6.6767578     H63.8919067z"/>
			<path fill="#E56353" d="M62.7383957,62.1205978h-5.0055428c0.2368202,1.2719231,1.253334,5.0872345,5.0055428,6.6768341     V62.1205978z"/>
		</g>
	</g>
</g>
</svg>
