<?xml version="1.0" encoding="utf-8"?>
<!-- Generator: Adobe Illustrator 21.0.2, SVG Export Plug-In . SVG Version: 6.00 Build 0)  -->
<svg xmlns="http://www.w3.org/2000/svg" xmlns:xlink="http://www.w3.org/1999/xlink" version="1.1" id="Layer_1" x="0px" y="0px" viewBox="0 0 100 100" enable-background="new 0 0 100 100" xml:space="preserve" width="512" height="512">
<g>
	<circle fill="#EA8953" cx="50" cy="50" r="48"/>
	<path opacity="0.1" d="M25.5,22.4991226c0,1.6600342-1.3400269,3-3,3v30.6201172l40.1763916,40.1762695   C83.0325928,90.7339859,98,72.1199722,98,49.9999771c0-1.4144287-0.0736694-2.8110352-0.1935425-4.194458L74.5,22.4991226H25.5z"/>
	<g>
		<g>
			<path fill="#D5D6DB" d="M56.6585541,43.0393677c-1.3480835,1.7155342-1.8836479,3.9324341-1.4673882,6.0741806     l3.1268501,16.0883408l2.5515518-0.4959106L56.6585541,43.0393677z"/>
			<path fill="#3A556A" d="M64.2834778,77.4431458c1.667511-0.3240891,2.7601547-1.946106,2.4360657-3.6136169l-0.2236099-1.1505203     c-0.4222717-2.1726761-2.532917-3.5963974-4.7038956-3.1744614l-0.2500381,0.0485992l-0.7120972-5.0531158     c-0.1165504-0.7259865-0.8105888-1.2117691-1.5319977-1.0715599s-1.1846542,0.8509178-1.019104,1.567379l2.3586044,9.8351822     l0.0338211,0.1740189C60.9953156,76.6725616,62.6159592,77.7672348,64.2834778,77.4431458z M63.9551239,75.7536697     c-0.7366219,0.1431656-1.4512596-0.3403702-1.5944214-1.076973l-0.0338211-0.1740189l-0.5156631-3.2485657l0.3091774-0.0600891     c1.240078-0.2410126,2.4447136,0.5715637,2.6860619,1.8133469l0.2236099,1.1505203     C65.173233,74.8945007,64.6917267,75.6105042,63.9551239,75.7536697z"/>
		</g>
		<g>
			<path fill="#F6C358" d="M25.5,22.4999981c0,1.6568604-1.3431396,3-3,3v30.6175556c1.6568604,0,3,1.3431396,3,3h34.2641602     V22.4999981H25.5z"/>
			<path fill="#31978C" d="M74.5,22.4999981H59.7641602v36.6175537H74.5c0-1.6568604,1.3432617-3,3-3V25.4999981     C75.8432617,25.4999981,74.5,24.1568584,74.5,22.4999981z"/>
			<path fill="#FCD462" d="M27.6943359,25.4996929C27.1679688,26.4088726,26.4091797,27.1676617,25.5,27.6940289v26.2294941     c0.9091797,0.5263672,1.6679688,1.2851563,2.1943359,2.1943359h32.0698242v-30.618166H27.6943359z"/>
			<path fill="#44C4A1" d="M72.3056641,25.4996929H59.7641602v30.618166h12.5415039     c0.5263672-0.9091797,1.2851563-1.6679688,2.1943359-2.1943359V27.6940289     C73.5908203,27.1676617,72.8320313,26.4088726,72.3056641,25.4996929z"/>
			<circle fill="#FFFFFF" cx="59.7951965" cy="22.9669514" r="0.3992735"/>
			<circle fill="#FFFFFF" cx="59.7951965" cy="25.0659904" r="0.3992735"/>
			<circle fill="#FFFFFF" cx="59.7951965" cy="27.1650276" r="0.3992735"/>
			<circle fill="#FFFFFF" cx="59.7951965" cy="29.2640667" r="0.3992735"/>
			<circle fill="#FFFFFF" cx="59.7951965" cy="31.3631039" r="0.3992735"/>
			<circle fill="#FFFFFF" cx="59.7951965" cy="33.4621429" r="0.3992735"/>
			<circle fill="#FFFFFF" cx="59.7951965" cy="35.5611801" r="0.3992735"/>
			<circle fill="#FFFFFF" cx="59.7951965" cy="37.6602173" r="0.3992735"/>
			<circle fill="#FFFFFF" cx="59.7951965" cy="39.7592583" r="0.3992735"/>
			<circle fill="#FFFFFF" cx="59.7951965" cy="41.8582954" r="0.3992735"/>
			<circle fill="#FFFFFF" cx="59.7951965" cy="43.9573326" r="0.3992735"/>
			<circle fill="#FFFFFF" cx="59.7951965" cy="46.0563698" r="0.3992735"/>
			<circle fill="#FFFFFF" cx="59.7951965" cy="48.1554108" r="0.3992735"/>
			<circle fill="#FFFFFF" cx="59.7951965" cy="50.2544479" r="0.3992735"/>
			<circle fill="#FFFFFF" cx="59.7951965" cy="52.3534851" r="0.3992735"/>
			<circle fill="#FFFFFF" cx="59.7951965" cy="54.4525223" r="0.3992735"/>
			<circle fill="#FFFFFF" cx="59.7951965" cy="56.5515633" r="0.3992735"/>
			<circle fill="#FFFFFF" cx="59.7951965" cy="58.6506004" r="0.3992735"/>
			<rect x="65.6377411" y="29.8536053" fill="#FFFFFF" width="2.2208269" height="21.9103413"/>
			<rect x="27.0412998" y="28.8647919" fill="#E56353" width="23.0506496" height="3.4162779"/>
			<rect x="27.0412998" y="35.9520798" fill="#64798A" width="29.789711" height="1.7081389"/>
			<rect x="27.0412998" y="41.3312263" fill="#64798A" width="29.789711" height="1.7081389"/>
			<rect x="27.0412998" y="46.7103767" fill="#64798A" width="29.789711" height="1.7081389"/>
		</g>
		<g>
			<path fill="#EBF0F3" d="M64.1445694,43.3320808c1.2053986,1.8186264,1.5605087,4.0714836,0.9729538,6.1727028     l-4.41362,15.7839127l-2.503273-0.6999817L64.1445694,43.3320808z"/>
			<path fill="#64798A" d="M57.5680809,74.8702545l0.0477409-0.1707306l3.1437798-9.6130371     c0.2227669-0.7007828-0.1816788-1.4465218-0.8894386-1.6444283c-0.707756-0.1979103-1.4386978,0.2303429-1.6133919,0.9445686     l-1.1171265,4.9792633l-0.2453079-0.0685883c-2.1299019-0.5955811-4.3484459,0.6533585-4.9444923,2.7849274l-0.3156319,1.1287537     c-0.4574585,1.6359558,0.5008736,3.3407745,2.1368294,3.798233     C55.4070091,77.4666748,57.1106224,76.5062103,57.5680809,74.8702545z M53.2917175,73.674469l0.3156319-1.1287537     c0.3406639-1.2182846,1.6068878-1.9311066,2.8235016-1.5909119l0.3033257,0.084816l-0.7758598,3.1964264l-0.0477409,0.170723     c-0.2020798,0.7226715-0.953373,1.1470184-1.6760521,0.9449387     C53.5118561,75.1496277,53.0896416,74.3971329,53.2917175,73.674469z"/>
		</g>
		<g>
			
				<ellipse transform="matrix(0.1469787 -0.9891397 0.9891397 0.1469787 -13.2325373 114.0708771)" fill="#2F4859" cx="59.5204353" cy="64.7074814" rx="0.9295098" ry="0.9295098"/>
			<path fill="#3A556A" d="M60.4398384,64.8441544c0.0065041-0.0437775,0.0057487-0.0866013,0.0061111-0.1295624     l-1.8130913-0.2694168c-0.0121498,0.0412216-0.025322,0.0819702-0.031826,0.1257477     c-0.0064812,0.0436172-0.0057259,0.086441-0.0060883,0.1294098l1.8130913,0.2694092     C60.4201851,64.9285278,60.4333572,64.8877792,60.4398384,64.8441544z"/>
		</g>
	</g>
</g>
</svg>
