<?xml version="1.0" encoding="utf-8"?>
<!-- Generator: Adobe Illustrator 21.0.2, SVG Export Plug-In . SVG Version: 6.00 Build 0)  -->
<svg xmlns="http://www.w3.org/2000/svg" xmlns:xlink="http://www.w3.org/1999/xlink" version="1.1" id="Layer_1" x="0px" y="0px" viewBox="0 0 100 100" enable-background="new 0 0 100 100" xml:space="preserve" width="512" height="512">
<g>
	<circle fill="#45B39C" cx="50" cy="50" r="48"/>
	<path opacity="0.1" d="M97.2097168,58.6387711L74.5300293,35.9592056   c-3.6700439-4.6800537-10.4599609-7.2301025-18.6000977-8.0300293l-0.9699707-0.9699707   c0-0.6700439-2.2199707-1.2000732-4.9599609-1.2000732s-4.9599609,0.5300293-4.9599609,1.2000732   c0,0.0999756,0.0500488,0.1800537,0.1298828,0.25h0.0100098L45.75,27.7891617   C32.5800781,28.6591568,22.5,33.7691422,22.5,44.7691422v17.0800781c0,0.0400391,0.0400391,0.0699463,0.0800781,0.0699463   L22.5,61.9690933l3.8699951,10.880127c0.0899658,0.25,0.2299805,0.4799805,0.4200439,0.6499023l-0.0100098,0.0100098   L51.2456055,97.968483C74.244873,97.3808365,93.2113037,80.6260757,97.2097168,58.6387711z"/>
	<g>
		<path fill="#DC8744" d="M77.5,61.9663277l-3.8692322,10.8829765c-0.4250107,1.1954346-2.1164703,1.7532806-3.466835,1.1466446    c-3.1536179-1.4166489-9.4577942-3.3819351-20.163929-3.3819351s-17.0103149,1.9652863-20.1639347,3.3819351    c-1.3503628,0.606636-3.0418186,0.04879-3.466835-1.1466446l-3.8692322-10.8829765l21.5228062-10.1093636l27.1335945,5.5569611    L77.5,61.9663277z"/>
		<path fill="#FCD462" d="M49.6173706,27.6449966c-15.0014915,0.0839062-27.1173687,5.0696068-27.1173687,17.1254501v17.081295    c0,0.052578,0.069315,0.085537,0.1273766,0.061306c18.2484646-7.6156731,36.4967804-7.6157303,54.7452469,0    C77.430687,61.9372787,77.5,61.9043198,77.5,61.8517418V44.9392967C77.5,32.6316376,64.9804611,27.5590668,49.6173706,27.6449966z    "/>
		<path fill="#F6C358" d="M50,27.651022c-0.0778389,0-0.1533203-0.0039806-0.2311592-0.003685    c-7.3299179,0.1036396-13.2439728,5.0915813-13.2439728,17.1231403v12.8201294    C41.0165787,56.6677361,45.5082893,56.2012863,50,56.2012863s8.9834251,0.4664497,13.4751358,1.3893204v-12.651329    C63.4751358,32.7350845,57.4413719,27.651907,50,27.651022z"/>
		<path fill="#DC8744" d="M54.9609337,26.9567184c0,0.6627064-2.2210846,0.6943035-4.9609337,0.6943035    c-2.7398453,0-4.9609299-0.0315971-4.9609299-0.6943035S47.2601547,25.7567825,50,25.7567825    C52.7398491,25.7567825,54.9609337,26.2940121,54.9609337,26.9567184z"/>
	</g>
</g>
</svg>
