<?xml version="1.0" encoding="utf-8"?>
<!-- Generator: Adobe Illustrator 21.0.2, SVG Export Plug-In . SVG Version: 6.00 Build 0)  -->
<svg xmlns="http://www.w3.org/2000/svg" xmlns:xlink="http://www.w3.org/1999/xlink" version="1.1" id="Layer_1" x="0px" y="0px" viewBox="0 0 100 100" enable-background="new 0 0 100 100" xml:space="preserve" width="512" height="512">
<g>
	<circle fill="#334D5C" cx="50" cy="50" r="48"/>
	<path opacity="0.1" d="M76.4400024,23.3699951l-0.0999756-0.0900269C75.7700195,22.7999878,75.039978,22.5,74.2299805,22.5   H25.7700195c-0.8000488,0-1.5300293,0.2999878-2.1000366,0.789978C22.960022,23.8900146,22.5,24.7699585,22.5,25.7699585v48.460022   c0,0.7200317,0.2399902,1.3900146,0.6400146,1.9299927l0.0499878,0.0499878   c0.1699829,0.2200317,0.3699951,0.4200439,0.5999756,0.6000366l20.8898315,20.8897705C46.4275513,97.8925781,48.2008667,98,50,98   c26.5097046,0,48-21.4902954,48-48c0-1.8189087-0.1104736-3.6112671-0.3074951-5.3775635l-21.0625-21.062439   C76.5700073,23.4899902,76.5100098,23.4299927,76.4400024,23.3699951z"/>
	<g>
		<path fill="#E56353" d="M77.4979248,25.7710266v48.4599609c0,1.8000488-1.4602051,3.2700195-3.2700195,3.2700195H25.7778339    c-1.8099365,0-3.2799072-1.4699707-3.2799072-3.2700195V25.7710266c0-1.8099976,1.4699707-3.2700195,3.2799072-3.2700195    h48.4500732C76.0377197,22.5010071,77.4979248,23.9610291,77.4979248,25.7710266z"/>
		<path fill="#D15241" d="M77.5020752,25.7703552c0-1.8067627-1.4648438-3.2713623-3.2714844-3.2713623H25.7733173    c-1.8066406,0-3.2712402,1.4645996-3.2712402,3.2713623v24.2286377h55V25.7703552z"/>
		<circle fill="#EBF0F3" cx="50.0020752" cy="49.9989929" r="20.1358299"/>
		<circle fill="#3A556A" cx="50.0020752" cy="49.9989929" r="14.7054882"/>
		<circle fill="#64798A" cx="50.0020752" cy="49.9989929" r="10.5942955"/>
		<circle fill="#3A556A" cx="50.0020752" cy="49.9989929" r="5.0389943"/>
		<g>
			<circle fill="#64798A" cx="50.0020752" cy="47.4958382" r="1.3283339"/>
			<ellipse fill="#64798A" cx="50.0020752" cy="52.5368347" rx="1.9082397" ry="1.2936462"/>
		</g>
		<path fill="#FCD462" d="M72.4317627,25.9248962h-3.831543c-0.3708496,0-0.6716309,0.3006592-0.6716309,0.6715088v3.8317261    c0,0.3709106,0.3007813,0.6715088,0.6716309,0.6715088h3.831543c0.3710938,0,0.6716309-0.3005981,0.6716309-0.6715088V26.596405    C73.1033936,26.2255554,72.8028564,25.9248962,72.4317627,25.9248962z"/>
	</g>
</g>
</svg>
