<?xml version="1.0" encoding="utf-8"?>
<!-- Generator: Adobe Illustrator 21.0.2, SVG Export Plug-In . SVG Version: 6.00 Build 0)  -->
<svg xmlns="http://www.w3.org/2000/svg" xmlns:xlink="http://www.w3.org/1999/xlink" version="1.1" id="Layer_1" x="0px" y="0px" viewBox="0 0 100 100" enable-background="new 0 0 100 100" xml:space="preserve" width="512" height="512">
<g>
	<circle fill="#EA8953" cx="50" cy="50" r="48"/>
	<path opacity="0.1" d="M98,49.9999771c0-1.2156982-0.0603027-2.4168701-0.1491089-3.6098633L77.5,26.0391617l-9.3400269-3.5400391   l1.4100342,3.130127l-7.2299805,3.2600098l-2.1200562,0.9599609l2.9800415,6.619873l5.9400024,5.9400635l-3.5599976,1.6099854   l-2.6000366-2.5999756l-2.9899902,7.9200439L33.5900269,22.9391861C33.3300171,22.569191,32.8800049,22.4091568,32.5,22.5591812   c-0.75,0.3000488-2.0599976,0.8499756-3.4899902,1.5600586c-0.5400391,0.2600098-1.0800171,0.5499268-1.6199951,0.8498535   c-1.210022,0.670166-2.3800049,1.4300537-3.2700195,2.2200928c-0.8900146,0.7999268-1.5,1.6300049-1.5700073,2.4500732   c-0.8999634,9.829834,10.4700317,29.1899414,21.6799927,40.119873l24.4641113,24.4641113   C85.9164429,86.9339371,98,69.878273,98,49.9999771z"/>
	<g>
		<g>
			<path fill="#64798A" d="M36.2110291,38.7976532c0.5162621-0.9885101,2.4662209-2.4589233,4.6110001-3.8638535     c0.4011765-0.2628136,0.4858704-0.8372421,0.1825333-1.2756767l-7.4193497-10.7236824     c-0.2559357-0.3699207-0.7049637-0.528614-1.0825653-0.3778362c-2.2599411,0.9029846-9.6771717,4.0866699-9.9522419,7.0820942     C21.3258476,42.9770737,42.6985474,73.8684769,55.612236,77.4251862c2.900013,0.798584,8.494339-5.0198669,10.136055-6.8164139     c0.2742767-0.3001251,0.2840805-0.776268,0.0280914-1.1462631l-7.4192963-10.7236099     c-0.3033905-0.4385109-0.870739-0.5616989-1.2581139-0.2789421c-2.0708847,1.5117455-4.1343575,2.8180847-5.2414055,2.9526901     C41.4923325,62.6725159,31.3776951,48.0531502,36.2110291,38.7976532z"/>
			<path fill="#FCD462" d="M37.9253082,37.0066376L29.007246,24.1167641     c-0.5319958,0.2634087-1.0765915,0.5478191-1.6184998,0.8509254l9.2016964,13.2998314     C36.9141922,37.8837967,37.367588,37.4588547,37.9253082,37.0066376z"/>
			<path fill="#FCD462" d="M61.6890678,74.5442581c0.4747009-0.4002533,0.9328499-0.8096085,1.3669052-1.2145767     l-8.9180107-12.8897972c-0.6198082,0.3624725-1.1773109,0.63694-1.6505394,0.804615L61.6890678,74.5442581z"/>
		</g>
		<g>
			<g>
				
					<rect x="73.0079575" y="40.4924316" transform="matrix(0.9115804 -0.4111219 0.4111219 0.9115804 -11.5811701 34.3956032)" fill="#CE412D" width="2.3310547" height="7.2593384"/>
				<polygon fill="#E56353" points="64.3942337,44.5508003 62.982357,41.4202461 59.4471092,50.7637138 68.7906036,54.2988815       67.3787079,51.1682701 74.6032486,47.9100113 71.6187744,41.2925377     "/>
			</g>
			<g>
				
					<rect x="61.6081009" y="29.0471096" transform="matrix(0.9115804 -0.4111219 0.4111219 0.9115804 -7.8837185 28.6968803)" fill="#31978C" width="2.3310547" height="7.2593384"/>
				<polygon fill="#44C4A1" points="72.5528793,32.2480774 73.9647522,35.3786316 77.5,26.0351639 68.1565018,22.4999981       69.5684052,25.6306076 62.3438644,28.8888683 65.3283386,35.50634     "/>
			</g>
		</g>
	</g>
</g>
</svg>
