<?xml version="1.0" encoding="utf-8"?>
<!-- Generator: Adobe Illustrator 21.0.2, SVG Export Plug-In . SVG Version: 6.00 Build 0)  -->
<svg xmlns="http://www.w3.org/2000/svg" xmlns:xlink="http://www.w3.org/1999/xlink" version="1.1" id="Layer_1" x="0px" y="0px" viewBox="0 0 100 100" enable-background="new 0 0 100 100" xml:space="preserve" width="512" height="512">
<g>
	<circle fill="#45B39C" cx="50" cy="50" r="48"/>
	<path opacity="0.1" d="M97.9401245,52.3692398L68.9199829,23.3492203c-0.1300049-0.1900635-0.289978-0.3400879-0.4799805-0.4799805   l-0.0300293-0.0200195c-0.3099976-0.2099609-0.6699829-0.3500977-1.0699463-0.3500977H32.6599731   c-1.039978,0-1.8899536,0.8500977-1.8899536,1.8901367V75.60923c0,0.5599365,0.2399902,1.0599365,0.6300049,1.3999023   l0.0299683,0.0300293l20.9018555,20.9018555C76.9728394,96.76194,96.7423096,77.0052261,97.9401245,52.3692398z"/>
	<g>
		<path fill="#EBF0F3" d="M67.3352661,22.4999981H32.6647339c-1.0440655,0-1.890501,0.8464355-1.890501,1.890564v51.218811    c0,1.0441895,0.8464355,1.890625,1.890501,1.890625h34.6705322c1.0440674,0,1.8905029-0.8464355,1.8905029-1.890625v-51.218811    C69.225769,23.3464336,68.3793335,22.4999981,67.3352661,22.4999981z"/>
		<rect x="33.7739868" y="25.5002422" fill="#27A2DB" width="32.4521484" height="11.5950317"/>
		<rect x="33.7739868" y="34.845295" fill="#2D93BA" width="32.4521484" height="2.2499797"/>
		<rect x="30.7742329" y="38.9838371" fill="#D5D6DB" width="38.4515381" height="1.6502357"/>
		<rect x="33.7739868" y="42.3540268" fill="#FCD462" width="13.6142406" height="13.6142406"/>
		<rect x="52.6118965" y="42.3540268" fill="#44C4A1" width="13.6142406" height="13.6142406"/>
		<rect x="33.7739868" y="60.5063477" fill="#27A2DB" width="13.6142406" height="13.6142406"/>
		<rect x="52.6118965" y="60.5063477" fill="#E56353" width="13.6142406" height="13.6142406"/>
		<g>
			
				<rect x="39.3431702" y="44.2416954" transform="matrix(-1.836970e-16 1 -1 -1.836970e-16 89.7422562 8.5800371)" fill="#DC8744" width="2.4758759" height="9.8388968"/>
			
				<rect x="39.3431702" y="44.2416954" transform="matrix(-1 -1.224647e-16 1.224647e-16 -1 81.1622162 98.3222885)" fill="#DC8744" width="2.4758759" height="9.8388968"/>
		</g>
		<g>
			
				<rect x="58.1810799" y="65.1786118" transform="matrix(-1.836970e-16 1 -1 -1.836970e-16 129.5170746 10.6790409)" fill="#FFFFFF" width="2.4758759" height="9.8388968"/>
			
				<rect x="58.1810799" y="59.6094284" transform="matrix(-1.836970e-16 1 -1 -1.836970e-16 123.9478912 5.109859)" fill="#FFFFFF" width="2.4758759" height="9.8388968"/>
		</g>
		<g>
			
				<rect x="39.3431702" y="62.3940163" transform="matrix(-1.836970e-16 1 -1 -1.836970e-16 107.894577 26.732357)" fill="#FFFFFF" width="2.4758759" height="9.8388968"/>
		</g>
		<g>
			
				<rect x="58.1810799" y="44.2416954" transform="matrix(0.7071068 0.7071068 -0.7071068 0.7071068 52.1656075 -27.6166229)" fill="#FFFFFF" width="2.4758759" height="9.8388968"/>
			
				<rect x="58.1810799" y="44.2416954" transform="matrix(-0.7071068 0.7071068 -0.7071068 -0.7071068 136.1967773 41.9077339)" fill="#FFFFFF" width="2.4758759" height="9.8388968"/>
		</g>
	</g>
</g>
</svg>
