<?xml version="1.0" encoding="utf-8"?>
<!-- Generator: Adobe Illustrator 21.0.2, SVG Export Plug-In . SVG Version: 6.00 Build 0)  -->
<svg xmlns="http://www.w3.org/2000/svg" xmlns:xlink="http://www.w3.org/1999/xlink" version="1.1" id="Layer_1" x="0px" y="0px" viewBox="0 0 100 100" enable-background="new 0 0 100 100" xml:space="preserve" width="512" height="512">
<g>
	<circle fill="#45B39C" cx="50" cy="50" r="48"/>
	<path opacity="0.1" d="M69.2700195,23.1099854C68.8400269,22.7299805,68.2600098,22.5,67.6400146,22.5H32.3599854   c-1.3800049,0-2.5100098,1.1199951-2.5100098,2.5100098v49.9799805c0,0.7799683,0.3600464,1.4799805,0.9200439,1.9400024   l0.039978,0.0299683l20.9944458,20.9944458C76.8780518,97.026123,97.0278931,76.875,97.9544678,51.8010864L69.5700073,23.4099731   L69.2700195,23.1099854z"/>
	<g>
		<path fill="#64798A" d="M67.6386185,22.5H32.3612061c-1.386013,0-2.5096741,1.123661-2.5096741,2.5098515v49.9803009    c0,1.3861008,1.123661,2.5098495,2.5096741,2.5098495h35.2774124c1.3861923,0,2.5098495-1.1237488,2.5098495-2.5098495V25.0098515    C70.148468,23.623661,69.0248108,22.5,67.6386185,22.5z"/>
		<rect x="34.1959076" y="26.8448181" fill="#27A2DB" width="31.6081867" height="12.1814871"/>
		<rect x="34.1959076" y="36.7373161" fill="#2D93BA" width="31.6081867" height="2.2889886"/>
		<circle fill="#EBF0F3" cx="36.7958794" cy="47.4984207" r="2.5999708"/>
		<circle fill="#EBF0F3" cx="45.5986252" cy="47.4984207" r="2.5999708"/>
		<circle fill="#EBF0F3" cx="54.4013748" cy="47.4984207" r="2.5999708"/>
		<circle fill="#FCD462" cx="63.2041245" cy="47.4984207" r="2.5999708"/>
		<circle fill="#EBF0F3" cx="36.7958794" cy="55.2587585" r="2.5999708"/>
		<circle fill="#EBF0F3" cx="45.5986252" cy="55.2587585" r="2.5999708"/>
		<circle fill="#EBF0F3" cx="54.4013748" cy="55.2587585" r="2.5999708"/>
		<circle fill="#44C4A1" cx="63.2041245" cy="55.2587585" r="2.5999708"/>
		<circle fill="#EBF0F3" cx="36.7958794" cy="63.0191002" r="2.5999708"/>
		<circle fill="#EBF0F3" cx="45.5986252" cy="63.0191002" r="2.5999708"/>
		<circle fill="#EBF0F3" cx="54.4013748" cy="63.0191002" r="2.5999708"/>
		<circle fill="#EBF0F3" cx="36.7958794" cy="70.7794418" r="2.5999708"/>
		<circle fill="#EBF0F3" cx="45.5986252" cy="70.7794418" r="2.5999708"/>
		<circle fill="#EBF0F3" cx="54.4013748" cy="70.7794418" r="2.5999708"/>
		<path fill="#E56353" d="M65.2494278,60.4191475h-4.0905113c-0.3065491,0-0.55476,0.2482986-0.55476,0.5545807v11.8510399    c0,0.306282,0.2482109,0.5545807,0.55476,0.5545807h4.0905113c0.306366,0,0.5547562-0.2482986,0.5547562-0.5545807V60.9737282    C65.804184,60.6674461,65.5557938,60.4191475,65.2494278,60.4191475z"/>
	</g>
</g>
</svg>
