<?xml version="1.0" encoding="utf-8"?>
<!-- Generator: Adobe Illustrator 21.0.2, SVG Export Plug-In . SVG Version: 6.00 Build 0)  -->
<svg xmlns="http://www.w3.org/2000/svg" xmlns:xlink="http://www.w3.org/1999/xlink" version="1.1" id="Layer_1" x="0px" y="0px" viewBox="0 0 100 100" enable-background="new 0 0 100 100" xml:space="preserve" width="512" height="512">
<g>
	<circle fill="#EA8953" cx="50" cy="50" r="48"/>
	<path opacity="0.1" d="M62.210022,22.5h-0.0100098v0.0100098c-0.0300293,0.0499878-0.7300415,1.1199951-0.7300415,1.5199585   c0,0.3400269,0.2400513,0.6199951,0.5600586,0.7000122c0.0199585,0.0100098,0.0499878,0.0100098,0.0799561,0.0200195v0.2199707   h-0.8299561c-0.1700439,0-0.3100586,0.1400146-0.3100586,0.3099976v7.4800415h-0.7099609L50,22.5   c0,0-0.7399902,1.1199951-0.7399902,1.5299683c0,0.3400269,0.2399902,0.6199951,0.5599976,0.7000122   c0.0200195,0.0100098,0.0499878,0.0100098,0.0800171,0.0200195v0.2199707h-0.8300171   c-0.1699829,0-0.3099976,0.1400146-0.3099976,0.3099976v7.4800415h-0.710022L37.789978,22.5   c0,0-0.7399902,1.1199951-0.7399902,1.5299683c0,0.3400269,0.2399902,0.6199951,0.5599976,0.7000122   c0.0200195,0.0100098,0.0499878,0.0100098,0.0800171,0.0200195v0.2199707h-0.8300171   c-0.1699829,0-0.2999878,0.1400146-0.2999878,0.3099976v7.4800415h-4.0800171   c-1.0199585,0-1.8499756,0.8299561-1.8499756,1.8499756v19.8200073h-5.8900146   c-1.0200195,0-1.8499756,0.8300171-1.8499756,1.8499756V77.5l19.9683228,19.9683228C45.1887817,97.815979,47.5727539,98,50,98   c23.8944702,0,43.7033691-17.4620361,47.3807373-40.3192749L62.2199707,22.5199585   C62.2199707,22.5100098,62.210022,22.5,62.210022,22.5z"/>
	<g>
		<g>
			<g>
				<rect x="49.8969536" y="24.6188793" fill="#FFFFFF" width="0.2060915" height="0.5796325"/>
				<g>
					<path fill="#FCD462" d="M50,22.5c0,0-0.7419434,1.1193085-0.7419434,1.5291061       c0,0.409729,0.3322144,0.7419453,0.7419434,0.7419453c0.4098663,0,0.7419472-0.3322163,0.7419472-0.7419453       C50.7419472,23.6193085,50,22.5,50,22.5z"/>
					<path fill="#F6C358" d="M50,23.350975c0,0-0.463932,0.6998978-0.463932,0.9561424       c0,0.2562008,0.2077332,0.4639339,0.463932,0.4639339c0.2562866,0,0.4639359-0.2077332,0.4639359-0.4639339       C50.4639359,24.0508728,50,23.350975,50,23.350975z"/>
				</g>
				<g>
					<path fill="#E56353" d="M51.23526,33.4268684v-8.1498451c0-0.1681271-0.1363449-0.30439-0.3046379-0.30439h-1.8614082       c-0.1681252,0-0.3044701,0.1362629-0.3044701,0.30439v8.1498451H51.23526z"/>
					<g>
						<polygon fill="#D15241" points="51.23526,26.5089188 48.7647438,25.3325748 48.7647438,26.0318604 51.23526,27.2082043               "/>
						<polygon fill="#D15241" points="48.7647438,27.7694855 51.23526,28.9458294 51.23526,28.2465439 48.7647438,27.0702       "/>
						<polygon fill="#D15241" points="48.7647438,29.5070324 51.23526,30.6834564 51.23526,29.9841709 48.7647438,28.8077469               "/>
						<polygon fill="#D15241" points="48.7647438,31.2446594 51.23526,32.4210815 51.23526,31.721796 48.7647438,30.545372               "/>
					</g>
				</g>
			</g>
			<g>
				<g>
					<rect x="62.1063766" y="24.6188793" fill="#FFFFFF" width="0.2060915" height="0.5796325"/>
					<g>
						<path fill="#FCD462" d="M62.2094231,22.5c0,0-0.7419472,1.1193085-0.7419472,1.5291061        c0,0.409729,0.3322182,0.7419453,0.7419472,0.7419453c0.4098625,0,0.7419434-0.3322163,0.7419434-0.7419453        C62.9513664,23.6193085,62.2094231,22.5,62.2094231,22.5z"/>
						<path fill="#F6C358" d="M62.2094231,23.350975c0,0-0.4639359,0.6998978-0.4639359,0.9561424        c0,0.2562008,0.2077332,0.4639339,0.4639359,0.4639339c0.2562866,0,0.463932-0.2077332,0.463932-0.4639339        C62.6733551,24.0508728,62.2094231,23.350975,62.2094231,23.350975z"/>
					</g>
					<g>
						<path fill="#E56353" d="M63.4446793,33.4268684v-8.1498451c0-0.1681271-0.1363449-0.30439-0.3046341-0.30439h-1.861412        c-0.1681252,0-0.3044701,0.1362629-0.3044701,0.30439v8.1498451H63.4446793z"/>
						<g>
							<polygon fill="#D15241" points="63.4446793,26.5089188 60.9741631,25.3325748 60.9741631,26.0318604 63.4446793,27.2082043                 "/>
							<polygon fill="#D15241" points="60.9741631,27.7694855 63.4446793,28.9458294 63.4446793,28.2465439 60.9741631,27.0702                 "/>
							<polygon fill="#D15241" points="60.9741631,29.5070324 63.4446793,30.6834564 63.4446793,29.9841709 60.9741631,28.8077469                 "/>
							<polygon fill="#D15241" points="60.9741631,31.2446594 63.4446793,32.4210815 63.4446793,31.721796 60.9741631,30.545372                 "/>
						</g>
					</g>
				</g>
				<g>
					<rect x="37.6875343" y="24.6188793" fill="#FFFFFF" width="0.2060915" height="0.5796325"/>
					<g>
						<path fill="#FCD462" d="M37.7905807,22.5c0,0-0.7419434,1.1193085-0.7419434,1.5291061        c0,0.409729,0.3322144,0.7419453,0.7419434,0.7419453c0.4098663,0,0.7419434-0.3322163,0.7419434-0.7419453        C38.5325241,23.6193085,37.7905807,22.5,37.7905807,22.5z"/>
						<path fill="#F6C358" d="M37.7905807,23.350975c0,0-0.4639359,0.6998978-0.4639359,0.9561424        c0,0.2562008,0.2077332,0.4639339,0.4639359,0.4639339c0.2562866,0,0.4639359-0.2077332,0.4639359-0.4639339        C38.2545166,24.0508728,37.7905807,23.350975,37.7905807,23.350975z"/>
					</g>
					<g>
						<path fill="#E56353" d="M39.0258408,33.4268684v-8.1498451c0-0.1681271-0.1363449-0.30439-0.3046379-0.30439h-1.8614082        c-0.168129,0-0.3044739,0.1362629-0.3044739,0.30439v8.1498451H39.0258408z"/>
						<g>
							<polygon fill="#D15241" points="39.0258408,26.5089188 36.5553207,25.3325748 36.5553207,26.0318604 39.0258408,27.2082043                 "/>
							<polygon fill="#D15241" points="36.5553207,27.7694855 39.0258408,28.9458294 39.0258408,28.2465439 36.5553207,27.0702                 "/>
							<polygon fill="#D15241" points="36.5553207,29.5070324 39.0258408,30.6834564 39.0258408,29.9841709 36.5553207,28.8077469                 "/>
							<polygon fill="#D15241" points="36.5553207,31.2446594 39.0258408,32.4210815 39.0258408,31.721796 36.5553207,30.545372                 "/>
						</g>
					</g>
				</g>
			</g>
		</g>
		<g>
			<path fill="#FCD462" d="M32.484417,32.7575645c-1.0224285,0-1.8512707,0.8288422-1.8512707,1.8512726v21.2209435h38.7337036     V34.6073189c0-1.0215912-0.8281631-1.8497543-1.8497543-1.8497543H32.484417z"/>
			<path fill="#FFFFFF" d="M32.484417,32.7575645c-1.0224285,0-1.8512707,0.8288422-1.8512707,1.8512726v5.7458878     c0.0244617,2.1134758,1.7535686,3.8212357,3.8729076,3.8212357c2.134388,0,3.8773918-1.7311363,3.8773918-3.8654556     c0,2.1343193,1.7311363,3.8654556,3.8655281,3.8654556c2.1462593,0,3.8773918-1.7311363,3.8773918-3.8654556     c0,2.1343193,1.7311363,3.8654556,3.8655243,3.8654556c2.1462593,0,3.8773956-1.7311363,3.8773956-3.8654556     c0,2.1343193,1.7311363,3.8654556,3.8773956,3.8654556c2.134243,0,3.8655243-1.7311363,3.8655243-3.8654556     c0,2.4037018,2.2107544,4.2960205,4.7013397,3.7800293c1.8079224-0.3745575,3.0533142-2.0555725,3.0533142-3.9018898     l-0.0000076-5.5813293c0-1.0215912-0.8281631-1.8497505-1.8497543-1.8497505H32.484417z"/>
			<rect x="30.6331463" y="35.7950516" fill="#E56353" width="38.7337036" height="1.822487"/>
		</g>
		<g>
			<path fill="#FCD462" d="M75.2582092,54.427784H24.7417908c-1.0224686,0-1.8512707,0.8288727-1.8512707,1.8512688V77.5h54.2189636     V56.2790527C77.1094818,55.2566566,76.2806778,54.427784,75.2582092,54.427784z"/>
			<path fill="#FFFFFF" d="M75.2582092,54.427784H24.7417908c-1.0224686,0-1.8512707,0.8288727-1.8512707,1.8512688v5.7458916     c0.0244617,2.1134758,1.7535686,3.8212318,3.8729076,3.8212318c2.1343899,0,3.8773937-1.7311325,3.8773937-3.8654518     c0,2.1343193,1.7311344,3.8654518,3.8655262,3.8654518c2.1462593,0,3.8773918-1.7311325,3.8773918-3.8654518     c0,2.1343193,1.7311363,3.8654518,3.8655243,3.8654518c2.1462631,0,3.8773956-1.7311325,3.8773956-3.8654518     c0,2.1343193,1.7311363,3.8654518,3.8773956,3.8654518c2.134243,0,3.8655243-1.7311325,3.8655243-3.8654518     c0,2.1343193,1.7430038,3.8654518,3.8772507,3.8654518c2.134388,0,3.8773918-1.7311325,3.8773918-3.8654518     c0,2.1343193,1.7312813,3.8654518,3.8655243,3.8654518c2.1342468,0,3.8773956-1.7311325,3.8773956-3.8654518     c0,2.1343193,1.7311325,3.8654518,3.8653793,3.8654518c2.1448135,0,3.8745041-1.7287445,3.8769608-3.8611794v-5.7059441     C77.1094818,55.2566566,76.2806778,54.427784,75.2582092,54.427784z"/>
			<rect x="22.8905201" y="57.465271" fill="#E56353" width="54.2189636" height="1.822487"/>
		</g>
	</g>
</g>
</svg>
