<?xml version="1.0" encoding="utf-8"?>
<!-- Generator: Adobe Illustrator 21.0.2, SVG Export Plug-In . SVG Version: 6.00 Build 0)  -->
<svg xmlns="http://www.w3.org/2000/svg" xmlns:xlink="http://www.w3.org/1999/xlink" version="1.1" id="Layer_1" x="0px" y="0px" viewBox="0 0 100 100" enable-background="new 0 0 100 100" xml:space="preserve" width="512" height="512">
<g>
	<circle fill="#45B39C" cx="50" cy="50" r="48"/>
	<path opacity="0.1" d="M77.0700073,22.9099121c-0.2600098-0.25-0.6099854-0.4099121-1-0.4099121H23.9299927   C23.1400146,22.5,22.5,23.1400146,22.5,23.9299316V73.5c0,0.3200684,0.1099854,0.6199951,0.289978,0.8599854l0.2700195,0.2700195   l23.2119751,23.2119141C47.5036011,97.9366455,48.7440796,98,50,98c26.5097046,0,48-21.4904785,48-48   c0-2.2513428-0.1669312-4.4626465-0.4668579-6.6314697l-20.453125-20.4486084L77.0700073,22.9099121z"/>
	<g>
		<path fill="#FCD462" d="M26.381958,76.6705322c0,0.4581299,0.3713379,0.8294678,0.8295898,0.8294678h6.9953613    c0.4580078,0,0.8294678-0.3713379,0.8294678-0.8294678v-3.8903198H26.381958V76.6705322z"/>
		<path fill="#FCD462" d="M64.4300537,72.7802124v3.8903198c0,0.4581299,0.3713379,0.8294678,0.8295898,0.8294678h6.9952393    c0.4581299,0,0.8294678-0.3713379,0.8294678-0.8294678v-3.8903198H64.4300537z"/>
		<path fill="#DC8744" d="M76.0734863,22.5H23.9265137C23.1386719,22.5,22.5,23.1386719,22.5,23.9265747v49.5757446    c0,0.7878418,0.6386719,1.4265137,1.4265137,1.4265137h52.1469727c0.7878418,0,1.4265137-0.6386719,1.4265137-1.4265137    V23.9265747C77.5,23.1386719,76.8613281,22.5,76.0734863,22.5z"/>
		<path fill="#FCD462" d="M71.4998779,27.5001831h-43c-0.5522461,0-1,0.4476929-1,1v16.7141113c0,0.5522461,0.4477539,1,1,1h43    c0.5522461,0,1-0.4477539,1-1V28.5001831C72.4998779,27.947876,72.052124,27.5001831,71.4998779,27.5001831z"/>
		<path fill="#FCD462" d="M71.4998779,51.2142944h-43c-0.5522461,0-1,0.4476929-1,1v16.7141113c0,0.5522461,0.4477539,1,1,1h43    c0.5522461,0,1-0.4477539,1-1V52.2142944C72.4998779,51.6619873,72.052124,51.2142944,71.4998779,51.2142944z"/>
		<g>
			<g>
				<circle fill="#2F4859" cx="42.2076645" cy="36.8572388" r="1.0994735"/>
				<circle fill="#2F4859" cx="57.7920914" cy="36.8572388" r="1.0994735"/>
			</g>
			<path fill="#3A556A" d="M57.7019691,35.9922028c-5.9907532-0.9092369-9.410759-0.9100761-15.4022026-0.000988     c-0.4267578,0.0647659-0.7469292,0.4344711-0.7469292,0.8660278c0,0.4315529,0.3201714,0.8012619,0.7469292,0.8659782     c5.9914436,0.9090385,9.4114494,0.9083939,15.4023018-0.0009422c0.4261665-0.0647125,0.7448502-0.4338264,0.7448502-0.865036     S58.1282349,36.0569191,57.7019691,35.9922028z"/>
			<path fill="#64798A" d="M55.0612717,36.4055138H44.9385872c-0.2494698,0-0.4517784,0.2022552-0.4517784,0.451725     s0.2023087,0.451725,0.4517784,0.451725h10.1226845c0.2494698,0,0.4516754-0.2022552,0.4516754-0.451725     S55.3107414,36.4055138,55.0612717,36.4055138z"/>
		</g>
		<g>
			<g>
				<circle fill="#2F4859" cx="42.2076645" cy="60.5713501" r="1.0994735"/>
				<circle fill="#2F4859" cx="57.7920914" cy="60.5713501" r="1.0994735"/>
			</g>
			<path fill="#3A556A" d="M57.7019691,59.7063141c-5.9907532-0.9092369-9.410759-0.9100761-15.4022026-0.000988     c-0.4267578,0.0647659-0.7469292,0.4344711-0.7469292,0.8660278c0,0.4315529,0.3201714,0.8012619,0.7469292,0.8659782     c5.9914436,0.9090385,9.4114494,0.9083939,15.4023018-0.0009422c0.4261665-0.0647125,0.7448502-0.4338264,0.7448502-0.865036     S58.1282349,59.7710304,57.7019691,59.7063141z"/>
			<path fill="#64798A" d="M55.0612717,60.1196251H44.9385872c-0.2494698,0-0.4517784,0.2022552-0.4517784,0.451725     s0.2023087,0.451725,0.4517784,0.451725h10.1226845c0.2494698,0,0.4516754-0.2022552,0.4516754-0.451725     S55.3107414,60.1196251,55.0612717,60.1196251z"/>
		</g>
	</g>
</g>
</svg>
