<?xml version="1.0" encoding="utf-8"?>
<!-- Generator: Adobe Illustrator 21.0.2, SVG Export Plug-In . SVG Version: 6.00 Build 0)  -->
<svg xmlns="http://www.w3.org/2000/svg" xmlns:xlink="http://www.w3.org/1999/xlink" version="1.1" id="Layer_1" x="0px" y="0px" viewBox="0 0 100 100" enable-background="new 0 0 100 100" xml:space="preserve" width="512" height="512">
<g>
	<circle fill="#45B39C" cx="50" cy="50" r="48"/>
	<path opacity="0.1" d="M97.9672241,51.2964859L77.210022,30.5391617l-0.4100342-0.4099121L76.7800293,30.10923   c-0.2700195-0.2000732-0.6100464-0.3100586-0.9700317-0.3100586H24.1900024c-0.9299927,0-1.6900024,0.75-1.6900024,1.6899414v22.75   c0,0.4700928,0.1900024,0.8901367,0.5,1.2000732L63.595459,96.034523   C83.0844727,90.2873306,97.4030151,72.5110855,97.9672241,51.2964859z"/>
	<g>
		<g>
			<path fill="#F6C358" d="M75.8115234,31.5188694H24.1884785c-0.9326172,0-1.6884766,0.7559795-1.6884766,1.6884747v21.0351563     c0,0.9324951,0.7558594,1.6884766,1.6884766,1.6884766h51.6230469c0.9326172,0,1.6884766-0.7559814,1.6884766-1.6884766     V33.2073441C77.5,32.2748489,76.7441406,31.5188694,75.8115234,31.5188694z"/>
			<path fill="#FCD462" d="M75.8115234,29.7979603H24.1884785c-0.9326172,0-1.6884766,0.7559814-1.6884766,1.6884766v21.0351543     c0,0.9324951,0.7558594,1.6884766,1.6884766,1.6884766h51.6230469c0.9326172,0,1.6884766-0.7559814,1.6884766-1.6884766     V31.4864368C77.5,30.5539417,76.7441406,29.7979603,75.8115234,29.7979603z"/>
		</g>
		<g>
			<path fill="#DC8744" d="M35.6026154,49.231514h-6.3071365v-14.408287h5.6059723     c0.976265,0,1.8183327,0.1174202,2.5262108,0.3505821c0.7061958,0.2340012,1.2329102,0.5501976,1.5767822,0.9485855     c0.6592331,0.7414246,0.9880066,1.5801392,0.9880066,2.5144691c0,1.1272316-0.3572922,1.965107-1.0718765,2.5144691     c-0.2600021,0.1929016-0.4394875,0.3128395-0.535099,0.3606453c-0.0956154,0.048645-0.2683907,0.1274834-0.5149727,0.2373581     c0.892395,0.1929016,1.6036224,0.5946465,2.1336899,1.2060699c0.5283928,0.6114235,0.7934265,1.3704605,0.7934265,2.2771111     c0,1.0031052-0.3438721,1.8896255-1.03162,2.6595688C38.9557991,48.7853165,37.5668869,49.231514,35.6026154,49.231514z      M31.7277527,40.8007469h3.0915031c1.7596245,0,2.6385994-0.5971642,2.6385994-1.7931709     c0-0.6869087-0.2130356-1.1817513-0.6391029-1.4836884s-1.0852966-0.453743-1.9793663-0.453743h-3.1116333V40.8007469z      M31.7277527,46.9845963h3.8127975c0.8940735,0,1.576786-0.1409073,2.0514984-0.4227142     c0.4730377-0.2809677,0.7112312-0.8135529,0.7112312-1.5969124c0-1.2782021-1.02491-1.917305-3.0713768-1.917305h-3.5041504     V46.9845963z"/>
			<path fill="#DC8744" d="M47.0829506,45.9336853c0.6592293,0.7699394,1.553299,1.1540718,2.6805344,1.1540718     c1.1255531,0,2.0196228-0.3841324,2.6788559-1.1540718c0.6592293-0.7699394,0.9896812-1.8141403,0.9896812-3.1334419v-7.9770164     h2.4322739v8.0801811c0,2.0749817-0.5703239,3.6727333-1.7109756,4.7924156     c-1.1406555,1.1205254-2.6050491,1.6799469-4.3898354,1.6799469c-1.7864647,0-3.2508621-0.5594215-4.3915138-1.6799469     c-1.1406517-1.1196823-1.7109795-2.7174339-1.7109795-4.7924156v-8.0801811h2.4322739v7.9770164     C46.0932655,44.119545,46.4237213,45.1637459,47.0829506,45.9336853z"/>
			<path fill="#DC8744" d="M65.3451309,49.231514h-2.4725304v-5.6890068l-5.3593903-8.7192802h2.6587296l3.936924,6.555397     l3.9369354-6.555397h2.6587219l-5.3593903,8.7192802V49.231514z"/>
		</g>
		<polygon fill="#64798A" points="71.4232254,61.4035606 54.8956566,44.9537125 54.0490494,68.2569656 58.9569626,61.3950043     62.4309731,70.202034 66.6263962,68.5471191 63.1523819,59.7400856   "/>
	</g>
</g>
</svg>
