<?xml version="1.0" encoding="utf-8"?>
<!-- Generator: Adobe Illustrator 21.0.2, SVG Export Plug-In . SVG Version: 6.00 Build 0)  -->
<svg xmlns="http://www.w3.org/2000/svg" xmlns:xlink="http://www.w3.org/1999/xlink" version="1.1" id="Layer_1" x="0px" y="0px" viewBox="0 0 100 100" enable-background="new 0 0 100 100" xml:space="preserve" width="512" height="512">
<g>
	<circle fill="#EA8953" cx="50" cy="50" r="48"/>
	<path opacity="0.1" d="M72.6400146,38.6691666c-5.2900391-5.2399902-13.460022-8.5999756-22.6300049-8.5999756   c-12.7399902,0-23.5400391,6.4699707-27.3900146,15.4699707c-0.2555542,0.5932617-0.0739746,1.2094727,0.3300781,1.6260986   l-0.0100708,0.0039063l1.5800171,1.5799561c-1.2300415,0.960083-2.0100098,2.4500732-2.0100098,4.1201172   c0,1.2600098,0.4500122,2.4299316,1.2000122,3.3299561c0.2099609,0.2600098,0.4400024,0.4899902,0.6999512,0.6999512   l1.1900024,1.1900635h-3.0899658v7.6999512c0,1.3100586,0.6099854,2.4799805,1.5599976,3.2399902l0.0200195,0.0200195   l28.852417,28.8525391c20.9116211-1.2658691,38.2045898-15.9139404,43.4302979-35.4969482L73.2299805,39.2691422   L72.6400146,38.6691666z"/>
	<g>
		<path fill="#F6C358" d="M22.5051594,58.0933647V65.78508c0,2.2905273,1.8569336,4.1473999,4.1474609,4.1473999h46.7052002    c2.2905273,0,4.1473389-1.8568726,4.1473389-4.1473999v-7.6917152H22.5051594z"/>
		<path fill="#D15241" d="M72.2839661,47.6508713H27.7264729c-2.883667,0-5.2213135,2.3375854-5.2213135,5.2212524    c0,2.883606,2.3376465,5.2212524,5.2213135,5.2212524h44.5574951c2.8835449,0,5.2211914-2.3376465,5.2211914-5.2212524    C77.5051575,49.9884567,75.167511,47.6508713,72.2839661,47.6508713z"/>
		<g>
			<path fill="#FFFFFF" d="M28.3362141,54.6162643c-1.6962891,0-3.1083984-0.5527344-4.0185547-1.6079102     c-0.3613281-0.418457-0.3144531-1.0498047,0.1035156-1.4106445s1.0498047-0.3149414,1.4101563,0.1040039     c1.0957031,1.269043,3.3730469,0.8833008,4.046875,0.7353516c0.5205078-0.1152344,1.0380859-0.2641602,1.5556641-0.4125977     c1.2578106-0.3608398,2.5712872-0.7304688,3.9589825-0.6811523c0.8496094,0.0322266,1.6445313,0.2182617,2.4130859,0.3984375     c0.6289063,0.1469727,1.2226563,0.2861328,1.8095703,0.3339844c1.1201172,0.0917969,2.2685547-0.1411133,3.4882813-0.3847656     c1.6816406-0.3374023,3.4228516-0.6845703,5.1992188-0.1967773c0.3310547,0.0908203,0.6533203,0.2104492,0.9746094,0.3310547     c0.3417969,0.1279297,0.6640625,0.2485352,0.9755859,0.3173828c0.7988281,0.1762695,1.6796875,0.0483398,2.6113281-0.0874023     c0.5478516-0.0795898,1.1132813-0.1621094,1.6953125-0.1875c1.0048828-0.0444336,1.9746094,0.0844727,2.9121094,0.2089844     c0.7978516,0.105957,1.5400391,0.1987305,2.2978516,0.2006836c0.4335938-0.0029297,0.8662109-0.0410156,1.2988281-0.078125     c0.6357422-0.0537109,1.2929688-0.109375,1.9755859-0.0732422c0.5058594,0.027832,0.9892578,0.1044922,1.4560547,0.1791992     c0.3583984,0.0571289,0.7158203,0.1152344,1.0771484,0.1450195c1.0546875,0.0878906,2.1513672-0.0644531,3.3115234-0.2255859     c1.7783203-0.2480469,3.6181641-0.5039063,5.4375,0.1289063c0.5214844,0.1811523,0.7978516,0.7509766,0.6162109,1.2724609     c-0.1816406,0.5224609-0.7519531,0.7993164-1.2724609,0.6162109c-1.3662109-0.4750977-2.8916016-0.2617188-4.5048828-0.0366211     c-1.2177734,0.1694336-2.4775391,0.3422852-3.7539063,0.237793c-0.4101563-0.0341797-0.8183594-0.0981445-1.2255859-0.1630859     c-0.4365234-0.0698242-0.8486328-0.1352539-1.2509766-0.1572266c-0.5429688-0.0302734-1.1035156,0.0185547-1.6962891,0.0688477     c-0.484375,0.0415039-0.9697266,0.0820313-1.4550781,0.0854492c-0.9121094,0.0063477-1.7451172-0.1079102-2.5742188-0.2177734     c-0.890625-0.1181641-1.7324219-0.2294922-2.5615234-0.1938477c-0.4814453,0.0209961-0.9736328,0.0927734-1.4960938,0.168457     c-1.0693359,0.1557617-2.1748047,0.3164063-3.3300781,0.0615234c-0.4492188-0.0991211-0.8544922-0.2509766-1.2460938-0.3979492     c-0.2646484-0.0996094-0.5292969-0.2001953-0.8017578-0.2749023c-1.3203125-0.3613281-2.7568359-0.0742188-4.2773438,0.2290039     c-1.3027344,0.2602539-2.6464844,0.5317383-4.0429688,0.4169922c-0.7353516-0.0595703-1.4306641-0.2226563-2.1035156-0.3798828     c-0.7070313-0.1655273-1.3759766-0.3222656-2.03125-0.3466797c-1.0888672-0.0415039-2.1748047,0.2724609-3.3339825,0.6049805     c-0.5566406,0.159668-1.1142578,0.3188477-1.6757813,0.4428711     C29.6203938,54.5420456,28.9582844,54.6162643,28.3362141,54.6162643z"/>
		</g>
		<polyline fill="#44C4A1" points="32.5246887,47.6508713 39.6913567,56.5260963 43.2097626,47.6508713   "/>
		<path fill="#F6C358" d="M75.9538269,47.6508713c1.1300507,0,1.8559494-1.1617851,1.4058456-2.1983261    c-3.8857269-8.9484367-14.6610298-15.385025-27.3542023-15.385025c-12.7324982,0-23.535223,6.4765358-27.3901176,15.4682693    c-0.4300747,1.00317,0.347599,2.1150818,1.4390697,2.1150818H75.9538269z"/>
		<circle fill="#DC8744" cx="47.8522873" cy="34.9275436" r="0.2821424"/>
		<circle fill="#DC8744" cx="59.0353851" cy="36.2613068" r="0.4360383"/>
		<circle fill="#DC8744" cx="66.2171936" cy="41.6476631" r="0.6925314"/>
		<circle fill="#DC8744" cx="47.5957947" cy="43.5457115" r="0.5386356"/>
		<circle fill="#DC8744" cx="55.0084457" cy="37.3642273" r="0.6668821"/>
		<circle fill="#DC8744" cx="34.8737335" cy="41.1346779" r="0.6412328"/>
		<circle fill="#DC8744" cx="41.6708031" cy="37.3642273" r="1.5389588"/>
		<circle fill="#DC8744" cx="57.7913933" cy="43.2763939" r="0.2693178"/>
	</g>
</g>
</svg>
