<?xml version="1.0" encoding="utf-8"?>
<!-- Generator: Adobe Illustrator 21.0.2, SVG Export Plug-In . SVG Version: 6.00 Build 0)  -->
<svg xmlns="http://www.w3.org/2000/svg" xmlns:xlink="http://www.w3.org/1999/xlink" version="1.1" id="Layer_1" x="0px" y="0px" viewBox="0 0 100 100" enable-background="new 0 0 100 100" xml:space="preserve" width="512" height="512">
<g>
	<circle fill="#E05B49" cx="50" cy="50" r="48"/>
	<path opacity="0.1" d="M96.1229858,63.2841568L61.4099731,28.5792007V28.569191   C58.539978,25.1392593,54.4899902,22.9991226,50,22.9991226c-8.6699829,0-15.7000122,7.960083-15.7000122,17.7900391   c0,4.0800781,1.2200317,7.8400879,3.2600098,10.8400879c2.2399902,3.289917,3.6400146,7.0799561,3.6400146,11.0499268v0.039917   c0,0.6501465,0.2399902,1.2301025,0.6400146,1.6800537l0.289978,0.2900391l1.6300049,1.6300049v1.2600098l-0.0800171,0.0100098   c-0.3399658,0.0500488-0.5800171,0.3699951-0.5299683,0.7199707c0.0099487,0.1099854,0.0499878,0.1999512,0.1099854,0.2800293   l0.1599731,0.1599121l0.0300293,0.0200195l0.3099976,0.3200684v1.1599121l-0.0800171,0.0100098   c-0.3399658,0.0400391-0.5800171,0.3601074-0.5299683,0.7199707c0.0099487,0.1101074,0.0499878,0.2000732,0.1099854,0.2800293   l0.1499634,0.1500244l0.0400391,0.0300293l0.3099976,0.3199463v1.1500244l-0.0800171,0.0100098   c-0.3399658,0.0499268-0.5800171,0.3699951-0.5299683,0.7200928c0.0199585,0.1899414,0.1199951,0.3398438,0.2599487,0.4399414   h-0.0199585l0.6699829,0.6699219c0.1199951,0.210083,0.2700195,0.4000244,0.4500122,0.5600586l0.039978,0.0300293   l20.3004761,20.3076172C79.9295654,90.7439957,91.723938,78.5833511,96.1229858,63.2841568z"/>
	<g>
		<path fill="#FCD462" d="M50,22.9999981c-8.6693954,0-15.6976891,7.962471-15.6976891,17.7845325    c0,4.0840073,1.2155418,7.84589,3.258564,10.8477516c2.2382774,3.2878113,3.6376572,7.072113,3.6376572,11.049324v0.0385208    c0,1.4157906,1.1478767,2.5634575,2.5635643,2.5634575h12.475811c1.4156837,0,2.5635605-1.1476669,2.5635605-2.5634575v-0.0384178    c0-3.977314,1.3993835-7.7614098,3.637249-11.049324c2.0434303-3.0018616,3.258976-6.7638474,3.258976-10.8478546    C65.6976929,30.9624691,58.6693993,22.9999981,50,22.9999981z"/>
		<path fill="#EBF0F3" d="M43.762207,65.2835693v8.395874c0,0.7848511,0.4296875,1.5065918,1.1196289,1.8806152l2.1791992,1.1813965    C47.3740234,76.9111328,47.7243652,77,48.0805664,77h3.8215332c0.355957,0,0.7062988-0.0888672,1.0192871-0.2585449    l2.1791992-1.1813965c0.6899414-0.3740234,1.119873-1.0957642,1.119873-1.8806152v-8.395874H43.762207z"/>
		<path fill="#E1E6E9" d="M56.1538391,71.303894l-12.473259,1.6196136    c-0.3400345,0.0441589-0.5787201,0.3658371-0.5329323,0.7184677c0.0457802,0.3525696,0.3587074,0.602623,0.6987381,0.5584717    l12.473259-1.6196136c0.3400345-0.0441513,0.5784874-0.3658066,0.5327072-0.7183762    C56.8065643,71.5098267,56.4938698,71.2597427,56.1538391,71.303894z"/>
		<path fill="#E1E6E9" d="M56.1538391,68.6372223l-12.473259,1.6196213    c-0.3400345,0.0441513-0.5787201,0.3658371-0.5329323,0.7184677c0.0457802,0.3525696,0.3587074,0.602623,0.6987381,0.5584717    l12.473259-1.6196213c0.3400345-0.0441513,0.5784874-0.365799,0.5327072-0.7183685    C56.8065643,68.8431625,56.4938698,68.593071,56.1538391,68.6372223z"/>
		<path fill="#E1E6E9" d="M56.1538391,65.9705582l-12.473259,1.6196213    c-0.3400345,0.0441513-0.5787201,0.3658295-0.5329323,0.7184601c0.0457802,0.3525696,0.3587074,0.6026306,0.6987381,0.5584793    l12.473259-1.6196213c0.3400345-0.0441513,0.5784874-0.3658066,0.5327072-0.7183762    C56.8065643,66.1764908,56.4938698,65.9264069,56.1538391,65.9705582z"/>
		<path fill="#F6C358" d="M57.3085938,35.8755493c-0.3798828-0.1918945-0.8447266-0.121582-1.1503906,0.1791992    l-2.7294922,2.6772461l-2.7285156-2.6772461c-0.3886719-0.3818359-1.0117188-0.3818359-1.4003906,0l-2.7285156,2.6772461    l-2.7294922-2.6772461c-0.3076172-0.3022461-0.7744141-0.3725586-1.1591797-0.1743164    c-0.3837891,0.1977539-0.5966797,0.6201172-0.5283203,1.0463867l4.5419922,28.3567505h1.013916l0.986084-0.15802    L44.609375,39.6089478l1.2617188,1.237793c0.3886719,0.3818359,1.0117188,0.3818359,1.4003906,0L50,38.1694946    l2.7285156,2.6772461c0.3886719,0.3818359,1.0117188,0.3818359,1.4003906,0l1.3320313-1.3071289l-3.578125,25.605957    l0.9890137,0.1380005h1.0107422l3.9660645-28.37677C57.9082031,36.4829712,57.6904297,36.0684204,57.3085938,35.8755493z"/>
	</g>
</g>
</svg>
