<?xml version="1.0" encoding="utf-8"?>
<!-- Generator: Adobe Illustrator 21.0.2, SVG Export Plug-In . SVG Version: 6.00 Build 0)  -->
<svg xmlns="http://www.w3.org/2000/svg" xmlns:xlink="http://www.w3.org/1999/xlink" version="1.1" id="Layer_1" x="0px" y="0px" viewBox="0 0 100 100" enable-background="new 0 0 100 100" xml:space="preserve" width="512" height="512">
<g>
	<circle fill="#334D5C" cx="50" cy="50" r="48"/>
	<path opacity="0.1" d="M55.960022,22.5l-5.4100342,6.4699707L44.0800171,22.5L22.5,32.1300049l5.9799805,7.1499634h0.0100098   l-4.5999756,9.2900391l4.5999756,4.5999756v18.6599731l25.9572754,25.9572754   c23.5845337-2.1679688,42.2301636-21.3886719,43.4833984-45.2265625L77.5,32.1300049L55.960022,22.5z"/>
	<g>
		<polygon fill="#FCD462" points="49.9800529,63.7597542 71.4663391,58.0909424 71.4663391,29.7468853 49.9800529,29.6456852   "/>
		<polygon fill="#EAB659" points="49.9800529,63.7597542 28.4937649,58.0909424 28.4937649,29.7468853 49.9800529,29.6456852   "/>
		<polygon fill="#EAAF47" points="22.5000019,32.1334648 44.0756645,22.5 50.0558014,29.6456852 28.4801388,39.2791481   "/>
		<polygon fill="#F6C358" points="77.5,32.1334648 55.9601898,22.5 49.9800529,29.6456852 71.5198669,39.2791481   "/>
		<g>
			<polygon fill="#FCD462" points="49.9800529,77.5 28.4937649,71.831192 28.4937649,39.2791481 49.9800529,44.9479599    "/>
			<polygon fill="#F6C358" points="49.9800529,77.5 71.4663391,71.831192 71.4663391,39.2791481 49.9800529,44.9479599    "/>
		</g>
		<polygon fill="#F6C358" points="45.3758469,54.2405052 23.8895607,48.5716934 28.4937649,39.2791481 49.9800529,44.9479599   "/>
		<polygon fill="#EAAF47" points="53.458786,54.2405052 74.945076,48.5716934 71.4663391,39.2791481 49.9800529,44.9479599   "/>
	</g>
</g>
</svg>
