<?xml version="1.0" encoding="utf-8"?>
<!-- Generator: Adobe Illustrator 21.0.2, SVG Export Plug-In . SVG Version: 6.00 Build 0)  -->
<svg xmlns="http://www.w3.org/2000/svg" xmlns:xlink="http://www.w3.org/1999/xlink" version="1.1" id="Layer_1" x="0px" y="0px" viewBox="0 0 100 100" enable-background="new 0 0 100 100" xml:space="preserve" width="512" height="512">
<g>
	<circle fill="#EA8953" cx="50" cy="50" r="48"/>
	<path opacity="0.1" d="M95.7188721,64.6378174L54.039978,22.9500122c0-0.6000366-8.0799561-0.6000366-8.0799561,0v3.5699463   c-0.9500122,2.1200562-4.7000122,10.8200073-3.8699951,14.3900146v10.460022c0,0-0.75,5.2099609,0.0599976,10.4199829   C42.4199829,63.4799805,42.3599854,65.2099609,42,66.8800049c-0.5300293,2.4899902-1.0900269,6.1499634-0.8800049,9.0599976   c0.0200195,0.3200073,0.1699829,0.5999756,0.3900146,0.7999878H41.5l19.8889771,19.888916   C77.6489868,92.6706543,90.6638184,80.4384766,95.7188721,64.6378174z"/>
	<g>
		<path fill="#EBF0F3" d="M57.9996262,66.8813629c-0.3575249-1.6727676-0.4169884-3.3969498-0.1542625-5.0865898    c0.8114815-5.215126,0.0658875-10.42202,0.0658875-10.42202V40.9109383    c0.947258-4.0838852-4.0830917-14.8548145-4.0830917-14.8548145h-7.6559792c0,0-5.0303421,10.7709293-4.083889,14.8548145    v10.4618149c0,0-0.7447891,5.2068939,0.0658798,10.42202c0.2627258,1.68964,0.2032623,3.4138222-0.1542664,5.0865898    c-0.5309067,2.486702-1.0868225,6.1522446-0.884491,9.0606155c0.0406723,0.5845871,0.4921684,1.0575943,1.0747414,1.1207809    c5.2954102,0.5742569,10.506382,0.5897141,15.6267662,0.0057449c0.5795898-0.0661011,1.026741-0.5382919,1.0673637-1.1202164    C59.08741,73.0389099,58.5316505,69.3698578,57.9996262,66.8813629z"/>
		<path fill="#D15241" d="M45.9592323,22.9495697l-0.0000076,3.5772438c0-0.384182,8.0815544-0.384182,8.0815544,0v-3.5772438    C54.0407791,22.3501434,45.9592323,22.3501434,45.9592323,22.9495697z"/>
		<rect x="42.0882912" y="40.9109383" fill="#27A2DB" width="15.8467216" height="11.1629581"/>
		<g>
			<path fill="#FFFFFF" d="M43.8042984,48.9421959h-0.6595535v-4.899559h1.0284462l1.1794624,3.0769844l1.1790085-3.0769844     h1.0229912v4.899559h-0.6595535v-3.8271217l-1.3636856,3.3992882h-0.3688927l-1.358223-3.3992882V48.9421959z"/>
			<path fill="#FFFFFF" d="M48.6390495,44.0426369h0.6595497v4.899559h-0.6595497V44.0426369z"/>
			<path fill="#FFFFFF" d="M50.3829956,48.9421959v-4.899559h0.6595535v4.1146278h1.7830696v0.7849312H50.3829956z"/>
			<path fill="#FFFFFF" d="M53.5465775,44.0426369h0.6595535v2.3901672l1.7885246-2.3901672h0.8383141l-1.5706444,2.1448746     l1.5929337,2.7546844h-0.7823677l-1.2968178-2.1448746l-0.5699425,0.7712402v1.3736343h-0.6595535V44.0426369z"/>
		</g>
	</g>
</g>
</svg>
