<?xml version="1.0" encoding="utf-8"?>
<!-- Generator: Adobe Illustrator 21.0.2, SVG Export Plug-In . SVG Version: 6.00 Build 0)  -->
<svg xmlns="http://www.w3.org/2000/svg" xmlns:xlink="http://www.w3.org/1999/xlink" version="1.1" id="Layer_1" x="0px" y="0px" viewBox="0 0 100 100" enable-background="new 0 0 100 100" xml:space="preserve" width="512" height="512">
<g>
	<circle fill="#EA8953" cx="50" cy="50" r="48"/>
	<path opacity="0.1" d="M69.4000244,22.5H30.5999756c-1.3399658,0-2.4299927,1.0899658-2.4299927,2.4400024v50.1199951   c0,0.527832,0.1834717,1.0095215,0.4685059,1.4116821l-0.0084839,0.0083008l0.0483398,0.0483398   c0.1610107,0.2142944,0.3427124,0.4111328,0.5616455,0.5616455l20.906311,20.906311   c26.3973389-0.0792847,47.7780151-21.4638672,47.8503418-47.8627319L71.3599854,23.4899902   C70.9099731,22.8900146,70.2000122,22.5,69.4000244,22.5z"/>
	<g>
		<g>
			<path fill="#1C75A1" d="M69.3983536,27.6729317H28.1673241v47.390934c0,1.3454437,1.0906944,2.4361343,2.4361343,2.4361343     h38.7949791c1.3443909,0,2.4342422-1.0898438,2.4342422-2.4342422V30.1072559     C71.8326797,28.7628155,70.7427979,27.6729317,69.3983536,27.6729317z"/>
			<path fill="#EBF0F3" d="M64.1095123,69.9538651v2.4137878H30.8950005c-0.9671898,0-1.7512531,0.7840576-1.7512531,1.7512512l0,0     c0,0.9671936,0.7840633,1.7512512,1.7512531,1.7512512h38.5033531c1.3444443,0,2.4343262-1.0898819,2.4343262-2.4343185     v-3.4819717H64.1095123z"/>
			<path fill="#27A2DB" d="M69.3983536,22.5h-38.794899c-1.345438,0-2.4361305,1.0906925-2.4361305,2.4361305v47.390934h41.2311134     c1.3443909,0,2.4342422-1.0898438,2.4342422-2.4342346V24.9343243C71.8326797,23.5898838,70.7427979,22.5,69.3983536,22.5z"/>
			<rect x="33.3356819" y="22.5" fill="#FCD462" width="2.7719412" height="49.8270683"/>
			<rect x="33.3356819" y="72.3270645" fill="#F6C358" width="2.7719412" height="5.1729321"/>
		</g>
		<polygon fill="#E56353" points="61.1945877,77.5 58.9005928,76.1862793 56.6065979,77.5 56.6065979,72.9120102     61.1945877,72.9120102   "/>
		<rect x="43.0301208" y="33.5756912" fill="#2D93BA" width="19.3937874" height="1.4597474"/>
		<rect x="43.0301208" y="38.2677383" fill="#2D93BA" width="19.3937874" height="1.4597474"/>
		<rect x="43.0301208" y="42.9597816" fill="#2D93BA" width="19.3937874" height="1.4597474"/>
	</g>
</g>
</svg>
