<?xml version="1.0" encoding="utf-8"?>
<!-- Generator: Adobe Illustrator 21.0.2, SVG Export Plug-In . SVG Version: 6.00 Build 0)  -->
<svg xmlns="http://www.w3.org/2000/svg" xmlns:xlink="http://www.w3.org/1999/xlink" version="1.1" id="Layer_1" x="0px" y="0px" viewBox="0 0 100 100" enable-background="new 0 0 100 100" xml:space="preserve" width="512" height="512">
<g>
	<circle fill="#EFC84A" cx="50" cy="50" r="48"/>
	<path opacity="0.1" d="M76.7700195,40.8499756c-0.5599976-0.6499634-1.3699951-1.0700073-2.2900391-1.0700073H68.5   L55.539978,26.8200073l-2.4400024-2.5400391c-0.1900024-0.2000122-0.3999634-0.3699951-0.6199951-0.5199585   C51.9199829,23,51.0200195,22.5,50,22.5s-1.9199829,0.5-2.4899902,1.2600098   c-0.210022,0.1499634-0.4199829,0.3299561-0.6099854,0.5199585l-14.8900146,15.5h-6.4899902   c-1.6700439,0-3.0200195,1.3500366-3.0200195,3.0200195v31.6799927c0,0.7600098,0.289978,1.4500122,0.7600098,1.9899902H23.25   l0.0700073,0.0700073c0.0499878,0.0499878,0.0899658,0.0900269,0.1400146,0.1400146l20.9906616,20.9906616   C46.272522,97.8805542,48.1218872,98,50,98c22.7852783,0,41.8483887-15.8812866,46.7590942-37.1749268L76.7800293,40.8399658   L76.7700195,40.8499756z"/>
	<g>
		<g>
			<path fill="#64798A" d="M70.6721878,45.4598885L51.6575356,25.6678963c-0.875-0.9101563-2.4394531-0.9101563-3.3144531,0     L29.328434,45.4598885l-1.4414063-1.3857422l19.0146484-19.7919922c0.8173828-0.8510742,1.9179688-1.3198242,3.0986328-1.3198242     s2.28125,0.46875,3.0986328,1.3198242l19.0146523,19.7919922L70.6721878,45.4598885z"/>
		</g>
		<circle fill="#FCD462" cx="50" cy="25.607111" r="3.1071005"/>
		<path fill="#1C75A1" d="M74.482666,39.7794075h-48.965332c-1.6665039,0-3.017334,1.3509521-3.017334,3.017334v31.6859169    c0,1.6664429,1.3508301,3.017334,3.017334,3.017334h48.965332c1.6665039,0,3.017334-1.3508911,3.017334-3.017334V42.7967415    C77.5,41.1303596,76.1491699,39.7794075,74.482666,39.7794075z"/>
		<g>
			<polygon fill="#EBF0F3" points="25.5166035,74.4999313 25.5000019,42.7968025 74.4824219,42.7792244 74.5,74.4828415      74.4824219,74.4999313    "/>
			<polygon fill="#E1E6E9" points="39.2481689,74.4999313 59.0371475,42.7968025 74.4824219,42.7792244 74.5,74.4828415      74.4824219,74.4999313    "/>
		</g>
		<g>
			<path fill="#E56353" d="M32.7650337,62.7781181c0.5442505,0,1.0132446-0.1138687,1.4069824-0.3429756     c0.392643-0.2291031,0.803833-0.5952606,1.2335625-1.0977936l1.0176048,1.3071251     c-0.9914284,1.3739433-2.1955452,2.0612602-3.611248,2.0612602c-1.4167976,0-2.5914631-0.5700378-3.5250874-1.7094193     c-0.9336243-1.139389-1.4004364-2.5808372-1.4004364-4.3236694c0-1.7428284,0.4755383-3.1945076,1.4277039-4.3570747     c0.9510746-1.1612053,2.1530075-1.7421494,3.6047039-1.7421494c1.4516983,0,2.6645393,0.6702652,3.6385193,2.0107994     l-1.0045204,1.3739471c-0.4471779-0.5359421-0.8692741-0.9102821-1.2673721-1.123024     c-0.397007-0.2120552-0.8638191-0.318428-1.4004364-0.318428c-0.9467125,0-1.7418194,0.3832054-2.3853226,1.1482506     s-0.9652538,1.7428322-0.9652538,2.9326744c0,1.189846,0.3195686,2.1839943,0.9587097,2.9824524     C31.1322823,62.3792305,31.8892174,62.7781181,32.7650337,62.7781181z"/>
			<path fill="#E56353" d="M38.3536911,64.5714035V52.8577538h1.5814896v9.8364944h4.2754784v1.8771553H38.3536911z"/>
			<path fill="#E56353" d="M53.51091,62.9540367C52.5641975,64.1104736,51.3938942,64.6886902,50,64.6886902     c-1.3938904,0-2.5641937-0.5782166-3.5109062-1.7346535c-0.9478035-1.1557503-1.4211578-2.5971985-1.4211578-4.3229828     c0-1.7264671,0.4733543-3.1672363,1.4211578-4.3236656C47.4358063,53.1509552,48.6061096,52.5734215,50,52.5734215     c1.3938942,0,2.5641975,0.5775337,3.51091,1.7339668c0.9478035,1.1564293,1.4211578,2.5971985,1.4211578,4.3236656     C54.9320679,60.3568382,54.4587135,61.7982864,53.51091,62.9540367z M52.3526039,55.6226921     C51.7134628,54.7962799,50.9292641,54.3830719,50,54.3830719c-0.9292603,0-1.7134628,0.413208-2.3526001,1.2396202     c-0.6380501,0.827095-0.9576187,1.8294258-0.9576187,3.0083618c0,1.1789322,0.3195686,2.1812668,0.9576187,3.007679     C48.2865372,62.4658279,49.0707397,62.8790321,50,62.8790321c0.9292641,0,1.7134628-0.4132042,2.3526039-1.2402992     c0.6380501-0.8264122,0.9576187-1.8287468,0.9576187-3.007679C53.3102226,57.4521179,52.990654,56.4497871,52.3526039,55.6226921     z"/>
			<path fill="#E56353" d="M59.7637901,54.399437c-0.4602661,0-0.8376427,0.1172791-1.1321259,0.351841     c-0.2955742,0.2352409-0.4428177,0.5898056-0.4428177,1.0643806c0,0.4752541,0.1472435,0.8380051,0.4428177,1.0889282     c0.2944832,0.251606,0.921627,0.5229874,1.8825188,0.8127747c0.9598007,0.2911568,1.6840134,0.6989059,2.1715469,1.2232552     c0.4864464,0.5257149,0.7296677,1.2989426,0.7296677,2.3210487s-0.3075714,1.8519287-0.9249001,2.4887848     c-0.6162338,0.6368561-1.4244308,0.9552841-2.4256783,0.9552841c-1.4647865,0-2.7648811-0.6314011-3.899189-1.8935242     l0.9914284-1.4919052c0.9467125,1.028244,1.9294205,1.5416832,2.9481163,1.5416832     c0.5093498,0,0.9139938-0.1363716,1.212841-0.4104805c0.2999344-0.2734261,0.4493599-0.6368561,0.4493599-1.0889282     c0-0.452755-0.1406975-0.8045921-0.4220924-1.0561981c-0.2813988-0.2509232-0.7667503-0.4800301-1.4538803-0.6866341     c-0.688221-0.2066002-1.21175-0.3968391-1.5684013-0.570034c-0.3577461-0.1731911-0.6751328-0.3988876-0.9521675-0.6784477     c-0.5540657-0.525032-0.8300095-1.3296242-0.8300095-2.4130974s0.3141174-1.9187508,0.9445305-2.5051498     c0.6293259-0.5863991,1.4091606-0.8795967,2.3384247-0.8795967c0.5987854,0,1.1932068,0.1227341,1.7821732,0.3682022     c0.5900612,0.246151,1.099411,0.5925369,1.5280495,1.0391541l-0.8441887,1.4912224     c-0.2770348-0.3122902-0.6522293-0.5693512-1.1255875-0.7705002     C60.6908722,54.5003548,60.2240601,54.399437,59.7637901,54.399437z"/>
			<path fill="#E56353" d="M71.9521713,52.8577538v1.8601112h-4.9985962v3.1004143h4.4892426v1.7591934h-4.4892426v3.1338234     h5.1600189v1.8601074h-6.7415085V52.8577538H71.9521713z"/>
		</g>
	</g>
</g>
</svg>
