<?xml version="1.0" encoding="utf-8"?>
<!-- Generator: Adobe Illustrator 21.0.2, SVG Export Plug-In . SVG Version: 6.00 Build 0)  -->
<svg xmlns="http://www.w3.org/2000/svg" xmlns:xlink="http://www.w3.org/1999/xlink" version="1.1" id="Layer_1" x="0px" y="0px" viewBox="0 0 100 100" enable-background="new 0 0 100 100" xml:space="preserve" width="512" height="512">
<g>
	<circle fill="#E05B49" cx="50" cy="50" r="48"/>
	<path opacity="0.1" d="M97.2583618,58.3662109L69.4500122,30.5499878c-10.75-10.7399902-28.1500244-10.7399902-38.9000244,0   c-5.289978,5.2999878-7.9699707,12.210022-8.039978,19.1500244c-0.0200195,0.8699951,0.0200195,1.7399902,0.0899658,2.5999756   l0.0100098,0.0100098c0.0599976,0.8599854,0.1700439,1.7299805,0.3400269,2.5800171   c0.2999878,1.7199707,0.7699585,3.4099731,1.4199829,5.0599976c1.3300171,3.4599609,3.3900146,6.6999512,6.1799927,9.5   L58.366272,97.2583008C78.166687,93.7759399,93.776001,78.166626,97.2583618,58.3662109z"/>
	<g>
		<circle fill="#EBF0F3" cx="50" cy="50" r="27.5"/>
		<path fill="#27A2DB" d="M69.7396317,34.8425026c-0.8385696,0.6191483-1.5320282,1.1586952-2.6379013,1.0534477    c-1.7971725-0.1709404-2.5514145-1.7588005-3.9929276-2.5373497c-0.9177284-0.4957123-2.0217476-0.4455795-3.0630188-0.3824921    c-0.8606529,1.4411774-1.1390076,3.2194023-0.75951,4.8546371c-0.7358742-0.2020836-1.3394356,0.6426506-1.4735031,1.3938293    c-0.1340675,0.7512512-0.0896912,1.6050949-0.6034622,2.1691551c-0.3939438,0.432106-1.0184593,0.5709229-1.4698906,0.9423943    c-0.3256226,0.2679558-0.5493774,0.6564331-0.6179085,1.0723877c-0.1206512,0.7315674,0.4116974,1.5956764,1.1522179,1.5614395    c0.5715675-0.0264473,1.0000877-0.5428009,1.2275581-1.0677185c0.2276802-0.5249176,0.3383179-1.1075287,0.6653862-1.5769958    c0.7154388-1.0267677,2.2532425-1.15271,3.4023666-0.6571808c1.1490173,0.4955559,2.0201988,1.4531479,2.9198685,2.3229103    c0.8996658,0.8697624,1.9390793,1.7107315,3.1811905,1.8626289c-1.1561432,1.1053085-2.8760071,1.5865936-4.4377556,1.2418518    c-1.128994-0.2492218-2.1581879-0.8948669-3.308239-1.0155678c-1.1394196-0.1196976-2.2985535,0.3064499-3.1858368,1.031723    c-1.2167206,0.9948769-1.9436188,2.5433083-2.0016212,4.1141167c-0.0397339,1.0740356,0.3524551,2.3147278,1.3593559,2.6902542    c1.2941322,0.4824219,2.7512245-0.7384567,4.0611458-0.3020134c0.7676659,0.2556992,1.258316,1.0344048,1.4325333,1.8244133    c0.1743164,0.7899551,0.0941238,1.6100502,0.0782318,2.4188156c-0.0301361,1.5593491,0.184124,3.1232147,0.6325645,4.6169739    c0.3273735,1.0900612,1.1417923,2.3533058,2.255928,2.1215782c0.5729065-0.1190796,0.9842987-0.6166458,1.2867966-1.1173096    c1.6124268-2.6702576,1.4033279-6.0517769,2.4909363-8.9753838c1.0446777-2.808403,3.2653046-5.0716591,5.8348846-6.6127663    c0.7605438-0.4562569,1.5719681-0.8697624,2.1601486-1.5336227c0.321701-0.3628044,0.5576401-0.7819862,0.7313385-1.2311745    c-0.7258682-4.0559578-2.3392181-7.8016205-4.6347809-11.0320435    C71.5657959,33.9598923,70.6571503,34.1649933,69.7396317,34.8425026z"/>
		<path fill="#27A2DB" d="M52.2064934,26.8619957c-2.7363625-0.0760403-5.471283-0.0979977-8.2083664-0.026268    c-0.7770576,0.020359-2.2710991-0.2343082-2.1350708,0.9725838c0.1038246,0.9202328,2.126503,1.4229088,2.8326569,1.7569675    c0.2196274,0.1040077,0.4521523,0.2190094,0.576931,0.4275932c0.1419144,0.2368622,0.1112595,0.5339985,0.0862846,0.8090744    c-0.0848389,0.9448471-0.0411797,1.9012012,0.1294212,2.8344898c1.0752258-0.1160316,1.871376-1.0032883,2.7201614-1.6738071    c0.8737602-0.690361,1.8868523-1.1882133,2.7591705-1.8803539c0.8727303-0.6921406,1.626873-1.6597195,1.6714592-2.7724342    c0.0050583-0.1248817-0.0046425-0.2639294-0.0943336-0.3510628    C52.4587326,26.8749733,52.3266258,26.8659687,52.2064934,26.8619957z"/>
		<path fill="#27A2DB" d="M25.3283558,42.6175499c-0.0621319,0.9881134-0.2739658,1.9709702-0.2130222,2.9591637    c0.1118774,1.8031502,1.1098003,3.4144135,2.0787201,4.9392166c0.7987804,1.2573318,1.8320503,2.6560898,3.3208313,2.7077713    c-0.6358662-1.0062027-0.9008541-2.2412987-0.7331924-3.4197311c0.0253887-0.1784706,0.0644016-0.3642197,0.1804085-0.5021858    c0.1891804-0.224556,0.5153198-0.2548981,0.7941875-0.3472176c0.6746731-0.2234726,1.1197071-0.8490448,1.534605-1.4263916    c1.9999733-2.7843285,4.3900719-5.2881355,7.0781326-7.4156723c1.2857704-1.0176086,2.6705132-1.9825554,3.55439-3.3637924    c-0.821949-1.0403938-2.317646-1.2976646-3.63097-1.114315c-1.3131218,0.1833229-2.5518265,0.7208557-3.8536987,0.971962    c-0.5006638,0.0966034-1.1090775,0.1118279-1.4201469-0.2924385c-0.3412056-0.4433823-0.0988731-1.0829926,0.1802025-1.5677605    c0.4996338-0.8673897,1.0912209-1.6817017,1.7620773-2.4248276c0.7287521-0.8076324,1.8365898-1.5839653,2.8230553-1.125412    c0.5621758,0.2613506,1.0793533,0.9052391,1.6542244,0.672945c0.4484406-0.1811829,0.5279121-0.834671,0.2676201-1.2422409    c-0.260601-0.4075451-0.7342262-0.6187611-1.188549-0.7844353c-0.7936707-0.2893448-1.6385345-0.5105457-2.4769974-0.4085503    c-0.8385696,0.1020203-1.672184,0.5847015-1.994194,1.3656273c-0.1333427,0.3238411-0.207653,0.7241344-0.5201683,0.8824558    c-0.2286072,0.1159039-0.5037613,0.0529976-0.7500153-0.0193768c-1.051178-0.3093662-2.0614834-0.7548409-3.0024338-1.3164234    c-2.486805,2.4330101-4.5113411,5.3334465-5.9361324,8.5600243    C25.2333527,40.0978203,25.4071045,41.3638763,25.3283558,42.6175499z"/>
		<path fill="#27A2DB" d="M44.757122,58.9891777c-2.5223122-1.4314995-5.1426659-3.4668198-7.8212318-4.5448303    c-1.2719421-0.5118599-1.6253281,0.0124893-1.9885178,1.2308884c-0.2118874,0.7104874-0.3257256,1.2256508-0.7585793,1.8404617    c-0.3470917,0.4928741-0.9019394,0.82621-0.9696426,1.4814034c-0.0545998,0.5264397,0.2563705,1.0135841,0.5538139,1.451313    c0.6929436,1.0194168,1.3908386,2.0448189,2.2518005,2.9270401c0.3175735,0.3253937,0.6590881,0.6335716,0.9106064,1.0123482    c0.2642136,0.3980484,0.4187164,0.8602676,0.5130501,1.3286514c0.5048943,2.5030823-0.5778656,5.4017181,0.8894501,7.4915314    c0.7810783-2.3973465,1.6381226-4.914032,3.5266266-6.584404c1.0947342-0.9683304,2.4736977-1.5876846,3.5066071-2.6218033    c1.0328064-1.0340729,1.6351318-2.7691612,0.7696266-3.9469719C45.7933311,59.5819817,45.2672806,59.2787552,44.757122,58.9891777    z"/>
	</g>
</g>
</svg>
