<?xml version="1.0" encoding="utf-8"?>
<!-- Generator: Adobe Illustrator 21.0.2, SVG Export Plug-In . SVG Version: 6.00 Build 0)  -->
<svg xmlns="http://www.w3.org/2000/svg" xmlns:xlink="http://www.w3.org/1999/xlink" version="1.1" id="Layer_1" x="0px" y="0px" viewBox="0 0 100 100" enable-background="new 0 0 100 100" xml:space="preserve" width="512" height="512">
<g>
	<circle fill="#EA8953" cx="50" cy="50" r="48"/>
	<path opacity="0.1" d="M62.4799805,26.2799683h-7.8999634L53.5499878,25.25   c-0.2399902-0.25-0.5700073-0.4000244-0.9400024-0.4000244h-5.2799683l-1.5100098-1.5l-0.2000122-0.2099609   C45.1799927,22.7399902,44.5999756,22.5,43.9500122,22.5c-1.3400269,0-2.4199829,1.039978-2.5,2.3499756h-6.1699829   c-0.710022,0-1.3000488,0.5800171-1.3000488,1.2999878v0.1300049h-8.5700073c-0.7299805,0-1.3199463,0.5900269-1.3199463,1.3200073   v48.5800171c0,0.3200073,0.1199951,0.6199951,0.3199463,0.8499756L45.135498,97.7554932C46.7352295,97.9165039,48.3578491,98,50,98   c23.0188599,0,42.2437134-16.2068481,46.9102173-37.8297729L63.3699951,26.6300049   C63.1400146,26.4099731,62.8200073,26.2799683,62.4799805,26.2799683z"/>
	<g>
		<path fill="#27A2DB" d="M62.4816399,26.2818336H25.4139881c-0.7307549,0-1.3231449,0.5923901-1.3231449,1.3231449V76.176857    c0,0.730751,0.5923901,1.323143,1.3231449,1.323143h37.0676498c0.7308731,0,1.323143-0.592392,1.323143-1.323143V27.6049786    C63.8047829,26.8742237,63.212513,26.2818336,62.4816399,26.2818336z"/>
		<rect x="26.0908794" y="29.2816143" fill="#E1E6E9" width="35.7138672" height="46.2182617"/>
		<rect x="26.0908794" y="28.2816143" fill="#EBF0F3" width="35.7138672" height="46.2182617"/>
		<path fill="#64798A" d="M52.6114693,24.8508186h-6.1637459C46.3607025,23.5397263,45.2810211,22.5,43.9477539,22.5    c-1.3330269,0-2.4129486,1.0397263-2.4998512,2.3508186h-6.1637459c-0.7182198,0-1.3004875,0.5822048-1.3004875,1.3004246    v4.4595566h19.9282875v-4.4595566C53.9119568,25.4330235,53.3296928,24.8508186,52.6114693,24.8508186z"/>
		<g>
			<path fill="#64798A" d="M35.201252,38.8040771h-4.9365234v-4.9370117h4.9365234V38.8040771z M31.0147285,38.0540771h3.4365234     v-3.4370117h-3.4365234V38.0540771z"/>
		</g>
		<g>
			<rect x="37.1758614" y="35.8353271" fill="#64798A" width="19.0537109" height="1"/>
		</g>
		<g>
			<path fill="#64798A" d="M35.201252,46.4083443h-4.9365234v-4.9370117h4.9365234V46.4083443z M31.0147285,45.6583443h3.4365234     v-3.4370117h-3.4365234V45.6583443z"/>
		</g>
		<g>
			<rect x="37.1758614" y="43.4395943" fill="#64798A" width="19.0537109" height="1"/>
		</g>
		<g>
			<path fill="#64798A" d="M35.201252,54.0126152h-4.9365234v-4.9370117h4.9365234V54.0126152z M31.0147285,53.2626152h3.4365234     v-3.4370117h-3.4365234V53.2626152z"/>
		</g>
		<g>
			<rect x="37.1758614" y="51.0438652" fill="#64798A" width="19.0537109" height="1"/>
		</g>
		<g>
			<path fill="#64798A" d="M35.201252,61.6168861h-4.9365234v-4.9370117h4.9365234V61.6168861z M31.0147285,60.8668861h3.4365234     v-3.4370117h-3.4365234V60.8668861z"/>
		</g>
		<g>
			<rect x="37.1758614" y="58.6481361" fill="#64798A" width="19.0537109" height="1"/>
		</g>
		<g>
			<path fill="#64798A" d="M35.201252,69.2211533h-4.9365234v-4.9370117h4.9365234V69.2211533z M31.0147285,68.4711533h3.4365234     v-3.4370117h-3.4365234V68.4711533z"/>
		</g>
		<g>
			<rect x="37.1758614" y="66.2524033" fill="#64798A" width="19.0537109" height="1"/>
		</g>
		<circle fill="#E56353" cx="63.9463577" cy="65.5371933" r="11.9628029"/>
		<g>
			<polygon fill="#E56353" points="32.8636818,37.6948242 31.5746193,36.4057617 32.2816505,35.6987305 32.9164162,36.3334961      35.6761818,33.9711914 36.3265724,34.730957    "/>
		</g>
		<g>
			<polygon fill="#E56353" points="32.8636818,44.9464569 31.5746193,43.6573944 32.2816505,42.9503632 32.9164162,43.5851288      35.6761818,41.2228241 36.3265724,41.9825897    "/>
		</g>
		<g>
			<polygon fill="#E56353" points="32.8636818,52.1980858 31.5746193,50.9090233 32.2816505,50.201992 32.9164162,50.8367577      35.6761818,48.474453 36.3265724,49.2342186    "/>
		</g>
		<g>
			<path fill="#FFFFFF" d="M68.7647858,70.7039642c-0.7398071,0-1.3717804,0.4600296-1.6318054,1.1082382h-3.9358292     c-0.2600212-0.6482086-0.892292-1.1082382-1.6329803-1.1082382c-0.7398033,0-1.3717804,0.4600296-1.6318016,1.1082382h-0.6681175     c-0.481842,0-0.8743668-0.3919373-0.8743668-0.8737793s0.3925247-0.8737869,0.8743668-0.8737869h11.6053619l1.6171112-8.9898911     H58.1439705l-0.4603958-2.2264671H55.405983v1.2034302h1.297451l1.8499527,8.9428139     c-0.7951851,0.291748-1.3669357,1.0492554-1.3669357,1.9439011c0,1.145256,0.9319572,2.0772095,2.0778008,2.0772095h0.6362419     c0.2325478,0.7005844,0.8862648,1.2104874,1.6636772,1.2104874c0.7782936,0,1.4323082-0.509903,1.664856-1.2104874h3.8720779     c0.2325516,0.7005844,0.8862686,1.2104874,1.663681,1.2104874c0.7782898,0,1.4323044-0.509903,1.664856-1.2104874h0.9594269     v-1.2034302h-0.9913025C70.1377411,71.1639938,69.5054703,70.7039642,68.7647858,70.7039642z M71.0482483,62.2781754     l-1.1846237,6.5830307h-10.10989l-1.3609123-6.5830307H71.0482483z M61.5641708,73.0226822     c-0.3067322,0-0.5570564-0.2503204-0.5570564-0.5576401c0-0.3073273,0.2503242-0.5576477,0.5570564-0.5576477     c0.3079109,0,0.5582352,0.2503204,0.5582352,0.5576477C62.122406,72.7723618,61.8720818,73.0226822,61.5641708,73.0226822z      M68.7647858,73.0226822c-0.3067322,0-0.5570602-0.2503204-0.5570602-0.5576401     c0-0.3073273,0.2503281-0.5576477,0.5570602-0.5576477c0.3079071,0,0.5582352,0.2503204,0.5582352,0.5576477     C69.3230209,72.7723618,69.0726929,73.0226822,68.7647858,73.0226822z"/>
			<rect x="60.43713" y="63.7713013" fill="#FFFFFF" width="1.2034321" height="3.6661193"/>
			<rect x="62.7911072" y="63.7713013" fill="#FFFFFF" width="1.2034321" height="3.6661193"/>
			<rect x="65.1450882" y="63.7713013" fill="#FFFFFF" width="1.2034321" height="3.6661193"/>
			<rect x="67.5002441" y="63.7713013" fill="#FFFFFF" width="1.2034321" height="3.6661193"/>
		</g>
		<g>
			<path fill="#FCD462" d="M63.7730789,30.529314L45.8707771,49.7630234     c-0.1306648,0.1403847-0.223423,0.3118324-0.2693214,0.4981728l-0.8017349,3.2485466     c0.4950485,0.0585709,0.9770241,0.2621727,1.3698463,0.6278038c0.3929482,0.3657494,0.6305466,0.8319054,0.7244186,1.3214874     l3.1829185-1.0321922c0.1824493-0.0592422,0.3468132-0.1640396,0.477478-0.3044243l17.9023056-19.2337112     C69.0680313,34.2316437,64.3844223,29.8722515,63.7730789,30.529314z"/>
			<path fill="#DC8744" d="M62.6147499,34.9040642L47.4379005,51.2096252     c-0.4012337,0.431076-0.3770409,1.1058502,0.0540962,1.5071449s1.1059113,0.3771019,1.5071487-0.0539742L64.1759949,36.357235     L62.6147499,34.9040642z"/>
			<path fill="#F6C358" d="M61.0536308,33.4510117L45.8767815,49.7565727     c-0.4012337,0.431076-0.3770409,1.1058502,0.0540962,1.5071449c0.4311409,0.4012909,1.1059151,0.3771019,1.5071487-0.0539742     L62.614872,34.9041824L61.0536308,33.4510117z"/>
			<path fill="#F6C358" d="M64.1759949,36.357235L48.9991455,52.662796     c-0.4012375,0.431076-0.3770447,1.1058502,0.0540962,1.5071449c0.4311371,0.4012909,1.1059113,0.3771019,1.5071449-0.0539742     L65.737236,37.8104057L64.1759949,36.357235z"/>
			<path fill="#64798A" d="M44.7997208,53.5097427l-0.5209694,2.1108742     c-0.0803795,0.3254013,0.2281494,0.6125755,0.5470886,0.5092163l2.0681458-0.6707993     c-0.0938721-0.4895821-0.3314705-0.9557381-0.7244186-1.3214874     C45.7767448,53.7719154,45.2947693,53.5683136,44.7997208,53.5097427z"/>
			<path fill="#E56353" d="M68.4566879,34.8887062c0.6113434-0.6570625-4.0722656-5.0164547-4.683609-4.3593922     l-2.2762184,2.4455051l4.6836052,4.3593941L68.4566879,34.8887062z"/>
		</g>
	</g>
</g>
</svg>
