<?xml version="1.0" encoding="utf-8"?>
<!-- Generator: Adobe Illustrator 21.0.2, SVG Export Plug-In . SVG Version: 6.00 Build 0)  -->
<svg xmlns="http://www.w3.org/2000/svg" xmlns:xlink="http://www.w3.org/1999/xlink" version="1.1" id="Layer_1" x="0px" y="0px" viewBox="0 0 100 100" enable-background="new 0 0 100 100" xml:space="preserve" width="512" height="512">
<g>
	<circle fill="#E05B49" cx="50" cy="50" r="48"/>
	<path opacity="0.1" d="M97.1731567,58.8431396l-32.663147-32.663147c-0.2700195-0.2700195-0.6300049-0.4400024-1.0400391-0.4400024   h-1.7699585L58.460022,22.5H38.5599976c-0.1699829,1.2199707-0.2799683,2.2600098-0.3499756,3.2399902h-1.6799927   c-0.8000488,0-1.4500122,0.6500244-1.4500122,1.4500122v48.8599854c0,0.4199829,0.1799927,0.7999878,0.4699707,1.0599976v0.0100098   l20.4885254,20.4885254C76.7724609,95.0039673,93.3828735,79.1843872,97.1731567,58.8431396z"/>
	<g>
		<path fill="#64798A" d="M63.4728355,25.7424698H36.5271683c-0.8011284,0-1.4506264,0.6494961-1.4506264,1.4506836v48.856163    c0,0.8011856,0.649498,1.4506836,1.4506264,1.4506836h26.9456673c0.8011284,0,1.4506264-0.649498,1.4506264-1.4506836v-48.856163    C64.9234619,26.3919659,64.2739639,25.7424698,63.4728355,25.7424698z"/>
		<rect x="61.1116066" y="25.7424698" fill="#3A556A" width="0.7326329" height="51.7575302"/>
		<path fill="#44C4A1" d="M58.4128418,35.6064072h-19.803833c-0.5523682,0-1,0.4476929-1,1v10.4822388c0,0.5522461,0.4476318,1,1,1    h19.803833c0.5523682,0,1-0.4477539,1-1V36.6064072C59.4128418,36.0541,58.96521,35.6064072,58.4128418,35.6064072z"/>
		<path fill="#3EA69B" d="M37.6090088,46.5283432v0.5603027c0,0.5522461,0.4476318,1,1,1h19.803833c0.5523682,0,1-0.4477539,1-1    v-0.5603027H37.6090088z"/>
		<path fill="#27A2DB" d="M58.9128418,54.5381699h-2.6011963c-0.276123,0-0.5,0.223877-0.5,0.5v2.6012573    c0,0.2761841,0.223877,0.5,0.5,0.5h2.6011963c0.2762451,0,0.5-0.2238159,0.5-0.5v-2.6012573    C59.4128418,54.7620468,59.1890869,54.5381699,58.9128418,54.5381699z"/>
		<rect x="37.9363213" y="51.1119003" fill="#FCD462" width="3.6012504" height="1.5643671"/>
		<rect x="43.8947525" y="51.1119003" fill="#27A2DB" width="3.6012504" height="1.5643671"/>
		<rect x="49.8531837" y="51.1119003" fill="#44C4A1" width="3.6012504" height="1.5643671"/>
		<rect x="55.8116188" y="51.1119003" fill="#E56353" width="3.6012504" height="1.5643671"/>
		<path fill="#FCD462" d="M58.9128418,60.1037827h-2.6011963c-0.276123,0-0.5,0.2238159-0.5,0.5v2.6011963    c0,0.2761841,0.223877,0.5,0.5,0.5h2.6011963c0.2762451,0,0.5-0.2238159,0.5-0.5v-2.6011963    C59.4128418,60.3275986,59.1890869,60.1037827,58.9128418,60.1037827z"/>
		<g>
			<path fill="#EBF0F3" d="M41.0375977,54.5381699h-2.6011963c-0.2762451,0-0.5,0.223877-0.5,0.5v2.6012573     c0,0.2761841,0.2237549,0.5,0.5,0.5h2.6011963c0.276123,0,0.5-0.2238159,0.5-0.5v-2.6012573     C41.5375977,54.7620468,41.3137207,54.5381699,41.0375977,54.5381699z"/>
			<path fill="#EBF0F3" d="M46.9959717,54.5381699h-2.6011963c-0.2762451,0-0.5,0.223877-0.5,0.5v2.6012573     c0,0.2761841,0.2237549,0.5,0.5,0.5h2.6011963c0.276123,0,0.5-0.2238159,0.5-0.5v-2.6012573     C47.4959717,54.7620468,47.2720947,54.5381699,46.9959717,54.5381699z"/>
			<path fill="#EBF0F3" d="M52.9544678,54.5381699h-2.6013184c-0.276123,0-0.5,0.223877-0.5,0.5v2.6012573     c0,0.2761841,0.223877,0.5,0.5,0.5h2.6013184c0.276123,0,0.5-0.2238159,0.5-0.5v-2.6012573     C53.4544678,54.7620468,53.2305908,54.5381699,52.9544678,54.5381699z"/>
			<path fill="#EBF0F3" d="M41.0375977,60.1037827h-2.6011963c-0.2762451,0-0.5,0.2238159-0.5,0.5v2.6011963     c0,0.2761841,0.2237549,0.5,0.5,0.5h2.6011963c0.276123,0,0.5-0.2238159,0.5-0.5v-2.6011963     C41.5375977,60.3275986,41.3137207,60.1037827,41.0375977,60.1037827z"/>
			<path fill="#EBF0F3" d="M46.9959717,60.1037827h-2.6011963c-0.2762451,0-0.5,0.2238159-0.5,0.5v2.6011963     c0,0.2761841,0.2237549,0.5,0.5,0.5h2.6011963c0.276123,0,0.5-0.2238159,0.5-0.5v-2.6011963     C47.4959717,60.3275986,47.2720947,60.1037827,46.9959717,60.1037827z"/>
			<path fill="#EBF0F3" d="M52.9544678,60.1037827h-2.6013184c-0.276123,0-0.5,0.2238159-0.5,0.5v2.6011963     c0,0.2761841,0.223877,0.5,0.5,0.5h2.6013184c0.276123,0,0.5-0.2238159,0.5-0.5v-2.6011963     C53.4544678,60.3275986,53.2305908,60.1037827,52.9544678,60.1037827z"/>
			<path fill="#EBF0F3" d="M41.0375977,65.6693344h-2.6011963c-0.2762451,0-0.5,0.223877-0.5,0.5v2.6012573     c0,0.276123,0.2237549,0.5,0.5,0.5h2.6011963c0.276123,0,0.5-0.223877,0.5-0.5v-2.6012573     C41.5375977,65.8932114,41.3137207,65.6693344,41.0375977,65.6693344z"/>
			<path fill="#EBF0F3" d="M46.9959717,65.6693344h-2.6011963c-0.2762451,0-0.5,0.223877-0.5,0.5v2.6012573     c0,0.276123,0.2237549,0.5,0.5,0.5h2.6011963c0.276123,0,0.5-0.223877,0.5-0.5v-2.6012573     C47.4959717,65.8932114,47.2720947,65.6693344,46.9959717,65.6693344z"/>
			<path fill="#EBF0F3" d="M52.9544678,65.6693344h-2.6013184c-0.276123,0-0.5,0.223877-0.5,0.5v2.6012573     c0,0.276123,0.223877,0.5,0.5,0.5h2.6013184c0.276123,0,0.5-0.223877,0.5-0.5v-2.6012573     C53.4544678,65.8932114,53.2305908,65.6693344,52.9544678,65.6693344z"/>
			<path fill="#EBF0F3" d="M41.0375977,71.2348862h-2.6011963c-0.2762451,0-0.5,0.223877-0.5,0.5v2.6012573     c0,0.276123,0.2237549,0.5,0.5,0.5h2.6011963c0.276123,0,0.5-0.223877,0.5-0.5v-2.6012573     C41.5375977,71.4587631,41.3137207,71.2348862,41.0375977,71.2348862z"/>
			<path fill="#EBF0F3" d="M46.9959717,71.2348862h-2.6011963c-0.2762451,0-0.5,0.223877-0.5,0.5v2.6012573     c0,0.276123,0.2237549,0.5,0.5,0.5h2.6011963c0.276123,0,0.5-0.223877,0.5-0.5v-2.6012573     C47.4959717,71.4587631,47.2720947,71.2348862,46.9959717,71.2348862z"/>
			<path fill="#EBF0F3" d="M52.9544678,71.2348862h-2.6013184c-0.276123,0-0.5,0.223877-0.5,0.5v2.6012573     c0,0.276123,0.223877,0.5,0.5,0.5h2.6013184c0.276123,0,0.5-0.223877,0.5-0.5v-2.6012573     C53.4544678,71.4587631,53.2305908,71.2348862,52.9544678,71.2348862z"/>
		</g>
		<path fill="#E56353" d="M58.9128418,65.6693344h-2.6011963c-0.276123,0-0.5,0.223877-0.5,0.5v8.1668091    c0,0.276123,0.223877,0.5,0.5,0.5h2.6011963c0.2762451,0,0.5-0.223877,0.5-0.5v-8.1668091    C59.4128418,65.8932114,59.1890869,65.6693344,58.9128418,65.6693344z"/>
		<rect x="37.6089325" y="32.3298378" fill="#3A556A" width="21.8039341" height="1.2903153"/>
		<path fill="#EBF0F3" d="M58.4647026,32.7773399c-7.962822,0-11.9444618,0-19.9076271,0    c-0.5590897-4.0357246-0.5606995-6.2391815,0-10.2773399c7.9631653,0,11.9448051,0,19.9076271,0    C57.9076805,26.5381584,57.9051514,28.7416153,58.4647026,32.7773399z"/>
		<rect x="40.8566208" y="24.2720852" fill="#E1E6E9" width="15.2828074" height="0.941046"/>
		<rect x="40.317173" y="27.4072208" fill="#E1E6E9" width="15.281889" height="0.941046"/>
		<rect x="40.8566208" y="30.5428143" fill="#E1E6E9" width="15.2828074" height="0.941046"/>
	</g>
</g>
</svg>
