<?xml version="1.0" encoding="utf-8"?>
<!-- Generator: Adobe Illustrator 21.0.2, SVG Export Plug-In . SVG Version: 6.00 Build 0)  -->
<svg xmlns="http://www.w3.org/2000/svg" xmlns:xlink="http://www.w3.org/1999/xlink" version="1.1" id="Layer_1" x="0px" y="0px" viewBox="0 0 100 100" enable-background="new 0 0 100 100" xml:space="preserve" width="512" height="512">
<g>
	<circle fill="#E05B49" cx="50" cy="50" r="48"/>
	<path opacity="0.1" d="M30.1199951,22.5v9.7199707h-3.8399658c-2.0900269,0-3.7800293,1.7000122-3.7800293,3.7900391v29.9699707   L24.0200195,67.5l30.2970581,30.2971191c21.0738525-1.8798828,38.2218018-17.3717651,42.5931396-37.6268921L59.2399902,22.5   H30.1199951z"/>
	<g>
		<g>
			<g>
				<rect x="30.1181622" y="22.5" fill="#D5D6DB" width="29.1255531" height="19.5075493"/>
				<path fill="#E1E6E9" d="M59.1943893,36.0111694v5.9963799H51.629097v-5.9963799      c0-2.0955391,1.6871071-3.782711,3.782711-3.782711C57.4966545,32.2284584,59.1943893,33.9156303,59.1943893,36.0111694z"/>
				<path fill="#EBF0F3" d="M51.6255531,36.0099907c0-2.0904236,1.6945877-3.7850113,3.7850761-3.7850113H26.2849445      c-2.0903568,0-3.7849426,1.6945877-3.7849426,3.7850113v29.9748116L24.0152645,67.5l1.8771877-1.877121L27.7696419,67.5      l1.8771896-1.877121L31.5240211,67.5l1.8771896-1.877121L35.2783966,67.5l1.8771896-1.877121L39.0327759,67.5      l1.8771896-1.877121L42.7871552,67.5l1.8771896-1.877121L46.5415344,67.5l1.8771858-1.877121L50.2959099,67.5      l1.3296432-1.3295746V36.0099907z"/>
			</g>
			<g>
				<path fill="#E56353" d="M27.683672,45.1967392v-0.8759766c-1.0966797-0.1118164-2.0810547-0.5478516-2.9521484-1.3076172      l0.8759766-1.0439453c0.671875,0.5839844,1.3632813,0.9316406,2.0761719,1.0439453v-2.328125      c-0.9042969-0.2158203-1.5664063-0.5-1.9863281-0.8520508s-0.6298828-0.8740234-0.6298828-1.565918      s0.2412109-1.2578125,0.7255859-1.6982422c0.484375-0.4399414,1.1142578-0.6796875,1.890625-0.7197266v-0.6000977h0.7675781      v0.6118164c0.8798828,0.0644531,1.7119141,0.3642578,2.4960938,0.9003906l-0.7802734,1.1040039      c-0.5283203-0.3759766-1.0996094-0.6079102-1.7158203-0.6962891v2.2558594h0.0361328      c0.9199219,0.2163086,1.5957031,0.5083008,2.0273438,0.8759766c0.4326172,0.3681641,0.6484375,0.9023438,0.6484375,1.6020508      c0,0.7001953-0.2480469,1.2705078-0.7441406,1.7099609c-0.4960938,0.4404297-1.1513672,0.6801758-1.9677734,0.7202148v0.8637695      H27.683672z M26.8369923,37.4511337c-0.2041016,0.1796875-0.3056641,0.4038086-0.3056641,0.671875      s0.0800781,0.4799805,0.2402344,0.6357422c0.1591797,0.15625,0.4638672,0.3061523,0.9121094,0.4501953v-2.0761719      C27.3233204,37.1650009,27.0410938,37.2709579,26.8369923,37.4511337z M29.3633595,42.7128525      c0.2236328-0.1835938,0.3359375-0.4155273,0.3359375-0.6958008c0-0.2797852-0.0878906-0.5019531-0.2636719-0.6660156      c-0.1767578-0.1640625-0.5048828-0.3178711-0.984375-0.4619141v2.159668      C28.8350391,43.0092392,29.1387501,42.8969345,29.3633595,42.7128525z"/>
			</g>
			<g>
				<rect x="34.4095154" y="36.2466774" fill="#D5D6DB" width="14.0585938" height="1"/>
			</g>
			<g>
				<rect x="34.4095154" y="41.068531" fill="#D5D6DB" width="14.0585938" height="1"/>
			</g>
			<g>
				<rect x="24.7315235" y="45.8903885" fill="#D5D6DB" width="23.7365875" height="1"/>
			</g>
			<g>
				<rect x="24.7315235" y="50.7122459" fill="#D5D6DB" width="23.7365875" height="1"/>
			</g>
			<g>
				<rect x="24.7315235" y="55.5341034" fill="#D5D6DB" width="23.7365875" height="1"/>
			</g>
			<g>
				<rect x="24.7315235" y="60.355957" fill="#D5D6DB" width="23.7365875" height="1"/>
			</g>
		</g>
		<g>
			<path fill="#64798A" d="M76.3685913,41.7802048l-22.8414001-8.4628563     c-0.8974152-0.3324966-1.8945198,0.1254921-2.2270622,1.0230217l-11.989994,32.3612137     c-0.3325195,0.8974762,0.1254463,1.8946381,1.0228615,2.2271347l22.8414001,8.4628525     c0.8975334,0.3325424,1.8946571-0.1255035,2.2271767-1.0229721L77.391571,44.0073814     C77.7241058,43.1098518,77.2661209,42.1127434,76.3685913,41.7802048z"/>
			
				<rect x="58.2389069" y="33.393013" transform="matrix(0.3474255 -0.9377076 0.9377076 0.3474255 -0.7960069 87.4674072)" fill="#27A2DB" width="8.4112177" height="21.8251953"/>
			
				<rect x="60.4676743" y="36.5956078" transform="matrix(0.3474255 -0.9377076 0.9377076 0.3474255 -4.5734348 88.4446793)" fill="#2D93BA" width="1.5805279" height="21.8251953"/>
			
				<ellipse transform="matrix(0.3474255 -0.9377076 0.9377076 0.3474255 -14.5264349 80.2607803)" fill="#EBF0F3" cx="50.4015694" cy="50.5671654" rx="1.7952585" ry="1.7952585"/>
			
				<ellipse transform="matrix(0.3474255 -0.9377076 0.9377076 0.3474255 -12.7872076 86.9833984)" fill="#EBF0F3" cx="56.1011696" cy="52.6788979" rx="1.7952585" ry="1.7952585"/>
			
				<ellipse transform="matrix(0.3474255 -0.9377076 0.9377076 0.3474255 -11.0479803 93.7060165)" fill="#EBF0F3" cx="61.800766" cy="54.7906265" rx="1.7952585" ry="1.7952585"/>
			
				<ellipse transform="matrix(0.3474255 -0.9377076 0.9377076 0.3474255 -9.308754 100.4286346)" fill="#FCD462" cx="67.5003662" cy="56.902359" rx="1.7952585" ry="1.7952585"/>
			
				<ellipse transform="matrix(0.3474255 -0.9377076 0.9377076 0.3474255 -20.4529724 81.7940521)" fill="#EBF0F3" cx="48.5399055" cy="55.5918274" rx="1.7952585" ry="1.7952585"/>
			
				<ellipse transform="matrix(0.3474255 -0.9377076 0.9377076 0.3474255 -18.7137451 88.5166702)" fill="#EBF0F3" cx="54.2395058" cy="57.7035561" rx="1.7952585" ry="1.7952585"/>
			
				<ellipse transform="matrix(0.3474255 -0.9377076 0.9377076 0.3474255 -16.9745178 95.2392883)" fill="#EBF0F3" cx="59.9391022" cy="59.8152885" rx="1.7952585" ry="1.7952585"/>
			
				<ellipse transform="matrix(0.3474255 -0.9377076 0.9377076 0.3474255 -15.2352905 101.9619064)" fill="#44C4A1" cx="65.6387024" cy="61.9270172" rx="1.7952585" ry="1.7952585"/>
			
				<ellipse transform="matrix(0.3474255 -0.9377076 0.9377076 0.3474255 -26.379509 83.3273163)" fill="#EBF0F3" cx="46.6782417" cy="60.6164894" rx="1.7952585" ry="1.7952585"/>
			
				<ellipse transform="matrix(0.3474255 -0.9377076 0.9377076 0.3474255 -24.6402817 90.049942)" fill="#EBF0F3" cx="52.3778419" cy="62.7282181" rx="1.7952585" ry="1.7952585"/>
			
				<ellipse transform="matrix(0.3474255 -0.9377076 0.9377076 0.3474255 -22.9010544 96.7725601)" fill="#EBF0F3" cx="58.0774422" cy="64.8399506" rx="1.7952585" ry="1.7952585"/>
			
				<ellipse transform="matrix(0.3474255 -0.9377076 0.9377076 0.3474255 -32.3060455 84.8605881)" fill="#EBF0F3" cx="44.8165817" cy="65.6411514" rx="1.7952585" ry="1.7952585"/>
			
				<ellipse transform="matrix(0.3474255 -0.9377076 0.9377076 0.3474255 -30.5668182 91.5832062)" fill="#EBF0F3" cx="50.5161781" cy="67.7528839" rx="1.7952585" ry="1.7952585"/>
			
				<ellipse transform="matrix(0.3474255 -0.9377076 0.9377076 0.3474255 -28.8275909 98.3058243)" fill="#EBF0F3" cx="56.2157784" cy="69.8646088" rx="1.7952585" ry="1.7952585"/>
			<path fill="#E56353" d="M65.7250443,65.7589188l-2.6485214-0.9812927     c-0.1984825-0.0735397-0.4187584,0.0276871-0.4922371,0.2259979l-2.8429947,7.6733017     c-0.0734787,0.1983185,0.027668,0.4186249,0.2261505,0.4921646l2.6485214,0.9812927     c0.1983719,0.073494,0.4187622-0.0276871,0.4922371-0.2259979l2.8429947-7.6733017     C66.0246735,66.0527725,65.9234161,65.8324127,65.7250443,65.7589188z"/>
		</g>
	</g>
</g>
</svg>
