<?xml version="1.0" encoding="utf-8"?>
<!-- Generator: Adobe Illustrator 21.0.2, SVG Export Plug-In . SVG Version: 6.00 Build 0)  -->
<svg xmlns="http://www.w3.org/2000/svg" xmlns:xlink="http://www.w3.org/1999/xlink" version="1.1" id="Layer_1" x="0px" y="0px" viewBox="0 0 100 100" enable-background="new 0 0 100 100" xml:space="preserve" width="512" height="512">
<g>
	<circle fill="#334D5C" cx="50" cy="50" r="48"/>
	<path opacity="0.1" d="M75.8900146,28.3599854c-0.2800293-0.0900269-0.5700073-0.1300049-0.9000244-0.039978l-5.8599854-5.8600464   l-0.9199829,0.1000366c-13.6100464,1.5100098-22.8000488,1.5100098-36.4100342,0l-0.9299927-0.1000366l-2.8599854,8.5900269   l-1.0499878-1.039978c-0.5900269-0.7900391-1.0700073-1.25-1.4900513-1.4900513   c-0.539978-0.3199463-0.9699707-0.2799683-1.3599854-0.1599731c-1.289978,0.3900146-2.3099976,1.9099731-1,10.289978   c0.7900391,5.0300293,2.2300415,11.1900024,3.9800415,17.0700073C24.9400024,57.5100098,23.539978,61.4199829,22.9299927,64.75   C22.25,68.4799805,22.2199707,73.2799683,24.210022,75.5199585l22.3433228,22.3433228C47.6930542,97.9442139,48.8397217,98,50,98   c26.4246216,0,47.8562622-21.3540649,47.9935913-47.7463989L76.9400024,29.2000122   C76.6599731,28.7000122,76.289978,28.4799805,75.8900146,28.3599854z"/>
	<g>
		<g>
			<path fill="#DC8744" d="M63.697525,58.4058151l-2.1907082-0.6701889     c1.8919754-6.1889191,4.6286812-13.5884361,7.143856-19.3113556c4.3892517-9.9924507,5.9858475-10.4534168,7.2356033-10.0685329     c1.2956314,0.3960724,2.3137817,1.9177094,1.0036087,10.2978992c-0.8257065,5.2781754-2.3764343,11.8256836-4.2527466,17.9636993     l-2.190712-0.6701927c3.6955643-12.0891762,5.1411209-22.1884766,4.7014084-24.9581909     C72.9134979,33.6272011,67.426651,46.2086716,63.697525,58.4058151z"/>
		</g>
		<g>
			<path fill="#DC8744" d="M36.3013573,58.4058151c-3.729126-12.1971436-9.2148495-24.7791748-11.449192-27.4168625     c-0.4408283,2.7697144,1.0047264,12.8695755,4.7002888,24.9581909l-2.1907082,0.6701927     c-1.8763123-6.137455-3.4259205-12.684967-4.2516308-17.9636993c-1.3101749-8.3801899-0.2920208-9.9018269,1.0036087-10.2978992     c1.2486362-0.3815269,2.8463535,0.0755234,7.2356033,10.0685329c2.5140572,5.7223587,5.2507629,13.1218758,7.1427422,19.3113556     L36.3013573,58.4058151z"/>
		</g>
		<g>
			<path fill="#DC8744" d="M71.9893265,31.0453835l-0.7448807,0.4926434     c-0.1373367,0.0802078-13.7369614,9.0510807-16.2803841,18.2166996     c-0.6072578,2.1997299-2.6466408,3.7349319-4.9608421,3.7349319c-2.3143425,0-4.3650551-1.535202-4.9723129-3.7349319     c-2.5434265-9.1770897-16.1430492-18.1364918-16.2803879-18.2166996l-0.744875-0.4926434l2.8642559-8.5813007     l0.9280872,0.0916061c13.6109524,1.5123348,22.799509,1.5123348,36.4104614,0l0.9166183-0.0916061L71.9893265,31.0453835z"/>
		</g>
		<g>
			<path fill="#FCD462" d="M77.0677872,64.745224c-0.6869736-3.7358437-2.3607788-8.219635-5.0012589-9.600296     c-4.3120499-2.2567215-13.5917969,3.5937462-20.6125832,8.8965378l0.6906128,0.9145889l0.0033569,1.3378677     c1.4108696,1.4328918,1.4147835,4.0257645,0.0138435,5.4672623l0.0029373,1.1675186l-0.6190033,0.964798     c0.4889374,0.3132782,0.9700432,0.5370483,1.4724083,0.6841736c5.2485237,1.5373001,11.3775902,2.9576797,16.1002541,2.9576797     c2.9727859,0,5.388382-0.5627747,6.6750565-2.0139236C77.7816086,73.2803726,77.7547607,68.4849777,77.0677872,64.745224z"/>
			<path fill="#FCD462" d="M47.8350258,72.9289856l0.0014-0.5564194c-2.4941978-1.3122025-2.4860878-5.3827896,0.0166435-6.6835938     l0.0018158-0.7332687l-0.0002785-0.000206l0.6903305-0.914032c-7.0196686-5.3044701-16.289341-11.1560555-20.6125774-8.8965378     c-2.6393681,1.380661-4.3131676,5.8644524-5.0001431,9.600296c-0.6869736,3.7397537-0.7138252,8.5351486,1.2743721,10.776207     c1.2866764,1.4517059,3.7011547,2.0144882,6.6750603,2.0144882c4.7215462-0.0005646,10.8517265-1.4215012,16.0991364-2.9582443     c0.4978867-0.1460037,0.9935379-0.3764877,1.473526-0.6847305l-0.6198463-0.9637527L47.8350258,72.9289856z"/>
		</g>
		<g>
			<path fill="#DC8744" d="M49.9994431,75.2562637c-2.5699997,0-4.5828133-2.7680359-4.5828133-6.3013687     c0-3.5333252,2.0128136-6.3013649,4.5828133-6.3013649c2.5699959,0,4.5828094,2.7680397,4.5828094,6.3013649     C54.5822525,72.4882278,52.5694389,75.2562637,49.9994431,75.2562637z M49.9994431,64.9449387     c-1.0841675,0-2.2914047,1.6469421-2.2914047,4.0099564s1.2072372,4.0099564,2.2914047,4.0099564     c1.0841637,0,2.2914047-1.6469421,2.2914047-4.0099564S51.0836067,64.9449387,49.9994431,64.9449387z"/>
		</g>
	</g>
</g>
</svg>
