<?xml version="1.0" encoding="utf-8"?>
<!-- Generator: Adobe Illustrator 21.0.2, SVG Export Plug-In . SVG Version: 6.00 Build 0)  -->
<svg xmlns="http://www.w3.org/2000/svg" xmlns:xlink="http://www.w3.org/1999/xlink" version="1.1" id="Layer_1" x="0px" y="0px" viewBox="0 0 100 100" enable-background="new 0 0 100 100" xml:space="preserve" width="512" height="512">
<g>
	<circle fill="#334D5C" cx="50" cy="50" r="48"/>
	<path opacity="0.1" d="M71.7199707,24.6300049c-0.5799561-0.5-1.3399658-0.8000488-2.1599731-0.8000488   c-1.8499756,0-3.3499756,1.5-3.3499756,3.3500366v0.0299683l-7.4000244,10.3800049H45.5800171l-12.5499878-12.539978   l-0.1100464-0.1199951c-0.0700073-0.0800171-0.1399536-0.1400146-0.2099609-0.210022   c-0.6000366-0.5599976-1.4000244-0.8900146-2.2700195-0.8900146c-1.8499756,0-3.3400269,1.5-3.3400269,3.3500366   c0,0.8999634,0.3500366,1.710022,0.9300537,2.2999878l2.5599976,2.5599976l3.9599609,5.5499878h-7.5299683   c-2.5,0-4.5200195,2.0200195-4.5200195,4.5200195c0,2.3599854,1.8200073,4.2800293,4.1300049,4.4799805l0.1500244,1.8600464   l1.9499512,24.4699707c0.0700073,0.9199829,0.4899902,1.7399902,1.1300049,2.3200073l22.6914063,22.6914063   c25.02948-1.3111572,44.9664307-21.7977295,45.4261475-47.0438843L72.1400146,25.0499878   C72.0100098,24.8999634,71.8800049,24.7600098,71.7199707,24.6300049z"/>
	<g>
		<g>
			<polygon fill="#DC8744" points="73.4259567,45.866951 26.5740681,45.866951 26.77985,48.4549446 73.2201767,48.4549446    "/>
			<path fill="#F6C358" d="M72.9803314,46.6308556h-45.960659c-2.4961452,0-4.5196705-2.0235291-4.5196705-4.5196724v-0.0000076     c0-2.4961472,2.0235252-4.5196724,4.5196705-4.5196724h45.960659c2.4961472,0,4.5196686,2.0235252,4.5196686,4.5196724v0.0000076     C77.5,44.6073265,75.4764786,46.6308556,72.9803314,46.6308556z"/>
			<path fill="#FCD462" d="M26.77985,48.4549446l1.9453487,24.4622688c0.1460114,1.8355484,1.6781464,3.2506714,3.5194263,3.2506714     h35.5107765c1.8412781,0,3.3734131-1.415123,3.5194244-3.2506714l1.9453506-24.4622688H26.77985z"/>
		</g>
		<g>
			<path fill="#F6C358" d="M36.9422112,52.5969582c-0.6979446,0-1.2636986,0.5657539-1.2636986,1.2636375v17.4104462     c0,0.6978836,0.5657539,1.2636414,1.2636986,1.2636414c0.6978874,0,1.2636414-0.5657578,1.2636414-1.2636414V53.8605957     C38.2058525,53.1627121,37.6400986,52.5969582,36.9422112,52.5969582z"/>
			<path fill="#F6C358" d="M43.4711227,52.5969582c-0.6979446,0-1.2637024,0.5657539-1.2637024,1.2636375v17.4104462     c0,0.6978836,0.5657578,1.2636414,1.2637024,1.2636414c0.6978836,0,1.2636375-0.5657578,1.2636375-1.2636414V53.8605957     C44.7347603,53.1627121,44.1690063,52.5969582,43.4711227,52.5969582z"/>
			<path fill="#F6C358" d="M50.0000305,52.5969582c-0.6979446,0-1.2636986,0.5657539-1.2636986,1.2636375v17.4104462     c0,0.6978836,0.5657539,1.2636414,1.2636986,1.2636414c0.6978836,0,1.2636414-0.5657578,1.2636414-1.2636414V53.8605957     C51.2636719,53.1627121,50.6979141,52.5969582,50.0000305,52.5969582z"/>
			<path fill="#F6C358" d="M56.5289383,52.5969582c-0.6979408,0-1.2636986,0.5657539-1.2636986,1.2636375v17.4104462     c0,0.6978836,0.5657578,1.2636414,1.2636986,1.2636414c0.6978874,0,1.2636414-0.5657578,1.2636414-1.2636414V53.8605957     C57.7925797,53.1627121,57.2268257,52.5969582,56.5289383,52.5969582z"/>
			<path fill="#F6C358" d="M63.0578499,52.5969582c-0.6979446,0-1.2636986,0.5657539-1.2636986,1.2636375v17.4104462     c0,0.6978836,0.5657539,1.2636414,1.2636986,1.2636414c0.6978836,0,1.2636375-0.5657578,1.2636375-1.2636414V53.8605957     C64.3214874,53.1627121,63.7557335,52.5969582,63.0578499,52.5969582z"/>
		</g>
		<path fill="#EFB652" d="M43.5336075,40.9271049l-3.1799316-3.3356323H32.88517l6.7358398,7.0656738    c1.0300293,1.0803833,2.7408447,1.1212769,3.821167,0.0913086v-0.000061    C44.5226212,43.7184258,44.5636368,42.0075493,43.5336075,40.9271049z"/>
		<path fill="#EFB652" d="M56.4663887,40.9271049l3.1799316-3.3356323H67.11483l-6.7358437,7.0656738    c-1.0300293,1.0803833-2.7408447,1.1212769-3.821167,0.0913086v-0.000061    C55.477375,43.7184258,55.4363594,42.0075493,56.4663887,40.9271049z"/>
		<circle fill="#EBF0F3" cx="69.5568848" cy="27.1784782" r="3.3463619"/>
		<g>
			<path fill="#DC8744" d="M56.222393,41.2225304l11.1827354-15.6804619     c0.8667831-1.215332,2.5546417-1.4978714,3.7699127-0.6311359l0.0001144,0.0000362     c1.2152557,0.8666821,1.4978561,2.5545292,0.631073,3.7698612L60.6234894,44.3612938     c-0.8667793,1.215332-2.5545197,1.4979095-3.7697792,0.6312256l-0.0001259-0.0000916     C55.6383247,44.1257477,55.3556137,42.4378624,56.222393,41.2225304z"/>
			<circle fill="#C67239" cx="58.6453552" cy="42.4024887" r="1.7213048"/>
		</g>
		<circle fill="#EBF0F3" cx="30.443119" cy="27.1784782" r="3.3463619"/>
		<g>
			<path fill="#DC8744" d="M43.777607,41.2225304L32.5948715,25.5420685     c-0.8667812-1.215332-2.5546379-1.4978714-3.769907-0.6311359l-0.0001183,0.0000362     c-1.2152596,0.8666821-1.4978523,2.5545292-0.6310711,3.7698612l11.1827354,15.6804638     c0.8667831,1.215332,2.5545197,1.4979095,3.7697792,0.6312256l0.0001297-0.0000916     C44.3616791,44.1257477,44.6443901,42.4378624,43.777607,41.2225304z"/>
			<circle fill="#C67239" cx="41.3546486" cy="42.4024887" r="1.7213048"/>
		</g>
		<circle fill="#C67239" cx="30.443119" cy="27.1784782" r="1.0088277"/>
		<circle fill="#C67239" cx="69.5568848" cy="27.1784782" r="1.0088277"/>
	</g>
</g>
</svg>
