<?xml version="1.0" encoding="utf-8"?>
<!-- Generator: Adobe Illustrator 21.0.2, SVG Export Plug-In . SVG Version: 6.00 Build 0)  -->
<svg xmlns="http://www.w3.org/2000/svg" xmlns:xlink="http://www.w3.org/1999/xlink" version="1.1" id="Layer_1" x="0px" y="0px" viewBox="0 0 100 100" enable-background="new 0 0 100 100" xml:space="preserve" width="512" height="512">
<g>
	<circle fill="#334D5C" cx="50" cy="50" r="48"/>
	<path opacity="0.1" d="M98,50c0-0.2877197-0.0166016-0.5714111-0.0216675-0.8579102L75.3200073,26.4899902h-0.0100098   c-0.2999878-0.3800049-0.7600098-0.6199951-1.289978-0.6199951H25.9099731c-0.9299927,0-1.6799927,0.75-1.6799927,1.6799927   v5.0999756c0,0.4299927,0.1600342,0.8200073,0.4299927,1.1100464l0.1600342,0.1599731l2.460022,2.460022l-3.7700195,2.7399902   c-1.1300049,0.8300171-1.3800049,2.4099731-0.5599976,3.539978c0.1499634,0.210022,0.3399658,0.4000244,0.539978,0.5400391   l5.7800293,5.7799683l0.789978,9.9500122c0.0599976,0.8200073,0.4199829,1.5499878,0.9700317,2.0899658l0.0799561,0.0800171   L65.453064,95.4429932C84.3781128,89.008728,98,71.1010742,98,50z"/>
	<g>
		<polygon fill="#DC8744" points="71.8857498,33.6158524 28.0446911,33.6158524 28.2372494,36.0375328 71.6931915,36.0375328   "/>
		<path fill="#FCD462" d="M74.0202103,34.3306656H25.9102097c-0.926609,0-1.6777744-0.7511673-1.6777744-1.6777763v-5.1029091    c0-0.926609,0.7511654-1.6777744,1.6777744-1.6777744h48.1100006c0.9266129,0,1.6777725,0.7511654,1.6777725,1.6777744v5.1029091    C75.6979828,33.5794983,74.9468231,34.3306656,74.0202103,34.3306656z"/>
		<path fill="#FCD462" d="M28.2372494,36.0375328l1.8203354,22.8902588    c0.1366291,1.7175865,1.5703049,3.0417709,3.2932606,3.0417709h33.2287521c1.7229538,0,3.1566315-1.3241844,3.2932587-3.0417709    l1.8203354-22.8902588H28.2372494z"/>
		<path fill="#DC8744" d="M37.7465515,39.9133682c-0.6530914,0-1.1824913,0.5293999-1.1824913,1.1824379v16.2915993    c0,0.653038,0.5293999,1.1824341,1.1824913,1.1824341c0.653038,0,1.1824341-0.5293961,1.1824341-1.1824341V41.0958061    C38.9289856,40.4427681,38.3995895,39.9133682,37.7465515,39.9133682z"/>
		<path fill="#DC8744" d="M43.855896,39.9133682c-0.6530952,0-1.1824913,0.5293999-1.1824913,1.1824379v16.2915993    c0,0.653038,0.5293961,1.1824341,1.1824913,1.1824341c0.6530342,0,1.1824341-0.5293961,1.1824341-1.1824341V41.0958061    C45.0383301,40.4427681,44.5089302,39.9133682,43.855896,39.9133682z"/>
		<path fill="#DC8744" d="M49.9652367,39.9133682c-0.6530914,0-1.1824875,0.5293999-1.1824875,1.1824379v16.2915993    c0,0.653038,0.5293961,1.1824341,1.1824875,1.1824341c0.653038,0,1.1824379-0.5293961,1.1824379-1.1824341V41.0958061    C51.1476746,40.4427681,50.6182747,39.9133682,49.9652367,39.9133682z"/>
		<path fill="#DC8744" d="M56.0745811,39.9133682c-0.6530914,0-1.1824913,0.5293999-1.1824913,1.1824379v16.2915993    c0,0.653038,0.5293999,1.1824341,1.1824913,1.1824341c0.653038,0,1.1824379-0.5293961,1.1824379-1.1824341V41.0958061    C57.257019,40.4427681,56.7276192,39.9133682,56.0745811,39.9133682z"/>
		<path fill="#DC8744" d="M62.1839256,39.9133682c-0.6530914,0-1.1824913,0.5293999-1.1824913,1.1824379v16.2915993    c0,0.653038,0.5293999,1.1824341,1.1824913,1.1824341c0.653038,0,1.1824341-0.5293961,1.1824341-1.1824341V41.0958061    C63.3663597,40.4427681,62.8369637,39.9133682,62.1839256,39.9133682z"/>
		<path fill="#E56353" d="M61.8504219,28.3212109l14.5733757,10.6018696    c1.1295319,0.8217583,1.3789902,2.4035645,0.5572586,3.5330429l-0.0000381,0.0001106    c-0.8216858,1.129467-2.4034882,1.3790054-3.5330124,0.5572472L58.8746262,32.4116135    c-1.129528-0.8217583-1.3790245-2.4034557-0.5573425-3.5329247l0.0000877-0.0001183    C59.1390572,27.7491016,60.7208977,27.4994526,61.8504219,28.3212109z"/>
		
			<ellipse transform="matrix(0.0094386 -0.9999555 0.9999555 0.0094386 29.5751896 91.0115738)" fill="#D15241" cx="60.7249413" cy="30.5779533" rx="1.6106852" ry="1.6106892"/>
		<path fill="#E56353" d="M38.079998,28.5224266L23.5066204,39.1242981    c-1.1295261,0.8217583-1.3789902,2.4035645-0.5572548,3.5330391l0.0000362,0.0001106    c0.8216839,1.129467,2.403492,1.3790092,3.5330162,0.557251l14.5733795-10.6018715    c1.1295242-0.8217583,1.3790245-2.4034557,0.5573387-3.5329227l-0.0000877-0.0001183    C40.7913666,27.9503174,39.2095222,27.7006683,38.079998,28.5224266z"/>
		
			<ellipse transform="matrix(0.9999555 -0.0094386 0.0094386 0.9999555 -0.2887662 0.3714163)" fill="#D15241" cx="39.2054787" cy="30.7791691" rx="1.6106892" ry="1.6106852"/>
		<path fill="#E56353" d="M53.5125732,62.116684c0,6.6335449,5.3776855,12.0111084,12.0112305,12.0111084V50.1056366    C58.8902588,50.1056366,53.5125732,55.483139,53.5125732,62.116684z"/>
		<path fill="#D15241" d="M65.5238037,50.1056366v24.0221558c6.6335449,0,12.0109863-5.3775635,12.0109863-12.0111084    S72.1573486,50.1056366,65.5238037,50.1056366z"/>
		<rect x="57.3361816" y="59.8282623" fill="#FFFFFF" width="16.375" height="4.5768433"/>
	</g>
</g>
</svg>
