<?xml version="1.0" encoding="utf-8"?>
<!-- Generator: Adobe Illustrator 21.0.2, SVG Export Plug-In . SVG Version: 6.00 Build 0)  -->
<svg xmlns="http://www.w3.org/2000/svg" xmlns:xlink="http://www.w3.org/1999/xlink" version="1.1" id="Layer_1" x="0px" y="0px" viewBox="0 0 100 100" enable-background="new 0 0 100 100" xml:space="preserve" width="512" height="512">
<g>
	<circle fill="#EFC84A" cx="50" cy="50" r="48"/>
	<path opacity="0.1" d="M98,50c0-0.2890625-0.0167236-0.5739746-0.0217896-0.8618164L75.25,26.4099731   c-0.3099976-0.3300171-0.7399902-0.539978-1.2299805-0.539978H25.9099731c-0.9299927,0-1.6799927,0.75-1.6799927,1.6799927   v5.0999756c0,0.5700073,0.2900391,1.0800171,0.7200317,1.3800049l2.3399658,2.3400269l-3.7799683,2.75   c-1.1300049,0.8300171-1.3800049,2.4099731-0.5599976,3.539978c0.1499634,0.2000122,0.3200073,0.3699951,0.5100098,0.5100098   l5.8099976,5.8099976l0.789978,9.9500122c0.0599976,0.7700195,0.3900146,1.4400024,0.8699951,1.9699707l-0.0100098,0.0100098   l0.1700439,0.1699829c0.0099487,0,0.0199585,0.0100098,0.0299683,0.0200195l34.3404541,34.3404541   C84.3817139,89.0039673,98,71.0982666,98,50z"/>
	<g>
		<g>
			<polygon fill="#D15241" points="71.8857498,33.6158524 28.044693,33.6158524 28.2372513,36.0375328 71.6931915,36.0375328    "/>
			<path fill="#E56353" d="M74.0202103,34.3306656H25.9102097c-0.926609,0-1.6777725-0.7511673-1.6777725-1.6777763v-5.1029091     c0-0.926609,0.7511635-1.6777744,1.6777725-1.6777744h48.1100006c0.9266129,0,1.6777725,0.7511654,1.6777725,1.6777744v5.1029091     C75.6979828,33.5794983,74.9468231,34.3306656,74.0202103,34.3306656z"/>
			<path fill="#E56353" d="M28.2372513,36.0375328l1.8203335,22.8902588     c0.136631,1.7175865,1.5703049,3.0417709,3.2932606,3.0417709h33.2287521c1.7229538,0,3.1566315-1.3241844,3.2932587-3.0417709     l1.8203354-22.8902588H28.2372513z"/>
			<g>
				<path fill="#D15241" d="M37.7465515,39.9133682c-0.6530914,0-1.1824913,0.5293999-1.1824913,1.1824379v16.2915993      c0,0.653038,0.5293999,1.1824341,1.1824913,1.1824341c0.653038,0,1.1824341-0.5293961,1.1824341-1.1824341V41.0958061      C38.9289856,40.4427681,38.3995895,39.9133682,37.7465515,39.9133682z"/>
				<path fill="#D15241" d="M43.855896,39.9133682c-0.6530914,0-1.1824913,0.5293999-1.1824913,1.1824379v16.2915993      c0,0.653038,0.5293999,1.1824341,1.1824913,1.1824341c0.6530342,0,1.1824341-0.5293961,1.1824341-1.1824341V41.0958061      C45.0383301,40.4427681,44.5089302,39.9133682,43.855896,39.9133682z"/>
				<path fill="#D15241" d="M49.9652405,39.9133682c-0.6530952,0-1.1824913,0.5293999-1.1824913,1.1824379v16.2915993      c0,0.653038,0.5293961,1.1824341,1.1824913,1.1824341c0.6530342,0,1.1824341-0.5293961,1.1824341-1.1824341V41.0958061      C51.1476746,40.4427681,50.6182747,39.9133682,49.9652405,39.9133682z"/>
				<path fill="#D15241" d="M56.0745811,39.9133682c-0.6530914,0-1.1824913,0.5293999-1.1824913,1.1824379v16.2915993      c0,0.653038,0.5293999,1.1824341,1.1824913,1.1824341c0.653038,0,1.1824379-0.5293961,1.1824379-1.1824341V41.0958061      C57.257019,40.4427681,56.7276192,39.9133682,56.0745811,39.9133682z"/>
				<path fill="#D15241" d="M62.1839256,39.9133682c-0.6530914,0-1.1824913,0.5293999-1.1824913,1.1824379v16.2915993      c0,0.653038,0.5293999,1.1824341,1.1824913,1.1824341c0.653038,0,1.1824341-0.5293961,1.1824341-1.1824341V41.0958061      C63.3663597,40.4427681,62.8369637,39.9133682,62.1839256,39.9133682z"/>
			</g>
			<g>
				<g>
					<g>
						<path fill="#EBF0F3" d="M61.8504257,28.3212109l14.5733719,10.6018696        c1.1295319,0.8217583,1.3789902,2.4035645,0.5572586,3.5330429l-0.0000381,0.0001106        c-0.8216858,1.129467-2.4034882,1.3790054-3.5330124,0.5572472L58.8746262,32.4116135        c-1.1295242-0.8217583-1.3790245-2.4034557-0.5573387-3.5329247l0.0000839-0.0001183        C59.1390572,27.7491016,60.7208977,27.4994526,61.8504257,28.3212109z"/>
					</g>
					
						<ellipse transform="matrix(0.0094386 -0.9999555 0.9999555 0.0094386 29.5751896 91.0115738)" fill="#D5D6DB" cx="60.7249413" cy="30.5779533" rx="1.6106852" ry="1.6106892"/>
				</g>
				<g>
					<g>
						<path fill="#EBF0F3" d="M38.079998,28.5224266L23.5066204,39.1242981        c-1.1295242,0.8217583-1.3789883,2.4035645-0.5572529,3.5330391l0.0000343,0.0001106        c0.8216839,1.129467,2.403492,1.3790092,3.5330181,0.557251l14.5733776-10.6018715        c1.1295242-0.8217583,1.3790245-2.4034557,0.5573387-3.5329227l-0.0000839-0.0001183        C40.7913666,27.9503174,39.2095222,27.7006683,38.079998,28.5224266z"/>
					</g>
					
						<ellipse transform="matrix(0.9999555 -0.0094386 0.0094386 0.9999555 -0.2887662 0.3714163)" fill="#D5D6DB" cx="39.2054825" cy="30.7791691" rx="1.6106892" ry="1.6106852"/>
				</g>
			</g>
		</g>
		<g>
			<path fill="#44C4A1" d="M53.5125732,62.116684c0,6.6335449,5.3776855,12.0111084,12.0112305,12.0111084V50.1056366     C58.8902588,50.1056366,53.5125732,55.483139,53.5125732,62.116684z"/>
			<path fill="#3EA69B" d="M65.5238037,50.1056366v24.0221558c6.6335449,0,12.0109863-5.3775635,12.0109863-12.0111084     S72.1573486,50.1056366,65.5238037,50.1056366z"/>
		</g>
		<polygon fill="#FFFFFF" points="73.7111816,59.8282623 67.8122559,59.8282623 67.8122559,53.9292145 63.2351074,53.9292145     63.2351074,59.8282623 57.3361816,59.8282623 57.3361816,64.4051056 63.2351074,64.4051056 63.2351074,70.3042145     67.8122559,70.3042145 67.8122559,64.4051056 73.7111816,64.4051056   "/>
	</g>
</g>
</svg>
