<?xml version="1.0" encoding="utf-8"?>
<!-- Generator: Adobe Illustrator 21.0.2, SVG Export Plug-In . SVG Version: 6.00 Build 0)  -->
<svg xmlns="http://www.w3.org/2000/svg" xmlns:xlink="http://www.w3.org/1999/xlink" version="1.1" id="Layer_1" x="0px" y="0px" viewBox="0 0 100 100" enable-background="new 0 0 100 100" xml:space="preserve" width="512" height="512">
<g>
	<circle fill="#EA8953" cx="50" cy="50" r="48"/>
	<path opacity="0.1" d="M75.460022,22.4991226v2.6401367l-2.6400146-2.6401367h-1.75v3.0800781l-3.0800171-3.0800781h-0.8699951   v3.5100098l-3.5100098-3.5100098h-0.8800049v3.0700684l-3.0700073-3.0700684h-1.7599487v2.630127l-2.6300049-2.630127h-1.7600098   v1.7600098L51.75,22.4991226h-3.5v1.7600098l-1.7600098-1.7600098h-1.7600098v2.630127l-2.6300049-2.630127h-1.7599487v2.4899902   l-0.0599976,0.0800781l-2.5700073-2.5700684h-1.75v2.2000732l-2.2000122-2.2000732h-2.6300049v2.2000732l-2.2000122-2.2000732   h-1.75v2.6401367l-2.6400146-2.6401367h-1.75v26.1700439l19.3099976,19.3099365   c-0.1099854,0.6000977-0.1499634,1.2301025-0.1099854,1.8701172c0.1099854,2.0200195,0.9700317,3.8399658,2.3099976,5.2099609   l0.0900269,0.0899658l20.4882813,20.4882813C84.102478,89.3736343,98,71.3145523,98,49.9999771   c0-2.467041-0.1873779-4.8902588-0.5463257-7.2572021L77.210022,22.4991226H75.460022z"/>
	<g>
		<g>
			<g>
				<rect x="22.7894058" y="22.4999981" fill="#64798A" width="1.7544445" height="26.1737995"/>
				<rect x="27.1780872" y="22.4999981" fill="#64798A" width="1.7544445" height="26.1737995"/>
				<rect x="31.1281567" y="22.4999981" fill="#64798A" width="2.6316667" height="26.1737995"/>
				<rect x="35.9563065" y="22.4999981" fill="#64798A" width="1.7544445" height="26.1737995"/>
				<rect x="40.344986" y="22.4999981" fill="#64798A" width="1.7544445" height="26.1737995"/>
				<rect x="44.7336693" y="22.4999981" fill="#64798A" width="1.7544445" height="26.1737995"/>
				<rect x="48.2459831" y="22.4999981" fill="#64798A" width="3.508889" height="26.1737995"/>
				<rect x="53.5118866" y="22.4999981" fill="#64798A" width="1.7544445" height="26.1737995"/>
				<rect x="57.9005699" y="22.4999981" fill="#64798A" width="1.7544445" height="26.1737995"/>
				<rect x="62.7287178" y="22.4999981" fill="#64798A" width="0.8772222" height="26.1737995"/>
				<rect x="67.1174011" y="22.4999981" fill="#64798A" width="0.8772222" height="26.1737995"/>
				<rect x="71.0674667" y="22.4999981" fill="#64798A" width="1.7544445" height="26.1737995"/>
				<rect x="75.4561539" y="22.4999981" fill="#64798A" width="1.7544445" height="26.1737995"/>
			</g>
			<rect x="22.7894058" y="30.1707649" fill="#E56353" width="54.4211884" height="2.0561802"/>
		</g>
		<g>
			<path fill="#27A2DB" d="M34.9210548,34.3799133l1.188118,12.3797798     c0.0871468,0.9074936,0.7828827,1.6339645,1.6775589,1.7515259l2.7034492,0.3551521     c3.9051132,0.5130806,6.1586151,3.8749809,6.1586151,7.8548622v0.6899796c0,2.3126411-0.3815651,4.4527168-2.0690804,6.0146027     c-1.700901,1.5742531-2.7276077,3.8782387-2.5890465,6.4248466c0.2240753,4.1128616,3.6074295,7.4779358,7.6799889,7.6426697     c4.5802803,0.1852264,8.351078-3.5125275,8.351078-8.1003723c0-2.3979568-1.0316048-4.5495377-2.6699944-6.0316772     c-1.7126503-1.5493469-2.0929108-3.7094231-2.0929108-6.0324554v-0.6001701c0-3.9830589,2.2580719-7.3466072,6.1669388-7.8559341     l2.7857056-0.3629494c0.8954926-0.1166916,1.5923691-0.8434944,1.6795197-1.75177l1.1879539-12.3780899H34.9210548z"/>
			<polygon fill="#E56353" points="65.078949,34.3799133 34.9210548,34.3799133 35.2027435,37.3147011 64.7972565,37.3147011    "/>
		</g>
	</g>
</g>
</svg>
