<?xml version="1.0" encoding="utf-8"?>
<!-- Generator: Adobe Illustrator 21.0.2, SVG Export Plug-In . SVG Version: 6.00 Build 0)  -->
<svg xmlns="http://www.w3.org/2000/svg" xmlns:xlink="http://www.w3.org/1999/xlink" version="1.1" id="Layer_1" x="0px" y="0px" viewBox="0 0 100 100" enable-background="new 0 0 100 100" xml:space="preserve" width="512" height="512">
<g>
	<circle fill="#EFC84A" cx="50" cy="50" r="48"/>
	<path opacity="0.1" d="M26.1799927,21.9899902L22.5,40.289978l2.6599731,2.6600342v34.039978l20.8375244,20.8310547   C47.3185425,97.9302368,48.6507568,98,50,98c26.5097046,0,48-21.4904175,48-48   c0-1.3516235-0.0699463-2.6862183-0.1795044-4.0095215L73.8200073,21.9899902H26.1799927z"/>
	<g>
		<rect x="25.1577034" y="40.2907104" fill="#EBF0F3" width="49.6845932" height="36.7033234"/>
		<g>
			<rect x="60.2795944" y="41.6951599" fill="#3A556A" width="5.1505365" height="28.9887619"/>
			<rect x="59.6951294" y="69.4291" fill="#64798A" width="6.3194604" height="1.7959306"/>
			<rect x="59.6425362" y="40.2907104" fill="#64798A" width="6.4246502" height="1.8258247"/>
		</g>
		<g>
			<rect x="34.56987" y="41.6951599" fill="#3A556A" width="5.1505365" height="28.9887619"/>
			<rect x="33.9854088" y="69.4291" fill="#64798A" width="6.3194604" height="1.7959306"/>
			<rect x="33.9328156" y="40.2907104" fill="#64798A" width="6.4246502" height="1.8258247"/>
		</g>
		<polygon fill="#E56353" points="73.8208008,21.9940186 26.1787109,21.9940186 22.5,40.2907104 77.5,40.2907104   "/>
		<path fill="#D15241" d="M50.0001411,24.2235928c-8.8736229,0-16.0673256,7.1934948-16.0673256,16.0671177h32.1343689    C66.0671844,31.4170876,58.8737602,24.2235928,50.0001411,24.2235928z"/>
		<rect x="41.473362" y="46.0129547" fill="#D5D6DB" width="17.0532742" height="25.6128311"/>
		
			<rect x="38.1439552" y="52.342617" transform="matrix(-1.836970e-16 1 -1 -1.836970e-16 109.3689804 9.3689842)" fill="#27A2DB" width="23.7120914" height="14.0527344"/>
		<g>
			<polygon fill="#38B5E0" points="45.0615845,71.225029 53.2538033,47.5129395 53.4517784,47.5129395 45.2595634,71.225029    "/>
			<polygon fill="#38B5E0" points="45.7787361,71.225029 53.9709549,47.5129395 54.9384155,47.5129395 46.7461967,71.225029    "/>
		</g>
		<rect x="28.5590248" y="71.1350784" fill="#3A556A" width="42.8819504" height="3.6073446"/>
		<rect x="25.1577034" y="74.0645523" fill="#2F4859" width="49.6845932" height="2.9294786"/>
	</g>
</g>
</svg>
