<?xml version="1.0" encoding="utf-8"?>
<!-- Generator: Adobe Illustrator 21.0.2, SVG Export Plug-In . SVG Version: 6.00 Build 0)  -->
<svg xmlns="http://www.w3.org/2000/svg" xmlns:xlink="http://www.w3.org/1999/xlink" version="1.1" id="Layer_1" x="0px" y="0px" viewBox="0 0 100 100" enable-background="new 0 0 100 100" xml:space="preserve" width="512" height="512">
<g>
	<circle fill="#EFC84A" cx="50" cy="50" r="48"/>
	<path opacity="0.1" d="M32.4699707,22.5v5.8699951l-5.0299683,3.8499756v43.3699951   c0,0.5400391,0.2299805,1.0300293,0.5900269,1.3699951L28.0700073,77l20.9685059,20.975708   C49.3594971,97.9820557,49.6775513,98,50,98c25.5457153,0,46.4221191-19.9581299,47.9072266-45.1309814L67.5300293,22.5H32.4699707   z"/>
	<g>
		<rect x="32.4723663" y="22.5" fill="#1C75A1" width="35.0552139" height="52.9299049"/>
		<path fill="#27A2DB" d="M27.4396877,32.2182655v43.3697014c0,1.0559692,0.8560047,1.9120331,1.9120369,1.9120331h41.2965546    c1.0559158,0,1.9120407-0.8560638,1.9120407-1.9120331V32.2182655H27.4396877z"/>
		<g>
			<polygon fill="#27A2DB" points="64.5037384,26.0652409 67.5275879,29.1417828 67.5275879,22.5000134    "/>
			<polygon fill="#2D93BA" points="72.5602646,32.218277 64.5037308,32.218277 64.5037308,26.0652847    "/>
		</g>
		<g>
			<polygon fill="#27A2DB" points="35.4962158,26.0652294 32.4723625,29.1417713 32.4723625,22.5    "/>
			<polygon fill="#2D93BA" points="27.4396877,32.2182655 35.4962196,32.2182655 35.4962196,26.0652714    "/>
		</g>
		<g>
			<circle fill="#1C75A1" cx="41.1855507" cy="37.9832191" r="1.711897"/>
			<circle fill="#1C75A1" cx="58.8144493" cy="37.9832191" r="1.711897"/>
		</g>
		<g>
			<path fill="#1C75A1" d="M49.9995728,55.4647903c-5.4121094,0-9.8144531-4.6708984-9.8144531-10.4121094V37.983345h2v7.0693359     c0,4.6386719,3.5058594,8.4121094,7.8144531,8.4121094s7.8144531-3.7734375,7.8144531-8.4121094V37.983345h2v7.0693359     C59.8140259,50.7938919,55.4116821,55.4647903,49.9995728,55.4647903z"/>
		</g>
		<g>
			<path fill="#FFFFFF" d="M49.9995728,54.4188919c-5.4121094,0-9.8144531-4.402832-9.8144531-9.8144531V37.983345h2v6.6210938     c0,4.309082,3.5058594,7.8144531,7.8144531,7.8144531s7.8144531-3.5053711,7.8144531-7.8144531V37.983345h2v6.6210938     C59.8140259,50.0160599,55.4116821,54.4188919,49.9995728,54.4188919z"/>
		</g>
	</g>
</g>
</svg>
