<?xml version="1.0" encoding="utf-8"?>
<!-- Generator: Adobe Illustrator 21.0.2, SVG Export Plug-In . SVG Version: 6.00 Build 0)  -->
<svg xmlns="http://www.w3.org/2000/svg" xmlns:xlink="http://www.w3.org/1999/xlink" version="1.1" id="Layer_1" x="0px" y="0px" viewBox="0 0 100 100" enable-background="new 0 0 100 100" xml:space="preserve" width="512" height="512">
<g>
	<circle fill="#E05B49" cx="50" cy="50" r="48"/>
	<path opacity="0.1" d="M93.5447998,70.1947632L76.25,52.8999634l-0.0100098,0.0100098   c-0.1900024-0.1900024-0.4299927-0.3300171-0.7000122-0.4199829L65.1599731,42.1099854l-0.0099487,0.0100098   c-0.3200073-0.2900391-0.7200317-0.4799805-1.1700439-0.4799805h-0.1199951L53.710022,31.4899902H23.25v28.0599976H22.5v3.0200195   l34.8668213,34.8667603C73.4611816,94.9577637,86.9084473,84.4796143,93.5447998,70.1947632z"/>
	<g>
		<path fill="#EBF0F3" d="M75.33918,52.4121857l-5.9854126-1.1561928c-0.6165771-0.1190834-1.1207352-0.5619583-1.318367-1.1580276    l-2.4112778-7.273365c-0.235405-0.7101479-0.8994217-1.1895485-1.6475487-1.1895485H53.7137146v18.8561821h23.0320816v-6.3747711    C76.7457962,53.2847481,76.1558075,52.5699387,75.33918,52.4121857z"/>
		<polygon fill="#27A2DB" points="66.3754883,50.4860802 63.9765739,43.3322105 55.4106331,43.3322105 55.4106331,50.4860802   "/>
		<rect x="23.2542496" y="31.4909267" fill="#44C4A1" width="30.4595146" height="29.0003223"/>
		<rect x="22.5000019" y="59.54599" fill="#64798A" width="55" height="3.0218933"/>
		<rect x="55.4106331" y="52.3969307" fill="#64798A" width="2.4562156" height="0.6990853"/>
		<g>
			<g>
				<rect x="26.3840752" y="34.1917458" fill="#31978C" width="0.678381" height="22.6340618"/>
			</g>
			<g>
				<rect x="29.3242588" y="34.1917458" fill="#31978C" width="0.678381" height="22.6340618"/>
			</g>
			<g>
				<rect x="32.2644463" y="34.1917458" fill="#31978C" width="0.678381" height="22.6340618"/>
			</g>
			<g>
				<rect x="35.2046318" y="34.1917458" fill="#31978C" width="0.678381" height="22.6340618"/>
			</g>
			<g>
				<rect x="38.1448174" y="34.1917458" fill="#31978C" width="0.678381" height="22.6340618"/>
			</g>
			<g>
				<rect x="41.0850029" y="34.1917458" fill="#31978C" width="0.678381" height="22.6340618"/>
			</g>
			<g>
				<rect x="44.0251846" y="34.1917458" fill="#31978C" width="0.678381" height="22.6340618"/>
			</g>
			<g>
				<rect x="46.9653702" y="34.1917458" fill="#31978C" width="0.678381" height="22.6340618"/>
			</g>
			<g>
				<rect x="49.9055557" y="34.1917458" fill="#31978C" width="0.678381" height="22.6340618"/>
			</g>
		</g>
		<g>
			<circle fill="#FFFFFF" cx="38.484005" cy="45.9910889" r="7.2421293"/>
		</g>
		<g>
			<polygon fill="#E56353" points="41.1922607,42.841156 36.3617363,42.841156 36.3617363,41.6350517 34.1152077,43.8816261      36.3617363,46.1282043 36.3617363,44.9220543 41.1922607,44.9220543    "/>
			<polygon fill="#E56353" points="35.775753,49.1410217 40.6062737,49.1410217 40.6062737,50.347126 42.8528061,48.1005478      40.6062737,45.8539734 40.6062737,47.0601234 35.775753,47.0601234    "/>
		</g>
		<g>
			<path fill="#3A556A" d="M64.0278015,58.6217461c-2.4569817,0-4.5236092,1.6776733-5.1295242,3.9461365h10.2590561     C68.5514145,60.2994194,66.484787,58.6217461,64.0278015,58.6217461z"/>
			<circle fill="#2F4859" cx="64.0278473" cy="63.9362297" r="4.5728426"/>
			<circle fill="#3A556A" cx="64.0278473" cy="63.9362297" r="2.7593858"/>
			<g>
				<ellipse fill="#2F4859" cx="64.0278473" cy="62.077816" rx="0.8787437" ry="0.5135515"/>
				<ellipse fill="#2F4859" cx="64.0278473" cy="65.7946472" rx="0.8787437" ry="0.5135515"/>
			</g>
			<g>
				<ellipse fill="#2F4859" cx="65.886261" cy="63.9362297" rx="0.5135515" ry="0.8787437"/>
				<ellipse fill="#2F4859" cx="62.1694336" cy="63.9362297" rx="0.5135515" ry="0.8787437"/>
			</g>
			<circle fill="#2F4859" cx="64.0672607" cy="63.9362297" r="0.7541465"/>
		</g>
		<g>
			<path fill="#3A556A" d="M31.0026417,58.6217461c-2.4569855,0-4.523613,1.6776733-5.1295261,3.9461365h10.2590523     C35.5262527,60.2994194,33.4596252,58.6217461,31.0026417,58.6217461z"/>
			<circle fill="#2F4859" cx="31.0026855" cy="63.9362297" r="4.5728426"/>
			<circle fill="#3A556A" cx="31.0026855" cy="63.9362297" r="2.7593858"/>
			<g>
				<ellipse fill="#2F4859" cx="31.0026855" cy="62.077816" rx="0.8787437" ry="0.5135515"/>
				<ellipse fill="#2F4859" cx="31.0026855" cy="65.7946472" rx="0.8787437" ry="0.5135515"/>
			</g>
			<g>
				<ellipse fill="#2F4859" cx="32.8610992" cy="63.9362297" rx="0.5135515" ry="0.8787437"/>
				<ellipse fill="#2F4859" cx="29.1442699" cy="63.9362297" rx="0.5135515" ry="0.8787437"/>
			</g>
			<circle fill="#2F4859" cx="31.0420971" cy="63.9362297" r="0.7541465"/>
		</g>
		<g>
			<path fill="#3A556A" d="M41.6733475,58.6217461c-2.4569855,0-4.523613,1.6776733-5.129528,3.9461365h10.2590523     C46.1969604,60.2994194,44.1303329,58.6217461,41.6733475,58.6217461z"/>
			<circle fill="#2F4859" cx="41.6733894" cy="63.9362297" r="4.5728426"/>
			<circle fill="#3A556A" cx="41.6733894" cy="63.9362297" r="2.7593858"/>
			<g>
				<ellipse fill="#2F4859" cx="41.6733894" cy="62.077816" rx="0.8787437" ry="0.5135515"/>
				<ellipse fill="#2F4859" cx="41.6733894" cy="65.7946472" rx="0.8787437" ry="0.5135515"/>
			</g>
			<g>
				<ellipse fill="#2F4859" cx="43.5318069" cy="63.9362297" rx="0.5135515" ry="0.8787437"/>
				<ellipse fill="#2F4859" cx="39.8149757" cy="63.9362297" rx="0.5135515" ry="0.8787437"/>
			</g>
			<circle fill="#2F4859" cx="41.7128029" cy="63.9362297" r="0.7541465"/>
		</g>
	</g>
</g>
</svg>
