<?xml version="1.0" encoding="utf-8"?>
<!-- Generator: Adobe Illustrator 21.0.2, SVG Export Plug-In . SVG Version: 6.00 Build 0)  -->
<svg xmlns="http://www.w3.org/2000/svg" xmlns:xlink="http://www.w3.org/1999/xlink" version="1.1" id="Layer_1" x="0px" y="0px" viewBox="0 0 100 100" enable-background="new 0 0 100 100" xml:space="preserve" width="512" height="512">
<g>
	<circle fill="#334D5C" cx="50" cy="50" r="48"/>
	<path opacity="0.1" d="M98,49.9999771c0-0.6746826-0.0232544-1.34375-0.0508423-2.0115967L72.460022,22.4991226H47.2399902   v3.630127l-5.039978,10.2099609v13.2199707L39.75,47.10923c-0.2399902-0.2299805-0.5200195-0.3701172-0.8400269-0.4400635   c-0.5999756,0.7800293-1.039978,1.5400391-1.4699707,2.3599854c-0.210022,0.4300537-0.4000244,0.8601074-0.5800171,1.3000488   l-2.2199707-2.2099609l-0.1500244-0.1600342l-0.0100098,0.0098877c-1.3200073-1.3099365-3.2099609-2.0198975-5.3599854-1.8598633   c-0.1400146,1.9799805,0.460022,3.7299805,1.5700073,5.0300293c-0.210022-0.0100098-0.4099731-0.0100098-0.6099854,0.0098877   c-4.960022,0.3699951-8.2900391,6.5600586-7.4500122,13.8299561c0.4199829,3.6900635,1.8399658,6.9400635,3.789978,9.210083   c0.4200439,0.5,0.8600464,0.9400635,1.3300171,1.3299561l22.4684448,22.4753418C76.6270752,97.8760757,98,76.4363785,98,49.9999771   z"/>
	<g>
		<g>
			<rect x="42.2015381" y="36.3422432" fill="#44C4A1" width="25.2270527" height="41.1577568"/>
			<polygon fill="#3EA69B" points="72.4642944,26.1283913 47.2372437,26.1283913 42.2015381,36.3422432 67.4285889,36.3422432         "/>
			<rect x="67.4285889" y="36.3422432" fill="#3EA69B" width="10.0714083" height="41.1577568"/>
			<polygon fill="#31978C" points="72.4642944,26.1283913 67.4285889,36.3422432 77.5,36.3422432    "/>
			<rect x="47.2372437" y="22.4999981" fill="#31978C" width="25.2270527" height="3.6283922"/>
			<g>
				<rect x="42.2015381" y="51.13554" fill="#EBF0F3" width="25.2270527" height="11.5711603"/>
				<g>
					<rect x="42.2015381" y="52.2550087" fill="#FCD462" width="25.2270527" height="0.8322242"/>
					<rect x="42.2015381" y="60.7550087" fill="#FCD462" width="25.2270527" height="0.8322242"/>
				</g>
			</g>
			<g>
				<rect x="67.4285889" y="51.13554" fill="#E1E6E9" width="10.0714083" height="11.5711603"/>
				<g>
					<rect x="67.4285889" y="52.2550087" fill="#F6C358" width="10.0714083" height="0.8322242"/>
					<rect x="67.4285889" y="60.7550087" fill="#F6C358" width="10.0714083" height="0.8322242"/>
				</g>
			</g>
		</g>
		<g>
			<path fill="#44C4A1" d="M40.2595673,47.9342842c-0.5643158,0.5112534-1.1373749,1.1687584-1.6316605,1.8236694     c-0.4978371,0.6665955-0.9452362,1.3755875-1.3061485,2.1302948c-0.3503189,0.757515-0.6107674,1.5578918-0.745018,2.3946495     c-0.1150322,0.8386383-0.0578156,1.6996651,0.1453247,2.5523109c-0.3480225-0.7978477-0.572258-1.6718559-0.6078796-2.575592     c-0.0176048-0.8995018,0.105526-1.8072128,0.3372231-2.6884346c0.241291-0.8776627,0.5846596-1.7254105,0.9931221-2.5413933     c0.4212875-0.8215294,0.8660355-1.5831146,1.4649506-2.364418C39.4931145,46.7955284,39.9729385,47.152874,40.2595673,47.9342842     z"/>
			<path fill="#E56353" d="M42.8100777,51.1463051c-1.9031525-0.1414375-3.764782,0.6045723-5.3873596,1.9822311     c-0.5588341,0.4746971-1.397377,0.4746971-1.9562111,0c-1.6225777-1.3776588-3.4842072-2.1236687-5.3873577-1.9822311     c-4.9559803,0.3683319-8.2911072,6.5624924-7.4491081,13.8351784c0.842001,7.2726212,5.5422077,12.8696671,10.498476,12.5013275     c0.8373833-0.0622177,1.6277695-0.2926102,2.3599052-0.6657791c0.6020889-0.3069229,1.3102913-0.3069229,1.9123802,0     c0.7321358,0.3731689,1.522522,0.6035614,2.3601952,0.6657791c4.9559784,0.3683395,9.655899-5.2287064,10.4978981-12.5013275     C51.1008949,57.7087975,47.7660561,51.514637,42.8100777,51.1463051z"/>
			<g>
				<path fill="#44C4A1" d="M36.4336128,53.414608l-7.309763-7.309761      C28.8034344,50.4624367,32.0762711,53.7352753,36.4336128,53.414608z"/>
				<path fill="#3EA69B" d="M36.4336128,53.414608c0.3206673-4.3573418-2.9521713-7.6301804-7.309763-7.309761L36.4336128,53.414608      z"/>
			</g>
		</g>
	</g>
</g>
</svg>
