<?xml version="1.0" encoding="utf-8"?>
<!-- Generator: Adobe Illustrator 21.0.2, SVG Export Plug-In . SVG Version: 6.00 Build 0)  -->
<svg xmlns="http://www.w3.org/2000/svg" xmlns:xlink="http://www.w3.org/1999/xlink" version="1.1" id="Layer_1" x="0px" y="0px" viewBox="0 0 100 100" enable-background="new 0 0 100 100" xml:space="preserve" width="512" height="512">
<g>
	<circle fill="#E05B49" cx="50" cy="50" r="48"/>
	<path opacity="0.1" d="M74.0600586,25.2791519L27.3300781,42.2891617H22.5v15.4299316l38.9058838,38.9058838   C82.4073486,91.5044937,98,72.57798,98,49.9999771c0-1.4953613-0.0778809-2.9720459-0.2116699-4.4324951L77.5,25.2791519   H74.0600586z"/>
	<g>
		<g>
			<path fill="#3A556A" d="M46.492897,72.7910461c-0.2555733,0-0.5099106-0.0444489-0.7568398-0.1395111l-10.8352585-4.1743393     c-0.7407875-0.286438-1.2655144-0.960556-1.440834-1.8519745c-0.1358109-0.6926346-0.051857-1.4852753,0.235817-2.2310028     l1.8853073-4.8966103l2.3606415,0.908699l-1.8865395,4.8978462c-0.1567993,0.4049606-0.141983,0.7235031-0.1074142,0.8667221     l10.5574646,4.066925c0.1209946-0.0814896,0.3469353-0.3086624,0.5037346-0.714859l1.8853073-4.8953781l2.3606453,0.908699     l-1.8865395,4.8966141C48.8103256,71.8761749,47.6411171,72.7910461,46.492897,72.7910461z"/>
		</g>
		<rect x="22.5000057" y="42.285511" fill="#64798A" width="4.8313489" height="15.4289751"/>
		<rect x="74.0644989" y="25.2788448" fill="#CE412D" width="3.435509" height="49.4423103"/>
		<polygon fill="#EBF0F3" points="27.3313541,57.7144852 74.0644989,74.7211533 74.0644989,25.2788448 27.3313541,42.285511   "/>
		<polygon fill="#EBF0F3" points="27.3313541,57.7144852 74.0644989,74.7211533 74.0644989,25.2788448 27.3313541,42.285511   "/>
		<polygon fill="#E1E6E9" points="27.3311787,49.5391769 27.3311787,55.4726601 74.0644073,69.2738495 74.0644073,52.6451645   "/>
	</g>
</g>
</svg>
