<?xml version="1.0" encoding="utf-8"?>
<!-- Generator: Adobe Illustrator 21.0.2, SVG Export Plug-In . SVG Version: 6.00 Build 0)  -->
<svg xmlns="http://www.w3.org/2000/svg" xmlns:xlink="http://www.w3.org/1999/xlink" version="1.1" id="Layer_1" x="0px" y="0px" viewBox="0 0 100 100" enable-background="new 0 0 100 100" xml:space="preserve" width="512" height="512">
<g>
	<circle fill="#334D5C" cx="50" cy="50" r="48"/>
	<path opacity="0.1" d="M95.8572388,64.220314L68.4299927,36.7991714C64.2199707,31.2092056,57.5300293,27.5892105,50,27.5892105   c-2.6799927,0-5.2600098,0.4599609-7.6500244,1.3099365l-2.8999634-2.9000244   c-2.9700317-2.9699707-7.5499878-3.3299561-10.9100342-1.0799561l-1.9199829-1.9200439   c-0.6699829-0.6699219-1.7600098-0.6699219-2.4199829,0c-0.6699829,0.6700439-0.6699829,1.7600098,0,2.4300537l1.9199829,1.9200439   c-2.2600098,3.3599854-1.9000244,7.9299316,1.0700073,10.8999023l2.1599731,2.1600342   c-1.539978,3.0799561-2.3999634,6.5599365-2.3999634,10.2399902c0,6.5699463,2.7399902,12.4901123,7.1599731,16.6900635   l2.6500244,2.6499023l-3.1600342,5.2200928c-0.4400024,0.7099609-0.2099609,1.6400146,0.5,2.0699463L54.5966797,97.775856   C74.1182861,95.9202652,90.2324829,82.3790054,95.8572388,64.220314z"/>
	<path opacity="0.1" d="M73.3800049,22.9991226C72.8599854,23.5191422,72.75,24.2891617,73.039978,24.9191666l-0.6799927,0.6700439   c-3.3999634-2.9599609-8.5700073-2.8300781-11.8099976,0.4099121l35.949707,35.949707   C97.4784546,58.1287613,98,54.1253433,98,49.9999771c0-1.7125244-0.0933838-3.4029541-0.2683105-5.0690918L75.7999878,22.9991226   C75.1400146,22.3292007,74.0499878,22.3292007,73.3800049,22.9991226z"/>
	<g>
		<g>
			<path fill="#64798A" d="M59.3195,69.3511887l4.5025902,7.4219666c0.4324646,0.7128677,1.3611298,0.9401016,2.0738983,0.5076904     c0.7129593-0.432518,0.9402313-1.3610153,0.5077667-2.0738754l-4.5025826-7.4219666L59.3195,69.3511887z"/>
			<path fill="#64798A" d="M40.6805,69.3511887l-4.5025902,7.4219666c-0.4324646,0.7128677-1.3611298,0.9401016-2.0738983,0.5076904     c-0.7129593-0.432518-0.9402351-1.3610153-0.5077705-2.0738754l4.5025864-7.4219666L40.6805,69.3511887z"/>
		</g>
		<circle fill="#27A2DB" cx="50" cy="50.6474915" r="23.0541897"/>
		<circle fill="#EBF0F3" cx="50" cy="50.6474915" r="18.9894791"/>
		<ellipse fill="#FFFFFF" cx="50" cy="51.2175636" rx="18.9894791" ry="18.4194069"/>
		<g>
			<g>
				<g>
					
						<rect x="72.0621033" y="24.7638493" transform="matrix(0.7071068 0.7071068 -0.7071068 0.7071068 39.767395 -43.7263451)" fill="#D15241" width="1.207921" height="2.7529364"/>
					
						<ellipse transform="matrix(0.7071068 -0.7071068 0.7071068 0.7071068 4.7261577 59.8370781)" fill="#D15241" cx="74.5928192" cy="24.213562" rx="1.7135625" ry="1.7135625"/>
				</g>
				<path fill="#E56353" d="M72.809433,25.9970741c-3.3844147-3.3844147-8.8715553-3.3843822-12.2559357,0l12.2558136,12.2558136      C76.1936874,34.8685036,76.1937256,29.381361,72.809433,25.9970741z"/>
			</g>
			<g>
				<g>
					
						<rect x="26.7299747" y="24.7638493" transform="matrix(-0.7071068 0.7071068 -0.7071068 -0.7071068 65.1459427 25.2963028)" fill="#D15241" width="1.207921" height="2.7529364"/>
					
						<ellipse transform="matrix(0.7071068 -0.7071068 0.7071068 0.7071068 -9.6799831 25.0575771)" fill="#D15241" cx="25.4071789" cy="24.213562" rx="1.7135625" ry="1.7135625"/>
				</g>
				<path fill="#E56353" d="M27.1905651,25.9970741c3.3844128-3.3844147,8.8715572-3.3843822,12.2559376,0L27.190691,38.2528877      C23.8063087,34.8685036,23.8062782,29.381361,27.1905651,25.9970741z"/>
			</g>
		</g>
		<g>
			<circle fill="#E56353" cx="50" cy="34.324707" r="1.471613"/>
			<circle fill="#E56353" cx="50" cy="66.9702759" r="1.471613"/>
		</g>
		<g>
			<circle fill="#E56353" cx="66.3227844" cy="50.6474915" r="1.471613"/>
			<circle fill="#E56353" cx="33.6772156" cy="50.6474915" r="1.471613"/>
		</g>
		<g>
			<polygon fill="#3A556A" points="53.4180794,51.460331 54.1652985,50.6034622 53.4165192,49.7479553 40.3920326,50.1956711      39.9565506,50.616394 40.3927956,51.0363197    "/>
			<polygon fill="#64798A" points="50.8332825,54.0581932 52.2587776,54.3274155 52.7169685,52.9509811 43.8156815,38.9049034      43.0714836,38.697216 42.8909378,39.4484634    "/>
			<circle fill="#FCD462" cx="50.071003" cy="50.6041412" r="1.0532311"/>
		</g>
	</g>
</g>
</svg>
