<?xml version="1.0" encoding="utf-8"?>
<!-- Generator: Adobe Illustrator 21.0.2, SVG Export Plug-In . SVG Version: 6.00 Build 0)  -->
<svg xmlns="http://www.w3.org/2000/svg" xmlns:xlink="http://www.w3.org/1999/xlink" version="1.1" id="Layer_1" x="0px" y="0px" viewBox="0 0 100 100" enable-background="new 0 0 100 100" xml:space="preserve" width="512" height="512">
<g>
	<circle fill="#45B39C" cx="50" cy="50" r="48"/>
	<path opacity="0.1" d="M75.8200073,22.5v2.4199219L73.4000244,22.5h-1.6800537v2.4199219L69.2999878,22.5h-1.6900024v2.4099121   L65.2000122,22.5h-1.6900024v1.2800293L62.2299805,22.5h-2.8200073v2.4199219L56.9899902,22.5h-1.6799927v2.4199219   L52.8900146,22.5H51.210022v2.4199219L48.789978,22.5h-1.6799927v1.4199219L45.6900024,22.5h-1.6799927v1.4599609L42.5499878,22.5   h-2.2399902v1.1599121L39.1500244,22.5h-1.6800537v0.9799805L36.4899902,22.5h-1.6900024v2.4099121L32.3900146,22.5h-1.6900024   v1.2700195L29.4299927,22.5h-2.8300171v2.4199219L24.1799927,22.5H22.5v32.0300293l41.4141235,41.4140625   C83.637085,89.9787598,98,71.6699219,98,50c0-2.5891113-0.2113037-5.1280518-0.605896-7.605957L77.5,22.5H75.8200073z"/>
	<g>
		<g>
			<rect x="22.5" y="22.5" fill="#64798A" width="1.6834302" height="32.0274239"/>
			<rect x="26.6008949" y="22.5" fill="#64798A" width="2.8307636" height="32.0274239"/>
			<rect x="30.7026138" y="22.5" fill="#64798A" width="1.6834302" height="32.0274239"/>
			<rect x="34.8035088" y="22.5" fill="#64798A" width="1.6834302" height="32.0274239"/>
			<rect x="40.3091278" y="22.5" fill="#64798A" width="2.2402349" height="32.0274239"/>
			<rect x="37.4685249" y="22.5" fill="#64798A" width="1.6834302" height="32.0274239"/>
			<rect x="44.0061188" y="22.5" fill="#64798A" width="1.6834302" height="32.0274239"/>
			<rect x="47.1078377" y="22.5" fill="#64798A" width="1.6834302" height="32.0274239"/>
			<rect x="51.2087326" y="22.5" fill="#64798A" width="1.6834302" height="32.0274239"/>
			<rect x="55.3104515" y="22.5" fill="#64798A" width="1.6834302" height="32.0274239"/>
			<rect x="59.4113464" y="22.5" fill="#64798A" width="2.8232033" height="32.0274239"/>
			<rect x="63.5130615" y="22.5" fill="#64798A" width="1.6834302" height="32.0274239"/>
			<rect x="67.6139603" y="22.5" fill="#64798A" width="1.6834302" height="32.0274239"/>
			<rect x="71.7156754" y="22.5" fill="#64798A" width="1.6834302" height="32.0274239"/>
			<rect x="75.8165741" y="22.5" fill="#64798A" width="1.6834302" height="32.0274239"/>
			<rect x="22.5" y="47.0293427" fill="#E56353" width="55" height="1.6834302"/>
		</g>
		<g>
			
				<rect x="57.2707672" y="56.8390007" transform="matrix(0.7071068 -0.7071068 0.7071068 0.7071068 -24.7308064 59.7054482)" fill="#3A556A" width="4.8693643" height="5.7328973"/>
			
				<ellipse transform="matrix(0.7071068 -0.7071068 0.7071068 0.7071068 -19.9373131 48.1329308)" opacity="0.53" fill="#FFFFFF" cx="48.1329308" cy="48.1329308" rx="11.040925" ry="11.040925"/>
			<path fill="#31978C" d="M58.4892998,37.7765579c-5.7197304-5.7196846-14.9931259-5.7196846-20.7127647,0     s-5.7196388,14.9930801,0,20.712719c5.7196388,5.7196846,14.9930344,5.7196846,20.7127647,0     C64.2090302,52.7696381,64.2090302,43.4962425,58.4892998,37.7765579z M55.9400177,55.9400406     c-4.3116951,4.3117409-11.3024139,4.3117409-15.6142006,0s-4.3117867-11.3024597,0-15.6142006     c4.3117867-4.3117867,11.3025055-4.3117867,15.6142006,0C60.2518044,44.6375809,60.2518044,51.6282997,55.9400177,55.9400406z"/>
			<path fill="#27A2DB" d="M77.3857956,72.1924896c0.9442215,0.9442291-4.2490768,6.1375275-5.193306,5.1932983     L58.6472588,63.8405609c-0.9442253-0.9442291,4.249073-6.1375275,5.1933022-5.1933022L77.3857956,72.1924896z"/>
			
				<rect x="59.5584755" y="62.1457329" transform="matrix(0.7071068 -0.7071068 0.7071068 0.7071068 -26.1910114 63.2306938)" fill="#FCD462" width="7.3444347" height="2.1699207"/>
			
				<rect x="69.1301193" y="71.7173767" transform="matrix(0.7071068 -0.7071068 0.7071068 0.7071068 -30.155714 72.8023376)" fill="#FCD462" width="7.3444347" height="2.1699207"/>
		</g>
	</g>
</g>
</svg>
