<?xml version="1.0" encoding="utf-8"?>
<!-- Generator: Adobe Illustrator 21.0.2, SVG Export Plug-In . SVG Version: 6.00 Build 0)  -->
<svg xmlns="http://www.w3.org/2000/svg" xmlns:xlink="http://www.w3.org/1999/xlink" version="1.1" id="Layer_1" x="0px" y="0px" viewBox="0 0 100 100" enable-background="new 0 0 100 100" xml:space="preserve" width="512" height="512">
<g>
	<circle fill="#45B39C" cx="50" cy="50" r="48"/>
	<path opacity="0.1" d="M98,50c0-1.9989624-0.1365356-3.9648438-0.3738403-5.8996582l-20.736145-20.7303467   C76.4299927,22.8399658,75.7700195,22.5,75.0200195,22.5H24.9799805c-1.1999512,0-2.1999512,0.8499756-2.4299927,1.9799805   C22.5200195,24.6400146,22.5,24.8099976,22.5,24.9799805v50.039978c0,0.75,0.3400269,1.4100342,0.8599854,1.8600464   l20.7470093,20.7469482C46.0396729,97.8637695,48.0033569,98,50,98C76.5097046,98,98,76.5095825,98,50z"/>
	<g>
		<path fill="#EBF0F3" d="M77.5003052,24.9788818v50.039978c0,1.3699951-1.1099854,2.4799805-2.4799805,2.4799805H24.9802856    c-1.369873,0-2.4799805-1.1099854-2.4799805-2.4799805v-50.039978c0-1.3699951,1.1101074-2.4800415,2.4799805-2.4800415    h50.0400391C76.3903198,22.4988403,77.5003052,23.6088867,77.5003052,24.9788818z"/>
		<path fill="#64798A" d="M77.4996948,24.9824829c0-1.3704224-1.1109619-2.4813232-2.4813232-2.4813232H24.9810181    c-1.3703613,0-2.4813232,1.1109009-2.4813232,2.4813232v4.8773193h55V24.9824829z"/>
		<circle fill="#EBF0F3" cx="62.4298058" cy="26.180481" r="1.8022318"/>
		<circle fill="#FCD462" cx="67.7214661" cy="26.180481" r="1.8022318"/>
		<circle fill="#E56353" cx="73.0131226" cy="26.180481" r="1.8022318"/>
		<path fill="#E1E6E9" d="M22.4996948,29.8598022v45.1600342c0,1.3703613,1.1109619,2.4813232,2.4813232,2.4813232h13.9541016    V29.8598022H22.4996948z"/>
		<g>
			<rect x="24.9180298" y="33.7770996" fill="#D5D6DB" width="11.1796875" height="1.2001953"/>
		</g>
		<g>
			<rect x="24.9180298" y="38.3873558" fill="#D5D6DB" width="11.1796875" height="1.2001953"/>
		</g>
		<g>
			<rect x="24.9180298" y="42.997612" fill="#D5D6DB" width="11.1796875" height="1.2001953"/>
		</g>
		<g>
			<rect x="24.9180298" y="47.6078682" fill="#D5D6DB" width="11.1796875" height="1.2001953"/>
		</g>
		<g>
			<rect x="24.9180298" y="52.2181206" fill="#D5D6DB" width="11.1796875" height="1.2001953"/>
		</g>
		<rect x="45.2289772" y="34.9772949" fill="#FFFFFF" width="23.7021103" height="33.6274796"/>
		<rect x="45.2289772" y="70.4874039" fill="#E56353" width="23.7021103" height="3.6566589"/>
		<g>
			<path fill="#64798A" d="M64.3989105,52.6449318c-0.314476-0.6392326-0.5506859-1.3150406-0.6725502-2.0169716     c-0.1696358-0.9768295-0.2033653-1.8746872-0.1883812-2.5714455c0.0170403-0.7901802,0.2683487-1.5561562,0.7169724-2.2068748     c2.0731125-3.0066986-0.1852112-4.3845253-1.027626-4.7711563v-1.4217491h-0.9271507v2.0356293l-2.5839005,2.9801369     l-2.447113-3.0723572v-1.943409h-0.9270897v1.4817429c-0.9169846,0.457756-2.8793983,1.8438683-0.9025307,4.7111626     c0.4486809,0.6507187,0.7000504,1.4166946,0.7170296,2.2068748c0.0149841,0.6967583-0.0187416,1.5946159-0.1883202,2.5714455     c-0.1219254,0.701931-0.3580742,1.377739-0.6726646,2.0169716c-0.9665794,1.964325-3.413044,7.3438606-2.8350945,10.3915443     c0.2815704-0.2725525,0.4815826-0.4176559,0.8395996-0.5771561c0.3580132-0.1595001,0.8043442-0.1791229,1.1208725,0.052002     c0.2057724,0.1502457,0.3324547,0.3848686,0.5172501,0.5602341c0.4465065,0.423645,1.1332169,0.4309311,1.7481804,0.4060211     c0.2421455-0.0098152,0.4980392-0.0249748,0.6991081-0.1602058c0.1973724-0.1326485,0.3098335-0.3601303,0.4896355-0.5157547     c0.4870491-0.4215317,1.2523193-0.1768913,1.7793808,0.1934624c0.526947,0.3703575,1.0253334,0.8661003,1.6667404,0.9244766     c0.9856148,0.0897217,1.8108177-0.896183,2.7999573-0.8638077c0.5710144,0.0187149,1.0704575,0.3750267,1.6187363,0.5355835     c0.5482712,0.1605873,1.3876343,0.0064621,1.4941101-0.5548553     C67.8120651,59.9887924,65.3655396,54.6092567,64.3989105,52.6449318z"/>
			<g>
				<g>
					<path fill="#3EA69B" d="M56.6647148,44.4286346l-1.3928795-1.3814468       c-0.0992737-0.0984459-0.2362442-0.1491966-0.3756943-0.1391945l-2.067791,0.1482887       c-0.1394539,0.0100021-0.2677994,0.0797806-0.3519859,0.1913948l-1.1814842,1.5660515       c-0.0705566,0.0935287-0.1048317,0.2094727-0.0964508,0.3263321l0.5215645,7.2727776       c0.0191345,0.2668037,0.2509232,0.4675713,0.5177269,0.4484367l4.6421509-0.3329086       c0.2668037-0.0191345,0.4675713-0.2509232,0.4484367-0.5177269l-0.5215607-7.2727776       C56.7983665,44.6210022,56.7478981,44.5111389,56.6647148,44.4286346z"/>
					<path fill="#44C4A1" d="M57.0289803,44.1037979l-1.3928795-1.3814468       c-0.0992737-0.0984459-0.2362442-0.1491966-0.3756943-0.1391945l-2.067791,0.1482887       c-0.1394539,0.0100021-0.2677994,0.0797806-0.3519859,0.1913948l-1.1814842,1.5660515       c-0.0705566,0.0935287-0.1048317,0.2094727-0.0964508,0.3263321l0.5215645,7.2727776       c0.0191345,0.2668037,0.2509232,0.4675713,0.5177269,0.4484367l4.6421509-0.3329086       c0.2668037-0.0191345,0.4675713-0.2509232,0.4484367-0.5177269l-0.5215607-7.2727776       C57.162632,44.2961655,57.1121635,44.1863022,57.0289803,44.1037979z"/>
				</g>
				<g>
					<path fill="#FFFFFF" d="M56.9146233,50.0824013l-4.3349457-1.3944092l-0.2135811-0.6435089l4.3343658,1.394577       L56.9146233,50.0824013z M56.0928383,48.101738c-0.1071777,0.1938972-0.2703629,0.3283195-0.4898491,0.4011459       c-0.2194862,0.0728302-0.4315529,0.0626984-0.6358337-0.0301857c-0.2041092-0.0923004-0.3418121-0.2460556-0.4131432-0.4603081       c-0.0711212-0.2146263-0.0534706-0.4190941,0.0533295-0.6131973c0.1073837-0.1942711,0.270359-0.3283157,0.4898453-0.4011459       c0.2194862-0.0728264,0.4315567-0.0626984,0.6356697,0.0296021c0.204277,0.0928841,0.342186,0.2462654,0.4133072,0.4608917       C56.217289,47.703167,56.1996384,47.9076347,56.0928383,48.101738z M54.731041,50.7533531       c-0.1071739,0.1938972-0.2706909,0.3271523-0.4898033,0.4001884c-0.219696,0.073204-0.4315987,0.063652-0.6358757-0.0292282       c-0.204277-0.0928841-0.342186-0.2462616-0.413311-0.4608917c-0.0717049-0.2144585-0.0533066-0.4185143,0.0539093-0.6133652       c0.1068001-0.1941032,0.2699471-0.3275681,0.4896393-0.4007683c0.2194862-0.0728302,0.4311829-0.0629044,0.6360397,0.0298119       c0.203907,0.0926743,0.3416061,0.2464256,0.4129372,0.4606819       C54.8559074,50.3540344,54.8382568,50.5585022,54.731041,50.7533531z M55.1588974,48.0410461       c0.0855827,0.0308876,0.1783028,0.0295372,0.2785339-0.0038414c0.0994415-0.0328407,0.1742439-0.0891457,0.2232437-0.1685829       c0.0493774-0.0792274,0.0606995-0.1595306,0.0337639-0.2405281c-0.0271034-0.0815811-0.0840263-0.1376495-0.1696091-0.1685371       c-0.0857887-0.0305138-0.1785088-0.0291634-0.2781563,0.0040512c-0.1000252,0.0330048-0.1748276,0.0893097-0.2236214,0.1683731       c-0.0493736,0.0792274-0.0610733,0.1593208-0.0339699,0.2409019S55.0731087,48.0105324,55.1588974,48.0410461z        M53.7904167,50.7055817c0.0857887,0.0305138,0.1785088,0.0291634,0.2781601-0.0040512       c0.1000214-0.0330048,0.1742439-0.0891418,0.2239914-0.1681633c0.0489998-0.0794373,0.0603256-0.1597404,0.0330124-0.2409477       c-0.0270996-0.0815811-0.0832748-0.1372337-0.1688576-0.1681213c-0.0863724-0.0303459-0.1788826-0.0293694-0.2789078,0.0036354       c-0.0996475,0.0332146-0.1738701,0.0893517-0.2236176,0.1683731c-0.0493736,0.0792313-0.0603256,0.1597366-0.0332222,0.2413177       S53.7042542,50.6748581,53.7904167,50.7055817z"/>
				</g>
				<path fill="#DC8744" d="M56.1398277,45.643631l-0.0217209-1.9616394      c-0.0015564-0.139801-0.063446-0.2721138-0.1697578-0.3629112l-1.5764008-1.3463669      c-0.1063118-0.0908012-0.2466927-0.1312408-0.385006-0.1108856l-1.9408646,0.2854309      c-0.1159134,0.0170479-0.2217293,0.0755348-0.2978172,0.1646233l-4.735405,5.5444794      c-0.1737213,0.2033997-0.1496582,0.5091057,0.0537415,0.682827l3.5389938,3.0225677      c0.2033997,0.1737175,0.5091057,0.1496582,0.6828232-0.0537415l4.735405-5.5444794      C56.0999107,45.8744469,56.1411209,45.760788,56.1398277,45.643631z"/>
				<path fill="#F6C358" d="M56.0817642,45.1697426l-0.0217209-1.9616432c-0.0015564-0.139801-0.063446-0.27211-0.1697578-0.3629112      l-1.5764008-1.3463669c-0.1063118-0.0907974-0.2466927-0.1312408-0.385006-0.1108818l-1.9408646,0.2854309      c-0.1159134,0.0170479-0.2217293,0.0755348-0.2978172,0.1646233l-4.735405,5.5444794      c-0.1737213,0.2033997-0.1496582,0.5091057,0.0537415,0.6828232l3.5389938,3.0225677      c0.2033997,0.1737213,0.5091057,0.149662,0.6828232-0.0537376l4.735405-5.5444794      C56.0418472,45.4005585,56.0830574,45.2868958,56.0817642,45.1697426z"/>
				
					<ellipse transform="matrix(0.4854506 -0.8742641 0.8742641 0.4854506 -9.6132412 69.6216431)" fill="#FFFFFF" cx="54.3399849" cy="42.9776878" rx="0.5579954" ry="0.5579954"/>
				<g>
					<path fill="#E56353" d="M53.8258324,45.0082054c0.0634651-0.0721436,0.0964088-0.1480904,0.098835-0.2278366       c0.0024643-0.0800133-0.0349503-0.1538658-0.1122017-0.2218246c-0.0773582-0.0680542-0.1567116-0.0969162-0.2383118-0.0865173       c-0.081562,0.0101318-0.2122116,0.0695724-0.3918762,0.1786919c-0.1797409,0.1087494-0.345974,0.1638794-0.4985504,0.1652145       c-0.1526489,0.0009689-0.3120499-0.0716286-0.4784279-0.2179909c-0.166378-0.1463585-0.2590446-0.3133965-0.2775917-0.5013542       c-0.0186958-0.1877861,0.0409126-0.3600655,0.1789703-0.5170059c0.2019768-0.2295952,0.4840202-0.342968,0.8458748-0.3400345       l0.106144,0.3690338c-0.2979164,0.0011559-0.5169945,0.081665-0.6574593,0.2413445       c-0.0702324,0.0798378-0.1038284,0.1627884-0.1004181,0.2488823c0.0031509,0.0861664,0.0417061,0.1616287,0.1152954,0.2263641       c0.0736961,0.0648346,0.1503677,0.0931587,0.2301254,0.085083c0.0796471-0.0081787,0.1838646-0.0514488,0.3122406-0.1295662       c0.1285286-0.0782928,0.2316818-0.13311,0.3090515-0.1642151c0.0775223-0.0312729,0.1580238-0.0487061,0.2417297-0.0520973       c0.1618614-0.0116653,0.330883,0.0602951,0.5072479,0.2154427c0.1763687,0.1551476,0.2690201,0.3239899,0.2775459,0.5067749       c0.0086784,0.1826134-0.0511246,0.3468323-0.1792564,0.4924889c-0.0825653,0.0938568-0.1845055,0.1694565-0.3056755,0.2266235       c-0.1214294,0.0572433-0.2480469,0.0874786-0.3798485,0.0907135l-0.126339-0.3458595       c0.089035,0.001297,0.1826134-0.0207024,0.2806244-0.0660973       C53.6815758,45.1390724,53.7623672,45.0803528,53.8258324,45.0082054z"/>
					<path fill="#E56353" d="M51.6605568,45.0054626l-0.3044205-0.5285988l0.2328033-0.2646446l1.3375053,2.3244133       l-0.2328072,0.2646484l-2.4759636-1.0302544l0.2329559-0.2648163l0.5630951,0.2345467L51.6605568,45.0054626z        M51.3996925,45.9013672l1.0202141,0.4243889l-0.5508423-0.9579506L51.3996925,45.9013672z"/>
					<path fill="#E56353" d="M50.0384102,45.9748116l1.9067345,1.67733l-0.2180672,0.2478943l-1.6011734-1.408535       l-0.5895348,0.6701584l-0.3055611-0.2687988L50.0384102,45.9748116z"/>
					<path fill="#E56353" d="M49.9918633,49.8725624l-0.302784-0.2663574l0.6892395-0.7835083l-0.5046806-0.4439621       l-0.6190109,0.7036667l-0.2863579-0.2519073l0.6190109-0.7036667l-0.5101204-0.4487457l-0.7115021,0.8088074       l-0.302784-0.2663574l0.9295654-1.0567017l1.9067345,1.6773338L49.9918633,49.8725624z"/>
				</g>
				<path fill="#27A2DB" d="M57.3297386,40.6623802c-0.6365547-0.549839-1.7783165-0.273674-2.5462799,0.6151123      c-0.4615059,0.5338478-0.7045097,1.1929855-0.6504021,1.7629776c0.0058327,0.0619888,0.0422935,0.1138496,0.0929489,0.1419754      c0.0310783,0.0172577,0.0673141,0.025589,0.1054993,0.0219879c0.1000214-0.0095177,0.1733589-0.0983925,0.1638412-0.1984138      c-0.0448914-0.4730911,0.165699-1.0302811,0.5633965-1.4905891c0.6370811-0.7369232,1.5496407-0.9957161,2.0330505-0.5775681      c0.4839668,0.4182549,0.3597336,1.35812-0.2769547,2.0950623c-0.1296005,0.149929-0.2955666,0.3008003-0.4491577,0.4130173      l0.2606773,0.2585373c0.1757011-0.1286049,0.3162727-0.2628212,0.463768-0.4336205      C57.8582001,42.3822327,57.9656296,41.211956,57.3297386,40.6623802z"/>
			</g>
		</g>
	</g>
</g>
</svg>
