<?xml version="1.0" encoding="utf-8"?>
<!-- Generator: Adobe Illustrator 21.0.2, SVG Export Plug-In . SVG Version: 6.00 Build 0)  -->
<svg xmlns="http://www.w3.org/2000/svg" xmlns:xlink="http://www.w3.org/1999/xlink" version="1.1" id="Layer_1" x="0px" y="0px" viewBox="0 0 100 100" enable-background="new 0 0 100 100" xml:space="preserve" width="512" height="512">
<g>
	<circle fill="#EFC84A" cx="50" cy="50" r="48"/>
	<path opacity="0.1" d="M97.7633057,54.7613525L66.2000122,23.1900024C65.8599854,22.7699585,65.3400269,22.5,64.7600098,22.5   H35.2399902c-1.0299683,0-1.8599854,0.8299561-1.8599854,1.8599854v51.2800293   c0,0.5799561,0.2700195,1.0899658,0.6799927,1.4299927L54.7539063,97.763916   C77.4649048,95.5305176,95.5264893,77.4712524,97.7633057,54.7613525z"/>
	<g>
		<path fill="#64798A" d="M64.7568359,22.5H35.243042c-1.0289307,0-1.8630371,0.8341675-1.8630371,1.8630981v51.2738037    c0,1.0289917,0.8341064,1.8630981,1.8630371,1.8630981h29.5137939c1.0290527,0,1.8631592-0.8341064,1.8631592-1.8630981    V24.3630981C66.6199951,23.3341675,65.7858887,22.5,64.7568359,22.5z"/>
		<rect x="33.3800049" y="28.1060562" fill="#E1E6E9" width="33.2399902" height="40.6397057"/>
		<rect x="35.0194664" y="28.1060562" fill="#FFFFFF" width="29.961071" height="40.6397057"/>
		<g>
			<path fill="#3A556A" d="M50,76.2200317c-1.7246094,0-3.1269531-1.402832-3.1269531-3.1269531     S48.2753906,69.9661255,50,69.9661255s3.1269531,1.402832,3.1269531,3.1269531S51.7246094,76.2200317,50,76.2200317z      M50,71.4661255c-0.8974609,0-1.6269531,0.7299805-1.6269531,1.6269531S49.1025391,74.7200317,50,74.7200317     s1.6269531-0.7299805,1.6269531-1.6269531S50.8974609,71.4661255,50,71.4661255z"/>
		</g>
		<path fill="#3A556A" d="M55.5705109,24.5566158H44.429493c-0.4754028,0-0.8609085,0.385458-0.8609085,0.8609085    c0,0.4755001,0.3855057,0.8609085,0.8609085,0.8609085h11.1410179c0.4754982,0,0.8609085-0.3854084,0.8609085-0.8609085    C56.4314194,24.9420738,56.0460091,24.5566158,55.5705109,24.5566158z"/>
		<circle fill="#3A556A" cx="41.5778694" cy="25.4175243" r="0.8609078"/>
		<g>
			<g>
				<circle fill="#64798A" cx="46.59235" cy="58.6580391" r="1.9826338"/>
			</g>
			<g>
				<circle fill="#EBF0F3" cx="46.59235" cy="58.6580391" r="1.1122999"/>
			</g>
			<g>
				<circle fill="#64798A" cx="59.160347" cy="58.6580391" r="1.9826338"/>
			</g>
			<g>
				<circle fill="#EBF0F3" cx="59.160347" cy="58.6580391" r="1.1122999"/>
			</g>
			<path fill="#E1E6E9" d="M41.0482674,39.7723999v0.8703346h3.3262253v1.4053688h-2.8749084v0.8703308h2.8749084v1.5120354     h-2.2357559v0.8703346h2.2357559v1.5120354h-1.7466202v0.8703346h1.7466202v1.5120354h-1.1448631v0.8703346h1.1448631v2.260643     l-0.5095367,0.0496941l0.0841408,0.8660851l16.8975677-1.6476021l2.8336868-11.8219643H41.0482674z M62.2401886,42.0481033     h-3.3033295v-1.4053688h3.640274L62.2401886,42.0481033z M52.0910568,46.8128395v-1.5120354h2.5527802v1.5120354H52.0910568z      M54.643837,47.6831741v1.5120354h-2.5527802v-1.5120354H54.643837z M52.0910568,44.4304695v-1.5120354h2.5527802v1.5120354     H52.0910568z M55.5141716,42.9184341h2.5523529v1.5120354h-2.5523529V42.9184341z M55.5141716,42.0481033v-1.4053688h2.5523529     v1.4053688H55.5141716z M54.643837,42.0481033h-2.5527802v-1.4053688h2.5527802V42.0481033z M51.2207222,42.0481033h-2.552784     v-1.4053688h2.552784V42.0481033z M51.2207222,42.9184341v1.5120354h-2.552784v-1.5120354H51.2207222z M51.2207222,45.3008041     v1.5120354h-2.552784v-1.5120354H51.2207222z M51.2207222,47.6831741v1.5120354h-2.552784v-1.5120354H51.2207222z      M51.2207222,50.0655441v1.5929642l-2.552784,0.248951v-1.8419151H51.2207222z M52.0910568,50.0655441h2.5527802v1.2591248     l-2.5527802,0.248951V50.0655441z M55.5141716,50.0655441h2.5523529v0.925312l-2.5523529,0.2489243V50.0655441z      M55.5141716,49.1952095v-1.5120354h2.5523529v1.5120354H55.5141716z M55.5141716,46.8128395v-1.5120354h2.5523529v1.5120354     H55.5141716z M58.9368591,45.3008041h2.5234604l-0.3625526,1.5120354h-2.1609077V45.3008041z M58.9368591,44.4304695v-1.5120354     h3.0946159l-0.3624954,1.5120354H58.9368591z M45.2448235,40.6427345h2.552784v1.4053688h-2.552784V40.6427345z      M45.2448235,42.9184341h2.552784v1.5120354h-2.552784V42.9184341z M45.2448235,45.3008041h2.552784v1.5120354h-2.552784     V45.3008041z M45.2448235,47.6831741h2.552784v1.5120354h-2.552784V47.6831741z M45.2448235,50.0655441h2.552784v1.9268036     l-2.552784,0.248951V50.0655441z M58.9368591,50.9059982v-0.8404541h1.3810387l-0.1732788,0.7226563L58.9368591,50.9059982z      M60.5265579,49.1952095h-1.5896988v-1.5120354h1.952198L60.5265579,49.1952095z"/>
			<g>
				<path fill="#27A2DB" d="M62.2247505,55.1866188H43.8866272c-0.5027351,0-0.9102821-0.407547-0.9102821-0.9102821v-0.0539703      c0-0.4690857,0.3552208-0.8667221,0.8226318-0.9063263c0.1587791-0.0134659,0.3036423-0.0949249,0.3961792-0.2228127      c0.0905151-0.1251564,0.1228142-0.2834549,0.0879669-0.4349556l-3.7643661-16.2565041h-2.0143471v0.8703346h1.3225021      l3.530632,15.2486916c-0.7339211,0.2248077-1.2515297,0.9019928-1.2515297,1.7015724v0.0539703      c0,0.9834023,0.7972374,1.7806129,1.7806129,1.7806129h18.3381233c0.2403183,0,0.4351654-0.1948471,0.4351654-0.4351654      C62.6599159,55.3814392,62.4650688,55.1866188,62.2247505,55.1866188z"/>
			</g>
			<g>
				<path fill="#E56353" d="M36.946373,36.2112503c-0.3461342,0-0.6267204,0.2805862-0.6267204,0.6266937      c0,0.3461113,0.2805862,0.6266937,0.6267204,0.6266937h2.3383331v-1.2533875H36.946373z"/>
			</g>
		</g>
	</g>
</g>
</svg>
