<?xml version="1.0" encoding="utf-8"?>
<!-- Generator: Adobe Illustrator 21.0.2, SVG Export Plug-In . SVG Version: 6.00 Build 0)  -->
<svg xmlns="http://www.w3.org/2000/svg" xmlns:xlink="http://www.w3.org/1999/xlink" version="1.1" id="Layer_1" x="0px" y="0px" viewBox="0 0 100 100" enable-background="new 0 0 100 100" xml:space="preserve" width="512" height="512">
<g>
	<circle fill="#334D5C" cx="50" cy="50" r="48"/>
	<path opacity="0.1" d="M96.3223267,62.5823364l-36.432312-36.432373   c-1.9500122-2.2999878-5.7800293-3.2999878-10.1799927-3.2799683C43.5,22.9099731,38.4799805,24.9699707,38.4799805,29.9599609   v6.0800171c0,0.0200195,0.0300293,0.0300293,0.0500488,0.0200195l-0.0500488,0.0199585l0.0500488,0.1500244   c-1.2200317,0.25-2.1500244,1.4299927-2.1500244,3.4299927c0,2.1900024,1.1199951,4.5499878,2.5299683,4.6799927   c0.6600342,2.4100342,1.8900146,4.6100464,3.5,6.3200073v4.5l-0.0499878,0.0200195l-0.0100098-0.0200195l-2.0199585,0.5300293   l-2.5599976,0.6599731l-5.5800171,1.4299927c-2.75,0.7000122-4.7299805,3.1100464-4.8900146,5.9500122l-0.7799683,13.4000244   l20.7908936,20.7908936C48.2014771,97.9700928,49.097168,98,50,98C72.1542969,98,90.7925415,82.9866943,96.3223267,62.5823364z"/>
	<g>
		<path fill="#F6C358" d="M57.5857773,55.1643944h-0.0007324v-5.098938h-15.170166v5.098938l-3.1137695,0.7963867    c0.6682129,5.3143311,5.2033463,15.4737206,10.6989517,15.4737206c5.4953613,0,10.0307846-10.1594505,10.6987534-15.4738426    L57.5857773,55.1643944z"/>
		<path fill="#FCD462" d="M60.9767952,36.1763458c-0.1662827-0.4921455-1.2350655-7.1189747-1.4579659-7.5713024H39.4664154    c-0.2229004,0.4523277-0.2769051,7.0791569-0.4431915,7.5713024c-1.4573975,0.0016823-2.6383896,1.2280388-2.6383896,3.4823418    c0,2.1941223,1.1188316,4.5529671,2.5223656,4.6804428c1.4962769,5.4432983,5.8961143,9.8635483,11.0928116,9.8635483    c5.1966476,0,9.5964851-4.4202499,11.0928116-9.8635483c1.4034843-0.1274529,2.5223389-2.4863205,2.5223389-4.6804428    C63.6151619,37.4043846,62.4341965,36.1780281,60.9767952,36.1763458z"/>
		<path fill="#2D93BA" d="M61.2532082,36.0837669l-1.601902,4.5056725    c-0.1759644,0.4949265-0.8762436,0.7258797-1.4353104,0.4747238c-1.3056335-0.5865059-3.9156342-1.4001579-8.3480949-1.4001579    s-7.0424614,0.813652-8.3480949,1.4001579c-0.559063,0.2511559-1.259346,0.0202026-1.4353104-0.4747238l-1.601902-4.5056725    l8.9106827-4.1853905l11.2336121,2.3006439L61.2532082,36.0837669z"/>
		<path fill="#27A2DB" d="M49.7094879,22.8743496c-6.2107849,0.0347385-11.2268944,2.098875-11.2268944,7.0901279v6.0718498    c0,0.0217667,0.0286942,0.0354118,0.0527344,0.0253792c7.555069-3.1529732,15.1100769-3.1529961,22.6651459,0    c0.0240402,0.0100327,0.0527344-0.0036125,0.0527344-0.0253792v-6.0019417    C61.2532082,24.9388752,56.0699768,22.8387737,49.7094879,22.8743496z"/>
		<polygon fill="#1C75A1" points="49.8679008,25.506815 50.7933197,27.3819218 52.8626251,27.6826096 51.3652611,29.1421757     51.7187424,31.2031174 49.8679008,30.230072 48.0170593,31.2031174 48.3705406,29.1421757 46.8731766,27.6826096     48.942482,27.3819218   "/>
		<path fill="#E56353" d="M72.7037964,63.7257652c-0.1636963-2.8376465-2.1448975-5.243103-4.8985596-5.9474487    l-5.5742188-1.4257202l-2.559082-0.6663818l-9.671875,13.7482872l-9.6726074-13.7481041l-2.5583496,0.6662598    l-5.5742188,1.4257202c-2.7536602,0.7042847-4.7349834,3.1097412-4.8986797,5.9473877L26.5233784,77.126091h46.9532471    L72.7037964,63.7257652z"/>
		<polygon fill="#CE412D" points="59.671936,55.6862144 57.6489868,55.159359 50.000061,65.6132126 42.3511353,55.15942     40.3274536,55.6863976 50.000061,69.4345016   "/>
		<path fill="#FFFFFF" d="M65.9208374,67.7688522h-8.2845459c-0.3430176,0-0.6213379,0.2781372-0.6213379,0.6213379v1.9675293    c0,0.3431396,0.2783203,0.6213379,0.6213379,0.6213379h8.2845459c0.3431396,0,0.6212158-0.2781982,0.6212158-0.6213379v-1.9675293    C66.5420532,68.0469894,66.2639771,67.7688522,65.9208374,67.7688522z"/>
	</g>
</g>
</svg>
