<?xml version="1.0" encoding="utf-8"?>
<!-- Generator: Adobe Illustrator 21.0.2, SVG Export Plug-In . SVG Version: 6.00 Build 0)  -->
<svg xmlns="http://www.w3.org/2000/svg" xmlns:xlink="http://www.w3.org/1999/xlink" version="1.1" id="Layer_1" x="0px" y="0px" viewBox="0 0 100 100" enable-background="new 0 0 100 100" xml:space="preserve" width="512" height="512">
<g>
	<circle fill="#E05B49" cx="50" cy="50" r="48"/>
	<path opacity="0.1" d="M97.253418,58.3934326L69.8000488,30.9400024l-0.1700439-0.1700439   C64.6400146,25.6699829,57.6799316,22.5,50,22.5c-15.1599121,0-27.5,12.3399658-27.5,27.5   c0,1.0799561,0.6699219,2.0100098,1.6099854,2.3999634l0.7000732,11.8000488   c-0.4400635,0.6099854-0.7000732,1.3499756-0.7000732,2.1599731c0,1.1099854,0.4899902,2.1099854,1.2600098,2.7800293v0.0099487   l0.039917,0.0300293l2.2800293,2.289978v1.2600098c0,0.25,0.0900879,0.4799805,0.25,0.6600342l0.1401367,0.1399536   l2.2299805,2.2300415v0.0599976c0,0.1699829,0.0699463,0.3299561,0.1999512,0.4400024l0.0100098,0.0099487L52.1945801,97.944519   C74.8513184,96.9242554,93.4055176,80.1981812,97.253418,58.3934326z"/>
	<g>
		<g>
			<g>
				<g>
					
						<rect x="66.199173" y="57.0039444" transform="matrix(0.0590942 -0.9982524 0.9982524 0.0590942 12.2488194 129.0028381)" fill="#64798A" width="16.7158222" height="1.9995883"/>
				</g>
				<path fill="#3A556A" d="M72.1776886,62.6467476v7.4313927c2.052002,0,3.7155762-1.6635742,3.7155762-3.7156982      S74.2296906,62.6467476,72.1776886,62.6467476z"/>
			</g>
			<g>
				<g>
					
						<rect x="24.4431248" y="49.6458282" transform="matrix(0.9982524 -0.0590942 0.0590942 0.9982524 -3.3832207 1.6048956)" fill="#64798A" width="1.9995883" height="16.7158222"/>
				</g>
				<path fill="#3A556A" d="M27.8223133,62.6467476v7.4313927c-2.052002,0-3.7155762-1.6635742-3.7155762-3.7156982      S25.7703114,62.6467476,27.8223133,62.6467476z"/>
			</g>
		</g>
		<g>
			<g>
				<path fill="#3A556A" d="M62.2109375,56.9463921c-0.5776939,0-1.0457077,0.4681892-1.0457077,1.0456161v16.75494      c0,0.5775146,0.4680138,1.0456161,1.0457077,1.0456161h1.9356384V56.9463921H62.2109375z"/>
				<path fill="#27A2DB" d="M71.2603683,58.9658585h-1.9356384v14.8072357h1.9356384      c0.5776901,0,1.0457077-0.4681854,1.0457077-1.0457001V60.0114708      C72.306076,59.43396,71.8380585,58.9658585,71.2603683,58.9658585z"/>
				<path fill="#FCD462" d="M69.3518829,56.404644c-1.5530167-0.8717728-3.2182159-1.2429733-4.9866562-1.1524048      c-0.3736992,0.0191269-0.6627235,0.3102684-0.6627235,0.6415596v20.9648743      c0,0.3458328,0.3143883,0.6411667,0.7055931,0.6413269c1.772728,0.000946,3.4186325-0.3575287,4.9202042-1.121666      c0.2236481-0.1138,0.3590469-0.3328705,0.3590469-0.5611038V56.9546089      C69.6873474,56.735302,69.5608749,56.5221596,69.3518829,56.404644z"/>
				<path fill="#E56353" d="M65.6170197,55.2705231v22.1670685c0.3659439-0.0359039,0.7239685-0.0961914,1.0780334-0.1663818      V55.4297256C66.3395004,55.3586655,65.9819717,55.2986259,65.6170197,55.2705231z"/>
			</g>
			<g>
				<path fill="#3A556A" d="M37.7890663,56.9463921c0.5776901,0,1.0457039,0.4681892,1.0457039,1.0456161v16.75494      c0,0.5775146-0.4680138,1.0456161-1.0457039,1.0456161h-1.9356422V56.9463921H37.7890663z"/>
				<path fill="#27A2DB" d="M28.7396317,58.9658585h1.9356441v14.8072357h-1.9356441      c-0.577692,0-1.0457039-0.4681854-1.0457039-1.0457001V60.0114708      C27.6939278,59.43396,28.1619396,58.9658585,28.7396317,58.9658585z"/>
				<path fill="#FCD462" d="M30.6481228,56.404644c1.5530148-0.8717728,3.2182102-1.2429733,4.9866581-1.1524048      c0.3736954,0.0191269,0.6627197,0.3102684,0.6627197,0.6415596v20.9648743c0,0.3458328-0.3143921,0.6411667-0.7055931,0.6413269      c-1.7727318,0.000946-3.4186363-0.3575287-4.9202061-1.121666c-0.2236443-0.1138-0.3590469-0.3328705-0.3590469-0.5611038      V56.9546089C30.3126545,56.735302,30.4391251,56.5221596,30.6481228,56.404644z"/>
				<path fill="#E56353" d="M34.3829842,55.2705231v22.1670685c-0.3659477-0.0359039-0.7239723-0.0961914-1.0780334-0.1663818      V55.4297256C33.6604996,55.3586655,34.0180283,55.2986259,34.3829842,55.2705231z"/>
			</g>
		</g>
		<g>
			<path fill="#3A556A" d="M74.9015427,52.5984573c-1.4352417,0-2.5984573-1.1632156-2.5984573-2.5984573     c0-12.2980118-10.0050735-22.3030853-22.3030853-22.3030853S27.6969147,37.7019882,27.6969147,50     c0,1.4352417-1.1632156,2.5984573-2.5984554,2.5984573c-1.4352417,0-2.5984573-1.1632156-2.5984573-2.5984573     c0-15.1634178,12.3365803-27.5,27.4999981-27.5S77.5,34.8365822,77.5,50     C77.5,51.4352417,76.3367844,52.5984573,74.9015427,52.5984573z"/>
		</g>
	</g>
</g>
</svg>
