<?xml version="1.0" encoding="utf-8"?>
<!-- Generator: Adobe Illustrator 21.0.2, SVG Export Plug-In . SVG Version: 6.00 Build 0)  -->
<svg xmlns="http://www.w3.org/2000/svg" xmlns:xlink="http://www.w3.org/1999/xlink" version="1.1" id="Layer_1" x="0px" y="0px" viewBox="0 0 100 100" enable-background="new 0 0 100 100" xml:space="preserve" width="512" height="512">
<g>
	<circle fill="#E05B49" cx="50" cy="50" r="48"/>
	<path opacity="0.1" d="M75.5,23.4199829h-51c-1.0999756,0-2,0.9000244-2,2v38.6599731   c0,0.7000122,0.3599854,1.3100586,0.9099731,1.6700439l31.9453735,31.9453125C79.3432007,95.0310669,98,74.6984863,98,50   c0-1.7492065-0.0994263-3.4747314-0.2817993-5.1754761L76.9500122,24.0499878   C76.5800171,23.6599731,76.0700073,23.4199829,75.5,23.4199829z"/>
	<g>
		<g>
			<rect x="42.5532379" y="65.4297714" fill="#E1E6E9" width="14.893527" height="7.7805567"/>
			<path fill="#3A556A" d="M77.5,25.4207973c0-1.1046143-0.8953857-2-2-2h-51c-1.1044922,0-2,0.8953857-2,2v32.267334h55V25.4207973     z"/>
			<rect x="25.5002441" y="26.4209805" fill="#64798A" width="49" height="31.2671509"/>
			<path fill="#EBF0F3" d="M22.5,57.6881332v6.3894043c0,1.1045532,0.8955078,2,2,2h51c1.1046143,0,2-0.8954468,2-2v-6.3894043H22.5     z"/>
			<circle fill="#E1E6E9" cx="50" cy="61.8828354" r="2.1389639"/>
			<rect x="38.0705795" y="74.9860916" fill="#E1E6E9" width="23.8588428" height="1.59311"/>
			<polygon fill="#D5D6DB" points="57.4467773,72.6744003 42.5532227,72.6744003 38.0705566,74.9861069 61.9294434,74.9861069         "/>
			<g>
				<path fill="#E1E6E9" d="M70.6020355,31.0514145v3.2896118c0,1.8963623,1.5373535,3.4336548,3.4335938,3.4336548      c1.8963623,0,3.4335938-1.5372925,3.4335938-3.4336548v-3.2896118H70.6020355z"/>
				<path fill="#D15241" d="M63.7348289,31.0514145v3.2896118c0,1.8963623,1.5373497,3.4336548,3.4335899,3.4336548      c1.8963623,0,3.4335938-1.5372925,3.4335938-3.4336548v-3.2896118H63.7348289z"/>
				<path fill="#E1E6E9" d="M56.8675613,31.0514145v3.2896118c0,1.8963623,1.5373535,3.4336548,3.4335938,3.4336548      c1.8963623,0,3.4335938-1.5372925,3.4335938-3.4336548v-3.2896118H56.8675613z"/>
				<path fill="#D15241" d="M50.0002975,31.0514145v3.2896118c0,1.8963623,1.5373535,3.4336548,3.4335938,3.4336548      c1.8963623,0,3.4335938-1.5372925,3.4335938-3.4336548v-3.2896118H50.0002975z"/>
				<path fill="#E1E6E9" d="M43.1330299,31.0514145v3.2896118c0,1.8963623,1.5373535,3.4336548,3.4335938,3.4336548      c1.8963623,0,3.4335938-1.5372925,3.4335938-3.4336548v-3.2896118H43.1330299z"/>
				<path fill="#D15241" d="M36.2657661,31.0514145v3.2896118c0,1.8963623,1.5373535,3.4336548,3.4335938,3.4336548      c1.8963623,0,3.4335938-1.5372925,3.4335938-3.4336548v-3.2896118H36.2657661z"/>
				<path fill="#E1E6E9" d="M29.3985004,31.0514145v3.2896118c0,1.8963623,1.5373535,3.4336548,3.4335918,3.4336548      c1.8963623,0,3.4335938-1.5372925,3.4335938-3.4336548v-3.2896118H29.3985004z"/>
				<path fill="#D15241" d="M22.5312347,31.0514145v3.2896118c0,1.8963623,1.5373535,3.4336548,3.4335938,3.4336548      c1.8963623,0,3.4335938-1.5372925,3.4335938-3.4336548v-3.2896118H22.5312347z"/>
				<polygon fill="#E56353" points="34.5490074,26.4209805 29.3985786,26.4209805 22.5313377,31.0514317 29.3985786,31.0514317           "/>
				<polygon fill="#EBF0F3" points="39.6994362,26.4209805 34.5490074,26.4209805 29.3985786,31.0514317 36.2658195,31.0514317           "/>
				<polygon fill="#E56353" points="44.8498688,26.4209805 39.6994362,26.4209805 36.2658195,31.0514317 43.1330566,31.0514317           "/>
				<polygon fill="#EBF0F3" points="50.0002975,26.4209805 44.8498688,26.4209805 43.1330566,31.0514317 50.0002975,31.0514317           "/>
				<polygon fill="#E56353" points="55.1507263,26.4209805 50.0002975,26.4209805 50.0002975,31.0514317 56.8675346,31.0514317           "/>
				<polygon fill="#EBF0F3" points="60.3011551,26.4209805 55.1507263,26.4209805 56.8675346,31.0514317 63.7347755,31.0514317           "/>
				<polygon fill="#E56353" points="65.4515839,26.4209805 60.3011551,26.4209805 63.7347755,31.0514317 70.6020126,31.0514317           "/>
				<polygon fill="#EBF0F3" points="70.6020126,26.4209805 65.4515839,26.4209805 70.6020126,31.0514317 77.4692535,31.0514317           "/>
			</g>
		</g>
		<g>
			<path fill="#FFFFFF" d="M43.018364,51.4143944c-0.7398033,0-1.3717804,0.4600296-1.6318016,1.1082382h-3.935833     c-0.2600174-0.6482086-0.892292-1.1082382-1.6329765-1.1082382c-0.7398071,0-1.3717842,0.4600296-1.6318016,1.1082382h-0.6681175     c-0.481842,0-0.8743706-0.3919373-0.8743706-0.8737793s0.3925285-0.8737831,0.8743706-0.8737831h11.6053619l1.6171112-8.9898949     H32.3975487l-0.4603958-2.2264671H29.659565v1.203434h1.2974491l1.8499546,8.9428139     c-0.7951889,0.291748-1.3669357,1.0492554-1.3669357,1.9438972c0,1.1452599,0.9319534,2.0772133,2.0778008,2.0772133h0.6362381     c0.2325478,0.7005806,0.8862686,1.2104836,1.663681,1.2104836c0.7782936,0,1.4323044-0.509903,1.664856-1.2104836h3.8720779     c0.2325478,0.7005806,0.8862648,1.2104836,1.6636772,1.2104836c0.7782936,0,1.4323082-0.509903,1.664856-1.2104836h0.9594269     v-1.203434h-0.9913025C44.3913231,51.874424,43.7590523,51.4143944,43.018364,51.4143944z M45.3018303,42.9886093     L44.1172028,49.57164H34.0073166l-1.3609123-6.5830307H45.3018303z M35.8177528,53.7331161     c-0.306736,0-0.5570602-0.2503204-0.5570602-0.5576439s0.2503242-0.5576439,0.5570602-0.5576439     c0.3079071,0,0.5582314,0.2503204,0.5582314,0.5576439S36.1256599,53.7331161,35.8177528,53.7331161z M43.018364,53.7331161     c-0.3067322,0-0.5570564-0.2503204-0.5570564-0.5576439s0.2503242-0.5576439,0.5570564-0.5576439     c0.3079109,0,0.5582352,0.2503204,0.5582352,0.5576439S43.3262749,53.7331161,43.018364,53.7331161z"/>
			<rect x="34.6907082" y="44.4817352" fill="#FFFFFF" width="1.2034321" height="3.6661193"/>
			<rect x="37.0446892" y="44.4817352" fill="#FFFFFF" width="1.2034321" height="3.6661193"/>
			<rect x="39.3986664" y="44.4817352" fill="#FFFFFF" width="1.2034321" height="3.6661193"/>
			<rect x="41.7538223" y="44.4817352" fill="#FFFFFF" width="1.2034321" height="3.6661193"/>
		</g>
		<path fill="#FCD462" d="M64.6519852,49.1132584h-8.7019043c-1.1517334,0-2.0854492,0.9337158-2.0854492,2.0855103v0.000061    c0,1.1517944,0.9337158,2.0855103,2.0854492,2.0855103h8.7019043c1.1518555,0,2.0856934-0.9337158,2.0856934-2.0855103v-0.000061    C66.7376785,50.0469742,65.8038406,49.1132584,64.6519852,49.1132584z"/>
		<g>
			<path fill="#DC8744" d="M57.4488754,52.6116486h-1.2495155V49.75737h1.1106033     c0.193409,0,0.3602333,0.0229301,0.500473,0.0694542c0.139904,0.0461922,0.2442513,0.1086693,0.3123779,0.1877594     c0.1306,0.1468849,0.1957359,0.3130455,0.1957359,0.4981461c0,0.2233162-0.0707855,0.3894768-0.2123528,0.4981422     c-0.0515099,0.0382156-0.0870667,0.0621452-0.1060104,0.0714493c-0.01894,0.0096359-0.0531693,0.0252571-0.1020203,0.0468559     c0.1767921,0.0382156,0.3176956,0.1179733,0.4227104,0.2389374c0.1046791,0.1212959,0.1571846,0.2715034,0.1571846,0.4512863     c0,0.1987267-0.0681267,0.3745232-0.2043762,0.5267258C58.1131783,52.5232506,57.8380165,52.6116486,57.4488754,52.6116486z      M56.681221,50.9414177h0.6124611c0.3486023,0,0.5227356-0.1183052,0.5227356-0.3552475     c0-0.1359177-0.0422058-0.2339516-0.1266136-0.2941017c-0.0844078-0.0598145-0.2150078-0.0897255-0.3921356-0.0897255H56.681221     V50.9414177z M56.681221,52.1666718h0.7553558c0.1771278,0,0.3123779-0.0279121,0.4064255-0.083744     c0.0937157-0.0558281,0.1409035-0.1615028,0.1409035-0.3166962c0-0.2528954-0.2030449-0.379509-0.6084747-0.379509H56.681221     V52.1666718z"/>
			<path fill="#DC8744" d="M59.7232552,51.9583092c0.1306,0.1525345,0.3077278,0.2286339,0.531044,0.2286339     c0.2229843,0,0.4001122-0.0760994,0.5307121-0.2286339s0.1960678-0.3592339,0.1960678-0.6207695V49.75737h0.4818611v1.6007729     c0,0.4110794-0.1129913,0.7274437-0.3389664,0.9494324c-0.225975,0.2216568-0.5160904,0.3326492-0.8696747,0.3326492     c-0.35392,0-0.6440315-0.1109924-0.8700066-0.3326492c-0.225975-0.2219887-0.3389664-0.538353-0.3389664-0.9494324V49.75737     h0.4818611v1.5801697C59.5271873,51.5990753,59.5926552,51.8057747,59.7232552,51.9583092z"/>
			<path fill="#DC8744" d="M63.341198,52.6116486h-0.4898376v-1.1268921L61.789608,49.75737h0.526722l0.7799492,1.2983665     l0.7799492-1.2983665h0.5267258l-1.0617561,1.7273865V52.6116486z"/>
		</g>
	</g>
</g>
</svg>
