<?xml version="1.0" encoding="utf-8"?>
<!-- Generator: Adobe Illustrator 21.0.2, SVG Export Plug-In . SVG Version: 6.00 Build 0)  -->
<svg xmlns="http://www.w3.org/2000/svg" xmlns:xlink="http://www.w3.org/1999/xlink" version="1.1" id="Layer_1" x="0px" y="0px" viewBox="0 0 100 100" enable-background="new 0 0 100 100" xml:space="preserve" width="512" height="512">
<g>
	<circle fill="#334D5C" cx="50" cy="50" r="48"/>
	<path opacity="0.1" d="M65.3499756,22.5H34.6500244c-0.5400391,0-0.9900513,0.4500122-0.9800415,1   c0.0700073,7.0899658,0.9800415,13.7000122,2.5,19.3299561c1.5400391,5.7000122,2.1100464,11.7200317,1.6500244,17.6900024   L36.789978,74.0100098c-0.0499878,0.6499634,0.1300049,1.2599487,0.4400024,1.7199707   c0.1700439,0.2399902,0.3699951,0.4400024,0.5900269,0.5999756l20.875061,20.8696289   c20.8984375-3.8261719,37.0643921-21.1748047,39.0843506-42.6502075L66.0800171,22.8499756   C65.9000244,22.6400146,65.6400146,22.5,65.3499756,22.5z"/>
	<g>
		<path fill="#EBF0F3" d="M66.3348389,23.4958496C66.3406982,22.9500122,65.894165,22.5,65.3482666,22.5H34.6517334    c-0.5458984,0-0.9924316,0.4500122-0.9865723,0.9958496c0.0778809,7.0956421,0.9853516,13.7089233,2.5041504,19.3319092    c1.5415039,5.7067261,2.1091309,11.7237549,1.6535645,17.696106L36.7943115,74.010376    c-0.0981445,1.2850342,0.6713867,2.4343262,1.7412109,2.6002808c7.6430664,1.185791,15.2858887,1.185791,22.9289551,0    c1.0698242-0.1659546,1.8393555-1.3152466,1.7412109-2.6002808L62.177124,60.5239258    c-0.4555664-5.9724121,0.1123047-11.989563,1.6538086-17.6963501    C65.3494873,37.2046509,66.256958,30.5914307,66.3348389,23.4958496z"/>
		<path fill="#E56353" d="M63.7017822,32.9002686c-7.0700684,0.378479-15.2314453-1.6936646-15.2314453-1.6936646    c-3.8764648-1.0708618-8.635498-1.0768433-12.4431152-0.8122559c0.3901367,4.213623,1.0842285,8.251709,2.0727539,11.9119263    c1.6142578,5.9726563,2.1914063,12.1533203,1.7167969,18.3701172l-1.0283203,13.4873047    c-0.0214844,0.2832031,0.0947266,0.4667969,0.0537109,0.4707031c3.7021484,0.5742188,7.4560547,0.8652344,11.1572266,0.8652344    c3.7021484,0,7.4560547-0.2910156,11.0722656-0.8339844c0.0449219-0.0351563,0.1611328-0.21875,0.1396484-0.5029297    l-1.0283203-13.4863281c-0.4746094-6.2138672,0.1035156-12.3945313,1.7167969-18.3701172    C62.6905518,39.3795166,63.2906494,36.2077637,63.7017822,32.9002686z"/>
		<path fill="#D15241" d="M49.167614,66.9365616l-3.0792084-1.9737244c-0.7035637-0.4509735-1.639576-0.2461548-2.0906143,0.4575195    l-1.9736252,3.0790482c-0.4510422,0.7036667-0.2462997,1.6397018,0.4572639,2.0906754l3.0792084,1.9737244    c0.7035637,0.4509735,1.639782,0.2462769,2.0908203-0.4573898l1.9736252-3.0790482    C50.0761261,68.3236923,49.8711777,67.3875351,49.167614,66.9365616z"/>
		<path fill="#D15241" d="M57.2474289,60.3786316l-3.0792046-1.9737244c-0.7035675-0.4509735-1.639576-0.246151-2.0906181,0.4575195    l-1.9736214,3.079052c-0.4510422,0.7036667-0.2463036,1.639698,0.4572639,2.0906715l3.0792046,1.9737244    c0.7035675,0.4509735,1.639782,0.2462769,2.0908241-0.4573898l1.9736252-3.079052    C58.155941,61.7657661,57.9509964,60.8296051,57.2474289,60.3786316z"/>
		<path fill="#D15241" d="M49.167614,55.087616l-3.0792084-1.9737244c-0.7035637-0.4509735-1.639576-0.246151-2.0906143,0.4575195    l-1.9736252,3.079052c-0.4510422,0.7036667-0.2462997,1.639698,0.4572639,2.0906715l3.0792084,1.9737244    c0.7035637,0.4509735,1.639782,0.2462807,2.0908203-0.4573898l1.9736252-3.0790482    C50.0761261,56.4747505,49.8711777,55.5385895,49.167614,55.087616z"/>
		<path fill="#D15241" d="M57.9115181,48.9485512l-3.0792084-1.9737244c-0.7035637-0.4509735-1.639576-0.246151-2.0906143,0.4575195    l-1.9736252,3.079052c-0.4510422,0.7036667-0.2462997,1.639698,0.4572639,2.0906715l3.0792084,1.9737244    c0.7035637,0.4509735,1.639782,0.2462807,2.0908203-0.4573898l1.9736252-3.079052    C58.8200302,50.3356857,58.6150818,49.3995247,57.9115181,48.9485512z"/>
	</g>
</g>
</svg>
