<?xml version="1.0" encoding="utf-8"?>
<!-- Generator: Adobe Illustrator 21.0.2, SVG Export Plug-In . SVG Version: 6.00 Build 0)  -->
<svg xmlns="http://www.w3.org/2000/svg" xmlns:xlink="http://www.w3.org/1999/xlink" version="1.1" id="Layer_1" x="0px" y="0px" viewBox="0 0 100 100" enable-background="new 0 0 100 100" xml:space="preserve" width="512" height="512">
<g>
	<circle fill="#EA8953" cx="50" cy="50" r="48"/>
	<path opacity="0.1" d="M75.2800293,37.2299805h-0.5600586l-8.4599609-8.460022l-0.7800293-0.7799683c0,0,0,0-0.0100098-0.0100098   c-0.1299438-0.1099854-0.2599487-0.2199707-0.3999634-0.3300171c-0.0499878-0.0499878-0.1000366-0.0899658-0.1600342-0.1300049   c-0.1399536-0.1099854-0.2799683-0.1999512-0.4199829-0.2999878c-0.0499878-0.0299683-0.0999756-0.0700073-0.1499634-0.1099854   c-0.8200073-0.5200195-1.6800537-0.8400269-2.5200195-0.8400269c-0.1900024,0-0.3800049,0.0100098-0.5700073,0.0500488   c-4.7800293,0.9299927-7.9099731,4.4799805-9.710022,7.3200073C51.0700073,33.4299927,50.5499878,33.3099976,50,33.3099976   c-0.3499756,0-0.7000122,0.0499878-1.0200195,0.1499634l-2.8800049-2.8800049l-0.789978-0.7999878l-0.0299683-0.0199585   c-1.7000122-1.5800171-3.8600464-2.9200439-6.5300293-3.4400024c-1.0100098-0.1900024-2.0800171,0.1499634-3.0900269,0.789978   c-0.0499878,0.039978-0.0999756,0.0800171-0.1499634,0.1099854c-0.1400146,0.0900269-0.2800293,0.1900024-0.4199829,0.2999878   c-0.0599976,0.0400391-0.1100464,0.0800171-0.1600342,0.1300049c-0.1400146,0.1100464-0.2700195,0.2200317-0.3999634,0.3300171   c-0.0100098,0.0100098-0.0100098,0.0100098-0.0100098,0.0100098c-1.0800171,0.9799805-2,2.25-2.5400391,3.4400024   c-0.0100098,0-0.0100098,0-0.0100098,0.0100098c-0.0199585,0.039978-0.0299683,0.0899658-0.0499878,0.1399536   c-0.0599976,0.1200562-0.1099854,0.25-0.1599731,0.3700562c0,0,0,0,0.0100098,0   C31.6099854,32.3699951,31.5,32.789978,31.460022,33.1599731c-0.0300293,0.2700195-0.0300293,0.5300293,0.0199585,0.7600098   c0.0599976,0.3400269,0.2300415,0.6500244,0.4700317,0.9199829v0.0100098l0.3200073,0.3099976l2.0700073,2.0700073h-9.6200562   c-1.2299805,0-2.2199707,0.9899902-2.2199707,2.2200317v32.0599976c0,0.6300049,0.2600098,1.1999512,0.6799927,1.5999756   l24.8466797,24.8401489C48.6820068,97.9766846,49.3381958,98,50,98c23.6773682,0,43.3366089-17.1484375,47.2701416-39.6998901   l-20.380127-20.380127C76.4799805,37.4899902,75.9099731,37.2299805,75.2800293,37.2299805z"/>
	<g>
		<g>
			<path fill="#27A2DB" d="M75.2821503,37.230629H24.7176952c-1.2248535,0-2.2177734,0.9929199-2.2177734,2.2177124v32.0645142     c0,1.2248535,0.9929199,2.2177734,2.2177734,2.2177734h50.5644531c1.2248535,0,2.2177734-0.9929199,2.2177734-2.2177734     V39.4483414C77.4999237,38.2235489,76.5070038,37.230629,75.2821503,37.230629z"/>
			<path fill="#FCD462" d="M33.9751129,42.3426476h-7.0264511c-0.5683289,0-1.0288181,0.4606056-1.0288181,1.0288773v7.0265121     c0,0.5682678,0.4604893,1.0289345,1.0288181,1.0289345h7.0264511c0.5683289,0,1.0290527-0.4606667,1.0290527-1.0289345     v-7.0265121C35.0041656,42.8032532,34.5434418,42.3426476,33.9751129,42.3426476z"/>
			<g>
				<rect x="25.9198437" y="55.2023087" fill="#FFFFFF" width="22.8193436" height="2"/>
			</g>
			<g>
				<rect x="25.9198437" y="61.0040359" fill="#FFFFFF" width="17.1113281" height="2"/>
			</g>
			<g>
				<rect x="25.9198437" y="67.3292618" fill="#FFFFFF" width="6.2412109" height="2"/>
			</g>
			<g>
				<rect x="37.1405487" y="67.3292618" fill="#FFFFFF" width="6.2412109" height="2"/>
			</g>
			<g>
				<rect x="48.3602753" y="67.3292618" fill="#FFFFFF" width="6.2421875" height="2"/>
			</g>
			<g>
				<rect x="59.5809784" y="67.3292618" fill="#FFFFFF" width="6.2412109" height="2"/>
			</g>
			<g>
				<circle fill="#EBF0F3" cx="63.001297" cy="44.8833313" r="4.2240787"/>
				<circle fill="#E56353" cx="69.7972336" cy="44.8833313" r="4.2240787"/>
			</g>
		</g>
		<rect x="45.2732277" y="37.1100235" fill="#E56353" width="9.4533892" height="36.6206055"/>
		<rect x="46.4141617" y="37.1100235" fill="#FFFFFF" width="0.8571365" height="36.6206055"/>
		<rect x="52.7285461" y="37.1100235" fill="#FFFFFF" width="0.8571365" height="36.6206055"/>
		<g>
			
				<rect x="45.2733879" y="27.9206619" transform="matrix(-1.836970e-16 1 -1 -1.836970e-16 105.4207458 5.4205766)" fill="#E56353" width="9.4533892" height="54.9999962"/>
			
				<rect x="49.5715141" y="24.7634678" transform="matrix(-1.836970e-16 1 -1 -1.836970e-16 102.2635498 2.2633829)" fill="#FFFFFF" width="0.8571365" height="54.9999962"/>
			
				<rect x="49.5715141" y="31.0778561" transform="matrix(-1.836970e-16 1 -1 -1.836970e-16 108.5779343 8.5777702)" fill="#FFFFFF" width="0.8571365" height="54.9999962"/>
		</g>
		<path fill="#E56353" d="M68.5419693,33.1606369c-0.2958908-2.7764626-4.1157532-7.4499454-7.2888527-6.8363647    c-8.2921906,1.6034832-11.6409683,11.1108093-11.6409683,11.1108093s6.4864349-1.5832863,11.6409683-3.9296951    C61.2531166,33.5053864,67.4165955,30.486414,68.5419693,33.1606369z"/>
		<path fill="#FFFFFF" d="M66.5333633,31.1863995c-2.2315216-0.052618-5.0344276,1.2690907-5.5793381,1.5366383    c-3.4428329,1.5549889-7.9537048,3.1258926-10.2785378,3.7984695c0.9627724-1.8553162,4.6492348-8.1581268,10.8289986-9.3441544    c0.0610695-0.011776,0.130249-0.0151711,0.203701-0.0187778c0.0804977-0.0040302,0.1639862-0.0081673,0.2521706-0.0233383    c0.6762238-0.1163349,2.5494537,0.420042,3.5239182,0.8593121c-0.3645401-0.3309975-0.7474899-0.6288967-1.1411438-0.8807278    c-0.9191856-0.2837238-1.929039-0.4974709-2.4570808-0.4067421c-0.0664063,0.0113506-0.1334534,0.0142155-0.1998558,0.0175037    c-0.0851974,0.0042439-0.1733818,0.0085926-0.2645569,0.0260963c-7.061821,1.3553391-10.9396019,9.137291-11.358532,10.0202332    l-0.201992,0.4256096l0.4569359-0.1233749c2.1482506-0.5798569,7.1026077-2.2767906,10.8345528-3.9631119    c0.5237694-0.2570457,3.2515182-1.5312271,5.3709412-1.4893246c0.6680527,0.0150909,1.3025665,0.2004871,1.7139435,0.3278561    c-0.0630722-0.1699352-0.1331863-0.3420448-0.2127228-0.516222C67.6140823,31.3172817,67.090126,31.1988907,66.5333633,31.1863995    z"/>
		<path fill="#D15241" d="M61.2531166,33.5053864c-5.1545334,2.3464088-11.6409683,3.9296951-11.6409683,3.9296951    l13.8097153-0.6655083c0,0,4.6883125-0.633831,5.1029167-2.8522072c0.0428085-0.2291565,0.0462265-0.484211,0.017189-0.7567291    C67.4165955,30.486414,61.2531166,33.5053864,61.2531166,33.5053864z"/>
		<path fill="#E56353" d="M31.4578762,33.1606369c0.295887-2.7764626,4.1157475-7.4499454,7.2888508-6.8363647    c8.2921906,1.6034832,11.6409683,11.1108093,11.6409683,11.1108093s-6.4864349-1.5832863-11.6409683-3.9296951    C38.746727,33.5053864,32.5832443,30.486414,31.4578762,33.1606369z"/>
		<path fill="#FFFFFF" d="M33.4664803,31.1863995c2.2315216-0.052618,5.0344276,1.2690907,5.5793381,1.5366383    c3.4428329,1.5549889,7.9537048,3.1258926,10.2785378,3.7984695c-0.9627724-1.8553162-4.6492348-8.1581268-10.8289986-9.3441544    c-0.0610657-0.011776-0.130249-0.0151711-0.203701-0.0187778c-0.0804977-0.0040302-0.1639862-0.0081673-0.2521706-0.0233383    c-0.6762238-0.1163349-2.5494537,0.420042-3.5239182,0.8593121c0.3645363-0.3309975,0.7474899-0.6288967,1.1411438-0.8807278    c0.9191856-0.2837238,1.929039-0.4974709,2.4570808-0.4067421c0.0664063,0.0113506,0.1334534,0.0142155,0.1998558,0.0175037    c0.0851974,0.0042439,0.1733818,0.0085926,0.2645569,0.0260963c7.061821,1.3553391,10.9396019,9.137291,11.358532,10.0202332    l0.201992,0.4256096l-0.4569359-0.1233749c-2.1482506-0.5798569-7.1026077-2.2767906-10.8345528-3.9631119    c-0.5237694-0.2570457-3.2515144-1.5312271-5.3709373-1.4893246c-0.6680603,0.0150909-1.3025665,0.2004871-1.7139454,0.3278561    c0.0630703-0.1699352,0.1331844-0.3420448,0.2127228-0.516222C32.3857651,31.3172817,32.9097214,31.1988907,33.4664803,31.1863995    z"/>
		<path fill="#D15241" d="M38.746727,33.5053864c5.1545334,2.3464088,11.6409683,3.9296951,11.6409683,3.9296951    L36.57798,36.7695732c0,0-4.6883087-0.633831-5.1029167-2.8522072c-0.0428104-0.2291565-0.0462265-0.484211-0.0171871-0.7567291    C32.5832443,30.486414,38.746727,33.5053864,38.746727,33.5053864z"/>
		<path fill="#D15241" d="M43.1768265,51.4282455c0.9079132-2.4196663,0.6187515-4.3156929,0.2165413-7.9598389    c-3.6502724,0.5326004-5.5695724,0.7329445-7.6969376,2.216301c3.7462425-5.2297783,6.7814484-7.445015,12.2107086-10.9395027    c1.1369324,0.8729706,1.7054062,1.3094521,2.8423576,2.1823997    C48.7161255,43.0294952,47.3245926,46.5068207,43.1768265,51.4282455z"/>
		<path fill="#FFFFFF" d="M48.4177132,35.1372108c-0.0368309-0.0282784-0.0706635-0.0542526-0.1086349-0.0834084    c-0.0185547-0.0142479-0.040062-0.0307617-0.0589066-0.0452309c-3.7720375,2.6022224-7.9623718,5.8485794-10.6252975,9.6384583    c0.4676399-0.1834946,0.9542313-0.3305779,1.4759369-0.456852c3.1162186-4.001339,5.5996323-5.750721,9.4070511-8.9837112    C48.4717941,35.1787758,48.4455948,35.1586189,48.4177132,35.1372108z"/>
		<path fill="#FFFFFF" d="M50.4064827,36.6642113c-0.0188446-0.0144653-0.0403519-0.0309792-0.0589066-0.0452271    c-0.0379715-0.0291557-0.0717583-0.0550957-0.1086807-0.0834465c-0.0278358-0.0213737-0.0541191-0.0415154-0.0901871-0.0692101    c-2.1884232,4.4761925-3.2646599,7.3060951-6.3752899,11.3118782c0.0086823,0.5335503-0.0119781,1.0383759-0.0725937,1.5343895    C46.7196312,45.7958527,48.8239403,40.9477081,50.4064827,36.6642113z"/>
		<path fill="#D15241" d="M56.5136871,51.4282455c-0.907917-2.4196663-0.6187553-4.3156929-0.2165413-7.9598389    c3.6502724,0.5326004,5.5695686,0.7329445,7.6969376,2.216301c-3.7462425-5.2297783-6.7814484-7.445015-12.2107124-10.9395027    c-1.1369324,0.8729706-1.7054062,1.3094521-2.8423576,2.1823997    C50.9743881,43.0294952,52.365921,46.5068207,56.5136871,51.4282455z"/>
		<path fill="#FFFFFF" d="M51.2728004,35.1372108c0.0368271-0.0282784,0.0706596-0.0542526,0.1086311-0.0834084    c0.0185585-0.0142479,0.0400658-0.0307617,0.0589066-0.0452309c3.7720375,2.6022224,7.9623718,5.8485794,10.6252975,9.6384583    c-0.4676399-0.1834946-0.9542313-0.3305779-1.4759369-0.456852c-3.1162186-4.001339-5.5996284-5.750721-9.4070511-8.9837112    C51.2187157,35.1787758,51.244915,35.1586189,51.2728004,35.1372108z"/>
		<path fill="#FFFFFF" d="M49.2840309,36.6642113c0.0188408-0.0144653,0.0403481-0.0309792,0.0589066-0.0452271    c0.0379715-0.0291557,0.0717545-0.0550957,0.1086769-0.0834465c0.0278358-0.0213737,0.0541229-0.0415154,0.0901909-0.0692101    c2.1884232,4.4761925,3.2646561,7.3060951,6.3752861,11.3118782c-0.0086823,0.5335503,0.011982,1.0383759,0.0725975,1.5343895    C52.9708824,45.7958527,50.8665695,40.9477081,49.2840309,36.6642113z"/>
		<path fill="#CE412D" d="M49.9999237,33.3126984c-2.0900726,0-3.7844315,1.683609-3.7844315,3.7604485h7.5688591    C53.7843513,34.9963074,52.0899925,33.3126984,49.9999237,33.3126984z"/>
	</g>
</g>
</svg>
