<?xml version="1.0" encoding="utf-8"?>
<!-- Generator: Adobe Illustrator 21.0.2, SVG Export Plug-In . SVG Version: 6.00 Build 0)  -->
<svg xmlns="http://www.w3.org/2000/svg" xmlns:xlink="http://www.w3.org/1999/xlink" version="1.1" id="Layer_1" x="0px" y="0px" viewBox="0 0 100 100" enable-background="new 0 0 100 100" xml:space="preserve" width="512" height="512">
<g>
	<circle fill="#EFC84A" cx="50" cy="50" r="48"/>
	<path opacity="0.1" d="M65.7999878,33.6400146H24.1699829c-1.789978,0-3.25,1.4599609-3.25,3.25v26.2199707   c0,0.8800049,0.3500366,1.6900024,0.9400024,2.2800293l0.1300049,0.1299438l32.2806396,32.2807007   c20.3660278-1.796936,37.0773926-16.303772,42.1445923-35.5454712L69.8900146,35.7299805   C68.9400024,34.4199829,67.4199829,33.6400146,65.7999878,33.6400146z"/>
	<g>
		<path fill="#27A2DB" d="M69.8886948,64.2737885l8.2217636-11.2961273c1.2918777-1.7749062,1.2918777-4.1804161,0-5.9553223    l-8.2217255-11.2961273c-0.9522934-1.3083572-2.4729156-2.0823746-4.0911636-2.0823746H24.1700954    c-1.7946301,0-3.2494583,1.4548988-3.2494583,3.2494545v26.2135582c0,1.7945557,1.4547939,3.2493134,3.2493858,3.2493134    h41.6275864C67.4158173,66.356163,68.9364395,65.5821457,69.8886948,64.2737885z"/>
		<rect x="24.9209213" y="37.6438637" fill="#FFFFFF" width="33.7005615" height="24.7124023"/>
		
			<ellipse transform="matrix(0.7071068 -0.7071068 0.7071068 0.7071068 -13.8356075 66.5849686)" fill="#FFFFFF" cx="73.4573669" cy="49.9935417" rx="2.7955317" ry="2.7955317"/>
		<g>
			<rect x="26.9671974" y="40.2616577" fill="#64798A" width="0.9062367" height="19.4768181"/>
			<rect x="29.1748219" y="40.2616577" fill="#64798A" width="1.5238777" height="19.4768181"/>
			<rect x="31.3828888" y="40.2616577" fill="#64798A" width="0.9062367" height="19.4768181"/>
			<rect x="33.5905113" y="40.2616577" fill="#64798A" width="0.9062367" height="19.4768181"/>
			<rect x="36.5543404" y="40.2616577" fill="#64798A" width="1.2059798" height="19.4768181"/>
			<rect x="35.0251656" y="40.2616577" fill="#64798A" width="0.9062367" height="19.4768181"/>
			<rect x="38.5445328" y="40.2616577" fill="#64798A" width="0.9062367" height="19.4768181"/>
			<rect x="40.2142715" y="40.2616577" fill="#64798A" width="0.9062367" height="19.4768181"/>
			<rect x="42.4218941" y="40.2616577" fill="#64798A" width="0.9062367" height="19.4768181"/>
			<rect x="44.6299629" y="40.2616577" fill="#64798A" width="0.9062367" height="19.4768181"/>
			<rect x="46.8375854" y="40.2616577" fill="#64798A" width="1.5198078" height="19.4768181"/>
			<rect x="49.0456543" y="40.2616577" fill="#64798A" width="0.9062367" height="19.4768181"/>
			<rect x="51.2532768" y="40.2616577" fill="#64798A" width="0.9062367" height="19.4768181"/>
			<rect x="53.4613457" y="40.2616577" fill="#64798A" width="0.9062367" height="19.4768181"/>
			<rect x="55.6689682" y="40.2616577" fill="#64798A" width="0.9062367" height="19.4768181"/>
			<rect x="26.9671974" y="55.178669" fill="#E56353" width="29.6080093" height="1.0237434"/>
		</g>
	</g>
</g>
</svg>
