<?xml version="1.0" encoding="utf-8"?>
<!-- Generator: Adobe Illustrator 21.0.2, SVG Export Plug-In . SVG Version: 6.00 Build 0)  -->
<svg xmlns="http://www.w3.org/2000/svg" xmlns:xlink="http://www.w3.org/1999/xlink" version="1.1" id="Layer_1" x="0px" y="0px" viewBox="0 0 100 100" enable-background="new 0 0 100 100" xml:space="preserve" width="512" height="512">
<g>
	<circle fill="#E05B49" cx="50" cy="50" r="48"/>
	<path opacity="0.1" d="M52.3499756,23.7299805l-0.0299683-0.0200195c-0.6300049-0.5499878-1.3599854-0.9400024-2.1699829-1.1099854   c-3.4200439-0.7199707-7.0100098,2.5900269-8.0100098,7.3699951C42,30.6199951,41.9299927,31.2799683,41.9000244,31.9199829   l-1.0200195-0.2000122c-0.5700073-0.1199951-1.1600342,0.0200195-1.6199951,0.3699951l-6.4799805,4.9500122   c-0.3800049,0.2999878-0.6500244,0.7200317-0.75,1.2000122l-6.0100098,29.6900024   c-0.1700439,0.8399658,0.2099609,1.6499634,0.8999634,2.0899658l0.2900391,0.2900391   c0.0899658,0.4500122,0.3200073,0.8499756,0.6699829,1.1400146l-0.0200195,0.0099487L54.2056274,97.805603   c18.8772583-1.6399536,34.6289063-14.194458,40.8909912-31.3289795L52.8400269,24.2199707   C52.6799927,24.0499878,52.5200195,23.8800049,52.3499756,23.7299805z"/>
	<g>
		<g>
			<path fill="#3EA69B" d="M55.3266373,37.6169968l-7.844944-2.2083397     c-0.5591011-0.1573486-1.1589241-0.0654449-1.6452446,0.2521133l-7.2111473,4.7087669     c-0.4863205,0.3175583-0.8117561,0.8298378-0.8924255,1.4050026l-1.1328316,8.0706291     c-0.067646,0.4820061,0.0417023,0.9722252,0.3078117,1.3797569l16.561554,25.3628654     c0.607563,0.9304352,1.8543205,1.1921692,2.7847595,0.58461l16.1889-10.5710983     c0.9304428-0.6075668,1.1921768-1.8543167,0.58461-2.7847595L56.4661293,38.4536819     C56.200016,38.0461502,55.7951546,37.7488937,55.3266373,37.6169968z"/>
			<path fill="#44C4A1" d="M55.9945412,35.7025642l-7.844944-2.2083359     c-0.5591011-0.1573524-1.1589279-0.0654488-1.6452446,0.2521095l-7.2111473,4.7087708     c-0.4863205,0.3175545-0.8117599,0.829834-0.8924255,1.4049988l-1.1328316,8.0706291     c-0.067646,0.4820061,0.0417023,0.9722252,0.3078117,1.3797569l16.561554,25.3628616     c0.607563,0.9304428,1.8543167,1.1921768,2.7847595,0.58461l16.1888962-10.5710983     c0.9304428-0.6075592,1.1921768-1.8543167,0.5846176-2.7847557l-16.561554-25.3628616     C56.8679199,36.1317177,56.4630585,35.834465,55.9945412,35.7025642z"/>
		</g>
		<g>
			<path fill="#FFFFFF" d="M67.6364288,57.6474724l-18.5566673,3.6779289l-2.0734978-1.9064789l18.5548859-3.6761551     L67.6364288,57.6474724z M60.6572456,52.1110344c0.0017776,0.920372-0.3198204,1.73769-0.9701195,2.4448471     s-1.4409676,1.0980492-2.3702202,1.1726723c-0.9274788,0.0764008-1.73769-0.2043304-2.4288559-0.8386383     c-0.6911659-0.6360893-1.0394173-1.4143143-1.0429688-2.3346863c-0.0017776-0.9221497,0.3198204-1.73769,0.9701195-2.4448471     c0.6503029-0.7071571,1.4409676-1.0980492,2.3684464-1.1744499c0.9292526-0.0746231,1.7394638,0.2043304,2.4306297,0.840416     S60.6536942,51.1906624,60.6572456,52.1110344z M61.0587997,64.4880676     c0.0017738,0.920372-0.3233757,1.7341385-0.9718971,2.4412918c-0.6503029,0.7089386-1.4391899,1.1016006-2.3684464,1.1762238     c-0.9292564,0.0746307-1.7394638-0.2043228-2.4306335-0.840416c-0.6929436-0.6343079-1.0376358-1.4125366-1.0411911-2.3364563     c-0.0035515-0.920372,0.3198204-1.7341385,0.9701233-2.4430733c0.6502991-0.7071571,1.4391899-1.0980492,2.3702202-1.1744499     c0.9274788-0.0746231,1.73769,0.2061081,2.4288559,0.840416C60.7069969,62.7859154,61.0552444,63.5641441,61.0587997,64.4880676z      M57.1427803,53.7740974c0.3731232-0.0604095,0.7071571-0.2523003,1.0038795-0.575676     c0.2949448-0.3198204,0.4530792-0.6751747,0.4708443-1.0625114c0.0195465-0.3873367-0.1012764-0.701828-0.3624611-0.9416924     c-0.2629623-0.241642-0.5827827-0.3304825-0.9559059-0.2700691c-0.3731232,0.0621872-0.7071571,0.2540779-1.0021019,0.575676     c-0.2967224,0.3215942-0.4548569,0.6769485-0.4726257,1.0625114c-0.0195427,0.3873367,0.0995026,0.701828,0.3624649,0.94347     S56.7696571,53.8362846,57.1427803,53.7740974z M57.5461082,66.2115402     c0.3731232-0.0621872,0.7071571-0.2540741,1.0021019-0.575676c0.2967224-0.3215942,0.4530792-0.6751709,0.4743996-1.0625153     c0.0177689-0.3873367-0.1030502-0.7018242-0.3660164-0.9416885c-0.2629623-0.241642-0.5792274-0.3304787-0.9523506-0.2700691     c-0.3749008,0.0639648-0.7089348,0.2540779-1.0056572,0.575676c-0.2949448,0.3215981-0.4513016,0.6751747-0.4726219,1.0625114     c-0.0195465,0.3873367,0.103054,0.701828,0.3660164,0.9434662     C56.8549423,66.1848907,57.1712074,66.2737274,57.5461082,66.2115402z"/>
		</g>
		<path fill="#DC8744" d="M55.870575,43.0884247l-4.0349998-7.0808678    c-0.2875938-0.5046196-0.7792053-0.8603668-1.3484459-0.9757423l-8.4407501-1.7108231    c-0.5692406-0.1153793-1.1606636,0.0208511-1.6219673,0.3737259l-6.4735718,4.950882    c-0.3866158,0.2956886-0.6529808,0.721508-0.7496681,1.1985321l-6.0172634,29.6875763    c-0.2207451,1.0890961,0.4831657,2.1508942,1.5722599,2.3716354l18.9493294,3.8407669    c1.0890961,0.2207489,2.1508904-0.4831619,2.3716354-1.572258l6.0172653-29.6875801    C56.191082,44.0072517,56.1115417,43.511322,55.870575,43.0884247z"/>
		<path fill="#F6C358" d="M54.7039757,41.4843559l-4.034996-7.0808678    c-0.2875938-0.5046234-0.7792053-0.8603668-1.3484459-0.9757462l-8.4407501-1.7108231    c-0.5692406-0.1153774-1.1606636,0.0208511-1.6219673,0.3737297l-6.4735718,4.9508781    c-0.3866196,0.2956924-0.6529846,0.7215118-0.7496681,1.1985321l-6.0172653,29.6875763    c-0.2207451,1.0890961,0.4831676,2.1508942,1.5722618,2.3716354l18.9493294,3.8407669    c1.0890923,0.2207489,2.1508904-0.4831619,2.3716354-1.572258l6.0172615-29.6875801    C55.0244865,42.4031792,54.9449463,41.9072495,54.7039757,41.4843559z"/>
		<circle fill="#FFFFFF" cx="43.9570618" cy="37.0355148" r="2.3181074"/>
		<g>
			<path fill="#E56353" d="M46.1846657,45.4472656c0.0850105-0.3900223,0.0515022-0.732296-0.1005211-1.026825     c-0.15242-0.2955856-0.4372444-0.4883614-0.854866-0.5793877c-0.4182243-0.0911522-0.764637-0.0359612-1.0400391,0.166378     c-0.2758026,0.2012787-0.6304436,0.6806564-1.0629311,1.4393158c-0.4334793,0.7574692-0.9260597,1.2929459-1.4775276,1.6055031     c-0.5524712,0.3113708-1.277832,0.3691635-2.1772804,0.1731224c-0.8994522-0.1960411-1.5728874-0.6158333-2.0193024-1.2610931     c-0.4466171-0.6443367-0.5775642-1.3902588-0.392643-2.2386971c0.2705345-1.24123,1.0662842-2.2217979,2.3864479-2.9409103     l1.1297646,1.1262665c-1.0797043,0.6050072-1.713028,1.3392525-1.9011726,2.2024765     c-0.0940742,0.4316101-0.0488014,0.8006516,0.1372185,1.1064644c0.185215,0.3066025,0.4774361,0.5029297,0.8752594,0.5896378     c0.3984222,0.0868378,0.734024,0.035099,1.0074081-0.1550941c0.2727852-0.1903191,0.5640373-0.5576553,0.872757-1.1002884     c0.3089218-0.54356,0.5730209-0.950695,0.7913017-1.2196999c0.2184792-0.2699242,0.4757118-0.4955864,0.772892-0.6767159     c0.5643578-0.3688049,1.3233643-0.4483109,2.2768173-0.2404976s1.6304817,0.6341972,2.0300751,1.2808685     c0.3997993,0.6457481,0.5137825,1.3628044,0.3421555,2.1502419c-0.1105919,0.5073967-0.3283844,0.9875565-0.6531754,1.4395561     c-0.325592,0.4527931-0.7244797,0.8179665-1.1966705,1.0955238l-1.1563568-1.0013695     c0.3259811-0.1748543,0.6214905-0.4434814,0.8859253-0.8060112     C45.9246368,46.2134972,46.099659,45.8372879,46.1846657,45.4472656z"/>
			<path fill="#E56353" d="M38.3148537,49.8040771l-2.1716957-1.3059273l0.3118324-1.4306946l9.5455284,5.7448807     l-0.3118286,1.4306984L34.618248,55.4945107l0.3120346-1.4316177l2.5181732-0.2837372L38.3148537,49.8040771z      M39.1741943,53.5840988l4.5612907-0.5161133l-3.9325905-2.3683815L39.1741943,53.5840988z"/>
			<path fill="#E56353" d="M34.3781319,56.5961838l10.3079834,2.2467003l-0.2920914,1.3401222l-8.6560898-1.8866577     l-0.78965,3.6229515l-1.6518936-0.3600426L34.3781319,56.5961838z"/>
			<path fill="#E56353" d="M42.0697937,70.8466797l-1.6368904-0.3567734l0.9232063-4.2357101l-2.7283554-0.5946655     l-0.8291321,3.8041l-1.5480881-0.3374176l0.8291321-3.8041l-2.7577553-0.6010666l-0.9530182,4.3724899l-1.6368942-0.3567734     l1.2451096-5.712616l10.3079834,2.2467041L42.0697937,70.8466797z"/>
		</g>
		<path fill="#64798A" d="M50.1464844,22.5967999c-3.420845-0.7132607-7.0107765,2.5923996-8.0075722,7.3692551    c-0.5995522,2.8696575-0.1528397,5.7537098,1.1931992,7.7148075c0.1461945,0.2133904,0.383213,0.3282051,0.6239204,0.3282051    c0.1476707,0,0.2960815-0.0428276,0.4275131-0.1329079c0.3440781-0.2362747,0.4312019-0.7069817,0.1949272-1.0510597    c-1.1171455-1.6277275-1.4759941-4.076149-0.959877-6.5500393c0.8277092-3.9613304,3.6202049-6.7416439,6.2192535-6.1978378    c2.6012611,0.543066,4.0455017,4.2072048,3.2192726,8.1677952c-0.1683502,0.8059273-0.4668732,1.6885986-0.7983971,2.4059219    l1.4681816,0.4132881c0.3787842-0.8214302,0.61866-1.5924149,0.8098984-2.5102043    C55.5343361,27.7775402,53.5643768,23.3104305,50.1464844,22.5967999z"/>
	</g>
</g>
</svg>
