<?xml version="1.0" encoding="utf-8"?>
<!-- Generator: Adobe Illustrator 21.0.2, SVG Export Plug-In . SVG Version: 6.00 Build 0)  -->
<svg xmlns="http://www.w3.org/2000/svg" xmlns:xlink="http://www.w3.org/1999/xlink" version="1.1" id="Layer_1" x="0px" y="0px" viewBox="0 0 100 100" enable-background="new 0 0 100 100" xml:space="preserve" width="512" height="512">
<g>
	<circle fill="#E05B49" cx="50" cy="50" r="48"/>
	<path opacity="0.1" d="M98,50c0-0.8918457-0.0285645-1.7767944-0.0766602-2.6566162L73.0800781,22.5H26.9199219v55   l20.4234619,20.4234009C48.2231445,97.9714355,49.1081543,98,50,98C76.5097656,98,98,76.5095825,98,50z"/>
	<g>
		<rect x="26.9176693" y="22.5" fill="#3EA69B" width="23.0823555" height="54.9999542"/>
		<rect x="50.0000267" y="22.5" fill="#31978C" width="23.0822163" height="54.9999542"/>
		<polygon fill="#44C4A1" points="73.0823364,77.5 26.9176807,77.5 50.0000076,66.8424606   "/>
		<g>
			<circle fill="#29897B" cx="39.3662148" cy="27.2145157" r="1.5319867"/>
			<circle fill="#29897B" cx="60.6337967" cy="27.2145157" r="1.5319867"/>
		</g>
		<g>
			<path fill="#29897B" d="M49.9996567,46.2075005c-6.4150391,0-11.6337891-5.496582-11.6337891-12.2524414v-7.1669903h2v7.1669903     c0,5.6533203,4.3212891,10.2524414,9.6337891,10.2524414s9.6337891-4.5991211,9.6337891-10.2524414v-7.1669903h2v7.1669903     C61.6334457,40.7109184,56.4146957,46.2075005,49.9996567,46.2075005z"/>
		</g>
		<g>
			<path fill="#FFFFFF" d="M49.9996567,45.1948051c-6.4150391,0-11.6337891-5.21875-11.6337891-11.6337891v-6.7729473h2v6.7729473     c0,5.3120117,4.3212891,9.6337891,9.6337891,9.6337891s9.6337891-4.3217773,9.6337891-9.6337891v-6.7729473h2v6.7729473     C61.6334457,39.9760551,56.4146957,45.1948051,49.9996567,45.1948051z"/>
		</g>
	</g>
</g>
</svg>
