<?xml version="1.0" encoding="utf-8"?>
<!-- Generator: Adobe Illustrator 21.0.2, SVG Export Plug-In . SVG Version: 6.00 Build 0)  -->
<svg xmlns="http://www.w3.org/2000/svg" xmlns:xlink="http://www.w3.org/1999/xlink" version="1.1" id="Layer_1" x="0px" y="0px" viewBox="0 0 100 100" enable-background="new 0 0 100 100" xml:space="preserve" width="512" height="512">
<g>
	<circle fill="#45B39C" cx="50" cy="50" r="48"/>
	<path opacity="0.1" d="M98,50c0-2.5889893-0.2113037-5.1279907-0.605896-7.605896L77.5,22.5H48.7600098v14.7600098H24.0700073   c-0.8699951,0-1.5700073,0.6999512-1.5700073,1.5699463v30.4100342c0,0.5299683,0.2600098,0.9899902,0.6500244,1.2700195   l27.4741821,27.4741821C76.8449097,97.6484375,98,76.3002319,98,50z"/>
	<g>
		<g>
			<rect x="38.2732201" y="70.30336" fill="#E1E6E9" width="11.7147617" height="4.5467968"/>
			<path fill="#3A556A" d="M65.7612,38.8336067c0-0.8688545-0.704277-1.5731354-1.5731354-1.5731354H24.0731354     c-0.8687572,0-1.5731354,0.7042809-1.5731354,1.5731354V64.214035h43.2612V38.8336067z"/>
			<rect x="24.8598938" y="39.6203194" fill="#64798A" width="38.5417976" height="24.5937176"/>
			<path fill="#EBF0F3" d="M22.5,64.214035v5.0256958c0,0.8688049,0.7043781,1.5731354,1.5731354,1.5731354h40.1149292     c0.8688583,0,1.5731354-0.7043304,1.5731354-1.5731354V64.214035H22.5z"/>
			<circle fill="#E1E6E9" cx="44.1306" cy="67.5134506" r="1.6824391"/>
			<rect x="34.7473068" y="76.2469101" fill="#E1E6E9" width="18.7665863" height="1.2530882"/>
			<polygon fill="#D5D6DB" points="49.9879913,74.4286118 38.2732086,74.4286118 34.7472916,76.2469254 53.5139122,76.2469254         "/>
		</g>
		<g>
			<rect x="48.7575264" y="22.5" fill="#FCD462" width="14.3712521" height="34.2433929"/>
			<rect x="63.1287804" y="22.5" fill="#F6C358" width="14.3711653" height="34.2433929"/>
			<polygon fill="#DC8744" points="77.5,56.7434235 48.757534,56.7434235 63.1287689,50.1079559    "/>
			<g>
				<circle fill="#DC8744" cx="56.5080872" cy="25.4352932" r="0.9538267"/>
				<circle fill="#DC8744" cx="69.7494431" cy="25.4352932" r="0.9538267"/>
			</g>
			<g>
				<path fill="#DC8744" d="M63.1285477,37.2604713c-3.9940529,0-7.2432861-3.4222145-7.2432861-7.6284618v-4.462225h1.2452164      v4.462225c0,3.5198002,2.6904678,6.3832493,5.9980698,6.3832493s5.9980698-2.8634491,5.9980698-6.3832493v-4.462225h1.2452164      v4.462225C70.3718338,33.8382568,67.1226044,37.2604713,63.1285477,37.2604713z"/>
			</g>
			<g>
				<path fill="#FFFFFF" d="M63.1285477,36.6299591c-3.9940529,0-7.2432861-3.2492332-7.2432861-7.2432842v-4.2168903h1.2452164      v4.2168903c0,3.3072987,2.6904678,5.9980717,5.9980698,5.9980717s5.9980698-2.690773,5.9980698-5.9980717v-4.2168903h1.2452164      v4.2168903C70.3718338,33.3807259,67.1226044,36.6299591,63.1285477,36.6299591z"/>
			</g>
		</g>
		<polygon fill="#FFFFFF" points="40.8516388,47.704895 35.4347,47.7048531 36.7989807,49.0691338 31.796236,54.0718803     34.4846992,56.7603416 39.4874458,51.7575989 40.8517265,53.1218758   "/>
	</g>
</g>
</svg>
