<?xml version="1.0" encoding="utf-8"?>
<!-- Generator: Adobe Illustrator 21.0.2, SVG Export Plug-In . SVG Version: 6.00 Build 0)  -->
<svg xmlns="http://www.w3.org/2000/svg" xmlns:xlink="http://www.w3.org/1999/xlink" version="1.1" id="Layer_1" x="0px" y="0px" viewBox="0 0 100 100" enable-background="new 0 0 100 100" xml:space="preserve" width="512" height="512">
<g>
	<circle fill="#EA8953" cx="50" cy="50" r="48"/>
	<path opacity="0.1" d="M97.5905762,56.1797867L65.960022,24.5491714L22.5,46.2092056l6.4400024,12.9300537v16.3098145   l22.5140991,22.5141602C75.2088623,97.2547379,94.6170044,79.2972183,97.5905762,56.1797867z"/>
	<g>
		<g>
			
				<rect x="25.7216721" y="34.0189285" transform="matrix(0.8949885 -0.4460892 0.4460892 0.8949885 -15.6960773 27.2353992)" fill="#3EA69B" width="48.5566559" height="25.8745365"/>
			<path fill="#44C4A1" d="M62.7950821,28.0966835L27.2388229,45.8189926     c0.6524715,1.3090515,0.1202202,2.8993835-1.1889305,3.5519028l7.6039009,15.2557068     c1.3091507-0.652523,2.8994331-0.1201248,3.5519066,1.1889267l35.5562553-17.7223091     c-0.6524734-1.3090515-0.1202164-2.8993835,1.1889343-3.5519028l-7.6039047-15.255703     C65.0378342,29.9381332,63.4475517,29.4057369,62.7950821,28.0966835z"/>
			
				<ellipse transform="matrix(0.8949885 -0.4460892 0.4460892 0.8949885 -15.6959963 27.2355652)" fill="#3EA69B" cx="50.0003891" cy="46.9561081" rx="7.0448632" ry="9.5793419"/>
			<g>
				<path fill="#44C4A1" d="M52.4533081,52.6085701l-0.4833832-0.9698143      c-1.2761307,0.4808388-2.6063004,0.5418358-3.9905052,0.1802902l0.3937416-1.6391602      c1.0661049,0.2757874,2.0239601,0.2802315,2.874649,0.0100975l-1.2847137-2.5775223      c-1.1202621,0.2600746-2.0095749,0.3119011-2.6690216,0.1533203c-0.658905-0.1575012-1.1796646-0.6200676-1.5617371-1.3866234      c-0.3815346-0.7654724-0.4270401-1.5256577-0.1332779-2.2794762c0.2932243-0.7548981,0.8580132-1.368454,1.6954536-1.841198      l-0.3308792-0.6638412l0.8498039-0.4235687l0.337883,0.6778984c1.0091667-0.4152641,2.0963058-0.5413971,3.2598038-0.3816414      l-0.2543755,1.6533813c-0.7923889-0.1247139-1.5531311-0.0667839-2.2838516,0.1759529l1.2448349,2.4975128l0.0400047-0.0199394      c1.1375618-0.2686958,2.0474014-0.3172531,2.7279015-0.148922c0.6821251,0.1688766,1.2158356,0.6411819,1.6022186,1.4163857      c0.3863869,0.7752037,0.4259415,1.5424042,0.1197433,2.303772c-0.306736,0.7602844-0.8996391,1.3878479-1.7814064,1.8826904      l0.4769173,0.9568405L52.4533081,52.6085701z M47.2414551,44.4999084      c-0.126812,0.3115654-0.1153069,0.6162796,0.0323486,0.9125214c0.1481934,0.2973251,0.3532486,0.4866676,0.616787,0.5712776      c0.2624512,0.0851479,0.6827698,0.0835152,1.2582436-0.0049019l-1.1456795-2.2985764      C47.6219864,43.9147568,47.3682632,44.188343,47.2414551,44.4999084z M52.9419937,48.9311714      c0.1462784-0.3266678,0.1423569-0.6459579-0.0123024-0.9562569c-0.1541252-0.3092155-0.3742981-0.507225-0.6594429-0.5918617      c-0.2856865-0.0830154-0.7341042-0.072773-1.3447189,0.0318069l1.1920242,2.3915596      C52.5203629,49.5503082,52.7951736,49.2594566,52.9419937,48.9311714z"/>
			</g>
			<g>
				
					<ellipse transform="matrix(0.8949885 -0.4460892 0.4460892 0.8949885 -10.4592495 33.5344009)" fill="#3EA69B" cx="65.9975052" cy="38.982666" rx="1.761718" ry="1.761718"/>
				
					<ellipse transform="matrix(0.8949885 -0.4460892 0.4460892 0.8949885 -20.9327431 20.9367294)" fill="#3EA69B" cx="34.0032768" cy="54.9295502" rx="1.761718" ry="1.761718"/>
			</g>
		</g>
		<g>
			<rect x="28.9433422" y="49.5782738" fill="#3EA69B" width="48.5566559" height="25.8745365"/>
			<path fill="#44C4A1" d="M73.0861435,51.3442421H33.357975c0,1.4626465-1.185791,2.6485443-2.6485462,2.6485443v17.0456963     c1.4627552,0,2.6485462,1.1858978,2.6485462,2.6485443h39.7281685c0-1.4626465,1.185791-2.6485443,2.6485443-2.6485443     V53.9927864C74.2719345,53.9927864,73.0861435,52.8068886,73.0861435,51.3442421z"/>
			<ellipse fill="#3EA69B" cx="53.2220612" cy="62.5156364" rx="7.0448632" ry="9.5793419"/>
			<g>
				<path fill="#44C4A1" d="M52.8958931,68.6687469V67.585144c-1.3566208-0.1389236-2.5743179-0.6777115-3.6518822-1.6187668      l1.0836029-1.2913818c0.8311272,0.7223969,1.6864128,1.1536713,2.5682793,1.2913818v-2.8799477      c-1.1186409-0.2669754-1.9376869-0.6173058-2.4571381-1.0534058c-0.519455-0.4348907-0.7791824-1.0811882-0.7791824-1.9376831      c0-0.8552856,0.2983856-1.5559425,0.8975677-2.0995598c0.5991859-0.5448227,1.3783646-0.8419991,2.3387527-0.8915253v-0.7417336      h0.9495125v0.7574348c1.0884361,0.0785217,2.1176796,0.4505959,3.0877304,1.1125984l-0.9652176,1.3662834      c-0.6535454-0.4650917-1.3602448-0.7526016-2.1225128-0.8613243v2.790554h0.0446968      c1.1379662,0.2669754,1.9739227,0.6293831,2.5078735,1.0836029c0.5351601,0.4554291,0.8021355,1.1162224,0.8021355,1.9823837      c0,0.8661575-0.3068428,1.5704422-0.9205208,2.1152649c-0.6136818,0.5436096-1.4242706,0.8407898-2.434185,0.8903198v1.0691071      H52.8958931z M51.848526,59.0866356c-0.2524757,0.2222786-0.3781128,0.5001259-0.3781128,0.8311272      c0,0.3322067,0.0990601,0.5931435,0.2971764,0.7864265c0.196907,0.1932869,0.5738144,0.3793221,1.1283035,0.5569038v-2.5682755      C52.4501266,58.7326813,52.1010056,58.864357,51.848526,59.0866356z M54.9737053,65.5955124      c0.2766418-0.2271118,0.4155655-0.5146179,0.4155655-0.8613281c0-0.3454971-0.1087227-0.6209259-0.3261681-0.8238754      c-0.2186546-0.2017441-0.6245537-0.3926125-1.2176971-0.5713997v2.6721687      C54.3201599,65.9615479,54.695858,65.8238297,54.9737053,65.5955124z"/>
			</g>
			<g>
				<circle fill="#3EA69B" cx="71.0961609" cy="62.5156364" r="1.761718"/>
				<circle fill="#3EA69B" cx="35.3479614" cy="62.5156364" r="1.761718"/>
			</g>
		</g>
	</g>
</g>
</svg>
