<?xml version="1.0" encoding="utf-8"?>
<!-- Generator: Adobe Illustrator 21.0.2, SVG Export Plug-In . SVG Version: 6.00 Build 0)  -->
<svg xmlns="http://www.w3.org/2000/svg" xmlns:xlink="http://www.w3.org/1999/xlink" version="1.1" id="Layer_1" x="0px" y="0px" viewBox="0 0 100 100" enable-background="new 0 0 100 100" xml:space="preserve" width="512" height="512">
<g>
	<circle fill="#45B39C" cx="50" cy="50" r="48"/>
	<path opacity="0.1" d="M97.9544067,51.803566L68.6500244,22.4991226H31.3499756L22.5,33.4391861V35.60923   c0,1.1098633,0.3900146,2.119873,1.0499878,2.9099121l0.6600342,0.6600342l0.3099976,0.3099365v38.0100098l20.206543,20.206543   C46.4591064,97.8951187,48.217041,97.999855,50,97.999855C75.9048462,97.999855,97.0043945,77.4759293,97.9544067,51.803566z"/>
	<g>
		<rect x="24.5238113" y="35.6441917" fill="#FCD462" width="50.9523773" height="41.8558083"/>
		<rect x="27.0324707" y="48.0890236" fill="#EBF0F3" width="17.1335144" height="29.4109764"/>
		<rect x="28.2200508" y="49.4250526" fill="#DC8744" width="14.7583551" height="28.0749493"/>
		<rect x="48.0998421" y="50.0930634" fill="#FFFFFF" width="24.9391747" height="16.9972343"/>
		<g>
			<rect x="61.1259804" y="51.206562" fill="#27A2DB" width="10.7992115" height="6.8285537"/>
			<rect x="49.213192" y="51.206562" fill="#27A2DB" width="10.7992115" height="6.8285537"/>
			<rect x="61.1259804" y="59.1486931" fill="#27A2DB" width="10.7992115" height="6.8280096"/>
			<rect x="49.213192" y="59.1486931" fill="#27A2DB" width="10.7992115" height="6.8280096"/>
		</g>
		<g>
			<path fill="#D15241" d="M22.5000076,33.4372902v2.1758461c0,2.5318527,2.0519028,4.5832443,4.5832462,4.5832443     s4.5832443-2.0513916,4.5832443-4.5832443v-2.1758461H22.5000076z"/>
			<path fill="#E1E6E9" d="M31.6664982,33.4372902v2.1758461c0,2.5318527,2.0521564,4.5832443,4.583498,4.5832443     c2.5313454,0,4.5834999-2.0513916,4.5834999-4.5832443v-2.1758461H31.6664982z"/>
			<path fill="#D15241" d="M40.8334961,33.4372902v2.1758461c0,2.5318527,2.0519028,4.5832443,4.5832443,4.5832443     c2.5313454,0,4.5832443-2.0513916,4.5832443-4.5832443v-2.1758461H40.8334961z"/>
			<path fill="#E1E6E9" d="M49.9999847,33.4372902v2.1758461c0,2.5318527,2.0519028,4.5832443,4.5832481,4.5832443     c2.5313416,0,4.5832443-2.0513916,4.5832443-4.5832443v-2.1758461H49.9999847z"/>
			<path fill="#D15241" d="M59.1664772,33.4372902v2.1758461c0,2.5318527,2.0521545,4.5832443,4.5834999,4.5832443     c2.5313416,0,4.5834961-2.0513916,4.5834961-4.5832443v-2.1758461H59.1664772z"/>
			<path fill="#E1E6E9" d="M68.3334732,33.4372902v2.1758461c0,2.5318527,2.0519028,4.5832443,4.5832443,4.5832443     s4.5832443-2.0513916,4.5832443-4.5832443v-2.1758461H68.3334732z"/>
			<polygon fill="#E56353" points="31.666666,33.4375 22.5,33.4375 31.354166,22.5 37.5694427,22.5    "/>
			<polygon fill="#EBF0F3" points="40.8333321,33.4375 31.666666,33.4375 37.5694427,22.5 43.7847214,22.5    "/>
			<polygon fill="#E56353" points="50,33.4375 40.8333321,33.4375 43.7847214,22.5 50,22.5    "/>
			<polygon fill="#EBF0F3" points="59.1666679,33.4375 50,33.4375 50,22.5 56.2152786,22.5    "/>
			<polygon fill="#E56353" points="68.3333359,33.4375 59.1666679,33.4375 56.2152786,22.5 62.4305534,22.5    "/>
			<polygon fill="#EBF0F3" points="77.5,33.4375 68.3333359,33.4375 62.4305573,22.5 68.6458359,22.5    "/>
		</g>
	</g>
</g>
</svg>
