<?xml version="1.0" encoding="utf-8"?>
<!-- Generator: Adobe Illustrator 21.0.2, SVG Export Plug-In . SVG Version: 6.00 Build 0)  -->
<svg xmlns="http://www.w3.org/2000/svg" xmlns:xlink="http://www.w3.org/1999/xlink" version="1.1" id="Layer_1" x="0px" y="0px" viewBox="0 0 100 100" enable-background="new 0 0 100 100" xml:space="preserve" width="512" height="512">
<g>
	<circle fill="#334D5C" cx="50" cy="50" r="48"/>
	<path opacity="0.1" d="M97.1868896,58.7662125L60.9199829,22.4991226h-5.2699585c0,0,0.8199463,5.5500488-1.4700317,9.8300781   l-9.8300171-9.8300781h-5.2699585v6.1800537c0,0.9200439-0.2399902,1.8299561-0.710022,2.6199951   c-1.7000122,2.8499756-5.3399658,10.4000244,0.539978,14.1500244c0.3900146,0.25,0.6900024,0.5999756,0.9000244,1   c0.2200317,0.4200439,0.3400269,0.8900146,0.3599854,1.3800049c0,0.2299805,0,0.4899902-0.0100098,0.75   c-0.039978,0.9699707-0.1699829,2.0999756-0.3599854,3.1899414c-0.1799927,1.0800781-0.4099731,2.1400146-0.6499634,2.9799805   c-0.710022,2.4400635-1.460022,4.8901367-2.4200439,7.2399902c-0.8499756,2.0100098-1.7999878,3.9799805-2.1699829,6.1201172   c-0.2799683,1.7299805-0.0800171,3.6799316,0.8499756,5.1398926l0.0200195,0.0200195   c0.1900024,0.3100586,0.4199829,0.6000977,0.6900024,0.8601074c0.25,0.2399902,0.5300293,0.4599609,0.8200073,0.6499023   l22.3258667,22.3183594C78.506897,93.3333511,93.6211548,78.0774918,97.1868896,58.7662125z"/>
	<g>
		<path fill="#E56353" d="M63.8437309,74.1326675c-1.0886726,1.0537949-2.5850792,1.5645065-4.0474396,1.9390182    C56.5987816,76.8871536,53.2995453,77.3638153,49.999897,77.5c-3.2992363-0.1361847-6.5984726-0.6128464-9.7955704-1.4283142    c-1.4627724-0.3745117-2.9936409-0.8852234-4.0819016-1.9390182c-1.5304527-1.4972382-1.9045525-3.9120789-1.5644989-6.0205002    c0.3741035-2.1433029,1.3265877-4.1163635,2.1769295-6.1226463c0.9524879-2.3467484,1.7006912-4.7964706,2.4148483-7.2445335    c0.5443344-1.9049721,1.0546227-4.9120827,1.0205765-6.9191933c-0.0340462-0.9516563-0.4762421-1.8700943-1.2589073-2.3807983    c-5.8843155-3.7410164-2.2446098-11.2928047-0.5439224-14.1494293c0.4762421-0.7822495,0.7141571-1.7006874,0.7141571-2.6191254    V22.5h5.2723007c0,0-1.5644989,10.5840988,5.6459885,13.7820244C57.2112122,33.0840988,55.6467133,22.5,55.6467133,22.5h5.2718849    v6.1764412c0,0.918438,0.237915,1.8368759,0.7141571,2.6191254c1.667057,2.8566246,5.3399773,10.4084129-0.5443382,14.1494293    c-0.7822495,0.510704-1.2240295,1.429142-1.2580757,2.3807983c-0.03405,2.0071106,0.4417801,5.0142212,1.0201645,6.9191933    c0.7145691,2.4480629,1.4627724,4.8977852,2.4152565,7.2445335c0.8162994,2.0062828,1.8024139,3.9793434,2.1765213,6.1226463    C65.782753,70.2205887,65.4082336,72.6354294,63.8437309,74.1326675z"/>
		<path fill="#FCD462" d="M46.6686707,51.9291992l1.5820313,1.2246094l1.7495117-2.2607422l1.7495117,2.2607422l1.5820313-1.2246094    l-1.8234863-2.3562012c2.5943604-0.0690918,5.4155273-0.3566895,8.3320313-0.9846191    c-0.0100098-0.265625-0.0140381-0.5219727-0.0100098-0.7626953c0.0172119-0.4794922,0.138916-0.9499512,0.3546143-1.3647461    c-8.8739014,2.0852051-17.1090088,0.7163086-20.3765869-0.0102539c0.2194824,0.4174805,0.3447266,0.8911133,0.3619385,1.375    c0.0040283,0.2382813-0.0006104,0.4921875-0.0111084,0.7548828c1.9080811,0.3930664,4.8237305,0.8588867,8.3436279,0.9785156    L46.6686707,51.9291992z"/>
	</g>
</g>
</svg>
