<?xml version="1.0" encoding="utf-8"?>
<!-- Generator: Adobe Illustrator 21.0.2, SVG Export Plug-In . SVG Version: 6.00 Build 0)  -->
<svg xmlns="http://www.w3.org/2000/svg" xmlns:xlink="http://www.w3.org/1999/xlink" version="1.1" id="Layer_1" x="0px" y="0px" viewBox="0 0 100 100" enable-background="new 0 0 100 100" xml:space="preserve" width="512" height="512">
<g>
	<circle fill="#E05B49" cx="50" cy="50" r="48"/>
	<path opacity="0.1" d="M97.7695923,54.6788101L77,33.9091568c-0.4199829-0.5299072-1.0800171-0.8699951-1.8099976-0.8699951   H39.1099854l-2.5100098-2.5100098c-0.1799927-0.1699219-0.4299927-0.2800293-0.6999512-0.2800293H29.789978   c-0.5599976,0-1.0099487,0.4500732-1.0099487,1.0100098v1.7800293h-3.9700317C23.539978,33.0391617,22.5,34.069191,22.5,35.3492203   v32.0900879c0,0.7700195,0.3800049,1.4499512,0.9500122,1.8598633l28.6411743,28.6479492   C76.0671997,96.9183121,95.4830322,78.3082047,97.7695923,54.6788101z"/>
	<g>
		<path fill="#64798A" d="M35.8961449,30.2495594h-6.1033173c-0.5595818,0-1.0131092,0.4535275-1.0131092,1.0131092v2.4243889    h8.1296711v-2.4243889C36.9093895,30.7030869,36.4557228,30.2495594,35.8961449,30.2495594z"/>
		<path fill="#E1E6E9" d="M75.1857681,33.0368233H24.8143654c-1.2782383,0-2.3143654,1.036129-2.3143654,2.3142281v32.0851593    c0,1.2780991,1.0361271,2.3142319,2.3143654,2.3142319h50.3714027c1.2781067,0,2.3142319-1.0361328,2.3142319-2.3142319    V35.3510513C77.5,34.0729523,76.4638748,33.0368233,75.1857681,33.0368233z"/>
		<rect x="22.5" y="41.8517036" fill="#27A2DB" width="55" height="19.0838585"/>
		<rect x="22.5" y="43.1239586" fill="#2D93BA" width="55" height="16.5393448"/>
		<circle opacity="0.31" fill="#64798A" cx="50" cy="52.7265396" r="15.3355188"/>
		<path fill="#D5D6DB" d="M72.0992355,35.9845734h-3.6830368c-0.8911667,0-1.6135178,0.7223549-1.6135178,1.6135178    s0.7223511,1.6135216,1.6135178,1.6135216h3.6830368c0.8911591,0,1.6135178-0.7223587,1.6135178-1.6135216    S72.9903946,35.9845734,72.0992355,35.9845734z"/>
		<circle fill="#64798A" cx="68.4161987" cy="37.5980911" r="1.6135204"/>
		<circle fill="#E56353" cx="27.5169621" cy="37.5980911" r="1.6135204"/>
		<circle fill="#64798A" cx="50" cy="51.393631" r="15.3355188"/>
		<circle fill="#3A556A" cx="50" cy="51.393631" r="11.788517"/>
		<circle fill="#D5D6DB" cx="50" cy="51.393631" r="10.7118616"/>
		<circle fill="#E1E6E9" cx="50" cy="51.393631" r="7.4818945"/>
		<circle fill="#64798A" cx="50" cy="51.393631" r="3.6068971"/>
		<circle fill="#FFFFFF" cx="47.8466873" cy="53.5469437" r="1.4535859"/>
		<circle fill="#FFFFFF" cx="52.5695839" cy="49.6046829" r="1.0373144"/>
	</g>
</g>
</svg>
