<?xml version="1.0" encoding="utf-8"?>
<!-- Generator: Adobe Illustrator 21.0.2, SVG Export Plug-In . SVG Version: 6.00 Build 0)  -->
<svg xmlns="http://www.w3.org/2000/svg" xmlns:xlink="http://www.w3.org/1999/xlink" version="1.1" id="Layer_1" x="0px" y="0px" viewBox="0 0 100 100" enable-background="new 0 0 100 100" xml:space="preserve" width="512" height="512">
<g>
	<circle fill="#45B39C" cx="50" cy="50" r="48"/>
	<path opacity="0.1" d="M98,49.9999771c0-1.7915039-0.1062012-3.5576172-0.2974243-5.2982178L76.5300293,23.5291519   c-0.6200562-0.6398926-1.4800415-1.0300293-2.4400024-1.0300293H25.9099731c-1.8899536,0-3.4099731,1.5300293-3.4099731,3.4100342   v48.1900635c0,0.8498535,0.3099976,1.619873,0.8300171,2.2199707l21.3849487,21.3850098   C46.4512939,97.8943863,48.2130127,97.999855,50,97.999855C76.5097046,97.999855,98,76.5096207,98,49.9999771z"/>
	<g>
		<path fill="#FCD462" d="M74.0944519,22.4999161H25.90555c-1.8808708,0-3.40555,1.5246792-3.40555,3.4056339v48.1889038    c0,1.8807831,1.5246792,3.405632,3.40555,3.405632h48.1889038c1.880867,0,3.4055481-1.5248489,3.4055481-3.405632V25.90555    C77.5,24.0245953,75.9753189,22.4999161,74.0944519,22.4999161z"/>
		
			<rect x="22.5" y="44.8607635" transform="matrix(4.491233e-11 1 -1 4.491233e-11 100 0.0000006)" fill="#C1473A" width="55" height="10.2784729"/>
		<rect x="22.5" y="44.8607635" fill="#EF685E" width="55" height="10.2784729"/>
		<g>
			<g>
				<polygon fill="#CE412D" points="64.4895248,64.9493866 58.7760315,64.7683029 56.3426628,69.9408722 46.6686783,54.1514626       54.8155365,49.159977     "/>
				<polygon fill="#D15241" points="43.4097519,69.8700027 41.3150139,64.5512772 35.6017342,64.3635406 46.2738037,49.2308426       54.0818214,54.7373085     "/>
			</g>
			<path fill="#DB594F" d="M48.5102386,53.1882668c0,0-6.9026985,5.9685898-11.0721664,3.958416     c-3.7256966-1.7962227-3.8981705-15.1617851,0-16.5443535c4.2680969-1.5137749,11.0721664,3.958416,11.0721664,3.958416     V53.1882668z"/>
			<path fill="#DB594F" d="M51.4897614,44.709713c0,0,6.9026985-5.9685898,11.0721664-3.958416     c3.7256927,1.7962227,3.8981705,15.1617851,0,16.5443535c-4.2681007,1.5137749-11.0721664-3.958416-11.0721664-3.958416     V44.709713z"/>
			<g>
				<path fill="#D15241" d="M51.6204414,45.6838341c0,0,7.5827522-6.9996719,11.0721664-3.958416      c3.3783226,2.9444351-1.638752,5.0420914-4.1064262,4.99786c-4.5278664-0.0811615-7.5664787-0.4118652-7.5664787-0.4118652      L51.6204414,45.6838341z"/>
				<path fill="#D15241" d="M48.4708176,45.6838341c0,0-7.5827522-6.9996719-11.0721664-3.958416      c-3.3783226,2.9444351,1.6387558,5.0420914,4.1064262,4.99786c4.5278702-0.0811615,7.5664787-0.4118652,7.5664787-0.4118652      L48.4708176,45.6838341z"/>
			</g>
			<path fill="#EBF0F3" d="M50.0456314,42.4181023c-1.3734741,0-2.486908,1.1134834-2.486908,2.4869537v8.0878677     c0,1.3734703,1.1134338,2.4869537,2.486908,2.4869537c1.3735199,0,2.4869041-1.1134834,2.4869041-2.4869537V44.905056     C52.5325356,43.5315857,51.4191513,42.4181023,50.0456314,42.4181023z"/>
		</g>
	</g>
</g>
</svg>
