<?xml version="1.0" encoding="utf-8"?>
<!-- Generator: Adobe Illustrator 21.0.2, SVG Export Plug-In . SVG Version: 6.00 Build 0)  -->
<svg xmlns="http://www.w3.org/2000/svg" xmlns:xlink="http://www.w3.org/1999/xlink" version="1.1" id="Layer_1" x="0px" y="0px" viewBox="0 0 100 100" enable-background="new 0 0 100 100" xml:space="preserve" width="512" height="512">
<g>
	<circle fill="#EA8953" cx="50" cy="50" r="48"/>
	<path opacity="0.1" d="M97.2960205,58.1551285L70.8099976,31.6691666   c-0.2700195-0.3099365-0.6599731-0.5100098-1.1099854-0.5100098H30.2999878c-0.8200073,0-1.4699707,0.6600342-1.4699707,1.4700928   v25.9099121h-0.0100098L22.5,66.7093277v1.4799805c0,0.1499023,0.0499878,0.2897949,0.1500244,0.3999023l0.1300049,0.1398926   l0.0199585,0.0100098l29.210022,29.2099609C74.8328247,97.0079117,93.5317993,80.1355972,97.2960205,58.1551285z"/>
	<g>
		<path fill="#D5D6DB" d="M22.4999981,66.7091599v1.4827271c0,0.3556519,0.2883301,0.6439819,0.644043,0.6439819H76.855957    c0.3557129,0,0.644043-0.2883301,0.644043-0.6439819v-1.4827271H22.4999981z"/>
		<polygon fill="#EBF0F3" points="71.1815491,58.5398827 28.8184509,58.5398827 22.5000019,66.7091827 77.5,66.7091827   "/>
		<path fill="#3A556A" d="M69.7036133,31.1641273H30.2963848c-0.8115234,0-1.4693604,0.6578369-1.4693604,1.4692993v25.9064331    h42.3459473V32.6334267C71.1729736,31.8219643,70.5151367,31.1641273,69.7036133,31.1641273z"/>
		<rect x="31.8271465" y="34.1641273" fill="#2D93BA" width="36.3457031" height="21.3759766"/>
		<polygon fill="#27A2DB" points="68.1728516,34.1641273 46.9992676,34.1641273 59.4825439,55.5401039 68.1728516,55.5401039   "/>
		<polygon fill="#64798A" points="32.9429932,59.4355698 29.7143688,59.4355698 30.0675011,58.9681053 33.2397842,58.9681053   "/>
		<polygon fill="#64798A" points="38.8813591,59.4355698 35.6527328,59.4355698 35.9022408,58.9681053 39.0745239,58.9681053   "/>
		<polygon fill="#64798A" points="42.9747925,59.4355698 39.74617,59.4355698 39.9242439,58.9681053 43.0965271,58.9681053   "/>
		<polygon fill="#64798A" points="47.0682297,59.4355698 43.8396034,59.4355698 43.9462471,58.9681053 47.1185341,58.9681053   "/>
		<polygon fill="#64798A" points="51.1616631,59.4355698 47.9330406,59.4355698 47.9682503,58.9681053 51.1405373,58.9681053   "/>
		<polygon fill="#64798A" points="57.9071846,59.4355698 54.6785583,59.4355698 54.5960617,58.9681053 57.7683449,58.9681053   "/>
		<polygon fill="#64798A" points="62.000618,59.4355698 58.7719955,59.4355698 58.6180649,58.9681053 61.7903519,58.9681053   "/>
		<polygon fill="#64798A" points="66.0940552,59.4355698 62.8654289,59.4355698 62.6400681,58.9681053 65.812355,58.9681053   "/>
		<polygon fill="#64798A" points="70.1874924,59.4355698 66.9588623,59.4355698 66.6620712,58.9681053 69.8343582,58.9681053   "/>
		<polygon fill="#64798A" points="32.2420845,60.5395432 28.8804073,60.5395432 29.4227028,59.8216667 32.6978607,59.8216667   "/>
		<polygon fill="#64798A" points="37.0895081,60.5395432 33.727829,60.5395432 34.1453667,59.8216667 37.4205246,59.8216667   "/>
		<polygon fill="#64798A" points="41.9369278,60.5395432 38.5752487,60.5395432 38.8680267,59.8216667 42.1431847,59.8216667   "/>
		<polygon fill="#64798A" points="46.7843475,60.5395432 43.4226685,60.5395432 43.5906868,59.8216667 46.8658485,59.8216667   "/>
		<polygon fill="#64798A" points="51.6317673,60.5395432 48.270092,60.5395432 48.3133507,59.8216667 51.5885086,59.8216667   "/>
		<polygon fill="#64798A" points="56.4791908,60.5395432 53.1175117,60.5395432 53.0360107,59.8216667 56.3111687,59.8216667   "/>
		<polygon fill="#64798A" points="61.3266106,60.5395432 57.9649315,60.5395432 57.7586746,59.8216667 61.0338326,59.8216667   "/>
		<polygon fill="#64798A" points="66.1740341,60.5395432 62.8123512,60.5395432 62.4813347,59.8216667 65.7564926,59.8216667   "/>
		<polygon fill="#64798A" points="71.0214539,60.5395432 67.6597748,60.5395432 67.2039948,59.8216667 70.4791565,59.8216667   "/>
		<polygon fill="#64798A" points="31.5720749,61.5948524 28.0832062,61.5948524 28.6667461,60.8223801 32.0625153,60.8223801   "/>
		<polygon fill="#64798A" points="36.6028976,61.5948524 33.1140289,61.5948524 33.5633202,60.8223801 36.9590874,60.8223801   "/>
		<polygon fill="#64798A" points="41.6337204,61.5948524 38.1448517,61.5948524 38.4598961,60.8223801 41.8556633,60.8223801   "/>
		<polygon fill="#64798A" points="46.6645393,61.5948524 43.1756744,61.5948524 43.356472,60.8223801 46.7522392,60.8223801   "/>
		<polygon fill="#64798A" points="51.6953621,61.5948524 48.2064972,61.5948524 48.2530441,60.8223801 51.6488113,60.8223801   "/>
		<polygon fill="#64798A" points="56.7261848,61.5948524 53.2373161,61.5948524 53.1496201,60.8223801 56.5453873,60.8223801   "/>
		<polygon fill="#64798A" points="61.7570076,61.5948524 58.2681389,61.5948524 58.046196,60.8223801 61.4419632,60.8223801   "/>
		<polygon fill="#64798A" points="66.7878265,61.5948524 63.2989616,61.5948524 62.9427719,60.8223801 66.3385391,60.8223801   "/>
		<polygon fill="#64798A" points="71.8186493,61.5948524 68.3297882,61.5948524 67.8393478,60.8223801 71.2351151,60.8223801   "/>
		<polygon fill="#64798A" points="33.5431442,62.7331543 27.2233105,62.7331543 27.8529835,61.8996124 33.9977264,61.8996124   "/>
		<polygon fill="#64798A" points="38.4548645,62.7331543 34.8288078,62.7331543 35.2477684,61.8996124 38.773365,61.8996124   "/>
		<polygon fill="#64798A" points="43.6835136,62.7331543 40.0574532,62.7331543 40.3315544,61.8996124 43.8571548,61.8996124   "/>
		<polygon fill="#64798A" points="48.912159,62.7331543 45.2861023,62.7331543 45.4153404,61.8996124 48.9409409,61.8996124   "/>
		<polygon fill="#64798A" points="54.1408081,62.7331543 50.5147476,62.7331543 50.4991302,61.8996124 54.0247269,61.8996124   "/>
		<polygon fill="#64798A" points="62.2212524,62.7331543 55.2605171,62.7331543 55.1134109,61.8996124 61.8813019,61.8996124   "/>
		<polygon fill="#64798A" points="67.4498978,62.7331543 63.8238411,62.7331543 63.4394913,61.8996124 66.9650879,61.8996124   "/>
		<polygon fill="#64798A" points="72.6785507,62.7331543 69.0524902,62.7331543 68.5232773,61.8996124 72.0488739,61.8996124   "/>
		<polygon fill="#64798A" points="30.0674992,63.9646454 26.2930183,63.9646454 26.9745216,63.0624924 30.640274,63.0624924   "/>
		<polygon fill="#64798A" points="51.8381691,63.9646454 31.7356853,63.9646454 32.2604065,63.0624924 51.7838058,63.0624924   "/>
		<polygon fill="#64798A" points="57.280838,63.9646454 53.5063553,63.9646454 53.4039345,63.0624924 57.0696869,63.0624924   "/>
		<polygon fill="#64798A" points="68.1661758,63.9646454 64.3916931,63.9646454 63.9757004,63.0624924 67.6414566,63.0624924   "/>
		<polygon fill="#64798A" points="73.6088409,63.9646454 69.8343582,63.9646454 69.2615814,63.0624924 72.9273376,63.0624924   "/>
		<polygon fill="#64798A" points="62.515934,63.4558449 62.3555107,63.0624962 58.6897507,63.0624962 58.8027649,63.4558449   "/>
		<polygon fill="#64798A" points="58.8321915,63.5582619 58.9489479,63.9646416 62.7234421,63.9646416 62.5577049,63.5582619   "/>
		<polygon fill="#3A556A" points="55.5720901,66.0534515 44.4279137,66.0534515 45.1365242,64.2962418 54.8634758,64.2962418   "/>
		<polygon fill="#FFFFFF" points="51.7180214,45.2127724 46.8881302,42.5505867 48.2149658,47.9035835 48.883358,46.0235939     50.2473412,47.7993011 51.0932388,47.1495399 49.7292557,45.3738289   "/>
		<g>
			<rect x="46.7388077" y="40.2646599" fill="#FFFFFF" width="0.2986425" height="0.8585972"/>
			<rect x="46.7388077" y="43.7923737" fill="#FFFFFF" width="0.2986425" height="0.8585972"/>
			
				<rect x="48.5026665" y="42.0285149" transform="matrix(-1.836970e-16 1 -1 -1.836970e-16 91.1098022 -6.1941714)" fill="#FFFFFF" width="0.2986425" height="0.8585972"/>
			
				<rect x="44.9749489" y="42.0285149" transform="matrix(-1.836970e-16 1 -1 -1.836970e-16 87.5820847 -2.6664565)" fill="#FFFFFF" width="0.2986425" height="0.8585972"/>
			
				<rect x="47.986042" y="40.7812805" transform="matrix(0.7071068 0.7071068 -0.7071068 0.7071068 43.2388 -21.9665432)" fill="#FFFFFF" width="0.2986425" height="0.8585972"/>
			
				<rect x="45.4915733" y="43.275753" transform="matrix(0.7071068 0.7071068 -0.7071068 0.7071068 44.2720451 -19.4720726)" fill="#FFFFFF" width="0.2986425" height="0.8585972"/>
			
				<rect x="47.986042" y="43.275753" transform="matrix(-0.7071068 0.7071068 -0.7071068 -0.7071068 113.0763474 40.5723457)" fill="#FFFFFF" width="0.2986425" height="0.8585972"/>
			
				<rect x="45.4915733" y="40.7812805" transform="matrix(-0.7071068 0.7071068 -0.7071068 -0.7071068 107.0541611 38.0778732)" fill="#FFFFFF" width="0.2986425" height="0.8585972"/>
		</g>
	</g>
</g>
</svg>
