<?xml version="1.0" encoding="utf-8"?>
<!-- Generator: Adobe Illustrator 21.0.2, SVG Export Plug-In . SVG Version: 6.00 Build 0)  -->
<svg xmlns="http://www.w3.org/2000/svg" xmlns:xlink="http://www.w3.org/1999/xlink" version="1.1" id="Layer_1" x="0px" y="0px" viewBox="0 0 100 100" enable-background="new 0 0 100 100" xml:space="preserve" width="512" height="512">
<g>
	<circle fill="#EFC84A" cx="50" cy="50" r="48"/>
	<path opacity="0.1" d="M97.8353271,53.8145523L66.8900146,22.8692398c-0.2700195-0.2299805-0.6199951-0.3701172-1-0.3701172   H34.1099854c-0.8699951,0-1.5700073,0.710083-1.5700073,1.5800781v51.8498535c0,0.5,0.2300415,0.9501953,0.6000366,1.2299805   l20.6760864,20.6762695C77.2799072,95.987648,95.9885254,77.2786636,97.8353271,53.8145523z"/>
	<g>
		<path fill="#3A556A" d="M65.8873291,22.5H34.1124268c-0.8695068,0-1.5743408,0.704834-1.5743408,1.5744629v51.8510742    c0,0.8696289,0.704834,1.5744629,1.5743408,1.5744629h31.7750244c0.8696289,0,1.5744629-0.704834,1.5744629-1.5744629V24.0744629    C67.4619141,23.204834,66.756958,22.5,65.8873291,22.5z"/>
		<rect x="35.5375977" y="26.7632694" fill="#EBF0F3" width="28.9238281" height="41.2382469"/>
		<rect x="35.5375977" y="64.9773788" fill="#E1E6E9" width="28.9238281" height="3.0241382"/>
		<g>
			<circle fill="#EBF0F3" cx="50" cy="72.5758133" r="2.840857"/>
			<path fill="#64798A" d="M50.6796875,71.5992508h-1.359375c-0.1639404,0-0.296875,0.1328125-0.296875,0.296875v1.359375     c0,0.1640625,0.1329346,0.296875,0.296875,0.296875h1.359375c0.1639404,0,0.296875-0.1328125,0.296875-0.296875v-1.359375     C50.9765625,71.7320633,50.8436279,71.5992508,50.6796875,71.5992508z"/>
		</g>
		<path fill="#64798A" d="M53.4490967,23.9041233h-6.8981934c-0.4575195,0-0.8283691,0.3708496-0.8283691,0.8283691    s0.3708496,0.8283691,0.8283691,0.8283691h6.8981934c0.4573975,0,0.8283691-0.3708496,0.8283691-0.8283691    S53.9064941,23.9041233,53.4490967,23.9041233z"/>
	</g>
</g>
</svg>
