<?xml version="1.0" encoding="utf-8"?>
<!-- Generator: Adobe Illustrator 21.0.2, SVG Export Plug-In . SVG Version: 6.00 Build 0)  -->
<svg xmlns="http://www.w3.org/2000/svg" xmlns:xlink="http://www.w3.org/1999/xlink" version="1.1" id="Layer_1" x="0px" y="0px" viewBox="0 0 100 100" enable-background="new 0 0 100 100" xml:space="preserve" width="512" height="512">
<g>
	<circle fill="#45B39C" cx="50" cy="50" r="48"/>
	<path opacity="0.1" d="M95.9680176,63.8299332L63.0300293,30.899147L63,30.8692398   c-4.1799316-5.1101074-10.5400391-8.3701172-17.6599121-8.3701172C32.7199707,22.4991226,22.5,32.7291031,22.5,45.3392105   c0,6.5300293,2.7399902,12.4199219,7.1400146,16.5799561l34.0852051,34.0786133   C79.1601563,91.3985367,91.3347168,79.2502213,95.9680176,63.8299332z"/>
	<g>
		<g>
			<circle fill="#DC8744" cx="45.3367882" cy="45.3367882" r="22.8367882"/>
			<circle fill="#F6C358" cx="45.3367882" cy="45.3367882" r="18.4520664"/>
			<g>
				<path fill="#DC8744" d="M44.5677261,59.8443336v-2.5550003c-3.1987381-0.3261414-6.069912-1.5979462-8.6106758-3.8139915      l2.5550041-3.0449257c1.9596901,1.7033348,3.9763489,2.7173615,6.0556717,3.0449257v-6.790554      c-2.6376076-0.6294937-4.5688133-1.458374-5.7936211-2.485218c-1.2248039-1.026844-1.8372078-2.5493088-1.8372078-4.5673904      s0.7035522-3.6687202,2.1163521-4.9533424c1.4127998-1.2831993,3.2500076-1.9824791,5.5144768-2.0992622v-1.7503338h2.2388306      v1.7845135c2.5663986,0.1879921,4.9932251,1.0624504,7.2804794,2.6262131l-2.2758636,3.2201004      c-1.5409775-1.0966263-3.207283-1.7731209-5.0046158-2.030899v6.5797729h0.1053925      c2.6831779,0.6309204,4.6542625,1.4825859,5.91325,2.5550041c1.261837,1.0738411,1.8913307,2.6319122,1.8913307,4.6727791      c0,2.0422935-0.7234917,3.7057533-2.1704712,4.9875259c-1.4469833,1.2846222-3.3582497,1.983902-5.739502,2.1006851v2.5193977      H44.5677261z M42.098175,37.2523537c-0.595314,0.5241013-0.8915482,1.1778069-0.8915482,1.9596901      s0.2335701,1.3999825,0.7007065,1.8542976c0.4642868,0.4557457,1.3529816,0.892971,2.6603928,1.3131065v-6.0556679      C43.5166702,36.4177742,42.6934853,36.7268257,42.098175,37.2523537z M49.4669533,52.5994644      c0.6522789-0.5354996,0.9798431-1.2119904,0.9798431-2.0294762c0-0.8160629-0.2563553-1.4640732-0.7690659-1.9426003      c-0.5155563-0.4785309-1.4726143-0.9271507-2.8711739-1.34729v6.2992096      C47.9259758,53.4639473,48.811821,53.1363831,49.4669533,52.5994644z"/>
			</g>
		</g>
		<g>
			<g>
				<g>
					
						<rect x="54.6081886" y="53.3434334" transform="matrix(0.7071068 -0.7071068 0.7071068 0.7071068 -22.8301945 55.1169701)" fill="#3A556A" width="1.0175656" height="3.5470643"/>
					
						<rect x="64.7397995" y="63.4750481" transform="matrix(0.7071068 -0.7071068 0.7071068 0.7071068 -27.0268459 65.2485809)" fill="#3A556A" width="1.0175656" height="3.5470643"/>
				</g>
				<g>
					
						<rect x="64.7397995" y="53.3434334" transform="matrix(0.7071068 0.7071068 -0.7071068 0.7071068 58.0844498 -29.9943275)" fill="#3A556A" width="1.0175656" height="3.5470643"/>
					
						<rect x="54.6081848" y="63.4750481" transform="matrix(0.7071068 0.7071068 -0.7071068 0.7071068 62.2810974 -19.8627167)" fill="#3A556A" width="1.0175656" height="3.5470643"/>
				</g>
				<g>
					<rect x="59.6739922" y="51.2451096" fill="#3A556A" width="1.0175656" height="3.5470643"/>
					<rect x="59.6739922" y="65.5733719" fill="#3A556A" width="1.0175656" height="3.5470643"/>
				</g>
				<g>
					
						<rect x="66.8381271" y="58.4092407" transform="matrix(5.005222e-11 1 -1 5.005222e-11 127.5296783 -7.1641335)" fill="#3A556A" width="1.0175656" height="3.5470643"/>
					
						<rect x="52.509861" y="58.4092407" transform="matrix(3.932658e-11 1 -1 3.932658e-11 113.201416 7.1641293)" fill="#3A556A" width="1.0175656" height="3.5470643"/>
				</g>
			</g>
			<polygon fill="#64798A" points="77.5,67.2692261 60.0062256,60.0062981 67.2692261,77.5 69.4434738,71.758667      73.2335434,75.5487289 75.5488052,73.2334671 71.7587433,69.4433975    "/>
		</g>
	</g>
</g>
</svg>
