<?xml version="1.0" encoding="utf-8"?>
<!-- Generator: Adobe Illustrator 21.0.2, SVG Export Plug-In . SVG Version: 6.00 Build 0)  -->
<svg xmlns="http://www.w3.org/2000/svg" xmlns:xlink="http://www.w3.org/1999/xlink" version="1.1" id="Layer_1" x="0px" y="0px" viewBox="0 0 100 100" enable-background="new 0 0 100 100" xml:space="preserve" width="512" height="512">
<g>
	<circle fill="#EA8953" cx="50" cy="50" r="48"/>
	<path opacity="0.1" d="M44.7199707,22.4991226v8.4567318l-2.8299561-0.0466976l8.2600098,8.2600098H26.710022   c-0.6900024,0-1.25,0.5599365-1.25,1.25v3.7399902c0,0.3800049,0.1699829,0.7200928,0.4400024,0.9400635l1.7799683,1.7800293   v3.9199219l-3.4099731,4.4599609c-0.5100098,0.0800781-0.9899902,0.3400879-1.3300171,0.7800293   c-0.710022,0.9100342-0.539978,2.2299805,0.3599854,2.9399414l4.3800049,4.380127v2.8598633   c0,0.3400879,0.1099854,0.6501465,0.2999878,0.9101563l30.1680908,30.1679688   C75.2130737,94.3775406,89.2055664,82.461525,95.052124,66.5933609L50.9500122,22.4991226H44.7199707z"/>
	<g>
		<g>
			<path fill="#EBF0F3" d="M27.6800747,44.9707718V66.216507c0,0.8574066,0.6922359,1.5524597,1.5460644,1.5524597h34.5613098     c0.8538246,0,1.5460625-0.6950531,1.5460625-1.5524597V44.9707718H27.6800747z"/>
			<rect x="27.6800747" y="44.9707718" fill="#E1E6E9" width="37.6534348" height="2.5331433"/>
			<path fill="#E56353" d="M66.3083038,39.1721497H26.705286c-0.6855087,0-1.2410908,0.5579872-1.2410908,1.2461967v3.7385406     c0,0.6882591,0.555582,1.2461967,1.2410908,1.2461967h39.6030197c0.6854095,0,1.2410889-0.5579376,1.2410889-1.2461967     v-3.7385406C67.5493927,39.7301369,66.9937134,39.1721497,66.3083038,39.1721497z"/>
			<g>
				<path fill="#E1E6E9" d="M33.1844749,50.0135918c-0.3552246,0-0.6431961,0.2891464-0.6431961,0.6458664v13.9599342      c0,0.35672,0.2879715,0.6459122,0.6431961,0.6459122c0.35532,0,0.643383-0.2891922,0.643383-0.6459122V50.6594582      C33.827858,50.3027382,33.5397949,50.0135918,33.1844749,50.0135918z"/>
				<path fill="#E1E6E9" d="M37.6252174,50.0135918c-0.3552246,0-0.6431961,0.2891464-0.6431961,0.6458664v13.9599342      c0,0.35672,0.2879715,0.6459122,0.6431961,0.6459122c0.3553162,0,0.643383-0.2891922,0.643383-0.6459122V50.6594582      C38.2686005,50.3027382,37.9805336,50.0135918,37.6252174,50.0135918z"/>
				<path fill="#E1E6E9" d="M42.0659599,50.0135918c-0.3552246,0-0.6431961,0.2891464-0.6431961,0.6458664v13.9599342      c0,0.35672,0.2879715,0.6459122,0.6431961,0.6459122c0.3553162,0,0.643383-0.2891922,0.643383-0.6459122V50.6594582      C42.709343,50.3027382,42.4212761,50.0135918,42.0659599,50.0135918z"/>
				<path fill="#E1E6E9" d="M46.5066986,50.0135918c-0.3552246,0-0.6431961,0.2891464-0.6431961,0.6458664v13.9599342      c0,0.35672,0.2879715,0.6459122,0.6431961,0.6459122c0.35532,0,0.643383-0.2891922,0.643383-0.6459122V50.6594582      C47.1500816,50.3027382,46.8620186,50.0135918,46.5066986,50.0135918z"/>
				<path fill="#E1E6E9" d="M50.9474411,50.0135918c-0.3552246,0-0.6431961,0.2891464-0.6431961,0.6458664v13.9599342      c0,0.35672,0.2879715,0.6459122,0.6431961,0.6459122c0.35532,0,0.643383-0.2891922,0.643383-0.6459122V50.6594582      C51.5908241,50.3027382,51.3027611,50.0135918,50.9474411,50.0135918z"/>
				<path fill="#E1E6E9" d="M55.3881836,50.0135918c-0.3552246,0-0.6431961,0.2891464-0.6431961,0.6458664v13.9599342      c0,0.35672,0.2879715,0.6459122,0.6431961,0.6459122c0.3553162,0,0.643383-0.2891922,0.643383-0.6459122V50.6594582      C56.0315666,50.3027382,55.7434998,50.0135918,55.3881836,50.0135918z"/>
				<path fill="#E1E6E9" d="M59.8289261,50.0135918c-0.3552246,0-0.6431999,0.2891464-0.6431999,0.6458664v13.9599342      c0,0.35672,0.2879753,0.6459122,0.6431999,0.6459122c0.3553162,0,0.643383-0.2891922,0.643383-0.6459122V50.6594582      C60.4723091,50.3027382,60.1842422,50.0135918,59.8289261,50.0135918z"/>
			</g>
			<path fill="#3A556A" d="M66.7820053,58.6127548c-0.7078934-0.9125443-0.5449982-2.2285042,0.3638458-2.9392815     c0.9088364-0.7107773,2.2194595-0.5472145,2.9273453,0.3653259c0.7078934,0.9125443,0.5449982,2.2285042-0.3638458,2.9392815     C68.8005142,59.688858,67.4898987,59.5252953,66.7820053,58.6127548z"/>
			<path fill="#D15241" d="M55.3003769,43.5937119c-0.7078896-0.9125404-0.5449905-2.2285004,0.3638458-2.9392815     c0.9088402-0.7107773,2.2194595-0.5472107,2.9273529,0.3653297c0.7078896,0.9125443,0.5449905,2.2285042-0.3638458,2.9392815     C57.3188896,44.6698189,56.0082703,44.5062561,55.3003769,43.5937119z"/>
			<path fill="#D5D6DB" d="M69.3512802,58.5164833c0.6549988-0.5122528,0.7724075-1.4607315,0.2622299-2.1183968     L58.155304,41.4092369c-0.5101776-0.6576691-1.4547539-0.7754898-2.1097527-0.263237     c-0.6549988,0.5122566-0.7724571,1.4606705-0.2622795,2.1183357L67.241478,58.2531853     C67.7516556,58.9108543,68.6962814,59.0287399,69.3512802,58.5164833z"/>
			<path fill="#3A556A" d="M26.2315826,58.6127548c0.7078934-0.9125443,0.5449944-2.2285042-0.3638458-2.9392815     c-0.9088383-0.7107773-2.2194576-0.5472145-2.9273491,0.3653259c-0.7078915,0.9125443-0.5449924,2.2285042,0.3638458,2.9392815     S25.5236912,59.5252953,26.2315826,58.6127548z"/>
			<path fill="#D15241" d="M37.7132072,43.5937119c0.7078934-0.9125404,0.5449944-2.2285004-0.3638458-2.9392815     c-0.9088364-0.7107773-2.2194557-0.5472107-2.9273491,0.3653297c-0.7078934,0.9125443-0.5449944,2.2285042,0.3638458,2.9392815     S37.0053177,44.5062561,37.7132072,43.5937119z"/>
			<path fill="#D5D6DB" d="M23.6623096,58.5164833c-0.6549988-0.5122528-0.7724075-1.4607315-0.2622299-2.1183968     L34.858284,41.4092369c0.5101776-0.6576691,1.4547539-0.7754898,2.1097527-0.263237     c0.654995,0.5122566,0.7724571,1.4606705,0.2622795,2.1183357L25.77211,58.2531853     C25.2619343,58.9108543,24.3173084,59.0287399,23.6623096,58.5164833z"/>
			<polygon fill="#F6C358" points="50.9475784,30.9061241 50.9475784,22.500021 44.7161331,22.500021 44.7161331,30.9061241      41.8877068,30.9061241 47.8316422,36.8501663 53.775795,30.9061241    "/>
		</g>
		<g>
			<path fill="#44C4A1" d="M55.2313118,66.3656387c0,6.149353,4.9849854,11.1343384,11.1342735,11.1343384V55.2313004     C60.2162971,55.2313004,55.2313118,60.2162857,55.2313118,66.3656387z"/>
			<path fill="#3EA69B" d="M66.3655853,55.2313004v22.2686768c6.1494141,0,11.1343994-4.9849854,11.1343994-11.1343384     S72.5149994,55.2313004,66.3655853,55.2313004z"/>
		</g>
		<polygon fill="#FFFFFF" points="74.4752426,63.8632317 68.8680801,63.8632317 68.8680801,58.2560654 63.8632202,58.2560654     63.8632202,63.8632317 58.2560539,63.8632317 58.2560539,68.868042 63.8632202,68.868042 63.8632202,74.4752121     68.8680801,74.4752121 68.8680801,68.868042 74.4752426,68.868042   "/>
	</g>
</g>
</svg>
