<?xml version="1.0" encoding="utf-8"?>
<!-- Generator: Adobe Illustrator 19.2.1, SVG Export Plug-In . SVG Version: 6.00 Build 0)  -->
<svg xmlns="http://www.w3.org/2000/svg" xmlns:xlink="http://www.w3.org/1999/xlink" version="1.1" id="Layer_1" x="0px" y="0px" viewBox="0 0 100 100" style="enable-background:new 0 0 100 100;" xml:space="preserve" width="512" height="512">
<style type="text/css">
	.st0{fill:#EFC84A;}
	.st1{opacity:0.1;enable-background:new    ;}
	.st2{fill:#EBF0F3;}
	.st3{fill:#E1E6E9;}
	.st4{fill:#D5D6DB;}
	.st5{fill:#E56353;}
	.st6{fill:#D15241;}
	.st7{fill:#FCD462;}
	.st8{fill:#64798A;}
	.st9{fill:#3FB7E0;}
	.st10{fill:#64D4F2;}
	.st11{fill:#DC8744;}
	.st12{fill:#F6C358;}
</style>
<g>
	<circle class="st0" cx="50" cy="50" r="48"/>
	<path class="st1" d="M97.9,52.6l-22-22h-0.6l-8-8H32.7v8h-8.6v1.8l0.8,0.8v0.8h-1.2v7.8c0,0.6,0.2,1.2,0.5,1.6   c0.2,0.3,0.5,0.6,0.8,0.8v30.7l0,0.8h-2.4v1.8l19.9,19.9c2.5,0.4,5,0.6,7.6,0.6C75.7,98,96.6,77.9,97.9,52.6z"/>
	<g>
		<rect x="24.9" y="31.1" class="st2" width="50.3" height="44.6"/>
		<g>
			<rect x="23.6" y="33.9" class="st3" width="5.9" height="7"/>
			<path class="st4" d="M23.6,40.9v0.8c0,1.6,1.3,2.9,2.9,2.9s2.9-1.3,2.9-2.9v-0.8H23.6z"/>
			<rect x="29.5" y="33.9" class="st5" width="5.9" height="7"/>
			<path class="st6" d="M29.5,40.9v0.8c0,1.6,1.3,2.9,2.9,2.9c1.6,0,2.9-1.3,2.9-2.9v-0.8H29.5z"/>
			<rect x="35.3" y="33.9" class="st3" width="5.9" height="7"/>
			<path class="st4" d="M35.3,40.9v0.8c0,1.6,1.3,2.9,2.9,2.9c1.6,0,2.9-1.3,2.9-2.9v-0.8H35.3z"/>
			<rect x="41.2" y="33.9" class="st5" width="5.9" height="7"/>
			<path class="st6" d="M41.2,40.9v0.8c0,1.6,1.3,2.9,2.9,2.9c1.6,0,2.9-1.3,2.9-2.9v-0.8H41.2z"/>
			<rect x="47.1" y="33.9" class="st3" width="5.9" height="7"/>
			<path class="st4" d="M47.1,40.9v0.8c0,1.6,1.3,2.9,2.9,2.9c1.6,0,2.9-1.3,2.9-2.9v-0.8H47.1z"/>
			<rect x="52.9" y="33.9" class="st5" width="5.9" height="7"/>
			<path class="st6" d="M52.9,40.9v0.8c0,1.6,1.3,2.9,2.9,2.9c1.6,0,2.9-1.3,2.9-2.9v-0.8H52.9z"/>
			<rect x="58.8" y="33.9" class="st3" width="5.9" height="7"/>
			<path class="st4" d="M58.8,40.9v0.8c0,1.6,1.3,2.9,2.9,2.9c1.6,0,2.9-1.3,2.9-2.9v-0.8H58.8z"/>
			<rect x="64.7" y="33.9" class="st5" width="5.9" height="7"/>
			<path class="st6" d="M64.7,40.9v0.8c0,1.6,1.3,2.9,2.9,2.9c1.6,0,2.9-1.3,2.9-2.9v-0.8H64.7z"/>
			<rect x="70.5" y="33.9" class="st3" width="5.9" height="7"/>
			<path class="st4" d="M70.5,40.9v0.8c0,1.6,1.3,2.9,2.9,2.9c1.6,0,2.9-1.3,2.9-2.9v-0.8H70.5z"/>
		</g>
		<rect x="24.9" y="73.8" class="st7" width="50.3" height="1.9"/>
		<rect x="24.1" y="30.5" class="st8" width="51.8" height="1.8"/>
		<rect x="32.7" y="22.5" class="st8" width="34.5" height="9.8"/>
		<rect x="34.7" y="24.5" class="st2" width="30.5" height="5.8"/>
		<rect x="27.6" y="49.7" class="st8" width="9.9" height="14"/>
		<rect x="28.7" y="50.7" class="st9" width="7.8" height="12"/>
		<g>
			<polygon class="st10" points="29.4,62.7 33.8,50.7 34.3,50.7 29.9,62.7    "/>
			<polygon class="st10" points="30.4,62.7 34.8,50.7 35.7,50.7 31.3,62.7    "/>
		</g>
		<rect x="62.5" y="49.7" class="st8" width="9.9" height="14"/>
		<rect x="63.6" y="50.7" class="st9" width="7.8" height="12"/>
		<g>
			<polygon class="st10" points="64.3,62.7 68.7,50.7 69.2,50.7 64.8,62.7    "/>
			<polygon class="st10" points="65.3,62.7 69.7,50.7 70.6,50.7 66.2,62.7    "/>
		</g>
		<rect x="22.5" y="75.7" class="st8" width="55" height="1.8"/>
		<path class="st11" d="M50,47c-4.8,0-8.6,3.9-8.6,8.6v20h17.3v-20C58.6,50.9,54.8,47,50,47z"/>
		<rect x="42.9" y="62.7" class="st12" width="5.9" height="11.5"/>
		<path class="st9" d="M57.1,60.2v-4.6c0-3.9-3.2-7.1-7.1-7.1s-7.1,3.2-7.1,7.1v4.6H57.1z"/>
		<rect x="51.2" y="62.7" class="st12" width="5.9" height="11.5"/>
		<path class="st10" d="M51,48.6l-4.3,11.6h0.6l4.2-11.6C51.3,48.7,51.1,48.6,51,48.6z"/>
		<path class="st10" d="M52.1,48.8l-4.2,11.4H49l4-11C52.7,49.1,52.4,48.9,52.1,48.8z"/>
	</g>
</g>
</svg>
