<?xml version="1.0" encoding="utf-8"?>
<!-- Generator: Adobe Illustrator 21.0.2, SVG Export Plug-In . SVG Version: 6.00 Build 0)  -->
<svg xmlns="http://www.w3.org/2000/svg" xmlns:xlink="http://www.w3.org/1999/xlink" version="1.1" id="Layer_1" x="0px" y="0px" viewBox="0 0 100 100" enable-background="new 0 0 100 100" xml:space="preserve" width="512" height="512">
<g>
	<circle fill="#45B39C" cx="50" cy="50" r="48"/>
	<path opacity="0.1" d="M97.9935913,50.2527847L70.5200195,22.7791519   c-0.1500244-0.1699219-0.3800049-0.2800293-0.6300049-0.2800293h-6.0300293c-0.4699707,0-0.8499756,0.3701172-0.8499756,0.8300781   v13.9699707c-3.7999878,1.5-6.4799805,5.1300049-6.4799805,9.3699951v0.2999268h-1.6500244l-5.8300171-5.829834H31.5999756   c-0.0299683,0.4299316-0.039978,0.869873-0.039978,1.3199463c0,1.5799561,0.1799927,3.0999756,0.5200195,4.5098877h-9.25   c-0.0200195,0.4400635-0.0400391,0.880127-0.0400391,1.3200684c0,4.7016602,1.6115723,8.8220215,4.0317383,11.199707   l-0.001709,0.0002441l0.210022,0.2200928l0.0699463,0.0599365l3.5500488,3.5500488v10.1999512   c0,0.6000977-0.4700317,1.0800781-1.0800171,1.1400146c-2.3300171,0.2000732-4.0100098,0.7399902-4.0100098,1.3800049   c0,0.2099609,0.1799927,0.4100342,0.5100098,0.5900879L47.3658447,97.925148   c0.8723755,0.0471191,1.75,0.0748291,2.6341553,0.0748291C76.4249268,97.9999771,97.8567505,76.6454849,97.9935913,50.2527847z"/>
	<g>
		<g>
			<path fill="#E1E6E9" d="M42.3090591,68.8222351c-0.6062813-0.0519028-1.0766563-0.5402222-1.0766563-1.1346664V56.6033058     c0-0.4991646,0.3342857-0.9334641,0.8221817-1.0819473c4.0132217-1.2212715,7.036499-6.6062088,7.036499-13.0651436     c0-0.4445419-0.0157509-0.8833809-0.0437088-1.3167305h-17.446846c-0.0279617,0.4333496-0.0438881,0.8721886-0.0438881,1.3167305     c0,6.4589348,3.023632,11.8438301,7.036499,13.0651436c0.487896,0.1484833,0.8221817,0.5827408,0.8221817,1.0819054v11.0843048     c0,0.5944443-0.4703751,1.0827637-1.0766563,1.1346664c-2.3352356,0.1998672-4.0111008,0.7415924-4.0111008,1.3802109     c0,0.8086624,2.684742,1.4642181,5.9962997,1.4642181c3.311554,0,5.9962959-0.6555557,5.9962959-1.4642181     C46.3201599,69.5638275,44.6442947,69.0221024,42.3090591,68.8222351z"/>
			<path fill="#E56353" d="M33.2045441,45.0967178c0.6579552,4.4987488,2.9379768,8.1957932,5.8203926,9.0727768     c0.0054855,0.0016441,0.0109711,0.0033264,0.0164566,0.0050583c0.8428879,0.2623062,1.7232895,0.2621346,2.5661774-0.0005188     c0.0053062-0.0016441,0.0106163-0.0032845,0.0159264-0.0048828c2.8818817-0.8766823,5.1617279-4.5736847,5.8196831-9.0724335     H33.2045441z"/>
		</g>
		<g>
			<path fill="#2F4859" d="M70.7387161,37.3011742v-13.972435c0-0.457695-0.3799133-0.8287411-0.848465-0.8287411h-6.0351639     c-0.4685478,0-0.8484688,0.3710461-0.8484688,0.8287411v13.972435c-3.7935905,1.4957008-6.4718857,5.1238632-6.4718857,9.3651733     v30.239666c0,0.3280411,0.272213,0.5939865,0.6080742,0.5939865h19.4597244c0.3358612,0,0.608078-0.2659225,0.608078-0.593956     V46.6663475C77.2106094,42.4250145,74.5324173,38.796875,70.7387161,37.3011742z"/>
			<path fill="#FCD462" d="M70.7387161,23.3287392c0-0.457695-0.3799133-0.8287411-0.848465-0.8287411h-6.0351639     c-0.4685478,0-0.8484688,0.3710461-0.8484688,0.8287411v5.652916h7.7320976V23.3287392z"/>
			<path fill="#FCD462" d="M70.7387161,29.8834496h-7.7320976v1.0145416c2.4883919,0,5.3106728,0,7.7320976,0V29.8834496z"/>
			<rect x="63.0066185" y="28.9816551" fill="#E56353" width="7.7321" height="0.9017946"/>
		</g>
		<g>
			<path fill="#EBF0F3" d="M53.2293167,74.655571c-0.6062813-0.0519028-1.0766563-0.5402222-1.0766563-1.1346741V62.4366417     c0-0.4991646,0.3342857-0.9334679,0.8221817-1.0819511c4.0132217-1.2212677,7.036499-6.6062088,7.036499-13.0651436     c0-0.4445419-0.0157509-0.8833809-0.0437126-1.3167305H42.5207863c-0.0279617,0.4333496-0.0438881,0.8721886-0.0438881,1.3167305     c0,6.4589348,3.023632,11.8438301,7.036499,13.0651436c0.4878922,0.1484833,0.8221817,0.5827408,0.8221817,1.0819054v11.084301     c0,0.5944519-0.4703751,1.0827713-1.0766602,1.1346741c-2.3352356,0.1998596-4.011097,0.7415924-4.011097,1.3802109     c0,0.8086624,2.684742,1.4642181,5.9962959,1.4642181s5.9962997-0.6555557,5.9962997-1.4642181     C57.2404175,75.3971634,55.5645523,74.8554306,53.2293167,74.655571z"/>
			<path fill="#E56353" d="M44.1247978,50.9300537c0.657959,4.4987488,2.9379807,8.1957893,5.8203964,9.0727768     c0.0054855,0.0016403,0.0109711,0.0033264,0.0164566,0.0050545c0.8428841,0.26231,1.7232895,0.2621346,2.5661736-0.0005188     c0.0053101-0.0016403,0.0106201-0.0032845,0.0159302-0.0048828c2.8818817-0.8766823,5.1617279-4.5736809,5.8196831-9.0724297     H44.1247978z"/>
		</g>
		<g>
			<path fill="#EBF0F3" d="M33.5418396,74.655571c-0.6062851-0.0519028-1.0766602-0.5402222-1.0766602-1.1346741V62.4366417     c0-0.4991646,0.3342896-0.9334679,0.8221817-1.0819511c4.0132217-1.2212677,7.0365028-6.6062088,7.0365028-13.0651436     c0-0.4445419-0.0157509-0.8833809-0.0437126-1.3167305H22.8333073c-0.0279617,0.4333496-0.0438881,0.8721886-0.0438881,1.3167305     c0,6.4589348,3.023632,11.8438301,7.036499,13.0651436c0.4878941,0.1484833,0.8221817,0.5827408,0.8221817,1.0819054v11.084301     c0,0.5944519-0.4703732,1.0827713-1.0766582,1.1346741c-2.3352356,0.1998596-4.0110989,0.7415924-4.0110989,1.3802109     c0,0.8086624,2.6847439,1.4642181,5.9962978,1.4642181s5.9962959-0.6555557,5.9962959-1.4642181     C37.5529366,75.3971634,35.8770752,74.8554306,33.5418396,74.655571z"/>
			<path fill="#E56353" d="M24.4373207,50.9300537c0.6579571,4.4987488,2.9379807,8.1957893,5.8203926,9.0727768     c0.0054874,0.0016403,0.010973,0.0033264,0.0164585,0.0050545c0.842886,0.26231,1.7232895,0.2621346,2.5661755-0.0005188     c0.0053101-0.0016403,0.0106201-0.0032845,0.0159264-0.0048828c2.8818817-0.8766823,5.1617279-4.5736809,5.8196869-9.0724297     H24.4373207z"/>
		</g>
	</g>
</g>
</svg>
