<?xml version="1.0" encoding="utf-8"?>
<!-- Generator: Adobe Illustrator 21.0.2, SVG Export Plug-In . SVG Version: 6.00 Build 0)  -->
<svg xmlns="http://www.w3.org/2000/svg" xmlns:xlink="http://www.w3.org/1999/xlink" version="1.1" id="Layer_1" x="0px" y="0px" viewBox="0 0 100 100" enable-background="new 0 0 100 100" xml:space="preserve" width="512" height="512">
<g>
	<circle fill="#E05B49" cx="50" cy="50" r="48"/>
	<path opacity="0.1" d="M73.1099854,33.5191422H26.8900146c-0.7600098,0-1.3699951,0.6201172-1.3699951,1.3701172v27.579834H22.5   v2.8300781l32.447876,32.447876c21.769165-2.2293701,39.2296143-19.0056152,42.5006104-40.4493408L74.0500488,33.899147   C73.8100586,33.6591568,73.4799805,33.5191422,73.1099854,33.5191422z"/>
	<g>
		<rect x="22.5000153" y="62.472229" fill="#EBF0F3" width="55" height="2.829582"/>
		<polygon fill="#E1E6E9" points="77.5000153,65.3018112 22.5000134,65.3018112 27.713026,66.4772873 72.2870026,66.4772873   "/>
		<rect x="44.7578278" y="63.6526451" fill="#E1E6E9" width="10.484375" height="0.46875"/>
		<path fill="#64798A" d="M73.110733,33.5227089H26.8892975c-0.7574463,0-1.37146,0.6140137-1.37146,1.37146v27.578064H74.482193    v-27.578064C74.482193,34.1367226,73.8681793,33.5227089,73.110733,33.5227089z"/>
		<rect x="27.5175934" y="35.5222816" fill="#27A2DB" width="44.9648438" height="24.9501953"/>
		<rect x="27.5175934" y="59.66819" fill="#2D93BA" width="44.9648438" height="0.8042892"/>
		<g>
			<g>
				<path fill="#FFFFFF" d="M36.9852142,51.3831596c-0.0108452-0.0734138-0.012928-0.2506866,0.1902084-0.3124199      l8.7740936-2.4343071l0.8838768-5.4463234H36.1264725l-0.5073204-2.7679977h-2.3658981v0.8542595h1.6542931l1.6768188,9.1501007      c-0.3324432,0.2420082-0.5087814,0.6451797-0.4442329,1.0818253c0.0850906,0.5727043,0.5489273,0.9727211,1.1278877,0.9727211      h8.7995415v-0.8542595h-8.7995415C37.0456963,51.6267586,36.9960594,51.4561577,36.9852142,51.3831596z M36.9084663,47.4572372      h1.0515556v2.5093079l-0.5630074,0.1561852L36.9084663,47.4572372z M43.9732094,47.0301056h-1.0761681v-1.1842003h1.0761681      V47.0301056z M44.4003372,45.8459053h1.1363373l-0.1921349,1.1842003h-0.9442024V45.8459053z M39.8904495,47.4572372h1.0761642      v1.6752548l-1.0761642,0.2985497V47.4572372z M39.4633179,49.54953l-1.0761642,0.2985268v-2.3908195h1.0761642V49.54953z       M40.9666138,47.0301056h-1.0761642v-1.1842003h1.0761642V47.0301056z M41.3937454,45.8459053h1.0761681v1.1842003h-1.0761681      V45.8459053z M41.3937454,47.4572372h1.0761681v1.2582397l-1.0761681,0.2985268V47.4572372z M42.8970413,47.4572372h1.0761681      v0.841198l-1.0761681,0.2985535V47.4572372z M42.8970413,45.4187775v-1.3744087h1.0761681v1.3744087H42.8970413z       M42.4699135,45.4187775h-1.0761681v-1.3744087h1.0761681V45.4187775z M40.9666138,45.4187775h-1.0761642v-1.3744087h1.0761642      V45.4187775z M39.4633179,45.4187775h-1.0761642v-1.3744087h1.0761642V45.4187775z M39.4633179,45.8459053v1.1842003h-1.0761642      v-1.1842003H39.4633179z M37.960022,47.0301056h-1.129818l-0.2170601-1.1842003h1.3468781V47.0301056z M44.4003372,48.1799469      v-0.7227097h0.8749084l-0.0815468,0.5026283L44.4003372,48.1799469z M45.6059685,45.4187775h-1.2056313v-1.3744087h1.4286346      L45.6059685,45.4187775z M37.960022,44.0443687v1.3744087h-1.4251366l-0.2518883-1.3744087H37.960022z"/>
				<circle fill="#FFFFFF" cx="44.3490601" cy="54.2990303" r="1.2736204"/>
				<circle fill="#FFFFFF" cx="38.4030952" cy="54.2990303" r="1.2736335"/>
			</g>
			<rect x="61.9182701" y="50.6045914" fill="#FFFFFF" width="4.8285055" height="1.7066137"/>
			<rect x="53.5406075" y="41.3748474" fill="#FFFFFF" width="13.2061691" height="3.260273"/>
			<rect x="53.5406075" y="46.0382767" fill="#FFFFFF" width="13.2061691" height="3.260273"/>
			<rect x="53.5406075" y="48.7207794" fill="#EBF0F3" width="13.2061691" height="0.5777699"/>
			<rect x="53.5406075" y="44.0573502" fill="#EBF0F3" width="13.2061691" height="0.5777699"/>
		</g>
	</g>
</g>
</svg>
