<?xml version="1.0" encoding="utf-8"?>
<!-- Generator: Adobe Illustrator 21.0.2, SVG Export Plug-In . SVG Version: 6.00 Build 0)  -->
<svg xmlns="http://www.w3.org/2000/svg" xmlns:xlink="http://www.w3.org/1999/xlink" version="1.1" id="Layer_1" x="0px" y="0px" viewBox="0 0 100 100" enable-background="new 0 0 100 100" xml:space="preserve" width="512" height="512">
<g>
	<circle fill="#45B39C" cx="50" cy="50" r="48"/>
	<path opacity="0.1" d="M74,34.2591324c-0.3300171-0.3499756-0.789978-0.5599365-1.2999878-0.5599365H52.0200195   c-0.7700195,0-1.4299927,0.4899902-1.6799927,1.1700439l-0.6100464-0.6101074   c-0.3299561-0.3499756-0.789978-0.5599365-1.2999878-0.5599365H27.7399902c-0.9899902,0-1.789978,0.8099365-1.789978,1.7999268   v9.3701172h-2.210022c-0.6799927,0-1.2399902,0.5599365-1.2399902,1.25v15.369873   c0,0.2600098,0.0800171,0.5100098,0.2299805,0.710083l0.3200073,0.3199463l2.6300049,2.6300049   c-0.039978,0.3000488,0.0599976,0.6199951,0.289978,0.8499756l31.4314575,31.4313965   c20.5002441-3.1732178,36.708313-19.3188477,39.9854736-39.7844238L74.0200195,34.2791519L74,34.2591324z"/>
	<g>
		<g>
			<path fill="#64798A" d="M25.9265003,64.582489c-0.3591194,0.4095459-0.3388348,1.027359,0.0462837,1.4125519     c0.3851185,0.3850479,1.0030804,0.4054031,1.4127693,0.0463562l4.0314617-3.5345688l-1.9560204-1.9560204L25.9265003,64.582489z"/>
			<path fill="#64798A" d="M74.0735016,64.582489l-3.5344925-4.0316811l-1.9560242,1.9560204l4.0314636,3.5345688     c0.4096909,0.3590469,1.0276489,0.3386917,1.4127655-0.0463562C74.4123383,65.609848,74.4326172,64.9920349,74.0735016,64.582489     z"/>
		</g>
		<path fill="#F6C358" d="M50.2243652,57.3760147H25.9470654V35.4990044c0-0.9923592,0.8044624-1.7968216,1.7968197-1.7968216    h20.6836586c0.9923553,0,1.7968216,0.8044624,1.7968216,1.7968216V57.3760147z"/>
		<path fill="#F6C358" d="M74.5016632,57.3760147h-24.277298V35.4990044c0-0.9923592,0.8044624-1.7968216,1.7968178-1.7968216    h20.6836586c0.9923553,0,1.7968216,0.8044624,1.7968216,1.7968216V57.3760147z"/>
		<path fill="#DC8744" d="M70.6532822,52.9272842c0-1.1774254-20.4012985-1.1774254-20.4012985,0    c0-1.431839-20.8578415-1.431839-20.8578415,0l-0.0000134,2.9037819h41.2591019L70.6532822,52.9272842z"/>
		<path fill="#FCD462" d="M76.2592392,44.873867h-4.412941c-0.6852722,0-1.2407608,0.5554924-1.2407608,1.2407646v9.7164345    H29.3941288v-9.7164345c0-0.6852722-0.5554886-1.2407646-1.2407608-1.2407646h-4.4126072    c-0.6852722,0-1.2407608,0.5554924-1.2407608,1.2407646v15.3700562c0,0.6851883,0.5554886,1.2407608,1.2407608,1.2407608    h52.5184784c0.6852722,0,1.2407608-0.5555725,1.2407608-1.2407608V46.1146317    C77.5,45.4293594,76.9445114,44.873867,76.2592392,44.873867z"/>
		<path fill="#DC8744" d="M27.6246738,46.0276527h-3.3553619c-0.3192654,0-0.5778217,0.2586975-0.5778217,0.5778923v7.2701187    c0,0.3191948,0.2585564,0.5778923,0.5778217,0.5778923h3.3553619c0.3192654,0,0.5779648-0.2586975,0.5779648-0.5778923V46.605545    C28.2026386,46.2863503,27.9439392,46.0276527,27.6246738,46.0276527z"/>
		<g>
			<path fill="#DC8744" d="M44.7132607,60.9558678v-3.3553619c0-0.3192673-0.2587013-0.5778236-0.5778923-0.5778236H27.4282398     c-0.3191948,0-0.5778942,0.2585564-0.5778942,0.5778236v3.3553619c0,0.3192635,0.2586994,0.5779648,0.5778942,0.5779648     h16.7071285C44.4545593,61.5338326,44.7132607,61.2751312,44.7132607,60.9558678z"/>
			<path fill="#DC8744" d="M73.1496506,60.9558678v-3.3553619c0-0.3192673-0.2586975-0.5778236-0.5778885-0.5778236H55.8646355     c-0.3191948,0-0.5778923,0.2585564-0.5778923,0.5778236v3.3553619c0,0.3192635,0.2586975,0.5779648,0.5778923,0.5779648     h16.7071266C72.8909531,61.5338326,73.1496506,61.2751312,73.1496506,60.9558678z"/>
		</g>
		<path fill="#DC8744" d="M75.7303772,46.0276527h-3.3553619c-0.3192673,0-0.5778198,0.2586975-0.5778198,0.5778923v7.2701187    c0,0.3191948,0.2585526,0.5778923,0.5778198,0.5778923h3.3553619c0.3192673,0,0.5779648-0.2586975,0.5779648-0.5778923V46.605545    C76.308342,46.2863503,76.0496445,46.0276527,75.7303772,46.0276527z"/>
	</g>
</g>
</svg>
