<?xml version="1.0" encoding="utf-8"?>
<!-- Generator: Adobe Illustrator 21.0.2, SVG Export Plug-In . SVG Version: 6.00 Build 0)  -->
<svg xmlns="http://www.w3.org/2000/svg" xmlns:xlink="http://www.w3.org/1999/xlink" version="1.1" id="Layer_1" x="0px" y="0px" viewBox="0 0 100 100" enable-background="new 0 0 100 100" xml:space="preserve" width="512" height="512">
<g>
	<circle fill="#334D5C" cx="50" cy="50" r="48"/>
	<path opacity="0.1" d="M50,22.4991226c-10.539978,0-19.0800171,8.5400391-19.0800171,19.0800781   c0,10.3299561,9.460022,22.4399414,15.0499878,28.6999512c-7.0799561,0.4000244-12.3399658,1.8400879-12.3399658,3.5500488   c0,0.2800293,0.1400146,0.5600586,0.4099731,0.8199463l22.8510742,22.8509521   c19.5046997-2.8051758,35.2111816-17.3337402,39.7623901-36.2175293l-32.503418-32.503418   C60.6599731,24.9191666,55.6099854,22.4991226,50,22.4991226z"/>
	<g>
		<ellipse fill="#EBF0F3" cx="50" cy="73.8318939" rx="16.3653812" ry="3.6681025"/>
		<path fill="#E56353" d="M69.0777893,41.5777855C69.0777893,55.9706955,50,74.5189819,50,74.5189819    S30.9222145,56.2575264,30.9222145,41.5777855c0-10.5363712,8.5414162-19.0777874,19.0777855-19.0777874    S69.0777893,31.0414143,69.0777893,41.5777855z"/>
		<circle fill="#E1E6E9" cx="50" cy="41.5777855" r="15.5402269"/>
		<ellipse fill="#EBF0F3" cx="50" cy="42.1932945" rx="15.5402269" ry="14.9247198"/>
		<g>
			<polygon fill="#E56353" points="59.1398125,32.4379768 48.1616898,39.7394753 51.8383141,43.4160995    "/>
			<polygon fill="#27A2DB" points="48.1616898,39.7394753 40.8601913,50.7175941 51.8383141,43.4160995    "/>
			
				<ellipse transform="matrix(0.7071068 -0.7071068 0.7071068 0.7071068 -14.7552729 47.5331917)" fill="#FCD462" cx="50" cy="41.5777855" rx="1.9405804" ry="1.9405804"/>
			<path fill="#F6C358" d="M51.5466843,41.5708389c-0.0516548,0.3057098-0.1924286,0.5991898-0.4283562,0.8351173     c-0.6042519,0.604248-1.5840302,0.6042137-2.188282-0.0000381c-0.3004227-0.3004227-0.4507866-0.6936646-0.4524879-1.0873985     c-0.0808067,0.4772987,0.0599289,0.984993,0.4283218,1.3533859c0.6043243,0.6043243,1.5840302,0.6042862,2.1882782,0.0000381     C51.3980598,42.3680458,51.5484962,41.9691391,51.5466843,41.5708389z"/>
		</g>
	</g>
</g>
</svg>
