<?xml version="1.0" encoding="utf-8"?>
<!-- Generator: Adobe Illustrator 21.0.2, SVG Export Plug-In . SVG Version: 6.00 Build 0)  -->
<svg xmlns="http://www.w3.org/2000/svg" xmlns:xlink="http://www.w3.org/1999/xlink" version="1.1" id="Layer_1" x="0px" y="0px" viewBox="0 0 100 100" enable-background="new 0 0 100 100" xml:space="preserve" width="512" height="512">
<g>
	<circle fill="#334D5C" cx="50" cy="50" r="48"/>
	<path opacity="0.1" d="M94.9650269,66.8143082L64.5200195,36.3692398l-0.1100464,0.0100098l-1.7199707-1.7200928L62.25,34.7791519   l-1.5800171-1.5899658l-0.6900024,0.289917l-1.5-1.5l-0.8999634,0.5100098l-1.4299927-1.4299316l-1.0300293,0.7700195   l-1.3900146-1.3900146l-1.0999756,1.0699463L51.25,30.1292496l-1.1199951,1.3798828L48.75,30.1292496l-1.0499878,1.6899414   l-1.4299927-1.3800049l-0.8300171,1.8199463l-1.5900269-1.1999512l-0.5899658,1.9099121l-1.7399902-0.9899902l-0.3500366,1.9700928   l-1.8399658-0.7600098l-0.1000366,1.9899902l-1.9199829-0.5200195l0.1500244,1.9899902l-1.9800415-0.2799072l0.4000244,1.9499512   l-1.9899902-0.0200195l0.6400146,1.8800049l-1.9800415,0.2299805l0.8699951,1.7900391l-1.9400024,0.4699707l1.1000366,1.6700439   l-1.8699951,0.7099609L32,46.569191l-1.7600098,0.9299316l1.4000244,1.4000244l-1.5499878,1.0999756l1.3799438,1.380127   l-1.2299805,1.119873l1.3800049,1.380127l-0.9099731,1.0699463l0.9499512,0.9499512h-1.5999756v3.1800537H22.5l3.1099854,4.0200195   L22.5,67.1292496L53.2492065,97.878273C72.4237061,96.5950699,88.512207,84.0621109,94.9650269,66.8143082z"/>
	<g>
		<polygon fill="#FCD462" points="50,31.6786785 51.2504425,30.1248169 52.2962723,31.8231487 53.7316017,30.438261     54.5563278,32.2542763 56.1539116,31.0602036 56.7445297,32.9652672 58.4791756,31.9808407 58.8263626,33.9449043     60.6707115,33.1856499 60.7690048,35.1777382 62.6939659,34.6556282 62.5418091,36.6443329 64.5170288,36.3675995     64.1168213,38.3215485 66.1111526,38.2945633 65.4692001,40.1829453 67.4511948,40.4061241 66.5776291,42.1991615     68.5160141,42.6689911 67.424614,44.338398 69.288826,45.0474701 67.9968033,46.566925 69.7574463,47.5040512     68.2851715,48.8495941 69.9144821,50 68.2851715,51.1504059 69.7574463,52.495945 67.9968033,53.4330711 69.288826,54.9525299     67.424614,55.6615982 68.5160141,57.3310089 66.5776291,57.8008385 67.4511948,59.5938721 65.4692001,59.8170547     66.1111526,61.7054367 64.1168213,61.6784477 64.5170288,63.6323967 62.5418091,63.3556671 62.6939659,65.344368     60.7690048,64.822258 60.6707115,66.8143463 58.8263626,66.0550919 58.4791756,68.0191574 56.7445297,67.034729     56.1539116,68.9397964 54.5563278,67.7457199 53.7316017,69.5617371 52.2962723,68.1768494 51.2504425,69.8751831 50,68.3213196     48.7495613,69.8751831 47.7037315,68.1768494 46.2683983,69.5617371 45.443676,67.7457199 43.8460884,68.9397964     43.2554741,67.034729 41.5208282,68.0191574 41.1736374,66.0550919 39.3292885,66.8143463 39.230999,64.822258     37.3060341,65.344368 37.4581947,63.3556671 35.4829712,63.6323967 35.8831825,61.6784477 33.8888512,61.7054367     34.5307999,59.8170547 32.5488091,59.5938721 33.4223747,57.8008385 31.4839878,57.3310089 32.5753899,55.6615982     30.7111721,54.9525299 32.0032005,53.4330711 30.2425537,52.495945 31.7148342,51.1504059 30.0855236,50 31.7148342,48.8495941     30.2425537,47.5040512 32.0032005,46.566925 30.7111721,45.0474701 32.5753899,44.338398 31.4839878,42.6689911     33.4223747,42.1991615 32.5488091,40.4061241 34.5307999,40.1829453 33.8888512,38.2945633 35.8831825,38.3215485     35.4829712,36.3675995 37.4581947,36.6443329 37.3060341,34.6556282 39.230999,35.1777382 39.3292885,33.1856499     41.1736374,33.9449043 41.5208282,31.9808407 43.2554741,32.9652672 43.8460884,31.0602036 45.443676,32.2542763     46.2683983,30.438261 47.7037315,31.8231487 48.7495613,30.1248169   "/>
		<g>
			<path fill="#44C4A1" d="M50.0002441,65.1584854c-8.358284,0-15.1586266-6.799984-15.1586266-15.1586227     s6.8003426-15.1586227,15.1586266-15.1586227s15.1586227,6.7999878,15.1586227,15.1586227     S58.3585243,65.1584854,50.0002441,65.1584854z M50.0002441,36.289566c-7.559864,0-13.7103004,6.1504326-13.7103004,13.7102966     s6.1504364,13.7103004,13.7103004,13.7103004s13.7102966-6.1504364,13.7102966-13.7103004     S57.5601082,36.289566,50.0002441,36.289566z"/>
		</g>
		<polygon fill="#D15241" points="22.5000019,67.125206 36.2966919,67.125206 36.2966919,59.081749 22.5000019,59.081749     25.61339,63.1034775   "/>
		<polygon fill="#CE412D" points="36.2966919,63.9385605 36.2966919,67.125206 30.0637093,63.9385605   "/>
		<polygon fill="#D15241" points="77.5,67.125206 63.7033081,67.125206 63.7033081,59.081749 77.5,59.081749 74.3866119,63.1034775       "/>
		<polygon fill="#CE412D" points="63.7033081,63.9385605 63.7033081,67.125206 69.9362946,63.9385605   "/>
		<rect x="30.0637093" y="55.8950996" fill="#E56353" width="39.8725815" height="8.0434608"/>
		<g>
			<path fill="#DC8744" d="M38.3724899,45.6185341h2.3910599v6.5784798h-1.0546112v-5.5901184h-1.3364487V45.6185341z"/>
			<path fill="#DC8744" d="M42.9087639,51.3453636c-0.444973-0.6180611-0.6678429-1.4448242-0.6678429-2.4799042     s0.2228699-1.8618431,0.6678429-2.4799042c0.4457397-0.6176758,1.1166458-0.9267082,2.0142517-0.9267082     c0.8968391,0,1.568512,0.3090324,2.0142517,0.9267082c0.444973,0.6180611,0.6678429,1.4448242,0.6678429,2.4799042     s-0.2228699,1.8618431-0.6678429,2.4799042c-0.4457397,0.6180611-1.1174126,0.9270897-2.0142517,0.9270897     C44.0254097,52.2724533,43.3545036,51.9634247,42.9087639,51.3453636z M43.7045097,47.0867157     c-0.2603989,0.4518661-0.3905945,1.0446548-0.3905945,1.7787437c0,0.7340927,0.1301956,1.3268776,0.3905945,1.7787437     s0.6663094,0.6774178,1.2185059,0.6774178s0.9550476-0.2240181,1.2093163-0.672821     c0.2542725-0.4484215,0.3814087-1.0427399,0.3814087-1.7833405c0-0.7402191-0.1271362-1.3345375-0.3814087-1.7833405     c-0.2542686-0.4484177-0.6571198-0.672821-1.2093163-0.672821S43.9649086,46.635231,43.7045097,47.0867157z"/>
			<path fill="#DC8744" d="M49.3834724,51.3453636c-0.444973-0.6180611-0.6678429-1.4448242-0.6678429-2.4799042     s0.2228699-1.8618431,0.6678429-2.4799042c0.4457397-0.6176758,1.1166458-0.9267082,2.0142517-0.9267082     c0.8968391,0,1.568512,0.3090324,2.0142479,0.9267082c0.4449768,0.6180611,0.6678429,1.4448242,0.6678429,2.4799042     s-0.2228661,1.8618431-0.6678429,2.4799042c-0.4457359,0.6180611-1.1174088,0.9270897-2.0142479,0.9270897     C50.5001183,52.2724533,49.8292122,51.9634247,49.3834724,51.3453636z M50.1792145,47.0867157     c-0.2603951,0.4518661-0.3905945,1.0446548-0.3905945,1.7787437c0,0.7340927,0.1301994,1.3268776,0.3905945,1.7787437     c0.2603989,0.4518661,0.6663132,0.6774178,1.2185097,0.6774178c0.5521927,0,0.9550438-0.2240181,1.2093163-0.672821     c0.2542686-0.4484215,0.3814049-1.0427399,0.3814049-1.7833405c0-0.7402191-0.1271362-1.3345375-0.3814049-1.7833405     c-0.2542725-0.4484177-0.6571236-0.672821-1.2093163-0.672821C50.8455276,46.4092979,50.4396133,46.635231,50.1792145,47.0867157     z"/>
			<path fill="#DC8744" d="M57.4864273,45.8961639c0.2695885,0.2917976,0.4051476,0.6448669,0.4051476,1.0588226     c0,0.4143372-0.1370888,0.7685547-0.4097404,1.0634155c-0.2726517,0.2952461-0.6119347,0.4422913-1.0163193,0.4422913     c-0.4043808,0-0.7421303-0.1458969-1.0117188-0.4373131c-0.2695885-0.2917976-0.4043808-0.6448669-0.4043808-1.0588226     c0-0.4143372,0.1363258-0.7685547,0.4089775-1.0634155c0.2734146-0.2948647,0.6119308-0.4422951,1.0163155-0.4422951     C56.8798561,45.458847,57.2168388,45.6047478,57.4864273,45.8961639z M61.3165703,45.6185341l-4.818119,6.5784798h-1.213913     l4.818119-6.5784798H61.3165703z M56.8561134,47.4489746c0.1003304-0.1282845,0.1508789-0.2868195,0.1508789-0.4752274     c0-0.1880226-0.0536118-0.3465576-0.1600685-0.4752235c-0.1072235-0.1282845-0.2374229-0.1930008-0.3905983-0.1930008     c-0.1539383,0-0.2810745,0.0647163-0.3814049,0.1930008c-0.1003304,0.1286659-0.1508789,0.2872009-0.1508789,0.4752235     c0,0.1884079,0.0536118,0.3469429,0.1600685,0.4752274c0.1072235,0.1286659,0.2366562,0.1930008,0.3905983,0.1930008     C56.6286469,47.6419754,56.7557831,47.5776405,56.8561134,47.4489746z M61.2231331,49.7079239     c0.2695885,0.2917976,0.4043808,0.6444817,0.4043808,1.0584373c0,0.4143372-0.1363258,0.76894-0.4097443,1.0638008     c-0.2726517,0.2948608-0.6111679,0.4422913-1.0163155,0.4422913c-0.4043808,0-0.7413673-0.1458969-1.0117188-0.4376984     c-0.2695885-0.2917976-0.4043846-0.6448631-0.4043846-1.0588188s0.1363258-0.7685585,0.4097443-1.0634193     c0.2726517-0.2948608,0.6111679-0.4422913,1.0163155-0.4422913     C60.6157913,49.2702255,60.9527779,49.4161224,61.2231331,49.7079239z M60.6111984,51.2794991     c0.1003304-0.1286697,0.1501122-0.2872047,0.1501122-0.4752274c0-0.1884041-0.052845-0.3465576-0.1593018-0.4752235     c-0.1072235-0.1286697-0.2374229-0.1930008-0.3905983-0.1930008c-0.1539421,0-0.2810745,0.0643311-0.3814049,0.1930008     c-0.1003304,0.1286659-0.1508789,0.2868195-0.1508789,0.4752235c0,0.1880226,0.0536118,0.3465576,0.1600685,0.4752274     c0.1064568,0.1286659,0.2366562,0.192997,0.3905983,0.192997C60.3837318,51.472496,60.5108681,51.408165,60.6111984,51.2794991z"/>
		</g>
		<g>
			<path fill="#FFFFFF" d="M32.6765366,61.7488327H31.071682v-4.4543114h1.4264412     c0.2484131,0,0.462677,0.0363007,0.6427956,0.1083832c0.1796913,0.0723419,0.3137169,0.1700935,0.4012146,0.2932549     c0.1677399,0.2292099,0.2513962,0.4884987,0.2513962,0.7773438c0,0.348484-0.0909119,0.6075134-0.2727394,0.7773476     c-0.0661545,0.0596352-0.1118279,0.096714-0.1361542,0.1114922c-0.0243301,0.0150414-0.0682945,0.0394135-0.1310349,0.0733795     c0.2270699,0.0596352,0.4080429,0.1838341,0.5429192,0.3728561c0.134449,0.1890221,0.2018852,0.4236755,0.2018852,0.703968     c0,0.3101082-0.0874977,0.5841751-0.2624969,0.8222008C33.5297546,61.6108894,33.1763458,61.7488327,32.6765366,61.7488327z      M31.6905746,59.1424675h0.7866364c0.4477348,0,0.6713905-0.1846123,0.6713905-0.5543594     c0-0.2123566-0.0542068-0.3653336-0.1626205-0.4586792c-0.1084099-0.0933418-0.2761536-0.140274-0.5036507-0.140274h-0.7917557     V59.1424675z M31.6905746,61.0541992h0.9701691c0.2274971,0,0.4012146-0.04356,0.5220032-0.1306801     c0.1203651-0.0868645,0.1809731-0.2515106,0.1809731-0.4936867c0-0.395153-0.260788-0.5927315-0.7815132-0.5927315h-0.8916321     V61.0541992z"/>
			<path fill="#FFFFFF" d="M37.3493958,57.2945213v0.7073364h-1.956131v1.1789856h1.7568016v0.6689606h-1.7568016v1.1916885     h2.0192986v0.7073402h-2.6381912v-4.4543114H37.3493958z"/>
			<path fill="#FFFFFF" d="M39.313633,57.8807716c-0.1801186,0-0.3278008,0.0445976-0.4430428,0.1337929     C38.754921,58.1040192,38.6973,58.2388496,38.6973,58.4193115c0,0.1807251,0.057621,0.3186684,0.1732903,0.4140854     c0.115242,0.0956764,0.3606682,0.1988716,0.7366982,0.3090706c0.3756027,0.1107178,0.6590157,0.26577,0.8498039,0.4651642     c0.1903648,0.1999092,0.2855453,0.4939423,0.2855453,0.8826141c0,0.3886757-0.1203651,0.7042274-0.3619461,0.9464035     c-0.2411537,0.2421761-0.5574303,0.3632622-0.9492531,0.3632622c-0.5732269,0-1.0819969-0.2401009-1.5258942-0.7200432     l0.3879814-0.5673218c0.3704834,0.3910065,0.7550507,0.5862503,1.1537018,0.5862503     c0.1993294,0,0.3576775-0.051857,0.4746284-0.1560936c0.1173782-0.1039734,0.1758499-0.2421722,0.1758499-0.4140816     c0-0.1721687-0.0550575-0.3059616-0.1651802-0.401638c-0.1101189-0.095417-0.3000565-0.1825371-0.5689545-0.2611008     c-0.2693253-0.0785675-0.4742012-0.1509056-0.6137695-0.2167664c-0.1399994-0.0658607-0.2642059-0.1516838-0.3726196-0.2579918     c-0.2168236-0.1996498-0.32481-0.5056114-0.32481-0.9176216c0-0.4120064,0.1229248-0.7296333,0.3696289-0.9526215     c0.2462769-0.2229881,0.5514565-0.3344841,0.9151077-0.3344841c0.2343254,0,0.4669456,0.0466728,0.6974297,0.1400185     c0.2309113,0.0936012,0.4302368,0.2253189,0.5979767,0.395153l-0.3303604,0.5670624     c-0.1084137-0.1187515-0.2552376-0.2165031-0.4404793-0.2929955     C39.6764336,57.9191475,39.4937515,57.8807716,39.313633,57.8807716z"/>
			<path fill="#FFFFFF" d="M42.8933983,57.982933v3.7658997h-0.6188927V57.982933H41.162632v-0.6884117h2.8426399v0.6884117     H42.8933983z"/>
			<path fill="#FFFFFF" d="M47.8859482,61.7869453l-0.078537,0.006485c-0.5454788,0-1.0034599-0.2198792-1.3739433-0.6596298     c-0.3709106-0.4394951-0.5561485-0.9876289-0.5561485-1.6438866c0-0.656517,0.1852379-1.2043915,0.5561485-1.644146     c0.3704834-0.4397507,0.8284645-0.6593704,1.3739433-0.6593704s1.0034599,0.2196198,1.3739433,0.6593704     c0.3709106,0.4397545,0.5561523,0.9868507,0.5561523,1.6410332c0,0.4967957-0.1101227,0.9375877-0.3303642,1.3221092     c-0.2202377,0.3845253-0.5138931,0.661705-0.8813896,0.8315392c0.1190834,0.1910934,0.2693253,0.2867737,0.4511528,0.2867737     c0.1327438,0,0.2633514-0.0425262,0.3909721-0.1273117c0.1276169-0.0850449,0.2245064-0.1955032,0.2910919-0.3313713     l0.3512764,0.5924759c-0.3043251,0.3907471-0.6521873,0.5862503-1.0435829,0.5862503     c-0.2240829,0-0.4392014-0.0764923-0.6453552-0.2294731C48.1151505,62.2650757,47.9700317,62.0547905,47.8859482,61.7869453z      M48.7280693,58.3459358c-0.2501183-0.3142586-0.557003-0.471386-0.9206581-0.471386     c-0.3636513,0-0.6705399,0.1571274-0.9206581,0.471386c-0.249691,0.3145142-0.3747482,0.6956673-0.3747482,1.1439781     c0,0.448307,0.1250572,0.829464,0.3747482,1.1437187c0.2501183,0.314518,0.5570068,0.4716454,0.9206581,0.4716454     c0.3636551,0,0.6705399-0.1571274,0.9206581-0.4716454c0.249691-0.3142548,0.3747482-0.6954117,0.3747482-1.1437187     C49.1028175,59.0416031,48.9777603,58.66045,48.7280693,58.3459358z"/>
			<path fill="#FFFFFF" d="M51.3423615,60.7293091c0.1677399,0.2380295,0.395237,0.356781,0.6820602,0.356781     c0.2863998,0,0.5138969-0.1187515,0.6816368-0.356781c0.1677437-0.2380257,0.2518272-0.5608368,0.2518272-0.9687004v-2.4660873     h0.6188927v2.497982c0,0.6414795-0.1451187,1.1354218-0.43536,1.4815712     c-0.2902412,0.3464088-0.6628571,0.5193558-1.1169968,0.5193558c-0.454567,0-0.8271828-0.1729469-1.1174202-0.5193558     c-0.2902412-0.3461494-0.43536-0.8400917-0.43536-1.4815712v-2.497982h0.6188927v2.4660873     C51.0905342,60.1684723,51.1746178,60.4912834,51.3423615,60.7293091z"/>
			<path fill="#FFFFFF" d="M54.976757,60.7355347l-0.3670654,1.013298H53.948967l1.6155243-4.4543114h0.6607246l1.6155243,4.4543114     h-0.6611481l-0.3670692-1.013298H54.976757z M56.5606995,60.0411606l-0.665844-1.8352394l-0.6662712,1.8352394H56.5606995z"/>
			<path fill="#FFFFFF" d="M58.349514,61.7488327v-4.4543114h0.6188927v3.74049h1.6731453v0.7138214H58.349514z"/>
			<path fill="#FFFFFF" d="M61.3180656,57.2945213h0.6188965v4.4543114h-0.6188965V57.2945213z"/>
			<path fill="#FFFFFF" d="M64.339119,57.982933v3.7658997h-0.6188927V57.982933h-1.1118736v-0.6884117h2.8426437v0.6884117     H64.339119z"/>
			<path fill="#FFFFFF" d="M67.564621,61.7488327h-0.6291351v-1.7587509l-1.3637009-2.6955605h0.6765137l1.0017548,2.0265961     l1.0017548-2.0265961h0.6765137l-1.3637009,2.6955605V61.7488327z"/>
		</g>
	</g>
</g>
</svg>
