<?xml version="1.0" encoding="utf-8"?>
<!-- Generator: Adobe Illustrator 21.0.2, SVG Export Plug-In . SVG Version: 6.00 Build 0)  -->
<svg xmlns="http://www.w3.org/2000/svg" xmlns:xlink="http://www.w3.org/1999/xlink" version="1.1" id="Layer_1" x="0px" y="0px" viewBox="0 0 100 100" enable-background="new 0 0 100 100" xml:space="preserve" width="512" height="512">
<g>
	<circle fill="#334D5C" cx="50" cy="50" r="48"/>
	<path opacity="0.1" d="M97.9534302,51.8426285L68.6099854,22.4991226H31.3900146v23.8300781   c-0.4800415,0-0.9700317,0.1799316-1.4299927,0.4799805c-0.0100098,0-0.0100098,0-0.0200195,0.0100098   c-0.210022,0.1400146-0.4199829,0.3000488-0.6300049,0.4799805c-0.6099854,0.5600586-1.1300049,1.2800293-1.4400024,1.9499512   v0.0100098c-0.0100098,0.0200195-0.0200195,0.0500488-0.0299683,0.0800781   c-0.0300293,0.0699463-0.0599976,0.1398926-0.0900269,0.2099609c-0.0900269,0.2399902-0.1500244,0.4699707-0.1699829,0.6799316   c-0.0200195,0.1601563-0.0200195,0.3000488,0.0100098,0.4300537c0.0443726,0.2486572,0.1867065,0.4523926,0.3835449,0.6291504   l-0.0036011,0.0008545L28.039978,51.35923l1.1100464,1.1098633H22.5v5.5600586l0.6599731,0.6600342v18.8099365   l20.0085449,20.0085449C45.4008179,97.8260269,47.6797485,97.9999771,50,97.9999771   C75.8917236,97.9999771,96.9835815,77.4969254,97.9534302,51.8426285z"/>
	<g>
		<g>
			<rect x="31.3904114" y="22.4999981" fill="#FCD462" width="18.6096077" height="44.3424225"/>
			<rect x="50.0000191" y="22.4999981" fill="#F6C358" width="18.6094952" height="44.3424225"/>
			<polygon fill="#DC8744" points="68.6095886,66.842453 31.3904228,66.842453 50.0000038,58.250061    "/>
			<g>
				<circle fill="#DC8744" cx="41.4267616" cy="26.3009663" r="1.2351283"/>
				<circle fill="#DC8744" cx="58.5732498" cy="26.3009663" r="1.2351283"/>
			</g>
			<g>
				<path fill="#DC8744" d="M49.9997215,41.6136169c-5.1719742,0-9.379467-4.4314919-9.379467-9.8782444v-5.7782192h1.6124496      v5.7782192c0,4.5578556,3.4839401,8.2657909,7.7670174,8.2657909s7.7670174-3.7079353,7.7670174-8.2657909v-5.7782192h1.6124535      v5.7782192C59.3791924,37.1821251,55.1716957,41.6136169,49.9997215,41.6136169z"/>
			</g>
			<g>
				<path fill="#FFFFFF" d="M49.9997215,40.7971535c-5.1719742,0-9.379467-4.2074966-9.379467-9.3794689v-5.4605312h1.6124496      v5.4605312c0,4.2826824,3.4839401,7.7670155,7.7670174,7.7670155s7.7670174-3.484333,7.7670174-7.7670155v-5.4605312h1.6124535      v5.4605312C59.3791924,36.5896568,55.1716957,40.7971535,49.9997215,40.7971535z"/>
			</g>
		</g>
		<g>
			<path fill="#EBF0F3" d="M48.5959892,50.2326393c-0.1677055-1.573658-2.3327522-4.2225227-4.1312218-3.8747559     c-4.6998978,0.9088326-6.5979385,6.2974548-6.5979385,6.2974548s3.6764221-0.8973885,6.5979385-2.2272987     C44.4647675,50.4280396,47.9581451,48.7169304,48.5959892,50.2326393z"/>
			<path fill="#44C4A1" d="M47.4575386,49.1136703c-1.2647972-0.0298233-2.8534431,0.7193031-3.1622925,0.870945     c-1.9513474,0.8813477-4.508049,1.7717133-5.8257294,2.1529198c0.5456848-1.0515671,2.6351204-4.6239128,6.1377258-5.2961349     c0.0346107-0.0066757,0.073822-0.0085983,0.1154518-0.010643c0.0456276-0.002285,0.0929451-0.004631,0.1429291-0.0132294     c0.3832741-0.065937,1.4449959,0.2380753,1.9973068,0.4870491c-0.2066154-0.1876068-0.4236679-0.3564529-0.6467857-0.4991875     c-0.5209808-0.1608086-1.0933533-0.2819595-1.3926392-0.2305336c-0.0376358,0.0064316-0.0756378,0.0080566-0.1132736,0.0099182     c-0.0482903,0.0024071-0.0982704,0.0048714-0.1499481,0.0147934c-4.0025406,0.7681847-6.2004128,5.1788864-6.4378548,5.6793251     l-0.1144867,0.2412338l0.2589836-0.069931c1.217598-0.3286552,4.0256577-1.290451,6.140873-2.2462349     c0.2968636-0.1456871,1.8429146-0.867878,3.0441742-0.8441277c0.378643,0.0085526,0.7382736,0.1136322,0.9714394,0.1858215     c-0.0357475-0.0963135-0.075489-0.1938629-0.1205673-0.2925873     C48.0700722,49.1878548,47.7731018,49.1207504,47.4575386,49.1136703z"/>
			<path fill="#D5D6DB" d="M44.4647675,50.4280396c-2.9215164,1.3299103-6.5979385,2.2272987-6.5979385,2.2272987     l7.8271561-0.3772049c0,0,2.6572685-0.3592453,2.8922615-1.6165886c0.0242653-0.1298828,0.0261993-0.2744446,0.0097427-0.4289055     C47.9581451,48.7169304,44.4647675,50.4280396,44.4647675,50.4280396z"/>
			<path fill="#EBF0F3" d="M27.5772419,50.2326393c0.1677055-1.573658,2.3327503-4.2225227,4.1312199-3.8747559     c4.6998978,0.9088326,6.5979385,6.2974548,6.5979385,6.2974548s-3.6764221-0.8973885-6.5979385-2.2272987     C31.7084618,50.4280396,28.215086,48.7169304,27.5772419,50.2326393z"/>
			<path fill="#44C4A1" d="M28.7156925,49.1136703c1.2647934-0.0298233,2.8534431,0.7193031,3.1622906,0.870945     c1.9513474,0.8813477,4.508049,1.7717133,5.8257294,2.1529198c-0.5456848-1.0515671-2.6351204-4.6239128-6.1377239-5.2961349     c-0.0346107-0.0066757-0.073822-0.0085983-0.1154537-0.010643c-0.0456257-0.002285-0.0929451-0.004631-0.1429272-0.0132294     c-0.3832741-0.065937-1.4449959,0.2380753-1.9973068,0.4870491c0.2066135-0.1876068,0.423666-0.3564529,0.6467838-0.4991875     c0.5209827-0.1608086,1.0933533-0.2819595,1.3926392-0.2305336c0.0376377,0.0064316,0.0756378,0.0080566,0.1132755,0.0099182     c0.0482883,0.0024071,0.0982704,0.0048714,0.1499462,0.0147934c4.0025406,0.7681847,6.2004128,5.1788864,6.4378586,5.6793251     l0.1144867,0.2412338l-0.2589874-0.069931c-1.217598-0.3286552-4.0256577-1.290451-6.140871-2.2462349     c-0.2968655-0.1456871-1.8429146-0.867878-3.0441742-0.8441277c-0.3786449,0.0085526-0.7382755,0.1136322-0.9714394,0.1858215     c0.0357475-0.0963135,0.0754871-0.1938629,0.1205673-0.2925873     C28.103157,49.1878548,28.4001274,49.1207504,28.7156925,49.1136703z"/>
			<path fill="#D5D6DB" d="M31.7084618,50.4280396c2.9215164,1.3299103,6.5979385,2.2272987,6.5979385,2.2272987     l-7.8271542-0.3772049c0,0-2.6572685-0.3592453-2.8922615-1.6165886     c-0.0242653-0.1298828-0.0262012-0.2744446-0.0097427-0.4289055     C28.215086,48.7169304,31.7084618,50.4280396,31.7084618,50.4280396z"/>
			<rect x="22.5" y="52.471096" fill="#E56353" width="31.1732292" height="5.5547171"/>
			<rect x="23.1576633" y="58.0258141" fill="#D15241" width="29.8579044" height="19.474184"/>
			<polygon fill="#CE412D" points="53.0155678,59.3873444 23.1576633,59.3981552 23.1576633,58.0258141 53.0155678,58.0258141         "/>
			<rect x="35.407589" y="52.471096" fill="#EBF0F3" width="5.3580489" height="25.0289021"/>
			<rect x="36.0542564" y="52.471096" fill="#44C4A1" width="0.485813" height="25.0289021"/>
			<rect x="39.6331635" y="52.471096" fill="#44C4A1" width="0.485813" height="25.0289021"/>
			<path fill="#EBF0F3" d="M34.2193794,60.5864677c0.5145912-1.3714333,0.3507004-2.4460754,0.1227341-4.511528     c-2.068924,0.3018723-3.1567574,0.4154243-4.3625183,1.2561684c2.1233177-2.9641647,3.8436317-4.2197304,6.9208603-6.2003555     c0.6443977,0.4947891,0.9665985,0.7421761,1.6110077,1.2369537     C37.3589783,55.8261719,36.5702744,57.7970695,34.2193794,60.5864677z"/>
			<path fill="#44C4A1" d="M37.1898384,51.3529358c-0.020874-0.0160294-0.0400467-0.0307503-0.0615692-0.0472755     c-0.0105171-0.0080757-0.0227089-0.017437-0.0333862-0.0256348c-2.1379395,1.4749031-4.5129623,3.3148918-6.0222721,5.4629402     c0.2650528-0.1040001,0.5408459-0.1873627,0.8365421-0.258934c1.7662277-2.2679024,3.17379-3.2594299,5.3317833-5.0918427     C37.2204933,51.3764915,37.2056427,51.3650703,37.1898384,51.3529358z"/>
			<path fill="#44C4A1" d="M38.3170471,52.2184181c-0.0106812-0.0081978-0.0228691-0.0175591-0.0333862-0.0256348     c-0.0215225-0.0165253-0.0406723-0.0312271-0.0615997-0.0472946c-0.0157776-0.0121155-0.030674-0.0235329-0.0511169-0.0392265     c-1.2403679,2.5370407-1.8503609,4.1409912-3.6134224,6.4114113c0.0049171,0.3024101-0.0067902,0.5885391-0.0411491,0.8696709     C36.2273903,57.394104,37.4200859,54.646244,38.3170471,52.2184181z"/>
			<path fill="#EBF0F3" d="M41.7785263,60.5864677c-0.514595-1.3714333-0.3507004-2.4460754-0.1227341-4.511528     c2.068924,0.3018723,3.1567574,0.4154243,4.3625183,1.2561684c-2.1233177-2.9641647-3.8436317-4.2197304-6.9208603-6.2003555     c-0.6443977,0.4947891-0.9666023,0.7421761-1.6110077,1.2369537     C38.6389275,55.8261719,39.4276276,57.7970695,41.7785263,60.5864677z"/>
			<path fill="#44C4A1" d="M38.8080635,51.3529358c0.020874-0.0160294,0.0400505-0.0307503,0.061573-0.0472755     c0.0105171-0.0080757,0.0227051-0.017437,0.0333862-0.0256348c2.1379395,1.4749031,4.5129623,3.3148918,6.0222702,5.4629402     c-0.2650528-0.1040001-0.540844-0.1873627-0.8365402-0.258934c-1.7662277-2.2679024-3.1737938-3.2594299-5.3317833-5.0918427     C38.7774124,51.3764915,38.7922592,51.3650703,38.8080635,51.3529358z"/>
			<path fill="#44C4A1" d="M37.6808586,52.2184181c0.0106773-0.0081978,0.0228691-0.0175591,0.0333862-0.0256348     c0.0215225-0.0165253,0.0406685-0.0312271,0.0615997-0.0472946c0.0157738-0.0121155,0.030674-0.0235329,0.0511169-0.0392265     c1.2403679,2.5370407,1.8503609,4.1409912,3.6134224,6.4114113c-0.004921,0.3024101,0.0067902,0.5885391,0.0411453,0.8696709     C39.7705116,57.394104,38.5778198,54.646244,37.6808586,52.2184181z"/>
			<path fill="#D5D6DB" d="M38.0866165,50.3188286c-1.1846237,0-2.1449623,0.9542427-2.1449623,2.1313667h4.2899208     C40.231575,51.2730713,39.2712364,50.3188286,38.0866165,50.3188286z"/>
		</g>
		<g>
			<path fill="#EBF0F3" d="M77.0355835,55.511097l-13.8045998-6.9346085c-0.4157104-0.208828-0.9220314-0.0411072-1.1308746,0.37463     L51.8556099,69.3446655c-0.2088547,0.4157639-0.0411301,0.922081,0.3745804,1.1309128L66.03479,77.4101868     c0.4157104,0.2088242,0.9220352,0.0411072,1.1308823-0.3746567l10.2445068-20.3935509     C77.6190186,56.2262459,77.4512939,55.7199249,77.0355835,55.511097z"/>
			
				<rect x="65.7903748" y="48.3167572" transform="matrix(0.4488858 -0.8935891 0.8935891 0.4488858 -11.9543104 91.7105408)" fill="#27A2DB" width="5.1665115" height="14.4600201"/>
			
				<rect x="66.9377823" y="50.1771927" transform="matrix(0.4488858 -0.8935891 0.8935891 0.4488858 -14.1318331 91.9007339)" fill="#2D93BA" width="1.0025454" height="14.4600201"/>
			
				<rect x="58.1046295" y="58.5679626" transform="matrix(0.8935891 0.4488858 -0.4488858 0.8935891 33.5499077 -23.6563835)" fill="#D5D6DB" width="17.1332264" height="0.7353116"/>
			
				<rect x="58.0172806" y="57.7423058" transform="matrix(0.8935891 0.4488858 -0.4488858 0.8935891 33.7776489 -20.9374905)" fill="#FCD462" width="6.0662298" height="6.0662298"/>
			
				<rect x="65.5178757" y="61.5101585" transform="matrix(0.8935891 0.4488858 -0.4488858 0.8935891 36.2671318 -23.9034615)" fill="#44C4A1" width="6.0662298" height="6.0662298"/>
			
				<rect x="54.3865509" y="64.9699249" transform="matrix(0.8935891 0.4488858 -0.4488858 0.8935891 36.6356773 -18.5386105)" fill="#27A2DB" width="6.0662298" height="6.0662298"/>
			
				<rect x="61.8871536" y="68.7377777" transform="matrix(0.8935891 0.4488858 -0.4488858 0.8935891 39.1251602 -21.5045834)" fill="#E56353" width="6.0662298" height="6.0662298"/>
			<g>
				
					<rect x="60.4987946" y="58.5834122" transform="matrix(-0.4488858 0.8935891 -0.8935891 -0.4488858 142.7633057 33.5026741)" fill="#DC8744" width="1.1032002" height="4.3840132"/>
				
					<rect x="60.4987946" y="58.5834122" transform="matrix(-0.8935891 -0.4488858 0.4488858 -0.8935891 88.3231354 142.488327)" fill="#DC8744" width="1.1032002" height="4.3840132"/>
			</g>
			<g>
				
					<rect x="63.8117104" y="70.6876144" transform="matrix(-0.4488858 0.8935891 -0.8935891 -0.4488858 158.3795319 48.0798988)" fill="#FFFFFF" width="1.1032002" height="4.3840132"/>
				
					<rect x="64.9256287" y="68.4701614" transform="matrix(-0.4488858 0.8935891 -0.8935891 -0.4488858 158.0119629 43.8716774)" fill="#FFFFFF" width="1.1032002" height="4.3840132"/>
			</g>
			<g>
				
					<rect x="56.8680687" y="65.8110352" transform="matrix(-0.4488858 0.8935891 -0.8935891 -0.4488858 143.961319 47.2190514)" fill="#FFFFFF" width="1.1032002" height="4.3840132"/>
			</g>
			<g>
				
					<rect x="67.9993973" y="62.3512688" transform="matrix(0.3144527 0.9492731 -0.9492731 0.3144527 108.2641449 -20.8261528)" fill="#FFFFFF" width="1.1032002" height="4.3840132"/>
				
					<rect x="67.9993973" y="62.3512688" transform="matrix(-0.9492731 0.3144527 -0.3144527 -0.9492731 153.9204254 104.256424)" fill="#FFFFFF" width="1.1032002" height="4.3840132"/>
			</g>
		</g>
	</g>
</g>
</svg>
