<?xml version="1.0" encoding="utf-8"?>
<!-- Generator: Adobe Illustrator 21.0.2, SVG Export Plug-In . SVG Version: 6.00 Build 0)  -->
<svg xmlns="http://www.w3.org/2000/svg" xmlns:xlink="http://www.w3.org/1999/xlink" version="1.1" id="Layer_1" x="0px" y="0px" viewBox="0 0 100 100" enable-background="new 0 0 100 100" xml:space="preserve" width="512" height="512">
<g>
	<circle fill="#45B39C" cx="50" cy="50" r="48"/>
	<path opacity="0.1" d="M52.4699707,22.4991226h-4.9399414C38.6899414,22.4991226,31.5,29.6891861,31.5,38.5291519   c0,0.1999512,0.0700684,0.3800049,0.1799316,0.5200195l0.2900391,0.2900391v2.7900391   c-0.3000488,0.3398438-0.4899902,0.7799072-0.4899902,1.2698975c0,0.5,0.1899414,0.9500732,0.5,1.2900391l0.0400391,0.039917   l1.3100586,1.3100586v0.6500244c0,0.1500244,0.0599365,0.289917,0.1599121,0.3900146l0.0800781,0.0699463l1.119873,1.1300049   v0.0100098c0,0.0800781,0.0300293,0.1600342,0.0900879,0.2199707l0.0200195,0.0200195l8.1098633,8.1101074v0.2999268   l-0.0198975-0.0100098h-0.0100098l-0.039917,0.0100098l-0.0200195,0.0100098l-4.2800293,1.0899658l-5.2199707,1.3400879   c-2.5800781,0.6599121-4.4300537,2.9099121-4.5900879,5.5699463l-0.7199707,12.5499268L48.472168,97.9612808   C48.9807129,97.977272,49.4875488,97.9999771,50,97.9999771c22.9785156,0,42.1749268-16.1506348,46.8841553-37.7166748   L63.9000244,27.2991714C60.9899902,24.3392105,56.9399414,22.4991226,52.4699707,22.4991226z"/>
	<g>
		<path fill="#F6C358" d="M57.0916748,58.8385086l-0.0006828-1.8697281v-4.766819H42.9089394v6.6365471l-2.9109535,0.7445145    c0.6246872,4.9681778,4.8644257,12.5961075,10.0020714,12.5961075c5.1374207,0,9.3774261-7.6279831,10.0018883-12.5962219    L57.0916748,58.8385086z"/>
		<path fill="#FCD462" d="M60.2618217,39.2175217c-0.1554565-0.4600868-0.5104141-3.2385292-0.8886757-3.5198784    c-3.760437-2.796978-14.7668114-2.4754143-18.7462959,0c-0.4002953,0.2490005-0.7331963,3.0597916-0.888649,3.5198784    c-1.3624725,0.0015755-2.4665375,1.1480522-2.4665375,3.2555199c0,2.0512085,1.0459518,4.2564049,2.3580704,4.3755798    c1.3988152,5.0887489,5.5120697,9.2210846,10.3702774,9.2210846c4.8581619,0,8.9714127-4.1323357,10.3702774-9.2210846    c1.3120689-0.1191521,2.3580475-2.3243713,2.3580475-4.3755798    C62.7283363,40.3655739,61.6242905,39.2190971,60.2618217,39.2175217z"/>
		<path fill="#64798A" d="M61.6478157,37.5890694c0-6.599411-5.2149048-11.9492912-11.6478157-11.9492912    s-11.6478195,5.3498802-11.6478195,11.9492912c0,0,0.0548134,3.4119987,1.6992111,6.3719139    c0,0-0.54813-2.3021545,0.5481339-3.3436089c0,0,0.9318237,1.5895844,0.9318237,2.8502922    c0,0,0.1644402-7.1805382,3.6176758-7.8931122c0,0,5.5361404,5.0976334,9.7019463,5.2620735    c0,0-0.822197-1.3703308-1.6443977-3.5628624c0,0,3.4532356,3.3436089,5.4265137,3.6724892    c0,0,0.9318275-0.9318237,1.260704-1.5895844l0.0285034,4.1623154c0,0,0.631218-1.1703873,1.284977-3.8175392    c0.1488152-0.6025772,0.4405441-1.1630096,0.4405441-1.7836952V37.5890694z"/>
		<g>
			<g>
				<path fill="#3A556A" d="M66.5995712,41.0984001v3.8457222c1.0619049,0,1.9227982-0.8608932,1.9227982-1.922863      C68.5223694,41.9592934,67.6614761,41.0984001,66.5995712,41.0984001z"/>
				<path fill="#3A556A" d="M61.4418106,38.1484871c-0.298954,0-0.5411491,0.2422867-0.5411491,0.5411034v8.67062      c0,0.2988625,0.2421951,0.5411034,0.5411491,0.5411034h1.0016899v-9.7528267H61.4418106z"/>
				<path fill="#27A2DB" d="M66.1248627,39.1935539h-1.0016937v7.662693h1.0016937      c0.2989502,0,0.5411453-0.2422867,0.5411453-0.5411491v-6.5804443      C66.666008,39.4357948,66.4238129,39.1935539,66.1248627,39.1935539z"/>
				<path fill="#64798A" d="M65.1372223,37.8681335c-0.8036804-0.4511375-1.6654129-0.6432343-2.5805779-0.5963631      c-0.1933861,0.0098953-0.3429527,0.1605606-0.3429527,0.3320045v10.849247c0,0.1789665,0.1626968,0.3318024,0.365139,0.3318825      c0.9173851,0.0004921,1.7691307-0.1850204,2.5461922-0.5804558c0.1157303-0.0588913,0.1858063-0.1722603,0.1858063-0.2903709      v-9.7613373C65.3108292,38.0392494,65.2453766,37.9289474,65.1372223,37.8681335z"/>
				<path fill="#E56353" d="M63.2044449,37.2812309v11.4713783c0.1893768-0.0185776,0.3746529-0.049778,0.5578804-0.0861015      V37.3636169C63.578331,37.3268433,63.3933105,37.2957726,63.2044449,37.2812309z"/>
			</g>
			<g>
				<path fill="#3A556A" d="M33.4004288,41.4774284v3.8457222c-1.0619049,0-1.9227982-0.8608932-1.9227982-1.922863      C31.4776306,42.3383217,32.3385239,41.4774284,33.4004288,41.4774284z"/>
				<path fill="#3A556A" d="M38.5581894,38.5275154c0.2989502,0,0.5411453,0.2422867,0.5411453,0.5411034v8.67062      c0,0.2988625-0.2421951,0.5411034-0.5411453,0.5411034h-1.0016899v-9.7528267H38.5581894z"/>
				<path fill="#27A2DB" d="M33.8751373,39.5725822h1.0016899v7.662693h-1.0016899      c-0.298954,0-0.5411491-0.2422867-0.5411491-0.5411491v-6.5804443      C33.3339882,39.8148232,33.5761833,39.5725822,33.8751373,39.5725822z"/>
				<path fill="#64798A" d="M34.8627739,38.2471619c0.8036804-0.4511375,1.6654129-0.6432343,2.5805779-0.5963631      c0.1933861,0.0098953,0.3429565,0.1605606,0.3429565,0.3320045v10.849247c0,0.1789665-0.1626968,0.3318024-0.3651428,0.3318825      c-0.9173813,0.0004921-1.7691307-0.1850166-2.5461884-0.5804558c-0.1157341-0.0588913-0.1858063-0.1722603-0.1858063-0.2903709      v-9.7613373C34.6891708,38.4182777,34.7546196,38.3079758,34.8627739,38.2471619z"/>
				<path fill="#E56353" d="M36.7955513,37.6602592v11.4713783c-0.1893768-0.0185776-0.3746529-0.049778-0.5578766-0.0861015      V37.7426453C36.421669,37.7058716,36.6066895,37.6748009,36.7955513,37.6602592z"/>
			</g>
		</g>
		<path fill="#3A556A" d="M64.1047745,46.4047813c-0.2519722-0.0611649-0.5002975,0.0912971-0.5651169,0.3391647    c-0.0114098,0.0442772-1.2128601,4.2285156-11.0225487,4.7108994c-0.3236427-0.4068947-1.026844-0.6907654-1.8482742-0.6907654    c-1.1270409,0-2.040451,0.5314522-2.040451,1.1871262c0,0.6556129,0.9134102,1.1871262,2.040451,1.1871262    c0.8606873,0,1.5931053-0.3108063,1.8932381-0.7492523c10.5932312-0.5174141,11.8366776-5.2174149,11.8859787-5.4251137    C64.5073929,46.7147293,64.3540115,46.4664078,64.1047745,46.4047813z"/>
		<g>
			<g>
				<rect x="31.9715691" y="37.2647438" fill="#3A556A" width="0.9348648" height="6.1313982"/>
			</g>
			<g>
				<rect x="67.0935669" y="37.2647438" fill="#3A556A" width="0.9348648" height="6.1313982"/>
			</g>
		</g>
		<g>
			<path fill="#3A556A" d="M67.5612183,39.4622269c-0.5167313,0-0.9348602-0.4185905-0.9348602-0.9348679     c0-7.8066673-6.3514214-14.1576309-14.1580925-14.1576309h-4.937252c-7.8066711,0-14.157177,6.3509636-14.157177,14.1576309     c0,0.5162773-0.4181328,0.9348679-0.934864,0.9348679c-0.5167332,0-0.934866-0.4185905-0.934866-0.9348679     c0-8.8373928,7.1895123-16.0273609,16.026907-16.0273609h4.937252c8.8373947,0,16.0278206,7.1899681,16.0278206,16.0273609     C68.4960861,39.0436363,68.0779495,39.4622269,67.5612183,39.4622269z"/>
		</g>
		<path fill="#64798A" d="M42.8947983,56.9278183l-4.3518562,1.1131134l-5.2214317,1.3355141    c-2.5795021,0.6597328-4.4355431,2.9129448-4.5887413,5.5711021L28.0088062,77.5H50V62.4612427L42.8947983,56.9278183z"/>
		<path fill="#3A556A" d="M71.2672348,64.9475479c-0.15345-2.6581573-2.0092392-4.9113693-4.5884933-5.571167l-5.2216835-1.3355103    l-4.3512344-1.1130524L50,62.4612427V77.5h21.9911957L71.2672348,64.9475479z"/>
		<polygon fill="#EBF0F3" points="49.9408989,62.1600418 46.457489,66.929718 49.9999771,73.6625443 53.8837357,66.7904892   "/>
		<polygon fill="#D15241" points="51.2683411,66.565361 48.5109787,66.565361 47.8398895,71.2986679 49.9999771,73.6625443     49.9999771,73.6625443 51.9336166,71.3778839   "/>
		<polygon fill="#2F4859" points="57.105793,56.9278641 60.4146729,61.8894501 56.5710869,62.9617119 58.492878,65.5888977     49.9999771,73.6625443   "/>
		<polygon fill="#3A556A" points="42.8350868,56.9278641 39.526207,61.8894501 43.3697929,62.9617119 41.4480019,65.5888977     49.9999771,73.6625443   "/>
		<polygon fill="#E56353" points="50.467804,62.1551552 49.3056335,62.1551552 47.7115974,65.1041641 48.5109177,66.5828629     51.2626457,66.5828629 52.0619621,65.1041641   "/>
		<polygon fill="#D5D6DB" points="57.105793,56.9278641 49.9408989,62.1600418 53.0135536,66.565361   "/>
		<polygon fill="#D5D6DB" points="42.875042,56.9278641 50.0399323,62.1600418 46.9672775,66.565361   "/>
		<rect x="58.7080956" y="72.9167404" fill="#FFFFFF" width="8.8050261" height="1.9688257"/>
	</g>
</g>
</svg>
