<?xml version="1.0" encoding="utf-8"?>
<!-- Generator: Adobe Illustrator 21.0.2, SVG Export Plug-In . SVG Version: 6.00 Build 0)  -->
<svg xmlns="http://www.w3.org/2000/svg" xmlns:xlink="http://www.w3.org/1999/xlink" version="1.1" id="Layer_1" x="0px" y="0px" viewBox="0 0 100 100" enable-background="new 0 0 100 100" xml:space="preserve" width="512" height="512">
<g>
	<circle fill="#45B39C" cx="50" cy="50" r="48"/>
	<path opacity="0.1" d="M75.5200195,40.289978c-1.0700073-1.0499878-2.2200317-1.9299927-2.4800415-1.6799927l-2.7299805,2.7399902   l-0.3499756,0.3500366l-7.4000244-7.3900146l-0.1300049-0.1400146c-0.0100098-0.0100098-0.0100098-0.0200195-0.0200195-0.0299683   l-7.3299561-7.3200073l-3.6600342-3.6600342c-0.0899658-0.0999756-0.2000122-0.1900024-0.3099976-0.2600098   C50.7399902,22.6400146,50.2999878,22.5,49.8400269,22.5H24.7399902C23.5,22.5,22.5,23.5,22.5,24.7399902v50.5200195   c0,0.5599976,0.210022,1.0699463,0.5499878,1.4599609l0.2700195,0.2700195l20.6231079,20.6162109   C45.9284058,97.8563843,47.9468384,98,50,98c22.5805054,0,41.508606-15.5960693,46.6266479-36.6010132L76.0100098,40.789978   L75.5200195,40.289978z"/>
	<g>
		<path fill="#EBF0F3" d="M62.4085693,34.1427002L51.4215088,23.1558228C51.0015869,22.7359009,50.4321289,22.5,49.8382568,22.5    H24.7391376c-1.2365723,0-2.2391357,1.0025024-2.2391357,2.2391968v50.5215454    c0,1.2366943,1.0025635,2.2392578,2.2391357,2.2392578h36.0859375c1.2368164,0,2.2392578-1.0025635,2.2392578-2.2392578    v-39.534668C63.0643311,35.1322021,62.8284912,34.5626221,62.4085693,34.1427002z"/>
		<path fill="#E1E6E9" d="M53.0050049,34.798584h9.8513184c-0.1098633-0.2405396-0.2567139-0.4645386-0.4472656-0.6552124    l-7.3251953-7.3252563l-3.6623535-3.6622925c-0.1906738-0.1907349-0.4150391-0.3377686-0.6557617-0.4476929v9.8511963    C50.7657471,33.7960205,51.7681885,34.798584,53.0050049,34.798584z"/>
		<g>
			<path fill="#64798A" d="M33.7890015,46.7001953h-7.0810528v-7.0810547h7.0810528V46.7001953z M27.7079487,45.7001953h5.0810528     v-5.0810547h-5.0810528V45.7001953z"/>
		</g>
		<g>
			<g>
				<rect x="37.0204468" y="40.5869141" fill="#64798A" width="21.8359375" height="1"/>
			</g>
			<g>
				<rect x="37.0204468" y="44.7324219" fill="#64798A" width="21.8359375" height="1"/>
			</g>
		</g>
		<g>
			<path fill="#64798A" d="M33.7890015,58.2631264h-7.0810528v-7.0810547h7.0810528V58.2631264z M27.7079487,57.2631264h5.0810528     v-5.0810547h-5.0810528V57.2631264z"/>
		</g>
		<g>
			<g>
				<rect x="37.0204468" y="52.1498451" fill="#64798A" width="21.8359375" height="1"/>
			</g>
			<g>
				<rect x="37.0204468" y="56.2953529" fill="#64798A" width="21.8359375" height="1"/>
			</g>
		</g>
		<g>
			<path fill="#64798A" d="M33.7890015,69.8260574h-7.0810528v-7.0810547h7.0810528V69.8260574z M27.7079487,68.8260574h5.0810528     v-5.0810547h-5.0810528V68.8260574z"/>
		</g>
		<g>
			<g>
				<rect x="37.0204468" y="63.7127762" fill="#64798A" width="21.8359375" height="1"/>
			</g>
			<g>
				<rect x="37.0204468" y="67.858284" fill="#64798A" width="21.8359375" height="1"/>
			</g>
		</g>
		<g>
			<path fill="#44C4A1" d="M30.6788349,45.2148438l-1.7373047-2.0625l0.765625-0.6445313l0.9003906,1.0693359     c0.7871094-1.0341797,2.6503887-3.2314453,4.4267559-3.4853516l0.140625,0.9902344     c-1.5351563,0.2197266-3.4990215,2.6630859-4.1249981,3.5869141L30.6788349,45.2148438z"/>
		</g>
		<polygon fill="#E56353" points="33.4164429,63.8245926 32.7094116,63.1175613 30.248476,65.5784988 27.7875385,63.1175613     27.0805073,63.8245926 29.5414448,66.2855301 27.0805073,68.7464676 27.7875385,69.4534988 30.248476,66.9925613     32.7094116,69.4534988 33.4164429,68.7464676 30.9555073,66.2855301   "/>
		<g>
			<path fill="#64798A" d="M73.0412292,38.6128769l-3.7921219,3.7926559l4.4132996,4.4132957l3.7923813-3.7923851     C77.9917908,42.4894409,73.5782318,38.0758743,73.0412292,38.6128769z"/>
			
				<rect x="68.567009" y="43.2139168" transform="matrix(0.7071068 0.7071068 -0.7071068 0.7071068 52.3782654 -37.6922913)" fill="#FCD462" width="6.2414927" height="2.3321903"/>
			
				<rect x="59.2895775" y="39.2052879" transform="matrix(0.7071068 0.7071068 -0.7071068 0.7071068 55.0023727 -27.1961346)" fill="#E56353" width="2.0804977" height="27.1807709"/>
			
				<rect x="60.7607117" y="40.6764221" transform="matrix(0.7071068 0.7071068 -0.7071068 0.7071068 56.4735069 -27.8054981)" fill="#D15241" width="2.0804977" height="27.1807709"/>
			
				<rect x="62.2318459" y="42.1475563" transform="matrix(0.7071068 0.7071068 -0.7071068 0.7071068 57.9446411 -28.4148617)" fill="#CE412D" width="2.0804977" height="27.1807709"/>
			<path fill="#FCD462" d="M50.5391998,65.5284729c0.4334106,0.4334106,0.6388474,1.0051651,0.6251602,1.5727615     l3.2334862-1.0178452l-4.4132957-4.4132996l-1.017849,3.23349     C49.5342979,64.8898926,50.1060562,65.0953293,50.5391998,65.5284729z"/>
			<path fill="#64798A" d="M49.2167549,67.7145233l1.9476051-0.6132889     c0.0136871-0.5675964-0.1917496-1.1393509-0.6251602-1.5727615c-0.4331436-0.4331436-1.0049019-0.6385803-1.5724983-0.6248932     l-0.6132851,1.9476089C48.1862259,67.3822861,48.6856537,67.8817139,49.2167549,67.7145233z"/>
		</g>
	</g>
</g>
</svg>
