<?xml version="1.0" encoding="utf-8"?>
<!-- Generator: Adobe Illustrator 21.0.2, SVG Export Plug-In . SVG Version: 6.00 Build 0)  -->
<svg xmlns="http://www.w3.org/2000/svg" xmlns:xlink="http://www.w3.org/1999/xlink" version="1.1" id="Layer_1" x="0px" y="0px" viewBox="0 0 100 100" enable-background="new 0 0 100 100" xml:space="preserve" width="512" height="512">
<g>
	<circle fill="#E05B49" cx="50" cy="50" r="48"/>
	<path opacity="0.1" d="M97.9498291,51.985939L77.039978,31.069191c-0.0700073-0.0900879-0.1499634-0.1600342-0.2299805-0.2299805   c-0.3499756-0.3100586-0.8099976-0.5-1.3099976-0.5h-0.8300171l-7.8399658-7.8400879H33.1699829v7.8400879H24.5   c-1.0999756,0-2,0.8999023-2,2v34.6599121c0,0.5600586,0.2299805,1.0700684,0.6099854,1.4300537l29.4909668,29.4984131   C77.2435303,96.6113052,96.9424438,76.7093277,97.9498291,51.985939z"/>
	<g>
		<g>
			<rect x="42.5532379" y="68.3505707" fill="#E1E6E9" width="14.893527" height="5.7805567"/>
			<path fill="#3A556A" d="M77.5,32.3415947c0-1.1046143-0.8953857-2-2-2h-51c-1.1044922,0-2,0.8953857-2,2v30.267334h55V32.3415947     z"/>
			<rect x="25.500246" y="33.3417778" fill="#64798A" width="49" height="29.2671509"/>
			<path fill="#EBF0F3" d="M22.5000019,62.6089287v4.3894081c0,1.1045532,0.8955078,2,2,2h51c1.1046143,0,2-0.8954468,2-2     v-4.3894081H22.5000019z"/>
			<circle fill="#D5D6DB" cx="50" cy="65.8036346" r="2.1389639"/>
			<rect x="38.0705795" y="75.9068909" fill="#E1E6E9" width="23.8588428" height="1.59311"/>
			<polygon fill="#D5D6DB" points="57.4467773,73.5951996 42.5532227,73.5951996 38.0705566,75.9069061 61.9294434,75.9069061         "/>
		</g>
		<g>
			<rect x="33.1683655" y="22.5001736" fill="#F6C358" width="33.6600342" height="40.1099854"/>
			<rect x="33.1671333" y="22.4999981" fill="#FCD462" width="16.8328838" height="40.1088982"/>
			<circle fill="#DC8744" cx="42.2452774" cy="25.9380741" r="1.1172063"/>
			<circle fill="#DC8744" cx="57.7547302" cy="25.9380741" r="1.1172063"/>
			<path fill="#DC8744" d="M49.9997482,39.7887726c-4.6781883,0-8.4839783-4.0084-8.4839783-8.935133v-5.226553h1.4585075v5.226553     c0,4.1227016,3.1513138,7.4766254,7.0254707,7.4766254s7.0254745-3.3539238,7.0254745-7.4766254v-5.226553h1.4585037v5.226553     C58.4837265,35.7803726,54.6779366,39.7887726,49.9997482,39.7887726z"/>
			<path fill="#FFFFFF" d="M49.9997482,39.0502625c-4.6781883,0-8.4839783-3.8057938-8.4839783-8.4839802v-4.9391956h1.4585075     v4.9391956c0,3.8738003,3.1513138,7.0254726,7.0254707,7.0254726s7.0254745-3.1516724,7.0254745-7.0254726v-4.9391956h1.4585037     v4.9391956C58.4837265,35.2444687,54.6779366,39.0502625,49.9997482,39.0502625z"/>
		</g>
		<g>
			<polygon fill="#64798A" points="62.8117485,53.7061119 53.6456947,48.6538773 56.1637344,58.8126717 57.4321938,55.2448654      60.0207291,58.614769 61.6260529,57.3816643 59.0375214,54.0117645    "/>
			<g>
				<rect x="53.3623161" y="44.3156967" fill="#64798A" width="0.5667568" height="1.6294258"/>
				<rect x="53.3623161" y="51.0105095" fill="#64798A" width="0.5667568" height="1.6294258"/>
				
					<rect x="56.7097206" y="47.663105" transform="matrix(-1.836970e-16 1 -1 -1.836970e-16 105.4709167 -8.5152836)" fill="#64798A" width="0.5667568" height="1.6294258"/>
				
					<rect x="50.0149078" y="47.663105" transform="matrix(-1.836970e-16 1 -1 -1.836970e-16 98.7761002 -1.8204691)" fill="#64798A" width="0.5667568" height="1.6294258"/>
				
					<rect x="55.72929" y="45.2961311" transform="matrix(0.7071068 0.7071068 -0.7071068 0.7071068 49.0110207 -26.1013832)" fill="#64798A" width="0.5667568" height="1.6294258"/>
				
					<rect x="50.9953384" y="50.0300789" transform="matrix(0.7071068 0.7071068 -0.7071068 0.7071068 50.9718857 -21.3674355)" fill="#64798A" width="0.5667568" height="1.6294258"/>
				
					<rect x="55.72929" y="50.0300789" transform="matrix(-0.7071068 0.7071068 -0.7071068 -0.7071068 131.5722961 47.1905518)" fill="#64798A" width="0.5667568" height="1.6294258"/>
				
					<rect x="50.9953384" y="45.2961311" transform="matrix(-0.7071068 0.7071068 -0.7071068 -0.7071068 120.1435394 42.4566002)" fill="#64798A" width="0.5667568" height="1.6294258"/>
			</g>
		</g>
	</g>
</g>
</svg>
