<?xml version="1.0" encoding="utf-8"?>
<!-- Generator: Adobe Illustrator 21.0.2, SVG Export Plug-In . SVG Version: 6.00 Build 0)  -->
<svg xmlns="http://www.w3.org/2000/svg" xmlns:xlink="http://www.w3.org/1999/xlink" version="1.1" id="Layer_1" x="0px" y="0px" viewBox="0 0 100 100" enable-background="new 0 0 100 100" xml:space="preserve" width="512" height="512">
<g>
	<circle fill="#E05B49" cx="50" cy="50" r="48"/>
	<path opacity="0.1" d="M97.9399414,52.3790054L77.5,31.9391861v-0.0499268l-0.0400391,0.0098877L50,22.4991226   L22.5400391,31.899147L22.5,31.8892593v36.1098633l29.9390869,29.939209   C77.0273438,96.7076187,96.7391357,76.9749527,97.9399414,52.3790054z"/>
	<g>
		<polygon fill="#FCD462" points="49.9997101,41.3332253 22.5000019,31.8863659 22.5000019,67.9960175 50,77.5   "/>
		<polygon fill="#E5B053" points="49.9997101,41.3332253 77.5,31.8863659 77.5,67.9960175 50,77.5   "/>
		<polygon fill="#F6C358" points="49.9997101,22.4999981 22.5000019,31.9166107 49.9997101,41.3332253 77.5,31.9166107   "/>
		<polygon fill="#CE7A41" points="60.3319702,26.0381317 32.8323364,35.4546967 39.6687622,37.7950897 67.1676636,28.3787689   "/>
		<polygon fill="#DC8744" points="39.6682625,37.7984085 39.6682625,46.5584183 35.5282478,44.7384109 32.8281746,43.5484085     32.8281746,35.4584427 35.5282478,36.3784256   "/>
	</g>
</g>
</svg>
