<?xml version="1.0" encoding="utf-8"?>
<!-- Generator: Adobe Illustrator 21.0.2, SVG Export Plug-In . SVG Version: 6.00 Build 0)  -->
<svg xmlns="http://www.w3.org/2000/svg" xmlns:xlink="http://www.w3.org/1999/xlink" version="1.1" id="Layer_1" x="0px" y="0px" viewBox="0 0 100 100" enable-background="new 0 0 100 100" xml:space="preserve" width="512" height="512">
<g>
	<circle fill="#EFC84A" cx="50" cy="50" r="48"/>
	<path opacity="0.1" d="M96.7285156,60.9576187L63.25,27.4791031l-0.8200073,0.0900879l-2.5299683-2.5300293l-1.5800171,0.5200195   L56.1199951,23.35923l-2.0200195,1.1699219l-2.0299683-2.0300293L50,24.3692398l-2.0700073-1.8701172l-1.6300049,2.2600098   L43.8800049,23.35923L42.75,25.9091568l-2.6500244-0.8699951l-0.5699463,2.7299805L36.75,27.4791031l0.0100098,2.7900391   l-2.7700195,0.2800293l0.5800171,2.7299805l-2.6500244,0.8601074l1.1400146,2.539917l-2.4199829,1.3900146l1.6400146,2.2600098   l-2.0800171,1.8599854l1.9899902,1.9899902l-1.5499878,2.1199951l2.0999756,2.0999756l-0.8200073,1.8399658l2.3400269,2.3400879   l-0.2700195,1.2399902L36.75,56.5792007v0.3199463l5.8400269,5.8399658l-0.0200195,14.75l19.0795898,19.0795898   C79.0270996,92.2353287,92.645752,78.4329605,96.7285156,60.9576187z"/>
	<g>
		<polygon fill="#E56353" points="42.5927582,49.3095627 42.5747375,77.4938354 49.9933624,73.7932358 50,73.7965546 50,49.312645       "/>
		<polygon fill="#D15241" points="57.4252625,49.3157234 50,49.312645 50,73.7965546 57.4072456,77.5   "/>
		<polygon fill="#44C4A1" points="50,24.3711166 52.0692062,22.4999981 53.7041626,24.7604389 56.1171761,23.3604221     57.2464371,25.9113941 59.8978004,25.043663 60.4720039,27.7736759 63.245842,27.4761581 63.2398987,30.2658978     66.0149765,30.5515938 65.4291458,33.2791367 68.0841751,34.1355591 66.9440613,36.681694 69.3630142,38.0714188     67.7184372,40.3248711 69.7956009,42.1871529 67.7184372,44.0494347 69.3630142,46.3028908 66.9440613,47.6926117     68.0841751,50.2387466 65.4291458,51.0951729 66.0149765,53.8227119 63.2398987,54.1084099 63.245842,56.8981476     60.4720039,56.6006317 59.8978004,59.3306427 57.2464371,58.4629135 56.1171761,61.0138855 53.7041626,59.6138687     52.0692062,61.8743095 50,60.0031891 47.9307976,61.8743095 46.2958374,59.6138687 43.8828239,61.0138855 42.7535667,58.4629135     40.1022034,59.3306427 39.5279961,56.6006317 36.7541618,56.8981476 36.7601051,54.1084099 33.9850273,53.8227119     34.5708618,51.0951729 31.915823,50.2387466 33.0559425,47.6926117 30.6369858,46.3028908 32.2815628,44.0494347     30.2044048,42.1871529 32.2815628,40.3248711 30.6369858,38.0714188 33.0559425,36.681694 31.915823,34.1355591     34.5708618,33.2791367 33.9850273,30.5515938 36.7601051,30.2658978 36.7541618,27.4761581 39.5279961,27.7736759     40.1022034,25.043663 42.7535667,25.9113941 43.8828239,23.3604221 46.2958374,24.7604389 47.9307976,22.4999981   "/>
		<circle fill="#FFFFFF" cx="50" cy="42.1871529" r="14.5843534"/>
		<circle fill="#3EA69B" cx="50" cy="42.1871529" r="13.2429104"/>
		<g>
			<path fill="#FFFFFF" d="M43.714962,37.4643211h1.0741119v9.4456635h-1.165226l-3.6045761-6.8916664v6.8916664h-1.0741119     v-9.4456635h1.0741119l3.6956902,7.0538712V37.4643211z"/>
			<path fill="#FFFFFF" d="M51.0241127,37.4643211v1.499958h-3.3949356v2.5001106h3.048996v1.4185829h-3.048996v2.5270538h3.50457     v1.499958h-4.5786858v-9.4456635H51.0241127z"/>
			<path fill="#FFFFFF" d="M54.4923859,44.2614174l1.4200516-6.7970963h0.9644775l1.4200516,6.7970963l1.6022797-6.7970963     h1.1555977l-2.2208214,9.4456635h-1.0652237l-1.3378258-6.4726906h-0.0725937l-1.3385696,6.4726906h-1.0644798     l-2.2215614-9.4456635h1.1563377L54.4923859,44.2614174z"/>
		</g>
	</g>
</g>
</svg>
