<?xml version="1.0" encoding="utf-8"?>
<!-- Generator: Adobe Illustrator 21.0.2, SVG Export Plug-In . SVG Version: 6.00 Build 0)  -->
<svg xmlns="http://www.w3.org/2000/svg" xmlns:xlink="http://www.w3.org/1999/xlink" version="1.1" id="Layer_1" x="0px" y="0px" viewBox="0 0 100 100" enable-background="new 0 0 100 100" xml:space="preserve" width="512" height="512">
<g>
	<circle fill="#EA8953" cx="50" cy="50" r="48"/>
	<path opacity="0.1" d="M97.039917,59.5889664L70.9400024,33.4891129C65.9099731,27.5391617,58.3900146,23.7591324,50,23.7591324   c-15.1400146,0-27.4500122,12.3200684-27.4500122,27.4500732c0,0.5999756,0.3200073,1.1099854,0.7999878,1.3800049v4.4299316   C22.8200073,57.7291031,22.5,58.60923,22.5,59.5591812c0,1.2399902,0.5300293,2.3499756,1.3699951,3.1300049l2.7700195,2.7700195   v1.6999512c0,0.2000732,0.1199951,0.3900146,0.3200073,0.4899902l29.8599854,29.8599854   C76.9382324,94.6462173,93.0396118,79.3179703,97.039917,59.5889664z"/>
	<g>
		<g>
			<rect x="23.3461151" y="49.0502815" fill="#E1E6E9" width="1.6014199" height="10.5030622"/>
			<path fill="#27A2DB" d="M26.8023071,55.2579956v8.6048927c-2.3760357,0-4.3023052-1.9262695-4.3023052-4.3024445     S24.4262714,55.2579956,26.8023071,55.2579956z"/>
			<rect x="75.0524673" y="49.0502815" fill="#E1E6E9" width="1.6014199" height="10.5030622"/>
			<path fill="#27A2DB" d="M73.1575089,54.5685387v8.6852608c2.3982315,0,4.3424911-1.9442596,4.3424911-4.3426285     C77.5,56.5127983,75.5557404,54.5685387,73.1575089,54.5685387z"/>
			<path fill="#3A556A" d="M66.7302322,51.9880409c-0.5121078,0-0.9269867,0.4150352-0.9269867,0.9269066v13.2909927     c0,0.5119476,0.4148788,0.9269104,0.9269867,0.9269104h1.715889V51.9880409H66.7302322z"/>
			<path fill="#FCD462" d="M73.060463,51.5077972c-1.3767014-0.7728004-2.8528519-1.1018562-4.4205246-1.0215721     c-0.3312683,0.0169525-0.5874786,0.2750435-0.5874786,0.5687218v17.0229797c0,0.3065643,0.2786942,0.5683746,0.6254883,0.568512     c1.5714722,0.0008392,3.0305176-0.3169403,4.3616104-0.9943161c0.1982574-0.1008835,0.3182831-0.2950821,0.3182831-0.497406     V51.9953232C73.3578415,51.8009148,73.2457275,51.6119728,73.060463,51.5077972z"/>
			<path fill="#E56353" d="M69.7496185,50.5024338v18.0886841c0.3244019-0.0318298,0.641777-0.0852737,0.9556427-0.1474991     V50.6435623C70.3900833,50.5805702,70.073143,50.5273438,69.7496185,50.5024338z"/>
			<path fill="#3A556A" d="M33.2701035,51.9880409c0.5121078,0,0.9269867,0.4150352,0.9269867,0.9269066v13.2909927     c0,0.5119476-0.4148788,0.9269104-0.9269867,0.9269104h-1.715889V51.9880409H33.2701035z"/>
			<path fill="#FCD462" d="M26.9398746,51.5077972c1.3767014-0.7728004,2.8528461-1.1018562,4.4205189-1.0215721     c0.3312702,0.0169525,0.5874805,0.2750435,0.5874805,0.5687218v17.0229797c0,0.3065643-0.2786961,0.5683746-0.6254845,0.568512     c-1.5714722,0.0008392-3.0305157-0.3169403-4.3616123-0.9943161c-0.1982555-0.1008835-0.318285-0.2950821-0.318285-0.497406     V51.9953232C26.6424923,51.8009148,26.7546043,51.6119728,26.9398746,51.5077972z"/>
			<path fill="#E56353" d="M30.2507153,50.5024338v18.0886841c-0.3243999-0.0318298-0.6417789-0.0852737-0.9556446-0.1474991     V50.6435623C29.6102543,50.5805702,29.9271927,50.5273438,30.2507153,50.5024338z"/>
			<path fill="#3A556A" d="M69.9326859,64.7071304c-0.431633-0.1047821-0.8570099,0.1563873-0.9680481,0.580986     c-0.0195465,0.0758438-2.0776215,7.2434311-18.8815842,8.0697479c-0.5543976-0.6969986-1.7589798-1.1832733-3.1660881-1.1832733     c-1.9306183,0-3.4952888,0.9103775-3.4952888,2.0335388c0,1.1230698,1.5646706,2.0335464,3.4952888,2.0335464     c1.4743538,0,2.728981-0.5324097,3.2431107-1.2834625c18.1461678-0.8863373,20.2761803-8.9374161,20.36063-9.2932053     C70.6223602,65.2380676,70.3596268,64.8126907,69.9326859,64.7071304z"/>
			<path fill="#1C75A1" d="M49.999382,23.7583237c-15.1383934,0-27.4539394,12.3164024-27.4539394,27.4547997     c0,0.8843918,0.7160549,1.6014023,1.6014023,1.6014023c0.8849659,0,1.6014023-0.7170105,1.6014023-1.6014023     c0-13.3728523,10.8784771-24.2519951,24.2511349-24.2519951S74.2520447,37.840271,74.2520447,51.2131233     c0,0.8843918,0.7164383,1.6014023,1.6014023,1.6014023c0.8853455,0,1.6014023-0.7170105,1.6014023-1.6014023     C77.4548492,36.0747261,65.1377792,23.7583237,49.999382,23.7583237z"/>
		</g>
		<g>
			<path fill="#E56353" d="M61.9180908,40.5487366H38.0819092c-0.6523285,0-1.1810722,0.5287437-1.1810722,1.1810722v14.7455063     c0,0.6522598,0.5287437,1.1810722,1.1810722,1.1810722h2.6126747v6.5137939l6.5137939-6.5137939h14.709713     c0.6523323,0,1.1810722-0.5288124,1.1810722-1.1810722V41.7298088     C63.0991631,41.0774803,62.5704231,40.5487366,61.9180908,40.5487366z"/>
			<g>
				<rect x="39.2629814" y="43.6982651" fill="#D15241" width="21.4740391" height="1.717923"/>
				<rect x="39.2629814" y="48.2563934" fill="#D15241" width="21.4740391" height="1.717923"/>
				<rect x="39.2629814" y="52.8145256" fill="#D15241" width="21.4740391" height="1.717923"/>
			</g>
		</g>
	</g>
</g>
</svg>
