<?xml version="1.0" encoding="utf-8"?>
<!-- Generator: Adobe Illustrator 21.0.2, SVG Export Plug-In . SVG Version: 6.00 Build 0)  -->
<svg xmlns="http://www.w3.org/2000/svg" xmlns:xlink="http://www.w3.org/1999/xlink" version="1.1" id="Layer_1" x="0px" y="0px" viewBox="0 0 100 100" enable-background="new 0 0 100 100" xml:space="preserve" width="512" height="512">
<g>
	<circle fill="#E05B49" cx="50" cy="50" r="48"/>
	<path opacity="0.1" d="M97.7355957,55.0385513L74.8499756,32.1591568c-1.9099731-2.1700439-4.6999512-3.539917-7.8199463-3.539917   h-3.9500122l-6.9299927-6.1201172H43.9699707l-6.9299927,6.1201172h-4.1900024c-5.75,0-10.4099731,4.6599121-10.4099731,10.4099121   v8.9000244l10.4199829,10.4200439v19.1499023l20.3798218,20.3798828   C76.5632935,96.322731,95.3275146,78.1188736,97.7355957,55.0385513z"/>
	<g>
		<rect x="32.8552322" y="28.6223679" fill="#27A2DB" width="34.1734314" height="48.8776321"/>
		<g>
			<path fill="#2D93BA" d="M22.4419479,39.0323563v8.8931885H32.855278V28.6223812H32.85186     C27.1025925,28.6223812,22.4419479,33.2830887,22.4419479,39.0323563z"/>
		</g>
		<g>
			<path fill="#2D93BA" d="M77.4419479,39.0323563v8.8931885H67.0286179V28.6223812h0.003418     C72.7813034,28.6223812,77.4419479,33.2830887,77.4419479,39.0323563z"/>
		</g>
		<rect x="22.558054" y="43.5295639" fill="#FFFFFF" width="10.4133301" height="2.0901601"/>
		<rect x="67.144722" y="43.5295639" fill="#FFFFFF" width="10.4133301" height="2.0901601"/>
		<rect x="32.8552322" y="72.9377441" fill="#FFFFFF" width="34.1734314" height="2.0901601"/>
		<rect x="32.8552322" y="71.5547638" fill="#FFFFFF" width="34.1734314" height="0.6379089"/>
		<g>
			<polygon fill="#64798A" points="43.9680519,36.5200882 37.03936,36.5200882 37.03936,28.6223679 43.9680519,22.4999981    "/>
			<polygon fill="#64798A" points="56.1479645,36.5200882 63.0766563,36.5200882 63.0766563,28.6223679 56.1479645,22.4999981         "/>
		</g>
		<rect x="43.9680519" y="22.4999981" fill="#3A556A" width="12.1799126" height="6.1223826"/>
		<polygon fill="#2D93BA" points="43.9680901,28.6223812 43.9680901,36.5200882 47.6353264,36.5200882 50.0579338,38.5200882     52.4805412,36.5200882 56.1480217,36.5200882 56.1480217,28.6223812   "/>
		<circle fill="#2D93BA" cx="48.0712662" cy="40.7073135" r="0.9774359"/>
		<circle fill="#2D93BA" cx="48.0712662" cy="45.3012619" r="0.9774359"/>
	</g>
</g>
</svg>
