<?xml version="1.0" encoding="utf-8"?>
<!-- Generator: Adobe Illustrator 21.0.2, SVG Export Plug-In . SVG Version: 6.00 Build 0)  -->
<svg xmlns="http://www.w3.org/2000/svg" xmlns:xlink="http://www.w3.org/1999/xlink" version="1.1" id="Layer_1" x="0px" y="0px" viewBox="0 0 100 100" enable-background="new 0 0 100 100" xml:space="preserve" width="512" height="512">
<g>
	<circle fill="#334D5C" cx="50" cy="50" r="48"/>
	<path opacity="0.1" d="M96.0650635,63.4883804L77.5,44.9291763v-3.1700439c0-0.8999023-0.7299805-1.6298828-1.6199951-1.6298828   h-3.1799927L55.9099731,23.3392105c-0.9599609-0.9899902-2.5099487-1.1201172-3.6299438-0.2600098   c-1.1900024,0.9299316-1.4000244,2.6499023-0.4700317,3.8399658c0.039978,0.0499268,0.0700073,0.0899658,0.1099854,0.1300049   l3.9899902,3.9899902l0.75,0.9799805L48.210022,23.569191l-0.4900513-0.4899902   c-1.1899414-0.9300537-2.8999634-0.7199707-3.8299561,0.4799805c-0.4500122,0.5800781-0.6300049,1.2900391-0.5499878,1.9799805   L32.1799927,40.1292496h-8.0599976C23.2299805,40.1292496,22.5,40.85923,22.5,41.7591324v4.880127   c0,0.8999023,0.7299805,1.6298828,1.6199951,1.6298828h1.2800293v27.1999512c0,0.5100098,0.1799927,0.9801025,0.5099487,1.3400879   l0.2200317,0.2299805l0.0299683,0.0200195l20.8379517,20.8378906C47.9916992,97.9584732,48.9907837,97.9999771,50,97.9999771   C71.8247681,97.9999771,90.2352295,83.4290543,96.0650635,63.4883804z"/>
	<g>
		<path fill="#EBF0F3" d="M25.3958759,47.705658v27.7654724c0,1.1205215,0.9046631,2.0288696,2.0205078,2.0288696h45.1672363    c1.1158447,0,2.0205078-0.9083481,2.0205078-2.0288696V47.705658H25.3958759z"/>
		<rect x="25.3958759" y="47.705658" fill="#E1E6E9" width="49.208252" height="3.3104961"/>
		<path fill="#E56353" d="M75.8780518,40.127594H24.1219501c-0.895874,0-1.6219482,0.7292175-1.6219482,1.6286201v4.8857994    c0,0.8994637,0.7260742,1.6286201,1.6219482,1.6286201h51.7561035c0.895752,0,1.6219482-0.7291565,1.6219482-1.6286201v-4.8857994    C77.5,40.8568115,76.7738037,40.127594,75.8780518,40.127594z"/>
		<g>
			<path fill="#E1E6E9" d="M32.5894279,54.2959824c-0.4642334,0-0.8405781,0.3778763-0.8405781,0.8440628v18.2438507     c0,0.4661942,0.3763447,0.8441315,0.8405781,0.8441315c0.4643555,0,0.8408203-0.3779373,0.8408203-0.8441315V55.1400452     C33.4302483,54.6738586,33.0537834,54.2959824,32.5894279,54.2959824z"/>
			<path fill="#E1E6E9" d="M38.39291,54.2959824c-0.4642334,0-0.8405762,0.3778763-0.8405762,0.8440628v18.2438507     c0,0.4661942,0.3763428,0.8441315,0.8405762,0.8441315c0.4643555,0,0.8408203-0.3779373,0.8408203-0.8441315V55.1400452     C39.2337303,54.6738586,38.8572655,54.2959824,38.39291,54.2959824z"/>
			<path fill="#E1E6E9" d="M44.1963959,54.2959824c-0.4642334,0-0.8405762,0.3778763-0.8405762,0.8440628v18.2438507     c0,0.4661942,0.3763428,0.8441315,0.8405762,0.8441315c0.4643555,0,0.8408203-0.3779373,0.8408203-0.8441315V55.1400452     C45.0372162,54.6738586,44.6607513,54.2959824,44.1963959,54.2959824z"/>
			<path fill="#E1E6E9" d="M49.9998779,54.2959824c-0.4642334,0-0.8405762,0.3778763-0.8405762,0.8440628v18.2438507     c0,0.4661942,0.3763428,0.8441315,0.8405762,0.8441315c0.4643555,0,0.8408203-0.3779373,0.8408203-0.8441315V55.1400452     C50.8406982,54.6738586,50.4642334,54.2959824,49.9998779,54.2959824z"/>
			<path fill="#E1E6E9" d="M55.8033638,54.2959824c-0.4642334,0-0.8405762,0.3778763-0.8405762,0.8440628v18.2438507     c0,0.4661942,0.3763428,0.8441315,0.8405762,0.8441315c0.4643555,0,0.8408203-0.3779373,0.8408203-0.8441315V55.1400452     C56.6441841,54.6738586,56.2677193,54.2959824,55.8033638,54.2959824z"/>
			<path fill="#E1E6E9" d="M61.6068459,54.2959824c-0.4642334,0-0.8405762,0.3778763-0.8405762,0.8440628v18.2438507     c0,0.4661942,0.3763428,0.8441315,0.8405762,0.8441315c0.4643555,0,0.8408203-0.3779373,0.8408203-0.8441315V55.1400452     C62.4476662,54.6738586,62.0712013,54.2959824,61.6068459,54.2959824z"/>
			<path fill="#E1E6E9" d="M67.4103317,54.2959824c-0.4642334,0-0.8405762,0.3778763-0.8405762,0.8440628v18.2438507     c0,0.4661942,0.3763428,0.8441315,0.8405762,0.8441315c0.4643555,0,0.8408203-0.3779373,0.8408203-0.8441315V55.1400452     C68.251152,54.6738586,67.8746872,54.2959824,67.4103317,54.2959824z"/>
		</g>
		<g>
			<g>
				<path fill="#D15241" d="M66.810257,46.5471001c-0.9251251-1.1925774-0.7122345-2.9123726,0.475502-3.8412704      c1.1877365-0.928894,2.9005508-0.7151375,3.825676,0.4774399s0.7122345,2.9123726-0.475502,3.8412666      S67.7353821,47.7396774,66.810257,46.5471001z"/>
				<path fill="#64798A" d="M51.8052368,26.9191227c-0.9251251-1.1925774-0.7122383-2.9123707,0.4754982-3.8412666      c1.1877365-0.928894,2.9005508-0.7151394,3.825676,0.477438s0.7122345,2.9123707-0.475502,3.8412666      S52.7303619,28.1117001,51.8052368,26.9191227z"/>
				<path fill="#D5D6DB" d="M70.1679764,46.4212875c0.8559952-0.6694527,1.0094376-1.908989,0.3426971-2.7684784      L55.5362587,24.064291c-0.6667366-0.8594894-1.9011765-1.0134697-2.7571754-0.3440151      c-0.855999,0.6694527-1.0095024,1.9089069-0.3427696,2.7683945l14.9744148,19.5885201      C68.0774689,46.936676,69.3119736,47.0907402,70.1679764,46.4212875z"/>
			</g>
			<g>
				<path fill="#D15241" d="M33.189743,46.5471001c0.9251251-1.1925774,0.7122383-2.9123726-0.4754982-3.8412704      c-1.1877384-0.928894-2.9005508-0.7151375-3.825676,0.4774399s-0.7122364,2.9123726,0.4755001,3.8412666      S32.2646179,47.7396774,33.189743,46.5471001z"/>
				<path fill="#64798A" d="M48.194767,26.9191227c0.9251251-1.1925774,0.7122383-2.9123707-0.4754982-3.8412666      c-1.1877365-0.928894-2.9005508-0.7151394-3.825676,0.477438s-0.7122383,2.9123707,0.4754982,3.8412666      S47.2696419,28.1117001,48.194767,26.9191227z"/>
				<path fill="#D5D6DB" d="M29.8320293,46.4212875c-0.855999-0.6694527-1.0094376-1.908989-0.3427029-2.7684784      L44.4637451,24.064291c0.6667366-0.8594894,1.9011765-1.0134697,2.7571754-0.3440151      c0.855999,0.6694527,1.0095024,1.9089069,0.3427658,2.7683945L32.5892715,46.0771904      C31.9225349,46.936676,30.6880283,47.0907402,29.8320293,46.4212875z"/>
			</g>
		</g>
	</g>
</g>
</svg>
