<?xml version="1.0" encoding="utf-8"?>
<!-- Generator: Adobe Illustrator 21.0.2, SVG Export Plug-In . SVG Version: 6.00 Build 0)  -->
<svg xmlns="http://www.w3.org/2000/svg" xmlns:xlink="http://www.w3.org/1999/xlink" version="1.1" id="Layer_1" x="0px" y="0px" viewBox="0 0 100 100" enable-background="new 0 0 100 100" xml:space="preserve" width="512" height="512">
<g>
	<circle fill="#EFC84A" cx="50" cy="50" r="48"/>
	<path opacity="0.1" d="M95.1727295,66.2518082L54.5999756,25.6791763c-1.7299805-1.9500732-4.25-3.1800537-7.0699463-3.1800537   c-3.1900024,0-5.9900513,1.5800781-7.7000122,3.9899902l-0.7800293-0.7700195l-0.1300049-0.1398926l-0.6099854-0.6101074   c-1.6799927-1.5299072-3.9099731-2.4699707-6.3599854-2.4699707c-0.3300171,0-0.6500244,0.0200195-0.9700317,0.0500488   C26.2199707,23.0291519,22.5,27.0491714,22.5,31.9391861c0,2.6400146,3.1199951,6.9899902,6.7000122,11.1199951   c-0.5300293,4.2399902,0.6300049,8.6599121,3.5100098,12.1500244c0.3200073,0.3900146,0.6599731,0.7698975,1.0299683,1.1400146   c0.3900146,0.3898926,0.7999878,0.7600098,1.210022,1.0999756l35.8306274,35.8306885   C82.0653076,87.8516617,90.8954468,78.1385269,95.1727295,66.2518082z"/>
	<g>
		<g>
			<g>
				<path fill="#D15241" d="M56.9684143,31.9407883c0,6.2139549-17.2342072,21.8681297-17.2342072,21.8681297      S22.5000019,38.1547432,22.5000019,31.9407883c0-5.2180595,4.2354527-9.4403038,9.4403019-9.4403038      c3.2398033,0,6.0943413,1.6331921,7.7939034,4.1160831c1.6995621-2.4828911,4.5541-4.1160831,7.7939034-4.1160831      C52.7462502,22.5004845,56.9684143,26.7227287,56.9684143,31.9407883z"/>
			</g>
			<g>
				<path fill="#E56353" d="M31.9460583,22.4999981c-5.2135201,0-9.4398975,4.2263775-9.4398975,9.4398575      c0,6.2150097,17.2333145,21.869875,17.2333145,21.869875V26.6160812      C38.0390205,24.131731,35.1839943,22.4999981,31.9460583,22.4999981z"/>
			</g>
		</g>
		<g>
			<path fill="#64798A" d="M56.3480148,33.7406349c-6.2429047-6.2428532-16.3644867-6.2428532-22.6073914,0     c-6.242691,6.2427979-6.242691,16.3644333,0,22.6072311c6.2429047,6.2428551,16.3644867,6.2428551,22.6073914,0     C62.5907097,50.1050682,62.5907097,39.9834328,56.3480148,33.7406349z M54.030014,54.0300293     c-4.9626274,4.9626808-13.0087585,4.9626808-17.9713898,0c-4.962738-4.962738-4.962738-13.0088158,0-17.9715538     c4.9626312-4.9626846,13.0087624-4.9626846,17.9713898,0C58.9927521,41.0212135,58.9927521,49.0672913,54.030014,54.0300293z"/>
			
				<ellipse transform="matrix(0.7071068 -0.7071068 0.7071068 0.7071068 -18.9146862 45.6641731)" opacity="0.52" fill="#FFFFFF" cx="45.6641922" cy="45.6641312" rx="11.9235096" ry="11.9235096"/>
			<path opacity="0.67" fill="#EBF0F3" d="M37.2329979,54.0952873c-4.6564293-4.6563759-4.6564293-12.2059517,0-16.8623848     c4.6564331-4.6563759,12.2059555-4.6563759,16.8623848,0c3.1849937,3.1849403,4.18853,7.7227859,3.0165215,11.7631607     c1.4382133-4.4047966,0.4189796-9.4367714-3.0818901-12.9375877c-4.9626274-4.9626846-13.0087585-4.9626846-17.9713898,0     c-4.962738,4.962738-4.962738,13.0088158,0,17.9715538c3.5008698,3.5009232,8.533062,4.5202065,12.938015,3.0817261     C44.9560509,58.2839241,40.4181023,57.2803345,37.2329979,54.0952873z"/>
			
				<rect x="54.9510727" y="53.7667389" transform="matrix(0.7071068 -0.7071068 0.7071068 0.7071068 -23.7658253 57.3758621)" fill="#64798A" width="4.8496127" height="7.2181635"/>
			<path fill="#3A556A" d="M56.0039139,62.2271461l15.190712,15.1907158c0.864357,0.864357,7.0875931-5.3588791,6.2232437-6.2232361     L62.22715,56.0039101C61.1618233,54.9385834,54.9385834,61.1618195,56.0039139,62.2271461z"/>
			
				<rect x="57.5043182" y="60.7817688" transform="matrix(0.7071068 -0.7071068 0.7071068 0.7071068 -25.6418114 61.9048119)" fill="#FCD462" width="8.8009863" height="2.246084"/>
		</g>
	</g>
</g>
</svg>
