<?xml version="1.0" encoding="utf-8"?>
<!-- Generator: Adobe Illustrator 21.0.2, SVG Export Plug-In . SVG Version: 6.00 Build 0)  -->
<svg xmlns="http://www.w3.org/2000/svg" xmlns:xlink="http://www.w3.org/1999/xlink" version="1.1" id="Layer_1" x="0px" y="0px" viewBox="0 0 100 100" enable-background="new 0 0 100 100" xml:space="preserve" width="512" height="512">
<g>
	<circle fill="#45B39C" cx="50" cy="50" r="48"/>
	<path opacity="0.1" d="M57.7299805,32.0191422v2.1800537l-0.0400391-0.0400391v-1.8900146h-1.8898926l-5.0700684-5.0599365   l-0.0999756-0.1099854C50.4399414,26.8692398,50.2299805,26.6392593,50,26.4391861v-0.0100098   c-0.2299805-0.2000732-0.4699707-0.3900146-0.7099609-0.539917c-0.0100098-0.0100098-0.0100098-0.0100098-0.0100098-0.0200195   c-0.0100098,0-0.0100098,0-0.0100098,0c-0.6400146-0.4100342-1.3300781-0.630127-1.9699707-0.5   c-3.0600586,0.5899658-5.0700684,2.8598633-6.2199707,4.6799316c-0.3000488-0.1300049-0.630127-0.2099609-0.9801025-0.2099609   c-0.2199707,0-0.4400635,0.0300293-0.6400146,0.0899658l-2.0100098-2l-0.0899658-0.0899658   c-1.1300049-1.1300049-2.5999756-2.1101074-4.4599609-2.4699707c-0.6500244-0.130127-1.3399658,0.0899658-1.9801025,0.5   c-0.0100098,0.0100098-0.0100098,0.0100098-0.0198975,0.0200195c-0.2401123,0.1499023-0.4801025,0.3398438-0.710083,0.539917   c0,0.0100098,0,0.0100098,0,0.0100098C29.5,27.0591812,28.9099121,27.8692398,28.5600586,28.6392593   c-0.0100098,0.0299072-0.0200195,0.0599365-0.0400391,0.0898438c-0.0300293,0.0800781-0.0600586,0.1601563-0.0900879,0.2399902   c-0.0998535,0.2700195-0.1699219,0.5300293-0.1999512,0.7700195c-0.0200195,0.1800537-0.0100098,0.3400879,0.0100098,0.4899902   c0.0500488,0.2700195,0.2099609,0.5100098,0.4199219,0.710083l1.3300781,1.3299561H22.5v6.2700195l0.7399902,0.7399902v21.1101074   H22.5v8.039917l29.5196533,29.5197754c21.3868408-0.8863525,39.1575928-15.7591553,44.4023438-35.7177734L66.2099609,32.0191422   H57.7299805z"/>
	<g>
		<g>
			<g>
				<g>
					<path fill="#FCD462" d="M51.9620743,29.7432899c-0.1893387-1.7766457-2.6336479-4.7671833-4.6641006-4.3745556       c-5.3061295,1.0260601-7.4489975,7.1097507-7.4489975,7.1097507s4.1506386-1.0131378,7.4489975-2.5145931       C47.2979736,29.963892,51.2419548,28.0320663,51.9620743,29.7432899z"/>
					<path fill="#44C4A1" d="M50.6767769,28.4799843c-1.4279366-0.0336685-3.2215042,0.8120861-3.5701866,0.9832878       c-2.2030525,0.9950294-5.0895386,2.0002422-6.5771866,2.4306202c0.6160736-1.1872063,2.9750214-5.2203426,6.9294205-5.9792767       c0.0390778-0.007534,0.0833473-0.0097065,0.1303482-0.0120144c0.0515099-0.0025806,0.1049347-0.005228,0.1613617-0.0149345       c0.4327126-0.0744419,1.6313858,0.2687836,2.25494,0.5498695c-0.2332649-0.2118034-0.4783173-0.4024277-0.7302132-0.5635738       c-0.5881844-0.1815529-1.2343826-0.3183289-1.5722733-0.260273c-0.0424919,0.0072651-0.0853958,0.0090981-0.1278877,0.0112019       c-0.0545158,0.0027142-0.1109467,0.0054989-0.1692886,0.0166988c-4.5188255,0.8672733-7.0001945,5.8469048-7.2682686,6.4118958       l-0.1292534,0.2723465l0.2923927-0.078949c1.3746529-0.371048,4.5449219-1.4569054,6.9329758-2.5359745       c0.3351555-0.1644802,2.0806274-0.9798241,3.4368362-0.9530106c0.4274864,0.0096569,0.8335037,0.1282902,1.0967445,0.2097931       c-0.0403595-0.1087399-0.0852242-0.2188721-0.1361198-0.330328       C51.3683243,28.563736,51.0330467,28.487978,50.6767769,28.4799843z"/>
					<path fill="#F6C358" d="M47.2979736,29.963892c-3.2983589,1.5014553-7.4489975,2.5145931-7.4489975,2.5145931       l8.8367691-0.4258575c0,0,3.0000267-0.4055824,3.2653313-1.8251114       c0.0273933-0.1466351,0.0295792-0.3098431,0.0109978-0.4842262       C51.2419548,28.0320663,47.2979736,29.963892,47.2979736,29.963892z"/>
				</g>
				<g>
					<path fill="#FCD462" d="M28.232151,29.7432899c0.1893368-1.7766457,2.633646-4.7671833,4.6640968-4.3745556       c5.3061333,1.0260601,7.4490013,7.1097507,7.4490013,7.1097507s-4.1506386-1.0131378-7.4490013-2.5145931       C32.8962479,29.963892,28.9522686,28.0320663,28.232151,29.7432899z"/>
					<path fill="#44C4A1" d="M29.5174465,28.4799843c1.4279385-0.0336685,3.2215061,0.8120861,3.5701885,0.9832878       c2.2030525,0.9950294,5.0895386,2.0002422,6.5771866,2.4306202c-0.6160736-1.1872063-2.9750214-5.2203426-6.9294205-5.9792767       c-0.0390778-0.007534-0.0833473-0.0097065-0.1303482-0.0120144c-0.0515099-0.0025806-0.1049347-0.005228-0.1613617-0.0149345       c-0.4327126-0.0744419-1.6313839,0.2687836-2.2549381,0.5498695c0.2332649-0.2118034,0.4783134-0.4024277,0.7302113-0.5635738       c0.5881824-0.1815529,1.2343826-0.3183289,1.5722733-0.260273c0.0424919,0.0072651,0.0853958,0.0090981,0.1278877,0.0112019       c0.0545158,0.0027142,0.1109467,0.0054989,0.1692886,0.0166988c4.5188255,0.8672733,7.0001945,5.8469048,7.2682686,6.4118958       l0.1292534,0.2723465l-0.2923927-0.078949c-1.3746529-0.371048-4.5449219-1.4569054-6.9329758-2.5359745       c-0.3351555-0.1644802-2.0806274-0.9798241-3.4368362-0.9530106c-0.4274864,0.0096569-0.8335056,0.1282902-1.0967445,0.2097931       c0.0403576-0.1087399,0.0852242-0.2188721,0.1361198-0.330328C28.825901,28.563736,29.1611786,28.487978,29.5174465,28.4799843       z"/>
					<path fill="#F6C358" d="M32.8962479,29.963892c3.2983627,1.5014553,7.4490013,2.5145931,7.4490013,2.5145931       l-8.8367691-0.4258575c0,0-3.0000267-0.4055824-3.2653313-1.8251114       c-0.0273933-0.1466351-0.0295811-0.3098431-0.0109978-0.4842262       C28.9522686,28.0320663,32.8962479,29.963892,32.8962479,29.963892z"/>
				</g>
			</g>
			<rect x="22.5000019" y="32.2704811" fill="#E56353" width="35.1942215" height="6.2712126"/>
			<rect x="23.2424946" y="38.5416946" fill="#D15241" width="33.7092361" height="21.9861336"/>
			<polygon fill="#CE412D" points="56.9517288,40.078846 23.2424946,40.091053 23.2424946,38.5416946 56.9517288,38.5416946    "/>
			<rect x="37.072525" y="32.2704811" fill="#FCD462" width="6.0491762" height="28.2573452"/>
			<g>
				<rect x="37.8026009" y="32.2704811" fill="#44C4A1" width="0.5484773" height="28.2573452"/>
				<rect x="41.8431473" y="32.2704811" fill="#44C4A1" width="0.5484773" height="28.2573452"/>
			</g>
			<g>
				<g>
					<path fill="#F6C358" d="M35.7310486,41.4326401c0.5809669-1.5483322,0.3959351-2.7615891,0.1385612-5.0934601       c-2.3357887,0.3408051-3.5639381,0.4690056-4.92523,1.4181976c2.3971996-3.346508,4.3394146-4.7640266,7.81357-7.0001316       c0.72752,0.5586109,1.0912819,0.8379116,1.8188133,1.3965054       C39.2756157,36.0583229,38.3851814,38.2834435,35.7310486,41.4326401z"/>
					<path fill="#44C4A1" d="M39.0846634,31.0080891c-0.0235672-0.018095-0.0452156-0.0347176-0.0695114-0.0533733       c-0.0118752-0.0091171-0.0256386-0.0196838-0.0376968-0.0289421c-2.4137077,1.6651497-5.0950813,3.7424774-6.7990723,6.1675987       c0.2992401-0.1174164,0.6106071-0.2115326,0.9444427-0.2923355c1.9940529-2.5604362,3.5831757-3.6798553,6.0195236-5.7486305       C39.1192703,31.0346851,39.1025047,31.0217876,39.0846634,31.0080891z"/>
					<path fill="#44C4A1" d="M40.3572693,31.9852104c-0.0120583-0.0092583-0.0258217-0.019825-0.0376968-0.0289421       c-0.0242958-0.0186558-0.0459137-0.0352554-0.0695419-0.0533962c-0.0178108-0.0136776-0.0346298-0.0265675-0.0577126-0.0442867       c-1.4003601,2.8642921-2.089035,4.6751328-4.0795135,7.2384109c0.0055542,0.3414154-0.0076637,0.6644554-0.0464516,0.9818497       C37.9980698,37.8284988,39.3446083,34.7261963,40.3572693,31.9852104z"/>
				</g>
				<g>
					<path fill="#F6C358" d="M44.2652359,41.4326401c-0.5809669-1.5483322-0.3959351-2.7615891-0.1385612-5.0934601       c2.3357887,0.3408051,3.5639381,0.4690056,4.9252319,1.4181976c-2.3972015-3.346508-4.3394165-4.7640266-7.8135719-7.0001316       c-0.72752,0.5586109-1.0912819,0.8379116-1.8188133,1.3965054       C40.7206688,36.0583229,41.6111031,38.2834435,44.2652359,41.4326401z"/>
					<path fill="#44C4A1" d="M40.9116211,31.0080891c0.0235672-0.018095,0.0452156-0.0347176,0.0695114-0.0533733       c0.0118752-0.0091171,0.0256386-0.0196838,0.0376968-0.0289421c2.4137077,1.6651497,5.0950813,3.7424774,6.7990723,6.1675987       c-0.2992401-0.1174164-0.6106071-0.2115326-0.9444427-0.2923355c-1.9940529-2.5604362-3.5831757-3.6798553-6.0195236-5.7486305       C40.8770142,31.0346851,40.8937798,31.0217876,40.9116211,31.0080891z"/>
					<path fill="#44C4A1" d="M39.6390152,31.9852104c0.0120583-0.0092583,0.0258217-0.019825,0.0376968-0.0289421       c0.0242958-0.0186558,0.0459137-0.0352554,0.0695419-0.0533962c0.0178108-0.0136776,0.0346298-0.0265675,0.0577126-0.0442867       c1.4003601,2.8642921,2.089035,4.6751328,4.0795135,7.2384109c-0.0055542,0.3414154,0.0076637,0.6644554,0.0464554,0.9818497       C41.9982147,37.8284988,40.6516762,34.7261963,39.6390152,31.9852104z"/>
				</g>
			</g>
			<path fill="#DC8744" d="M40.0971107,29.8405914c-1.3374214,0-2.4216347,1.0773335-2.4216347,2.406292h4.8432732     C42.5187492,30.9179249,41.434536,29.8405914,40.0971107,29.8405914z"/>
		</g>
		<polygon fill="#64798A" points="77.5,45.6261559 77.5,68.4261398 22.5000019,68.4261398 22.5000019,60.3861656     57.7299805,60.3861656 57.7299805,32.0161705 66.2099609,32.0161705   "/>
		<polygon fill="#27A2DB" points="75.5,49.3961754 75.5,46.3483238 65.2705078,34.0162926 59.7294922,34.0162926     59.7294922,49.3961754   "/>
		<rect x="59.7294922" y="51.662178" fill="#3A556A" width="0.9969312" height="3.8978038"/>
		<path fill="#FCD462" d="M75.2841797,57.6114159c0,1.2236938,0.9921875,2.2156372,2.2158203,2.2156372v-4.4312134    C76.2763672,55.3958397,75.2841797,56.3877831,75.2841797,57.6114159z"/>
		<g>
			<path fill="#2F4859" d="M27.8710957,68.5000153c0-3.9521484,3.2148438-7.166996,7.1669903-7.166996     s7.1669922,3.2148476,7.1669922,7.166996"/>
			<circle fill="#3A556A" cx="35.0379486" cy="68.4996796" r="6.1667151"/>
			<circle fill="#2F4859" cx="35.0379486" cy="68.4996796" r="3.408767"/>
			<circle fill="#64798A" cx="35.0379486" cy="68.4996796" r="0.5349361"/>
			<g>
				<circle fill="#64798A" cx="35.0379486" cy="66.1603317" r="0.5349361"/>
				<circle fill="#64798A" cx="35.0379486" cy="70.8390274" r="0.5349361"/>
			</g>
			<g>
				
					<ellipse transform="matrix(0.8660254 -0.5 0.5 0.8660254 -30.4119053 25.8399315)" fill="#64798A" cx="33.0120163" cy="69.6693497" rx="0.5349361" ry="0.5349361"/>
				
					<ellipse transform="matrix(0.8660254 -0.5 0.5 0.8660254 -28.6993828 27.5524521)" fill="#64798A" cx="37.0638847" cy="67.3300018" rx="0.5349361" ry="0.5349361"/>
			</g>
			<g>
				
					<ellipse transform="matrix(0.5 -0.8660254 0.8660254 0.5 -41.8034859 66.9329376)" fill="#64798A" cx="37.0638847" cy="69.6693497" rx="0.5349361" ry="0.5349361"/>
				
					<ellipse transform="matrix(0.5 -0.8660254 0.8660254 0.5 -41.8034859 62.2542458)" fill="#64798A" cx="33.0120163" cy="67.3300018" rx="0.5349361" ry="0.5349361"/>
			</g>
		</g>
		<g>
			<path fill="#2F4859" d="M59.4454498,68.5000153c0-3.9521484,3.2148438-7.166996,7.1669922-7.166996     s7.1669922,3.2148476,7.1669922,7.166996"/>
			<circle fill="#3A556A" cx="66.6123047" cy="68.4996796" r="6.1667151"/>
			<circle fill="#2F4859" cx="66.6123047" cy="68.4996796" r="3.408767"/>
			<circle fill="#64798A" cx="66.6123047" cy="68.4996796" r="0.5349361"/>
			<g>
				<circle fill="#64798A" cx="66.6123047" cy="66.1603317" r="0.5349361"/>
				<circle fill="#64798A" cx="66.6123047" cy="70.8390274" r="0.5349361"/>
			</g>
			<g>
				
					<ellipse transform="matrix(0.8660254 -0.5 0.5 0.8660254 -26.1817436 41.6271095)" fill="#64798A" cx="64.5863724" cy="69.6693497" rx="0.5349361" ry="0.5349361"/>
				
					<ellipse transform="matrix(0.8660254 -0.5 0.5 0.8660254 -24.4692211 43.3396301)" fill="#64798A" cx="68.638237" cy="67.3300018" rx="0.5349361" ry="0.5349361"/>
			</g>
			<g>
				
					<ellipse transform="matrix(0.5 -0.8660254 0.8660254 0.5 -26.0163097 94.2771378)" fill="#64798A" cx="68.638237" cy="69.6693497" rx="0.5349361" ry="0.5349361"/>
				
					<ellipse transform="matrix(0.5 -0.8660254 0.8660254 0.5 -26.0163097 89.5984421)" fill="#64798A" cx="64.5863724" cy="67.3300018" rx="0.5349361" ry="0.5349361"/>
			</g>
		</g>
		<path fill="#FCD462" d="M22.5000019,64.0751877v2.4515381h1.0771484c0.2397461,0,0.434082-0.1942749,0.434082-0.43396v-2.0175781    H22.5000019z"/>
		<path fill="#E56353" d="M24.0112324,62.4230919c0-0.239624-0.1943359-0.43396-0.434082-0.43396h-1.0771484v2.0860558h1.5112305    V62.4230919z"/>
	</g>
</g>
</svg>
