<?xml version="1.0" encoding="utf-8"?>
<!-- Generator: Adobe Illustrator 21.0.2, SVG Export Plug-In . SVG Version: 6.00 Build 0)  -->
<svg xmlns="http://www.w3.org/2000/svg" xmlns:xlink="http://www.w3.org/1999/xlink" version="1.1" id="Layer_1" x="0px" y="0px" viewBox="0 0 100 100" enable-background="new 0 0 100 100" xml:space="preserve" width="512" height="512">
<g>
	<circle fill="#E05B49" cx="50" cy="50" r="48"/>
	<path opacity="0.1" d="M98,49.9999771c0-0.2961426-0.0169678-0.5882568-0.0223389-0.8830566L77.9799805,29.1192398h-0.6499634   l-6.6199951-6.6201172H22.9799805v3.3000488l1.3699951,1.3699951v18.9700928l-2.3299561,2.3498535v2.1101074   c0,0.8798828,0.3699951,1.6699219,0.9599609,2.2299805l0.0400391,0.0400391l1.3299561,1.3299561v20h-1.3699951v3.2999268   l19.9824219,19.9824219C45.2600098,97.819191,47.6086426,97.9999771,50,97.9999771   C76.5097046,97.9999771,98,76.5096207,98,49.9999771z"/>
	<g>
		<g>
			<rect x="68.837059" y="31.9155884" fill="#64798A" width="3.2014956" height="2.8173163"/>
			<rect x="68.837059" y="48.755455" fill="#64798A" width="3.2014956" height="2.8173163"/>
		</g>
		<rect x="24.3475761" y="22.4999981" fill="#E1E6E9" width="45.0017204" height="55"/>
		<rect x="22.9841709" y="22.4999981" fill="#EBF0F3" width="47.7285309" height="3.2975278"/>
		<rect x="71.2628555" y="29.1199188" fill="#27A2DB" width="6.7213182" height="25.2485256"/>
		<g>
			<rect x="37.6532364" y="29.1199188" fill="#27A2DB" width="8.0567474" height="11.6250572"/>
			<g>
				<polygon fill="#43C1ED" points="41.0483131,40.744976 39.4116936,40.744976 43.4116936,29.1199188 45.0483131,29.1199188           "/>
				<polygon fill="#43C1ED" points="38.8601837,40.744976 38.3149033,40.744976 42.3149033,29.1199188 42.8601837,29.1199188           "/>
			</g>
		</g>
		<g>
			<rect x="27.3195801" y="29.1199188" fill="#27A2DB" width="8.0567474" height="11.6250572"/>
			<g>
				<polygon fill="#43C1ED" points="30.7146587,40.744976 29.0780373,40.744976 33.0780373,29.1199188 34.7146606,29.1199188           "/>
				<polygon fill="#43C1ED" points="28.5265274,40.744976 27.9812508,40.744976 31.9812508,29.1199188 32.5265274,29.1199188           "/>
			</g>
		</g>
		<g>
			<rect x="47.9868889" y="29.1199188" fill="#27A2DB" width="8.0567474" height="11.6250572"/>
			<g>
				<polygon fill="#43C1ED" points="51.3819695,40.744976 49.7453461,40.744976 53.7453461,29.1199188 55.3819695,29.1199188           "/>
				<polygon fill="#43C1ED" points="49.1938362,40.744976 48.6485596,40.744976 52.6485596,29.1199188 53.1938362,29.1199188           "/>
			</g>
		</g>
		<g>
			<rect x="58.3205452" y="29.1199188" fill="#27A2DB" width="8.0567474" height="11.6250572"/>
			<g>
				<polygon fill="#43C1ED" points="61.7156219,40.744976 60.0790024,40.744976 64.0790024,29.1199188 65.7156219,29.1199188           "/>
				<polygon fill="#43C1ED" points="59.5274925,40.744976 58.9822121,40.744976 62.9822121,29.1199188 63.5274925,29.1199188           "/>
			</g>
		</g>
		<rect x="26.8175373" y="40.5566902" fill="#D5D6DB" width="9.0608339" height="1.0607805"/>
		<rect x="37.1511917" y="40.5566902" fill="#D5D6DB" width="9.0608339" height="1.0607805"/>
		<rect x="47.484848" y="40.5566902" fill="#D5D6DB" width="9.0608339" height="1.0607805"/>
		<rect x="57.8185005" y="40.5566902" fill="#D5D6DB" width="9.0608339" height="1.0607805"/>
		
			<rect x="23.160471" y="55.6184959" transform="matrix(-1.836970e-16 1 -1 -1.836970e-16 99.362854 28.0546074)" fill="#D5D6DB" width="24.9873047" height="16.1804714"/>
		<rect x="29.0780373" y="53.2153091" fill="#DC8744" width="13.1519651" height="20.9871597"/>
		<rect x="22.9841709" y="74.2024689" fill="#EBF0F3" width="47.7285309" height="3.2975278"/>
		<g>
			<path fill="#F6C358" d="M22.015831,48.492363v2.1040764c0,1.7143364,1.3897362,3.1040726,3.104044,3.1040726     c1.7143707,0,3.1041069-1.3897362,3.1041069-3.1040726V48.492363H22.015831z"/>
			<path fill="#CE412D" d="M28.2239838,48.492363v2.1040764c0,1.7143364,1.3897362,3.1040726,3.104044,3.1040726     c1.7143688,0,3.104105-1.3897362,3.104105-3.1040726V48.492363H28.2239838z"/>
			<path fill="#F6C358" d="M34.4321327,48.492363v2.1040764c0,1.7143364,1.3897362,3.1040726,3.1040459,3.1040726     c1.7143707,0,3.1041069-1.3897362,3.1041069-3.1040726V48.492363H34.4321327z"/>
			<path fill="#CE412D" d="M40.6402855,48.492363v2.1040764c0,1.7143364,1.3897362,3.1040726,3.1040459,3.1040726     c1.7143669,0,3.1041031-1.3897362,3.1041031-3.1040726V48.492363H40.6402855z"/>
			<path fill="#F6C358" d="M46.8484344,48.492363v2.1040764c0,1.7143364,1.38974,3.1040726,3.1040459,3.1040726     c1.7143707,0,3.1041069-1.3897362,3.1041069-3.1040726V48.492363H46.8484344z"/>
			<path fill="#CE412D" d="M53.0565872,48.492363v2.1040764c0,1.7143364,1.3897362,3.1040726,3.1040459,3.1040726     c1.7143707,0,3.1041069-1.3897362,3.1041069-3.1040726V48.492363H53.0565872z"/>
			<path fill="#F6C358" d="M59.26474,48.492363v2.1040764c0,1.7143364,1.3897362,3.1040726,3.1040421,3.1040726     c1.7143707,0,3.1041107-1.3897362,3.1041107-3.1040726V48.492363H59.26474z"/>
			<path fill="#CE412D" d="M65.4728928,48.492363v2.1040764c0,1.7143364,1.3897324,3.1040726,3.1040421,3.1040726     c1.7143707,0,3.1041031-1.3897362,3.1041031-3.1040726V48.492363H65.4728928z"/>
			<polygon fill="#FCD462" points="32.4685287,42.7925568 27.6752243,42.7925568 22.015831,48.492363 28.2239819,48.492363    "/>
			<polygon fill="#E56353" points="37.2618294,42.7925568 32.4685287,42.7925568 28.2239819,48.492363 34.4321327,48.492363    "/>
			<polygon fill="#FCD462" points="42.0551338,42.7925568 37.2618294,42.7925568 34.4321327,48.492363 40.6402855,48.492363    "/>
			<polygon fill="#E56353" points="46.8484344,42.7925568 42.0551338,42.7925568 40.6402855,48.492363 46.8484344,48.492363    "/>
			<polygon fill="#FCD462" points="51.6417389,42.7925568 46.8484344,42.7925568 46.8484344,48.492363 53.0565872,48.492363    "/>
			<polygon fill="#E56353" points="56.4350395,42.7925568 51.6417389,42.7925568 53.0565872,48.492363 59.2647362,48.492363    "/>
			<polygon fill="#FCD462" points="61.228344,42.7925568 56.4350395,42.7925568 59.2647362,48.492363 65.4728928,48.492363    "/>
			<polygon fill="#E56353" points="66.0216446,42.7925568 61.228344,42.7925568 65.4728928,48.492363 71.6810379,48.492363    "/>
		</g>
		<circle fill="#FCD462" cx="40.3220329" cy="63.708889" r="0.697693"/>
		<g>
			<rect x="48.2565727" y="55.0434265" fill="#FFFFFF" width="15.1899319" height="12.6037884"/>
			<g>
				<rect x="56.2642288" y="55.8691063" fill="#27A2DB" width="6.3563495" height="5.0635085"/>
				<rect x="49.0821419" y="55.8691063" fill="#27A2DB" width="6.3563495" height="5.0635085"/>
				<rect x="56.2642288" y="61.7583542" fill="#27A2DB" width="6.3563495" height="5.0631051"/>
				<rect x="49.0821419" y="61.7583542" fill="#27A2DB" width="6.3563495" height="5.0631051"/>
			</g>
		</g>
	</g>
</g>
</svg>
